<svg width="512" height="264" viewBox="0 0 512 264" fill="none" xmlns="http://www.w3.org/2000/svg">
<g clip-path="url(#clip0_3880_41801)">
<rect width="512" height="264" rx="8" fill="#F9F9FA"/>
<rect x="256" width="256" height="264" fill="#FCE9EA"/>
<g filter="url(#filter0_f_3880_41801)">
<ellipse cx="383.5" cy="131.5" rx="118.5" ry="117.5" fill="url(#paint0_radial_3880_41801)" fill-opacity="0.35"/>
</g>
<rect width="256" height="264" fill="#EEF7EE"/>
<path d="M309.069 165.099C309.069 165.099 309.345 165.336 309.869 165.819L312.178 167.988L321.061 176.367L354.156 207.655H354.037L416.841 207.606L416.693 207.665L460.566 163.808L460.487 163.985V101.409L460.556 101.586L459.766 100.798L416.278 57.3549L416.456 57.4337H353.81L353.968 57.3746C336.942 74.3988 321.821 89.5501 309.178 102.237V102.119C309.178 121.834 309.109 137.606 309.089 148.391C309.089 153.793 309.089 157.962 309.089 160.792C309.089 162.201 309.089 163.266 309.089 163.995C309.089 164.725 309.089 165.099 309.089 165.099C309.089 165.099 309.089 164.735 309.089 164.015C309.089 163.295 309.089 162.221 309.089 160.831C309.089 158.002 309.089 153.842 309.089 148.44C309.089 137.596 309.089 121.873 309 102.109V102.03L353.722 57.069L353.781 57H353.879H416.525H416.634L416.703 57.0789L460.131 100.443L460.921 101.231L461 101.3V101.409C461 123.145 461 144.221 461 163.936V164.035L460.921 164.114L417.009 207.931L416.95 208H416.851L354.037 207.99H353.978L320.913 176.446L312.089 168.017L309.819 165.829L309.069 165.099Z" fill="white"/>
<path d="M319.959 159.518V105.601L358.216 67.1396H411.78L449.638 104.997V158.524L412.105 196.048H358.421L319.959 159.518Z" fill="#E85963"/>
<path d="M319.959 159.518L320.637 160.14L322.615 161.998L330.231 169.168L358.523 195.945H358.421L412.105 195.899L411.966 195.954L449.471 158.412L449.406 158.58C449.406 141.703 449.406 123.657 449.406 105.053L449.471 105.229L448.802 104.551L411.65 67.3994L411.817 67.4737H358.253L358.402 67.4087L320.07 105.712V105.601C320.07 122.496 320.07 135.963 320.07 145.214C320.07 149.858 320.07 153.406 320.07 155.83C320.07 157.038 320.07 157.948 320.07 158.617C320.07 159.285 320.07 159.545 320.07 159.545C320.07 159.545 320.07 159.239 320.07 158.617C320.07 157.994 320.07 157.075 320.07 155.886C320.07 153.462 320.07 149.895 320.07 145.288C320.07 136 320.024 122.533 319.987 105.619V105.554L358.216 67.0557L358.272 67H358.365H411.929H412.021L412.096 67.0743L449.248 104.226L449.926 104.904L450 104.979V105.071C450 123.647 450 141.722 450 158.598V158.691L449.935 158.765L412.254 196.242L412.198 196.307H412.105L358.421 196.252H358.356L330.12 169.316L322.587 162.1L320.646 160.242L319.959 159.518Z" fill="white"/>
<path d="M405.343 109.349C404.894 109.107 404.386 108.996 403.877 109.029C403.368 109.062 402.878 109.237 402.464 109.535C401.84 110.153 401.331 110.876 400.959 111.671C399.464 114.402 398.08 117.244 396.603 119.965C396.4 120.337 396.07 120.624 395.674 120.774C393.239 121.548 391.087 123.028 389.492 125.025C387.897 127.022 386.929 129.447 386.711 131.993C386.694 132.115 386.646 132.23 386.572 132.328C386.527 132.39 386.466 132.44 386.396 132.473C386.326 132.505 386.248 132.52 386.171 132.514C386.094 132.508 386.02 132.483 385.955 132.441C385.89 132.399 385.837 132.34 385.801 132.272C385.733 132.16 385.698 132.031 385.699 131.901C385.924 129.197 386.933 126.618 388.602 124.479C390.272 122.341 392.53 120.737 395.099 119.863C395.38 119.776 395.627 119.601 395.803 119.364C395.978 119.127 396.073 118.839 396.074 118.544C396.074 116.687 396.074 114.773 396.074 112.888C396.074 107.612 396.074 102.337 396.074 97.052C396.074 96.311 395.886 95.5821 395.526 94.9343C395.173 94.4052 394.65 94.0126 394.044 93.8216C393.437 93.6307 392.783 93.653 392.191 93.8848C391.601 94.0654 391.087 94.437 390.73 94.9414C390.374 95.4457 390.195 96.0542 390.222 96.6712C390.222 102.343 390.222 108.012 390.222 113.677C390.227 113.773 390.227 113.869 390.222 113.965C390.217 114.053 390.186 114.137 390.133 114.208C390.08 114.279 390.008 114.332 389.926 114.363C389.843 114.393 389.754 114.399 389.668 114.38C389.582 114.36 389.504 114.316 389.442 114.253C389.356 114.176 389.288 114.079 389.247 113.971C389.205 113.863 389.189 113.746 389.201 113.631V110.074C389.201 104.789 389.201 99.5133 389.201 94.2377C389.186 93.5834 389.004 92.9437 388.671 92.3801C388.31 91.8575 387.787 91.4681 387.183 91.2718C386.579 91.0754 385.927 91.083 385.328 91.2934C384.733 91.4706 384.215 91.8408 383.855 92.3455C383.495 92.8502 383.314 93.4605 383.34 94.0798C383.34 99.3245 383.34 104.588 383.34 109.869V114.123C383.27 114.239 383.186 114.345 383.089 114.439C383.046 114.487 382.994 114.525 382.936 114.551C382.877 114.577 382.814 114.591 382.75 114.591C382.686 114.591 382.623 114.577 382.564 114.551C382.506 114.525 382.454 114.487 382.411 114.439C382.348 114.376 382.306 114.295 382.29 114.207V110.185C382.29 106.024 382.29 101.826 382.29 97.7021C382.324 97.1976 382.22 96.6934 381.99 96.2434C381.759 95.7935 381.41 95.4148 380.981 95.148C380.534 94.8515 380.015 94.6835 379.479 94.6622C378.943 94.6409 378.412 94.7672 377.944 95.0272C377.438 95.2846 377.021 95.6876 376.746 96.1842C376.471 96.6808 376.351 97.2483 376.402 97.8136C376.402 101.975 376.402 106.173 376.402 110.297V113.157C376.402 113.798 376.402 114.448 376.402 115.08C376.382 115.371 376.283 115.65 376.114 115.888C376.089 115.893 376.064 115.893 376.04 115.888C375.976 115.896 375.912 115.89 375.851 115.872C375.79 115.854 375.733 115.824 375.685 115.783C375.636 115.742 375.596 115.691 375.568 115.634C375.539 115.577 375.523 115.515 375.519 115.451L375.362 101.52C375.369 101.149 375.302 100.781 375.166 100.436C375.029 100.092 374.825 99.7778 374.565 99.5131C374.306 99.2484 373.996 99.0382 373.654 98.8947C373.313 98.7512 372.946 98.6773 372.575 98.6774C372.194 98.6671 371.814 98.7371 371.462 98.883C371.109 99.0289 370.791 99.2473 370.528 99.5241C370.265 99.8009 370.064 100.13 369.936 100.49C369.809 100.849 369.759 101.232 369.789 101.612V107.807V120.941C369.789 124.377 369.789 127.814 369.789 131.25C369.731 133.292 370.247 135.309 371.278 137.072C372.309 138.836 373.814 140.275 375.622 141.226C379.755 143.52 384.232 143.78 388.801 143.083C393.148 142.452 396.278 140.195 397.866 135.987C400.29 129.541 402.789 123.114 405.157 116.64C405.761 114.987 406.142 114.402 406.671 112.712C406.92 112.087 406.921 111.392 406.674 110.767C406.427 110.142 405.951 109.635 405.343 109.349Z" fill="white"/>
<path opacity="0.3" d="M320.6 160.159L416.322 72.0439L428.387 84.0905L333.891 172.884L320.6 160.159Z" fill="white"/>
<path opacity="0.3" d="M336.463 175.493L432.185 87.3779L435.464 91.2324L340.968 180.035L336.463 175.493Z" fill="white"/>
<path d="M356.52 174.302H360.84C365.02 174.362 368.1 171.482 368.04 167.662C368.1 163.762 365.02 161.062 360.84 161.102H356.52V174.302ZM359.22 171.862V163.542H360.82C363.52 163.542 365.26 165.102 365.26 167.662C365.26 170.202 363.48 171.862 360.82 171.862H359.22ZM369.569 167.702C369.509 171.482 372.769 174.622 376.569 174.542C380.369 174.622 383.669 171.482 383.609 167.702C383.669 163.922 380.369 160.782 376.569 160.862C372.769 160.782 369.509 163.922 369.569 167.702ZM380.829 167.702C380.829 170.242 379.009 172.042 376.589 172.042C374.149 172.042 372.349 170.242 372.349 167.702C372.349 165.162 374.149 163.362 376.589 163.362C379.009 163.362 380.829 165.202 380.829 167.702ZM394.435 161.102V168.982L386.775 160.862H385.895V174.302H388.595V166.382L396.235 174.542H397.135V161.102H394.435ZM400.293 166.662H402.353L403.473 161.102H400.393L400.293 166.662ZM409.148 174.302H411.848V163.542H416.088V161.102H404.928V163.542H409.148V174.302Z" fill="white"/>
<g filter="url(#filter1_f_3880_41801)">
<ellipse cx="127.5" cy="131.5" rx="118.5" ry="117.5" fill="url(#paint1_radial_3880_41801)" fill-opacity="0.5"/>
</g>
<path d="M59.7657 164.339C66.999 179.581 79.1315 191.959 94.2254 199.497C109.319 207.035 126.504 209.297 143.034 205.922C159.565 202.548 174.487 193.731 185.419 180.88C196.351 168.029 202.66 151.885 203.34 135.028C204.021 118.17 199.032 101.571 189.171 87.8808C179.311 74.1911 165.147 64.2006 148.942 59.5052C132.737 54.8097 115.426 55.6801 99.7739 61.9773C84.1218 68.2746 71.0315 79.6355 62.5937 94.2453C60.2808 98.2519 58.3341 102.459 56.7773 106.816" stroke="white" stroke-width="0.5" stroke-linecap="round" stroke-linejoin="round"/>
<path d="M53.8461 146.069C54.4787 149.362 55.3246 152.61 56.3786 155.793" stroke="white" stroke-width="0.5" stroke-linecap="round" stroke-linejoin="round"/>
<path d="M186.91 157.091C200.768 124.556 185.626 86.9481 153.092 73.091C120.557 59.2339 82.9487 74.3751 69.0915 106.91C55.2344 139.445 70.3756 177.053 102.91 190.91C135.445 204.767 173.053 189.626 186.91 157.091Z" fill="#81C27A"/>
<mask id="mask0_3880_41801" style="mask-type:alpha" maskUnits="userSpaceOnUse" x="63" y="67" width="130" height="130">
<path d="M186.91 157.091C200.768 124.556 185.626 86.9481 153.092 73.091C120.557 59.2339 82.9487 74.3751 69.0915 106.91C55.2344 139.445 70.3756 177.053 102.91 190.91C135.445 204.767 173.053 189.626 186.91 157.091Z" fill="#81C27A"/>
</mask>
<g mask="url(#mask0_3880_41801)">
<path opacity="0.3" d="M61 162.87L164.06 68L177.05 80.97L75.31 176.57L61 162.87Z" fill="white"/>
<path opacity="0.3" d="M78.0801 179.38L181.14 84.5098L184.67 88.6598L82.9301 184.27L78.0801 179.38Z" fill="white"/>
<path d="M114.521 172H118.841C123.021 172.06 126.101 169.18 126.041 165.36C126.101 161.46 123.021 158.76 118.841 158.8H114.521V172ZM117.221 169.56V161.24H118.821C121.521 161.24 123.261 162.8 123.261 165.36C123.261 167.9 121.481 169.56 118.821 169.56H117.221ZM127.57 165.4C127.51 169.18 130.77 172.32 134.57 172.24C138.37 172.32 141.67 169.18 141.61 165.4C141.67 161.62 138.37 158.48 134.57 158.56C130.77 158.48 127.51 161.62 127.57 165.4ZM138.83 165.4C138.83 167.94 137.01 169.74 134.59 169.74C132.15 169.74 130.35 167.94 130.35 165.4C130.35 162.86 132.15 161.06 134.59 161.06C137.01 161.06 138.83 162.9 138.83 165.4Z" fill="white"/>
</g>
<path d="M126.75 141.944C126.405 142.485 125.647 142.565 125.196 142.109L108.703 125.415C108.315 125.022 108.318 124.389 108.711 124.001L113.361 119.405C113.754 119.016 114.388 119.02 114.776 119.413L123.754 128.5C124.205 128.956 124.963 128.876 125.308 128.335L146.03 95.8427C146.327 95.3772 146.945 95.2404 147.411 95.537L152.926 99.0507C153.392 99.3476 153.529 99.9661 153.232 100.432L126.75 141.944Z" fill="white"/>
</g>
<defs>
<filter id="filter0_f_3880_41801" x="261" y="10" width="245" height="243" filterUnits="userSpaceOnUse" color-interpolation-filters="sRGB">
<feFlood flood-opacity="0" result="BackgroundImageFix"/>
<feBlend mode="normal" in="SourceGraphic" in2="BackgroundImageFix" result="shape"/>
<feGaussianBlur stdDeviation="2" result="effect1_foregroundBlur_3880_41801"/>
</filter>
<filter id="filter1_f_3880_41801" x="5" y="10" width="245" height="243" filterUnits="userSpaceOnUse" color-interpolation-filters="sRGB">
<feFlood flood-opacity="0" result="BackgroundImageFix"/>
<feBlend mode="normal" in="SourceGraphic" in2="BackgroundImageFix" result="shape"/>
<feGaussianBlur stdDeviation="2" result="effect1_foregroundBlur_3880_41801"/>
</filter>
<radialGradient id="paint0_radial_3880_41801" cx="0" cy="0" r="1" gradientUnits="userSpaceOnUse" gradientTransform="translate(383.5 131.5) rotate(90) scale(117.5 118.5)">
<stop stop-color="#FF523D"/>
<stop offset="0.933282" stop-color="#FCE9EA"/>
</radialGradient>
<radialGradient id="paint1_radial_3880_41801" cx="0" cy="0" r="1" gradientUnits="userSpaceOnUse" gradientTransform="translate(127.5 131.5) rotate(90) scale(117.5 118.5)">
<stop stop-color="#60B257"/>
<stop offset="0.933282" stop-color="#EEF7EE"/>
</radialGradient>
<clipPath id="clip0_3880_41801">
<rect width="512" height="264" rx="8" fill="white"/>
</clipPath>
</defs>
</svg>
