<svg width="512" height="264" viewBox="0 0 512 264" fill="none" xmlns="http://www.w3.org/2000/svg">
<rect width="512" height="264" rx="8" fill="#F9F9FA"/>
<g clip-path="url(#clip0_3880_39882)">
<g filter="url(#filter0_f_3880_39882)">
<ellipse cx="250.5" cy="128.646" rx="118.5" ry="111.258" fill="url(#paint0_radial_3880_39882)" fill-opacity="0.3"/>
</g>
<path d="M154.01 221.641V209.193C154.01 208.799 154.166 208.421 154.445 208.143C154.723 207.864 155.101 207.708 155.495 207.708H156.045C156.439 207.708 156.816 207.864 157.095 208.143C157.373 208.421 157.53 208.799 157.53 209.193V209.775H166.765V212.937H157.651V221.641H154.01Z" fill="#EBEBEB"/>
<path d="M166.579 224.143H145.082C144.272 224.143 143.616 224.799 143.616 225.608V262.178C143.616 262.987 144.272 263.643 145.082 263.643H166.579C167.389 263.643 168.045 262.987 168.045 262.178V225.608C168.045 224.799 167.389 224.143 166.579 224.143Z" fill="#E0E0E0"/>
<path d="M150.777 219.132H161.439C161.618 219.132 161.789 219.203 161.915 219.329C162.041 219.455 162.111 219.626 162.111 219.804V224.143H150.099V219.804C150.099 219.715 150.116 219.627 150.15 219.545C150.185 219.463 150.235 219.389 150.298 219.326C150.361 219.264 150.436 219.215 150.518 219.181C150.6 219.148 150.688 219.131 150.777 219.132Z" fill="#E0E0E0"/>
<path d="M166.419 230.293H155.833V256.431H166.419V230.293Z" fill="#EBEBEB"/>
<path d="M162.118 224.04C162.118 224.251 159.359 224.424 155.961 224.424C152.563 224.424 149.798 224.251 149.798 224.04C149.798 223.829 152.556 223.656 155.961 223.656C159.366 223.656 162.118 223.797 162.118 224.04Z" fill="#EBEBEB"/>
<path d="M145.12 250.127C144.909 250.127 144.736 244.969 144.736 238.607C144.736 232.245 144.909 227.087 145.12 227.087C145.332 227.087 145.504 232.239 145.504 238.607C145.504 244.975 145.332 250.127 145.12 250.127Z" fill="#FAFAFA"/>
<path d="M155.833 247.26H129.331V263.689H155.833V247.26Z" fill="#F5F5F5"/>
<path d="M155.514 253.301C155.514 253.474 149.715 253.621 142.566 253.621C135.418 253.621 129.619 253.474 129.619 253.301C129.619 253.128 135.379 252.975 142.566 252.975C149.754 252.975 155.514 253.122 155.514 253.301Z" fill="#E0E0E0"/>
<path d="M155.513 256.182H138.387V260.418H155.513V256.182Z" fill="white"/>
<path d="M399.98 -20.1006H294.028V133.474H399.98V-20.1006Z" fill="#E0E0E0"/>
<path d="M394.675 -20.1006H288.723V133.474H394.675V-20.1006Z" fill="#F5F5F5"/>
<path d="M381.51 -3.4668H301.888V116.84H381.51V-3.4668Z" fill="white"/>
<path d="M381.51 116.84C381.51 116.84 381.51 116.636 381.51 116.252C381.51 115.868 381.51 115.285 381.51 114.543C381.51 113.032 381.51 110.818 381.478 107.944C381.478 102.184 381.439 93.7748 381.407 83.1636C381.407 61.9476 381.331 31.906 381.279 -3.46681L381.542 -3.20441H301.926L302.214 -3.49241C302.214 41.89 302.169 83.7332 302.156 116.828L301.926 116.597L359.884 116.719L375.884 116.776H380.083C381.036 116.776 381.535 116.776 381.535 116.776H380.134H375.974L360.012 116.834L301.913 116.956H301.683V116.725C301.683 83.6436 301.644 41.8004 301.625 -3.59481V-3.88281H301.919H381.535H381.804V-3.61401C381.747 31.8292 381.702 61.9348 381.67 83.1892C381.67 93.7748 381.619 102.159 381.599 107.912C381.599 110.76 381.599 112.956 381.599 114.46C381.599 115.189 381.599 115.74 381.599 116.136C381.599 116.533 381.51 116.84 381.51 116.84Z" fill="#E0E0E0"/>
<path d="M381.92 116.45C385.879 122.739 390.538 128.56 395.808 133.801L381.92 116.45Z" fill="white"/>
<path d="M395.808 133.801C394.925 133.153 394.112 132.415 393.382 131.599C389.687 127.843 386.383 123.721 383.52 119.298C382.883 118.409 382.342 117.454 381.907 116.45C382.62 117.275 383.272 118.149 383.859 119.068C385.024 120.706 386.669 122.953 388.582 125.346C390.496 127.74 392.326 129.826 393.67 131.337C394.439 132.107 395.154 132.931 395.808 133.801Z" fill="#E0E0E0"/>
<path d="M288.71 133.352L302.585 116.226L288.71 133.352Z" fill="white"/>
<path d="M302.586 116.226C302.707 116.329 299.706 120.246 295.872 124.969C292.039 129.692 288.832 133.449 288.711 133.353C288.589 133.257 291.591 129.334 295.424 124.61C299.258 119.887 302.464 116.13 302.586 116.226Z" fill="#E0E0E0"/>
<path d="M302.17 14.6452C307.693 8.6932 318.112 5.9988 325.594 9.1668C329.318 10.8232 332.462 13.5552 334.622 17.0118C336.782 20.4684 337.859 24.4918 337.716 28.5652C345.3 29.8452 351.156 36.6612 352.903 44.1428C354.65 51.6244 352.954 59.554 349.94 66.626C348.711 69.5124 347.252 72.3412 346.676 75.426C346.1 78.5108 346.554 81.9796 348.73 84.2388C351.29 86.9332 355.456 87.1828 358.912 88.5972C363.968 90.6644 367.591 95.3492 369.607 100.431C371.623 105.512 372.231 111.016 372.807 116.431H302.586L302.17 14.6452Z" fill="#F5F5F5"/>
<path d="M306.214 101.416C306.137 101.352 321.574 84.0656 340.685 62.824C359.795 41.5824 375.36 24.424 375.437 24.4688C375.513 24.5136 360.077 41.8128 340.96 63.0672C321.843 84.3216 306.285 101.486 306.214 101.416Z" fill="#FAFAFA"/>
<path d="M368.083 20.3538C368.16 20.4242 358.432 31.2338 346.368 44.5458C334.304 57.8578 324.454 68.5586 324.377 68.5202C324.301 68.4818 334.029 57.6402 346.099 44.3282C358.169 31.0162 368.006 20.2898 368.083 20.3538Z" fill="#FAFAFA"/>
<path d="M363.629 53.0771C363.52 53.2248 363.398 53.3619 363.264 53.4867L362.157 54.6132L358.061 58.722C354.611 62.2036 349.888 67.042 344.806 72.5396C339.725 78.0371 335.238 83.0931 332.006 86.7987L328.218 91.1891C327.791 91.6841 327.445 92.0809 327.181 92.3796C327.065 92.5233 326.937 92.6561 326.797 92.7763C326.894 92.6209 327.003 92.4732 327.123 92.3348C327.366 92.0212 327.699 91.6115 328.109 91.0995C328.966 90.0308 330.234 88.5011 331.814 86.6195C334.976 82.8755 339.43 77.7748 344.518 72.2836C349.606 66.7924 354.362 61.9667 357.856 58.5363C359.61 56.8147 361.056 55.4388 362.035 54.5044L363.194 53.4292C363.327 53.2978 363.473 53.1799 363.629 53.0771Z" fill="#FAFAFA"/>
<path d="M216.09 70.46H211.188V82.524H216.09V70.46Z" fill="#E0E0E0"/>
<path d="M391.386 263.797C391.386 263.893 330.791 263.964 256.064 263.964C181.338 263.964 120.736 263.893 120.736 263.797C120.736 263.701 181.312 263.631 256.064 263.631C330.816 263.631 391.386 263.72 391.386 263.797Z" fill="#263238"/>
<path d="M362.24 221.64V209.192C362.24 208.798 362.397 208.42 362.675 208.142C362.954 207.863 363.331 207.707 363.725 207.707H364.282C364.676 207.707 365.053 207.863 365.332 208.142C365.61 208.42 365.767 208.798 365.767 209.192V209.774H375.002V212.936H365.875V221.64H362.24Z" fill="#263238"/>
<path d="M374.796 224.143H353.299C352.489 224.143 351.833 224.799 351.833 225.608V262.178C351.833 262.987 352.489 263.643 353.299 263.643H374.796C375.606 263.643 376.262 262.987 376.262 262.178V225.608C376.262 224.799 375.606 224.143 374.796 224.143Z" fill="#FFBB33"/>
<path d="M358.995 219.131H369.664C369.842 219.131 370.013 219.202 370.139 219.328C370.265 219.454 370.336 219.625 370.336 219.803V224.142H358.323V219.803C358.323 219.625 358.394 219.454 358.52 219.328C358.646 219.202 358.817 219.131 358.995 219.131Z" fill="#FFBB33"/>
<path d="M374.636 230.293H364.051V256.431H374.636V230.293Z" fill="#EBEBEB"/>
<path d="M370.336 224.04C370.336 224.251 367.578 224.424 364.179 224.424C360.781 224.424 358.022 224.251 358.022 224.04C358.022 223.829 360.774 223.656 364.179 223.656C367.584 223.656 370.336 223.797 370.336 224.04Z" fill="#263238"/>
<path d="M353.337 250.126C353.126 250.126 352.953 244.968 352.953 238.606C352.953 232.244 353.126 227.086 353.337 227.086C353.548 227.086 353.721 232.238 353.721 238.606C353.721 244.974 353.548 250.126 353.337 250.126Z" fill="#FAFAFA"/>
<path d="M346.937 247.214H320.435V263.643H346.937V247.214Z" fill="#455A64"/>
<path d="M346.623 253.256C346.623 253.435 340.825 253.576 333.67 253.576C326.515 253.576 320.723 253.435 320.723 253.256C320.723 253.077 326.521 252.93 333.67 252.93C340.819 252.93 346.623 253.077 346.623 253.256Z" fill="#263238"/>
<path d="M346.618 256.136H329.491V260.373H346.618V256.136Z" fill="white"/>
<path d="M341.881 230.792H315.379V247.221H341.881V230.792Z" fill="#FFBB33"/>
<path d="M340.902 236.84C340.902 237.019 335.104 237.166 327.955 237.166C320.806 237.166 315.008 237.019 315.008 236.84C315.008 236.66 320.8 236.52 327.955 236.52C335.11 236.52 340.902 236.66 340.902 236.84Z" fill="#263238"/>
<path d="M340.902 239.72H323.775V243.957H340.902V239.72Z" fill="white"/>
<path d="M181.267 247.259H154.765V263.688H181.267V247.259Z" fill="#455A64"/>
<path d="M180.288 253.3C180.288 253.473 174.49 253.62 167.341 253.62C160.192 253.62 154.394 253.473 154.394 253.3C154.394 253.127 160.186 252.974 167.341 252.974C174.496 252.974 180.288 253.121 180.288 253.3Z" fill="#263238"/>
<path d="M180.288 256.181H163.161V260.417H180.288V256.181Z" fill="white"/>
<path d="M304.858 63.1943L313.434 62.6951C318.485 67.3962 325.112 70.0381 332.012 70.1014C338.912 70.1648 345.586 67.645 350.723 63.0374C355.86 58.4298 359.087 52.0675 359.771 45.2012C360.455 38.3348 358.546 31.4608 354.42 25.9304C350.293 20.3999 344.247 16.613 337.47 15.3138C330.693 14.0146 323.675 15.2971 317.796 18.9094C311.916 22.5216 307.601 28.2022 305.697 34.8348C303.793 41.4673 304.439 48.5721 307.507 54.7527L304.858 63.1943Z" fill="white"/>
<path d="M304.858 63.1947C304.858 63.1947 304.903 63.0219 305.012 62.6635C305.12 62.3051 305.287 61.7547 305.498 61.0507C305.94 59.6043 306.586 57.4795 307.418 54.7211L307.456 54.5995L307.54 54.6955L307.418 54.7787C305.36 50.6691 304.357 46.1119 304.5 41.5179C304.544 40.0847 304.703 38.6573 304.973 37.2491C305.291 35.7435 305.718 34.2632 306.253 32.8203C308.722 26.104 313.704 20.6099 320.148 17.4987C323.763 15.7445 327.714 14.7906 331.732 14.7019C336.007 14.6232 340.242 15.539 344.103 17.3771C348.152 19.2782 351.669 22.1493 354.343 25.7355C354.676 26.1963 355.028 26.6507 355.348 27.1179C355.668 27.5851 355.936 28.0907 356.224 28.5771L356.666 29.3067L357.031 30.0683C357.274 30.5803 357.517 31.0859 357.754 31.5915C357.991 32.0971 358.151 32.6411 358.343 33.1659C358.549 33.6819 358.725 34.2098 358.868 34.7467C359.178 35.807 359.417 36.8867 359.584 37.9787C360.562 43.9649 359.55 50.1066 356.703 55.4624C353.855 60.8181 349.33 65.0924 343.821 67.6299C340.754 69.0487 337.452 69.8905 334.08 70.1131C332.543 70.213 331 70.1938 329.466 70.0555C328.042 69.8881 326.629 69.6338 325.236 69.2939C320.804 68.1375 316.732 65.8913 313.389 62.7595H313.44L307.04 63.0923L305.408 63.1691H304.871L305.44 63.1243L307.085 63.0155L313.447 62.5995C316.795 65.692 320.859 67.9044 325.274 69.0379C326.66 69.365 328.064 69.6129 329.479 69.7803C331.001 69.9088 332.531 69.9216 334.055 69.8187C337.87 69.566 341.59 68.5169 344.976 66.7389C348.361 64.961 351.336 62.4937 353.71 59.496C356.084 56.4983 357.803 53.0365 358.757 49.3339C359.712 45.6312 359.88 41.7696 359.252 37.9979C359.09 36.9166 358.855 35.8474 358.548 34.7979C358.403 34.2664 358.23 33.743 358.029 33.2299C357.831 32.7179 357.664 32.1867 357.447 31.6811C357.229 31.1755 356.967 30.6763 356.73 30.1707L356.365 29.4219L355.93 28.6987L355.066 27.2587C354.746 26.7979 354.426 26.3499 354.068 25.8891C351.452 22.4424 348.061 19.6609 344.169 17.7705C340.277 15.8801 335.994 14.9341 331.668 15.0091C327.855 15.0972 324.102 15.9734 320.645 17.5826C317.187 19.1918 314.1 21.4992 311.578 24.3595C309.377 26.8673 307.652 29.7564 306.49 32.8843C305.956 34.3142 305.528 35.7817 305.21 37.2747C304.936 38.6697 304.773 40.0843 304.724 41.5051C304.566 46.0678 305.538 50.5987 307.552 54.6955L307.783 55.1627L307.437 54.7723L307.559 54.7403L305.562 60.9995L305.037 62.6187L304.858 63.1947Z" fill="#263238"/>
<path d="M319.149 44.2824L322.721 40.7112L329.613 46.836L343.143 33.8184L346.458 37.3896L329.101 53.7288L319.149 44.2824Z" fill="#FFBB33"/>
<path d="M286.158 169.481C286.158 169.481 290.179 181.287 311.909 205.075C319.921 213.844 326.694 214.419 332.006 210.421C340.906 203.704 331.204 189.345 331.204 189.345L302.201 150.014C299.756 146.699 296.668 144.691 292.874 144.111L286.158 169.481Z" fill="#FFBF9D"/>
<path d="M217.625 169.658L208.748 149.589C208.748 149.589 195.93 153.61 193.16 170.028C191.016 182.738 193.809 226.044 193.809 226.044L209.385 239.624C215.612 224.838 216.386 196.62 216.386 196.62L217.625 169.658Z" fill="#FFBF9D"/>
<path d="M300.256 264.492L288.115 228.011L295.07 183.715L294.308 143.918L267.727 138.84L236.091 139.932L208.748 149.275L214.287 180.923L217.153 228.716L210.505 264.492H300.256Z" fill="#FFBB33"/>
<path d="M191.756 175.475L216.528 187.987L214.367 147.359C214.367 147.359 199.348 152.159 195.634 162.043C191.921 171.927 191.756 175.475 191.756 175.475Z" fill="#FFBB33"/>
<path d="M293.774 182.726L297.965 189.163L306.563 177.181L299.614 147.205C299.614 147.205 296.418 143.435 291.425 143.89L293.774 182.726Z" fill="#FFBB33"/>
<path d="M296.423 154.718C296.449 154.857 296.46 154.998 296.457 155.139C296.457 155.446 296.457 155.844 296.491 156.35C296.491 157.396 296.537 158.915 296.526 160.791C296.526 164.545 296.355 169.731 295.957 175.441C295.559 181.151 294.91 186.303 294.376 190.016C294.109 191.876 293.87 193.377 293.688 194.407C293.597 194.901 293.529 195.3 293.472 195.595C293.454 195.737 293.422 195.876 293.375 196.01C293.38 195.877 293.393 195.744 293.415 195.612C293.455 195.311 293.506 194.913 293.574 194.412C293.716 193.343 293.921 191.848 294.143 190.011C294.632 186.297 295.212 181.145 295.638 175.441C296.065 169.737 296.247 164.562 296.315 160.814C296.315 158.96 296.361 157.453 296.378 156.373C296.378 155.872 296.378 155.468 296.378 155.161C296.379 155.012 296.395 154.864 296.423 154.718Z" fill="#263238"/>
<path d="M209.976 172.495C210.056 172.467 211.37 175.907 212.911 180.241C214.452 184.574 215.646 188.055 215.567 188.083C215.487 188.112 214.173 184.643 212.632 180.338C211.091 176.033 209.897 172.524 209.976 172.495Z" fill="#263238"/>
<path d="M272.459 232.543C272.459 232.623 264.315 233.299 254.261 234.05C244.206 234.801 236.062 235.347 236.062 235.267C236.062 235.187 244.2 234.505 254.261 233.754C264.321 233.004 272.453 232.458 272.459 232.543Z" fill="#263238"/>
<path d="M266.686 211.184C266.436 211.406 266.168 211.608 265.884 211.786C265.361 212.167 264.588 212.691 263.609 213.333C261.687 214.613 258.986 216.319 255.932 218.082C252.878 219.845 250.052 221.329 247.97 222.353C246.935 222.864 246.094 223.268 245.508 223.536C245.208 223.686 244.898 223.817 244.581 223.928C244.858 223.737 245.151 223.572 245.457 223.433L247.879 222.165C249.921 221.096 252.73 219.583 255.779 217.826C258.827 216.069 261.539 214.414 263.49 213.157L265.799 211.695C266.08 211.501 266.377 211.33 266.686 211.184Z" fill="#263238"/>
<path d="M284.771 186.291C284.771 186.291 284.72 186.183 284.635 185.973L284.271 185.017C283.958 184.17 283.497 182.936 282.906 181.349L280.756 175.537C280.335 174.4 279.892 173.194 279.414 171.909C278.961 170.54 278.4 169.209 277.736 167.928C277.373 167.251 276.918 166.627 276.383 166.074C275.833 165.495 275.138 165.075 274.37 164.857C273.978 164.747 273.571 164.699 273.164 164.715C272.75 164.742 272.342 164.831 271.953 164.977C271.149 165.291 270.428 165.787 269.849 166.427C269.242 167.088 268.769 167.861 268.455 168.702C268.159 169.579 267.988 170.494 267.949 171.42C267.937 173.371 268.074 175.319 268.359 177.249C268.552 179.245 268.626 181.383 267.892 183.414C267.535 184.445 266.916 185.366 266.095 186.086C265.244 186.805 264.221 187.291 263.127 187.497C262.013 187.72 260.863 187.696 259.759 187.428C258.655 187.16 257.623 186.654 256.735 185.944C255.846 185.179 255.167 184.201 254.761 183.101C254.349 182.01 254.069 180.874 253.925 179.717C253.596 177.414 253.539 175.099 252.68 173.018C252.298 171.982 251.701 171.038 250.928 170.248C250.547 169.866 250.103 169.553 249.615 169.321C249.375 169.205 249.126 169.108 248.87 169.031C248.613 168.97 248.353 168.923 248.091 168.889C247.033 168.813 245.978 169.078 245.082 169.646C244.202 170.214 243.444 170.953 242.853 171.818C242.265 172.659 241.819 173.591 241.534 174.576C241.273 175.549 241.136 176.55 241.124 177.556C241.067 179.558 241.318 181.503 241.443 183.408C241.514 184.354 241.537 185.303 241.511 186.251C241.501 187.172 241.365 188.086 241.107 188.97C240.657 190.683 239.603 192.176 238.139 193.172C237.417 193.61 236.57 193.792 235.733 193.69C234.937 193.587 234.187 193.257 233.572 192.74C232.488 191.759 231.594 190.587 230.933 189.283C230.251 188.094 229.665 186.94 229.153 185.87C228.284 183.994 227.551 182.057 226.958 180.075C226.463 178.443 226.179 177.152 226.003 176.271C225.912 175.833 225.861 175.497 225.821 175.27C225.781 175.043 225.77 174.929 225.77 174.929C225.77 174.929 225.804 175.043 225.849 175.264C225.895 175.486 225.957 175.833 226.06 176.259C226.253 177.135 226.56 178.421 227.066 180.041C227.679 182.011 228.428 183.936 229.307 185.802C229.819 186.888 230.41 188.037 231.098 189.214C231.754 190.491 232.637 191.637 233.703 192.598C234.289 193.089 235.003 193.401 235.761 193.497C236.554 193.59 237.354 193.416 238.036 193.002C239.445 192.028 240.455 190.578 240.88 188.919C241.132 188.056 241.265 187.162 241.272 186.263C241.293 185.329 241.267 184.395 241.192 183.465C241.062 181.571 240.811 179.615 240.863 177.59C240.874 176.561 241.014 175.537 241.278 174.542C241.569 173.526 242.026 172.565 242.631 171.699C243.244 170.796 244.028 170.023 244.94 169.424C245.891 168.824 247.009 168.543 248.13 168.622C248.41 168.657 248.687 168.708 248.961 168.776C249.234 168.856 249.5 168.959 249.757 169.083C250.273 169.326 250.742 169.657 251.145 170.061C251.947 170.879 252.567 171.858 252.964 172.933C253.846 175.071 253.903 177.425 254.233 179.7C254.375 180.833 254.648 181.945 255.046 183.016C255.439 184.063 256.088 184.996 256.934 185.728C257.787 186.412 258.779 186.901 259.841 187.161C260.903 187.422 262.009 187.447 263.081 187.235C264.128 187.037 265.107 186.575 265.925 185.893C266.701 185.201 267.288 184.322 267.631 183.34C268.342 181.383 268.279 179.279 268.092 177.3C267.804 175.356 267.669 173.391 267.688 171.426C267.732 170.474 267.912 169.534 268.222 168.633C268.548 167.766 269.039 166.971 269.667 166.29C270.273 165.623 271.026 165.107 271.868 164.783C272.686 164.461 273.588 164.419 274.432 164.664C275.237 164.894 275.964 165.339 276.537 165.949C277.082 166.518 277.547 167.159 277.918 167.854C278.58 169.147 279.139 170.489 279.59 171.869C280.057 173.154 280.5 174.366 280.91 175.503L283.014 181.332C283.583 182.925 284.026 184.176 284.328 185.023C284.475 185.438 284.584 185.757 284.663 185.984C284.743 186.212 284.771 186.291 284.771 186.291Z" fill="white"/>
<path d="M222.528 50.0272C216.045 49.7941 209.568 53.0925 206.605 58.1311C205.176 60.6454 204.583 63.5485 204.911 66.4216C205.239 69.2947 206.472 71.9894 208.43 74.117C205.234 75.4477 204.023 79.4513 206.053 81.982C208.083 84.5126 212.815 84.8937 215.34 82.7326C213.821 85.5761 215.493 89.1759 218.559 90.7739C221.624 92.3719 225.639 92.1445 228.795 90.7171C231.842 89.2599 234.425 86.9862 236.256 84.1487L237.61 59.2457C235.153 54.0081 229.011 50.2547 222.528 50.0272Z" fill="#263238"/>
<path d="M220.207 87.2142C218.898 85.5861 218.217 83.5413 218.29 81.4533C218.364 79.3652 219.185 77.373 220.605 75.8404C218.871 73.8614 219.354 70.7222 220.969 68.6351C222.584 66.548 225.047 65.3196 227.424 64.1481C228.561 58.1484 235.232 53.7297 241.351 54.9524C244.354 50.3062 251.058 49.3622 256.512 50.7157C257.843 51.0398 259.179 51.4834 260.55 51.4265C261.552 51.3253 262.545 51.1562 263.524 50.9204C268.989 50.0162 274.574 53.5989 276.894 58.5124C277.208 59.323 277.629 60.088 278.145 60.7872C278.885 61.6573 279.988 62.1463 280.932 62.806C281.945 63.5186 282.791 64.4432 283.41 65.5156C284.03 66.588 284.409 67.7825 284.52 69.0161C284.685 71.0918 284.082 73.3268 285.049 75.1864C285.533 76.1134 286.374 76.8527 286.755 77.8251C287.893 80.6686 284.731 83.6827 285.442 86.6285C285.584 87.2313 285.885 87.7659 286.078 88.3744C286.472 89.5906 286.401 90.9095 285.879 92.0765C285.481 92.9694 284.81 93.7826 284.788 94.7664C284.865 95.5032 285.041 96.2263 285.311 96.9161C285.743 98.679 282.069 105.64 280.539 106.658L233.702 108.694C231.934 108.383 230.307 107.53 229.045 106.254C227.784 104.977 226.951 103.339 226.662 101.568C226.661 100.976 226.487 100.397 226.161 99.9017C225.783 99.5587 225.337 99.2973 224.853 99.134C221.777 97.6554 221.27 93.6234 221.47 90.2852C221.523 89.8177 221.496 89.3445 221.39 88.8862C221.112 88.2549 220.71 87.6862 220.207 87.2142Z" fill="#263238"/>
<path d="M233.634 86.816C233.208 78.7292 238.076 69.2491 246.174 65.0067C251.292 62.3338 255.33 62.1632 258.048 61.7708C261.867 61.2875 265.743 61.9506 269.183 63.6759C271.788 64.1821 281.564 72.3144 282.382 81.476C283.298 91.6555 284.003 104.121 282.951 111.759C280.841 127.113 267.506 129.388 267.506 129.388L267.426 139.346C259.97 150.526 244.9 151.158 236.119 140.984V140.95L233.634 86.816Z" fill="#FFBF9D"/>
<path d="M260.642 110.212C260.696 109.479 261.02 108.792 261.551 108.285C262.044 107.805 262.677 107.496 263.359 107.405C264.04 107.314 264.732 107.445 265.333 107.778C266.55 108.461 266.806 109.769 266.71 111.264C266.141 112.18 265.726 113.079 264.639 113.255C264.469 113.255 264.298 113.3 264.128 113.312C263.272 113.373 262.425 113.118 261.745 112.595C261.39 112.31 261.106 111.946 260.915 111.533C260.724 111.119 260.63 110.668 260.642 110.212Z" fill="#FF9A6C"/>
<path d="M276.974 94.6817C276.986 95.199 276.796 95.7005 276.443 96.079C276.09 96.4574 275.603 96.6826 275.086 96.7062C274.835 96.7354 274.58 96.7142 274.337 96.6439C274.094 96.5736 273.867 96.4556 273.67 96.2967C273.473 96.1379 273.31 95.9415 273.19 95.7188C273.07 95.4962 272.995 95.2519 272.97 95.0001C272.958 94.4828 273.149 93.9812 273.501 93.6028C273.854 93.2244 274.341 92.9992 274.858 92.9756C275.11 92.9464 275.364 92.9676 275.607 93.0379C275.85 93.1082 276.077 93.2262 276.274 93.385C276.471 93.5439 276.634 93.7403 276.754 93.9629C276.875 94.1855 276.949 94.4299 276.974 94.6817Z" fill="#263238"/>
<path d="M278.93 87.4133C278.691 87.6749 277.139 86.6115 274.978 86.6683C272.817 86.7252 271.253 87.8057 270.997 87.5669C270.877 87.4531 271.122 86.9982 271.799 86.4807C272.722 85.8205 273.826 85.4592 274.961 85.4457C276.084 85.4128 277.189 85.7309 278.123 86.3556C278.816 86.839 279.05 87.2939 278.93 87.4133Z" fill="#263238"/>
<path d="M266.686 104.383C266.686 104.264 268.011 104.008 270.183 103.684C270.752 103.616 271.258 103.496 271.321 103.115C271.383 102.734 271.196 102.143 270.911 101.523L269.177 97.4568C266.765 91.6675 265.003 86.9019 265.241 86.8109C265.48 86.7199 267.63 91.3604 270.047 97.1213C270.616 98.5544 271.184 99.9135 271.713 101.216C271.941 101.824 272.316 102.507 272.054 103.326C271.977 103.519 271.857 103.692 271.704 103.832C271.55 103.972 271.367 104.075 271.167 104.133C270.862 104.221 270.546 104.27 270.229 104.281C268.062 104.463 266.686 104.503 266.686 104.383Z" fill="#263238"/>
<path d="M267.562 129.325C260.177 129.616 252.851 127.902 246.361 124.366C246.361 124.366 251.713 135.217 267.363 133.414L267.562 129.325Z" fill="#FF9A6C"/>
<path d="M277.298 79.0309C276.946 79.5541 275.285 79.247 273.351 79.4517C271.418 79.6564 269.831 80.191 269.371 79.736C269.172 79.5143 269.371 79.0024 270.03 78.4736C270.943 77.8146 272.016 77.4139 273.137 77.3139C274.258 77.2138 275.385 77.4179 276.4 77.9049C277.167 78.2859 277.452 78.7522 277.298 79.0309Z" fill="#263238"/>
<path d="M253.971 95.6253C254.004 96.1428 254.239 96.6265 254.625 96.973C255.011 97.3194 255.517 97.5012 256.035 97.4793C256.288 97.4869 256.54 97.4437 256.777 97.3524C257.013 97.261 257.229 97.1233 257.411 96.9474C257.593 96.7715 257.739 96.5609 257.838 96.328C257.938 96.0951 257.99 95.8445 257.991 95.5912C257.956 95.0748 257.722 94.5923 257.338 94.2453C256.954 93.8984 256.45 93.7142 255.933 93.7316C255.679 93.7232 255.425 93.766 255.188 93.8573C254.951 93.9487 254.734 94.0867 254.551 94.2633C254.368 94.44 254.222 94.6515 254.123 94.8855C254.023 95.1194 253.971 95.371 253.971 95.6253Z" fill="#263238"/>
<path d="M249.358 88.9489C249.62 89.1878 251.064 87.9992 253.231 87.8741C255.398 87.749 257.041 88.7044 257.257 88.4428C257.365 88.3234 257.081 87.8741 256.364 87.4305C255.384 86.852 254.252 86.5843 253.117 86.6628C251.998 86.7273 250.927 87.1388 250.052 87.84C249.421 88.3632 249.227 88.8409 249.358 88.9489Z" fill="#263238"/>
<path d="M249.057 80.6744C249.512 81.1293 251.144 80.5322 253.146 80.3844C255.148 80.2365 256.871 80.481 257.229 79.9578C257.383 79.7076 257.087 79.2413 256.314 78.8205C255.261 78.3249 254.093 78.1281 252.936 78.2518C251.783 78.3238 250.674 78.7179 249.734 79.3891C249.057 79.9465 248.853 80.4526 249.057 80.6744Z" fill="#263238"/>
<path d="M236.546 101.255C236.518 100.117 235.102 97.4617 233.941 97.3138C230.853 96.9157 225.309 97.3138 225.451 104.923C225.639 115.353 236.33 113.015 236.347 112.714C236.364 112.413 236.631 105.19 236.546 101.255Z" fill="#FFBF9D"/>
<path d="M233.304 108.955C233.259 108.921 233.122 109.086 232.809 109.234C232.368 109.425 231.871 109.443 231.416 109.285C230.279 108.898 229.295 107.169 229.21 105.304C229.166 104.409 229.328 103.517 229.682 102.694C229.779 102.364 229.955 102.062 230.194 101.815C230.434 101.569 230.731 101.384 231.058 101.278C231.273 101.208 231.507 101.217 231.715 101.305C231.924 101.393 232.094 101.553 232.195 101.755C232.343 102.04 232.281 102.25 232.337 102.267C232.394 102.284 232.565 102.091 232.468 101.659C232.404 101.401 232.251 101.173 232.036 101.016C231.735 100.804 231.365 100.715 231.001 100.766C230.567 100.856 230.163 101.055 229.828 101.345C229.493 101.634 229.237 102.005 229.084 102.421C228.653 103.33 228.458 104.333 228.516 105.338C228.624 107.437 229.761 109.387 231.314 109.797C231.603 109.873 231.906 109.885 232.201 109.832C232.496 109.779 232.775 109.662 233.02 109.49C233.287 109.211 233.338 108.972 233.304 108.955Z" fill="#FF9A6C"/>
<path d="M284.76 81.5446C282.564 80.2822 281.143 78.5192 281.211 76.0397C279.789 76.489 278.294 74.726 277.423 73.5375C276.553 72.3489 275.518 71.7632 275.547 70.3073C275.582 70.0182 275.537 69.725 275.416 69.46C275.116 69.1064 274.694 68.8789 274.233 68.823C273.095 68.5006 272.056 67.8981 271.21 67.0706C270.365 66.2431 269.74 65.2169 269.394 64.0858C267.11 65.1243 264.607 65.5908 262.103 65.445C261.554 66.2487 260.814 66.9033 259.95 67.35C259.085 67.7967 258.123 68.0214 257.15 68.0039C256.177 67.9864 255.224 67.7273 254.376 67.2498C253.528 66.7724 252.812 66.0916 252.293 65.2687C251.941 65.9173 251.454 66.4831 250.866 66.9284C250.277 67.3736 249.601 67.6881 248.881 67.8506C247.43 68.174 245.94 68.2908 244.456 68.1975C244.755 69.6131 244.528 71.089 243.819 72.3499C243.11 73.6108 241.966 74.5706 240.601 75.0502C240.22 75.1753 239.788 75.3004 239.617 75.653C239.446 76.0056 239.657 76.4378 239.816 76.7904C240.811 79.1561 239.247 82.1986 236.739 82.864C237.153 83.201 237.484 83.629 237.705 84.1148C237.926 84.6006 238.032 85.1309 238.015 85.6644C237.997 86.1979 237.856 86.7201 237.603 87.1903C237.351 87.6604 236.993 88.0657 236.557 88.3746C236.171 88.6135 235.67 88.8978 235.744 89.3357C235.785 89.5007 235.87 89.6519 235.989 89.7736C236.813 90.7859 237.632 91.8948 237.763 93.1857C237.894 94.4767 237.041 95.9382 235.716 96.0292C236.427 96.5979 237.098 97.3713 237.137 98.304C237.177 99.2366 236.256 100.152 235.386 99.8508C235.011 99.72 229.665 98.8272 229.42 98.5258C226.292 94.5904 229.989 90.075 230.154 85.099C230.319 80.1229 231.979 75.272 234.413 70.8817C235.398 69.0186 236.63 67.297 238.076 65.7635C239.828 64.0975 241.762 62.6343 243.842 61.4016C246.504 59.6955 249.239 57.9895 252.316 57.2047C258.048 55.7318 264.093 57.6312 269.53 59.923C271.627 60.7213 273.609 61.7962 275.422 63.1191C277.459 64.8384 279.171 66.909 280.477 69.2325C282.468 72.5025 284.145 76.0568 284.617 79.8158" fill="#263238"/>
<path d="M286.762 77.8422C286.619 77.4444 286.413 77.072 286.153 76.7389C285.92 76.3977 285.584 75.9996 285.272 75.4935C284.919 74.903 284.698 74.2435 284.623 73.5599C284.546 72.7011 284.546 71.8369 284.623 70.9781C284.71 69.9439 284.653 68.9027 284.453 67.8844C284.043 66.052 283.044 64.4042 281.609 63.1927C281.072 62.7545 280.502 62.359 279.903 62.0098C279.281 61.6613 278.721 61.2138 278.243 60.6847C277.803 60.0898 277.444 59.4397 277.174 58.7512C276.517 57.2742 275.602 55.9261 274.472 54.7704C273.263 53.5155 271.83 52.4972 270.247 51.7677C269.413 51.3862 268.542 51.0927 267.648 50.8919C266.722 50.7036 265.777 50.6234 264.833 50.653C264.351 50.6789 263.871 50.7301 263.394 50.8066C262.916 50.8862 262.45 50.9999 261.978 51.0909C261.046 51.312 260.078 51.3391 259.135 51.1706C258.174 51.0113 257.224 50.6985 256.234 50.4824C254.21 50.0187 252.124 49.8881 250.058 50.0957C248.999 50.2084 247.954 50.4236 246.936 50.7383C244.844 51.3628 242.997 52.6228 241.653 54.3438L241.266 54.867L241.437 54.7931C239.843 54.5079 238.209 54.5431 236.629 54.8965C235.049 55.25 233.556 55.9147 232.236 56.8518C229.69 58.5278 227.906 61.1387 227.271 64.1196L227.356 64.0116C226.084 64.6135 224.85 65.2914 223.66 66.0418C222.506 66.7685 221.494 67.6993 220.674 68.7886C219.916 69.8594 219.469 71.1191 219.383 72.4282C219.289 73.6981 219.698 74.954 220.521 75.9257V75.7494C219.13 77.2236 218.309 79.1448 218.206 81.169C218.076 82.9748 218.514 84.7762 219.457 86.3213C219.679 86.6757 219.926 87.014 220.196 87.3336C220.464 87.6464 220.765 87.9364 220.958 88.2492C221.177 88.5471 221.318 88.8951 221.368 89.2615C221.399 89.621 221.399 89.9825 221.368 90.342C221.282 91.673 221.356 93.0096 221.59 94.3228C221.77 95.3828 222.156 96.3972 222.727 97.3084C223.163 97.9807 223.747 98.5447 224.433 98.9576C225.002 99.2932 225.485 99.4183 225.758 99.6059C225.904 99.6899 226.038 99.7932 226.156 99.913C226.056 99.7748 225.928 99.6586 225.781 99.5718C225.508 99.3728 225.013 99.2306 224.473 98.8894C223.806 98.4736 223.242 97.9116 222.824 97.2459C222.273 96.3421 221.904 95.3395 221.738 94.2944C221.524 92.9999 221.461 91.6851 221.55 90.3761C221.586 89.9978 221.586 89.617 221.55 89.2387C221.501 88.8396 221.35 88.4598 221.112 88.1355C220.872 87.8118 220.616 87.5005 220.344 87.2028C220.082 86.892 219.844 86.5611 219.633 86.2133C218.719 84.7038 218.301 82.9455 218.439 81.1861C218.547 79.2195 219.354 77.3561 220.714 75.9314L220.794 75.846L220.72 75.7551C219.946 74.832 219.569 73.6397 219.673 72.4396C219.761 71.1845 220.194 69.978 220.924 68.9535C221.725 67.8934 222.714 66.9894 223.842 66.2864C225.02 65.5431 226.244 64.8727 227.504 64.2789H227.572V64.2049C228.194 61.303 229.933 58.762 232.412 57.1304C233.694 56.2294 235.141 55.5903 236.67 55.2497C238.199 54.9091 239.78 54.8738 241.323 55.1457H241.426L241.488 55.0547C241.613 54.8898 241.738 54.7192 241.858 54.5486C243.162 52.8839 244.95 51.6641 246.976 51.0568C247.971 50.7486 248.994 50.5372 250.03 50.4256C252.06 50.2196 254.11 50.3483 256.098 50.8066C257.076 51.0113 258.031 51.3241 259.021 51.489C259.516 51.5782 260.019 51.6163 260.522 51.6028C261.016 51.5771 261.507 51.5105 261.989 51.4037C262.467 51.307 262.934 51.199 263.4 51.1137C263.866 51.0284 264.327 50.9772 264.793 50.9658C265.713 50.9296 266.633 51.006 267.534 51.1933C268.416 51.3802 269.276 51.6604 270.099 52.0293C271.651 52.7439 273.059 53.7387 274.25 54.9637C275.365 56.0886 276.268 57.4042 276.918 58.8479C277.199 59.5551 277.572 60.2224 278.027 60.8326C278.517 61.3771 279.094 61.8381 279.733 62.1975C280.329 62.533 280.9 62.9132 281.439 63.3349C281.932 63.7496 282.376 64.219 282.764 64.7338C283.476 65.6753 283.982 66.7567 284.248 67.9071C284.453 68.9094 284.518 69.9352 284.441 70.9553C284.38 71.8233 284.397 72.695 284.493 73.5599C284.577 74.2568 284.814 74.9266 285.186 75.5219C285.516 76.0394 285.852 76.4261 286.096 76.756C286.285 77.0051 286.456 77.2674 286.608 77.5407C286.654 77.644 286.705 77.7446 286.762 77.8422Z" fill="#455A64"/>
<path d="M246.305 52.5356C246.305 52.5356 246.583 52.3707 247.095 52.1091C247.821 51.7403 248.603 51.4962 249.41 51.3868C250.73 51.1857 252.081 51.3764 253.294 51.9354C254.507 52.4945 255.529 53.3972 256.234 54.5317C256.466 54.8881 256.657 55.2697 256.803 55.6691C256.877 55.844 256.911 56.0332 256.903 56.223C256.895 56.4127 256.845 56.5984 256.757 56.7666L256.507 57.1306L256.934 56.9998C258.036 56.676 259.221 56.7817 260.249 57.2955C261.056 57.707 261.71 58.3669 262.114 59.1779C262.382 59.7097 262.541 60.2898 262.581 60.884C262.581 61.3048 262.581 61.5323 262.581 61.5323C262.581 61.5323 262.581 61.4811 262.626 61.3673C262.649 61.2072 262.663 61.0458 262.666 60.884C262.669 60.2652 262.535 59.6535 262.274 59.0926C261.876 58.2213 261.2 57.5071 260.351 57.0624C259.263 56.4907 257.994 56.3643 256.814 56.7098L256.996 56.9372C257.114 56.7325 257.183 56.5037 257.199 56.2682C257.214 56.0326 257.176 55.7966 257.087 55.5781C256.936 55.1435 256.735 54.7276 256.49 54.3383C255.679 53.0452 254.472 52.048 253.049 51.4949C251.881 51.0489 250.614 50.9251 249.381 51.1366C248.558 51.27 247.765 51.5534 247.044 51.9726C246.846 52.0847 246.656 52.2101 246.475 52.3479C246.41 52.402 246.352 52.4652 246.305 52.5356Z" fill="#455A64"/>
<path d="M229.301 64.9724C229.41 65.1118 229.54 65.2327 229.687 65.3306C230.067 65.6381 230.479 65.9032 230.916 66.1211C231.584 66.4602 232.317 66.654 233.066 66.6898C234.018 66.7363 234.954 66.4329 235.699 65.8368L235.46 65.8027L235.784 66.2235C235.903 66.36 236.034 66.4908 236.165 66.6273C236.93 67.3554 237.861 67.8864 238.878 68.1741C239.705 68.4206 240.572 68.5037 241.431 68.4186C242.007 68.3619 242.572 68.222 243.109 68.0035C243.312 67.9294 243.504 67.8259 243.677 67.6964C242.953 67.9516 242.201 68.1196 241.437 68.1968C240.609 68.2455 239.778 68.1453 238.986 67.9011C238.024 67.6089 237.144 67.0968 236.415 66.4055C236.296 66.2747 236.171 66.1552 236.057 66.0244L235.75 65.6321L235.636 65.4899L235.511 65.5979C234.829 66.1507 233.971 66.4394 233.094 66.4112C232.383 66.3924 231.682 66.2299 231.035 65.9335C229.904 65.4216 229.335 64.9212 229.301 64.9724Z" fill="#455A64"/>
<path d="M223.927 74.7939C223.927 74.7939 223.927 74.8622 223.955 74.9816C224.012 75.1614 224.099 75.3305 224.211 75.482C224.642 76.044 225.266 76.4252 225.963 76.5512C226.995 76.7043 228.049 76.5644 229.005 76.1474C229.572 75.9452 230.128 75.7136 230.671 75.4536C231.297 75.1889 231.808 74.7087 232.11 74.1001C232.11 74.0433 232.156 73.9864 232.173 73.9352L231.923 74.0148C232.904 74.762 233.991 75.3599 235.147 75.7891C236.111 76.1342 237.151 76.2109 238.155 76.0109C238.829 75.8829 239.457 75.5832 239.981 75.1408C240.122 75.024 240.248 74.8903 240.356 74.7427C240.43 74.6404 240.464 74.5892 240.459 74.5835C240.453 74.5778 240.271 74.7655 239.89 75.0441C239.359 75.4304 238.746 75.6875 238.099 75.7948C237.143 75.9519 236.162 75.8558 235.255 75.5162C234.135 75.0805 233.082 74.489 232.127 73.7589L231.951 73.6338L231.877 73.8442L231.826 73.9864C231.546 74.5212 231.09 74.943 230.535 75.1806C230.005 75.4396 229.462 75.6712 228.908 75.8744C228.006 76.2896 227.007 76.4489 226.02 76.3351C225.36 76.2358 224.756 75.9077 224.313 75.4081C224.167 75.2149 224.038 75.0094 223.927 74.7939Z" fill="#455A64"/>
<path d="M260.244 108.255C260.5 108.09 261.563 109.813 263.826 110.155C266.09 110.496 267.853 109.216 268.018 109.449C268.109 109.54 267.802 110.018 267.017 110.513C265.983 111.131 264.768 111.374 263.576 111.201C262.438 111.04 261.406 110.448 260.693 109.546C260.181 108.858 260.119 108.318 260.244 108.255Z" fill="#263238"/>
<path d="M279.032 106.493C279.038 106.719 278.976 106.941 278.855 107.132C278.733 107.323 278.557 107.473 278.35 107.564C278.143 107.654 277.913 107.681 277.691 107.64C277.468 107.599 277.263 107.493 277.101 107.336C276.939 107.178 276.828 106.975 276.782 106.754C276.736 106.532 276.756 106.302 276.842 106.093C276.927 105.883 277.072 105.704 277.26 105.578C277.448 105.451 277.669 105.384 277.895 105.384C278.192 105.384 278.477 105.5 278.689 105.707C278.902 105.914 279.025 106.196 279.032 106.493Z" fill="#FF9A6C"/>
<path d="M278.629 106.493C278.632 106.633 278.594 106.771 278.518 106.889C278.443 107.007 278.334 107.1 278.206 107.156C278.077 107.212 277.935 107.229 277.797 107.204C277.659 107.178 277.532 107.113 277.431 107.015C277.331 106.917 277.262 106.791 277.234 106.654C277.205 106.517 277.218 106.374 277.271 106.244C277.324 106.114 277.414 106.003 277.53 105.925C277.647 105.847 277.784 105.805 277.924 105.805C278.108 105.803 278.286 105.875 278.418 106.004C278.55 106.132 278.626 106.308 278.629 106.493Z" fill="#FFBB33"/>
<path d="M248.681 102.427C248.688 102.653 248.627 102.876 248.507 103.067C248.386 103.259 248.211 103.41 248.004 103.501C247.796 103.593 247.567 103.62 247.344 103.58C247.121 103.54 246.915 103.435 246.753 103.277C246.59 103.119 246.478 102.917 246.432 102.695C246.385 102.474 246.405 102.243 246.49 102.034C246.575 101.824 246.721 101.644 246.909 101.518C247.097 101.391 247.318 101.323 247.544 101.323C247.84 101.323 248.124 101.438 248.337 101.644C248.549 101.85 248.673 102.131 248.681 102.427Z" fill="#FF9A6C"/>
<path d="M248.25 102.427C248.254 102.567 248.217 102.706 248.142 102.824C248.068 102.943 247.959 103.037 247.831 103.094C247.702 103.151 247.56 103.168 247.422 103.144C247.283 103.119 247.156 103.054 247.055 102.956C246.954 102.858 246.884 102.733 246.855 102.596C246.826 102.458 246.839 102.315 246.891 102.185C246.944 102.055 247.034 101.943 247.151 101.865C247.267 101.786 247.404 101.744 247.545 101.744C247.636 101.743 247.726 101.759 247.811 101.793C247.896 101.826 247.973 101.876 248.039 101.939C248.104 102.003 248.156 102.078 248.193 102.162C248.229 102.246 248.248 102.336 248.25 102.427Z" fill="#FFBB33"/>
<path d="M275.916 109.535C275.919 109.672 275.882 109.807 275.808 109.922C275.735 110.038 275.629 110.128 275.503 110.183C275.378 110.238 275.239 110.254 275.104 110.229C274.97 110.205 274.846 110.141 274.748 110.045C274.65 109.95 274.583 109.827 274.555 109.693C274.527 109.559 274.539 109.42 274.591 109.293C274.642 109.166 274.73 109.058 274.844 108.982C274.957 108.905 275.091 108.864 275.228 108.864C275.408 108.863 275.581 108.932 275.71 109.058C275.839 109.184 275.913 109.355 275.916 109.535Z" fill="#FF9A6C"/>
<path d="M275.655 109.535C275.657 109.62 275.634 109.704 275.588 109.775C275.543 109.847 275.477 109.903 275.399 109.937C275.322 109.972 275.236 109.982 275.152 109.966C275.069 109.951 274.992 109.912 274.931 109.852C274.87 109.793 274.828 109.717 274.811 109.634C274.793 109.551 274.801 109.465 274.833 109.386C274.865 109.308 274.92 109.24 274.99 109.193C275.06 109.146 275.143 109.12 275.228 109.12C275.284 109.119 275.339 109.128 275.39 109.149C275.442 109.169 275.489 109.199 275.529 109.238C275.569 109.276 275.6 109.323 275.622 109.374C275.644 109.425 275.655 109.48 275.655 109.535Z" fill="#FFBB33"/>
<path d="M266.687 81.5276C266.69 81.6644 266.652 81.799 266.579 81.9144C266.505 82.0298 266.399 82.1207 266.274 82.1754C266.148 82.2301 266.01 82.2462 265.875 82.2216C265.74 82.197 265.616 82.1328 265.518 82.0373C265.42 81.9418 265.353 81.8192 265.325 81.6853C265.297 81.5514 265.31 81.4122 265.361 81.2854C265.413 81.1587 265.501 81.0502 265.614 80.9738C265.728 80.8974 265.862 80.8566 265.998 80.8565C266.088 80.855 266.177 80.8712 266.26 80.9042C266.343 80.9372 266.418 80.9863 266.482 81.0487C266.546 81.1111 266.597 81.1855 266.632 81.2677C266.667 81.3499 266.686 81.4382 266.687 81.5276Z" fill="#FF9A6C"/>
<path d="M266.442 81.5275C266.444 81.6123 266.421 81.6958 266.375 81.7675C266.33 81.8391 266.264 81.8955 266.186 81.9296C266.109 81.9636 266.023 81.9737 265.939 81.9585C265.856 81.9434 265.779 81.9037 265.718 81.8445C265.657 81.7853 265.615 81.7094 265.598 81.6263C265.581 81.5433 265.588 81.457 265.62 81.3784C265.652 81.2998 265.707 81.2325 265.777 81.1851C265.847 81.1377 265.93 81.1124 266.015 81.1123C266.071 81.1116 266.125 81.1217 266.177 81.1422C266.228 81.1626 266.275 81.193 266.314 81.2316C266.354 81.2701 266.386 81.3161 266.408 81.3669C266.429 81.4176 266.441 81.4722 266.442 81.5275Z" fill="#FFBB33"/>
<path d="M210.937 121.849L210.229 157.721C210.195 159.442 211.563 160.864 213.284 160.898L230.915 161.246C232.636 161.28 234.059 159.913 234.093 158.192L234.8 122.32C234.834 120.599 233.467 119.177 231.746 119.143L214.114 118.795C212.393 118.761 210.971 120.129 210.937 121.849Z" fill="white"/>
<path d="M230.915 161.247C231.342 161.227 231.763 161.137 232.161 160.98C232.634 160.774 233.049 160.455 233.372 160.053C233.808 159.499 234.042 158.813 234.037 158.108C234.089 154.895 234.163 150.26 234.259 144.545C234.356 138.829 234.487 131.994 234.623 124.424C234.623 123.952 234.623 123.475 234.623 122.997C234.663 122.528 234.642 122.056 234.561 121.592C234.455 121.134 234.242 120.707 233.939 120.346C233.637 119.985 233.254 119.701 232.82 119.517C232.374 119.339 231.896 119.258 231.416 119.278L229.903 119.244L226.843 119.187L214.088 118.942C213.569 118.933 213.056 119.06 212.601 119.31C212.146 119.561 211.765 119.926 211.495 120.37C211.224 120.808 211.075 121.311 211.062 121.826L211.028 123.424C210.983 125.55 210.943 127.649 210.903 129.708C210.818 133.831 210.738 137.806 210.659 141.593C210.579 145.381 210.505 148.986 210.431 152.341C210.397 154.025 210.363 155.649 210.329 157.215C210.304 157.595 210.318 157.976 210.369 158.353C210.439 158.711 210.574 159.054 210.767 159.365C211.146 159.971 211.725 160.425 212.404 160.65C212.732 160.753 213.074 160.803 213.417 160.798H214.452L216.442 160.843L220.087 160.929L225.922 161.065L229.607 161.168L230.568 161.202C230.676 161.195 230.785 161.195 230.893 161.202H229.607L225.917 161.156L220.082 161.071L216.436 161.008L214.452 160.974H213.417C213.051 160.979 212.686 160.927 212.336 160.821C211.609 160.582 210.987 160.098 210.579 159.45C210.37 159.118 210.225 158.75 210.152 158.364C210.093 157.973 210.076 157.576 210.101 157.181C210.13 155.623 210.158 153.996 210.187 152.313C210.249 148.941 210.317 145.347 210.386 141.559C210.454 137.772 210.533 133.796 210.613 129.673C210.653 127.615 210.693 125.516 210.732 123.418L210.767 121.814C210.782 121.25 210.945 120.699 211.239 120.216C211.535 119.729 211.953 119.328 212.452 119.052C212.95 118.775 213.512 118.634 214.082 118.641L226.838 118.897L229.897 118.959H231.41C231.927 118.944 232.442 119.035 232.923 119.227C233.396 119.429 233.815 119.741 234.145 120.136C234.475 120.532 234.707 120.999 234.822 121.501C234.904 121.988 234.927 122.482 234.89 122.974C234.89 123.452 234.89 123.93 234.862 124.402C234.697 131.971 234.555 138.79 234.43 144.516C234.305 150.243 234.191 154.866 234.117 158.08C234.113 158.808 233.863 159.514 233.406 160.081C233.139 160.413 232.806 160.685 232.428 160.881C232.05 161.077 231.636 161.192 231.211 161.219L230.915 161.247Z" fill="#263238"/>
<path d="M214.423 124.913C214.414 125.559 214.597 126.194 214.948 126.736C215.299 127.279 215.803 127.706 216.396 127.963C216.989 128.22 217.645 128.296 218.281 128.181C218.917 128.066 219.505 127.766 219.97 127.317C220.436 126.869 220.759 126.293 220.898 125.662C221.037 125.03 220.986 124.372 220.751 123.77C220.517 123.167 220.11 122.648 219.581 122.277C219.052 121.905 218.425 121.699 217.778 121.683C217.345 121.671 216.914 121.746 216.51 121.903C216.106 122.06 215.737 122.295 215.425 122.596C215.113 122.896 214.863 123.256 214.691 123.654C214.519 124.052 214.428 124.48 214.423 124.913Z" fill="#FAFAFA"/>
<path d="M214.423 124.912C214.423 124.912 214.423 124.844 214.423 124.702C214.426 124.5 214.453 124.3 214.503 124.105C214.677 123.364 215.108 122.709 215.72 122.257C216.083 121.99 216.496 121.798 216.934 121.691C217.372 121.585 217.827 121.566 218.272 121.637C218.717 121.707 219.144 121.865 219.528 122.101C219.912 122.337 220.245 122.647 220.508 123.013C220.813 123.447 221.012 123.947 221.089 124.472C221.167 124.997 221.121 125.532 220.956 126.036C220.79 126.54 220.509 126.999 220.135 127.375C219.762 127.752 219.305 128.036 218.802 128.205C218.265 128.386 217.69 128.429 217.131 128.33C216.573 128.23 216.048 127.992 215.606 127.636C215.019 127.156 214.616 126.487 214.469 125.743C214.425 125.543 214.408 125.338 214.418 125.134C214.418 124.998 214.418 124.924 214.418 124.924C214.418 124.924 214.418 125.219 214.56 125.714C214.743 126.413 215.153 127.031 215.726 127.471C216.186 127.829 216.738 128.052 217.318 128.115C217.898 128.178 218.484 128.078 219.011 127.826C219.537 127.575 219.983 127.182 220.299 126.691C220.615 126.201 220.788 125.632 220.8 125.049C220.811 124.465 220.66 123.89 220.363 123.388C220.066 122.886 219.635 122.476 219.118 122.204C218.602 121.933 218.02 121.811 217.438 121.851C216.856 121.891 216.296 122.093 215.822 122.433C215.236 122.852 214.803 123.451 214.588 124.139C214.452 124.622 214.452 124.918 214.423 124.912Z" fill="#263238"/>
<path d="M219.86 125.021C219.854 125.45 219.72 125.867 219.475 126.22C219.231 126.572 218.888 126.844 218.489 127.002C218.09 127.159 217.653 127.194 217.234 127.103C216.814 127.012 216.432 126.799 216.134 126.49C215.836 126.181 215.637 125.79 215.561 125.368C215.486 124.946 215.537 124.511 215.709 124.118C215.881 123.725 216.166 123.392 216.527 123.16C216.888 122.929 217.31 122.811 217.739 122.82C218.312 122.832 218.857 123.07 219.254 123.482C219.652 123.895 219.87 124.448 219.86 125.021Z" fill="#E0E0E0"/>
<path d="M214.224 134.87C214.211 135.518 214.39 136.155 214.739 136.701C215.088 137.248 215.591 137.678 216.185 137.938C216.778 138.198 217.435 138.276 218.073 138.163C218.712 138.049 219.301 137.749 219.769 137.3C220.236 136.851 220.56 136.273 220.699 135.64C220.838 135.007 220.786 134.347 220.55 133.744C220.313 133.14 219.904 132.621 219.372 132.25C218.84 131.88 218.21 131.675 217.563 131.663C216.695 131.646 215.856 131.974 215.23 132.576C214.604 133.177 214.242 134.002 214.224 134.87Z" fill="#FAFAFA"/>
<path d="M214.225 134.87C214.216 134.8 214.216 134.73 214.225 134.66C214.227 134.468 214.252 134.277 214.299 134.091C214.479 133.352 214.911 132.698 215.521 132.243C215.883 131.973 216.295 131.779 216.733 131.671C217.171 131.563 217.626 131.543 218.072 131.614C218.518 131.684 218.945 131.843 219.328 132.081C219.711 132.319 220.043 132.631 220.304 132.999C220.728 133.592 220.949 134.306 220.935 135.034C220.92 135.763 220.671 136.467 220.224 137.043C219.813 137.576 219.25 137.972 218.609 138.18C218.072 138.361 217.497 138.404 216.938 138.305C216.38 138.205 215.855 137.967 215.413 137.611C214.823 137.134 214.42 136.463 214.276 135.718C214.234 135.518 214.215 135.313 214.219 135.109C214.21 135.039 214.21 134.969 214.219 134.899C214.253 134.899 214.219 135.194 214.361 135.689C214.546 136.387 214.956 137.005 215.527 137.446C215.987 137.805 216.538 138.028 217.118 138.092C217.698 138.155 218.285 138.056 218.811 137.805C219.338 137.554 219.785 137.162 220.101 136.671C220.418 136.181 220.592 135.613 220.604 135.029C220.616 134.446 220.465 133.871 220.168 133.368C219.872 132.865 219.442 132.455 218.926 132.183C218.409 131.911 217.828 131.788 217.246 131.828C216.663 131.867 216.104 132.068 215.629 132.408C215.04 132.823 214.605 133.424 214.395 134.114C214.253 134.58 214.259 134.876 214.225 134.87Z" fill="#263238"/>
<path d="M219.662 134.979C219.654 135.406 219.519 135.821 219.275 136.172C219.031 136.523 218.689 136.794 218.291 136.95C217.893 137.106 217.458 137.141 217.04 137.05C216.623 136.959 216.241 136.746 215.945 136.438C215.648 136.13 215.45 135.742 215.374 135.321C215.298 134.9 215.349 134.467 215.52 134.075C215.691 133.683 215.974 133.351 216.333 133.12C216.693 132.889 217.113 132.77 217.54 132.778C218.113 132.79 218.658 133.028 219.055 133.44C219.453 133.853 219.671 134.406 219.662 134.979Z" fill="#E0E0E0"/>
<path d="M224.45 135.075C224.437 135.723 224.616 136.361 224.965 136.907C225.313 137.453 225.817 137.883 226.41 138.143C227.004 138.403 227.661 138.481 228.299 138.368C228.937 138.254 229.527 137.954 229.994 137.505C230.462 137.056 230.785 136.478 230.924 135.846C231.063 135.213 231.011 134.553 230.775 133.949C230.539 133.346 230.129 132.826 229.597 132.455C229.066 132.085 228.436 131.88 227.788 131.868C227.358 131.859 226.931 131.935 226.53 132.091C226.13 132.247 225.764 132.481 225.454 132.779C225.144 133.077 224.895 133.433 224.723 133.827C224.551 134.221 224.458 134.645 224.45 135.075Z" fill="#FAFAFA"/>
<path d="M224.449 135.076C224.449 135.076 224.449 135.002 224.449 134.865C224.452 134.662 224.478 134.46 224.529 134.263C224.708 133.523 225.141 132.869 225.752 132.414C226.205 132.073 226.738 131.853 227.3 131.773C227.861 131.694 228.434 131.758 228.965 131.959C229.459 132.149 229.903 132.452 230.261 132.843C230.618 133.235 230.88 133.704 231.024 134.214C231.169 134.724 231.193 135.261 231.094 135.781C230.995 136.302 230.776 136.793 230.455 137.214C230.177 137.569 229.832 137.865 229.44 138.086C229.047 138.307 228.615 138.448 228.167 138.5C227.72 138.553 227.267 138.517 226.834 138.394C226.401 138.271 225.996 138.063 225.643 137.783C225.056 137.303 224.654 136.633 224.506 135.889C224.468 135.69 224.451 135.488 224.455 135.286C224.455 135.144 224.455 135.076 224.455 135.076C224.455 135.076 224.455 135.366 224.597 135.861C224.774 136.553 225.176 137.167 225.74 137.607C226.201 137.966 226.752 138.189 227.332 138.253C227.913 138.316 228.5 138.216 229.027 137.965C229.554 137.714 230 137.321 230.317 136.83C230.633 136.34 230.807 135.77 230.818 135.187C230.829 134.603 230.678 134.028 230.38 133.525C230.083 133.022 229.652 132.613 229.135 132.341C228.618 132.07 228.035 131.948 227.453 131.989C226.87 132.03 226.311 132.233 225.837 132.574C225.25 132.99 224.817 133.591 224.608 134.28C224.478 134.763 224.478 135.076 224.449 135.076Z" fill="#263238"/>
<path d="M229.886 135.183C229.877 135.61 229.742 136.025 229.497 136.375C229.252 136.725 228.909 136.995 228.511 137.151C228.114 137.306 227.679 137.34 227.261 137.248C226.844 137.156 226.464 136.943 226.168 136.635C225.872 136.327 225.673 135.939 225.598 135.518C225.523 135.098 225.574 134.664 225.745 134.273C225.916 133.881 226.199 133.549 226.558 133.319C226.918 133.088 227.338 132.969 227.765 132.977C228.049 132.981 228.33 133.042 228.591 133.156C228.852 133.269 229.088 133.433 229.285 133.638C229.482 133.843 229.637 134.086 229.74 134.351C229.843 134.616 229.893 134.899 229.886 135.183Z" fill="#E0E0E0"/>
<path d="M214.031 144.828C214.018 145.476 214.197 146.113 214.546 146.66C214.895 147.206 215.398 147.636 215.991 147.896C216.585 148.156 217.242 148.234 217.88 148.121C218.518 148.007 219.108 147.707 219.575 147.258C220.043 146.809 220.366 146.231 220.505 145.598C220.644 144.965 220.592 144.306 220.356 143.702C220.12 143.099 219.71 142.579 219.178 142.208C218.647 141.838 218.017 141.633 217.369 141.621C216.939 141.612 216.512 141.688 216.111 141.844C215.711 142 215.345 142.234 215.035 142.532C214.725 142.83 214.476 143.186 214.304 143.58C214.132 143.974 214.039 144.398 214.031 144.828Z" fill="#FAFAFA"/>
<path d="M214.031 144.834C214.017 144.763 214.017 144.689 214.031 144.618C214.034 144.416 214.061 144.216 214.11 144.021C214.286 143.281 214.717 142.626 215.327 142.173C215.691 141.906 216.103 141.714 216.541 141.607C216.979 141.501 217.434 141.482 217.879 141.553C218.325 141.623 218.751 141.781 219.135 142.017C219.519 142.253 219.852 142.563 220.116 142.929C220.42 143.363 220.619 143.863 220.697 144.388C220.775 144.913 220.729 145.448 220.563 145.952C220.398 146.456 220.117 146.915 219.743 147.291C219.369 147.668 218.913 147.952 218.41 148.121C217.872 148.302 217.298 148.345 216.739 148.246C216.18 148.146 215.656 147.908 215.214 147.552C214.626 147.072 214.224 146.403 214.076 145.659C214.033 145.459 214.015 145.254 214.025 145.05C214.025 144.914 214.025 144.84 214.025 144.845C214.025 144.851 214.025 145.135 214.167 145.63C214.35 146.329 214.76 146.947 215.333 147.387C215.794 147.745 216.345 147.968 216.925 148.031C217.505 148.094 218.091 147.994 218.618 147.742C219.145 147.491 219.591 147.098 219.907 146.607C220.223 146.117 220.396 145.548 220.407 144.965C220.418 144.381 220.267 143.806 219.97 143.304C219.673 142.802 219.242 142.392 218.726 142.12C218.209 141.849 217.628 141.727 217.045 141.767C216.463 141.807 215.904 142.009 215.43 142.349C214.843 142.768 214.41 143.367 214.196 144.055C214.059 144.538 214.059 144.834 214.031 144.834Z" fill="#263238"/>
<path d="M219.485 144.937C219.478 145.366 219.344 145.783 219.099 146.136C218.855 146.488 218.512 146.76 218.113 146.918C217.714 147.075 217.277 147.11 216.858 147.019C216.438 146.928 216.056 146.715 215.758 146.406C215.46 146.097 215.261 145.707 215.185 145.284C215.11 144.862 215.161 144.427 215.333 144.034C215.505 143.641 215.79 143.308 216.151 143.077C216.513 142.845 216.934 142.727 217.363 142.736C217.936 142.748 218.481 142.986 218.878 143.398C219.276 143.811 219.494 144.364 219.485 144.937Z" fill="#E0E0E0"/>
<path d="M224.257 145.033C224.243 145.681 224.422 146.319 224.771 146.865C225.12 147.411 225.623 147.841 226.217 148.101C226.81 148.361 227.468 148.439 228.106 148.326C228.744 148.212 229.334 147.912 229.801 147.463C230.268 147.014 230.592 146.436 230.731 145.804C230.87 145.171 230.818 144.511 230.582 143.907C230.346 143.304 229.936 142.784 229.404 142.413C228.872 142.043 228.243 141.838 227.595 141.826C227.165 141.817 226.737 141.893 226.337 142.049C225.936 142.205 225.57 142.439 225.26 142.737C224.95 143.035 224.702 143.391 224.53 143.785C224.358 144.179 224.265 144.603 224.257 145.033Z" fill="#FAFAFA"/>
<path d="M224.256 145.033C224.256 145.033 224.256 144.959 224.256 144.822C224.258 144.619 224.285 144.417 224.335 144.22C224.512 143.48 224.943 142.826 225.552 142.371C225.914 142.101 226.326 141.906 226.764 141.797C227.202 141.689 227.658 141.669 228.104 141.74C228.549 141.81 228.977 141.969 229.36 142.208C229.743 142.446 230.075 142.759 230.335 143.128C230.759 143.72 230.98 144.434 230.966 145.163C230.952 145.891 230.702 146.595 230.256 147.171C229.981 147.529 229.638 147.828 229.245 148.051C228.853 148.274 228.421 148.416 227.973 148.469C227.525 148.522 227.071 148.485 226.638 148.36C226.204 148.234 225.801 148.024 225.45 147.74C224.862 147.26 224.46 146.59 224.313 145.846C224.269 145.648 224.252 145.445 224.262 145.243C224.262 145.101 224.262 145.033 224.262 145.033C224.262 145.033 224.262 145.323 224.404 145.818C224.578 146.513 224.978 147.131 225.541 147.575C226.001 147.934 226.552 148.159 227.133 148.223C227.713 148.287 228.3 148.188 228.827 147.937C229.354 147.687 229.802 147.294 230.119 146.804C230.436 146.313 230.61 145.744 230.622 145.161C230.633 144.577 230.483 144.001 230.186 143.498C229.889 142.996 229.458 142.585 228.941 142.313C228.425 142.042 227.843 141.919 227.26 141.959C226.678 142 226.118 142.201 225.643 142.542C225.056 142.96 224.623 143.56 224.409 144.248C224.279 144.743 224.284 145.033 224.256 145.033Z" fill="#263238"/>
<path d="M229.722 145.141C229.714 145.569 229.579 145.986 229.334 146.338C229.089 146.69 228.745 146.961 228.346 147.118C227.947 147.274 227.51 147.309 227.091 147.217C226.673 147.125 226.291 146.911 225.993 146.602C225.696 146.293 225.498 145.903 225.422 145.48C225.347 145.058 225.399 144.623 225.571 144.231C225.743 143.838 226.028 143.505 226.389 143.274C226.75 143.044 227.172 142.925 227.601 142.934C227.885 142.939 228.165 143 228.426 143.114C228.686 143.228 228.922 143.392 229.119 143.597C229.316 143.802 229.471 144.044 229.574 144.309C229.678 144.574 229.728 144.856 229.722 145.141Z" fill="#E0E0E0"/>
<path d="M213.833 154.792C213.82 155.439 214 156.076 214.35 156.621C214.7 157.167 215.203 157.596 215.797 157.856C216.391 158.115 217.048 158.192 217.685 158.078C218.323 157.964 218.913 157.663 219.379 157.214C219.846 156.764 220.169 156.187 220.308 155.554C220.446 154.921 220.394 154.261 220.157 153.658C219.921 153.055 219.511 152.536 218.98 152.165C218.448 151.795 217.819 151.591 217.171 151.579C216.303 151.565 215.465 151.895 214.839 152.497C214.214 153.099 213.852 153.924 213.833 154.792Z" fill="#FAFAFA"/>
<path d="M213.832 154.792C213.824 154.72 213.824 154.648 213.832 154.576C213.835 154.384 213.859 154.193 213.906 154.007C214.086 153.268 214.519 152.614 215.129 152.159C215.49 151.889 215.902 151.695 216.34 151.587C216.778 151.479 217.234 151.459 217.679 151.53C218.125 151.6 218.552 151.759 218.935 151.997C219.319 152.235 219.65 152.547 219.911 152.915C220.335 153.508 220.556 154.222 220.542 154.95C220.528 155.679 220.279 156.383 219.832 156.959C219.42 157.492 218.857 157.888 218.217 158.096C217.679 158.277 217.104 158.32 216.546 158.221C215.987 158.121 215.463 157.883 215.021 157.527C214.43 157.05 214.027 156.379 213.883 155.634C213.841 155.434 213.822 155.229 213.826 155.025C213.816 154.957 213.816 154.888 213.826 154.82C213.86 154.82 213.826 155.11 213.968 155.605C214.156 156.302 214.565 156.919 215.134 157.362C215.595 157.721 216.146 157.944 216.726 158.008C217.306 158.071 217.892 157.972 218.419 157.721C218.945 157.47 219.392 157.078 219.709 156.587C220.025 156.097 220.199 155.529 220.211 154.945C220.223 154.362 220.072 153.787 219.776 153.284C219.479 152.781 219.049 152.371 218.533 152.099C218.017 151.827 217.435 151.704 216.853 151.744C216.271 151.783 215.711 151.984 215.237 152.324C214.647 152.739 214.213 153.34 214.003 154.03C213.86 154.496 213.866 154.792 213.832 154.792Z" fill="#263238"/>
<path d="M219.269 154.894C219.261 155.321 219.126 155.737 218.882 156.088C218.638 156.439 218.295 156.709 217.897 156.865C217.499 157.021 217.063 157.056 216.645 156.964C216.228 156.873 215.847 156.659 215.55 156.351C215.254 156.043 215.056 155.653 214.981 155.232C214.906 154.811 214.957 154.378 215.129 153.986C215.301 153.594 215.585 153.262 215.945 153.032C216.305 152.802 216.726 152.684 217.153 152.693C217.726 152.705 218.27 152.943 218.666 153.356C219.063 153.768 219.28 154.321 219.269 154.894Z" fill="#E0E0E0"/>
<path d="M224.035 154.991C224.021 155.639 224.201 156.276 224.55 156.823C224.898 157.369 225.402 157.799 225.995 158.059C226.589 158.319 227.246 158.397 227.884 158.284C228.522 158.17 229.112 157.87 229.579 157.421C230.047 156.972 230.37 156.394 230.509 155.761C230.648 155.128 230.596 154.468 230.36 153.865C230.124 153.262 229.714 152.742 229.182 152.371C228.651 152.001 228.021 151.796 227.373 151.784C226.505 151.767 225.666 152.095 225.04 152.697C224.414 153.298 224.053 154.123 224.035 154.991Z" fill="#FAFAFA"/>
<path d="M224.035 154.991C224.035 154.991 224.035 154.917 224.035 154.781C224.032 154.578 224.057 154.375 224.108 154.178C224.288 153.438 224.721 152.785 225.331 152.33C225.693 152.06 226.105 151.866 226.543 151.758C226.981 151.65 227.436 151.63 227.882 151.701C228.327 151.771 228.754 151.93 229.138 152.168C229.521 152.406 229.853 152.718 230.114 153.086C230.533 153.681 230.752 154.394 230.738 155.121C230.723 155.848 230.477 156.552 230.034 157.13C229.757 157.484 229.412 157.781 229.019 158.001C228.627 158.222 228.194 158.363 227.747 158.416C227.3 158.469 226.847 158.433 226.413 158.309C225.98 158.186 225.576 157.979 225.223 157.698C224.632 157.221 224.23 156.55 224.086 155.805C224.044 155.606 224.025 155.404 224.029 155.202C224.029 155.06 224.029 154.991 224.029 154.991C224.029 154.991 224.029 155.281 224.171 155.782C224.355 156.48 224.765 157.098 225.337 157.539C225.798 157.897 226.349 158.12 226.929 158.183C227.509 158.245 228.095 158.145 228.622 157.894C229.148 157.642 229.594 157.249 229.91 156.759C230.226 156.268 230.4 155.7 230.411 155.116C230.422 154.533 230.271 153.958 229.974 153.456C229.677 152.953 229.246 152.543 228.73 152.272C228.213 152.001 227.631 151.878 227.049 151.919C226.467 151.959 225.908 152.16 225.434 152.5C224.846 152.917 224.414 153.517 224.205 154.207C224.086 154.701 224.091 154.991 224.035 154.991Z" fill="#263238"/>
<path d="M229.494 155.099C229.485 155.526 229.35 155.941 229.105 156.291C228.861 156.642 228.518 156.911 228.12 157.067C227.722 157.222 227.287 157.256 226.87 157.164C226.453 157.072 226.072 156.859 225.776 156.551C225.48 156.243 225.282 155.855 225.207 155.434C225.131 155.014 225.182 154.58 225.353 154.189C225.524 153.797 225.807 153.465 226.167 153.235C226.526 153.004 226.946 152.885 227.373 152.893C227.658 152.897 227.939 152.958 228.199 153.072C228.46 153.185 228.696 153.349 228.893 153.554C229.091 153.759 229.245 154.002 229.348 154.267C229.452 154.532 229.501 154.815 229.494 155.099Z" fill="#E0E0E0"/>
<path d="M220.133 150.117L217.068 143.862L211.893 139.159C211.893 139.159 209.959 137.242 208.93 136.884C207.901 136.526 197.971 139.654 197.971 139.654C197.179 139.668 196.408 139.906 195.745 140.339C195.082 140.773 194.554 141.385 194.224 142.105C193.222 142.757 192.494 143.754 192.18 144.908C191.865 146.061 191.985 147.29 192.518 148.36L192.757 153.143L194.349 169.635L193.098 177.472C193.098 177.472 199.564 173.741 202.675 172.046C205.785 170.352 207.821 164.96 207.821 164.96C211.046 162.487 212.177 156.117 212.177 156.117C212.805 155.715 213.297 155.131 213.586 154.444C213.875 153.757 213.949 152.998 213.798 152.267C214.936 151.534 214.702 149.264 214.702 149.264C215.269 150.008 216.036 150.576 216.913 150.9C217.79 151.224 218.741 151.292 219.656 151.096C219.76 151.078 219.859 151.035 219.944 150.971C220.029 150.907 220.098 150.824 220.145 150.729C220.191 150.633 220.215 150.528 220.213 150.422C220.211 150.315 220.184 150.211 220.133 150.117Z" fill="#FFBF9D"/>
<path d="M197.688 149.39C197.845 149.364 198.005 149.355 198.165 149.361L199.53 149.299C200.713 149.242 202.419 149.088 204.529 148.844L205.336 148.747C205.626 148.701 205.92 148.69 206.212 148.713C206.853 148.777 207.448 149.074 207.884 149.549L210.432 152.62C210.654 152.893 210.881 153.189 211.097 153.462C211.157 153.536 211.212 153.614 211.262 153.695C211.294 153.743 211.321 153.794 211.342 153.848L211.382 153.991C211.429 154.177 211.46 154.367 211.473 154.559C211.497 155.35 211.317 156.133 210.949 156.834C210.594 157.533 210.193 158.207 209.749 158.853C209.534 159.213 209.254 159.531 208.925 159.791C208.737 159.929 208.516 160.015 208.284 160.04C208.053 160.065 207.818 160.028 207.605 159.933C207.273 159.771 207.015 159.488 206.883 159.143C206.762 158.814 206.722 158.461 206.769 158.114C206.893 157.476 207.142 156.868 207.503 156.328L207.549 156.555C206.543 155.823 205.673 154.92 204.978 153.888L205.217 153.934C204.692 154.288 204.09 154.509 203.46 154.578C202.831 154.647 202.195 154.563 201.606 154.332L201.776 154.082C201.985 154.3 202.127 154.573 202.186 154.869C202.246 155.165 202.22 155.472 202.113 155.754C202.005 156.036 201.819 156.282 201.578 156.463C201.336 156.644 201.048 156.753 200.747 156.777L200.781 156.504C202.007 156.919 203.075 157.701 203.841 158.745C204.419 159.534 204.797 160.451 204.944 161.418C205.04 162.028 205.04 162.65 204.944 163.26C204.904 163.471 204.87 163.624 204.842 163.732C204.813 163.84 204.796 163.886 204.785 163.886C204.921 163.078 204.921 162.254 204.785 161.446C204.613 160.514 204.223 159.635 203.647 158.881C202.896 157.891 201.861 157.155 200.679 156.771L200.031 156.561L200.713 156.498C200.949 156.473 201.175 156.385 201.366 156.244C201.558 156.103 201.709 155.914 201.805 155.697C201.897 155.462 201.921 155.206 201.874 154.958C201.827 154.711 201.71 154.482 201.538 154.298L201.037 153.78L201.708 154.042C202.249 154.248 202.832 154.321 203.408 154.254C203.983 154.186 204.533 153.981 205.012 153.655L205.154 153.564L205.245 153.7C205.924 154.696 206.768 155.567 207.742 156.277L207.873 156.368L207.793 156.504C207.456 157.005 207.222 157.567 207.105 158.159C207.045 158.437 207.074 158.727 207.188 158.988C207.302 159.248 207.496 159.466 207.742 159.609C207.898 159.681 208.07 159.708 208.24 159.689C208.411 159.67 208.573 159.605 208.709 159.501C209.002 159.267 209.251 158.982 209.442 158.659C209.88 158.027 210.275 157.365 210.625 156.68C210.967 156.043 211.139 155.328 211.126 154.605C211.114 154.434 211.086 154.264 211.04 154.099V153.973C211.028 153.945 211.013 153.919 210.995 153.894C210.951 153.818 210.902 153.746 210.847 153.678C210.642 153.399 210.415 153.109 210.199 152.847C209.312 151.767 208.493 150.738 207.685 149.771C207.298 149.347 206.771 149.076 206.201 149.009C205.928 148.99 205.653 149 205.382 149.037L204.569 149.117C202.459 149.333 200.741 149.452 199.553 149.469C198.984 149.469 198.495 149.469 198.182 149.469C198.015 149.461 197.849 149.434 197.688 149.39Z" fill="#FF9A6C"/>
<path d="M213.69 152.715C213.272 151.922 212.942 151.085 212.706 150.219C212.413 149.306 212.032 148.425 211.569 147.586C211.018 146.566 210.158 145.748 209.112 145.249C208.014 144.882 206.847 144.773 205.7 144.93L202.8 145.118C201.975 145.163 201.304 145.197 200.843 145.214C200.604 145.248 200.361 145.248 200.121 145.214C200.353 145.147 200.591 145.107 200.832 145.095C201.293 145.038 201.969 144.964 202.783 144.885L205.677 144.623C206.883 144.441 208.116 144.55 209.271 144.941C210.385 145.47 211.297 146.346 211.87 147.438C212.334 148.303 212.701 149.216 212.962 150.162C213.178 150.896 213.366 151.521 213.531 152.039C213.604 152.259 213.657 152.486 213.69 152.715Z" fill="#FF9A6C"/>
<path d="M214.742 149.964C214.68 149.964 214.526 148.758 213.867 146.915C213.478 145.841 212.991 144.806 212.411 143.822C212.073 143.241 211.693 142.686 211.273 142.161C210.86 141.608 210.249 141.235 209.567 141.12C208.851 141.043 208.13 141.027 207.412 141.075C206.712 141.075 206.03 141.12 205.382 141.16C204.091 141.24 202.925 141.348 201.97 141.456C201.014 141.564 200.207 141.672 199.661 141.74C199.38 141.8 199.094 141.827 198.808 141.82C199.076 141.718 199.354 141.646 199.638 141.604C200.178 141.496 200.963 141.348 201.913 141.206C202.862 141.063 204.057 140.933 205.353 140.836C206.007 140.785 206.69 140.751 207.401 140.728C208.14 140.676 208.882 140.69 209.618 140.768C210.009 140.825 210.383 140.965 210.716 141.177C211.032 141.387 211.314 141.644 211.552 141.939C211.973 142.479 212.354 143.049 212.689 143.645C213.267 144.654 213.739 145.719 214.1 146.824C214.346 147.567 214.536 148.328 214.668 149.099C214.731 149.383 214.755 149.673 214.742 149.964Z" fill="#FF9A6C"/>
<path d="M194.332 169.606C194.332 169.606 189.367 200.145 188.56 208.846C187.513 220.135 185.563 227.835 188.73 235.529C191.466 242.177 198.694 246.755 205.313 243.957C211.933 241.159 214.247 222.5 214.247 222.5L206.246 168.122L194.332 169.606Z" fill="#FFBF9D"/>
<path d="M211.302 221.124C211.302 221.124 211.302 221.079 211.302 220.988C211.302 220.897 211.347 220.749 211.381 220.589C211.45 220.243 211.603 219.736 211.706 219.065C212.07 217.191 212.26 215.288 212.274 213.378C212.26 210.547 212.034 207.72 211.598 204.922C211.148 201.754 210.523 198.291 209.988 194.629C208.891 187.315 207.81 180.713 207.145 175.907C206.809 173.508 206.576 171.563 206.423 170.221C206.354 169.567 206.303 169.049 206.263 168.668C206.263 168.503 206.263 168.372 206.229 168.264C206.222 168.217 206.222 168.169 206.229 168.122C206.243 168.166 206.253 168.212 206.258 168.259C206.258 168.367 206.297 168.497 206.32 168.662C206.371 169.038 206.445 169.555 206.536 170.203C206.718 171.546 206.991 173.491 207.349 175.89C208.06 180.679 209.181 187.264 210.273 194.595C210.807 198.251 211.41 201.72 211.865 204.899C212.292 207.711 212.498 210.552 212.479 213.396C212.448 215.308 212.229 217.213 211.825 219.082C211.706 219.753 211.529 220.254 211.444 220.601L211.336 220.993C211.325 221.084 211.308 221.13 211.302 221.124Z" fill="#FF9A6C"/>
<path d="M310.549 135.974C310.549 135.974 329.179 173.251 333.763 185.165C338.347 197.079 336.788 204.16 334.104 207.748C331.42 211.337 318.567 206.77 318.01 206.469C315.565 205.132 310.503 194.486 310.503 194.486L297.992 139.272L310.549 135.974Z" fill="#FFBF9D"/>
<path d="M311.909 195.112C311.884 195.068 311.863 195.022 311.846 194.975L311.693 194.571C311.556 194.185 311.363 193.656 311.124 192.99C310.618 191.62 309.987 189.607 309.219 187.116C307.7 182.128 305.852 175.173 304.004 167.433C302.156 159.693 300.632 152.647 299.58 147.529C299.051 144.976 298.641 142.911 298.368 141.478L298.061 139.829C298.033 139.653 298.01 139.511 297.993 139.397C297.985 139.348 297.985 139.298 297.993 139.249C298.016 139.293 298.032 139.342 298.038 139.391C298.038 139.505 298.095 139.641 298.135 139.818C298.226 140.216 298.346 140.762 298.499 141.456L299.801 147.489C300.905 152.579 302.457 159.608 304.311 167.342C306.165 175.077 307.968 182.037 309.429 187.036C310.174 189.533 310.771 191.552 311.243 192.928C311.465 193.604 311.636 194.139 311.761 194.526L311.886 194.941C311.903 194.996 311.911 195.054 311.909 195.112Z" fill="#FF9A6C"/>
<path d="M287.205 109.877C287.205 109.877 286.357 110.286 286.602 111.691C286.846 113.096 289.445 118.146 289.65 119.215C289.855 120.284 290.424 127.665 291.396 129.644C292.368 131.624 292.84 127.512 292.84 127.512L296.628 120.892L297.396 118.942C297.396 118.942 295.69 120.244 294.348 117.457C293.659 115.996 292.784 113.061 291.413 111.139C290.043 109.217 288.553 108.938 287.205 109.877Z" fill="#FFBF9D"/>
<path d="M294.216 111.918C293.796 111.926 293.377 111.888 292.965 111.805C291.954 111.689 290.956 111.478 289.985 111.173C289.006 110.873 288.078 110.426 287.233 109.848C286.978 109.665 286.76 109.435 286.59 109.172C286.52 109.075 286.478 108.961 286.471 108.842C286.716 109.172 287.018 109.455 287.364 109.678C288.222 110.185 289.136 110.594 290.088 110.895C291.047 111.187 292.023 111.422 293.011 111.6C293.425 111.654 293.83 111.761 294.216 111.918Z" fill="#FF9A6C"/>
<path d="M284.316 106.567C284.316 107.148 284.489 107.715 284.811 108.198C285.133 108.68 285.592 109.056 286.128 109.278C286.664 109.5 287.254 109.559 287.823 109.445C288.393 109.332 288.915 109.053 289.326 108.642C289.736 108.232 290.016 107.709 290.129 107.14C290.242 106.571 290.184 105.98 289.962 105.444C289.74 104.908 289.364 104.45 288.881 104.127C288.399 103.805 287.831 103.633 287.251 103.633C286.473 103.633 285.726 103.942 285.176 104.492C284.626 105.043 284.316 105.789 284.316 106.567Z" fill="#FAFAFA"/>
<path d="M284.316 106.566C284.316 106.566 284.316 106.504 284.316 106.379C284.309 106.187 284.328 105.996 284.373 105.81C284.512 105.134 284.887 104.529 285.43 104.104C285.834 103.789 286.31 103.581 286.815 103.5C287.32 103.418 287.838 103.466 288.319 103.638C288.894 103.838 289.394 104.209 289.753 104.701C290.144 105.227 290.355 105.865 290.355 106.521C290.355 107.176 290.144 107.815 289.753 108.341C289.394 108.832 288.894 109.203 288.319 109.404C287.838 109.576 287.32 109.623 286.815 109.542C286.31 109.46 285.834 109.252 285.43 108.938C284.887 108.512 284.512 107.908 284.373 107.232C284.331 107.055 284.311 106.873 284.316 106.691C284.316 106.566 284.316 106.504 284.316 106.504C284.316 106.504 284.316 106.765 284.464 107.203C284.636 107.826 285.015 108.372 285.539 108.75C285.955 109.061 286.45 109.25 286.969 109.296C287.487 109.342 288.007 109.243 288.473 109.01C288.938 108.777 289.329 108.419 289.602 107.976C289.875 107.534 290.02 107.024 290.02 106.504C290.02 105.984 289.875 105.474 289.602 105.031C289.329 104.588 288.938 104.23 288.473 103.997C288.007 103.764 287.487 103.665 286.969 103.711C286.45 103.757 285.955 103.946 285.539 104.257C285.018 104.636 284.639 105.179 284.464 105.799C284.316 106.327 284.316 106.566 284.316 106.566Z" fill="#263238"/>
<path d="M289.161 106.567C289.161 106.951 289.047 107.326 288.834 107.645C288.621 107.963 288.318 108.212 287.964 108.359C287.609 108.506 287.219 108.544 286.843 108.469C286.467 108.394 286.121 108.21 285.85 107.938C285.579 107.667 285.394 107.322 285.319 106.945C285.245 106.569 285.283 106.179 285.43 105.825C285.577 105.471 285.825 105.168 286.144 104.955C286.463 104.742 286.838 104.628 287.221 104.628C287.476 104.628 287.728 104.678 287.964 104.776C288.199 104.873 288.413 105.016 288.593 105.196C288.773 105.376 288.916 105.59 289.013 105.825C289.111 106.06 289.161 106.313 289.161 106.567Z" fill="#E0E0E0"/>
<path d="M285.402 108.545C285.454 108.221 285.598 107.918 285.818 107.674C286.038 107.43 286.324 107.255 286.641 107.169C287.705 106.947 297.765 107.965 298.919 108.147C300.074 108.329 302.775 108.545 302.775 108.545C302.775 108.545 306.409 108.011 307.649 111.559L308.786 114.175C308.786 114.175 312.022 114.352 312.153 117.411C312.284 120.471 312.551 122.239 312.551 122.239C312.551 122.239 316.384 123.417 316.202 125.407C316.02 127.397 314.456 130.838 314.456 130.838L311.465 136.315C310.716 137.847 309.537 139.129 308.074 140.004C306.61 140.879 304.923 141.31 303.219 141.245H299.806C299.806 141.245 291.708 132.231 291.14 128.233C290.571 124.236 295.689 121.807 295.689 121.807L300.239 117.161L300.341 113.18C300.341 113.18 290.645 112.071 288.603 111.224C286.562 110.377 285.288 109.859 285.402 108.545Z" fill="#FFBF9D"/>
<path d="M310.021 126.926C309.743 128.179 309.859 129.488 310.35 130.673L310.021 126.926Z" fill="#FFBF9D"/>
<path d="M310.351 130.673C309.967 130.137 309.757 129.496 309.748 128.837C309.646 128.187 309.741 127.521 310.021 126.926C310.106 126.926 309.947 127.784 310.021 128.814C310.095 129.843 310.43 130.639 310.351 130.673Z" fill="#FF9A6C"/>
<path d="M302.621 108.534C302.621 108.534 296.639 109.234 294.99 110.064C294.825 110.149 290.878 114.71 290.878 114.71C291.001 115.009 291.181 115.281 291.409 115.51C291.638 115.739 291.909 115.921 292.207 116.045C292.506 116.169 292.826 116.234 293.149 116.234C293.472 116.234 293.792 116.17 294.091 116.047C296.485 115.262 297.082 113.692 297.082 113.692L302.621 113.493L303.912 116.047" fill="#FFBF9D"/>
<path d="M303.913 116.047C303.766 115.843 303.638 115.626 303.532 115.399L302.548 113.534L302.627 113.585L297.083 113.824L297.202 113.738C296.695 114.725 295.852 115.497 294.825 115.916C294.292 116.178 293.712 116.331 293.119 116.366C292.485 116.376 291.872 116.137 291.413 115.7C291.132 115.438 290.909 115.121 290.759 114.768L290.725 114.688L290.781 114.614C292.067 113.136 293.289 111.737 294.421 110.491C294.563 110.332 294.7 110.184 294.853 110.025C295.007 109.866 295.058 109.917 295.155 109.86C295.249 109.819 295.346 109.783 295.445 109.752C295.817 109.624 296.197 109.517 296.582 109.433C297.316 109.263 297.998 109.132 298.618 109.03C299.863 108.819 300.893 108.694 301.575 108.614C301.922 108.575 302.195 108.552 302.377 108.541C302.469 108.524 302.564 108.524 302.656 108.541C302.567 108.571 302.476 108.592 302.383 108.603L301.587 108.734C300.898 108.842 299.881 109.001 298.652 109.234C298.038 109.348 297.361 109.49 296.645 109.672C296.272 109.757 295.906 109.865 295.547 109.996C295.454 110.027 295.363 110.064 295.274 110.104C295.2 110.144 295.064 110.178 295.047 110.224C294.916 110.36 294.774 110.52 294.637 110.673C293.5 111.93 292.306 113.335 291.026 114.813V114.665C291.16 114.975 291.353 115.255 291.595 115.49C291.796 115.681 292.034 115.829 292.294 115.927C292.553 116.025 292.83 116.069 293.107 116.059C293.66 116.026 294.201 115.885 294.7 115.643C295.668 115.259 296.472 114.549 296.975 113.636L297.014 113.551H297.094L302.639 113.397H302.696V113.448C303.077 114.233 303.378 114.87 303.611 115.348C303.727 115.574 303.828 115.807 303.913 116.047Z" fill="#FF9A6C"/>
<path d="M308.974 114.398L301.826 114C301.409 113.98 300.993 114.044 300.602 114.189C300.212 114.333 299.854 114.555 299.551 114.841L295.689 118.481C295.726 118.764 295.823 119.036 295.974 119.278C296.126 119.521 296.328 119.727 296.567 119.884C296.806 120.041 297.075 120.144 297.358 120.186C297.64 120.229 297.929 120.21 298.203 120.13C299.702 119.744 301.11 119.064 302.343 118.128C302.343 118.128 306.17 118.913 306.29 118.913C306.618 119.719 306.894 120.545 307.114 121.387" fill="#FFBF9D"/>
<path d="M307.092 121.386C307.023 121.243 306.966 121.095 306.922 120.942C306.814 120.613 306.672 120.192 306.495 119.669C306.45 119.532 306.393 119.39 306.342 119.242C306.291 119.094 306.279 119.094 306.251 119.026C306.222 118.958 306.222 118.98 306.251 118.992H306.285H306.251H306.126L304.988 118.781L302.298 118.27H302.401C301.389 119.045 300.26 119.656 299.057 120.078C298.725 120.193 298.385 120.28 298.039 120.34C297.671 120.416 297.289 120.399 296.93 120.288C296.553 120.171 296.223 119.938 295.986 119.623C295.753 119.304 295.594 118.937 295.52 118.548V118.474L295.576 118.417L295.69 118.27L297.868 116.222L298.903 115.25C299.228 114.917 299.582 114.615 299.961 114.346C300.345 114.108 300.776 113.955 301.223 113.896C301.638 113.856 302.055 113.856 302.469 113.896L304.664 114.033L307.832 114.26L308.696 114.334C308.796 114.338 308.895 114.353 308.992 114.38C308.892 114.396 308.79 114.396 308.69 114.38H307.826L304.653 114.249L302.458 114.147C302.06 114.11 301.661 114.11 301.263 114.147C300.86 114.212 300.473 114.357 300.126 114.573C299.768 114.836 299.433 115.129 299.125 115.449L298.09 116.427L295.918 118.48L295.81 118.582L295.855 118.452C295.9 118.788 296.036 119.105 296.247 119.371C296.458 119.636 296.737 119.839 297.055 119.959C297.71 120.092 298.391 120.022 299.006 119.76C300.18 119.362 301.287 118.787 302.287 118.054L302.332 118.019H302.389L305.045 118.588L306.148 118.821L306.273 118.85H306.308C306.337 118.858 306.365 118.874 306.387 118.895C306.427 118.941 306.416 118.946 306.433 118.975C306.45 119.003 306.501 119.134 306.529 119.208L306.672 119.646C306.842 120.215 306.962 120.641 307.036 120.942C307.068 121.088 307.087 121.237 307.092 121.386Z" fill="#FF9A6C"/>
<path d="M314.501 123.132C314.501 123.132 310.935 121.347 310.35 121.386C309.764 121.426 303.525 123.695 303.525 123.695C303.525 123.695 304.765 126.215 306.568 125.97C307.689 125.818 308.792 125.555 309.861 125.185L312.42 127.693" fill="#FFBF9D"/>
<path d="M312.432 127.705C312.17 127.52 311.926 127.311 311.704 127.08L309.799 125.271H309.913C308.85 125.656 307.75 125.93 306.631 126.09C306.29 126.135 305.942 126.096 305.619 125.977C305.292 125.849 304.989 125.668 304.72 125.442C304.181 124.96 303.735 124.381 303.407 123.736L303.327 123.594L303.486 123.531L303.816 123.412C305.295 122.877 306.705 122.383 307.99 121.95C308.639 121.734 309.253 121.529 309.839 121.382C309.986 121.336 310.136 121.3 310.288 121.274C310.447 121.264 310.606 121.289 310.754 121.347C311.015 121.43 311.272 121.527 311.522 121.638C312.472 122.041 313.228 122.422 313.723 122.684C313.994 122.81 314.255 122.958 314.502 123.127C314.214 123.042 313.936 122.928 313.672 122.786C313.148 122.559 312.392 122.218 311.442 121.831C311.204 121.74 310.953 121.643 310.692 121.564C310.571 121.521 310.444 121.502 310.316 121.507C310.197 121.507 310.043 121.575 309.907 121.615C309.338 121.791 308.724 122.001 308.081 122.223L303.919 123.708L303.589 123.827L303.674 123.622C303.986 124.23 304.404 124.777 304.908 125.237C305.149 125.444 305.422 125.611 305.716 125.732C305.998 125.833 306.299 125.869 306.597 125.834C307.697 125.691 308.781 125.441 309.833 125.089H309.901L309.947 125.135L311.789 127.012C312.019 127.228 312.234 127.459 312.432 127.705Z" fill="#FF9A6C"/>
<path d="M297.333 121.324C297.333 121.324 297.185 121.295 296.969 121.386C296.673 121.555 296.441 121.817 296.309 122.131C295.826 123.196 295.399 124.286 295.029 125.396C294.665 126.507 294.357 127.636 294.108 128.779C294.03 129.26 293.918 129.736 293.773 130.201C293.752 129.71 293.796 129.219 293.903 128.739C294.095 127.581 294.378 126.44 294.751 125.327C295.119 124.201 295.579 123.108 296.127 122.057C296.293 121.716 296.578 121.447 296.929 121.301C297.202 121.21 297.344 121.318 297.333 121.324Z" fill="#FF9A6C"/>
<path d="M293.062 112.202C292.65 112.188 292.24 112.135 291.839 112.043C291.088 111.918 290.048 111.759 288.91 111.474C287.919 111.268 286.985 110.851 286.169 110.252C285.819 110.016 285.541 109.687 285.367 109.302C285.407 109.268 285.68 109.66 286.294 110.087C287.116 110.614 288.028 110.986 288.984 111.184C290.121 111.452 291.139 111.645 291.879 111.827C292.29 111.892 292.688 112.019 293.062 112.202Z" fill="#FF9A6C"/>
</g>
<defs>
<filter id="filter0_f_3880_39882" x="112" y="-2.6123" width="277" height="262.516" filterUnits="userSpaceOnUse" color-interpolation-filters="sRGB">
<feFlood flood-opacity="0" result="BackgroundImageFix"/>
<feBlend mode="normal" in="SourceGraphic" in2="BackgroundImageFix" result="shape"/>
<feGaussianBlur stdDeviation="10" result="effect1_foregroundBlur_3880_39882"/>
</filter>
<radialGradient id="paint0_radial_3880_39882" cx="0" cy="0" r="1" gradientUnits="userSpaceOnUse" gradientTransform="translate(250.5 128.646) rotate(90) scale(111.258 118.5)">
<stop stop-color="#FFBB33"/>
<stop offset="1" stop-color="#F9F9FA"/>
</radialGradient>
<clipPath id="clip0_3880_39882">
<rect width="320" height="264" fill="white" transform="translate(96)"/>
</clipPath>
</defs>
</svg>
