<svg width="512" height="264" viewBox="0 0 512 264" fill="none" xmlns="http://www.w3.org/2000/svg">
<g clip-path="url(#clip0_3880_39070)">
<rect width="512" height="264" rx="8" fill="#F9F9FA"/>
<g filter="url(#filter0_f_3880_39070)">
<ellipse cx="264.5" cy="128.5" rx="118.5" ry="117.5" fill="url(#paint0_radial_3880_39070)" fill-opacity="0.35"/>
</g>
<path d="M365.4 254.896L369.808 255.704L370.792 260.352L371.776 255.704L376.184 254.888L371.792 253.816L370.792 249.432L369.784 253.816L365.4 254.896Z" fill="#E1E0E6"/>
<path d="M183.568 229.808L187.976 230.624L188.96 235.272L189.944 230.624L194.352 229.808L189.968 228.736L188.96 224.352L187.96 228.736L183.568 229.808Z" fill="#E1E0E6"/>
<path d="M320.385 180.152L324.793 180.968L325.777 185.607L326.761 180.968L331.169 180.152L326.785 179.071L325.777 174.688L324.777 179.071L320.385 180.152Z" fill="#E1E0E6"/>
<path d="M407.288 227.544L409.752 228L410.304 230.6L410.856 228L413.312 227.544L410.864 226.944L410.304 224.496L409.744 226.944L407.288 227.544Z" fill="#E1E0E6"/>
<path d="M401.265 110.672L403.729 111.128L404.281 113.72L404.825 111.128L407.289 110.664L404.841 110.072L404.281 107.616L403.713 110.072L401.265 110.672Z" fill="#E1E0E6"/>
<path d="M110.713 166.52L113.177 166.976L113.729 169.568L114.273 166.976L116.737 166.52L114.289 165.92L113.729 163.464L113.169 165.92L110.713 166.52Z" fill="#E1E0E6"/>
<path d="M391.761 176.44L394.225 176.896L394.769 179.488L395.321 176.896L397.785 176.44L395.337 175.84L394.769 173.384L394.209 175.84L391.761 176.44Z" fill="#E1E0E6"/>
<path d="M287.864 260.352L290.328 260.808L290.88 263.408L291.432 260.808L293.896 260.352L291.44 259.752L290.88 257.304L290.32 259.752L287.864 260.352Z" fill="#E1E0E6"/>
<path d="M198.232 51.8558L200.696 52.3118L201.248 54.9038L201.8 52.3118L204.256 51.8558L201.808 51.2558L201.248 48.7998L200.688 51.2558L198.232 51.8558Z" fill="#E1E0E6"/>
<path d="M294.656 250.92L297.12 251.376L297.672 253.976L298.224 251.376L300.688 250.92L298.232 250.32L297.672 247.864L297.112 250.32L294.656 250.92Z" fill="#E1E0E6"/>
<path d="M341.913 198.048C342.09 198.067 342.253 198.15 342.372 198.282C342.491 198.414 342.557 198.586 342.557 198.764C342.557 198.942 342.491 199.113 342.372 199.245C342.253 199.378 342.09 199.461 341.913 199.48C341.736 199.461 341.572 199.378 341.453 199.245C341.334 199.113 341.269 198.942 341.269 198.764C341.269 198.586 341.334 198.414 341.453 198.282C341.572 198.15 341.736 198.067 341.913 198.048Z" fill="#E1E0E6"/>
<path d="M280.992 258.2C281.181 258.2 281.362 258.275 281.496 258.409C281.629 258.542 281.704 258.723 281.704 258.912C281.704 259.101 281.629 259.282 281.496 259.416C281.362 259.549 281.181 259.624 280.992 259.624C280.803 259.624 280.622 259.549 280.489 259.416C280.355 259.282 280.28 259.101 280.28 258.912C280.28 258.723 280.355 258.542 280.489 258.409C280.622 258.275 280.803 258.2 280.992 258.2Z" fill="#E1E0E6"/>
<path d="M375.889 207.408C376.078 207.408 376.259 207.483 376.392 207.617C376.526 207.75 376.601 207.931 376.601 208.12C376.601 208.309 376.526 208.49 376.392 208.624C376.259 208.757 376.078 208.832 375.889 208.832C375.7 208.832 375.519 208.757 375.385 208.624C375.252 208.49 375.177 208.309 375.177 208.12C375.177 207.931 375.252 207.75 375.385 207.617C375.519 207.483 375.7 207.408 375.889 207.408Z" fill="#E1E0E6"/>
<path d="M131.568 56.8555C131.692 56.871 131.806 56.9312 131.888 57.0248C131.971 57.1183 132.016 57.2387 132.016 57.3635C132.016 57.4882 131.971 57.6086 131.888 57.7022C131.806 57.7957 131.692 57.8559 131.568 57.8715C131.444 57.8559 131.331 57.7957 131.248 57.7022C131.166 57.6086 131.12 57.4882 131.12 57.3635C131.12 57.2387 131.166 57.1183 131.248 57.0248C131.331 56.9312 131.444 56.871 131.568 56.8555Z" fill="#E1E0E6"/>
<path d="M326.4 219.2C326.534 219.2 326.662 219.253 326.757 219.348C326.851 219.442 326.904 219.571 326.904 219.704C326.904 219.838 326.851 219.966 326.757 220.061C326.662 220.155 326.534 220.208 326.4 220.208C326.267 220.208 326.139 220.155 326.044 220.061C325.95 219.966 325.896 219.838 325.896 219.704C325.896 219.571 325.95 219.442 326.044 219.348C326.139 219.253 326.267 219.2 326.4 219.2Z" fill="#E1E0E6"/>
<path d="M301.969 262.904C302.103 262.904 302.231 262.957 302.325 263.052C302.42 263.146 302.473 263.275 302.473 263.408C302.473 263.542 302.42 263.67 302.325 263.765C302.231 263.859 302.103 263.912 301.969 263.912C301.835 263.912 301.707 263.859 301.612 263.765C301.518 263.67 301.465 263.542 301.465 263.408C301.465 263.275 301.518 263.146 301.612 263.052C301.707 262.957 301.835 262.904 301.969 262.904Z" fill="#E1E0E6"/>
<path d="M262.009 254.384C262.132 254.399 262.246 254.46 262.329 254.553C262.411 254.647 262.457 254.767 262.457 254.892C262.457 255.017 262.411 255.137 262.329 255.23C262.246 255.324 262.132 255.384 262.009 255.4C261.885 255.384 261.771 255.324 261.689 255.23C261.606 255.137 261.561 255.017 261.561 254.892C261.561 254.767 261.606 254.647 261.689 254.553C261.771 254.46 261.885 254.399 262.009 254.384Z" fill="#E1E0E6"/>
<path d="M309.249 210.023C309.612 210.023 309.96 210.168 310.216 210.424C310.473 210.681 310.617 211.029 310.617 211.391C310.617 211.754 310.473 212.102 310.216 212.359C309.96 212.615 309.612 212.759 309.249 212.759C308.886 212.759 308.538 212.615 308.282 212.359C308.025 212.102 307.881 211.754 307.881 211.391C307.881 211.029 308.025 210.681 308.282 210.424C308.538 210.168 308.886 210.023 309.249 210.023Z" fill="#E1E0E6"/>
<path d="M239.192 71.7755L243.6 72.5915L244.584 77.2315L245.568 72.5915L249.976 71.7755L245.584 70.7035L244.584 66.3115L243.576 70.7035L239.192 71.7755Z" fill="#E1E0E6"/>
<path d="M255.984 31.5599L258.448 32.0159L259 34.6079L259.552 32.0159L262.008 31.5599L259.56 30.9599L259 28.5039L258.44 30.9599L255.984 31.5599Z" fill="#E1E0E6"/>
<path d="M106.672 98.2002C106.861 98.2002 107.042 98.2752 107.175 98.4087C107.309 98.5423 107.384 98.7234 107.384 98.9122C107.384 99.101 107.309 99.2821 107.175 99.4156C107.042 99.5492 106.861 99.6242 106.672 99.6242C106.483 99.6242 106.302 99.5492 106.168 99.4156C106.035 99.2821 105.96 99.101 105.96 98.9122C105.96 98.7234 106.035 98.5423 106.168 98.4087C106.302 98.2752 106.483 98.2002 106.672 98.2002Z" fill="#E1E0E6"/>
<path d="M135.121 158.056C135.298 158.074 135.461 158.158 135.58 158.29C135.699 158.422 135.765 158.594 135.765 158.772C135.765 158.949 135.699 159.121 135.58 159.253C135.461 159.385 135.298 159.469 135.121 159.488C134.944 159.469 134.78 159.385 134.661 159.253C134.542 159.121 134.477 158.949 134.477 158.772C134.477 158.594 134.542 158.422 134.661 158.29C134.78 158.158 134.944 158.074 135.121 158.056Z" fill="#E1E0E6"/>
<path d="M98.5524 34.8154C98.7293 34.8341 98.8929 34.9177 99.0119 35.0499C99.1308 35.1821 99.1966 35.3536 99.1966 35.5314C99.1966 35.7093 99.1308 35.8808 99.0119 36.013C98.8929 36.1452 98.7293 36.2287 98.5524 36.2474C98.3756 36.2287 98.2119 36.1452 98.093 36.013C97.974 35.8808 97.9082 35.7093 97.9082 35.5314C97.9082 35.3536 97.974 35.1821 98.093 35.0499C98.2119 34.9177 98.3756 34.8341 98.5524 34.8154Z" fill="#E1E0E6"/>
<path d="M163.368 253.52C163.492 253.535 163.606 253.595 163.688 253.689C163.771 253.782 163.816 253.903 163.816 254.028C163.816 254.152 163.771 254.273 163.688 254.366C163.606 254.46 163.492 254.52 163.368 254.536C163.244 254.52 163.13 254.46 163.048 254.366C162.965 254.273 162.92 254.152 162.92 254.028C162.92 253.903 162.965 253.782 163.048 253.689C163.13 253.595 163.244 253.535 163.368 253.52Z" fill="#E1E0E6"/>
<path d="M344.921 87.1836C345.045 87.1992 345.158 87.2594 345.241 87.3529C345.323 87.4464 345.369 87.5669 345.369 87.6916C345.369 87.8163 345.323 87.9368 345.241 88.0303C345.158 88.1238 345.045 88.184 344.921 88.1996C344.797 88.184 344.683 88.1238 344.601 88.0303C344.518 87.9368 344.473 87.8163 344.473 87.6916C344.473 87.5669 344.518 87.4464 344.601 87.3529C344.683 87.2594 344.797 87.1992 344.921 87.1836Z" fill="#E1E0E6"/>
<path d="M253.681 56.2559C253.814 56.2559 253.943 56.309 254.037 56.4035C254.132 56.498 254.185 56.6262 254.185 56.7599C254.185 56.8935 254.132 57.0217 254.037 57.1162C253.943 57.2108 253.814 57.2639 253.681 57.2639C253.547 57.2639 253.419 57.2108 253.324 57.1162C253.23 57.0217 253.177 56.8935 253.177 56.7599C253.177 56.6262 253.23 56.498 253.324 56.4035C253.419 56.309 253.547 56.2559 253.681 56.2559Z" fill="#E1E0E6"/>
<path d="M223.385 235.576C223.747 235.576 224.095 235.72 224.352 235.977C224.608 236.233 224.753 236.581 224.753 236.944C224.753 237.307 224.608 237.655 224.352 237.911C224.095 238.168 223.747 238.312 223.385 238.312C223.022 238.312 222.674 238.168 222.417 237.911C222.161 237.655 222.017 237.307 222.017 236.944C222.017 236.581 222.161 236.233 222.417 235.977C222.674 235.72 223.022 235.576 223.385 235.576Z" fill="#E1E0E6"/>
<path d="M403.673 132.16C404.018 132.187 404.341 132.343 404.577 132.597C404.813 132.851 404.944 133.185 404.944 133.532C404.944 133.879 404.813 134.213 404.577 134.467C404.341 134.722 404.018 134.878 403.673 134.904C403.327 134.878 403.004 134.722 402.768 134.467C402.532 134.213 402.401 133.879 402.401 133.532C402.401 133.185 402.532 132.851 402.768 132.597C403.004 132.343 403.327 132.187 403.673 132.16Z" fill="#E1E0E6"/>
<path d="M123.576 252.152C123.939 252.152 124.287 252.296 124.543 252.553C124.8 252.81 124.944 253.158 124.944 253.52C124.944 253.883 124.8 254.231 124.543 254.488C124.287 254.744 123.939 254.888 123.576 254.888C123.213 254.888 122.865 254.744 122.609 254.488C122.352 254.231 122.208 253.883 122.208 253.52C122.208 253.158 122.352 252.81 122.609 252.553C122.865 252.296 123.213 252.152 123.576 252.152Z" fill="#E1E0E6"/>
<path d="M238.553 199.48L241.017 199.936L241.569 202.528L242.121 199.936L244.585 199.48L242.129 198.88L241.569 196.424L241.009 198.88L238.553 199.48Z" fill="#E1E0E6"/>
<path d="M342.961 75.5439C343.137 75.5627 343.301 75.6462 343.42 75.7784C343.539 75.9106 343.605 76.0821 343.605 76.2599C343.605 76.4378 343.539 76.6093 343.42 76.7415C343.301 76.8737 343.137 76.9572 342.961 76.9759C342.784 76.9572 342.62 76.8737 342.501 76.7415C342.382 76.6093 342.316 76.4378 342.316 76.2599C342.316 76.0821 342.382 75.9106 342.501 75.7784C342.62 75.6462 342.784 75.5627 342.961 75.5439Z" fill="#E1E0E6"/>
<path d="M145.217 189.096L147.681 189.552L148.225 192.144L148.777 189.552L151.241 189.096L148.793 188.496L148.225 186.04L147.665 188.496L145.217 189.096Z" fill="#E1E0E6"/>
<path d="M116.736 228.384C116.925 228.384 117.106 228.459 117.24 228.592C117.373 228.726 117.448 228.907 117.448 229.096C117.448 229.285 117.373 229.466 117.24 229.599C117.106 229.733 116.925 229.808 116.736 229.808C116.548 229.808 116.366 229.733 116.233 229.599C116.099 229.466 116.024 229.285 116.024 229.096C116.024 228.907 116.099 228.726 116.233 228.592C116.366 228.459 116.548 228.384 116.736 228.384Z" fill="#E1E0E6"/>
<path d="M215.2 175.8C215.389 175.8 215.57 175.875 215.704 176.008C215.837 176.142 215.912 176.323 215.912 176.512C215.912 176.701 215.837 176.882 215.704 177.015C215.57 177.149 215.389 177.224 215.2 177.224C215.011 177.224 214.83 177.149 214.697 177.015C214.563 176.882 214.488 176.701 214.488 176.512C214.488 176.323 214.563 176.142 214.697 176.008C214.83 175.875 215.011 175.8 215.2 175.8Z" fill="#E1E0E6"/>
<path d="M131.568 103.664C131.692 103.68 131.806 103.74 131.888 103.833C131.971 103.927 132.016 104.047 132.016 104.172C132.016 104.297 131.971 104.417 131.888 104.511C131.806 104.604 131.692 104.665 131.568 104.68C131.444 104.665 131.331 104.604 131.248 104.511C131.166 104.417 131.12 104.297 131.12 104.172C131.12 104.047 131.166 103.927 131.248 103.833C131.331 103.74 131.444 103.68 131.568 103.664Z" fill="#E1E0E6"/>
<path d="M125.097 99C125.459 99 125.807 99.1441 126.064 99.4007C126.32 99.6572 126.465 100.005 126.465 100.368C126.465 100.731 126.32 101.079 126.064 101.335C125.807 101.592 125.459 101.736 125.097 101.736C124.734 101.736 124.386 101.592 124.129 101.335C123.873 101.079 123.729 100.731 123.729 100.368C123.729 100.005 123.873 99.6572 124.129 99.4007C124.386 99.1441 124.734 99 125.097 99Z" fill="#E1E0E6"/>
<path d="M404.992 38.5918C405.355 38.5918 405.703 38.7359 405.959 38.9925C406.216 39.249 406.36 39.597 406.36 39.9598C406.36 40.3226 406.216 40.6706 405.959 40.9271C405.703 41.1837 405.355 41.3278 404.992 41.3278C404.629 41.3278 404.281 41.1837 404.025 40.9271C403.768 40.6706 403.624 40.3226 403.624 39.9598C403.624 39.597 403.768 39.249 404.025 38.9925C404.281 38.7359 404.629 38.5918 404.992 38.5918Z" fill="#E1E0E6"/>
<path d="M242.912 81.2723C242.344 80.5923 209.432 65.3283 179.624 88.0723C152.224 108.984 142.712 148.288 146.352 149.232C150.808 150.384 163.016 131.632 186.448 121.32C194.76 117.664 207.984 121.32 207.984 121.32L242.912 81.2723Z" fill="#60B257"/>
<path opacity="0.1" d="M208 121.312C204.076 120.314 200.049 119.777 196 119.712C201.168 108.896 210.816 88.7204 217.08 75.6484C231.824 75.7844 242.624 80.8964 242.952 81.2484L208 121.312Z" fill="#403E48"/>
<path d="M297.128 145.217C297.704 145.889 307.384 180.857 280.064 206.537C254.952 230.153 214.624 233.105 214.288 229.361C213.88 224.777 234.384 215.801 248.384 194.369C253.344 186.769 251.912 173.121 251.912 173.121L297.128 145.217Z" fill="#60B257"/>
<path opacity="0.1" d="M298.4 171.841L251.472 185.497C252.099 181.402 252.236 177.248 251.88 173.121L297.096 145.217C297.456 145.601 300.8 157.193 298.4 171.841Z" fill="#403E48"/>
<path d="M220.504 187.96L188.36 150.048C188.36 150.048 205.16 105.096 244.968 74.9041C264.864 59.8401 288.168 48.5681 309.104 41.1121C337.944 30.7761 362.072 27.8001 365.808 32.1841C369.544 36.5681 362.608 59.9121 347.744 86.6881C336.952 106.056 322.008 127.24 303.896 144.408C267.592 178.776 220.504 187.96 220.504 187.96Z" fill="#E1E0E6"/>
<path d="M298.592 128.176C294.268 131.846 288.954 134.15 283.32 134.798C277.687 135.447 271.988 134.409 266.944 131.818C261.9 129.226 257.738 125.197 254.985 120.239C252.232 115.282 251.011 109.619 251.477 103.968C251.943 98.3161 254.074 92.9297 257.602 88.49C261.13 84.0503 265.895 80.7567 271.295 79.0259C276.695 77.2952 282.487 77.205 287.939 78.7669C293.39 80.3287 298.256 83.4724 301.92 87.8002C306.826 93.5984 309.232 101.107 308.608 108.677C307.984 116.247 304.382 123.26 298.592 128.176Z" fill="#A09DB1"/>
<path d="M300.16 125.512C295.836 129.179 290.522 131.48 284.889 132.126C279.257 132.772 273.56 131.733 268.518 129.141C263.476 126.548 259.316 122.519 256.564 117.563C253.812 112.606 252.591 106.945 253.057 101.295C253.522 95.645 255.653 90.2599 259.179 85.8206C262.705 81.3813 267.468 78.0873 272.866 76.3551C278.264 74.6229 284.055 74.5304 289.505 76.0892C294.956 77.648 299.822 80.7881 303.488 85.1124C308.402 90.912 310.812 98.4256 310.188 106.001C309.564 113.577 305.957 120.595 300.16 125.512Z" fill="#60B257"/>
<path d="M294.488 118.8C291.491 121.348 287.806 122.949 283.899 123.402C279.992 123.855 276.039 123.139 272.539 121.344C269.039 119.549 266.15 116.757 264.238 113.32C262.326 109.882 261.476 105.955 261.797 102.035C262.117 98.1152 263.593 94.3782 266.038 91.2972C268.482 88.2162 271.786 85.9296 275.531 84.7268C279.276 83.524 283.293 83.459 287.075 84.5401C290.856 85.6212 294.232 87.7998 296.776 90.8001C300.181 94.8182 301.853 100.024 301.424 105.273C300.995 110.523 298.501 115.388 294.488 118.8Z" fill="white"/>
<path d="M294.496 118.8C292.62 120.397 290.464 121.632 288.136 122.44L272.136 121.136C269.971 119.963 268.045 118.394 266.456 116.512C265.29 115.146 264.318 113.625 263.568 111.992L298.048 114.8C297.053 116.29 295.858 117.636 294.496 118.8Z" fill="#E1E0E6"/>
<path d="M298.496 93.1445L266.672 90.5525C267.313 89.8159 268.008 89.1286 268.752 88.4965C272.769 85.0886 277.975 83.4153 283.226 83.8444C288.476 84.2734 293.341 86.7697 296.752 90.7845C297.392 91.5257 297.975 92.3147 298.496 93.1445Z" fill="#E1E0E6"/>
<path d="M300.224 110.681L262.144 107.569C262.018 106.985 261.925 106.395 261.864 105.801L300.776 109.001C300.624 109.545 300.432 110.113 300.224 110.681Z" fill="#E1E0E6"/>
<path d="M347.744 86.6887L309.104 41.0887C337.944 30.7767 362.072 27.8007 365.808 32.1847C369.544 36.5687 362.64 59.9127 347.744 86.6887Z" fill="#60B257"/>
<path d="M320.464 44.96C320.212 45.1747 319.902 45.3099 319.573 45.3483C319.244 45.3868 318.912 45.3268 318.617 45.1759C318.323 45.0251 318.079 44.7902 317.918 44.5011C317.757 44.2119 317.686 43.8815 317.713 43.5516C317.74 43.2217 317.864 42.9072 318.07 42.648C318.275 42.3888 318.553 42.1965 318.869 42.0955C319.184 41.9944 319.522 41.9892 319.84 42.0804C320.158 42.1717 320.442 42.3553 320.656 42.608C320.941 42.9457 321.081 43.3828 321.045 43.8237C321.01 44.2645 320.8 44.6731 320.464 44.96Z" fill="white"/>
<path d="M327.336 53.072C327.169 53.2188 326.974 53.3308 326.764 53.4016C326.553 53.4723 326.33 53.5003 326.109 53.484C325.887 53.4677 325.671 53.4074 325.473 53.3065C325.275 53.2057 325.099 53.0664 324.955 52.8967C324.812 52.7271 324.703 52.5305 324.637 52.3185C324.57 52.1066 324.546 51.8834 324.567 51.6621C324.587 51.4408 324.652 51.2258 324.756 51.0297C324.861 50.8336 325.003 50.6604 325.176 50.52C325.515 50.2435 325.95 50.1112 326.386 50.1517C326.822 50.1921 327.225 50.4021 327.508 50.7363C327.791 51.0706 327.931 51.5026 327.899 51.9393C327.867 52.3761 327.665 52.7828 327.336 53.072Z" fill="white"/>
<path d="M334.207 61.1763C333.953 61.3835 333.643 61.5113 333.317 61.5438C332.991 61.5763 332.662 61.512 332.372 61.359C332.082 61.2061 331.843 60.9711 331.685 60.6834C331.528 60.3957 331.458 60.0681 331.485 59.7412C331.513 59.4143 331.635 59.1026 331.838 58.845C332.041 58.5874 332.316 58.3952 332.627 58.2923C332.939 58.1895 333.274 58.1805 333.59 58.2666C333.907 58.3526 334.191 58.5299 334.407 58.7763C334.557 58.9447 334.671 59.1417 334.742 59.3553C334.813 59.5689 334.84 59.7948 334.821 60.0192C334.803 60.2435 334.739 60.4618 334.633 60.6607C334.528 60.8596 334.383 61.035 334.207 61.1763Z" fill="white"/>
<path d="M341.088 69.2888C340.834 69.4969 340.525 69.6258 340.199 69.6594C339.873 69.693 339.544 69.6299 339.253 69.4779C338.962 69.3259 338.722 69.0918 338.564 68.8046C338.405 68.5174 338.335 68.1899 338.361 67.8629C338.387 67.5359 338.509 67.2238 338.711 66.9654C338.913 66.7071 339.187 66.514 339.498 66.4102C339.809 66.3063 340.144 66.2963 340.461 66.3814C340.778 66.4665 341.063 66.643 341.28 66.8888C341.429 67.0571 341.542 67.2538 341.614 67.467C341.685 67.6802 341.712 67.9055 341.694 68.1296C341.676 68.3536 341.613 68.5717 341.509 68.7709C341.405 68.97 341.262 69.1462 341.088 69.2888Z" fill="white"/>
<path d="M348 77.4009C347.748 77.6145 347.438 77.7486 347.11 77.7862C346.781 77.8239 346.449 77.7634 346.155 77.6124C345.861 77.4613 345.618 77.2266 345.458 76.9378C345.297 76.6489 345.226 76.319 345.253 75.9895C345.279 75.6601 345.403 75.3461 345.608 75.087C345.814 74.8279 346.091 74.6355 346.406 74.534C346.72 74.4324 347.058 74.4264 347.376 74.5166C347.693 74.6069 347.978 74.7893 348.192 75.0409C348.334 75.2083 348.443 75.4022 348.51 75.6116C348.578 75.8209 348.603 76.0415 348.586 76.2607C348.568 76.4799 348.507 76.6935 348.406 76.8891C348.306 77.0848 348.168 77.2587 348 77.4009Z" fill="white"/>
<path d="M197.6 149.161C197.26 149.437 196.826 149.57 196.39 149.529C195.954 149.489 195.551 149.279 195.268 148.945C194.985 148.61 194.844 148.178 194.877 147.742C194.909 147.305 195.111 146.898 195.44 146.609C195.607 146.462 195.801 146.35 196.012 146.279C196.223 146.209 196.445 146.181 196.667 146.197C196.889 146.213 197.105 146.274 197.303 146.374C197.501 146.475 197.677 146.615 197.82 146.784C197.964 146.954 198.072 147.15 198.139 147.362C198.206 147.574 198.229 147.798 198.209 148.019C198.188 148.24 198.124 148.455 198.019 148.651C197.915 148.847 197.772 149.021 197.6 149.161Z" fill="#A09DB1"/>
<path d="M204.512 157.272C204.258 157.48 203.949 157.609 203.623 157.643C203.296 157.676 202.967 157.613 202.677 157.461C202.386 157.309 202.146 157.075 201.988 156.788C201.829 156.501 201.758 156.173 201.785 155.846C201.811 155.519 201.933 155.207 202.135 154.949C202.337 154.691 202.611 154.497 202.922 154.394C203.233 154.29 203.568 154.28 203.885 154.365C204.202 154.45 204.487 154.626 204.704 154.872C204.853 155.041 204.966 155.237 205.037 155.45C205.108 155.664 205.136 155.889 205.118 156.113C205.1 156.337 205.037 156.555 204.933 156.754C204.829 156.953 204.686 157.13 204.512 157.272Z" fill="#A09DB1"/>
<path d="M211.384 165.401C211.131 165.614 210.822 165.749 210.493 165.786C210.165 165.824 209.833 165.763 209.539 165.612C209.245 165.461 209.002 165.227 208.842 164.938C208.681 164.649 208.61 164.319 208.636 163.99C208.663 163.66 208.787 163.346 208.992 163.087C209.197 162.828 209.475 162.635 209.789 162.534C210.104 162.432 210.441 162.426 210.759 162.517C211.077 162.607 211.361 162.789 211.576 163.041C211.718 163.208 211.826 163.402 211.894 163.612C211.962 163.821 211.987 164.041 211.969 164.261C211.952 164.48 211.891 164.693 211.79 164.889C211.69 165.085 211.551 165.259 211.384 165.401Z" fill="#A09DB1"/>
<path d="M218.256 173.488C218.002 173.696 217.693 173.825 217.367 173.859C217.041 173.892 216.712 173.829 216.421 173.677C216.13 173.525 215.89 173.291 215.732 173.004C215.573 172.717 215.503 172.389 215.529 172.062C215.555 171.735 215.677 171.423 215.879 171.165C216.081 170.906 216.355 170.713 216.666 170.609C216.977 170.506 217.312 170.496 217.629 170.581C217.946 170.666 218.231 170.842 218.448 171.088C218.597 171.256 218.71 171.453 218.781 171.666C218.853 171.879 218.88 172.105 218.862 172.329C218.844 172.553 218.781 172.771 218.677 172.97C218.573 173.169 218.43 173.345 218.256 173.488Z" fill="#A09DB1"/>
<path d="M225.128 181.592C224.874 181.8 224.564 181.927 224.238 181.96C223.912 181.992 223.583 181.928 223.293 181.775C223.002 181.622 222.764 181.387 222.606 181.099C222.448 180.812 222.379 180.484 222.406 180.157C222.433 179.83 222.556 179.519 222.759 179.261C222.962 179.003 223.237 178.811 223.548 178.708C223.86 178.605 224.195 178.597 224.511 178.683C224.828 178.769 225.112 178.946 225.328 179.192C225.478 179.361 225.592 179.558 225.663 179.771C225.734 179.985 225.761 180.211 225.742 180.435C225.723 180.66 225.659 180.878 225.554 181.077C225.448 181.276 225.304 181.451 225.128 181.592Z" fill="#A09DB1"/>
<path opacity="0.2" d="M364 31.0564C341.744 32.6564 303.2 46.1284 262.648 77.9364C232.68 101.432 210.816 142.552 200.624 164.512L188.36 150.048C188.36 150.048 205.16 105.096 244.968 74.9044C264.864 59.8404 288.168 48.5684 309.104 41.1124C334.952 31.8404 357.008 28.4804 364 31.0564Z" fill="white"/>
<path d="M206.144 194.136L180.008 163.304L190.176 152.192L218.768 185.92L206.144 194.136Z" fill="#60B257"/>
<path opacity="0.1" d="M218.768 185.92L212.616 189.92L186.288 156.44L190.176 152.2L218.768 185.92Z" fill="#403E48"/>
<path d="M347.336 90.8083L335.392 90.0083L329.776 101.384L330.288 88.7123L319.424 83.6883L331.488 83.8083L336.976 73.1123L336.688 85.1283L347.336 90.8083Z" fill="#FCFCFC"/>
<path d="M344.4 46.6888L337.72 46.2488L334.584 52.6088L334.872 45.5208L328.8 42.7128L335.544 42.7768L338.608 36.8008L338.448 43.5208L344.4 46.6888Z" fill="#FCFCFC"/>
<path d="M290.384 182.304L283.712 181.856L280.576 188.216L280.856 181.136L274.784 178.328L281.528 178.392L284.6 172.416L284.432 179.136L290.384 182.304Z" fill="#FCFCFC"/>
<path d="M171.568 123.304L164.888 122.856L161.752 129.216L162.04 122.136L155.968 119.328L162.712 119.392L165.776 113.416L165.616 120.128L171.568 123.304Z" fill="#FCFCFC"/>
<path opacity="0.6" d="M200.4 187.257C188.28 195.425 177.584 205.849 169.776 218.305C161.765 230.824 157.238 245.253 156.664 260.105C156.472 267.633 157.391 275.149 159.392 282.409C161.451 289.804 164.565 296.863 168.64 303.369C172.812 309.991 177.816 316.051 183.528 321.401C189.342 326.84 195.701 331.665 202.504 335.801C195.166 332.448 188.196 328.343 181.704 323.553C175.134 318.684 169.219 312.989 164.104 306.609C153.501 293.406 147.038 277.363 145.528 260.497C144.024 243.449 147.624 225.953 155.08 210.345C162.536 194.737 173.68 180.873 186.848 169.545L200.4 187.257Z" fill="#60B257"/>
<path d="M179.672 205.841L174.904 206.721L173.84 211.745L172.776 206.721L168.008 205.833L172.76 204.673L173.84 199.929L174.928 204.673L179.672 205.841Z" fill="white"/>
<path d="M176.152 190.168L173.488 190.664L172.888 193.472L172.296 190.664L169.632 190.168L172.288 189.52L172.888 186.872L173.496 189.52L176.152 190.168Z" fill="white"/>
<path d="M190.48 186.408C190.31 186.454 190.161 186.555 190.054 186.694C189.947 186.834 189.89 187.005 189.89 187.18C189.89 187.356 189.947 187.527 190.054 187.666C190.161 187.806 190.31 187.906 190.48 187.952C190.649 187.906 190.799 187.806 190.906 187.666C191.012 187.527 191.07 187.356 191.07 187.18C191.07 187.005 191.012 186.834 190.906 186.694C190.799 186.555 190.649 186.454 190.48 186.408Z" fill="white"/>
<path d="M148.896 255.297C148.726 255.343 148.577 255.443 148.47 255.583C148.363 255.723 148.306 255.893 148.306 256.069C148.306 256.244 148.363 256.415 148.47 256.555C148.577 256.694 148.726 256.795 148.896 256.841C149.065 256.795 149.215 256.694 149.322 256.555C149.428 256.415 149.486 256.244 149.486 256.069C149.486 255.893 149.428 255.723 149.322 255.583C149.215 255.443 149.065 255.343 148.896 255.297Z" fill="white"/>
<path d="M148.616 228.305C148.472 228.305 148.334 228.362 148.232 228.464C148.13 228.566 148.072 228.704 148.072 228.849C148.072 228.993 148.13 229.131 148.232 229.233C148.334 229.335 148.472 229.393 148.616 229.393C148.761 229.393 148.899 229.335 149.001 229.233C149.103 229.131 149.16 228.993 149.16 228.849C149.16 228.704 149.103 228.566 149.001 228.464C148.899 228.362 148.761 228.305 148.616 228.305Z" fill="white"/>
<path d="M155.608 223.28C155.215 223.28 154.839 223.436 154.561 223.714C154.284 223.991 154.128 224.368 154.128 224.76C154.128 225.153 154.284 225.529 154.561 225.807C154.839 226.084 155.215 226.24 155.608 226.24C156 226.24 156.377 226.084 156.654 225.807C156.932 225.529 157.088 225.153 157.088 224.76C157.088 224.368 156.932 223.991 156.654 223.714C156.377 223.436 156 223.28 155.608 223.28Z" fill="white"/>
</g>
<defs>
<filter id="filter0_f_3880_39070" x="126" y="-9" width="277" height="275" filterUnits="userSpaceOnUse" color-interpolation-filters="sRGB">
<feFlood flood-opacity="0" result="BackgroundImageFix"/>
<feBlend mode="normal" in="SourceGraphic" in2="BackgroundImageFix" result="shape"/>
<feGaussianBlur stdDeviation="10" result="effect1_foregroundBlur_3880_39070"/>
</filter>
<radialGradient id="paint0_radial_3880_39070" cx="0" cy="0" r="1" gradientUnits="userSpaceOnUse" gradientTransform="translate(264.5 128.5) rotate(90) scale(117.5 118.5)">
<stop stop-color="#60B257"/>
<stop offset="1" stop-color="#F9F9FA"/>
</radialGradient>
<clipPath id="clip0_3880_39070">
<rect width="512" height="264" rx="8" fill="white"/>
</clipPath>
</defs>
</svg>
