<svg width="512" height="264" viewBox="0 0 512 264" fill="none" xmlns="http://www.w3.org/2000/svg">
<g clip-path="url(#clip0_3880_42761)">
<rect width="512" height="264" rx="8" fill="#F9F9FA"/>
<g filter="url(#filter0_f_3880_42761)">
<ellipse cx="266.5" cy="102.5" rx="118.5" ry="117.5" fill="url(#paint0_radial_3880_42761)" fill-opacity="0.35"/>
</g>
<path d="M341.151 41.8912L163.775 62.6025L173.751 148.034L351.126 127.323L341.151 41.8912Z" fill="#60B257"/>
<path opacity="0.1" d="M341.151 41.8912L163.775 62.6025L173.751 148.034L351.126 127.323L341.151 41.8912Z" fill="#403E48"/>
<path opacity="0.1" d="M341.155 41.8242L335.789 42.4565L169.164 61.9669L163.781 62.5909L164.414 67.9657L173.141 142.646L173.774 148.029L179.14 147.397L345.773 127.92L351.139 127.296L341.172 41.8242H341.155ZM345.149 122.528L178.516 142.014L169.797 67.3333L336.413 47.8729L345.149 122.528Z" fill="#403E48"/>
<path opacity="0.1" d="M260.963 124.979C274.682 123.377 284.289 109.107 282.421 93.1055C280.552 77.1041 267.916 65.4311 254.197 67.033C240.477 68.635 230.87 82.9053 232.739 98.9067C234.607 114.908 247.243 126.581 260.963 124.979Z" fill="#403E48"/>
<path opacity="0.1" d="M216.023 98.9407C216.177 100.256 215.937 101.588 215.334 102.768C214.731 103.947 213.792 104.921 212.635 105.567C211.478 106.213 210.156 106.501 208.836 106.395C207.515 106.29 206.256 105.795 205.217 104.973C204.178 104.152 203.405 103.04 202.998 101.78C202.59 100.519 202.566 99.1664 202.927 97.8919C203.288 96.6175 204.019 95.4788 205.028 94.62C206.037 93.7611 207.277 93.2206 208.593 93.0668C210.357 92.8606 212.131 93.3636 213.524 94.4651C214.918 95.5667 215.816 97.1766 216.023 98.9407Z" fill="#403E48"/>
<path opacity="0.1" d="M312.028 87.7253C312.18 89.0406 311.939 90.3714 311.335 91.5496C310.731 92.7278 309.791 93.7006 308.635 94.3451C307.478 94.9896 306.156 95.2768 304.837 95.1705C303.517 95.0642 302.258 94.5692 301.22 93.7479C300.181 92.9267 299.41 91.816 299.002 90.5563C298.594 89.2966 298.569 87.9444 298.93 86.6704C299.291 85.3965 300.021 84.258 301.028 83.3988C302.035 82.5396 303.275 81.9982 304.59 81.8431C306.356 81.6369 308.132 82.1408 309.527 83.2439C310.922 84.347 311.821 85.959 312.028 87.7253Z" fill="#403E48"/>
<path opacity="0.1" d="M190.406 140.633L178.516 142.014L177.127 130.141C178.688 129.958 180.269 130.084 181.782 130.512C183.294 130.94 184.707 131.662 185.94 132.636C187.173 133.61 188.202 134.818 188.968 136.19C189.735 137.562 190.223 139.072 190.406 140.633Z" fill="#403E48"/>
<path opacity="0.1" d="M343.752 110.664L345.141 122.528L333.268 123.918C332.905 120.771 333.805 117.608 335.77 115.124C337.735 112.639 340.606 111.035 343.752 110.664Z" fill="#403E48"/>
<path opacity="0.1" d="M324.532 49.2537L336.413 47.8643L337.803 59.7369C336.243 59.9202 334.662 59.7945 333.151 59.3668C331.64 58.9392 330.228 58.218 328.996 57.2445C327.763 56.271 326.735 55.0642 325.969 53.6931C325.203 52.3221 324.715 50.8135 324.532 49.2537Z" fill="#403E48"/>
<path opacity="0.1" d="M171.179 79.2142L169.789 67.3249L181.662 65.9521C182.027 69.1004 181.129 72.2652 179.163 74.7516C177.198 77.2381 174.326 78.8431 171.179 79.2142Z" fill="#403E48"/>
<path d="M255.319 74.0807C255.636 74.0454 255.955 74.1365 256.205 74.3342C256.456 74.532 256.619 74.8205 256.658 75.1373L256.891 77.1341C260.168 77.0024 263.408 77.8574 266.193 79.5885C266.411 79.6826 266.602 79.8304 266.747 80.018C266.893 80.2057 266.988 80.4272 267.025 80.6618C267.057 80.9993 266.955 81.3359 266.74 81.5979C266.524 81.8599 266.214 82.0259 265.877 82.0596C265.712 82.0851 265.544 82.0769 265.382 82.0355C265.22 81.994 265.069 81.9201 264.937 81.8183C262.6 80.2718 259.86 79.4472 257.058 79.4471L258.722 93.433C266.501 94.1402 270.028 96.6196 270.603 101.512C271.218 106.812 267.216 111.08 260.993 112.003L261.442 115.905C261.469 116.218 261.373 116.529 261.174 116.772C260.975 117.016 260.69 117.172 260.378 117.207C260.066 117.243 259.752 117.156 259.503 116.964C259.255 116.772 259.091 116.491 259.046 116.18L258.588 112.236C254.368 112.413 250.211 111.168 246.782 108.7C246.599 108.603 246.443 108.463 246.325 108.292C246.208 108.121 246.134 107.924 246.108 107.718C246.084 107.389 246.184 107.062 246.389 106.803C246.594 106.544 246.889 106.372 247.215 106.321C247.549 106.278 247.886 106.368 248.155 106.57C251.087 108.847 254.711 110.049 258.422 109.973L256.758 95.7376C249.07 94.9639 245.659 92.576 245.068 87.584C244.478 82.592 248.396 78.1741 254.503 77.3172L254.287 75.4119C254.254 75.0997 254.342 74.7866 254.535 74.5385C254.727 74.2903 255.008 74.1262 255.319 74.0807ZM256.434 93.2167L254.844 79.5719C250.011 80.2458 247.148 83.5155 247.573 87.1098C247.972 90.4794 249.811 92.393 256.434 93.1917V93.2167ZM258.996 96.0039L260.602 109.79C265.594 109.108 268.498 105.83 268.048 102.036C267.649 98.5664 265.652 96.6695 258.996 95.9789V96.0039Z" fill="#60B257"/>
<path d="M398.664 183.214H332.753V216.66H398.664V183.214Z" fill="#60B257"/>
<path d="M391.11 201.644C392.055 197.623 389.562 193.597 385.541 192.651C381.519 191.706 377.493 194.2 376.548 198.221C375.602 202.242 378.096 206.268 382.117 207.214C386.138 208.159 390.165 205.666 391.11 201.644Z" fill="#EBEBEB"/>
<path d="M383.838 204.031C386.098 204.031 387.931 202.198 387.931 199.937C387.931 197.676 386.098 195.844 383.838 195.844C381.577 195.844 379.744 197.676 379.744 199.937C379.744 202.198 381.577 204.031 383.838 204.031Z" fill="#DBDBDB"/>
<path d="M358.819 124.134H159.322V273.087H358.819V124.134Z" fill="#60B257"/>
<path opacity="0.1" d="M358.819 124.134H159.322V273.087H358.819V124.134Z" fill="#403E48"/>
<path d="M322.952 48.9383L342.853 138.877C343.384 141.289 342.936 143.813 341.609 145.895C340.282 147.977 338.183 149.448 335.773 149.985L193.118 181.601C191.923 181.865 190.687 181.892 189.481 181.678C188.276 181.465 187.124 181.015 186.092 180.356C185.061 179.697 184.169 178.841 183.469 177.836C182.768 176.832 182.273 175.7 182.011 174.504L162.101 84.5313C161.606 82.285 162.022 79.9339 163.26 77.9947C164.497 76.0555 166.453 74.6868 168.699 74.1895L312.635 42.3405C314.877 41.8547 317.221 42.2759 319.154 43.512C321.087 44.7482 322.452 46.6989 322.952 48.9383Z" fill="#455A64"/>
<path d="M203.947 82.582L180.576 87.7546C178.692 88.1717 177.502 90.0373 177.919 91.9216L181.028 105.967C181.445 107.851 183.311 109.041 185.195 108.624L208.566 103.451C210.45 103.034 211.64 101.168 211.223 99.284L208.114 85.2386C207.697 83.3543 205.831 82.1649 203.947 82.582Z" fill="#60B257"/>
<path d="M308.425 71.4767L294.771 74.4968C294.019 74.6682 293.241 74.6884 292.481 74.5564C291.721 74.4245 290.995 74.1428 290.345 73.728C289.695 73.3131 289.133 72.7732 288.694 72.1397C288.254 71.5061 287.944 70.7915 287.783 70.0373C287.611 69.2859 287.591 68.5079 287.722 67.7485C287.854 66.989 288.134 66.2632 288.548 65.6131C288.962 64.9631 289.501 64.4016 290.134 63.9614C290.767 63.5212 291.48 63.2109 292.234 63.0485L305.895 60.0283C306.647 59.857 307.426 59.8367 308.186 59.9687C308.946 60.1007 309.672 60.3823 310.322 60.7972C310.972 61.2121 311.533 61.7519 311.973 62.3855C312.413 63.0191 312.723 63.7337 312.884 64.4879C313.219 66.0059 312.937 67.5947 312.101 68.9051C311.264 70.2155 309.942 71.1404 308.425 71.4767Z" fill="white"/>
<path d="M184.882 128.652L183.808 129.65C183.77 129.69 183.721 129.719 183.667 129.734C183.613 129.745 183.558 129.742 183.505 129.726C183.453 129.71 183.405 129.681 183.367 129.642C183.337 129.614 183.312 129.58 183.296 129.542C183.279 129.504 183.271 129.463 183.271 129.422C183.271 129.38 183.279 129.339 183.296 129.301C183.312 129.263 183.337 129.229 183.367 129.201L184.832 127.803C184.891 127.75 184.968 127.721 185.048 127.721C185.128 127.721 185.205 127.75 185.264 127.803C185.318 127.863 185.35 127.939 185.356 128.02L187.136 136.065C187.154 136.145 187.139 136.228 187.095 136.296C187.052 136.365 186.983 136.413 186.903 136.431C186.823 136.447 186.74 136.431 186.67 136.388C186.601 136.345 186.55 136.277 186.529 136.198L184.882 128.652Z" fill="#F8F8F8"/>
<path d="M189.224 135.374L192.493 130.781C192.683 130.517 192.815 130.217 192.881 129.898C192.947 129.58 192.945 129.252 192.876 128.934C192.739 128.342 192.374 127.827 191.86 127.501C191.346 127.176 190.725 127.066 190.131 127.195C189.565 127.316 189.064 127.642 188.725 128.111L188.392 128.593C188.345 128.662 188.274 128.709 188.193 128.724C188.111 128.74 188.027 128.723 187.959 128.676C187.891 128.63 187.843 128.558 187.828 128.477C187.812 128.396 187.83 128.312 187.876 128.244L188.217 127.744C188.646 127.154 189.276 126.74 189.989 126.58C190.746 126.418 191.535 126.56 192.187 126.976C192.84 127.392 193.302 128.047 193.475 128.801C193.565 129.202 193.57 129.617 193.489 130.019C193.409 130.422 193.246 130.803 193.009 131.139L190.205 135.074L194.365 134.159C194.447 134.145 194.531 134.162 194.6 134.209C194.668 134.256 194.715 134.328 194.732 134.409C194.749 134.488 194.734 134.571 194.691 134.64C194.647 134.708 194.578 134.757 194.499 134.775L189.64 135.84H189.59C189.548 135.852 189.503 135.855 189.46 135.848C189.417 135.84 189.376 135.824 189.34 135.798C189.272 135.754 189.223 135.686 189.202 135.608C189.18 135.53 189.188 135.447 189.224 135.374Z" fill="#F8F8F8"/>
<path d="M200.24 124.899L198.492 127.728C199.193 127.709 199.877 127.937 200.426 128.372C200.975 128.807 201.354 129.421 201.496 130.107C201.585 130.498 201.596 130.902 201.525 131.297C201.455 131.691 201.307 132.068 201.088 132.404C200.652 133.085 199.964 133.567 199.175 133.743C198.786 133.831 198.384 133.839 197.992 133.767C197.601 133.696 197.227 133.546 196.895 133.327C196.859 133.306 196.828 133.278 196.804 133.244C196.78 133.211 196.762 133.172 196.753 133.132C196.744 133.092 196.742 133.05 196.75 133.009C196.757 132.968 196.772 132.929 196.795 132.894C196.817 132.859 196.846 132.828 196.88 132.803C196.915 132.778 196.954 132.761 196.995 132.752C197.036 132.742 197.078 132.741 197.12 132.749C197.161 132.756 197.201 132.772 197.236 132.795C197.776 133.134 198.427 133.247 199.05 133.11C199.673 132.973 200.216 132.597 200.564 132.062C200.737 131.796 200.855 131.497 200.911 131.184C200.966 130.871 200.959 130.55 200.889 130.24C200.748 129.622 200.367 129.084 199.831 128.744C199.295 128.404 198.646 128.29 198.026 128.427C197.978 128.435 197.928 128.433 197.881 128.42C197.833 128.407 197.789 128.384 197.752 128.352C197.715 128.33 197.683 128.3 197.657 128.265C197.632 128.23 197.614 128.191 197.605 128.149C197.596 128.107 197.595 128.063 197.603 128.021C197.611 127.978 197.628 127.938 197.652 127.902L199.316 125.182L195.988 125.922C195.947 125.932 195.905 125.934 195.863 125.927C195.821 125.92 195.782 125.905 195.746 125.882C195.71 125.86 195.679 125.83 195.655 125.796C195.631 125.761 195.614 125.722 195.605 125.681C195.596 125.64 195.594 125.598 195.601 125.556C195.608 125.514 195.623 125.475 195.645 125.439C195.668 125.403 195.697 125.372 195.732 125.348C195.766 125.324 195.805 125.307 195.847 125.298L199.94 124.391C200.024 124.374 200.111 124.391 200.183 124.437C200.254 124.484 200.305 124.557 200.323 124.641C200.336 124.687 200.336 124.736 200.323 124.782C200.301 124.825 200.273 124.864 200.24 124.899Z" fill="#F8F8F8"/>
<path d="M209.009 129.675L204.266 130.724C204.234 130.738 204.198 130.746 204.162 130.746C204.127 130.746 204.091 130.738 204.058 130.724C204.021 130.706 203.988 130.681 203.961 130.65C203.935 130.619 203.915 130.583 203.903 130.544C203.891 130.504 203.888 130.463 203.893 130.422C203.898 130.382 203.912 130.343 203.934 130.308L207.603 122.878C207.62 122.841 207.645 122.808 207.676 122.781C207.707 122.754 207.743 122.734 207.782 122.721C207.821 122.709 207.862 122.704 207.903 122.708C207.943 122.713 207.983 122.725 208.019 122.745C208.073 122.778 208.118 122.824 208.152 122.878C208.152 122.878 208.152 122.878 208.152 122.919V122.961L209.483 128.968L210.065 128.835C210.106 128.825 210.148 128.823 210.189 128.83C210.23 128.836 210.27 128.85 210.305 128.872C210.341 128.894 210.372 128.922 210.396 128.956C210.421 128.989 210.438 129.027 210.448 129.068C210.457 129.108 210.457 129.15 210.449 129.191C210.441 129.231 210.424 129.27 210.401 129.304C210.378 129.338 210.348 129.367 210.313 129.39C210.278 129.412 210.239 129.427 210.199 129.434L209.616 129.567L209.949 131.073C209.959 131.152 209.939 131.231 209.893 131.295C209.848 131.36 209.779 131.405 209.702 131.422C209.625 131.438 209.544 131.426 209.476 131.386C209.408 131.346 209.357 131.282 209.333 131.206L209.009 129.675ZM208.876 129.076L207.744 123.951L204.732 130.016L208.876 129.076Z" fill="#F8F8F8"/>
<path d="M220.191 128.186C220.155 128.165 220.124 128.137 220.1 128.103C220.076 128.069 220.059 128.031 220.05 127.99C220.042 127.949 220.042 127.907 220.05 127.867C220.059 127.826 220.076 127.787 220.1 127.754C220.122 127.717 220.151 127.684 220.186 127.659C220.221 127.634 220.261 127.616 220.303 127.607C220.345 127.597 220.389 127.597 220.431 127.605C220.473 127.613 220.513 127.63 220.549 127.654C221.085 127.987 221.73 128.097 222.346 127.962C222.966 127.82 223.504 127.441 223.845 126.905C224.186 126.369 224.302 125.72 224.168 125.1C224.105 124.791 223.981 124.498 223.803 124.238C223.625 123.978 223.396 123.757 223.131 123.587C222.866 123.417 222.569 123.302 222.258 123.249C221.948 123.196 221.63 123.205 221.323 123.277C221.013 123.344 220.719 123.471 220.459 123.653C220.199 123.834 219.978 124.066 219.809 124.334C219.787 124.37 219.759 124.401 219.726 124.425C219.692 124.449 219.654 124.467 219.614 124.476C219.573 124.486 219.531 124.487 219.49 124.479C219.45 124.472 219.411 124.457 219.376 124.434C219.336 124.416 219.301 124.387 219.276 124.351C219.27 124.318 219.27 124.284 219.276 124.251C219.28 124.229 219.28 124.206 219.276 124.184L218.918 120.565C218.911 120.521 218.913 120.475 218.926 120.431C218.939 120.388 218.962 120.348 218.993 120.316C219.014 120.283 219.041 120.256 219.072 120.234C219.104 120.213 219.139 120.198 219.176 120.191L223.261 119.292C223.302 119.283 223.345 119.283 223.386 119.29C223.427 119.298 223.466 119.314 223.502 119.336C223.537 119.359 223.567 119.389 223.591 119.423C223.615 119.458 223.631 119.497 223.64 119.538C223.649 119.579 223.649 119.621 223.642 119.662C223.634 119.703 223.618 119.743 223.596 119.778C223.573 119.813 223.543 119.843 223.509 119.867C223.474 119.891 223.436 119.907 223.395 119.916L219.584 120.748L219.842 123.427C220.384 122.926 221.091 122.64 221.829 122.622C222.567 122.604 223.287 122.856 223.853 123.33C224.419 123.805 224.792 124.469 224.904 125.199C225.016 125.929 224.858 126.674 224.46 127.296C224.016 127.968 223.331 128.445 222.546 128.627C222.144 128.716 221.728 128.723 221.324 128.647C220.919 128.572 220.534 128.415 220.191 128.186Z" fill="#F8F8F8"/>
<path d="M227.213 120.356C227.383 119.73 227.716 119.161 228.18 118.707C228.644 118.254 229.221 117.933 229.85 117.777C229.931 117.757 230.016 117.769 230.088 117.811C230.159 117.853 230.212 117.922 230.233 118.002C230.249 118.084 230.234 118.17 230.191 118.242C230.148 118.314 230.08 118.368 230 118.393C229.475 118.522 228.993 118.791 228.607 119.17C228.22 119.549 227.943 120.025 227.804 120.548C227.62 121.16 227.539 121.798 227.562 122.436C227.896 121.839 228.428 121.376 229.066 121.128C229.705 120.879 230.409 120.861 231.059 121.077C231.709 121.292 232.264 121.727 232.628 122.307C232.992 122.887 233.143 123.576 233.054 124.255C232.965 124.934 232.643 125.56 232.142 126.027C231.641 126.494 230.993 126.772 230.309 126.813C229.626 126.854 228.949 126.655 228.396 126.251C227.843 125.847 227.448 125.263 227.279 124.6C227.216 124.412 227.166 124.22 227.13 124.026C226.845 122.815 226.874 121.552 227.213 120.356ZM227.879 124.408C227.893 124.464 227.915 124.517 227.945 124.566C227.953 124.596 227.953 124.628 227.945 124.658C228.148 125.237 228.567 125.714 229.115 125.989C229.664 126.264 230.297 126.315 230.882 126.132C231.467 125.948 231.958 125.544 232.251 125.006C232.544 124.467 232.616 123.835 232.452 123.245C232.288 122.654 231.9 122.15 231.372 121.839C230.843 121.529 230.214 121.436 229.618 121.581C229.022 121.725 228.506 122.096 228.178 122.614C227.85 123.133 227.737 123.758 227.862 124.358L227.879 124.408Z" fill="#F8F8F8"/>
<path d="M236.782 124.974L238.312 116.579L234.094 117.536C234.018 117.547 233.94 117.528 233.876 117.484C233.813 117.44 233.768 117.374 233.751 117.298C233.735 117.223 233.747 117.144 233.786 117.077C233.825 117.01 233.887 116.96 233.961 116.937L238.595 115.914C238.655 115.897 238.718 115.897 238.778 115.914C238.864 115.936 238.938 115.99 238.986 116.064C238.986 116.105 239.028 116.122 239.036 116.163C239.053 116.221 239.053 116.281 239.036 116.338L237.43 125.141C237.419 125.2 237.391 125.255 237.35 125.299C237.308 125.343 237.256 125.375 237.198 125.39C237.154 125.403 237.108 125.403 237.064 125.39C237.018 125.384 236.973 125.367 236.933 125.342C236.892 125.317 236.858 125.284 236.831 125.245C236.805 125.205 236.787 125.161 236.778 125.115C236.769 125.068 236.771 125.02 236.782 124.974Z" fill="#F8F8F8"/>
<path d="M243.595 114.724C243.98 114.638 244.382 114.675 244.744 114.831C245.106 114.988 245.409 115.255 245.61 115.594C245.81 115.933 245.898 116.327 245.861 116.72C245.823 117.112 245.662 117.483 245.401 117.778C246.062 117.894 246.663 118.237 247.1 118.746C247.538 119.256 247.785 119.902 247.8 120.573C247.815 121.245 247.596 121.901 247.182 122.429C246.767 122.958 246.182 123.326 245.527 123.472C244.871 123.618 244.185 123.532 243.586 123.228C242.986 122.925 242.511 122.423 242.24 121.809C241.969 121.194 241.919 120.505 242.1 119.858C242.28 119.211 242.679 118.646 243.229 118.26C242.966 118.136 242.734 117.953 242.552 117.725C242.37 117.497 242.243 117.231 242.181 116.946C242.127 116.707 242.121 116.46 242.163 116.219C242.205 115.978 242.294 115.747 242.426 115.541C242.557 115.334 242.728 115.156 242.929 115.016C243.13 114.876 243.356 114.777 243.595 114.724ZM245.401 122.886C245.844 122.788 246.249 122.561 246.563 122.233C246.877 121.906 247.088 121.492 247.167 121.045C247.246 120.598 247.191 120.137 247.008 119.721C246.826 119.305 246.524 118.953 246.141 118.708C245.758 118.464 245.312 118.339 244.858 118.348C244.404 118.358 243.963 118.502 243.59 118.762C243.218 119.022 242.931 119.387 242.766 119.81C242.601 120.233 242.566 120.696 242.663 121.139C242.726 121.435 242.848 121.715 243.02 121.963C243.192 122.211 243.412 122.423 243.667 122.585C243.921 122.748 244.206 122.858 244.503 122.91C244.801 122.962 245.106 122.954 245.401 122.886ZM244.269 117.778C244.594 117.702 244.876 117.502 245.053 117.22C245.231 116.938 245.29 116.597 245.218 116.272C245.146 115.949 244.949 115.667 244.67 115.489C244.39 115.311 244.052 115.252 243.728 115.323C243.405 115.395 243.124 115.592 242.946 115.872C242.768 116.151 242.708 116.489 242.78 116.813C242.852 117.137 243.048 117.42 243.327 117.6C243.606 117.781 243.944 117.845 244.269 117.778Z" fill="#F8F8F8"/>
<path d="M259.162 111.28C259.872 111.119 260.617 111.227 261.252 111.581C261.888 111.936 262.37 112.513 262.607 113.202C262.607 113.202 262.607 113.202 262.607 113.252C262.673 113.493 262.74 113.734 262.798 114C263.084 115.212 263.061 116.477 262.732 117.678C262.557 118.302 262.22 118.87 261.755 119.323C261.291 119.776 260.715 120.098 260.086 120.257C260.047 120.269 260.006 120.274 259.966 120.269C259.925 120.265 259.886 120.252 259.851 120.232C259.815 120.212 259.785 120.184 259.761 120.151C259.737 120.118 259.72 120.08 259.711 120.041C259.7 120 259.697 119.958 259.702 119.916C259.707 119.875 259.721 119.834 259.742 119.798C259.763 119.762 259.791 119.73 259.824 119.704C259.857 119.679 259.896 119.66 259.936 119.65C260.462 119.519 260.944 119.251 261.331 118.872C261.719 118.493 261.998 118.018 262.141 117.495C262.324 116.883 262.403 116.244 262.374 115.606C262.134 116.039 261.79 116.404 261.373 116.67C260.955 116.935 260.478 117.092 259.985 117.125C259.491 117.159 258.997 117.069 258.548 116.862C258.098 116.656 257.708 116.341 257.411 115.945C257.115 115.549 256.923 115.085 256.852 114.595C256.781 114.106 256.834 113.606 257.005 113.143C257.177 112.679 257.462 112.265 257.834 111.94C258.207 111.614 258.655 111.387 259.137 111.28H259.162ZM262.091 113.651C261.992 113.2 261.761 112.788 261.428 112.468C261.095 112.147 260.674 111.933 260.219 111.852C259.765 111.77 259.296 111.826 258.872 112.01C258.449 112.195 258.09 112.501 257.84 112.89C257.591 113.279 257.462 113.733 257.47 114.195C257.478 114.657 257.624 115.106 257.887 115.486C258.15 115.866 258.52 116.159 258.95 116.328C259.38 116.498 259.851 116.536 260.302 116.438C260.603 116.373 260.888 116.249 261.141 116.074C261.393 115.898 261.609 115.675 261.775 115.416C261.941 115.157 262.055 114.868 262.109 114.565C262.163 114.262 262.157 113.951 262.091 113.651Z" fill="#F8F8F8"/>
<path d="M265.252 114.525C264.99 113.45 265.045 112.323 265.41 111.28C265.534 110.836 265.776 110.433 266.111 110.116C266.446 109.799 266.86 109.578 267.311 109.478C267.761 109.379 268.23 109.403 268.667 109.549C269.105 109.694 269.494 109.956 269.795 110.306C270.566 111.103 271.096 112.101 271.326 113.185C271.576 114.262 271.513 115.388 271.143 116.43C271.032 116.883 270.797 117.297 270.463 117.623C270.129 117.949 269.711 118.175 269.255 118.276C268.799 118.377 268.325 118.347 267.885 118.191C267.445 118.036 267.057 117.76 266.766 117.395C265.99 116.608 265.463 115.61 265.252 114.525ZM265.868 114.391C266.061 115.353 266.526 116.24 267.207 116.946C267.43 117.221 267.726 117.428 268.06 117.544C268.394 117.661 268.755 117.681 269.1 117.605C269.446 117.528 269.763 117.356 270.017 117.109C270.27 116.862 270.45 116.549 270.535 116.205C270.846 115.275 270.898 114.278 270.686 113.321C270.473 112.364 270.004 111.483 269.329 110.772C269.106 110.497 268.81 110.29 268.476 110.174C268.142 110.057 267.781 110.036 267.436 110.113C267.09 110.19 266.773 110.362 266.519 110.609C266.266 110.856 266.086 111.169 266.001 111.513C265.679 112.439 265.633 113.439 265.868 114.391Z" fill="#F8F8F8"/>
<path d="M274.596 108.8L273.522 109.798C273.483 109.838 273.435 109.867 273.381 109.881C273.327 109.893 273.272 109.89 273.219 109.874C273.167 109.858 273.119 109.829 273.081 109.79C273.052 109.761 273.028 109.727 273.012 109.689C272.997 109.651 272.988 109.61 272.988 109.569C272.988 109.528 272.997 109.488 273.012 109.45C273.028 109.412 273.052 109.378 273.081 109.349L274.546 107.951C274.603 107.894 274.681 107.862 274.762 107.862C274.843 107.862 274.921 107.894 274.978 107.951C275.032 108.011 275.064 108.087 275.07 108.167L276.85 116.213C276.868 116.292 276.853 116.375 276.809 116.444C276.766 116.513 276.697 116.561 276.617 116.579C276.538 116.594 276.456 116.579 276.388 116.535C276.32 116.492 276.271 116.424 276.251 116.346L274.596 108.8Z" fill="#F8F8F8"/>
<path d="M278.972 115.522L282.241 110.921C282.431 110.659 282.563 110.36 282.629 110.043C282.695 109.726 282.694 109.399 282.624 109.083C282.5 108.525 282.17 108.035 281.701 107.71C281.44 107.523 281.143 107.393 280.829 107.33C280.515 107.267 280.191 107.272 279.878 107.344C279.316 107.461 278.817 107.785 278.481 108.251L278.14 108.733C278.119 108.769 278.09 108.801 278.056 108.825C278.022 108.849 277.983 108.866 277.942 108.874C277.901 108.882 277.859 108.881 277.818 108.871C277.778 108.861 277.74 108.842 277.707 108.816C277.673 108.795 277.643 108.766 277.621 108.732C277.598 108.699 277.583 108.661 277.576 108.621C277.569 108.581 277.57 108.54 277.58 108.501C277.589 108.461 277.607 108.424 277.632 108.392L277.965 107.893C278.394 107.302 279.024 106.888 279.737 106.728C280.493 106.566 281.283 106.709 281.935 107.125C282.588 107.54 283.05 108.196 283.223 108.95C283.313 109.35 283.318 109.765 283.237 110.168C283.157 110.57 282.994 110.952 282.757 111.287L279.953 115.223L284.113 114.308C284.195 114.293 284.279 114.311 284.347 114.358C284.416 114.404 284.463 114.476 284.479 114.557C284.497 114.637 284.482 114.72 284.438 114.788C284.395 114.857 284.326 114.905 284.246 114.923L279.371 116.005H279.321C279.282 116.023 279.239 116.033 279.196 116.033C279.153 116.033 279.11 116.023 279.071 116.005C279.031 115.981 278.997 115.95 278.97 115.912C278.943 115.874 278.924 115.831 278.915 115.786C278.905 115.74 278.906 115.693 278.915 115.648C278.925 115.603 278.944 115.56 278.972 115.522Z" fill="#F8F8F8"/>
<path d="M297.459 103.392L295.712 106.221C296.3 106.213 296.877 106.375 297.376 106.687C297.883 107.013 298.282 107.482 298.523 108.034C298.764 108.587 298.836 109.198 298.73 109.792C298.625 110.385 298.345 110.934 297.928 111.369C297.511 111.804 296.974 112.106 296.386 112.236C295.997 112.324 295.595 112.332 295.203 112.261C294.812 112.189 294.438 112.039 294.106 111.82C294.07 111.799 294.039 111.771 294.015 111.737C293.991 111.704 293.973 111.666 293.964 111.625C293.955 111.585 293.953 111.543 293.961 111.502C293.968 111.461 293.983 111.422 294.006 111.388C294.028 111.352 294.057 111.321 294.091 111.296C294.126 111.272 294.164 111.254 294.206 111.245C294.247 111.236 294.289 111.235 294.331 111.242C294.372 111.249 294.412 111.265 294.447 111.288C294.78 111.502 295.161 111.631 295.556 111.663C295.951 111.694 296.348 111.628 296.711 111.469C297.074 111.311 297.392 111.065 297.637 110.754C297.882 110.442 298.047 110.075 298.116 109.685C298.185 109.295 298.157 108.894 298.033 108.517C297.91 108.141 297.695 107.801 297.409 107.527C297.123 107.253 296.773 107.055 296.391 106.949C296.009 106.843 295.607 106.833 295.221 106.92C295.172 106.929 295.122 106.927 295.075 106.914C295.027 106.901 294.983 106.877 294.946 106.845C294.875 106.797 294.825 106.724 294.806 106.64C294.788 106.557 294.802 106.469 294.846 106.396L296.51 103.667L293.182 104.416C293.099 104.433 293.011 104.416 292.94 104.37C292.868 104.323 292.818 104.25 292.8 104.166C292.79 104.125 292.788 104.082 292.795 104.041C292.802 103.999 292.817 103.959 292.84 103.924C292.862 103.888 292.892 103.857 292.926 103.833C292.961 103.809 293 103.792 293.041 103.783L297.134 102.885C297.175 102.875 297.218 102.873 297.26 102.88C297.301 102.887 297.341 102.902 297.377 102.925C297.412 102.947 297.443 102.977 297.467 103.011C297.491 103.046 297.508 103.085 297.517 103.126C297.53 103.172 297.53 103.221 297.517 103.267C297.504 103.312 297.484 103.354 297.459 103.392Z" fill="#F8F8F8"/>
<path d="M306.229 108.168L301.486 109.216H301.445C301.38 109.24 301.309 109.24 301.245 109.216C301.208 109.199 301.175 109.174 301.148 109.143C301.121 109.112 301.101 109.076 301.088 109.037C301.076 108.998 301.072 108.957 301.076 108.916C301.08 108.875 301.092 108.836 301.112 108.8L304.789 101.37C304.808 101.334 304.833 101.302 304.864 101.276C304.896 101.25 304.932 101.23 304.971 101.219C305.01 101.207 305.05 101.203 305.091 101.208C305.131 101.213 305.17 101.225 305.205 101.246C305.259 101.276 305.305 101.319 305.339 101.37C305.337 101.387 305.337 101.404 305.339 101.42L306.67 107.427L307.252 107.294C307.292 107.285 307.333 107.285 307.373 107.292C307.414 107.299 307.452 107.314 307.486 107.336C307.521 107.358 307.55 107.387 307.574 107.42C307.597 107.454 307.614 107.491 307.622 107.531C307.631 107.571 307.632 107.612 307.625 107.653C307.618 107.693 307.602 107.731 307.58 107.766C307.558 107.8 307.53 107.83 307.496 107.853C307.463 107.876 307.425 107.893 307.385 107.902L306.803 108.026L307.127 109.532C307.136 109.572 307.136 109.613 307.129 109.653C307.121 109.694 307.106 109.732 307.083 109.766C307.061 109.8 307.032 109.829 306.998 109.852C306.964 109.875 306.926 109.89 306.886 109.898C306.847 109.908 306.806 109.91 306.766 109.903C306.726 109.897 306.687 109.882 306.653 109.86C306.619 109.839 306.589 109.81 306.566 109.777C306.544 109.743 306.528 109.705 306.52 109.665L306.229 108.168ZM306.096 107.56L304.956 102.435L301.952 108.484L306.096 107.56Z" fill="#F8F8F8"/>
<path d="M309.906 108.335C309.871 108.312 309.841 108.282 309.817 108.248C309.793 108.213 309.777 108.174 309.768 108.133C309.76 108.092 309.759 108.05 309.767 108.009C309.775 107.968 309.791 107.929 309.815 107.894C309.862 107.822 309.936 107.772 310.019 107.754C310.103 107.735 310.191 107.749 310.264 107.794C310.798 108.133 311.444 108.247 312.061 108.11C312.68 107.969 313.219 107.589 313.56 107.053C313.901 106.518 314.017 105.869 313.883 105.248C313.82 104.939 313.696 104.646 313.518 104.386C313.34 104.127 313.111 103.905 312.846 103.735C312.58 103.565 312.284 103.45 311.973 103.397C311.663 103.344 311.345 103.354 311.038 103.426C310.729 103.492 310.436 103.62 310.178 103.802C309.919 103.983 309.699 104.215 309.532 104.483C309.51 104.518 309.481 104.55 309.447 104.574C309.412 104.599 309.373 104.616 309.332 104.625C309.291 104.635 309.249 104.636 309.207 104.628C309.166 104.621 309.126 104.605 309.091 104.582C309.052 104.561 309.019 104.533 308.991 104.499C308.985 104.466 308.985 104.432 308.991 104.399C308.995 104.377 308.995 104.355 308.991 104.333L308.633 100.714C308.625 100.668 308.628 100.621 308.641 100.576C308.654 100.531 308.677 100.49 308.708 100.456C308.753 100.396 308.818 100.355 308.891 100.339L312.976 99.4406C313.017 99.4319 313.06 99.4313 313.101 99.4389C313.142 99.4465 313.181 99.4621 313.216 99.4849C313.252 99.5077 313.282 99.5372 313.306 99.5717C313.329 99.6062 313.346 99.6451 313.355 99.6861C313.364 99.727 313.364 99.7693 313.357 99.8105C313.349 99.8517 313.333 99.891 313.311 99.9262C313.288 99.9613 313.258 99.9916 313.224 100.015C313.189 100.039 313.15 100.056 313.109 100.065L309.299 100.897L309.557 103.567C309.953 103.206 310.438 102.956 310.963 102.843C311.35 102.753 311.752 102.741 312.144 102.81C312.535 102.879 312.909 103.026 313.243 103.243C313.583 103.454 313.876 103.733 314.103 104.062C314.331 104.391 314.488 104.764 314.565 105.156C314.655 105.545 314.667 105.947 314.6 106.34C314.533 106.733 314.388 107.108 314.174 107.444C313.731 108.117 313.046 108.593 312.261 108.776C311.859 108.865 311.443 108.871 311.038 108.796C310.634 108.72 310.249 108.563 309.906 108.335Z" fill="#F8F8F8"/>
<path d="M316.927 100.505C317.099 99.8784 317.434 99.3089 317.899 98.8554C318.364 98.4019 318.942 98.081 319.573 97.9259C319.652 97.9056 319.735 97.9168 319.805 97.9573C319.875 97.9978 319.926 98.0642 319.948 98.1423C319.966 98.2259 319.952 98.3134 319.909 98.3874C319.866 98.4614 319.797 98.5165 319.715 98.5416C319.19 98.6703 318.71 98.9373 318.323 99.3149C317.937 99.6924 317.659 100.167 317.518 100.688C317.335 101.303 317.254 101.944 317.277 102.585C317.476 102.214 317.754 101.89 318.09 101.636C318.426 101.382 318.812 101.204 319.224 101.113C319.791 100.987 320.383 101.032 320.926 101.241C321.468 101.45 321.937 101.814 322.274 102.287C322.611 102.76 322.801 103.323 322.821 103.903C322.841 104.484 322.69 105.058 322.386 105.554C322.082 106.049 321.639 106.444 321.113 106.69C320.586 106.935 319.999 107.02 319.424 106.934C318.849 106.849 318.312 106.596 317.88 106.207C317.448 105.818 317.14 105.311 316.994 104.748C316.931 104.561 316.88 104.369 316.844 104.174C316.564 102.964 316.593 101.702 316.927 100.505ZM317.601 104.557C317.611 104.613 317.63 104.667 317.66 104.715C317.667 104.745 317.667 104.777 317.66 104.807C317.862 105.385 318.282 105.863 318.83 106.138C319.378 106.413 320.012 106.464 320.597 106.28C321.182 106.097 321.673 105.693 321.966 105.154C322.259 104.616 322.331 103.984 322.166 103.393C322.002 102.803 321.615 102.299 321.086 101.988C320.557 101.678 319.929 101.585 319.333 101.73C318.737 101.874 318.22 102.245 317.893 102.763C317.565 103.281 317.452 103.907 317.576 104.507L317.601 104.557Z" fill="#F8F8F8"/>
<path d="M267.443 134.391L191.059 151.297L191.889 155.05L268.274 138.144L267.443 134.391Z" fill="#A6A6A6"/>
<path d="M246.979 147.66L192.901 159.629L193.732 163.382L247.81 151.413L246.979 147.66Z" fill="#A6A6A6"/>
<path d="M281.262 65.4669L243.171 73.8975L244.002 77.6505L282.092 69.2199L281.262 65.4669Z" fill="#A6A6A6"/>
<path d="M346.147 142.472H171.993V193.448H346.147V142.472Z" fill="#60B257"/>
<path opacity="0.3" d="M346.147 142.472H171.993V193.448H346.147V142.472Z" fill="#403E48"/>
<path d="M341.322 141.198L341.563 233.317C341.568 235.788 340.592 238.161 338.85 239.914C337.108 241.667 334.741 242.658 332.27 242.669L186.162 243.043C184.938 243.046 183.726 242.808 182.594 242.342C181.462 241.876 180.433 241.192 179.566 240.328C178.699 239.464 178.011 238.437 177.541 237.307C177.071 236.177 176.828 234.965 176.827 233.741L176.586 141.664C176.583 140.525 176.804 139.396 177.237 138.342C177.67 137.289 178.307 136.331 179.11 135.523C179.914 134.716 180.869 134.075 181.92 133.636C182.972 133.198 184.1 132.972 185.239 132.969L332.619 132.512C333.762 132.508 334.893 132.731 335.95 133.166C337.006 133.601 337.966 134.24 338.774 135.048C339.583 135.855 340.224 136.813 340.661 137.869C341.099 138.924 341.323 140.055 341.322 141.198Z" fill="#DBDBDB"/>
<path d="M317.785 220.397C317.79 222.093 317.291 223.753 316.353 225.167C315.414 226.58 314.078 227.683 312.512 228.337C310.947 228.991 309.223 229.166 307.558 228.84C305.893 228.513 304.362 227.701 303.159 226.505C301.956 225.309 301.134 223.783 300.799 222.12C300.463 220.457 300.628 218.731 301.272 217.162C301.917 215.593 303.013 214.25 304.42 213.303C305.828 212.357 307.485 211.849 309.182 211.844C310.308 211.841 311.424 212.059 312.466 212.487C313.508 212.915 314.456 213.544 315.255 214.339C316.054 215.133 316.688 216.077 317.122 217.116C317.556 218.155 317.781 219.27 317.785 220.397Z" fill="#A6A6A6"/>
<path d="M328.343 220.364C328.348 222.06 327.85 223.72 326.912 225.133C325.973 226.547 324.637 227.65 323.071 228.304C321.506 228.958 319.781 229.133 318.116 228.806C316.452 228.48 314.921 227.668 313.718 226.472C312.514 225.275 311.693 223.749 311.357 222.086C311.021 220.423 311.186 218.698 311.831 217.129C312.476 215.56 313.571 214.217 314.979 213.27C316.387 212.323 318.044 211.816 319.74 211.811C322.015 211.806 324.198 212.704 325.811 214.308C327.424 215.911 328.334 218.089 328.343 220.364Z" fill="#60B257"/>
<path d="M217.879 148.659L193.943 148.721C192.013 148.726 190.452 150.295 190.457 152.225L190.495 166.61C190.5 168.54 192.069 170.1 193.999 170.095L217.935 170.033C219.865 170.028 221.425 168.459 221.42 166.529L221.383 152.144C221.378 150.214 219.809 148.654 217.879 148.659Z" fill="#60B257"/>
<path d="M322.344 160.109L308.35 160.151C307.581 160.157 306.818 160.012 306.106 159.722C305.393 159.432 304.745 159.004 304.199 158.463C303.653 157.921 303.22 157.277 302.924 156.567C302.628 155.857 302.476 155.096 302.476 154.327C302.469 153.558 302.615 152.795 302.905 152.083C303.194 151.37 303.622 150.722 304.164 150.176C304.705 149.63 305.35 149.197 306.059 148.901C306.769 148.605 307.531 148.453 308.3 148.453L322.294 148.411C323.063 148.405 323.826 148.551 324.538 148.84C325.25 149.13 325.898 149.558 326.445 150.099C326.991 150.641 327.424 151.285 327.72 151.995C328.016 152.705 328.168 153.466 328.168 154.235C328.175 155.004 328.029 155.767 327.739 156.479C327.449 157.192 327.021 157.84 326.48 158.386C325.938 158.932 325.294 159.365 324.584 159.661C323.874 159.957 323.113 160.109 322.344 160.109Z" fill="white"/>
<path d="M189.416 189.587L188.151 190.336C188.106 190.365 188.055 190.382 188.001 190.386C187.947 190.388 187.892 190.375 187.844 190.349C187.795 190.322 187.755 190.284 187.727 190.236C187.705 190.201 187.691 190.162 187.685 190.121C187.679 190.08 187.681 190.038 187.692 189.999C187.703 189.959 187.722 189.922 187.748 189.89C187.774 189.857 187.807 189.831 187.843 189.812L189.574 188.755C189.645 188.718 189.728 188.71 189.805 188.731C189.882 188.753 189.948 188.803 189.99 188.872C190.033 188.941 190.048 189.025 190.032 189.105V197.342C190.032 197.382 190.024 197.422 190.008 197.459C189.993 197.497 189.97 197.531 189.941 197.559C189.913 197.588 189.879 197.611 189.842 197.626C189.804 197.641 189.764 197.649 189.724 197.649C189.643 197.647 189.566 197.614 189.508 197.557C189.451 197.5 189.418 197.423 189.416 197.342V189.587Z" fill="#F8F8F8"/>
<path d="M192.252 197.092L196.412 193.298C196.865 192.886 197.135 192.31 197.163 191.699C197.191 191.087 196.975 190.489 196.562 190.037C196.15 189.585 195.574 189.315 194.962 189.287C194.351 189.258 193.753 189.474 193.301 189.887L192.868 190.286C192.84 190.317 192.806 190.341 192.768 190.358C192.73 190.375 192.689 190.383 192.648 190.383C192.606 190.383 192.565 190.375 192.527 190.358C192.489 190.341 192.455 190.317 192.427 190.286C192.397 190.259 192.373 190.226 192.356 190.189C192.339 190.151 192.331 190.111 192.331 190.07C192.331 190.029 192.339 189.989 192.356 189.952C192.373 189.915 192.397 189.881 192.427 189.854L192.86 189.446C193.403 188.956 194.108 188.684 194.84 188.681C195.246 188.678 195.649 188.762 196.02 188.927C196.392 189.092 196.724 189.334 196.995 189.638C197.496 190.168 197.774 190.871 197.769 191.601C197.771 192.01 197.687 192.416 197.524 192.791C197.361 193.166 197.121 193.503 196.82 193.781L193.234 197.026H197.544C197.585 197.027 197.626 197.036 197.664 197.053C197.702 197.07 197.736 197.094 197.765 197.124C197.794 197.154 197.816 197.19 197.831 197.229C197.846 197.267 197.853 197.309 197.852 197.35C197.85 197.431 197.817 197.508 197.759 197.566C197.702 197.623 197.625 197.656 197.544 197.658H192.502C192.459 197.662 192.415 197.655 192.375 197.639C192.334 197.624 192.298 197.599 192.269 197.566C192.236 197.537 192.21 197.501 192.192 197.461C192.173 197.42 192.163 197.377 192.161 197.333C192.16 197.289 192.167 197.245 192.183 197.203C192.198 197.162 192.222 197.124 192.252 197.092Z" fill="#F8F8F8"/>
<path d="M205.224 189.205L202.911 191.584C203.599 191.718 204.218 192.089 204.662 192.631C205.106 193.173 205.346 193.854 205.34 194.555C205.343 194.955 205.265 195.352 205.112 195.722C204.959 196.092 204.734 196.428 204.45 196.71C203.879 197.283 203.104 197.606 202.295 197.608C201.898 197.609 201.504 197.531 201.137 197.378C200.77 197.225 200.437 197.001 200.157 196.718C200.125 196.69 200.1 196.655 200.082 196.616C200.065 196.578 200.056 196.536 200.056 196.493C200.056 196.451 200.065 196.409 200.082 196.37C200.1 196.331 200.125 196.297 200.157 196.269C200.186 196.239 200.221 196.215 200.26 196.199C200.299 196.183 200.34 196.175 200.382 196.175C200.423 196.175 200.465 196.183 200.503 196.199C200.542 196.215 200.577 196.239 200.606 196.269C201.051 196.705 201.647 196.952 202.27 196.959C202.893 196.942 203.486 196.693 203.934 196.26C204.158 196.036 204.335 195.77 204.455 195.478C204.575 195.185 204.636 194.871 204.633 194.555C204.629 193.92 204.374 193.313 203.923 192.865C203.473 192.418 202.864 192.167 202.229 192.167C202.179 192.164 202.13 192.151 202.086 192.128C202.041 192.105 202.002 192.073 201.971 192.034C201.94 192.004 201.915 191.969 201.898 191.929C201.882 191.89 201.873 191.848 201.873 191.805C201.873 191.762 201.882 191.72 201.898 191.68C201.915 191.641 201.94 191.606 201.971 191.576L204.192 189.271H200.756C200.68 189.259 200.611 189.22 200.561 189.161C200.511 189.103 200.483 189.028 200.483 188.951C200.483 188.874 200.511 188.8 200.561 188.741C200.611 188.682 200.68 188.643 200.756 188.631H204.916C205 188.631 205.08 188.664 205.14 188.723C205.199 188.783 205.232 188.863 205.232 188.947C205.246 188.993 205.246 189.042 205.232 189.088C205.236 189.127 205.233 189.167 205.224 189.205Z" fill="#F8F8F8"/>
<path d="M212.77 195.745H207.911C207.841 195.748 207.772 195.725 207.72 195.678C207.687 195.654 207.659 195.623 207.639 195.587C207.618 195.551 207.606 195.512 207.602 195.471C207.598 195.43 207.603 195.389 207.616 195.35C207.629 195.311 207.65 195.275 207.678 195.245L212.853 188.772C212.878 188.74 212.909 188.714 212.945 188.694C212.981 188.675 213.02 188.662 213.06 188.659C213.101 188.655 213.142 188.659 213.181 188.672C213.219 188.684 213.255 188.704 213.286 188.731C213.335 188.773 213.372 188.828 213.394 188.889C213.394 188.889 213.394 188.889 213.394 188.939V188.98V195.129H214.001C214.083 195.129 214.161 195.161 214.219 195.219C214.277 195.277 214.309 195.355 214.309 195.437C214.309 195.518 214.277 195.597 214.219 195.654C214.161 195.712 214.083 195.745 214.001 195.745H213.394V197.284C213.382 197.358 213.344 197.425 213.287 197.474C213.229 197.522 213.157 197.549 213.082 197.549C213.007 197.549 212.934 197.522 212.877 197.474C212.82 197.425 212.782 197.358 212.77 197.284V195.745ZM212.77 195.129V189.879L208.543 195.137L212.77 195.129Z" fill="#F8F8F8"/>
<path d="M232.538 190.528C232.839 189.952 233.289 189.468 233.84 189.124C234.392 188.78 235.025 188.59 235.674 188.572C235.756 188.57 235.834 188.599 235.895 188.653C235.955 188.707 235.993 188.783 235.999 188.864C235.999 188.949 235.968 189.031 235.911 189.094C235.854 189.157 235.776 189.196 235.691 189.205C235.146 189.22 234.615 189.383 234.155 189.676C233.695 189.969 233.323 190.381 233.079 190.869C232.77 191.429 232.556 192.036 232.446 192.666C232.901 192.153 233.52 191.815 234.197 191.71C234.873 191.605 235.566 191.739 236.155 192.089C236.744 192.439 237.192 192.983 237.423 193.628C237.653 194.273 237.652 194.978 237.419 195.622C237.186 196.266 236.736 196.809 236.146 197.157C235.556 197.505 234.863 197.637 234.186 197.529C233.51 197.421 232.892 197.081 232.439 196.567C231.987 196.053 231.727 195.397 231.706 194.713C231.693 194.519 231.693 194.324 231.706 194.13C231.675 192.878 231.962 191.639 232.538 190.528ZM232.33 194.629C232.325 194.685 232.325 194.74 232.33 194.796C232.335 194.826 232.335 194.857 232.33 194.887C232.37 195.499 232.646 196.072 233.1 196.484C233.555 196.896 234.152 197.115 234.765 197.095C235.378 197.075 235.959 196.817 236.385 196.377C236.812 195.936 237.051 195.347 237.051 194.733C237.051 194.12 236.812 193.531 236.385 193.09C235.959 192.649 235.378 192.392 234.765 192.372C234.152 192.352 233.555 192.571 233.1 192.983C232.646 193.395 232.37 193.967 232.33 194.579V194.629Z" fill="#F8F8F8"/>
<path d="M240.908 197.084L244.236 189.205H239.909C239.828 189.203 239.751 189.169 239.694 189.112C239.637 189.055 239.604 188.978 239.602 188.897C239.602 188.817 239.633 188.739 239.689 188.682C239.745 188.624 239.821 188.591 239.901 188.589H244.643C244.706 188.568 244.773 188.568 244.835 188.589C244.915 188.629 244.977 188.697 245.01 188.78C245.013 188.816 245.013 188.853 245.01 188.888C245.01 188.948 244.992 189.006 244.96 189.055L241.507 197.317C241.483 197.372 241.444 197.42 241.393 197.454C241.343 197.488 241.284 197.507 241.224 197.508C241.183 197.52 241.14 197.52 241.099 197.508C241.019 197.475 240.955 197.412 240.92 197.334C240.884 197.255 240.88 197.165 240.908 197.084Z" fill="#F8F8F8"/>
<path d="M249.744 188.522C250.239 188.52 250.715 188.714 251.067 189.062C251.42 189.41 251.62 189.883 251.624 190.378C251.622 190.672 251.552 190.962 251.419 191.225C251.287 191.488 251.095 191.716 250.859 191.892C251.48 192.148 251.994 192.612 252.311 193.205C252.629 193.797 252.731 194.481 252.601 195.141C252.47 195.8 252.115 196.394 251.595 196.82C251.076 197.247 250.425 197.48 249.752 197.48C249.08 197.48 248.429 197.247 247.909 196.82C247.39 196.394 247.035 195.8 246.904 195.141C246.773 194.481 246.876 193.797 247.193 193.205C247.511 192.612 248.024 192.148 248.646 191.892C248.412 191.715 248.223 191.486 248.093 191.223C247.964 190.96 247.896 190.671 247.897 190.378C247.896 190.135 247.943 189.893 248.035 189.668C248.127 189.443 248.263 189.239 248.435 189.066C248.607 188.894 248.811 188.757 249.035 188.664C249.26 188.571 249.501 188.522 249.744 188.522ZM249.744 196.842C250.199 196.842 250.643 196.708 251.021 196.455C251.398 196.202 251.693 195.843 251.866 195.423C252.04 195.003 252.085 194.541 251.996 194.095C251.906 193.649 251.687 193.24 251.365 192.919C251.043 192.599 250.633 192.381 250.187 192.293C249.741 192.205 249.279 192.252 248.859 192.427C248.44 192.602 248.082 192.898 247.831 193.276C247.579 193.655 247.446 194.1 247.448 194.554C247.442 194.861 247.498 195.165 247.613 195.449C247.728 195.734 247.898 195.992 248.115 196.208C248.332 196.425 248.59 196.596 248.874 196.711C249.158 196.825 249.463 196.881 249.769 196.876L249.744 196.842ZM249.744 191.618C250.078 191.611 250.396 191.474 250.631 191.237C250.866 190.999 250.998 190.679 251 190.345C250.995 190.099 250.918 189.861 250.779 189.659C250.639 189.457 250.443 189.301 250.215 189.21C249.987 189.119 249.737 189.098 249.497 189.148C249.257 189.198 249.037 189.318 248.864 189.493C248.692 189.668 248.575 189.889 248.528 190.13C248.481 190.371 248.506 190.62 248.6 190.847C248.693 191.074 248.852 191.268 249.056 191.405C249.259 191.542 249.499 191.616 249.744 191.618Z" fill="#F8F8F8"/>
<path d="M265.693 188.481C266.42 188.475 267.123 188.738 267.667 189.219C268.212 189.699 268.561 190.363 268.647 191.085C268.642 191.107 268.642 191.129 268.647 191.151C268.647 191.39 268.647 191.648 268.647 191.925C268.675 193.169 268.389 194.399 267.815 195.503C267.509 196.074 267.058 196.555 266.507 196.899C265.957 197.242 265.326 197.434 264.678 197.458C264.637 197.46 264.596 197.454 264.557 197.44C264.519 197.426 264.483 197.405 264.453 197.377C264.423 197.349 264.398 197.315 264.381 197.277C264.364 197.24 264.355 197.199 264.354 197.158C264.354 197.074 264.385 196.993 264.442 196.931C264.499 196.87 264.578 196.832 264.662 196.825C265.206 196.808 265.736 196.644 266.196 196.352C266.656 196.059 267.028 195.648 267.274 195.161C267.588 194.604 267.802 193.996 267.906 193.364C267.629 193.679 267.287 193.931 266.904 194.102C266.52 194.273 266.105 194.359 265.685 194.354C264.902 194.354 264.15 194.043 263.597 193.489C263.043 192.935 262.731 192.184 262.731 191.401C262.731 190.618 263.043 189.866 263.597 189.312C264.15 188.758 264.902 188.447 265.685 188.447L265.693 188.481ZM268.048 191.426C268.05 190.961 267.913 190.507 267.657 190.12C267.4 189.733 267.034 189.431 266.605 189.252C266.177 189.073 265.705 189.026 265.249 189.115C264.793 189.205 264.375 189.428 264.046 189.756C263.717 190.083 263.492 190.501 263.401 190.957C263.31 191.412 263.356 191.884 263.533 192.313C263.711 192.743 264.011 193.11 264.397 193.368C264.783 193.626 265.237 193.764 265.702 193.764C266.01 193.766 266.315 193.707 266.6 193.59C266.885 193.474 267.144 193.302 267.363 193.084C267.581 192.867 267.754 192.608 267.871 192.324C267.989 192.039 268.049 191.734 268.048 191.426Z" fill="#F8F8F8"/>
<path d="M270.952 192.957C270.92 191.85 271.209 190.758 271.784 189.812C272.002 189.407 272.325 189.068 272.72 188.832C273.115 188.596 273.566 188.472 274.026 188.472C274.486 188.472 274.937 188.596 275.332 188.832C275.727 189.068 276.05 189.407 276.268 189.812C276.839 190.757 277.141 191.84 277.141 192.944C277.141 194.048 276.839 195.132 276.268 196.077C276.063 196.496 275.744 196.85 275.348 197.098C274.951 197.345 274.493 197.476 274.026 197.476C273.559 197.476 273.101 197.345 272.704 197.098C272.308 196.85 271.989 196.496 271.784 196.077C271.208 195.14 270.919 194.056 270.952 192.957ZM271.584 192.957C271.564 193.937 271.827 194.901 272.341 195.736C272.496 196.06 272.74 196.333 273.044 196.524C273.348 196.716 273.7 196.817 274.059 196.817C274.418 196.817 274.77 196.716 275.074 196.524C275.378 196.333 275.622 196.06 275.777 195.736C276.284 194.897 276.551 193.936 276.551 192.957C276.551 191.977 276.284 191.016 275.777 190.178C275.621 189.856 275.378 189.585 275.074 189.395C274.771 189.205 274.421 189.105 274.063 189.105C273.706 189.105 273.355 189.205 273.052 189.395C272.749 189.585 272.506 189.856 272.349 190.178C271.831 191.007 271.568 191.971 271.592 192.948L271.584 192.957Z" fill="#F8F8F8"/>
<path d="M281.301 189.354L280.037 190.095C279.992 190.126 279.941 190.146 279.887 190.153C279.831 190.153 279.777 190.138 279.729 190.111C279.68 190.083 279.64 190.043 279.612 189.995C279.589 189.96 279.574 189.921 279.567 189.88C279.561 189.838 279.563 189.796 279.574 189.756C279.585 189.716 279.604 189.678 279.631 189.646C279.658 189.614 279.691 189.588 279.729 189.57L281.451 188.514C281.524 188.476 281.607 188.468 281.686 188.489C281.765 188.511 281.832 188.561 281.875 188.63C281.917 188.7 281.932 188.783 281.917 188.863V197.1C281.917 197.182 281.885 197.26 281.827 197.318C281.769 197.375 281.691 197.408 281.609 197.408C281.528 197.408 281.449 197.375 281.392 197.318C281.334 197.26 281.301 197.182 281.301 197.1V189.354Z" fill="#F8F8F8"/>
<path d="M284.139 196.851L288.299 193.065C288.643 192.753 288.885 192.343 288.992 191.891C289.099 191.438 289.067 190.964 288.899 190.53C288.732 190.096 288.437 189.723 288.054 189.46C287.671 189.197 287.217 189.056 286.752 189.055C286.176 189.055 285.619 189.265 285.187 189.646L284.755 190.045C284.727 190.076 284.693 190.1 284.655 190.117C284.617 190.133 284.576 190.142 284.534 190.142C284.493 190.142 284.452 190.133 284.414 190.117C284.376 190.1 284.342 190.076 284.314 190.045C284.284 190.018 284.259 189.985 284.243 189.947C284.226 189.91 284.218 189.87 284.218 189.829C284.218 189.788 284.226 189.748 284.243 189.711C284.259 189.673 284.284 189.64 284.314 189.613L284.746 189.197C285.292 188.711 285.996 188.442 286.727 188.439C287.5 188.442 288.241 188.749 288.789 189.294C289.337 189.839 289.649 190.578 289.655 191.351C289.657 191.761 289.574 192.166 289.411 192.541C289.247 192.917 289.008 193.254 288.707 193.531L285.121 196.784H289.364C289.406 196.785 289.446 196.795 289.484 196.812C289.522 196.829 289.557 196.853 289.585 196.883C289.614 196.913 289.636 196.948 289.651 196.987C289.666 197.026 289.673 197.067 289.672 197.109C289.67 197.19 289.637 197.267 289.579 197.324C289.522 197.382 289.445 197.415 289.364 197.417H284.322C284.279 197.42 284.235 197.414 284.195 197.398C284.155 197.382 284.118 197.357 284.089 197.325C284.034 197.255 284.008 197.167 284.018 197.078C284.027 196.989 284.07 196.908 284.139 196.851Z" fill="#F8F8F8"/>
<path d="M304.789 188.947L302.477 191.335C303.166 191.466 303.787 191.835 304.231 192.378C304.676 192.922 304.914 193.604 304.906 194.305C304.91 194.706 304.833 195.103 304.68 195.473C304.527 195.843 304.301 196.179 304.016 196.46C303.735 196.744 303.401 196.969 303.032 197.123C302.664 197.277 302.268 197.356 301.869 197.356C301.47 197.356 301.075 197.277 300.706 197.123C300.338 196.969 300.003 196.744 299.723 196.46C299.693 196.431 299.669 196.396 299.653 196.357C299.637 196.319 299.629 196.277 299.629 196.236C299.629 196.194 299.637 196.152 299.653 196.114C299.669 196.075 299.693 196.04 299.723 196.011C299.751 195.98 299.786 195.956 299.825 195.939C299.863 195.922 299.905 195.914 299.947 195.914C299.989 195.914 300.031 195.922 300.07 195.939C300.108 195.956 300.143 195.98 300.172 196.011C300.616 196.446 301.214 196.691 301.836 196.693C302.458 196.683 303.053 196.436 303.5 196.003C303.829 195.667 304.053 195.242 304.144 194.781C304.236 194.32 304.19 193.842 304.013 193.406C303.837 192.97 303.536 192.595 303.149 192.328C302.763 192.061 302.306 191.912 301.836 191.901C301.786 191.903 301.736 191.893 301.691 191.871C301.646 191.849 301.607 191.817 301.578 191.776C301.518 191.715 301.484 191.633 301.484 191.547C301.484 191.461 301.518 191.379 301.578 191.318L303.799 189.014H300.372C300.329 189.015 300.287 189.008 300.248 188.992C300.209 188.977 300.173 188.954 300.143 188.924C300.112 188.895 300.088 188.859 300.072 188.821C300.056 188.782 300.047 188.74 300.047 188.698C300.046 188.655 300.053 188.613 300.069 188.574C300.084 188.535 300.107 188.499 300.137 188.469C300.166 188.438 300.201 188.414 300.24 188.398C300.279 188.382 300.321 188.373 300.363 188.373H304.523C304.565 188.372 304.607 188.379 304.647 188.395C304.686 188.41 304.722 188.433 304.752 188.463C304.782 188.492 304.806 188.527 304.823 188.566C304.839 188.605 304.848 188.647 304.848 188.689C304.862 188.735 304.862 188.785 304.848 188.831C304.843 188.875 304.823 188.917 304.789 188.947Z" fill="#F8F8F8"/>
<path d="M312.36 195.486H307.468C307.433 195.491 307.398 195.489 307.365 195.479C307.332 195.469 307.302 195.451 307.276 195.428C307.243 195.404 307.216 195.373 307.195 195.337C307.175 195.301 307.162 195.262 307.159 195.221C307.155 195.18 307.159 195.139 307.173 195.1C307.186 195.061 307.207 195.025 307.235 194.995L312.41 188.522C312.434 188.489 312.465 188.462 312.501 188.441C312.536 188.421 312.576 188.409 312.617 188.405C312.658 188.401 312.699 188.405 312.738 188.419C312.777 188.432 312.812 188.453 312.842 188.481C312.886 188.526 312.92 188.58 312.942 188.639C312.942 188.639 312.942 188.639 312.942 188.689V188.73V194.879H313.541C313.623 194.879 313.701 194.911 313.759 194.969C313.817 195.027 313.849 195.105 313.849 195.187C313.849 195.268 313.817 195.347 313.759 195.404C313.701 195.462 313.623 195.495 313.541 195.495H312.942V197.034C312.942 197.075 312.934 197.116 312.918 197.154C312.902 197.191 312.879 197.226 312.849 197.254C312.82 197.283 312.785 197.306 312.746 197.321C312.708 197.336 312.667 197.343 312.626 197.342C312.545 197.339 312.468 197.306 312.411 197.249C312.353 197.192 312.32 197.115 312.318 197.034L312.36 195.486ZM312.36 194.871V189.621L308.092 194.912L312.36 194.871Z" fill="#F8F8F8"/>
<path d="M315.896 196.434C315.867 196.405 315.843 196.37 315.827 196.331C315.811 196.293 315.803 196.251 315.803 196.21C315.803 196.168 315.811 196.127 315.827 196.088C315.843 196.049 315.867 196.014 315.896 195.985C315.959 195.924 316.042 195.89 316.129 195.89C316.216 195.89 316.3 195.924 316.362 195.985C316.584 196.207 316.847 196.383 317.137 196.503C317.427 196.623 317.738 196.685 318.051 196.685C318.365 196.685 318.676 196.623 318.965 196.503C319.255 196.383 319.519 196.207 319.74 195.985C319.961 195.768 320.137 195.509 320.257 195.223C320.377 194.938 320.439 194.631 320.439 194.321C320.444 194.006 320.385 193.694 320.267 193.402C320.148 193.11 319.972 192.845 319.75 192.623C319.527 192.4 319.262 192.224 318.97 192.106C318.679 191.987 318.366 191.929 318.051 191.933C317.741 191.936 317.434 191.999 317.149 192.121C316.863 192.242 316.604 192.419 316.387 192.64C316.359 192.672 316.325 192.698 316.286 192.715C316.247 192.733 316.205 192.742 316.163 192.742C316.12 192.742 316.078 192.733 316.039 192.715C316.001 192.698 315.966 192.672 315.938 192.64C315.899 192.618 315.87 192.583 315.855 192.541C315.852 192.527 315.852 192.513 315.855 192.499C315.846 192.466 315.846 192.432 315.855 192.399C315.855 192.399 315.855 192.358 315.855 192.333L316.279 188.713C316.279 188.668 316.291 188.624 316.313 188.585C316.334 188.546 316.366 188.513 316.404 188.489C316.431 188.461 316.463 188.439 316.499 188.425C316.535 188.411 316.573 188.404 316.612 188.406H320.772C320.818 188.398 320.866 188.401 320.911 188.413C320.956 188.426 320.998 188.448 321.034 188.479C321.07 188.509 321.099 188.547 321.118 188.59C321.138 188.632 321.148 188.679 321.148 188.726C321.148 188.773 321.138 188.819 321.118 188.862C321.099 188.905 321.07 188.942 321.034 188.973C320.998 189.003 320.956 189.026 320.911 189.038C320.866 189.051 320.818 189.054 320.772 189.046H316.87L316.554 191.717C317.013 191.447 317.536 191.303 318.069 191.3C318.602 191.297 319.126 191.436 319.588 191.701C320.05 191.966 320.434 192.349 320.701 192.811C320.967 193.273 321.106 193.796 321.105 194.329C321.111 194.729 321.036 195.125 320.886 195.495C320.736 195.865 320.513 196.202 320.231 196.484C319.656 197.051 318.883 197.37 318.076 197.374C317.668 197.372 317.265 197.288 316.891 197.126C316.516 196.965 316.178 196.729 315.896 196.434Z" fill="#F8F8F8"/>
<path d="M324.425 190.295C324.724 189.717 325.174 189.23 325.725 188.885C326.277 188.54 326.911 188.348 327.561 188.331C327.642 188.331 327.72 188.362 327.779 188.418C327.838 188.473 327.873 188.55 327.877 188.631C327.88 188.714 327.85 188.795 327.794 188.857C327.738 188.919 327.661 188.957 327.578 188.963C327.033 188.981 326.503 189.144 326.044 189.437C325.584 189.73 325.211 190.141 324.965 190.627C324.657 191.188 324.441 191.795 324.325 192.425C324.778 191.908 325.397 191.566 326.075 191.457C326.754 191.348 327.449 191.479 328.041 191.827C328.633 192.175 329.086 192.719 329.32 193.364C329.555 194.01 329.557 194.717 329.327 195.364C329.096 196.012 328.647 196.558 328.057 196.91C327.467 197.262 326.773 197.397 326.094 197.292C325.415 197.187 324.794 196.849 324.337 196.336C323.881 195.823 323.617 195.166 323.593 194.48C323.58 194.283 323.58 194.086 323.593 193.889C323.563 192.64 323.849 191.404 324.425 190.295ZM324.217 194.388C324.211 194.443 324.211 194.499 324.217 194.554C324.222 194.585 324.222 194.616 324.217 194.646C324.257 195.258 324.533 195.831 324.987 196.242C325.442 196.654 326.038 196.874 326.651 196.854C327.264 196.834 327.846 196.576 328.272 196.135C328.699 195.695 328.937 195.105 328.937 194.492C328.937 193.879 328.699 193.289 328.272 192.849C327.846 192.408 327.264 192.15 326.651 192.13C326.038 192.11 325.442 192.33 324.987 192.742C324.533 193.154 324.257 193.726 324.217 194.338V194.388Z" fill="#F8F8F8"/>
<path d="M268.858 212.823L190.625 213.027L190.635 216.871L268.868 216.666L268.858 212.823Z" fill="#A6A6A6"/>
<path d="M246.025 221.426L190.639 221.571L190.649 225.415L246.035 225.27L246.025 221.426Z" fill="#A6A6A6"/>
<path d="M297.06 148.443L258.048 148.545L258.058 152.389L297.07 152.287L297.06 148.443Z" fill="#A6A6A6"/>
<path d="M346.147 158.812H171.993V244.166H346.147V158.812Z" fill="#60B257"/>
<path opacity="0.2" d="M346.147 158.812H171.993V244.166H346.147V158.812Z" fill="#403E48"/>
<path d="M346.147 173.979H171.993V259.334H346.147V173.979Z" fill="#60B257"/>
<path opacity="0.3" d="M346.147 173.979H171.993V259.334H346.147V173.979Z" fill="#403E48"/>
<path d="M346.147 189.621H171.993V259.343H346.147V189.621Z" fill="#60B257"/>
<path opacity="0.2" d="M346.147 189.621H171.993V259.343H346.147V189.621Z" fill="#403E48"/>
<path d="M340.773 298.912L159.322 273.12V124.192L165.146 128.502C167.941 130.581 171.242 131.871 174.706 132.238L340.773 149.984V298.912Z" fill="#60B257"/>
<path d="M159.577 130.545L159.064 131.2L160.375 132.225L160.888 131.57L159.577 130.545Z" fill="white"/>
<path d="M329.001 156.64L325.673 156.266L325.764 155.434L329.092 155.808L329.001 156.64ZM323.127 155.983L319.799 155.609L319.89 154.777L323.218 155.151L323.127 155.983ZM317.253 155.326L313.925 154.951L314.016 154.119L317.344 154.502L317.253 155.326ZM311.379 154.668L308.051 154.294L308.142 153.462L311.47 153.836L311.379 154.668ZM305.505 154.011L302.177 153.637L302.268 152.805L305.596 153.179L305.505 154.011ZM299.681 153.354L296.353 152.979L296.444 152.147L299.772 152.522L299.681 153.354ZM293.807 152.705L290.479 152.322L290.57 151.49L293.898 151.865L293.807 152.705ZM287.933 152.048L284.605 151.673L284.697 150.841L288.025 151.216L287.933 152.048ZM282.059 151.39L278.731 151.016L278.823 150.184L282.151 150.558L282.059 151.39ZM276.194 150.733L272.866 150.359L272.957 149.527L276.285 149.901L276.194 150.733ZM270.32 150.076L266.992 149.701L267.091 148.869L270.419 149.244L270.32 150.076ZM264.446 149.419L261.118 149.044L261.209 148.212L264.537 148.587L264.446 149.419ZM258.572 148.761L255.244 148.387L255.335 147.555L258.663 147.929L258.572 148.761ZM252.698 148.112L249.37 147.73L249.461 146.898L252.789 147.272L252.698 148.112ZM246.799 147.488L243.471 147.114L243.562 146.282L246.89 146.656L246.799 147.488ZM240.925 146.831L237.597 146.457L237.689 145.625L241.017 145.999L240.925 146.831ZM235.051 146.174L231.723 145.799L231.815 144.967L235.143 145.35L235.051 146.174ZM229.177 145.516L225.849 145.142L225.941 144.31L229.269 144.684L229.177 145.516ZM223.337 144.826L220.009 144.451L220.1 143.619L223.428 143.994L223.337 144.826ZM217.471 144.169L214.143 143.794L214.243 142.962L217.571 143.337L217.471 144.169ZM211.597 143.52L208.269 143.137L208.361 142.305L211.689 142.679L211.597 143.52ZM205.723 142.862L202.395 142.488L202.487 141.656L205.815 142.03L205.723 142.862ZM199.849 142.205L196.521 141.831L196.613 140.999L199.941 141.373L199.849 142.205ZM194.025 141.548L190.697 141.173L190.789 140.341L194.117 140.724L194.025 141.548ZM188.151 140.891L184.823 140.516L184.915 139.684L188.243 140.059L188.151 140.891ZM182.277 140.233L178.949 139.859L179.041 139.027L182.369 139.401L182.277 140.233ZM176.403 139.576L174.407 139.36C173.941 139.301 173.483 139.235 173.026 139.152L173.175 138.32C173.616 138.395 174.057 138.461 174.498 138.511L176.495 138.736L176.403 139.576ZM170.521 138.528C169.427 138.172 168.364 137.727 167.343 137.196L167.734 136.456C168.711 136.967 169.729 137.393 170.779 137.729L170.521 138.528ZM165.097 135.84C164.822 135.641 164.547 135.441 164.265 135.233L162.393 133.769L162.9 133.111L164.772 134.576C165.03 134.775 165.296 134.967 165.562 135.158L165.097 135.84Z" fill="white"/>
<path d="M333.643 158.354H332.811V157.064L331.521 156.914L331.613 156.091L333.643 156.315V158.354Z" fill="white"/>
<path d="M333.643 288.005H332.811V284.635H333.643V288.005ZM333.643 282.106H332.811V278.736H333.643V282.106ZM333.643 276.216H332.811V272.846H333.643V276.216ZM333.643 270.325H332.811V266.955H333.643V270.325ZM333.643 264.426H332.811V261.098H333.643V264.426ZM333.643 258.536H332.811V255.166H333.643V258.536ZM333.643 252.645H332.811V249.275H333.643V252.645ZM333.643 246.746H332.811V243.418H333.643V246.746ZM333.643 240.856H332.811V237.486H333.643V240.856ZM333.643 234.965H332.811V231.595H333.643V234.965ZM333.643 229.074H332.811V225.696H333.643V229.074ZM333.643 223.176H332.811V219.848H333.643V223.176ZM333.643 217.285H332.811V213.915H333.643V217.285ZM333.643 211.394H332.811V208.025H333.643V211.394ZM333.643 205.496H332.811V202.168H333.643V205.496ZM333.643 199.605H332.811V196.235H333.643V199.605ZM333.643 193.714H332.811V190.345H333.643V193.714ZM333.643 187.816H332.811V184.488H333.643V187.816ZM333.643 181.925H332.811V178.555H333.643V181.925ZM333.643 176.034H332.811V172.665H333.643V176.034ZM333.643 170.144H332.811V166.774H333.643V170.144ZM333.643 164.245H332.811V160.917H333.643V164.245Z" fill="white"/>
<path d="M317.378 231.795C321.371 231.795 324.608 228.107 324.608 223.558C324.608 219.009 321.371 215.321 317.378 215.321C313.384 215.321 310.147 219.009 310.147 223.558C310.147 228.107 313.384 231.795 317.378 231.795Z" fill="#EBEBEB"/>
<path d="M320.747 223.558C320.664 224.205 320.395 224.815 319.975 225.314C319.554 225.813 318.998 226.18 318.374 226.371C317.749 226.562 317.083 226.569 316.455 226.391C315.827 226.213 315.263 225.858 314.832 225.368C314.401 224.878 314.12 224.274 314.023 223.629C313.926 222.983 314.017 222.323 314.286 221.728C314.555 221.133 314.989 220.628 315.537 220.274C316.086 219.92 316.724 219.731 317.377 219.73C318.33 219.795 319.219 220.233 319.85 220.95C320.482 221.667 320.804 222.604 320.747 223.558Z" fill="#DBDBDB"/>
<path d="M355.492 232.392L359.9 233.2L360.884 237.848L361.868 233.2L366.276 232.384L361.884 231.312L360.884 226.928L359.876 231.312L355.492 232.392Z" fill="#E1E0E6"/>
<path d="M173.66 207.304L178.068 208.12L179.052 212.768L180.036 208.12L184.444 207.304L180.06 206.232L179.052 201.848L178.052 206.232L173.66 207.304Z" fill="#E1E0E6"/>
<path d="M310.477 157.648L314.885 158.464L315.869 163.104L316.853 158.464L321.261 157.648L316.877 156.568L315.869 152.184L314.869 156.568L310.477 157.648Z" fill="#E1E0E6"/>
<path d="M397.38 205.04L399.844 205.496L400.396 208.096L400.948 205.496L403.404 205.04L400.956 204.44L400.396 201.992L399.836 204.44L397.38 205.04Z" fill="#E1E0E6"/>
<path d="M391.356 88.1683L393.82 88.6243L394.372 91.2163L394.916 88.6243L397.38 88.1603L394.932 87.5683L394.372 85.1123L393.804 87.5683L391.356 88.1683Z" fill="#E1E0E6"/>
<path d="M100.805 144.016L103.269 144.472L103.821 147.064L104.365 144.472L106.829 144.016L104.381 143.416L103.821 140.96L103.261 143.416L100.805 144.016Z" fill="#E1E0E6"/>
<path d="M381.853 153.936L384.317 154.392L384.861 156.984L385.413 154.392L387.877 153.936L385.429 153.336L384.861 150.88L384.301 153.336L381.853 153.936Z" fill="#E1E0E6"/>
<path d="M277.956 237.848L280.42 238.304L280.972 240.904L281.524 238.304L283.988 237.848L281.532 237.248L280.972 234.8L280.412 237.248L277.956 237.848Z" fill="#E1E0E6"/>
<path d="M188.324 29.3519L190.788 29.8079L191.34 32.3999L191.892 29.8079L194.348 29.3519L191.9 28.7519L191.34 26.2959L190.78 28.7519L188.324 29.3519Z" fill="#E1E0E6"/>
<path d="M284.748 228.416L287.212 228.872L287.764 231.472L288.316 228.872L290.78 228.416L288.324 227.816L287.764 225.36L287.204 227.816L284.748 228.416Z" fill="#E1E0E6"/>
<path d="M332.005 175.544C332.181 175.563 332.345 175.646 332.464 175.778C332.583 175.911 332.649 176.082 332.649 176.26C332.649 176.438 332.583 176.609 332.464 176.742C332.345 176.874 332.181 176.957 332.005 176.976C331.828 176.957 331.664 176.874 331.545 176.742C331.426 176.609 331.36 176.438 331.36 176.26C331.36 176.082 331.426 175.911 331.545 175.778C331.664 175.646 331.828 175.563 332.005 175.544Z" fill="#E1E0E6"/>
<path d="M271.084 235.696C271.273 235.696 271.454 235.771 271.588 235.905C271.721 236.038 271.796 236.219 271.796 236.408C271.796 236.597 271.721 236.778 271.588 236.912C271.454 237.045 271.273 237.12 271.084 237.12C270.895 237.12 270.714 237.045 270.581 236.912C270.447 236.778 270.372 236.597 270.372 236.408C270.372 236.219 270.447 236.038 270.581 235.905C270.714 235.771 270.895 235.696 271.084 235.696Z" fill="#E1E0E6"/>
<path d="M365.981 184.904C366.169 184.904 366.35 184.979 366.484 185.113C366.618 185.246 366.693 185.427 366.693 185.616C366.693 185.805 366.618 185.986 366.484 186.12C366.35 186.253 366.169 186.328 365.981 186.328C365.792 186.328 365.611 186.253 365.477 186.12C365.344 185.986 365.269 185.805 365.269 185.616C365.269 185.427 365.344 185.246 365.477 185.113C365.611 184.979 365.792 184.904 365.981 184.904Z" fill="#E1E0E6"/>
<path d="M121.66 34.3516C121.784 34.3671 121.898 34.4273 121.98 34.5209C122.063 34.6144 122.108 34.7348 122.108 34.8596C122.108 34.9843 122.063 35.1047 121.98 35.1983C121.898 35.2918 121.784 35.352 121.66 35.3676C121.536 35.352 121.422 35.2918 121.34 35.1983C121.257 35.1047 121.212 34.9843 121.212 34.8596C121.212 34.7348 121.257 34.6144 121.34 34.5209C121.422 34.4273 121.536 34.3671 121.66 34.3516Z" fill="#E1E0E6"/>
<path d="M316.492 196.696C316.626 196.696 316.754 196.749 316.849 196.844C316.943 196.938 316.996 197.067 316.996 197.2C316.996 197.334 316.943 197.462 316.849 197.557C316.754 197.651 316.626 197.704 316.492 197.704C316.359 197.704 316.23 197.651 316.136 197.557C316.041 197.462 315.988 197.334 315.988 197.2C315.988 197.067 316.041 196.938 316.136 196.844C316.23 196.749 316.359 196.696 316.492 196.696Z" fill="#E1E0E6"/>
<path d="M292.061 240.4C292.194 240.4 292.323 240.453 292.417 240.548C292.512 240.643 292.565 240.771 292.565 240.904C292.565 241.038 292.512 241.166 292.417 241.261C292.323 241.355 292.194 241.408 292.061 241.408C291.927 241.408 291.799 241.355 291.704 241.261C291.61 241.166 291.557 241.038 291.557 240.904C291.557 240.771 291.61 240.643 291.704 240.548C291.799 240.453 291.927 240.4 292.061 240.4Z" fill="#E1E0E6"/>
<path d="M252.1 231.88C252.224 231.895 252.338 231.956 252.421 232.049C252.503 232.143 252.549 232.263 252.549 232.388C252.549 232.513 252.503 232.633 252.421 232.727C252.338 232.82 252.224 232.88 252.1 232.896C251.977 232.88 251.863 232.82 251.78 232.727C251.698 232.633 251.652 232.513 251.652 232.388C251.652 232.263 251.698 232.143 251.78 232.049C251.863 231.956 251.977 231.895 252.1 231.88Z" fill="#E1E0E6"/>
<path d="M299.341 187.52C299.703 187.52 300.051 187.664 300.308 187.92C300.565 188.177 300.709 188.525 300.709 188.888C300.709 189.25 300.565 189.598 300.308 189.855C300.051 190.111 299.703 190.256 299.341 190.256C298.978 190.256 298.63 190.111 298.373 189.855C298.117 189.598 297.973 189.25 297.973 188.888C297.973 188.525 298.117 188.177 298.373 187.92C298.63 187.664 298.978 187.52 299.341 187.52Z" fill="#E1E0E6"/>
<path d="M229.284 49.2716L233.692 50.0876L234.676 54.7276L235.66 50.0876L240.068 49.2716L235.676 48.1996L234.676 43.8076L233.668 48.1996L229.284 49.2716Z" fill="#E1E0E6"/>
<path d="M246.076 9.056L248.54 9.512L249.092 12.104L249.644 9.512L252.1 9.056L249.652 8.456L249.092 6L248.532 8.456L246.076 9.056Z" fill="#E1E0E6"/>
<path d="M96.7638 75.6963C96.9526 75.6963 97.1337 75.7713 97.2672 75.9048C97.4007 76.0384 97.4758 76.2195 97.4758 76.4083C97.4758 76.5971 97.4007 76.7782 97.2672 76.9117C97.1337 77.0453 96.9526 77.1203 96.7638 77.1203C96.5749 77.1203 96.3938 77.0453 96.2603 76.9117C96.1268 76.7782 96.0518 76.5971 96.0518 76.4083C96.0518 76.2195 96.1268 76.0384 96.2603 75.9048C96.3938 75.7713 96.5749 75.6963 96.7638 75.6963Z" fill="#E1E0E6"/>
<path d="M125.213 135.552C125.389 135.57 125.553 135.654 125.672 135.786C125.791 135.918 125.857 136.09 125.857 136.268C125.857 136.446 125.791 136.617 125.672 136.749C125.553 136.882 125.389 136.965 125.213 136.984C125.036 136.965 124.872 136.882 124.753 136.749C124.634 136.617 124.568 136.446 124.568 136.268C124.568 136.09 124.634 135.918 124.753 135.786C124.872 135.654 125.036 135.57 125.213 135.552Z" fill="#E1E0E6"/>
<path d="M88.6442 12.3115C88.8211 12.3302 88.9847 12.4137 89.1037 12.5459C89.2226 12.6781 89.2884 12.8497 89.2884 13.0275C89.2884 13.2054 89.2226 13.3769 89.1037 13.5091C88.9847 13.6413 88.8211 13.7248 88.6442 13.7435C88.4674 13.7248 88.3037 13.6413 88.1848 13.5091C88.0658 13.3769 88 13.2054 88 13.0275C88 12.8497 88.0658 12.6781 88.1848 12.5459C88.3037 12.4137 88.4674 12.3302 88.6442 12.3115Z" fill="#E1E0E6"/>
<path d="M153.46 231.016C153.584 231.031 153.697 231.091 153.78 231.185C153.862 231.278 153.908 231.399 153.908 231.524C153.908 231.648 153.862 231.769 153.78 231.862C153.697 231.956 153.584 232.016 153.46 232.032C153.336 232.016 153.222 231.956 153.14 231.862C153.057 231.769 153.012 231.648 153.012 231.524C153.012 231.399 153.057 231.278 153.14 231.185C153.222 231.091 153.336 231.031 153.46 231.016Z" fill="#E1E0E6"/>
<path d="M335.013 64.6797C335.136 64.6952 335.25 64.7555 335.333 64.849C335.415 64.9425 335.461 65.063 335.461 65.1877C335.461 65.3124 335.415 65.4329 335.333 65.5264C335.25 65.6199 335.136 65.6801 335.013 65.6957C334.889 65.6801 334.775 65.6199 334.693 65.5264C334.61 65.4329 334.564 65.3124 334.564 65.1877C334.564 65.063 334.61 64.9425 334.693 64.849C334.775 64.7555 334.889 64.6952 335.013 64.6797Z" fill="#E1E0E6"/>
<path d="M243.773 33.752C243.906 33.752 244.034 33.8051 244.129 33.8996C244.223 33.9941 244.277 34.1223 244.277 34.256C244.277 34.3896 244.223 34.5178 244.129 34.6123C244.034 34.7069 243.906 34.76 243.773 34.76C243.639 34.76 243.511 34.7069 243.416 34.6123C243.322 34.5178 243.269 34.3896 243.269 34.256C243.269 34.1223 243.322 33.9941 243.416 33.8996C243.511 33.8051 243.639 33.752 243.773 33.752Z" fill="#E1E0E6"/>
<path d="M213.476 213.072C213.839 213.072 214.187 213.216 214.444 213.473C214.7 213.729 214.844 214.077 214.844 214.44C214.844 214.803 214.7 215.151 214.444 215.408C214.187 215.664 213.839 215.808 213.476 215.808C213.114 215.808 212.766 215.664 212.509 215.408C212.253 215.151 212.108 214.803 212.108 214.44C212.108 214.077 212.253 213.729 212.509 213.473C212.766 213.216 213.114 213.072 213.476 213.072Z" fill="#E1E0E6"/>
<path d="M393.764 109.656C394.11 109.683 394.433 109.839 394.669 110.093C394.905 110.347 395.035 110.681 395.035 111.028C395.035 111.375 394.905 111.709 394.669 111.963C394.433 112.218 394.11 112.374 393.764 112.4C393.419 112.374 393.095 112.218 392.86 111.963C392.624 111.709 392.493 111.375 392.493 111.028C392.493 110.681 392.624 110.347 392.86 110.093C393.095 109.839 393.419 109.683 393.764 109.656Z" fill="#E1E0E6"/>
<path d="M113.668 229.648C114.031 229.648 114.379 229.793 114.635 230.049C114.892 230.306 115.036 230.654 115.036 231.016C115.036 231.379 114.892 231.727 114.635 231.984C114.379 232.24 114.031 232.384 113.668 232.384C113.305 232.384 112.957 232.24 112.7 231.984C112.444 231.727 112.3 231.379 112.3 231.016C112.3 230.654 112.444 230.306 112.7 230.049C112.957 229.793 113.305 229.648 113.668 229.648Z" fill="#E1E0E6"/>
<path d="M228.645 176.976L231.109 177.432L231.661 180.024L232.213 177.432L234.677 176.976L232.221 176.376L231.661 173.92L231.101 176.376L228.645 176.976Z" fill="#E1E0E6"/>
<path d="M319.692 250.208C319.869 250.227 320.033 250.31 320.152 250.442C320.27 250.575 320.336 250.746 320.336 250.924C320.336 251.102 320.27 251.273 320.152 251.406C320.033 251.538 319.869 251.621 319.692 251.64C319.515 251.621 319.352 251.538 319.233 251.406C319.114 251.273 319.048 251.102 319.048 250.924C319.048 250.746 319.114 250.575 319.233 250.442C319.352 250.31 319.515 250.227 319.692 250.208Z" fill="#E1E0E6"/>
<path d="M333.052 53.04C333.229 53.0588 333.393 53.1423 333.512 53.2745C333.631 53.4067 333.697 53.5782 333.697 53.756C333.697 53.9339 333.631 54.1054 333.512 54.2376C333.393 54.3698 333.229 54.4533 333.052 54.472C332.876 54.4533 332.712 54.3698 332.593 54.2376C332.474 54.1054 332.408 53.9339 332.408 53.756C332.408 53.5782 332.474 53.4067 332.593 53.2745C332.712 53.1423 332.876 53.0588 333.052 53.04Z" fill="#E1E0E6"/>
<path d="M350.229 252.496C350.362 252.496 350.49 252.549 350.585 252.644C350.68 252.738 350.733 252.866 350.733 253C350.733 253.134 350.68 253.262 350.585 253.356C350.49 253.451 350.362 253.504 350.229 253.504C350.095 253.504 349.967 253.451 349.872 253.356C349.778 253.262 349.725 253.134 349.725 253C349.725 252.866 349.778 252.738 349.872 252.644C349.967 252.549 350.095 252.496 350.229 252.496Z" fill="#E1E0E6"/>
<path d="M135.309 166.592L137.773 167.048L138.317 169.64L138.869 167.048L141.333 166.592L138.885 165.992L138.317 163.536L137.757 165.992L135.309 166.592Z" fill="#E1E0E6"/>
<path d="M106.828 205.88C107.017 205.88 107.198 205.955 107.332 206.088C107.465 206.222 107.54 206.403 107.54 206.592C107.54 206.781 107.465 206.962 107.332 207.095C107.198 207.229 107.017 207.304 106.828 207.304C106.639 207.304 106.458 207.229 106.325 207.095C106.191 206.962 106.116 206.781 106.116 206.592C106.116 206.403 106.191 206.222 106.325 206.088C106.458 205.955 106.639 205.88 106.828 205.88Z" fill="#E1E0E6"/>
<path d="M205.292 153.296C205.481 153.296 205.662 153.371 205.796 153.504C205.929 153.638 206.004 153.819 206.004 154.008C206.004 154.197 205.929 154.378 205.796 154.511C205.662 154.645 205.481 154.72 205.292 154.72C205.103 154.72 204.922 154.645 204.789 154.511C204.655 154.378 204.58 154.197 204.58 154.008C204.58 153.819 204.655 153.638 204.789 153.504C204.922 153.371 205.103 153.296 205.292 153.296Z" fill="#E1E0E6"/>
<path d="M121.66 81.1602C121.784 81.1757 121.898 81.2359 121.98 81.3295C122.063 81.423 122.108 81.5434 122.108 81.6682C122.108 81.7929 122.063 81.9133 121.98 82.0069C121.898 82.1004 121.784 82.1606 121.66 82.1762C121.536 82.1606 121.422 82.1004 121.34 82.0069C121.257 81.9133 121.212 81.7929 121.212 81.6682C121.212 81.5434 121.257 81.423 121.34 81.3295C121.422 81.2359 121.536 81.1757 121.66 81.1602Z" fill="#E1E0E6"/>
<path d="M115.188 76.4961C115.551 76.4961 115.899 76.6402 116.156 76.8968C116.412 77.1533 116.556 77.5013 116.556 77.8641C116.556 78.2269 116.412 78.5749 116.156 78.8314C115.899 79.088 115.551 79.2321 115.188 79.2321C114.825 79.2321 114.478 79.088 114.221 78.8314C113.964 78.5749 113.82 78.2269 113.82 77.8641C113.82 77.5013 113.964 77.1533 114.221 76.8968C114.478 76.6402 114.825 76.4961 115.188 76.4961Z" fill="#E1E0E6"/>
<path d="M395.084 16.0879C395.447 16.0879 395.795 16.232 396.051 16.4886C396.308 16.7451 396.452 17.0931 396.452 17.4559C396.452 17.8187 396.308 18.1667 396.051 18.4232C395.795 18.6798 395.447 18.8239 395.084 18.8239C394.721 18.8239 394.373 18.6798 394.117 18.4232C393.86 18.1667 393.716 17.8187 393.716 17.4559C393.716 17.0931 393.86 16.7451 394.117 16.4886C394.373 16.232 394.721 16.0879 395.084 16.0879Z" fill="#E1E0E6"/>
</g>
<defs>
<filter id="filter0_f_3880_42761" x="128" y="-35" width="277" height="275" filterUnits="userSpaceOnUse" color-interpolation-filters="sRGB">
<feFlood flood-opacity="0" result="BackgroundImageFix"/>
<feBlend mode="normal" in="SourceGraphic" in2="BackgroundImageFix" result="shape"/>
<feGaussianBlur stdDeviation="10" result="effect1_foregroundBlur_3880_42761"/>
</filter>
<radialGradient id="paint0_radial_3880_42761" cx="0" cy="0" r="1" gradientUnits="userSpaceOnUse" gradientTransform="translate(266.5 102.5) rotate(90) scale(117.5 118.5)">
<stop stop-color="#60B257"/>
<stop offset="1" stop-color="#F9F9FA"/>
</radialGradient>
<clipPath id="clip0_3880_42761">
<rect width="512" height="264" rx="8" fill="white"/>
</clipPath>
</defs>
</svg>
