<svg width="498" height="264" viewBox="0 0 498 264" fill="none" xmlns="http://www.w3.org/2000/svg">
<rect width="498" height="264" rx="8" fill="#F9F9FA"/>
<g clip-path="url(#clip0_4546_72942)">
<g filter="url(#filter0_f_4546_72942)">
<ellipse cx="268.5" cy="141.5" rx="118.5" ry="117.5" fill="url(#paint0_radial_4546_72942)" fill-opacity="0.3"/>
</g>
<path d="M351.885 114.417C350.768 112.11 350.487 109.487 351.09 106.995C351.692 104.504 353.141 102.299 355.188 100.757C357.236 99.2155 359.755 98.4321 362.316 98.541C364.876 98.6499 367.32 99.6444 369.229 101.355C369.278 100.293 369.574 99.2571 370.091 98.3288C370.609 97.4004 371.334 96.6047 372.211 96.0041C373.986 94.8069 376.08 94.1693 378.221 94.1737C380.258 94.128 382.283 94.4932 384.175 95.2476C386.068 96.0019 387.788 97.1299 389.235 98.5641C392.102 101.457 393.664 107.089 393.523 111.159C395.789 110.801 399.098 112.99 400.506 114.801C402.359 117.198 403.446 120.098 403.627 123.123C403.808 126.147 403.073 129.156 401.519 131.757C399.965 134.358 397.663 136.43 394.913 137.704C392.164 138.978 389.095 139.393 386.106 138.897C385.26 141.286 383.749 143.383 381.752 144.943C379.755 146.503 377.355 147.461 374.832 147.703C372.31 147.946 369.77 147.464 367.512 146.313C365.255 145.162 363.372 143.391 362.086 141.207C361.555 140.305 361.094 139.287 360.243 138.686C359.27 137.975 357.99 137.924 356.806 137.732C354.265 137.311 351.909 136.132 350.048 134.351C348.187 132.569 346.907 130.267 346.375 127.746C345.843 125.225 346.085 122.602 347.068 120.221C348.051 117.839 349.73 115.81 351.885 114.398V114.417Z" fill="white"/>
<path d="M351.884 114.417C351.884 114.417 351.808 114.487 351.628 114.622C351.449 114.756 351.174 114.935 350.86 115.223C349.891 116.022 349.053 116.968 348.377 118.027C347.274 119.702 346.565 121.606 346.304 123.594C345.943 126.253 346.479 128.955 347.827 131.274C348.62 132.625 349.64 133.828 350.841 134.833C352.16 135.925 353.683 136.746 355.321 137.246C356.19 137.495 357.079 137.671 357.977 137.771C358.95 137.844 359.878 138.21 360.64 138.82C361.297 139.557 361.853 140.38 362.291 141.265C362.813 142.11 363.431 142.892 364.134 143.595C365.606 145.069 367.394 146.189 369.363 146.871C371.43 147.586 373.644 147.771 375.801 147.409C378.082 146.976 380.214 145.965 381.993 144.473C383.771 142.98 385.136 141.056 385.958 138.884L386.003 138.763H386.137C387.92 139.037 389.737 138.985 391.5 138.609C393.316 138.212 395.049 137.501 396.62 136.51C398.227 135.5 399.629 134.197 400.755 132.67C401.87 131.078 402.654 129.278 403.059 127.377C403.432 125.599 403.497 123.769 403.251 121.969C403.002 120.198 402.45 118.484 401.619 116.9C401.401 116.516 401.177 116.132 400.94 115.767C400.704 115.402 400.448 115.031 400.16 114.711C399.009 113.423 397.58 112.414 395.98 111.761C395.213 111.431 394.374 111.298 393.542 111.377H393.35V111.185C393.38 109.389 393.165 107.598 392.71 105.86C392.296 104.161 391.65 102.526 390.79 101.003C389.971 99.5444 388.852 98.277 387.507 97.2841C386.192 96.3119 384.729 95.5577 383.174 95.0505C381.682 94.5532 380.12 94.2982 378.547 94.2953C377.041 94.2795 375.546 94.5532 374.144 95.1017C372.804 95.6165 371.629 96.4859 370.745 97.6169C369.901 98.6841 369.423 99.9946 369.382 101.354V101.63L369.177 101.45C367.491 99.9929 365.402 99.0803 363.187 98.8329C361.232 98.5996 359.25 98.8661 357.427 99.6073C355.838 100.265 354.445 101.321 353.382 102.673C352.485 103.815 351.816 105.118 351.411 106.513C351.082 107.62 350.916 108.769 350.918 109.924C350.925 110.773 351.026 111.619 351.219 112.446C351.337 112.955 351.497 113.454 351.699 113.937C351.827 114.27 351.884 114.43 351.884 114.43C351.884 114.43 351.801 114.263 351.66 113.943C351.445 113.465 351.274 112.968 351.148 112.458C350.937 111.621 350.824 110.762 350.809 109.898C350.8 108.732 350.96 107.57 351.283 106.449C351.681 105.037 352.348 103.716 353.248 102.558C354.321 101.174 355.734 100.091 357.35 99.4153C359.208 98.6423 361.233 98.3602 363.232 98.5961C365.479 98.8525 367.597 99.7778 369.312 101.252L369.1 101.342C369.1 98.5641 371.2 95.9081 374.009 94.8329C375.435 94.2706 376.956 93.9881 378.489 94.0009C380.101 93.9832 381.705 94.2274 383.238 94.7241C384.825 95.2374 386.319 96.0047 387.66 96.9961C389.072 98.012 390.247 99.3221 391.104 100.836C391.967 102.385 392.613 104.045 393.024 105.77C393.479 107.538 393.695 109.36 393.664 111.185L393.478 111.018C394.366 110.929 395.263 111.068 396.083 111.422C396.906 111.754 397.686 112.183 398.406 112.702C399.141 113.209 399.81 113.807 400.396 114.481C400.704 114.82 400.934 115.204 401.203 115.562C401.472 115.921 401.67 116.33 401.894 116.721C402.743 118.341 403.308 120.094 403.564 121.905C403.817 123.743 403.752 125.612 403.372 127.428C402.959 129.374 402.156 131.216 401.011 132.842C399.864 134.416 398.431 135.76 396.787 136.804C395.179 137.816 393.408 138.539 391.552 138.942C389.746 139.328 387.885 139.38 386.06 139.095L386.24 138.987C385.404 141.22 384.007 143.2 382.183 144.736C380.359 146.272 378.17 147.311 375.827 147.755C373.619 148.122 371.355 147.928 369.241 147.191C367.234 146.489 365.412 145.343 363.91 143.838C363.193 143.117 362.563 142.313 362.035 141.444C361.61 140.583 361.072 139.782 360.435 139.063C359.716 138.481 358.836 138.133 357.913 138.065C357.003 137.965 356.104 137.785 355.225 137.527C353.562 137.012 352.018 136.173 350.681 135.057C349.466 134.026 348.434 132.797 347.628 131.422C346.265 129.055 345.735 126.298 346.124 123.594C346.404 121.586 347.135 119.667 348.262 117.982C348.962 116.923 349.826 115.984 350.822 115.198C351.071 114.991 351.332 114.799 351.603 114.622L351.884 114.417Z" fill="#263238"/>
<path d="M348.269 145.854C348.269 146.573 348.482 147.276 348.881 147.874C349.281 148.471 349.848 148.937 350.513 149.212C351.177 149.488 351.908 149.56 352.613 149.419C353.318 149.279 353.966 148.933 354.474 148.424C354.983 147.916 355.329 147.268 355.469 146.563C355.609 145.858 355.537 145.127 355.262 144.463C354.987 143.799 354.521 143.231 353.923 142.831C353.326 142.432 352.623 142.219 351.904 142.219C350.94 142.219 350.015 142.602 349.333 143.283C348.652 143.965 348.269 144.89 348.269 145.854Z" fill="white"/>
<path d="M348.268 145.854C348.26 145.777 348.26 145.7 348.268 145.623C348.268 145.408 348.292 145.193 348.338 144.983C348.522 144.158 348.989 143.422 349.657 142.903C350.378 142.353 351.273 142.081 352.178 142.137C353.084 142.193 353.938 142.574 354.585 143.21C355.233 143.845 355.629 144.693 355.702 145.597C355.774 146.501 355.519 147.401 354.982 148.132C354.685 148.536 354.31 148.876 353.879 149.132C353.449 149.388 352.971 149.555 352.475 149.624C351.978 149.693 351.473 149.661 350.989 149.531C350.505 149.401 350.052 149.176 349.657 148.868C348.988 148.35 348.521 147.614 348.338 146.788C348.291 146.578 348.268 146.363 348.268 146.148C348.26 146.069 348.26 145.99 348.268 145.911C348.306 145.911 348.268 146.238 348.447 146.782C348.666 147.552 349.134 148.227 349.778 148.702C350.298 149.091 350.915 149.327 351.561 149.385C352.207 149.443 352.857 149.32 353.437 149.03C354.017 148.74 354.505 148.293 354.846 147.741C355.187 147.19 355.368 146.554 355.368 145.905C355.368 145.256 355.187 144.62 354.846 144.068C354.505 143.516 354.017 143.07 353.437 142.78C352.857 142.49 352.207 142.366 351.561 142.424C350.915 142.482 350.298 142.719 349.778 143.108C349.134 143.583 348.666 144.258 348.447 145.028C348.294 145.534 348.306 145.86 348.268 145.854Z" fill="#263238"/>
<path d="M196.276 58.55C200.116 50.6652 197.556 40.2524 190.574 34.9852C183.592 29.718 172.878 30.166 166.35 36.0028C166.35 32.3356 164.187 28.8668 161.23 26.7292C158.163 24.6682 154.551 23.5695 150.856 23.574C147.332 23.5011 143.83 24.1404 140.559 25.4534C137.289 26.7665 134.317 28.7264 131.822 31.2156C126.875 36.2076 124.18 45.9356 124.424 52.9756C120.507 52.3356 114.824 56.1244 112.372 59.2604C106.024 67.4716 105.3 79.6124 110.625 88.5212C115.95 97.43 126.984 102.544 137.224 100.841C138.686 104.962 141.293 108.579 144.739 111.27C148.185 113.961 152.327 115.613 156.679 116.032C161.031 116.451 165.412 115.62 169.308 113.637C173.205 111.654 176.455 108.6 178.676 104.835C179.598 103.273 180.385 101.539 181.876 100.47C183.56 99.254 185.768 99.1899 187.816 98.838C192.211 98.1233 196.286 96.0955 199.507 93.021C202.728 89.9465 204.943 85.9694 205.862 81.6124C206.78 77.2554 206.358 72.7225 204.652 68.6097C202.946 64.4969 200.035 60.9967 196.302 58.5692L196.276 58.55Z" fill="white"/>
<path d="M196.277 58.55L196.757 58.87C197.223 59.177 197.672 59.5104 198.101 59.8684C199.802 61.2337 201.275 62.8604 202.466 64.6876C204.406 67.5886 205.66 70.8936 206.133 74.3516C206.796 78.9962 205.881 83.7289 203.534 87.7916C201.426 91.4489 198.356 94.459 194.658 96.4956C194.018 96.8796 193.314 97.1356 192.635 97.494L191.56 97.9036L191.022 98.1084L190.466 98.2748C188.951 98.7168 187.401 99.0252 185.832 99.1964C184.27 99.4268 182.632 99.8364 181.435 100.937C180.238 102.038 179.515 103.619 178.645 105.078C177.745 106.568 176.671 107.945 175.445 109.18C174.805 109.82 174.165 110.396 173.467 110.979C172.77 111.561 172.027 112.06 171.253 112.534C169.691 113.514 168.025 114.319 166.286 114.934C162.656 116.203 158.764 116.535 154.971 115.9C151.021 115.162 147.325 113.428 144.232 110.864C140.988 108.242 138.514 104.792 137.07 100.88L137.25 100.988C134.115 101.476 130.918 101.387 127.816 100.726C124.637 100.032 121.605 98.7863 118.856 97.046C116.032 95.2534 113.57 92.9456 111.598 90.2428C109.633 87.4515 108.254 84.29 107.547 80.95C106.877 77.8249 106.751 74.6075 107.176 71.4396C107.615 68.331 108.587 65.3214 110.05 62.5436C110.427 61.8652 110.818 61.1996 111.24 60.5468L111.88 59.606L112.213 59.1388L112.584 58.6908C114.613 56.4026 117.146 54.6171 119.982 53.4748C121.379 52.8759 122.905 52.6403 124.418 52.79L124.232 52.95C124.171 49.8107 124.539 46.6777 125.326 43.638C125.707 42.1489 126.186 40.6865 126.76 39.2604C127.292 37.8451 127.934 36.4734 128.68 35.158C130.157 32.5774 132.172 30.3446 134.587 28.6108C136.898 26.9088 139.47 25.5945 142.203 24.7196C143.524 24.2824 144.879 23.9591 146.254 23.7532C147.6 23.5314 148.962 23.4265 150.325 23.4396C152.974 23.4117 155.604 23.8964 158.069 24.8668C160.439 25.789 162.514 27.3374 164.072 29.3468C165.571 31.253 166.415 33.5917 166.478 36.0156L166.267 35.9196C169.213 33.3856 172.852 31.7957 176.712 31.3564C180.147 30.9509 183.628 31.4312 186.824 32.7516C188.261 33.3523 189.612 34.1399 190.843 35.094C191.422 35.5477 191.969 36.0395 192.482 36.566C192.982 37.0675 193.45 37.5997 193.883 38.1596C195.433 40.1502 196.585 42.4209 197.275 44.8476C197.834 46.7796 198.112 48.782 198.101 50.7932C198.084 51.5984 198.02 52.402 197.909 53.1996C197.819 53.861 197.693 54.5169 197.531 55.1644C197.313 56.0406 197.022 56.8969 196.661 57.7244L196.277 58.5756L196.622 57.7244C196.971 56.8954 197.252 56.0392 197.461 55.1644C197.619 54.5192 197.738 53.8653 197.819 53.206C197.927 52.4125 197.984 51.6131 197.992 50.8124C197.993 48.8131 197.709 46.824 197.147 44.9052C196.446 42.5011 195.293 40.2529 193.749 38.2812C193.319 37.7305 192.853 37.2088 192.354 36.7196C191.857 36.1872 191.324 35.689 190.76 35.2284C189.542 34.2859 188.203 33.511 186.779 32.9244C183.614 31.6237 180.167 31.1566 176.77 31.5676C172.95 32.0029 169.35 33.5798 166.44 36.0924L166.235 36.278V36.0028C166.173 33.636 165.347 31.3528 163.88 29.494C162.349 27.5227 160.309 26.0069 157.979 25.11C155.545 24.1606 152.951 23.687 150.338 23.7148C148.991 23.7052 147.647 23.8101 146.318 24.0284C144.958 24.233 143.618 24.5541 142.312 24.9884C139.619 25.8553 137.084 27.1521 134.805 28.8284C132.423 30.5397 130.439 32.7445 128.987 35.2924C128.244 36.5913 127.602 37.9457 127.067 39.3436C126.516 40.7632 126.056 42.2169 125.691 43.6956C124.915 46.7088 124.551 49.8134 124.61 52.9244V53.11H124.418C122.966 52.9629 121.5 53.183 120.155 53.75C118.77 54.2997 117.457 55.0153 116.245 55.8812C115.008 56.7405 113.88 57.7462 112.885 58.8764L112.526 59.3116L112.194 59.7788L111.554 60.7068C111.138 61.3468 110.754 61.9868 110.376 62.6716C108.935 65.4161 107.978 68.3888 107.547 71.4588C107.117 74.5821 107.23 77.7562 107.88 80.8412C108.582 84.1355 109.94 87.2547 111.874 90.0124C113.822 92.681 116.253 94.9605 119.042 96.7324C121.767 98.4543 124.774 99.6847 127.925 100.368C130.985 101.019 134.138 101.108 137.23 100.63H137.365L137.41 100.758C138.823 104.626 141.255 108.041 144.45 110.64C147.498 113.172 151.141 114.886 155.035 115.619C158.778 116.252 162.619 115.928 166.203 114.678C167.921 114.071 169.568 113.277 171.112 112.31C171.867 111.835 172.598 111.323 173.301 110.774C173.983 110.217 174.637 109.625 175.259 109.001C176.486 107.787 177.56 106.429 178.459 104.956C179.349 103.523 180.046 101.929 181.301 100.764C181.923 100.193 182.658 99.7566 183.458 99.4844C184.234 99.2342 185.03 99.0542 185.838 98.9468C187.396 98.7792 188.936 98.4751 190.44 98.038L190.99 97.878L191.522 97.6796L192.584 97.2764C193.262 96.9436 193.96 96.6684 194.587 96.2844C195.856 95.5873 197.057 94.7754 198.178 93.8588C200.254 92.1115 202.02 90.0255 203.4 87.6892C205.746 83.6614 206.668 78.961 206.018 74.3452C205.56 70.9046 204.33 67.612 202.421 64.7132C201.241 62.8912 199.789 61.2615 198.114 59.8812C197.563 59.3884 197.07 59.0876 196.776 58.8508C196.482 58.614 196.277 58.55 196.277 58.55Z" fill="#263238"/>
<path d="M196.245 119.068C199.709 119.068 202.517 116.26 202.517 112.796C202.517 109.332 199.709 106.524 196.245 106.524C192.781 106.524 189.973 109.332 189.973 112.796C189.973 116.26 192.781 119.068 196.245 119.068Z" fill="white"/>
<path d="M202.517 112.796C202.462 112.288 202.377 111.784 202.261 111.286C201.896 109.935 201.09 108.745 199.97 107.907C199.215 107.336 198.339 106.948 197.41 106.774C196.337 106.583 195.234 106.678 194.21 107.049C193.637 107.255 193.099 107.549 192.616 107.92C192.124 108.276 191.692 108.708 191.336 109.2C190.567 110.247 190.152 111.513 190.152 112.812C190.152 114.112 190.567 115.378 191.336 116.425C191.692 116.917 192.124 117.349 192.616 117.705C193.086 118.061 193.608 118.342 194.165 118.537C195.126 118.892 196.162 119.001 197.176 118.852C198.19 118.703 199.151 118.302 199.97 117.686C201.094 116.854 201.908 115.668 202.28 114.32C202.397 113.82 202.482 113.313 202.536 112.803C202.577 113.323 202.534 113.846 202.408 114.352C202.127 115.537 201.51 116.616 200.63 117.459C199.75 118.301 198.645 118.871 197.448 119.1C196.321 119.319 195.156 119.231 194.075 118.844C193.491 118.638 192.94 118.344 192.443 117.974C191.92 117.595 191.459 117.134 191.08 116.611C190.266 115.509 189.826 114.176 189.826 112.806C189.826 111.436 190.266 110.103 191.08 109.001C191.459 108.478 191.92 108.018 192.443 107.638C192.94 107.268 193.491 106.974 194.075 106.768C195.156 106.383 196.32 106.292 197.448 106.505C198.425 106.697 199.344 107.116 200.13 107.728C201.274 108.607 202.079 109.855 202.408 111.26C202.527 111.763 202.564 112.282 202.517 112.796Z" fill="#263238"/>
<path d="M370.924 120.964C370.924 121.31 370.822 121.647 370.63 121.935C370.438 122.222 370.165 122.446 369.846 122.578C369.526 122.71 369.175 122.745 368.836 122.678C368.497 122.61 368.186 122.444 367.941 122.199C367.697 121.955 367.531 121.644 367.463 121.305C367.396 120.966 367.43 120.615 367.563 120.295C367.695 119.976 367.919 119.703 368.206 119.511C368.494 119.319 368.831 119.217 369.177 119.217C369.64 119.217 370.085 119.401 370.412 119.729C370.74 120.056 370.924 120.501 370.924 120.964Z" fill="#263238"/>
<path d="M377.842 120.964C377.842 121.31 377.74 121.647 377.548 121.935C377.356 122.222 377.083 122.446 376.763 122.578C376.444 122.71 376.093 122.745 375.754 122.678C375.415 122.61 375.104 122.444 374.859 122.199C374.615 121.955 374.449 121.644 374.381 121.305C374.314 120.966 374.348 120.615 374.481 120.295C374.613 119.976 374.837 119.703 375.124 119.511C375.411 119.319 375.749 119.217 376.095 119.217C376.558 119.217 377.003 119.401 377.33 119.729C377.658 120.056 377.842 120.501 377.842 120.964Z" fill="#263238"/>
<path d="M384.761 120.964C384.761 121.31 384.658 121.648 384.466 121.936C384.273 122.224 383.999 122.448 383.679 122.579C383.359 122.711 383.007 122.745 382.668 122.677C382.329 122.608 382.018 122.441 381.774 122.195C381.53 121.949 381.365 121.637 381.299 121.297C381.233 120.957 381.269 120.606 381.403 120.287C381.538 119.967 381.763 119.695 382.052 119.505C382.341 119.315 382.681 119.214 383.027 119.217C383.488 119.22 383.929 119.406 384.254 119.733C384.579 120.06 384.761 120.503 384.761 120.964Z" fill="#263238"/>
<path d="M145.96 74.0963C147.565 74.0963 148.866 72.7955 148.866 71.1908C148.866 69.586 147.565 68.2852 145.96 68.2852C144.356 68.2852 143.055 69.586 143.055 71.1908C143.055 72.7955 144.356 74.0963 145.96 74.0963Z" fill="#263238"/>
<path d="M157.474 74.0963C159.079 74.0963 160.38 72.7955 160.38 71.1908C160.38 69.586 159.079 68.2852 157.474 68.2852C155.869 68.2852 154.568 69.586 154.568 71.1908C154.568 72.7955 155.869 74.0963 157.474 74.0963Z" fill="#263238"/>
<path d="M171.893 71.1908C171.895 71.7672 171.725 72.3311 171.405 72.811C171.086 73.2908 170.631 73.6651 170.099 73.8863C169.566 74.1075 168.98 74.1657 168.415 74.0535C167.849 73.9414 167.33 73.6639 166.922 73.2562C166.515 72.8486 166.237 72.3292 166.125 71.7637C166.013 71.1982 166.071 70.6122 166.292 70.0798C166.513 69.5475 166.888 69.0927 167.368 68.7732C167.847 68.4538 168.411 68.2839 168.988 68.2852C169.758 68.2869 170.496 68.5935 171.04 69.1381C171.585 69.6826 171.892 70.4207 171.893 71.1908Z" fill="#263238"/>
<path d="M218.976 138.419C218.976 138.419 203.302 142.899 200.416 155.008C197.658 166.528 192 191.859 192 191.859C192 191.859 213.99 190.72 222.637 187.776L218.976 138.419Z" fill="#F877A0"/>
<path d="M287.207 134.995C286.375 134.457 275.239 132.141 275.239 132.141L248.397 132.838L238.797 134.611C238.797 134.611 237.018 164.441 237.28 164.979C237.543 165.517 249.965 175.75 250.49 176.288C251.015 176.825 276.66 168.211 276.66 168.211L293.575 137.869L287.207 134.995Z" fill="#FFBF9D"/>
<path d="M351.315 216.64C352.662 214.428 353.411 211.905 353.491 209.317C353.571 206.729 352.977 204.165 351.769 201.875C347.673 193.766 310.374 145.772 310.374 145.772C310.374 145.772 296.192 157.376 296.973 170.841L302.95 185.772L327.168 209.145L351.315 216.64Z" fill="#FFBF9D"/>
<path d="M284.064 133.805C285.414 133.805 303.392 137.786 309.485 142.957C315.942 148.442 335.168 172.327 335.168 172.327L306.873 192.41L303.885 188.41L299.11 218.426C299.11 218.426 311.437 251.667 313.056 264.327L205.99 264.096C205.99 264.096 215.27 236.365 219.11 227.379C219.865 225.619 211.827 198.106 211.865 190.855C211.923 179.2 215.251 156.109 215.251 156.109L218.989 138.419L244.71 133.523C244.71 133.523 248.121 148.051 262.387 148.051C279.149 148.051 284.064 133.805 284.064 133.805Z" fill="#F877A0"/>
<g opacity="0.3">
<path d="M312.051 258.093C311.93 256.551 311.815 255.015 311.693 253.479L293.491 245.799H279.271C279.331 246.407 279.543 246.99 279.887 247.494C280.232 247.998 280.697 248.408 281.242 248.685C282.337 249.221 283.513 249.572 284.723 249.722C285.934 249.865 287.109 250.225 288.192 250.784C287.26 251.209 286.408 251.789 285.671 252.5C287.591 254.17 290.503 253.626 292.979 254.196C296.973 255.117 299.661 258.938 303.462 260.474C305.664 261.356 308.109 261.422 310.355 260.66C310.683 260.582 310.992 260.44 311.263 260.241C311.535 260.042 311.764 259.791 311.936 259.501C312.094 259.049 312.134 258.565 312.051 258.093Z" fill="black"/>
</g>
<path d="M301.741 162.905C301.801 163.038 301.846 163.178 301.875 163.321L302.195 164.537C302.336 165.068 302.49 165.715 302.637 166.457C302.784 167.2 302.982 168.083 303.123 169.049C303.206 169.536 303.283 170.041 303.366 170.566C303.45 171.091 303.507 171.648 303.578 172.217C303.731 173.356 303.821 174.579 303.93 175.865C304.096 178.425 304.166 181.286 304.09 184.268C303.911 189.357 303.368 194.426 302.464 199.436C302.118 201.356 301.824 202.905 301.555 203.968C301.434 204.473 301.338 204.883 301.267 205.19C301.238 205.334 301.198 205.475 301.146 205.612C301.147 205.466 301.167 205.32 301.203 205.177C301.261 204.864 301.331 204.454 301.427 203.942C301.638 202.873 301.92 201.318 302.234 199.398C303.067 194.389 303.576 189.331 303.757 184.256C303.834 181.286 303.757 178.457 303.622 175.884C303.52 174.604 303.45 173.382 303.302 172.249C303.238 171.68 303.187 171.129 303.117 170.598C303.046 170.067 302.963 169.568 302.893 169.088C302.771 168.121 302.592 167.257 302.458 166.496C302.323 165.734 302.189 165.081 302.067 164.576C301.946 164.07 301.875 163.66 301.811 163.347C301.776 163.202 301.752 163.054 301.741 162.905Z" fill="#263238"/>
<path d="M216.423 165.12C216.464 165.26 216.49 165.404 216.5 165.549C216.538 165.863 216.589 166.279 216.647 166.791C216.775 167.866 216.922 169.427 217.088 171.354C217.415 175.194 217.69 180.57 217.869 186.477C218.048 192.384 218.279 197.76 218.548 201.6C218.688 203.52 218.804 205.05 218.88 206.17C218.919 206.682 218.951 207.098 218.97 207.418C218.984 207.562 218.984 207.708 218.97 207.853C218.929 207.713 218.906 207.569 218.9 207.424C218.861 207.104 218.81 206.695 218.746 206.183C218.618 205.107 218.471 203.546 218.304 201.613C217.978 197.773 217.709 192.403 217.53 186.49C217.351 180.576 217.114 175.245 216.852 171.379L216.512 166.803C216.512 166.291 216.448 165.882 216.429 165.562C216.415 165.415 216.413 165.267 216.423 165.12Z" fill="#263238"/>
<path d="M281.063 222.957C280.931 223.009 280.796 223.051 280.659 223.085L279.495 223.386C278.477 223.642 277.005 223.981 275.168 224.365C270.389 225.341 265.564 226.073 260.711 226.56C255.856 227.049 250.979 227.286 246.099 227.271C244.231 227.271 242.714 227.226 241.671 227.175L240.467 227.111C240.325 227.11 240.184 227.095 240.045 227.066C240.185 227.049 240.327 227.049 240.467 227.066H241.671C242.72 227.066 244.231 227.066 246.099 227.066C249.837 227.021 255.002 226.823 260.672 226.253C266.343 225.683 271.45 224.851 275.117 224.147C276.954 223.795 278.439 223.507 279.456 223.271L280.64 223.027C280.777 222.986 280.919 222.962 281.063 222.957Z" fill="#263238"/>
<path d="M289.632 51.482C294.285 47.9556 303.712 50.3684 305.44 53.5876C307.282 53.0979 309.241 53.3377 310.91 54.2569C312.58 55.1761 313.83 56.7039 314.4 58.522L324.128 62.6308C325.786 63.3348 327.52 64.09 328.608 65.5044C329.696 66.9188 329.933 69.2164 328.608 70.4004C332.013 71.994 332.448 77.5748 329.293 79.6548C329.561 80.1151 329.731 80.6251 329.795 81.1537C329.858 81.6823 329.813 82.2183 329.662 82.7288C329.511 83.2393 329.257 83.7136 328.917 84.1227C328.576 84.5317 328.155 84.8668 327.68 85.1076C329.858 88.9965 331.358 93.2275 332.116 97.6196C332.429 99.4564 332.583 101.46 331.623 103.06C330.663 104.66 328.192 105.421 326.906 104.071C327.273 104.868 327.403 105.754 327.281 106.624C327.158 107.493 326.788 108.308 326.215 108.973C327.924 109.332 327.943 112.077 326.528 113.108C325.114 114.138 323.175 113.908 321.466 113.549C319.757 113.191 317.92 112.756 316.346 113.472C316.323 113.685 316.342 113.9 316.404 114.104C316.465 114.309 316.568 114.499 316.704 114.663C319.2 117.607 319.264 121.895 316.487 124.57L315.751 125.255C314.471 126.477 311.789 127.316 310.112 127.815C305.856 129.095 303.616 128.301 299.168 128.122C299.808 131.13 291.642 136.013 284.724 128.429C267.853 129.754 255.968 129.236 239.328 126.176C236.954 125.741 234.164 124.896 233.504 122.567C231.488 122.72 229.575 121.434 228.384 119.776C227.194 118.119 226.669 116.122 226.138 114.17C224.198 113.194 222.609 111.641 221.588 109.725C220.567 107.809 220.164 105.623 220.436 103.469C219.25 102.111 218.36 100.522 217.822 98.8026C217.283 97.0829 217.107 95.2699 217.306 93.4788C213.536 91.514 212.301 85.9204 214.893 82.554C216.671 77.8077 219.22 73.3877 222.439 69.4724C219.828 68.378 219.488 64.5188 221.082 62.1764C222.676 59.834 225.453 58.6564 228.084 57.6004C225.946 57.7604 224.647 54.874 225.524 52.9156C226.4 50.9572 228.493 49.8884 230.503 49.146C233.444 48.0457 236.509 47.3085 239.629 46.9508C241.268 43.5524 246.605 40.3268 250.253 39.3668C264.973 35.4884 274.752 35.6292 289.639 51.4692" fill="#263238"/>
<path d="M247.162 70.2401C249.978 61.1329 258.842 51.2577 267.827 54.4513L294.855 68.6657C296.172 69.1344 297.266 70.0801 297.92 71.316C298.574 72.5518 298.741 73.988 298.387 75.3409L282.547 136.781C281.547 140.665 279.235 144.084 276.003 146.459C272.772 148.835 268.819 150.021 264.813 149.818C262.322 149.691 259.888 149.03 257.675 147.88C255.462 146.73 253.522 145.118 251.986 143.153C250.451 141.187 249.355 138.915 248.775 136.489C248.194 134.064 248.142 131.542 248.621 129.094C249.459 124.826 250.074 121.613 250.067 121.632C250.061 121.651 238.72 116.826 239.987 100.813C240.621 92.8513 244.071 80.3649 247.162 70.2401Z" fill="#FFBE9D"/>
<path d="M250.554 85.2739C250.424 85.7887 250.501 86.3339 250.767 86.793C251.034 87.2522 251.47 87.5889 251.981 87.7315C252.227 87.8164 252.488 87.8504 252.747 87.8314C253.007 87.8125 253.26 87.741 253.491 87.6213C253.722 87.5016 253.926 87.3361 254.091 87.135C254.256 86.9339 254.379 86.7014 254.451 86.4515C254.579 85.9384 254.503 85.3956 254.238 84.938C253.972 84.4805 253.54 84.1442 253.031 84.0003C252.785 83.9142 252.524 83.8792 252.264 83.8972C252.004 83.9152 251.75 83.9859 251.519 84.1051C251.287 84.2242 251.082 84.3893 250.916 84.5902C250.75 84.7912 250.627 85.0238 250.554 85.2739Z" fill="#263238"/>
<path d="M248.314 77.44C248.493 77.76 250.234 77.0112 252.391 77.5296C254.548 78.048 255.821 79.488 256.116 79.2832C256.256 79.1936 256.116 78.6432 255.559 78.0032C254.79 77.144 253.776 76.5428 252.653 76.2816C251.548 76.0088 250.384 76.0963 249.332 76.5312C248.551 76.8832 248.218 77.2992 248.314 77.44Z" fill="#263238"/>
<path d="M270.106 90.1829C269.976 90.6961 270.052 91.2397 270.317 91.6976C270.583 92.1556 271.017 92.4916 271.527 92.6341C271.773 92.719 272.033 92.753 272.293 92.7341C272.552 92.7151 272.805 92.6436 273.036 92.5239C273.267 92.4042 273.472 92.2388 273.637 92.0377C273.802 91.8366 273.925 91.604 273.997 91.3541C274.125 90.841 274.048 90.2982 273.783 89.8407C273.518 89.3832 273.085 89.0468 272.576 88.9029C272.33 88.818 272.07 88.784 271.81 88.8029C271.551 88.8219 271.298 88.8934 271.067 89.0131C270.835 89.1328 270.631 89.2982 270.466 89.4993C270.301 89.7004 270.178 89.933 270.106 90.1829Z" fill="#263238"/>
<path d="M269.139 82.8799C269.319 83.1999 271.091 82.4511 273.216 82.9695C275.341 83.4879 276.647 84.9279 276.941 84.7231C277.082 84.6335 276.941 84.0831 276.378 83.4431C275.62 82.592 274.619 81.9934 273.511 81.7279C272.405 81.4551 271.241 81.5425 270.189 81.9775C269.383 82.3231 269.031 82.7391 269.139 82.8799Z" fill="#263238"/>
<path d="M257.606 96.8067C257.651 96.6851 256.377 96.1667 254.304 95.3475C253.773 95.1619 253.286 94.9251 253.28 94.5347C253.372 93.9624 253.635 93.4314 254.035 93.0115L256.64 89.2611C260.288 83.9043 263.072 79.4499 262.854 79.3091C262.637 79.1683 259.501 83.3795 255.853 88.7363L253.293 92.5315C252.792 93.1025 252.511 93.833 252.499 94.5923C252.532 94.803 252.613 95.0035 252.735 95.1786C252.857 95.3537 253.017 95.499 253.203 95.6035C253.484 95.7575 253.783 95.8757 254.093 95.9555C256.23 96.5891 257.574 96.9219 257.606 96.8067Z" fill="#263238"/>
<path d="M250.067 121.632C257.303 123.495 264.914 123.311 272.051 121.101C272.051 121.101 264.486 130.489 249.401 125.325L250.067 121.632Z" fill="#FF9A6C"/>
<path d="M270.311 73.8941C270.381 74.5341 272.57 74.7581 274.995 75.6605C277.421 76.5629 279.277 77.7341 279.731 77.2925C279.943 77.0813 279.731 76.4541 279.04 75.6925C278.125 74.7442 276.997 74.0269 275.751 73.5997C274.51 73.1327 273.175 72.9724 271.859 73.1325C270.855 73.2541 270.311 73.5997 270.311 73.8941Z" fill="#263238"/>
<path d="M250.829 70.2973C251.085 70.8733 252.672 70.7261 254.439 71.1229C256.205 71.5197 257.639 72.2365 258.087 71.8141C258.298 71.6029 258.176 71.0589 257.632 70.4445C256.889 69.685 255.936 69.1639 254.896 68.9473C253.855 68.7308 252.774 68.8287 251.789 69.2285C251.047 69.5741 250.72 70.0221 250.829 70.2973Z" fill="#263238"/>
<path d="M238.714 76.3584C239.255 73.907 240.628 71.7183 242.599 70.1632C243.706 69.3632 245.005 68.8448 246.023 67.936C248.224 65.9776 248.583 62.7328 249.863 60.0832C250.71 58.379 251.952 56.9013 253.484 55.7727C255.017 54.6441 256.797 53.8971 258.676 53.5936C261.799 53.12 265.076 53.9008 268.103 52.9536C270.336 52.2688 272.237 50.7072 274.503 50.1568C278.925 49.0944 283.226 52.0768 286.618 55.1168C286.791 58.3168 284.346 60.5696 281.997 62.7456C280.813 63.8261 279.408 64.6364 277.88 65.1204C276.352 65.6045 274.736 65.7506 273.146 65.5488C270.688 65.2224 267.956 64.1216 265.908 65.5488C263.757 67.0272 263.834 70.3744 261.946 72.1792C259.252 74.7392 254.669 72.6912 251.149 73.9264C248.436 74.8736 246.842 77.5936 245.12 79.904C243.399 82.2144 240.756 84.4544 237.959 83.744C237.926 81.2613 238.18 78.7831 238.714 76.3584Z" fill="#263238"/>
<path d="M279.501 59.5205C286.645 60.8014 293.474 63.4552 299.609 67.3349C301.433 68.4869 303.283 69.8629 304.089 71.8725C304.774 73.6453 304.512 75.6229 304.128 77.4789C302.925 83.2965 299.193 89.9717 295.923 94.9317L287.795 97.8757C282.451 95.4565 286.905 86.2789 288.115 81.4853C286.338 80.2146 284.954 78.471 284.119 76.4526C283.284 74.4343 283.032 72.2221 283.392 70.0677C281.989 68.7172 280.911 67.0668 280.237 65.2402C279.563 63.4136 279.311 61.4582 279.501 59.5205Z" fill="#263238"/>
<path d="M288.276 95.7885C289.14 92.4989 293.364 92.6461 295.892 94.9181C297.28 96.1661 298.106 98.2653 297.21 101.76C294.836 111.097 285.959 106.784 286.01 106.515C286.061 106.246 287.258 99.6413 288.276 95.7885Z" fill="#FFBF9D"/>
<path d="M289.76 103.68C289.805 103.68 289.894 103.833 290.138 104.025C290.481 104.291 290.915 104.413 291.347 104.365C292.422 104.249 293.651 102.899 294.125 101.229C294.352 100.434 294.398 99.5984 294.259 98.7837C294.238 98.4788 294.145 98.1832 293.987 97.9216C293.829 97.66 293.611 97.44 293.35 97.2797C293.175 97.1832 292.972 97.1509 292.776 97.1883C292.58 97.2257 292.403 97.3304 292.275 97.4845C292.083 97.7149 292.096 97.9133 292.045 97.9197C291.994 97.9261 291.885 97.7085 292.045 97.3437C292.157 97.1254 292.34 96.9516 292.563 96.8509C292.869 96.7281 293.211 96.7281 293.517 96.8509C293.882 97.0221 294.196 97.2848 294.429 97.6133C294.662 97.9419 294.807 98.3253 294.848 98.7261C295.042 99.6353 295.009 100.578 294.752 101.472C294.214 103.341 292.8 104.851 291.354 104.902C291.084 104.909 290.816 104.855 290.57 104.744C290.324 104.633 290.106 104.469 289.933 104.262C289.715 103.929 289.722 103.712 289.76 103.68Z" fill="#FF9A6C"/>
<path d="M293.242 110.521C293.744 110.637 294.256 110.703 294.771 110.72C295.362 110.753 295.954 110.692 296.525 110.541L296.423 110.464C296.397 111.289 296.586 112.106 296.97 112.836C297.354 113.567 297.92 114.185 298.614 114.632C299.308 115.078 300.106 115.337 300.93 115.384C301.753 115.431 302.575 115.264 303.315 114.899L303.162 114.835C303.363 115.319 303.747 115.703 304.231 115.904C304.722 116.109 305.262 116.167 305.786 116.07C306.33 115.983 306.83 115.717 307.207 115.315C307.588 114.903 307.859 114.401 307.994 113.856C308.25 112.724 308.103 111.538 307.578 110.502C307.024 109.455 306.345 108.48 305.555 107.597L305.498 107.814C305.933 107.644 306.328 107.386 306.659 107.055C306.989 106.725 307.248 106.329 307.418 105.894C307.787 104.997 307.883 104.011 307.693 103.059C307.471 102.098 307.064 101.19 306.496 100.384C305.926 99.5679 305.304 98.7897 304.634 98.0542L304.602 98.2718C305.012 97.9721 305.355 97.5892 305.608 97.1481C305.86 96.707 306.017 96.2176 306.067 95.7118C306.201 94.6778 306.02 93.6275 305.549 92.6974C304.634 90.9182 303.04 89.715 301.568 88.5886L301.613 88.7678C302.045 87.8315 302.245 86.8046 302.195 85.7746C302.145 84.7446 301.846 83.7419 301.325 82.852C300.804 81.962 300.076 81.2111 299.202 80.6633C298.329 80.1154 297.336 79.7868 296.307 79.7054L296.423 79.8974C296.735 79.1156 296.862 78.2725 296.796 77.4334C296.729 76.5943 296.47 75.7818 296.039 75.059C295.674 74.3714 295.164 73.7706 294.546 73.2979C293.927 72.8252 293.214 72.4915 292.455 72.3198L292.551 72.467C292.686 71.6593 292.636 70.8312 292.403 70.046C292.17 69.2608 291.761 68.5391 291.207 67.9358C290.744 67.3883 290.174 66.9408 289.533 66.6207C288.891 66.3005 288.191 66.1143 287.475 66.0734L287.565 66.1886C287.677 65.324 287.576 64.4452 287.271 63.6286C287.02 62.9028 286.65 62.2238 286.176 61.619C285.44 60.6389 284.401 59.93 283.219 59.603L282.867 59.507L282.528 59.4686C282.327 59.4419 282.124 59.4269 281.92 59.4238C281.601 59.4282 281.282 59.4538 280.967 59.5006L280.397 59.6222L280.205 59.6734C280.271 59.6796 280.337 59.6796 280.403 59.6734L280.973 59.5774C281.287 59.5376 281.604 59.5205 281.92 59.5262C282.12 59.5339 282.318 59.5532 282.515 59.5838L282.848 59.6286L283.187 59.7246C284.341 60.0592 285.35 60.7686 286.055 61.7406C286.515 62.3334 286.872 62.9999 287.111 63.7118C287.401 64.5031 287.494 65.3535 287.379 66.1886V66.2974H287.488C288.176 66.3409 288.848 66.5238 289.463 66.8352C290.078 67.1466 290.624 67.5798 291.066 68.1086C291.594 68.6876 291.984 69.3791 292.206 70.1308C292.427 70.8825 292.475 71.6748 292.346 72.4478V72.5694H292.467C293.213 72.7598 293.911 73.105 294.515 73.5827C295.118 74.0604 295.615 74.6598 295.971 75.342C296.328 76.0241 296.537 76.7737 296.585 77.5421C296.633 78.3104 296.519 79.0802 296.25 79.8014L296.173 79.9742H296.365C297.349 80.0505 298.299 80.3639 299.135 80.8877C299.971 81.4115 300.667 82.13 301.165 82.9817C301.662 83.8335 301.946 84.7931 301.992 85.7785C302.038 86.7639 301.844 87.7456 301.427 88.6398L301.376 88.7422L301.472 88.8126C302.938 89.939 304.493 91.123 305.363 92.8254C305.807 93.7003 305.978 94.6876 305.856 95.6606C305.811 96.126 305.669 96.5768 305.439 96.9837C305.208 97.3905 304.895 97.7444 304.519 98.0222L304.378 98.1118L304.493 98.2334C305.773 99.7118 307.104 101.261 307.488 103.104C307.671 103.999 307.584 104.927 307.239 105.773C307.086 106.179 306.85 106.549 306.545 106.858C306.241 107.168 305.876 107.411 305.472 107.571L305.287 107.635L305.415 107.782C306.189 108.648 306.855 109.604 307.399 110.63C307.914 111.614 308.059 112.749 307.808 113.83C307.717 114.332 307.477 114.796 307.12 115.161C306.763 115.526 306.305 115.775 305.805 115.878C305.345 115.989 304.86 115.943 304.43 115.745C303.999 115.548 303.647 115.212 303.431 114.79L303.386 114.681L303.271 114.733C302.562 115.083 301.774 115.245 300.984 115.202C300.195 115.159 299.429 114.913 298.762 114.487C298.096 114.062 297.55 113.471 297.178 112.773C296.806 112.075 296.621 111.293 296.64 110.502V110.393H296.538C295.983 110.543 295.409 110.608 294.835 110.585C294.327 110.575 293.822 110.515 293.325 110.406C292.533 110.268 291.779 109.964 291.111 109.517C290.688 109.252 290.365 108.853 290.195 108.384C290.106 108.064 290.112 107.878 290.093 107.878C290.074 107.878 290.093 107.923 290.093 108.013C290.089 108.143 290.108 108.273 290.151 108.397C290.302 108.887 290.621 109.309 291.053 109.587" fill="#455A64"/>
<path d="M327.955 104.749C328.128 104.597 328.285 104.428 328.422 104.244C328.825 103.718 329.118 103.117 329.286 102.477C329.565 101.447 329.495 100.353 329.088 99.3667C328.813 98.7105 328.404 98.1188 327.887 97.6296C327.37 97.1403 326.757 96.7641 326.086 96.5251L326.144 96.6531C326.774 95.1097 326.793 93.384 326.195 91.8275C325.878 90.9572 325.379 90.165 324.73 89.5043C324.005 88.8602 323.22 88.2859 322.387 87.7891C321.978 87.519 321.609 87.1913 321.293 86.8163C320.981 86.4273 320.762 85.9719 320.653 85.4851C320.41 84.4995 320.486 83.4051 320.147 82.3299C319.775 81.2262 319.081 80.259 318.155 79.552C317.229 78.8451 316.113 78.4307 314.95 78.3619L315.078 78.5539C315.468 77.4391 315.595 76.2494 315.45 75.0774C315.305 73.9053 314.892 72.7825 314.243 71.7962C313.593 70.8099 312.725 69.9866 311.706 69.3904C310.686 68.7942 309.543 68.4412 308.365 68.3587L308.493 68.5443C308.872 67.3116 308.891 65.9962 308.547 64.7531C308.204 63.51 307.512 62.3911 306.553 61.5281C305.595 60.6652 304.41 60.0942 303.138 59.8825C301.865 59.6707 300.559 59.8271 299.373 60.3331L299.52 60.3779C298.753 59.2948 297.762 58.3891 296.614 57.7219C295.591 57.1171 294.494 56.646 293.35 56.3203C291.518 55.748 289.597 55.5074 287.68 55.6099C286.452 55.6656 285.24 55.914 284.09 56.3459C283.788 56.4608 283.495 56.5977 283.213 56.7555L282.925 56.9155C282.925 56.9155 283.328 56.7171 284.115 56.4163C285.266 56.0219 286.47 55.806 287.686 55.7763C289.585 55.6997 291.483 55.9575 293.293 56.5379C294.417 56.8766 295.492 57.3584 296.493 57.9715C297.608 58.6245 298.568 59.5109 299.309 60.5699L299.366 60.6531L299.462 60.6147C300.6 60.1346 301.85 59.9881 303.067 60.1924C304.285 60.3966 305.419 60.9431 306.337 61.7681C307.255 62.593 307.92 63.6623 308.253 64.8509C308.586 66.0395 308.574 67.2984 308.218 68.4803L308.166 68.6595H308.346C309.477 68.7436 310.575 69.0864 311.553 69.6613C312.532 70.2362 313.366 71.0281 313.99 71.9758C314.614 72.9235 315.013 74.0019 315.155 75.1279C315.297 76.2539 315.179 77.3976 314.81 78.4707L314.746 78.6563H314.938C316.042 78.7219 317.101 79.1148 317.981 79.785C318.861 80.4553 319.522 81.3724 319.878 82.4195C320.211 83.4307 320.141 84.5187 320.397 85.5555C320.517 86.079 320.753 86.5689 321.088 86.9891C321.425 87.3783 321.812 87.7205 322.24 88.0067C323.065 88.4924 323.842 89.0538 324.563 89.6835C325.193 90.3165 325.678 91.0785 325.984 91.9171C326.571 93.4169 326.571 95.0829 325.984 96.5827L325.946 96.6787H326.042C326.69 96.9057 327.284 97.2646 327.786 97.7328C328.288 98.201 328.688 98.7682 328.96 99.3987C329.368 100.355 329.451 101.418 329.197 102.426C329.042 103.059 328.769 103.656 328.39 104.186C328.115 104.576 327.942 104.736 327.955 104.749Z" fill="#455A64"/>
<path d="M237.177 89.8181C237.263 89.7116 237.324 89.5876 237.356 89.4549C237.388 89.3221 237.39 89.1839 237.363 89.0501C237.312 88.7236 237.175 88.4166 236.966 88.1605C236.675 87.8185 236.315 87.5415 235.91 87.3477C235.419 87.1127 234.965 86.8089 234.56 86.4453C234.125 85.9691 233.856 85.3653 233.792 84.7237C233.711 83.983 233.772 83.2337 233.971 82.5157C234.156 81.7477 234.438 80.9413 234.611 80.0581C234.976 78.2725 234.566 76.3077 234.489 74.2469C234.438 73.1826 234.599 72.1188 234.963 71.1173C235.144 70.592 235.437 70.1122 235.821 69.7111C236.206 69.31 236.673 68.9972 237.19 68.7941C238.265 68.3909 239.488 68.4421 240.716 68.3141C241.352 68.2656 241.975 68.1121 242.56 67.8597C243.156 67.5668 243.667 67.1261 244.044 66.5797C244.735 65.4689 245.308 64.2892 245.753 63.0597C246.004 62.4582 246.342 61.8973 246.758 61.3957C247.18 60.908 247.752 60.5748 248.384 60.4485C249.28 60.3835 250.181 60.433 251.065 60.5957C251.529 60.6467 251.999 60.6207 252.454 60.5189C252.912 60.403 253.331 60.169 253.67 59.8405C254.254 59.1705 254.743 58.4232 255.123 57.6197C255.513 56.873 256.059 56.2184 256.723 55.6997C257.348 55.2063 258.07 54.848 258.841 54.6475C259.612 54.447 260.416 54.4087 261.203 54.5349C262.681 54.7813 264.013 55.5739 264.934 56.7557L265.036 56.8965L265.132 56.7557C265.894 55.7008 266.872 54.8206 268.001 54.1739C269.13 53.5271 270.384 53.1287 271.68 53.0053C272.758 52.9091 273.845 53.0243 274.88 53.3445C275.763 53.6018 276.594 54.0159 277.331 54.5669C278.366 55.3484 279.153 56.4132 279.596 57.6325C279.719 57.9516 279.82 58.2788 279.897 58.6117C279.897 58.7141 279.942 58.7973 279.961 58.8677C279.98 58.9381 279.961 58.9509 279.961 58.9509C279.964 58.9211 279.964 58.8911 279.961 58.8613C279.961 58.7973 279.961 58.7077 279.916 58.6053C279.856 58.2659 279.769 57.932 279.654 57.6069C279.228 56.3572 278.445 55.2601 277.401 54.4517C276.657 53.8761 275.813 53.4423 274.912 53.1717C273.854 52.8349 272.741 52.7088 271.635 52.8005C270.306 52.9186 269.018 53.3194 267.857 53.9762C266.695 54.633 265.688 55.5305 264.902 56.6085H265.107C264.153 55.3666 262.766 54.5301 261.222 54.2661C260.397 54.1329 259.553 54.1715 258.744 54.3797C257.934 54.5878 257.177 54.961 256.518 55.4757C255.827 56.0129 255.256 56.6887 254.841 57.4597C254.476 58.2395 254.002 58.9635 253.433 59.6101C253.116 59.8975 252.737 60.1077 252.325 60.2243C251.913 60.3408 251.48 60.3606 251.059 60.2821C250.149 60.1182 249.222 60.0709 248.3 60.1413C247.604 60.2805 246.973 60.6475 246.508 61.1845C246.071 61.7046 245.716 62.2897 245.459 62.9189C245.022 64.1324 244.46 65.2971 243.782 66.3941C243.432 66.8962 242.958 67.2996 242.406 67.5653C241.851 67.8108 241.258 67.9602 240.652 68.0069C239.449 68.1413 238.208 68.0837 237.062 68.5125C236.495 68.7188 235.987 69.0617 235.584 69.5109C235.206 69.9635 234.915 70.4821 234.726 71.0405C234.353 72.0641 234.19 73.1524 234.246 74.2405C234.336 76.3397 234.752 78.2725 234.406 80.0005C234.246 80.8581 233.971 81.6645 233.766 82.4517C233.567 83.1916 233.51 83.9627 233.6 84.7237C233.674 85.3957 233.967 86.0249 234.432 86.5157C234.853 86.8829 235.325 87.1869 235.833 87.4181C236.226 87.6037 236.578 87.8647 236.87 88.1861C237.079 88.4265 237.22 88.718 237.28 89.0309C237.339 89.2972 237.303 89.5758 237.177 89.8181Z" fill="#455A64"/>
<path d="M221.67 71.642C221.67 71.642 221.721 71.5972 221.804 71.4884C221.888 71.3796 222.009 71.2068 222.163 71.0084L223.532 69.1524C224.134 68.346 224.812 67.3284 225.747 66.2532C226.739 64.9838 228.07 64.0209 229.587 63.4756C230.432 63.2132 231.366 63.1108 232.332 62.8868C232.829 62.7789 233.311 62.609 233.766 62.3812C234.245 62.1349 234.657 61.7772 234.969 61.338C235.609 60.442 235.833 59.3348 236.39 58.394C236.652 57.9127 237.057 57.5238 237.548 57.2804C238.071 57.05 238.63 56.9114 239.2 56.8708C239.805 56.8191 240.405 56.712 240.992 56.5508C241.609 56.3623 242.151 55.9838 242.54 55.4692C243.334 54.4324 243.59 53.1396 244.057 51.962C244.266 51.364 244.595 50.8151 245.024 50.3492C245.474 49.9064 246.081 49.6583 246.713 49.658C247.993 49.658 249.273 50.298 250.675 50.3812C251.394 50.3877 252.096 50.1634 252.678 49.7412C253.229 49.337 253.729 48.8687 254.169 48.346C254.595 47.8475 255.045 47.3711 255.52 46.9188C255.973 46.482 256.53 46.1671 257.139 46.0036C258.361 45.7028 259.584 46.2276 260.697 46.7204C261.786 47.3083 262.989 47.6533 264.224 47.7316C265.394 47.6626 266.543 47.3852 267.616 46.9124C268.606 46.4779 269.637 46.1414 270.694 45.9076C272.622 45.6524 274.582 45.9684 276.332 46.8164C277.782 47.5018 279.057 48.506 280.064 49.754C280.81 50.7092 281.406 51.7733 281.83 52.9092C282.089 53.6315 282.286 54.3745 282.419 55.13C282.464 55.3732 282.502 55.5716 282.528 55.7188C282.539 55.7863 282.556 55.8527 282.579 55.9172C282.587 55.8492 282.587 55.7804 282.579 55.7124C282.579 55.5652 282.528 55.3668 282.496 55.1172C282.387 54.3532 282.207 53.6011 281.958 52.8708C281.545 51.7202 280.955 50.6407 280.211 49.6708C279.201 48.3901 277.911 47.3569 276.441 46.65C274.657 45.7702 272.654 45.4363 270.681 45.69C269.608 45.9205 268.56 46.2549 267.552 46.6884C266.508 47.1493 265.389 47.4161 264.249 47.4756C263.053 47.4022 261.887 47.0634 260.838 46.4836C260.264 46.225 259.672 46.011 259.065 45.8436C258.422 45.6386 257.735 45.6156 257.08 45.7771C256.425 45.9386 255.827 46.2784 255.353 46.7588C254.869 47.2157 254.409 47.6985 253.977 48.2052C253.554 48.71 253.073 49.1632 252.544 49.5556C252.005 49.9294 251.362 50.1242 250.707 50.1124C249.382 50.074 248.147 49.3828 246.732 49.3892C246.014 49.3866 245.325 49.6672 244.812 50.17C244.355 50.664 244.006 51.2483 243.788 51.8852C243.308 53.0884 243.046 54.362 242.316 55.322C241.96 55.7921 241.465 56.139 240.902 56.314C240.333 56.4738 239.75 56.5788 239.161 56.6276C238.562 56.6752 237.976 56.8245 237.427 57.0692C236.887 57.3361 236.441 57.76 236.147 58.2852C235.571 59.2836 235.347 60.3844 234.752 61.2228C234.139 62.0108 233.248 62.535 232.262 62.6884C231.315 62.9188 230.374 63.0276 229.51 63.3284C227.973 63.9024 226.627 64.8957 225.625 66.1956C224.71 67.2964 224.032 68.3204 223.449 69.1332L222.124 71.0532L221.785 71.546C221.745 71.5754 221.706 71.6075 221.67 71.642Z" fill="#455A64"/>
<path d="M233.651 63.7122C233.598 63.6838 233.542 63.6623 233.484 63.6482C233.312 63.6069 233.132 63.6069 232.96 63.6482C232.639 63.771 232.355 63.9716 232.131 64.2319C231.908 64.4923 231.752 64.8041 231.68 65.1394C231.585 65.6175 231.559 66.1067 231.603 66.5922C231.661 67.1537 231.638 67.7207 231.532 68.2754C231.346 68.8923 230.999 69.4488 230.528 69.8882C230.054 70.3874 229.478 70.8546 228.972 71.4562C228.684 71.7658 228.472 72.1376 228.351 72.5427C228.23 72.9478 228.204 73.3754 228.275 73.7922C228.422 74.6498 228.87 75.437 228.998 76.3074C229.089 77.2275 228.815 78.1466 228.236 78.8674C227.705 79.661 227.02 80.397 226.47 81.2866C226.18 81.7359 225.976 82.235 225.868 82.7586C225.772 83.3005 225.792 83.8567 225.926 84.3906C226.26 85.4404 226.689 86.4579 227.206 87.4306C227.743 88.4068 227.891 89.5496 227.622 90.6306C227.289 91.6994 226.483 92.5506 225.862 93.5938C225.535 94.1048 225.303 94.6707 225.177 95.2642C225.077 95.8581 225.116 96.4673 225.292 97.0434C225.674 98.1219 226.184 99.151 226.809 100.109C227.389 101.019 227.775 102.038 227.942 103.104C228.007 104.155 228.144 105.201 228.352 106.234C228.484 106.742 228.732 107.212 229.075 107.61C229.423 107.978 229.832 108.283 230.284 108.512C230.705 108.731 231.113 108.972 231.507 109.235C231.864 109.509 232.183 109.83 232.454 110.189C232.938 110.908 233.325 111.686 233.606 112.506C233.907 113.293 234.176 114.067 234.502 114.771C235.087 116.069 236.078 117.143 237.324 117.831C238.253 118.352 239.288 118.657 240.352 118.72C241.019 118.767 241.689 118.705 242.336 118.535C242.554 118.476 242.768 118.401 242.976 118.311C242.122 118.569 241.229 118.671 240.339 118.611C239.298 118.525 238.288 118.21 237.382 117.69C236.181 117.002 235.232 115.948 234.675 114.682C234.355 113.991 234.092 113.223 233.798 112.429C233.518 111.586 233.124 110.785 232.627 110.048C232.347 109.663 232.012 109.321 231.635 109.031C231.236 108.759 230.821 108.511 230.393 108.288C229.969 108.07 229.584 107.782 229.254 107.437C228.949 107.063 228.73 106.626 228.614 106.157C228.417 105.136 228.287 104.104 228.224 103.066C228.053 101.965 227.659 100.911 227.065 99.9682C226.452 99.0297 225.951 98.0222 225.574 96.9666C225.416 96.431 225.381 95.8664 225.472 95.3154C225.588 94.7583 225.805 94.227 226.112 93.7474C226.713 92.7618 227.539 91.8722 227.904 90.7202C228.076 90.1496 228.109 89.5461 228 88.9602C227.888 88.3992 227.709 87.8535 227.468 87.3346C226.957 86.3769 226.528 85.3769 226.188 84.3458C226.063 83.8497 226.046 83.3324 226.137 82.829C226.235 82.3374 226.423 81.8684 226.694 81.4466C227.219 80.5826 227.897 79.8466 228.448 79.0338C229.048 78.2588 229.33 77.2834 229.235 76.3074C229.088 75.373 228.595 74.5922 228.492 73.7858C228.427 73.4003 228.45 73.0049 228.561 72.6299C228.672 72.2549 228.868 71.9103 229.132 71.6226C229.612 71.0338 230.182 70.5602 230.662 70.0482C231.146 69.5785 231.501 68.9922 231.692 68.3458C231.794 67.7754 231.812 67.1932 231.744 66.6178C231.692 66.1465 231.708 65.6705 231.788 65.2034C231.852 64.8831 231.991 64.5827 232.195 64.3276C232.399 64.0725 232.661 63.8702 232.96 63.7378C233.183 63.666 233.422 63.6571 233.651 63.7122Z" fill="#455A64"/>
<path d="M327.776 104.39C328.028 104.445 328.286 104.47 328.544 104.467C329.285 104.463 330.018 104.304 330.694 104C331.802 103.528 332.709 102.681 333.254 101.606C333.609 100.893 333.802 100.11 333.818 99.3131C333.835 98.5164 333.675 97.726 333.35 96.9983C332.928 96.1802 332.421 95.408 331.84 94.6944C331.207 93.9419 330.754 93.0556 330.515 92.1023C330.379 91.0561 330.639 89.9968 331.244 89.1327C331.801 88.1919 332.524 87.3151 333.113 86.2591C333.733 85.1011 334.104 83.8263 334.203 82.5164C334.301 81.2066 334.125 79.8906 333.685 78.653C333.245 77.4153 332.551 76.2832 331.648 75.3292C330.745 74.3753 329.653 73.6206 328.441 73.1135L328.486 73.3503C329.041 72.8171 329.46 72.1588 329.708 71.4303C329.947 70.6978 330.047 69.9274 330.003 69.1583C329.959 68.3766 329.775 67.6092 329.459 66.8927C329.131 66.1766 328.7 65.5125 328.179 64.9215C326.583 63.2581 324.625 61.9856 322.457 61.2031C320.444 60.397 318.325 59.8861 316.166 59.6863L316.288 59.8527C316.483 58.623 316.339 57.3632 315.871 56.2093C315.403 55.0555 314.629 54.0514 313.632 53.3055C312.688 52.6203 311.588 52.1805 310.432 52.0255C309.343 51.9413 308.248 52.0146 307.18 52.2431C306.676 52.3173 306.165 52.3344 305.657 52.2943C305.172 52.2376 304.701 52.0922 304.268 51.8655C303.449 51.3891 302.689 50.8177 302.003 50.1631C301.353 49.5497 300.623 49.0266 299.833 48.6079C298.845 48.1002 297.765 47.7956 296.657 47.712C295.549 47.6285 294.435 47.7677 293.382 48.1215C292.396 48.4635 291.484 48.989 290.694 49.6703C290.211 50.0927 289.782 50.5719 289.414 51.0975C289.28 51.2782 289.161 51.4686 289.056 51.6671C289.056 51.6671 289.184 51.4751 289.452 51.1295C290.467 49.792 291.861 48.7907 293.452 48.2559C294.757 47.819 296.153 47.7286 297.504 47.9935C298.294 48.1421 299.057 48.4074 299.769 48.7807C300.542 49.1999 301.256 49.7184 301.894 50.3231C302.585 50.9949 303.355 51.5815 304.185 52.0703C304.643 52.3131 305.142 52.4673 305.657 52.5247C306.184 52.5738 306.715 52.5588 307.238 52.4799C308.289 52.2555 309.367 52.1886 310.438 52.2815C311.549 52.4341 312.605 52.8608 313.51 53.5231C314.469 54.2393 315.215 55.2037 315.666 56.3124C316.117 57.4211 316.257 58.632 316.07 59.8143V59.9615H316.224C318.354 60.1637 320.445 60.6702 322.432 61.4655C324.557 62.2296 326.476 63.4761 328.038 65.1071C328.544 65.6816 328.96 66.3289 329.273 67.0271C329.569 67.711 329.744 68.4406 329.792 69.1839C329.834 69.9163 329.739 70.6501 329.51 71.3471C329.277 72.0255 328.884 72.6379 328.364 73.1327L328.204 73.2863L328.409 73.3695C329.586 73.8628 330.646 74.5959 331.524 75.522C332.401 76.4482 333.075 77.547 333.504 78.7484C333.933 79.9498 334.106 81.2274 334.014 82.4997C333.921 83.7719 333.564 85.0109 332.966 86.1375C332.428 87.1615 331.686 88.0575 331.116 89.0047C330.486 89.9183 330.221 91.035 330.374 92.1343C330.623 93.1204 331.096 94.0358 331.756 94.8095C332.332 95.5105 332.836 96.2673 333.26 97.0687C333.58 97.7742 333.74 98.5415 333.729 99.3159C333.718 100.09 333.536 100.853 333.196 101.549C332.682 102.595 331.82 103.429 330.758 103.91C330.096 104.223 329.377 104.395 328.646 104.416C328.038 104.422 327.782 104.378 327.776 104.39Z" fill="#263238"/>
<path d="M231.591 56.5761C231.618 56.5209 231.64 56.463 231.655 56.4033L231.808 55.8849C231.943 55.4049 232.141 54.7329 232.391 53.8817C232.64 53.0305 232.992 51.9617 233.472 50.7713C233.999 49.4153 234.684 48.1263 235.514 46.9313C236.525 45.4881 237.835 44.279 239.354 43.3857C240.196 42.9014 241.11 42.5557 242.061 42.3617C243.088 42.2124 244.122 42.1205 245.159 42.0865C246.276 42.0514 247.375 41.8016 248.397 41.3505C249.431 40.8322 250.396 40.1873 251.271 39.4305C252.173 38.6945 253.05 37.8945 254.029 37.2097C255.005 36.5012 256.103 35.9783 257.268 35.6673C259.602 35.1384 262.02 35.097 264.372 35.5457C266.568 35.9109 268.735 36.4371 270.855 37.1201C274.476 38.2341 277.887 39.9428 280.948 42.1761C283 43.6947 284.801 45.526 286.285 47.6033C286.541 47.9745 286.778 48.3009 286.964 48.5953L287.405 49.3569L287.687 49.8241C287.716 49.8784 287.75 49.9298 287.789 49.9777C287.769 49.918 287.743 49.8602 287.712 49.8049L287.456 49.3249L287.034 48.5505C286.855 48.2497 286.624 47.9105 286.394 47.5393C284.936 45.4213 283.144 43.5539 281.088 42.0097C278.019 39.7485 274.592 38.0179 270.951 36.8897C268.812 36.1996 266.623 35.6733 264.404 35.3153C262.012 34.8573 259.552 34.8987 257.178 35.4369C255.979 35.7575 254.849 36.2955 253.844 37.0241C252.852 37.7217 251.968 38.5281 251.072 39.2641C250.222 40.0214 249.277 40.6666 248.263 41.1841C247.274 41.6251 246.209 41.8707 245.127 41.9073C244.081 41.9431 243.038 42.0414 242.004 42.2017C241.024 42.4036 240.084 42.7623 239.22 43.2641C237.694 44.1895 236.385 45.4313 235.38 46.9057C234.555 48.1165 233.876 49.4205 233.357 50.7905C232.89 51.9937 232.57 53.0625 232.32 53.9329C232.071 54.8033 231.904 55.4881 231.789 55.9489C231.732 56.1729 231.693 56.3457 231.661 56.4801C231.635 56.5102 231.612 56.5423 231.591 56.5761Z" fill="#263238"/>
<path d="M265.991 103.418C266.067 102.771 265.965 102.116 265.697 101.523C265.428 100.93 265.003 100.421 264.468 100.051C263.922 99.6981 263.281 99.5221 262.631 99.5473C261.981 99.5725 261.356 99.7977 260.839 100.192C260.366 100.589 260.035 101.129 259.897 101.731C259.758 102.332 259.819 102.963 260.071 103.526C260.299 104.104 260.693 104.601 261.204 104.954C261.873 105.39 262.658 105.613 263.456 105.594C264.114 105.62 264.759 105.404 265.268 104.986C265.687 104.565 265.943 104.01 265.991 103.418Z" fill="#FF9A6C"/>
<path d="M265.606 98.5985C265.248 98.5473 265.017 100.947 262.809 102.438C260.601 103.93 258.06 103.456 258.009 103.789C257.964 103.936 258.534 104.307 259.616 104.429C261.022 104.578 262.436 104.227 263.609 103.437C264.734 102.679 265.519 101.513 265.798 100.186C265.984 99.2001 265.772 98.5985 265.606 98.5985Z" fill="#263238"/>
<g opacity="0.3">
<path d="M220.787 224.883C227.142 225.363 233.139 221.229 236.678 215.923C240.218 210.618 241.798 204.282 243.258 198.08C245.903 187.072 248.548 176.062 251.194 165.05C252.429 159.93 254.067 154.227 258.656 151.61C260.102 150.784 261.779 150.33 263.014 149.216C264.25 148.102 264.819 145.952 263.59 144.838C262.496 143.846 260.774 144.275 259.398 144.8C255.155 146.432 250.989 148.576 247.949 151.955C244.909 155.334 243.162 160.121 244.339 164.512" fill="black"/>
</g>
<path d="M226.893 161.734C226.893 161.734 219.802 175.814 213.267 189.555L198.989 191.475C198.989 191.475 198.067 219.597 211.046 224.474C225.37 229.856 232.717 212.813 237.286 200.032C240.87 190.08 247.117 168.602 248.646 162.56L226.893 161.734Z" fill="#FFBF9D"/>
<path d="M216.838 182.701C216.754 182.958 216.642 183.204 216.506 183.437C216.275 183.898 215.923 184.564 215.482 185.357C214.605 186.996 213.363 189.236 212.045 191.757C210.726 194.279 209.619 196.564 208.89 198.266C208.518 199.111 208.25 199.808 208.045 200.288C207.959 200.545 207.848 200.791 207.712 201.024C207.749 200.757 207.818 200.495 207.917 200.244C208.077 199.751 208.326 199.04 208.672 198.176C209.582 195.933 210.61 193.739 211.75 191.604C213.075 189.101 214.349 186.874 215.277 185.274L216.39 183.354C216.514 183.12 216.665 182.901 216.838 182.701Z" fill="#FF9A6C"/>
<path d="M246.874 169.005C248.404 162.983 251.469 152.698 253.325 150.727C255.181 148.756 266.567 143.943 267.776 141.863C268.135 141.352 268.298 140.73 268.237 140.108C268.176 139.487 267.894 138.909 267.444 138.477C267.723 137.429 267.908 136.358 267.994 135.277C268.32 132.653 266.567 131.885 266.567 131.885L267.207 129.914C268.084 126.196 264.692 126.746 265.018 125.978C265.344 125.21 277.933 121.6 278.804 121.165C279.137 120.987 279.423 120.733 279.64 120.424C279.856 120.115 279.997 119.759 280.051 119.385C280.105 119.011 280.069 118.63 279.948 118.272C279.827 117.914 279.624 117.59 279.354 117.325C277.824 115.687 266.33 119.079 262.17 120.525C258.01 121.972 250.9 125.645 250.138 124.026C249.376 122.407 249.831 115.84 249.28 113.524C248.73 111.207 246.983 110.023 245.671 110.458C244.359 110.893 245.229 114.618 245.229 116.583C245.151 120.425 244.218 124.2 242.496 127.636C240.09 132.672 239.296 139.239 239.296 139.239L226.586 162.208" fill="#FFBF9D"/>
<path d="M226.611 162.208C226.611 162.208 226.675 162.067 226.823 161.798C226.97 161.53 227.181 161.12 227.463 160.602L229.965 156.013L239.219 139.181V139.226C239.495 137.161 239.899 135.115 240.429 133.101C240.998 130.915 241.78 128.791 242.765 126.758C243.748 124.569 244.44 122.26 244.826 119.891C245.029 118.658 245.117 117.409 245.088 116.16C245.024 114.88 244.8 113.6 244.813 112.288C244.816 111.949 244.85 111.61 244.915 111.277C244.946 111.093 245.016 110.917 245.12 110.761C245.223 110.606 245.359 110.474 245.517 110.374C245.854 110.245 246.217 110.2 246.575 110.244C246.933 110.287 247.275 110.418 247.571 110.624C248.141 111.035 248.615 111.565 248.961 112.177C249.307 112.789 249.516 113.469 249.575 114.17C249.888 116.922 249.715 119.731 250.01 122.541C250.049 122.888 250.109 123.232 250.189 123.571C250.229 123.727 250.287 123.877 250.362 124.019C250.448 124.131 250.574 124.207 250.714 124.23C251.404 124.294 252.1 124.209 252.755 123.981C254.144 123.553 255.509 123.053 256.845 122.483C258.208 121.926 259.565 121.344 260.96 120.806C262.355 120.269 263.795 119.827 265.242 119.379C268.526 118.344 271.877 117.531 275.271 116.947C276.117 116.812 276.973 116.747 277.831 116.755C278.266 116.748 278.7 116.82 279.111 116.966C279.328 117.057 279.516 117.205 279.655 117.395C279.798 117.562 279.923 117.744 280.026 117.939C280.23 118.334 280.322 118.777 280.293 119.22C280.263 119.663 280.114 120.09 279.859 120.454C279.623 120.826 279.294 121.13 278.906 121.338C278.503 121.51 278.125 121.619 277.735 121.747C274.637 122.739 271.597 123.667 268.679 124.646C267.943 124.896 267.219 125.146 266.515 125.421C266.166 125.553 265.824 125.705 265.491 125.875C265.414 125.911 265.34 125.956 265.274 126.01C265.229 126.01 265.235 126.048 265.216 126.054C265.211 126.069 265.211 126.085 265.216 126.099C265.216 126.131 265.395 126.246 265.555 126.304C265.916 126.435 266.262 126.604 266.586 126.81C266.923 127.031 267.189 127.344 267.354 127.712C267.611 128.44 267.633 129.23 267.418 129.971L266.778 131.942L266.701 131.757C267.282 132.065 267.735 132.568 267.981 133.178C268.213 133.76 268.303 134.39 268.243 135.014C268.192 135.622 268.096 136.198 268.013 136.781C267.932 137.366 267.812 137.946 267.655 138.515L267.616 138.355C267.906 138.628 268.13 138.962 268.273 139.333C268.416 139.704 268.474 140.103 268.442 140.499C268.381 141.27 268.026 141.987 267.45 142.502C266.339 143.393 265.145 144.175 263.885 144.838C261.479 146.182 259.143 147.347 256.999 148.525C255.952 149.073 254.943 149.688 253.978 150.368C253.537 150.696 253.174 151.118 252.915 151.603C252.771 151.832 252.641 152.069 252.525 152.314C252.397 152.55 252.282 152.787 252.179 153.03C251.395 154.801 250.703 156.61 250.106 158.451C248.999 161.779 248.243 164.422 247.731 166.227C247.482 167.123 247.29 167.808 247.162 168.288C247.034 168.768 246.957 168.992 246.957 168.992C246.957 168.992 247.002 168.742 247.117 168.275L247.648 166.202C248.135 164.39 248.864 161.722 249.952 158.4C250.543 156.549 251.227 154.729 252 152.947C252.103 152.704 252.218 152.461 252.346 152.224C252.474 151.987 252.589 151.731 252.736 151.494C253.013 150.994 253.393 150.558 253.85 150.214C254.82 149.525 255.836 148.9 256.89 148.346C259.034 147.155 261.37 145.984 263.763 144.634C265.002 143.977 266.176 143.206 267.271 142.33C267.791 141.855 268.113 141.201 268.173 140.499C268.199 140.145 268.146 139.789 268.019 139.457C267.892 139.125 267.693 138.826 267.437 138.579L267.373 138.522V138.419C267.641 137.297 267.827 136.157 267.93 135.008C267.985 134.429 267.901 133.846 267.687 133.306C267.475 132.761 267.078 132.308 266.567 132.026L266.445 131.968L266.49 131.846C266.701 131.206 266.919 130.566 267.13 129.875C267.33 129.198 267.314 128.476 267.085 127.808C266.946 127.499 266.724 127.233 266.445 127.04C266.136 126.844 265.805 126.685 265.459 126.566C265.366 126.529 265.276 126.484 265.191 126.432C265.127 126.403 265.07 126.36 265.026 126.305C264.981 126.251 264.95 126.187 264.935 126.118C264.926 126.039 264.942 125.959 264.979 125.888C265.016 125.83 265.064 125.78 265.12 125.741C265.204 125.68 265.292 125.624 265.383 125.574C265.728 125.395 266.087 125.254 266.439 125.107C267.155 124.826 267.879 124.57 268.615 124.32C271.539 123.322 274.586 122.4 277.671 121.414C278.055 121.286 278.458 121.165 278.803 121.018C279.139 120.837 279.421 120.573 279.623 120.25C279.845 119.933 279.977 119.562 280.003 119.176C280.029 118.79 279.948 118.404 279.77 118.061C279.612 117.718 279.35 117.433 279.021 117.248C278.645 117.115 278.248 117.049 277.85 117.056C277.018 117.053 276.187 117.119 275.367 117.254C271.966 117.833 268.609 118.643 265.319 119.68C263.879 120.122 262.445 120.563 261.063 121.094C259.68 121.626 258.317 122.214 256.954 122.771C255.604 123.344 254.226 123.848 252.826 124.282C252.474 124.378 252.115 124.461 251.751 124.525C251.374 124.599 250.987 124.599 250.611 124.525C250.396 124.484 250.204 124.362 250.074 124.186C250.017 124.101 249.974 124.008 249.946 123.91C249.909 123.821 249.879 123.729 249.856 123.635C249.77 123.281 249.706 122.922 249.664 122.56C249.37 119.706 249.549 116.896 249.235 114.195C249.186 113.541 248.995 112.905 248.676 112.331C248.356 111.758 247.916 111.26 247.386 110.874C247.135 110.696 246.846 110.582 246.542 110.54C246.238 110.497 245.928 110.528 245.639 110.63C245.521 110.711 245.422 110.814 245.346 110.934C245.27 111.054 245.219 111.188 245.197 111.328C245.136 111.64 245.103 111.957 245.101 112.275C245.101 113.555 245.306 114.835 245.37 116.115C245.398 117.384 245.306 118.653 245.095 119.904C244.698 122.295 243.995 124.625 243.002 126.835C242.016 128.852 241.231 130.962 240.659 133.133C240.123 135.134 239.715 137.167 239.437 139.219L230.093 156L227.533 160.557C227.245 161.069 227.021 161.459 226.893 161.734C226.765 162.01 226.611 162.208 226.611 162.208Z" fill="#F877A0"/>
<path d="M307.431 240.505C307.706 240.505 296.404 230.848 292.852 230.214C289.3 229.58 282.919 231.308 282.919 231.308C282.919 231.308 283.648 234.508 286.119 234.694C287.907 234.788 289.7 234.788 291.488 234.694L295.495 237.593L293.088 236.505C292.286 236.145 291.392 236.04 290.528 236.204C287.789 236.729 281.741 237.881 281.184 237.952C280.468 238.048 277.735 238.502 279.559 242.432C279.559 242.432 276.826 245.708 282.202 246.528C287.578 247.347 292.832 247.808 292.832 247.808L296.954 249.907C296.954 249.907 287.392 249.817 285.844 250.272C284.295 250.726 284.474 252 285.204 252.729C285.933 253.459 296.045 253.004 297.773 254.188C299.501 255.372 305.332 259.744 308.519 259.379C311.706 259.014 315.719 256.102 316.263 255.827C316.807 255.552 351.341 216.659 351.341 216.659L330.311 202.432C330.311 202.432 311.444 237.484 310.1 239.552C308.66 241.683 307.431 240.505 307.431 240.505Z" fill="#FFBF9D"/>
<path d="M300.691 243.968C300.411 243.894 300.139 243.793 299.878 243.667L297.709 242.752C296.787 242.368 295.699 241.907 294.47 241.434C293.862 241.203 293.19 240.96 292.55 240.794C291.839 240.678 291.115 240.663 290.4 240.749C287.385 241.037 284.678 241.568 282.72 241.907L280.397 242.323C280.114 242.384 279.828 242.423 279.539 242.438C279.806 242.326 280.085 242.245 280.371 242.195C280.909 242.061 281.696 241.875 282.669 241.67C285.204 241.115 287.768 240.698 290.349 240.422C291.102 240.326 291.866 240.346 292.614 240.48C293.281 240.676 293.937 240.907 294.579 241.171C295.801 241.658 296.889 242.138 297.779 242.554C298.669 242.97 299.417 243.315 299.91 243.565C300.183 243.673 300.445 243.808 300.691 243.968Z" fill="#FF9A6C"/>
<path d="M340.8 205.574C340.8 205.632 339.904 205.434 338.451 205.37C337.597 205.335 336.741 205.365 335.891 205.459C334.864 205.585 333.849 205.799 332.858 206.099C331.87 206.416 330.912 206.821 329.997 207.309C329.251 207.71 328.538 208.17 327.866 208.685C326.714 209.562 326.106 210.24 326.061 210.195C326.016 210.15 326.183 210.003 326.458 209.696C326.618 209.505 326.792 209.326 326.976 209.158C327.194 208.96 327.424 208.723 327.719 208.518C328.384 207.967 329.097 207.476 329.85 207.053C330.776 206.536 331.749 206.107 332.755 205.773C333.767 205.459 334.806 205.245 335.859 205.133C336.711 205.055 337.568 205.055 338.419 205.133C338.75 205.154 339.079 205.192 339.405 205.248C339.653 205.28 339.899 205.327 340.141 205.389C340.369 205.415 340.592 205.478 340.8 205.574Z" fill="#FF9A6C"/>
</g>
<defs>
<filter id="filter0_f_4546_72942" x="130" y="4" width="277" height="275" filterUnits="userSpaceOnUse" color-interpolation-filters="sRGB">
<feFlood flood-opacity="0" result="BackgroundImageFix"/>
<feBlend mode="normal" in="SourceGraphic" in2="BackgroundImageFix" result="shape"/>
<feGaussianBlur stdDeviation="10" result="effect1_foregroundBlur_4546_72942"/>
</filter>
<radialGradient id="paint0_radial_4546_72942" cx="0" cy="0" r="1" gradientUnits="userSpaceOnUse" gradientTransform="translate(268.5 141.5) rotate(90) scale(117.5 118.5)">
<stop stop-color="#F877A0"/>
<stop offset="1" stop-color="#F9F9FA"/>
</radialGradient>
<clipPath id="clip0_4546_72942">
<rect width="320" height="264" fill="white" transform="translate(89)"/>
</clipPath>
</defs>
</svg>
