<svg width="156" height="156" viewBox="0 0 156 156" fill="none" xmlns="http://www.w3.org/2000/svg">
<rect width="156" height="156" fill="#FAF9FF"/>
<path fill-rule="evenodd" clip-rule="evenodd" d="M125.199 101.32C125.107 100.873 124.67 100.586 124.224 100.678C120.756 101.395 117.375 102.251 114.06 103.091C111.684 103.693 109.341 104.286 107.025 104.813C101.417 106.089 95.7826 107.025 89.6315 106.933C78.6207 106.768 67.6605 104.256 58.4872 98.0792C53.7555 94.8929 49.3031 90.1386 46.5982 84.7372C43.8963 79.3416 42.9637 73.3613 45.1392 67.6422C46.2427 64.7412 48.041 61.988 50.3112 59.538C50.795 62.6504 51.7587 65.7617 53.3077 68.8358C56.977 76.1175 64.7415 77.4176 71.5292 75.2764C78.2903 73.1437 84.4873 67.4907 85.1743 60.3488C85.5438 56.5074 84.3206 53.3659 82.0142 51.1692C79.7254 48.9893 76.4402 47.8042 72.7735 47.6982C66.8723 47.5277 60.6238 49.6444 55.3479 53.1355C54.0416 53.9999 52.7903 54.9516 51.6151 55.9781C51.2276 47.4146 54.3488 38.8533 58.7083 31.0543C58.9307 30.6566 58.7885 30.1538 58.3907 29.9315C57.9929 29.7091 57.4902 29.8514 57.2678 30.2491C52.6209 38.5623 49.2268 47.9627 50.0556 57.429C47.2113 60.2492 44.9379 63.5299 43.5968 67.0554C41.2144 73.3182 42.2743 79.7882 45.1226 85.4761C47.968 91.1581 52.6237 96.1203 57.5655 99.448C67.0755 105.852 78.3745 108.414 89.6068 108.583C95.9434 108.678 101.721 107.712 107.391 106.422C109.805 105.873 112.169 105.273 114.545 104.671C117.807 103.844 121.09 103.011 124.558 102.295C125.004 102.202 125.291 101.766 125.199 101.32ZM51.7793 58.0572C53.1523 56.7615 54.6584 55.5706 56.2586 54.5117C61.3134 51.1669 67.2326 49.1891 72.7259 49.3478C76.0818 49.4447 78.9453 50.5253 80.876 52.3642C82.7892 54.1863 83.8562 56.8167 83.5317 60.1908C82.9284 66.4624 77.3926 71.6965 71.0328 73.7026C64.6996 75.7004 57.9549 74.391 54.7814 68.0931C53.1159 64.7879 52.1614 61.4272 51.7793 58.0572Z" fill="#6C6A7C"/>
<path fill-rule="evenodd" clip-rule="evenodd" d="M121.385 105.471C121.637 105.851 122.149 105.955 122.528 105.703C122.568 105.677 122.625 105.64 122.697 105.592C123.247 105.23 124.677 104.29 125.99 103.346C126.729 102.815 127.454 102.266 127.97 101.809C128.222 101.586 128.462 101.352 128.627 101.132C128.705 101.028 128.812 100.867 128.869 100.671C128.93 100.458 128.963 100.06 128.647 99.7363C128.198 99.2751 127.558 99.0836 127.022 98.9835C126.462 98.8791 125.841 98.8459 125.304 98.8188L125.26 98.8166C124.71 98.7889 124.264 98.7664 123.925 98.7038C123.79 98.679 123.705 98.6531 123.656 98.6335C123.445 98.2944 123.013 98.1498 122.634 98.3106C122.214 98.4886 122.018 98.9729 122.196 99.3924C122.347 99.7487 122.626 99.9625 122.873 100.088C123.115 100.212 123.383 100.282 123.626 100.327C124.076 100.41 124.623 100.437 125.12 100.462C125.154 100.464 125.187 100.465 125.22 100.467C125.775 100.495 126.287 100.525 126.719 100.606C126.753 100.612 126.786 100.619 126.817 100.625C126.368 101.016 125.725 101.504 125.027 102.006C123.745 102.927 122.349 103.846 121.793 104.212C121.719 104.261 121.659 104.3 121.617 104.327C121.237 104.579 121.133 105.091 121.385 105.471ZM127.321 100.121C127.321 100.121 127.32 100.123 127.318 100.126C127.32 100.123 127.321 100.121 127.321 100.121Z" fill="#6C6A7C"/>
</svg>
