<svg width="294" height="344" viewBox="0 0 294 344" fill="none" xmlns="http://www.w3.org/2000/svg">
<g filter="url(#filter0_dd_2274_14130)">
<rect x="12" width="270" height="320" rx="20" fill="#F3FAF2"/>
<g clip-path="url(#clip0_2274_14130)">
<rect x="32" y="20" width="230" height="155" rx="12" fill="#DEEFDC"/>
<path d="M91.9035 150.69C91.8647 149.608 91.902 148.525 92.015 147.448C92.0475 146.365 92.1607 145.286 92.3538 144.22C92.3925 145.303 92.3553 146.388 92.2423 147.466C92.2069 148.547 92.0937 149.625 91.9035 150.69Z" fill="white"/>
<path d="M205.792 142.045C196.671 127.98 187.202 112.198 187.202 112.198C178.964 102.175 172.308 98.6709 159.322 98.1284L134.058 98.0217C129.092 98.3018 117.564 95.7494 106.865 111.055L106.816 110.98C106.816 110.98 97.3423 126.761 88.2257 140.831C78.0036 156.604 84.1199 172.982 95.042 173.938C106.084 174.903 112.932 175.196 116.601 175.272L116.427 182.333L175.001 182.24L174.403 174.329C180.279 174.329 196.546 174.267 198.949 173.969C209.831 172.648 216.014 157.836 205.792 142.045ZM117.43 138.932L117.065 155.323L106.811 155.354L117.43 138.932ZM175.513 156.528L177.114 140.965L187.202 156.573L175.513 156.528Z" fill="#81C27A"/>
<path d="M158.341 97.3901C158.352 97.5129 158.352 97.6364 158.341 97.7592C158.338 98.1087 158.312 98.4577 158.265 98.8042C158.195 99.3559 158.09 99.9025 157.949 100.441C157.75 101.151 157.497 101.846 157.191 102.517C156.377 104.267 155.176 105.81 153.678 107.031C151.822 108.52 149.547 109.395 147.169 109.534C144.787 109.702 142.417 109.076 140.429 107.756C138.833 106.659 137.54 105.179 136.671 103.451C136.088 102.294 135.701 101.048 135.525 99.7647C135.474 99.4171 135.446 99.0665 135.44 98.7152C135.429 98.594 135.429 98.4719 135.44 98.3506C135.466 98.4707 135.481 98.5927 135.485 98.7152C135.485 98.9554 135.543 99.3022 135.614 99.7513C135.822 101.015 136.228 102.238 136.818 103.375C137.691 105.066 138.973 106.512 140.549 107.582C142.504 108.859 144.825 109.461 147.156 109.294C149.487 109.157 151.719 108.305 153.544 106.853C155.025 105.66 156.219 104.151 157.039 102.437C157.601 101.285 157.984 100.054 158.176 98.7864C158.232 98.4417 158.271 98.0944 158.292 97.7458C158.299 97.6261 158.315 97.5071 158.341 97.3901Z" fill="#403E48"/>
<path d="M176.931 143.17C176.864 143.17 177.109 136.438 177.475 128.144C177.84 119.851 178.188 113.141 178.233 113.141C178.277 113.141 178.054 119.873 177.689 128.171C177.323 136.469 176.993 143.174 176.931 143.17Z" fill="#403E48"/>
<path d="M118.626 113.141C118.646 113.23 118.655 113.321 118.653 113.412V114.181C118.653 114.848 118.675 115.813 118.653 117.009C118.653 119.402 118.59 122.701 118.421 126.348C118.251 129.994 118.006 133.285 117.788 135.686C117.681 136.878 117.583 137.838 117.502 138.505C117.467 138.817 117.436 139.07 117.409 139.266C117.402 139.356 117.387 139.445 117.364 139.533C117.353 139.443 117.353 139.351 117.364 139.261C117.364 139.061 117.396 138.817 117.413 138.496C117.467 137.798 117.538 136.842 117.623 135.673C117.801 133.294 118.02 129.999 118.189 126.361C118.358 122.724 118.443 119.424 118.492 117.023C118.492 115.849 118.528 114.893 118.541 114.195C118.541 113.879 118.541 113.625 118.564 113.425C118.577 113.329 118.598 113.234 118.626 113.141Z" fill="#403E48"/>
<path d="M172.242 173.746C172.217 173.638 172.202 173.528 172.197 173.417C172.197 173.182 172.144 172.861 172.104 172.452C172.032 171.594 171.93 170.38 171.801 168.859C171.555 165.778 171.217 161.478 170.824 156.528V156.404H170.949L176.709 156.497L193.034 156.795L197.982 156.911L199.32 156.955H199.667C199.707 156.949 199.748 156.949 199.788 156.955C199.748 156.962 199.707 156.962 199.667 156.955H199.32H197.982L193.034 156.911L176.7 156.719L170.936 156.622L171.047 156.502C171.408 161.451 171.72 165.755 171.939 168.841C172.037 170.362 172.121 171.581 172.175 172.439C172.202 172.848 172.22 173.168 172.233 173.404C172.243 173.518 172.246 173.632 172.242 173.746Z" fill="#403E48"/>
<path d="M197.553 153.607C197.553 153.647 196.92 153.607 195.913 153.66C194.598 153.734 193.296 153.963 192.034 154.34C190.776 154.73 189.567 155.264 188.432 155.932C187.563 156.448 187.064 156.822 187.042 156.799C187.019 156.777 187.149 156.684 187.367 156.502C187.678 156.245 188.006 156.009 188.348 155.794C189.47 155.071 190.689 154.508 191.968 154.122C193.245 153.735 194.569 153.524 195.904 153.495C196.309 153.488 196.714 153.503 197.117 153.54C197.264 153.543 197.411 153.566 197.553 153.607Z" fill="#403E48"/>
<path d="M119.952 175.396C119.946 175.362 119.946 175.328 119.952 175.294C119.952 175.214 119.952 175.116 119.984 174.996C120.019 174.716 120.068 174.338 120.126 173.849C120.264 172.835 120.461 171.394 120.701 169.606C121.214 165.991 121.918 160.984 122.721 155.319L122.832 155.452L119.712 155.408C113.243 155.363 107.381 155.483 103.137 155.461C101.015 155.461 99.2985 155.43 98.1126 155.399L96.7485 155.354H96.3919H96.2715C96.3113 155.348 96.352 155.348 96.3919 155.354H98.1126H103.137C107.376 155.332 113.239 155.19 119.716 155.234L122.837 155.279H122.953V155.408C122.123 161.064 121.388 166.08 120.857 169.682C120.585 171.461 120.367 172.906 120.215 173.915C120.135 174.4 120.073 174.778 120.028 175.054C120.028 175.174 119.992 175.272 119.975 175.352C119.957 175.432 119.957 175.396 119.952 175.396Z" fill="#403E48"/>
<path d="M106.562 155.528C106.237 155.307 105.938 155.051 105.671 154.763C105.145 154.26 104.445 153.536 103.722 152.691C103 151.846 102.385 151.041 101.984 150.441C101.742 150.129 101.537 149.79 101.373 149.431C101.647 149.713 101.896 150.018 102.118 150.343C102.563 150.916 103.183 151.677 103.901 152.544C104.618 153.411 105.292 154.118 105.791 154.647C106.072 154.919 106.33 155.214 106.562 155.528Z" fill="#403E48"/>
<path d="M132.761 117.534C132.081 116.446 131.467 115.317 130.925 114.154C130.313 113.026 129.769 111.864 129.293 110.673C129.974 111.761 130.587 112.889 131.13 114.052C131.743 115.179 132.288 116.342 132.761 117.534Z" fill="white"/>
<path d="M157.837 117.196C157.576 117.538 157.277 117.85 156.946 118.126C155.429 119.529 153.753 120.751 151.953 121.768C151.589 121.992 151.204 122.18 150.803 122.328C151.14 122.066 151.498 121.831 151.873 121.625C152.537 121.207 153.451 120.611 154.423 119.904C155.394 119.197 156.233 118.513 156.834 118.001C157.151 117.711 157.486 117.442 157.837 117.196Z" fill="white"/>
<path d="M169.896 115.022C168.986 114.016 168.134 112.959 167.346 111.856C166.494 110.8 165.704 109.697 164.979 108.552C165.889 109.559 166.741 110.616 167.533 111.718C168.384 112.773 169.172 113.876 169.896 115.022Z" fill="white"/>
<path d="M169.068 130.652C168.234 131.235 167.358 131.756 166.446 132.209C165.569 132.729 164.654 133.183 163.709 133.565C164.543 132.979 165.421 132.459 166.335 132.009C167.21 131.488 168.123 131.034 169.068 130.652Z" fill="white"/>
<path d="M186.448 131.946C186.363 130.534 186.354 129.117 186.421 127.704C186.413 126.289 186.482 124.874 186.627 123.466C186.712 124.879 186.721 126.295 186.653 127.708C186.664 129.124 186.595 130.538 186.448 131.946Z" fill="white"/>
<path d="M193.658 144.077C192.137 144.284 190.608 144.415 189.075 144.469C186.538 144.62 184.483 144.691 184.479 144.629C185.999 144.422 187.528 144.291 189.061 144.237C191.607 144.086 193.653 144.015 193.658 144.077Z" fill="white"/>
<path d="M205.324 153.077C205.11 151.635 204.976 150.181 204.923 148.724C204.788 147.271 204.733 145.812 204.758 144.353C204.965 145.798 205.098 147.252 205.154 148.711C205.286 150.162 205.343 151.62 205.324 153.077Z" fill="white"/>
<path d="M200.407 164.372C199.38 165.512 198.296 166.599 197.157 167.627C196.076 168.714 194.939 169.744 193.751 170.713C193.706 170.669 195.16 169.21 196.996 167.458C198.833 165.706 200.362 164.328 200.407 164.372Z" fill="white"/>
<path d="M181.007 167.996C180.711 167.926 180.43 167.804 180.177 167.636C178.899 166.923 177.805 165.923 176.981 164.715C176.787 164.479 176.637 164.211 176.535 163.923C177.157 164.722 177.83 165.479 178.55 166.191C179.327 166.847 180.148 167.45 181.007 167.996Z" fill="white"/>
<path d="M130.086 127.651C129.161 128.597 128.18 129.488 127.148 130.319C126.166 131.204 125.135 132.032 124.059 132.8C124.984 131.853 125.965 130.962 126.996 130.132C127.978 129.247 129.009 128.418 130.086 127.651Z" fill="white"/>
<path d="M142.426 133.729C141.44 132.605 140.819 131.21 140.643 129.727C140.709 129.727 140.95 130.675 141.445 131.777C141.94 132.88 142.484 133.694 142.426 133.729Z" fill="white"/>
<path d="M120.768 102.989C120.809 103.042 119.15 104.443 117.059 106.101C114.969 107.76 113.248 109.103 113.208 109.054C113.168 109.005 114.826 107.6 116.917 105.941C119.008 104.283 120.724 102.94 120.768 102.989Z" fill="white"/>
<path d="M112.2 126.379C112.134 126.401 111.625 124.916 110.774 123.186C109.922 121.456 109.062 120.144 109.12 120.104C109.365 120.348 109.576 120.623 109.749 120.923C110.204 121.617 110.616 122.339 110.983 123.084C111.35 123.828 111.667 124.596 111.933 125.383C112.065 125.702 112.155 126.037 112.2 126.379Z" fill="white"/>
<path d="M108.647 136.189C108.297 136.389 107.925 136.546 107.537 136.656C105.688 137.276 103.75 137.594 101.799 137.598C101.396 137.62 100.992 137.592 100.596 137.514C100.993 137.459 101.394 137.432 101.795 137.434C102.759 137.394 103.721 137.3 104.675 137.154C105.624 136.992 106.565 136.782 107.492 136.522C107.868 136.38 108.254 136.269 108.647 136.189Z" fill="white"/>
<path d="M99.2462 160.939C98.0059 161.854 96.7204 162.706 95.3945 163.492C93.2324 164.826 91.4536 165.906 91.418 165.853C92.6571 164.936 93.9427 164.082 95.2697 163.296C96.5547 162.445 97.8819 161.658 99.2462 160.939Z" fill="white"/>
<path d="M111.442 169.917C111.384 169.94 110.484 167.61 109.436 164.715C108.388 161.82 107.581 159.454 107.653 159.432C107.724 159.41 108.611 161.74 109.663 164.635C110.715 167.53 111.505 169.895 111.442 169.917Z" fill="white"/>
<path d="M124.572 151.237C124.023 150.323 123.539 149.372 123.124 148.391C122.639 147.44 122.226 146.454 121.889 145.442C122.438 146.357 122.921 147.309 123.333 148.293C123.818 149.242 124.232 150.226 124.572 151.237Z" fill="white"/>
<path d="M174.179 143.165C174.09 143.511 173.966 143.846 173.809 144.166C173.56 144.775 173.212 145.611 172.851 146.545C172.49 147.479 172.182 148.324 171.959 148.951C171.86 149.293 171.727 149.625 171.562 149.942C171.601 149.587 171.681 149.238 171.803 148.902C171.99 148.266 172.276 147.403 172.641 146.465C173.007 145.527 173.377 144.686 173.667 144.099C173.802 143.77 173.974 143.457 174.179 143.165Z" fill="white"/>
<path d="M154.851 67.0317C154.761 67.4072 154.783 67.801 154.914 68.1641C155.046 68.5273 155.282 68.844 155.592 69.075C155.902 69.3059 156.274 69.441 156.66 69.4636C157.047 69.4861 157.431 69.3951 157.767 69.2017C159.033 68.468 159.104 66.6671 158.756 65.2485C158.409 63.83 157.842 62.327 158.373 60.9662C158.774 59.9257 159.737 59.2275 160.468 58.3871C161.115 57.6549 161.582 56.783 161.833 55.8401C162.085 54.8972 162.114 53.9089 161.917 52.9531C161.698 52.0022 161.22 51.1302 160.536 50.4333C159.851 49.7365 158.987 49.2419 158.039 49.0043C156.095 48.5596 153.772 49.3022 152.27 47.9993C151.178 47.0566 151.022 45.4202 150.157 44.2685C148.819 42.4897 146.171 42.3385 143.978 42.7654C141.785 43.1923 139.565 44.0283 137.367 43.6148C135.53 43.2679 133.97 42.0895 132.227 41.3914C130.325 40.6575 128.241 40.5332 126.265 41.0359C124.289 41.5385 122.519 42.643 121.202 44.1958C119.885 45.7486 119.085 47.6723 118.915 49.6994C118.745 51.7264 119.212 53.7559 120.253 55.5055C120.954 56.7939 122.09 57.7939 123.458 58.3293" fill="#403E48"/>
<path d="M147.472 108.356C144.532 108.602 141.614 107.676 139.357 105.779C137.101 103.883 135.691 101.171 135.436 98.2393C135.132 94.753 134.887 91.8181 134.887 91.8181C134.887 91.8181 125.971 91.0666 125.236 82.2663C124.5 73.4661 124.611 54.3048 124.611 54.3048V53.1442C134.522 48.0481 146.482 49.6668 155.773 55.8123L155.884 57.6266L157.663 97.132C157.7 99.9411 156.67 102.66 154.78 104.742C152.889 106.825 150.278 108.116 147.472 108.356Z" fill="#FFBE9D"/>
<path d="M128.941 68.0544C129.182 67.9522 129.385 67.7801 129.526 67.5604C129.667 67.3408 129.737 67.084 129.729 66.8235C129.721 66.5631 129.634 66.3112 129.48 66.1008C129.326 65.8903 129.112 65.7312 128.866 65.6443C128.576 65.5376 128.256 65.5471 127.974 65.671C127.732 65.7724 127.527 65.9446 127.385 66.1647C127.244 66.3849 127.172 66.6427 127.18 66.9042C127.189 67.1657 127.276 67.4186 127.431 67.6295C127.586 67.8404 127.802 67.9994 128.05 68.0856C128.34 68.1909 128.659 68.1797 128.941 68.0544Z" fill="#403E48"/>
<path d="M125.771 66.2134C125.918 66.3557 126.738 65.6309 127.955 65.5419C129.172 65.453 130.095 66.0133 130.22 65.8487C130.282 65.7732 130.122 65.5108 129.716 65.244C129.169 64.9036 128.526 64.7483 127.884 64.8012C127.241 64.8541 126.633 65.1123 126.149 65.5375C125.811 65.8621 125.699 66.1511 125.771 66.2134Z" fill="#403E48"/>
<path d="M140.42 65.9689C140.212 66.1154 140.053 66.3201 139.962 66.5571C139.871 66.7941 139.853 67.0527 139.909 67.3001C139.966 67.5475 140.095 67.7725 140.28 67.9466C140.465 68.1206 140.698 68.236 140.949 68.2779C141.2 68.3198 141.457 68.2864 141.689 68.182C141.921 68.0776 142.117 67.9068 142.251 67.6913C142.385 67.4759 142.453 67.2255 142.444 66.9718C142.436 66.7182 142.352 66.4729 142.203 66.2669C142.005 65.9936 141.706 65.8092 141.373 65.7535C141.039 65.6978 140.697 65.7751 140.42 65.9689Z" fill="#403E48"/>
<path d="M138.726 66.418C138.873 66.5603 139.693 65.8354 140.91 65.7465C142.127 65.6576 143.05 66.2179 143.175 66.0533C143.233 65.9777 143.077 65.7154 142.671 65.4486C142.124 65.1082 141.482 64.9529 140.839 65.0058C140.196 65.0587 139.588 65.3169 139.105 65.7421C138.766 66.0667 138.654 66.3557 138.726 66.418Z" fill="#403E48"/>
<path d="M134.544 76.7659C134.544 76.6725 133.782 76.5791 132.547 76.4991C132.23 76.4991 131.963 76.4368 131.923 76.259C131.886 75.9374 131.942 75.6121 132.083 75.3207L132.872 72.7905C133.951 69.1841 134.691 66.2225 134.517 66.1736C134.343 66.1247 133.327 68.9973 132.244 72.6037C131.989 73.4931 131.744 74.3246 131.508 75.1473C131.329 75.5695 131.299 76.0399 131.423 76.4813C131.477 76.5944 131.557 76.6935 131.656 76.7707C131.755 76.8478 131.871 76.901 131.994 76.926C132.173 76.9613 132.356 76.9718 132.538 76.9571C133.786 76.926 134.544 76.8548 134.544 76.7659Z" fill="#403E48"/>
<path d="M138.598 77.8284C139.81 76.988 135.241 79.9184 132.758 79.9718C132.758 79.9718 134.336 82.1374 136.815 81.0301C139.391 79.8784 138.598 77.8284 138.598 77.8284Z" fill="white"/>
<path d="M134.879 91.6893C134.879 91.6893 140.487 91.756 146.158 87.6249C146.158 87.6249 143.884 94.1529 135.013 93.975L134.879 91.6893Z" fill="#EB996E"/>
<path d="M155.77 63.5099C155.962 63.4343 162.314 62.5583 161.779 70.0556C161.244 77.553 153.826 74.5291 153.826 74.3157C153.826 74.1022 155.77 63.5099 155.77 63.5099Z" fill="#FFBE9D"/>
<path d="M156.317 71.8478C156.353 71.8478 156.442 71.9501 156.656 72.0657C156.958 72.2176 157.307 72.2494 157.632 72.1547C158.448 71.9234 159.206 70.7095 159.34 69.3621C159.407 68.7213 159.328 68.0735 159.108 67.4677C159.054 67.2279 158.943 67.0047 158.784 66.8172C158.625 66.6298 158.422 66.4837 158.194 66.3916C158.046 66.3417 157.885 66.3451 157.739 66.4011C157.594 66.4572 157.472 66.5624 157.396 66.6984C157.28 66.8985 157.32 67.0542 157.28 67.0631C157.24 67.072 157.124 66.9252 157.209 66.6184C157.265 66.4371 157.381 66.2803 157.539 66.1737C157.756 66.0335 158.02 65.984 158.274 66.0359C158.579 66.1177 158.857 66.2765 159.082 66.497C159.307 66.7174 159.471 66.9921 159.558 67.2943C159.833 67.9671 159.939 68.6969 159.866 69.4199C159.71 70.9273 158.831 72.2836 157.721 72.5326C157.516 72.5782 157.302 72.5762 157.098 72.5268C156.893 72.4775 156.702 72.3822 156.54 72.2481C156.317 72.0302 156.29 71.8612 156.317 71.8478Z" fill="#EB996E"/>
<path d="M143.862 61.6779C143.666 61.9447 142.342 61.2822 140.612 61.2999C138.883 61.3177 137.55 61.9091 137.358 61.6379C137.273 61.5134 137.519 61.1532 138.094 60.7974C138.863 60.3608 139.734 60.1337 140.619 60.1392C141.504 60.1447 142.372 60.3824 143.136 60.8286C143.706 61.1932 143.947 61.5579 143.862 61.6779Z" fill="#403E48"/>
<path d="M130.023 62.1892C129.952 62.505 129.007 62.5539 127.897 62.5895C126.787 62.625 125.837 62.6117 125.748 62.3004C125.659 61.9891 126.586 61.4599 127.866 61.411C129.145 61.3621 130.086 61.8868 130.023 62.1892Z" fill="#403E48"/>
<path d="M122.74 58.04C122.74 58.04 128.17 60.4146 134.981 56.706C139.439 54.2692 144.718 52.9662 145.926 53.8334C147.134 54.7005 147.548 59.3785 152.113 60.5747C152.113 60.5747 152.113 69.5173 155.68 69.0681C159.246 68.619 156.491 54.865 156.491 54.865L148.101 49.2976L138.503 47.8524L128.031 49.4088L122.191 53.2464L122.74 58.04Z" fill="#403E48"/>
<path d="M156.865 47.3632C156.192 47.4172 155.53 47.5669 154.899 47.8079C154.297 48.1115 153.74 48.4977 153.245 48.9551C153.223 48.9551 153.33 48.7284 153.588 48.4482C153.933 48.0851 154.348 47.7945 154.807 47.5937C155.267 47.3928 155.762 47.2857 156.263 47.2787C156.638 47.2698 156.869 47.3276 156.865 47.3632Z" fill="#403E48"/>
<path d="M153.059 43.9882C153.169 44.2422 153.235 44.5128 153.255 44.7887C153.362 45.4456 153.388 46.1132 153.331 46.7764C153.276 47.4429 153.104 48.0947 152.823 48.7018C152.722 48.9618 152.571 49.1992 152.377 49.4C152.454 49.1391 152.553 48.8848 152.671 48.6396C152.904 48.034 153.054 47.3998 153.117 46.7541C153.174 46.1061 153.174 45.4544 153.117 44.8064C153.067 44.5367 153.048 44.2623 153.059 43.9882Z" fill="#403E48"/>
<path d="M152.706 47.8125C152.691 47.892 152.672 47.9706 152.648 48.0482C152.584 48.28 152.501 48.5061 152.399 48.7241C152.058 49.4502 151.562 50.0934 150.946 50.6087C150.33 51.124 149.609 51.4992 148.832 51.7079C148.053 51.9174 147.234 51.9327 146.447 51.7524C145.541 51.5471 144.7 51.1208 144 50.5117C143.207 49.8341 142.634 48.9362 142.355 47.9326C142.203 47.39 142.17 46.8215 142.257 46.265C142.348 45.6755 142.628 45.1312 143.055 44.7131C143.275 44.4916 143.537 44.3173 143.827 44.2011C144.117 44.0848 144.428 44.0291 144.74 44.0372C145.065 44.0612 145.381 44.1596 145.662 44.3245C145.944 44.4895 146.183 44.7168 146.363 44.9888C146.748 45.5357 146.934 46.1982 146.889 46.8653C146.812 47.5458 146.551 48.1927 146.135 48.7374C145.253 49.8388 144.079 50.6721 142.747 51.1432C141.365 51.664 139.881 51.8632 138.41 51.7257C136.871 51.5846 135.393 51.0551 134.117 50.1871C133.454 49.7385 132.901 49.1474 132.498 48.4573C132.298 48.1015 132.162 47.7131 132.097 47.31C132.04 46.9007 132.061 46.4841 132.159 46.0827C132.265 45.6781 132.453 45.2996 132.712 44.971C132.981 44.6396 133.338 44.39 133.742 44.2506C134.154 44.1391 134.586 44.1212 135.005 44.1981C135.425 44.2751 135.822 44.445 136.167 44.6953C136.861 45.1774 137.39 45.8603 137.683 46.6519C137.976 47.4242 138.066 48.2584 137.946 49.0754C137.798 49.8668 137.475 50.6154 137.001 51.2668C136.526 51.9183 135.913 52.4563 135.204 52.8418C133.846 53.5872 132.275 53.8521 130.746 53.5934C129.275 53.3891 127.888 52.7879 126.734 51.8547C126.182 51.3928 125.741 50.814 125.441 50.1604C125.155 49.5159 125.048 48.8059 125.134 48.106C125.22 47.4236 125.545 46.7936 126.052 46.3273C126.297 46.0973 126.588 45.9223 126.907 45.8142C127.225 45.706 127.563 45.6672 127.898 45.7003C128.218 45.7541 128.524 45.8746 128.795 46.0538C129.066 46.2331 129.297 46.4671 129.471 46.7408C129.81 47.2694 129.967 47.894 129.917 48.5195C129.875 49.0957 129.698 49.6538 129.4 50.149C129.102 50.6442 128.691 51.0624 128.201 51.37C127.295 51.8936 126.246 52.1177 125.205 52.0103C124.283 51.9271 123.39 51.6497 122.584 51.1965C121.068 50.3561 120.172 48.9731 120.078 47.7502C120.02 47.2823 120.055 46.8074 120.182 46.3532C120.309 45.899 120.525 45.4745 120.818 45.1044C120.97 44.9177 121.147 44.7531 121.344 44.6152L121.554 44.4863C121.29 44.668 121.055 44.8866 120.854 45.1355C120.295 45.8707 120.044 46.7939 120.154 47.7102C120.261 48.8931 121.144 50.2405 122.633 51.0542C123.424 51.4912 124.299 51.7564 125.201 51.8324C126.211 51.9297 127.226 51.7073 128.103 51.1965C128.568 50.902 128.957 50.5027 129.238 50.0308C129.52 49.5588 129.687 49.0275 129.725 48.4795C129.76 47.8959 129.604 47.3169 129.28 46.8298C129.122 46.5819 128.914 46.3697 128.669 46.2066C128.424 46.0435 128.148 45.9332 127.858 45.8826C127.55 45.8536 127.241 45.8906 126.949 45.9911C126.658 46.0916 126.391 46.2532 126.168 46.4651C125.692 46.902 125.391 47.496 125.321 48.1371C125.24 48.7995 125.342 49.4712 125.615 50.0804C125.901 50.705 126.324 51.2569 126.854 51.6946C127.979 52.5988 129.329 53.1813 130.76 53.3799C132.245 53.6307 133.772 53.3737 135.093 52.6506C135.771 52.2808 136.358 51.7655 136.812 51.1419C137.266 50.5182 137.576 49.8018 137.719 49.0443C137.834 48.2663 137.748 47.4718 137.469 46.7364C137.189 45.9916 136.69 45.3485 136.038 44.8909C135.723 44.6564 135.359 44.4948 134.974 44.4179C134.588 44.341 134.19 44.3507 133.809 44.4463C133.447 44.5755 133.129 44.8035 132.891 45.1044C132.651 45.4057 132.478 45.7543 132.382 46.1272C132.292 46.4982 132.272 46.8828 132.324 47.2611C132.386 47.6372 132.513 47.9997 132.699 48.3328C133.084 48.993 133.612 49.5584 134.246 49.987C135.491 50.8344 136.931 51.353 138.432 51.4945C139.87 51.6311 141.32 51.4379 142.671 50.9297C143.966 50.4745 145.108 49.6693 145.97 48.604C146.37 48.0888 146.618 47.473 146.688 46.8253C146.729 46.2137 146.559 45.6066 146.207 45.1044C146.044 44.8543 145.827 44.6443 145.571 44.4902C145.316 44.3361 145.028 44.242 144.731 44.215C144.444 44.2086 144.158 44.2604 143.891 44.3674C143.625 44.4745 143.382 44.6344 143.18 44.8376C142.777 45.2282 142.513 45.7385 142.426 46.2917C142.342 46.8239 142.371 47.3677 142.511 47.8881C142.779 48.8625 143.332 49.7354 144.098 50.3961C144.777 50.9932 145.593 51.4133 146.474 51.619C147.238 51.8112 148.037 51.8112 148.801 51.619C149.442 51.4574 150.047 51.1768 150.584 50.7919C151.343 50.262 151.956 49.5511 152.368 48.7241C152.473 48.5101 152.562 48.2887 152.635 48.0615C152.675 47.8881 152.706 47.8125 152.706 47.8125Z" fill="#455A64"/>
<path d="M161.448 56.5997C161.448 56.5997 161.448 56.6264 161.39 56.6664C161.332 56.7064 161.287 56.7642 161.193 56.8309C160.93 57.0284 160.641 57.1885 160.333 57.3067C159.845 57.4949 159.323 57.5826 158.8 57.5646C158.099 57.545 157.419 57.3225 156.842 56.9243C156.14 56.4397 155.614 55.7406 155.345 54.9321C155.174 54.4822 155.137 53.9929 155.238 53.5225C155.291 53.2622 155.433 53.0282 155.639 52.8599C155.753 52.7738 155.887 52.7194 156.029 52.7022C156.171 52.6851 156.315 52.7057 156.446 52.7621C156.699 52.8855 156.9 53.0953 157.012 53.3535C157.133 53.6019 157.2 53.8733 157.208 54.1495C157.208 55.0111 156.898 55.8441 156.334 56.4969C155.771 57.1498 154.991 57.5791 154.136 57.7069C153.557 57.7877 152.966 57.7249 152.416 57.5241C151.867 57.3232 151.375 56.9905 150.985 56.5552C150.797 56.3419 150.66 56.0894 150.583 55.8163C150.505 55.5431 150.491 55.2562 150.539 54.9766C150.581 54.6998 150.708 54.443 150.904 54.2427C151.1 54.0424 151.355 53.9087 151.631 53.8604C151.893 53.8287 152.159 53.8644 152.403 53.964C152.647 54.0636 152.862 54.2239 153.026 54.4296C153.322 54.811 153.48 55.2814 153.472 55.7637C153.46 56.1947 153.352 56.6175 153.156 57.002C152.96 57.3864 152.681 57.7228 152.34 57.9871C151.79 58.4337 151.09 58.6547 150.383 58.6052C149.857 58.5613 149.352 58.382 148.916 58.0849C148.643 57.8989 148.406 57.6654 148.216 57.3957C148.147 57.304 148.09 57.2039 148.047 57.0977C148.294 57.4489 148.606 57.7506 148.965 57.9871C149.392 58.2628 149.884 58.4236 150.392 58.454C151.063 58.4865 151.722 58.2659 152.237 57.8359C152.548 57.5869 152.8 57.2741 152.978 56.9187C153.156 56.5634 153.254 56.1739 153.267 55.777C153.28 55.336 153.14 54.9042 152.87 54.5541C152.728 54.3773 152.543 54.2395 152.332 54.1539C152.122 54.0683 151.893 54.0377 151.667 54.065C151.438 54.1118 151.229 54.2285 151.069 54.399C150.909 54.5695 150.806 54.7853 150.775 55.0166C150.738 55.2654 150.756 55.5194 150.83 55.7602C150.903 56.0009 151.029 56.2224 151.199 56.4085C151.564 56.8133 152.023 57.1224 152.536 57.3085C153.049 57.4946 153.6 57.552 154.141 57.4757C154.941 57.3546 155.672 56.9517 156.2 56.3399C156.728 55.7282 157.019 54.948 157.021 54.1406C157.028 53.9046 156.975 53.6706 156.865 53.4612C156.756 53.2517 156.595 53.0738 156.397 52.9444C156.3 52.9016 156.193 52.8855 156.088 52.8981C155.983 52.9106 155.883 52.9512 155.799 53.0156C155.632 53.1564 155.516 53.3488 155.469 53.5625C155.375 53.9953 155.408 54.4461 155.563 54.861C155.816 55.6333 156.309 56.3048 156.972 56.7776C157.52 57.1666 158.168 57.3904 158.84 57.4223C159.348 57.4494 159.857 57.3769 160.338 57.2089C160.733 57.0565 161.107 56.8515 161.448 56.5997Z" fill="#455A64"/>
<path d="M128.411 145.949L165.894 146.594L166.317 172.034L127.52 170.727L128.411 145.949Z" fill="#455A64"/>
<path d="M128.41 145.949L147.811 131.057L165.893 146.594" fill="#403E48"/>
<path d="M127.518 170.727C127.469 170.682 130.554 167.49 134.397 163.612C138.24 159.734 141.396 156.595 141.44 156.639C141.485 156.684 138.409 159.877 134.562 163.777C130.715 167.676 127.563 170.771 127.518 170.727Z" fill="#403E48"/>
<path d="M166.316 172.034C166.267 172.074 163.423 168.802 159.963 164.724C156.504 160.646 153.745 157.307 153.794 157.267C153.843 157.227 156.682 160.495 160.142 164.577C163.601 168.659 166.365 171.994 166.316 172.034Z" fill="#403E48"/>
<path d="M165.893 146.594L146.706 161.131L128.41 145.949" fill="#403E48"/>
<path d="M130.264 147.386L130.473 136.509H163.32L163.382 148.417L146.709 160.935L130.264 147.386Z" fill="#EBEBEB"/>
<path d="M128.08 155.11C128.08 155.11 127.518 160.762 128.891 160.735C131.29 160.695 140.482 158.338 141.129 160.104C141.775 161.869 138.779 163.523 138.779 163.523C138.779 163.523 141.713 164.075 140.268 165.6C138.824 167.125 133.898 174.64 130.728 174.796C126.172 175.018 120.301 173.484 120.301 173.484L122.699 156.924L128.08 155.11Z" fill="#FFBE9D"/>
<path d="M139.894 162.687C139.774 162.793 139.643 162.885 139.502 162.963C139.244 163.132 138.86 163.354 138.379 163.616C135.853 164.978 133.131 165.941 130.31 166.471C129.77 166.573 129.329 166.64 129.026 166.671C128.869 166.7 128.709 166.711 128.549 166.702C128.549 166.667 129.213 166.551 130.279 166.311C133.058 165.69 135.753 164.736 138.303 163.47C139.284 162.989 139.894 162.656 139.894 162.687Z" fill="#EB996E"/>
<path d="M139.64 166.676C139.549 166.805 139.441 166.922 139.319 167.023C139.006 167.323 138.677 167.607 138.334 167.872C136.059 169.641 133.363 170.79 130.51 171.207C130.082 171.273 129.65 171.315 129.217 171.332C129.059 171.351 128.899 171.351 128.74 171.332C128.74 171.292 129.413 171.243 130.483 171.052C133.285 170.549 135.935 169.42 138.236 167.748C139.114 167.103 139.613 166.645 139.64 166.676Z" fill="#EB996E"/>
<path d="M166.032 154.981C166.032 154.981 166.545 159.699 164.748 160.317C162.483 161.113 153.157 157.92 152.506 159.681C151.855 161.442 154.86 163.105 154.86 163.105C154.86 163.105 151.922 163.657 153.367 165.182C154.811 166.707 159.737 174.218 162.907 174.373C166.032 174.47 169.159 174.255 172.242 173.733L170.936 156.506L166.032 154.981Z" fill="#FFBE9D"/>
<path d="M153.744 162.282C153.744 162.251 154.355 162.58 155.331 163.065C157.881 164.331 160.576 165.285 163.356 165.907C164.425 166.147 165.094 166.258 165.085 166.298C164.926 166.306 164.765 166.296 164.608 166.267C164.305 166.231 163.864 166.164 163.324 166.067C160.505 165.531 157.784 164.568 155.255 163.212C154.774 162.949 154.391 162.727 154.132 162.558C153.991 162.483 153.861 162.391 153.744 162.282Z" fill="#EB996E"/>
<path d="M154.258 166.271C154.285 166.24 154.775 166.685 155.631 167.32C156.74 168.148 157.936 168.854 159.197 169.424C160.469 169.984 161.802 170.393 163.169 170.642C164.221 170.833 164.881 170.878 164.881 170.918C164.733 170.936 164.583 170.936 164.435 170.918C164.01 170.903 163.586 170.863 163.165 170.798C161.772 170.59 160.414 170.197 159.126 169.628C157.842 169.054 156.636 168.321 155.537 167.445C155.118 167.103 154.793 166.818 154.579 166.604C154.459 166.506 154.351 166.394 154.258 166.271Z" fill="#EB996E"/>
</g>
<path d="M43.26 209.56H41.58V205.86H38.88V209.56H35.68L39.18 200.8H36.4L32.32 211.12V211.84H38.88V214H41.58V211.84H43.26V209.56ZM44.8736 212.38C44.8736 213.44 45.6936 214.24 46.7536 214.24C47.8136 214.24 48.5936 213.44 48.5936 212.38C48.5936 211.34 47.7936 210.52 46.7536 210.52C45.6936 210.52 44.8736 211.34 44.8736 212.38ZM64.1884 214H67.0884L61.2084 200.56H60.3084L54.4084 214H57.3084L58.0484 212.28H63.4484L64.1884 214ZM62.5084 210.06H58.9884L60.7484 205.6L62.5084 210.06ZM67.8111 212.32C68.7111 213.52 70.1711 214.24 71.9111 214.24C73.0311 214.24 73.9511 213.96 74.6711 213.4C75.4111 212.84 75.7711 212.06 75.7711 211.08C75.7711 209.62 74.9111 208.84 72.9911 208.06L72.0311 207.66C71.2511 207.34 70.9911 207.16 70.9911 206.78C70.9911 206.32 71.3911 206.08 72.0511 206.08C72.8711 206.08 73.6111 206.4 74.2711 207.02L75.6311 205.36C74.7311 204.38 73.5511 203.88 72.0711 203.88C69.9111 203.88 68.4311 204.98 68.4311 206.84C68.4311 208.3 69.3111 209.12 71.1311 209.86L72.1911 210.3C72.9311 210.62 73.2111 210.78 73.2111 211.2C73.2111 211.74 72.6711 212.02 71.9511 212.02C70.9711 212.02 70.0311 211.58 69.1711 210.68L67.8111 212.32ZM87.5727 214L83.5527 208.48L87.2727 204.1H84.0727L80.5127 208.32V199H77.8127V214H80.5127V208.52L84.4927 214H87.5727ZM102.313 214H105.213L99.3334 200.56H98.4334L92.5334 214H95.4334L96.1734 212.28H101.573L102.313 214ZM100.633 210.06H97.1134L98.8734 205.6L100.633 210.06ZM115.936 207.86C115.936 205.46 114.516 203.88 112.216 203.88C111.036 203.88 110.016 204.3 109.316 205V204.1H106.836V214H109.536V208.22C109.536 207.08 110.316 206.3 111.416 206.3C112.516 206.3 113.256 207.08 113.256 208.22V214H115.936V207.86ZM125.295 204.1L122.715 210.6L120.295 204.1H117.435L121.235 213.4L120.935 214.08C120.475 215.12 119.835 215.42 118.875 215.42C118.715 215.42 118.335 215.4 117.715 215.34V217.6C118.315 217.76 118.895 217.84 119.455 217.84C121.295 217.84 122.495 216.92 123.395 214.86L128.135 204.1H125.295ZM136.067 211.74C135.367 211.8 134.947 211.82 134.787 211.82C133.507 211.82 132.947 211.4 132.947 210.28V206.38H135.747V204.1H132.947V201.6H130.247V204.1H128.687V206.38H130.247V210.52C130.247 213 131.707 214.24 134.207 214.24C134.807 214.24 135.427 214.16 136.067 214V211.74ZM147.128 207.86C147.128 205.46 145.688 203.88 143.448 203.88C142.348 203.88 141.388 204.28 140.728 204.94V199H138.028V214H140.728V208.24C140.728 207.1 141.508 206.32 142.608 206.32C143.708 206.32 144.448 207.1 144.448 208.24V214H147.128V207.86ZM149.727 214H152.427V204.1H149.727V214ZM149.347 200.5C149.347 201.44 150.107 202.16 151.067 202.16C152.027 202.16 152.807 201.44 152.807 200.5C152.807 199.54 152.027 198.82 151.067 198.82C150.107 198.82 149.347 199.54 149.347 200.5ZM164.198 207.86C164.198 205.46 162.778 203.88 160.478 203.88C159.298 203.88 158.278 204.3 157.578 205V204.1H155.098V214H157.798V208.22C157.798 207.08 158.578 206.3 159.678 206.3C160.778 206.3 161.518 207.08 161.518 208.22V214H164.198V207.86ZM174.257 204.1V205.34C173.557 204.4 172.437 203.88 171.017 203.88C168.317 203.88 166.277 205.84 166.277 208.78C166.277 211.68 168.277 213.7 171.017 213.7C172.277 213.7 173.317 213.3 174.037 212.52V213.06C174.037 214.6 172.997 215.4 171.397 215.4C170.197 215.4 169.277 214.94 168.177 214.12L166.757 216C168.137 217.22 169.757 217.84 171.617 217.84C174.717 217.84 176.737 216.12 176.737 212.9V204.1H174.257ZM174.077 208.74C174.077 210.44 172.937 211.42 171.577 211.42C170.137 211.42 169.017 210.36 169.017 208.76C169.017 207.16 170.117 206.18 171.577 206.18C172.957 206.18 174.077 207.04 174.077 208.74Z" fill="#403E48"/>
<path d="M40.784 245H42.112L37.536 234.264H37.072L32.496 245H33.808L34.704 242.856H39.888L40.784 245ZM39.408 241.736H35.184L37.296 236.536L39.408 241.736ZM43.1594 241.096C43.1594 243.352 44.9834 245.176 47.2394 245.176C48.5994 245.176 49.7354 244.52 50.4394 243.48L49.5594 242.792C48.9354 243.624 48.1674 244.04 47.2554 244.04C45.6394 244.04 44.4234 242.728 44.4234 241.096C44.4234 239.48 45.6394 238.168 47.2554 238.168C48.1674 238.168 48.9514 238.584 49.5754 239.432L50.4554 238.728C49.7514 237.688 48.5994 237.032 47.2394 237.032C45.0154 237 43.1114 238.872 43.1594 241.096ZM51.8156 241.096C51.8156 243.352 53.6396 245.176 55.8956 245.176C57.2556 245.176 58.3916 244.52 59.0956 243.48L58.2156 242.792C57.5916 243.624 56.8236 244.04 55.9116 244.04C54.2956 244.04 53.0796 242.728 53.0796 241.096C53.0796 239.48 54.2956 238.168 55.9116 238.168C56.8236 238.168 57.6076 238.584 58.2316 239.432L59.1116 238.728C58.4076 237.688 57.2556 237.032 55.8956 237.032C53.6716 237 51.7676 238.872 51.8156 241.096ZM67.9119 241.48C67.9759 241.16 68.0079 240.856 68.0079 240.552C68.0079 238.488 66.4719 237.032 64.4559 237.032C62.2319 237.032 60.4719 238.856 60.4719 241.112C60.4719 243.4 62.2799 245.176 64.5999 245.176C65.8319 245.176 66.9039 244.664 67.7199 243.816L66.9999 242.984C66.2959 243.688 65.4959 244.04 64.6159 244.04C63.0799 244.04 61.8959 243.016 61.7519 241.48H67.9119ZM61.7999 240.392C62.0719 239.048 63.1279 238.152 64.4239 238.152C65.7199 238.152 66.7279 239 66.7439 240.392H61.7999ZM69.4365 243.656C70.1245 244.552 71.1805 245.176 72.4765 245.176C73.2445 245.176 73.8845 244.984 74.4125 244.584C74.9405 244.184 75.2125 243.608 75.2125 242.888C75.2125 241.816 74.6045 241.208 73.1485 240.584L72.4285 240.28C71.4845 239.88 71.1645 239.64 71.1645 239.144C71.1645 238.52 71.6925 238.168 72.4605 238.168C73.1805 238.168 73.8525 238.504 74.3805 239.032L75.1325 238.264C74.4925 237.496 73.6125 237.032 72.5245 237.032C71.0365 237.032 69.9005 237.848 69.9005 239.208C69.9005 240.248 70.5405 240.84 71.8365 241.368L72.5885 241.688C73.5485 242.072 73.9485 242.312 73.9485 242.936C73.9485 243.624 73.3085 244.04 72.4605 244.04C71.5805 244.04 70.9725 243.608 70.2205 242.84L69.4365 243.656ZM76.7021 243.656C77.3901 244.552 78.4461 245.176 79.7421 245.176C80.5101 245.176 81.1501 244.984 81.6781 244.584C82.2061 244.184 82.4781 243.608 82.4781 242.888C82.4781 241.816 81.8701 241.208 80.4141 240.584L79.6941 240.28C78.7501 239.88 78.4301 239.64 78.4301 239.144C78.4301 238.52 78.9581 238.168 79.7261 238.168C80.4461 238.168 81.1181 238.504 81.6461 239.032L82.3981 238.264C81.7581 237.496 80.8781 237.032 79.7901 237.032C78.3021 237.032 77.1661 237.848 77.1661 239.208C77.1661 240.248 77.8061 240.84 79.1021 241.368L79.8541 241.688C80.8141 242.072 81.2141 242.312 81.2141 242.936C81.2141 243.624 80.5741 244.04 79.7261 244.04C78.8461 244.04 78.2381 243.608 77.4861 242.84L76.7021 243.656ZM94.7241 237.208L92.1481 243.416L89.5721 237.208H88.2441L91.4761 244.76L91.0601 245.688C90.6601 246.632 90.1161 246.936 89.3001 246.936C89.0761 246.936 88.7561 246.904 88.3561 246.856V247.896C88.7561 248.008 89.1561 248.056 89.5561 248.056C90.7561 248.056 91.6041 247.448 92.1961 246.088L96.0361 237.208H94.7241ZM96.9406 241.096C96.9086 243.288 98.7806 245.208 101.005 245.16C103.229 245.208 105.149 243.288 105.101 241.096C105.149 238.872 103.245 237 101.021 237.032C98.7966 236.984 96.8926 238.872 96.9406 241.096ZM103.837 241.112C103.837 242.744 102.589 244.024 101.005 244.024C99.4206 244.024 98.2046 242.744 98.2046 241.112C98.2046 239.432 99.4206 238.168 101.021 238.168C102.605 238.168 103.837 239.432 103.837 241.112ZM107.17 241.896C107.17 243.864 108.578 245.176 110.402 245.176C112.21 245.176 113.618 243.864 113.618 241.896V237.208H112.386V241.976C112.386 243.208 111.538 244.04 110.402 244.04C109.25 244.04 108.386 243.24 108.386 241.976V237.208H107.17V241.896ZM120.363 237.208C120.155 237.16 119.963 237.144 119.787 237.144C118.843 237.144 117.931 237.56 117.371 238.312V237.208H116.219V245H117.451V240.584C117.451 239.144 118.587 238.296 119.899 238.296H120.363V237.208ZM125.941 241.096C125.941 243.352 127.765 245.176 130.021 245.176C131.381 245.176 132.517 244.52 133.221 243.48L132.341 242.792C131.717 243.624 130.949 244.04 130.037 244.04C128.421 244.04 127.205 242.728 127.205 241.096C127.205 239.48 128.421 238.168 130.037 238.168C130.949 238.168 131.733 238.584 132.357 239.432L133.237 238.728C132.533 237.688 131.381 237.032 130.021 237.032C127.797 237 125.893 238.872 125.941 241.096ZM141.153 240.2C141.153 238.152 139.953 237.032 138.113 237.032C136.817 237.032 135.649 237.592 134.945 238.744L135.761 239.416C136.401 238.584 137.089 238.168 138.033 238.168C139.201 238.168 139.921 238.856 139.921 240.136V240.808H137.457C135.777 240.808 134.657 241.656 134.657 242.984C134.657 244.328 135.777 245.176 137.377 245.176C138.513 245.176 139.425 244.76 140.001 243.992V245H141.153V240.2ZM139.921 242.008C139.921 243.208 138.817 244.152 137.537 244.152C136.625 244.152 135.921 243.704 135.921 242.92C135.921 242.2 136.513 241.816 137.601 241.816H139.921V242.008ZM147.91 237.208C147.702 237.16 147.51 237.144 147.334 237.144C146.39 237.144 145.478 237.56 144.918 238.312V237.208H143.766V245H144.998V240.584C144.998 239.144 146.134 238.296 147.446 238.296H147.91V237.208ZM156.287 241.48C156.351 241.16 156.383 240.856 156.383 240.552C156.383 238.488 154.847 237.032 152.831 237.032C150.607 237.032 148.847 238.856 148.847 241.112C148.847 243.4 150.655 245.176 152.975 245.176C154.207 245.176 155.279 244.664 156.095 243.816L155.375 242.984C154.671 243.688 153.871 244.04 152.991 244.04C151.455 244.04 150.271 243.016 150.127 241.48H156.287ZM150.175 240.392C150.447 239.048 151.503 238.152 152.799 238.152C154.095 238.152 155.103 239 155.119 240.392H150.175ZM167.288 243.96C166.888 244.024 166.552 244.056 166.248 244.056C165.176 244.056 164.6 243.672 164.6 242.568V238.312H167.032V237.208H164.6V235.08H163.368V237.208H162.056V238.312H163.368V242.648C163.368 244.36 164.376 245.176 165.992 245.176C166.36 245.176 166.792 245.112 167.288 245V243.96ZM175.849 241.48C175.913 241.16 175.945 240.856 175.945 240.552C175.945 238.488 174.409 237.032 172.393 237.032C170.169 237.032 168.409 238.856 168.409 241.112C168.409 243.4 170.217 245.176 172.537 245.176C173.769 245.176 174.841 244.664 175.657 243.816L174.937 242.984C174.233 243.688 173.433 244.04 172.553 244.04C171.017 244.04 169.833 243.016 169.689 241.48H175.849ZM169.737 240.392C170.009 239.048 171.065 238.152 172.361 238.152C173.657 238.152 174.665 239 174.681 240.392H169.737ZM183.95 240.2C183.95 238.152 182.75 237.032 180.91 237.032C179.614 237.032 178.446 237.592 177.742 238.744L178.558 239.416C179.198 238.584 179.886 238.168 180.83 238.168C181.998 238.168 182.718 238.856 182.718 240.136V240.808H180.254C178.574 240.808 177.454 241.656 177.454 242.984C177.454 244.328 178.574 245.176 180.174 245.176C181.31 245.176 182.222 244.76 182.798 243.992V245H183.95V240.2ZM182.718 242.008C182.718 243.208 181.614 244.152 180.334 244.152C179.422 244.152 178.718 243.704 178.718 242.92C178.718 242.2 179.31 241.816 180.398 241.816H182.718V242.008ZM197.939 240.104C197.939 238.248 196.899 237.032 195.107 237.032C193.955 237.032 193.011 237.56 192.435 238.376C191.987 237.528 191.171 237.032 190.035 237.032C189.075 237.032 188.275 237.384 187.715 238.024V237.208H186.563V245H187.795V240.264C187.795 239.032 188.611 238.168 189.779 238.168C190.915 238.168 191.635 239 191.635 240.264V245H192.867V240.152C192.867 239.048 193.699 238.168 194.867 238.168C196.019 238.168 196.707 239 196.707 240.264V245H197.939V240.104ZM210.872 240.2C210.872 238.152 209.672 237.032 207.832 237.032C206.536 237.032 205.368 237.592 204.664 238.744L205.48 239.416C206.12 238.584 206.808 238.168 207.752 238.168C208.92 238.168 209.64 238.856 209.64 240.136V240.808H207.176C205.496 240.808 204.376 241.656 204.376 242.984C204.376 244.328 205.496 245.176 207.096 245.176C208.232 245.176 209.144 244.76 209.72 243.992V245H210.872V240.2ZM209.64 242.008C209.64 243.208 208.536 244.152 207.256 244.152C206.344 244.152 205.64 243.704 205.64 242.92C205.64 242.2 206.232 241.816 207.32 241.816H209.64V242.008ZM217.629 237.208C217.421 237.16 217.229 237.144 217.053 237.144C216.109 237.144 215.197 237.56 214.637 238.312V237.208H213.485V245H214.717V240.584C214.717 239.144 215.853 238.296 217.165 238.296H217.629V237.208ZM218.566 241.096C218.534 243.288 220.406 245.208 222.63 245.16C224.854 245.208 226.774 243.288 226.726 241.096C226.774 238.872 224.87 237 222.646 237.032C220.422 236.984 218.518 238.872 218.566 241.096ZM225.462 241.112C225.462 242.744 224.214 244.024 222.63 244.024C221.046 244.024 219.83 242.744 219.83 241.112C219.83 239.432 221.046 238.168 222.646 238.168C224.23 238.168 225.462 239.432 225.462 241.112ZM228.795 241.896C228.795 243.864 230.203 245.176 232.027 245.176C233.835 245.176 235.243 243.864 235.243 241.896V237.208H234.011V241.976C234.011 243.208 233.163 244.04 232.027 244.04C230.875 244.04 230.011 243.24 230.011 241.976V237.208H228.795V241.896ZM244.292 240.104C244.292 238.264 243.204 237.032 241.396 237.032C240.42 237.032 239.572 237.4 238.996 238.04V237.208H237.844V245H239.076V240.248C239.076 239.032 239.924 238.168 241.124 238.168C242.324 238.168 243.06 239.016 243.06 240.248V245H244.292V240.104ZM253.083 233V238.36C252.459 237.528 251.371 237.032 250.203 237.032C248.011 237.032 246.347 238.824 246.347 241.112C246.347 243.4 248.011 245.176 250.203 245.176C251.419 245.176 252.555 244.648 253.147 243.768V245H254.315V233H253.083ZM253.099 241.112C253.099 243.08 251.787 244.04 250.379 244.04C248.795 244.04 247.611 242.776 247.611 241.096C247.611 239.416 248.795 238.168 250.379 238.168C251.787 238.168 253.099 239.128 253.099 241.112ZM37.616 267.96C37.216 268.024 36.88 268.056 36.576 268.056C35.504 268.056 34.928 267.672 34.928 266.568V262.312H37.36V261.208H34.928V259.08H33.696V261.208H32.384V262.312H33.696V266.648C33.696 268.36 34.704 269.176 36.32 269.176C36.688 269.176 37.12 269.112 37.616 269V267.96ZM45.9018 264.104C45.9018 262.264 44.8138 261.032 43.0218 261.032C42.0458 261.032 41.2138 261.432 40.6858 262.088V257H39.4538V269H40.6858V264.264C40.6858 263.048 41.5338 262.168 42.7338 262.168C43.9338 262.168 44.6698 263 44.6698 264.264V269H45.9018V264.104ZM55.3963 265.48C55.4603 265.16 55.4923 264.856 55.4923 264.552C55.4923 262.488 53.9563 261.032 51.9403 261.032C49.7163 261.032 47.9563 262.856 47.9563 265.112C47.9563 267.4 49.7643 269.176 52.0843 269.176C53.3163 269.176 54.3883 268.664 55.2043 267.816L54.4843 266.984C53.7803 267.688 52.9803 268.04 52.1003 268.04C50.5643 268.04 49.3803 267.016 49.2363 265.48H55.3963ZM49.2843 264.392C49.5563 263.048 50.6123 262.152 51.9083 262.152C53.2043 262.152 54.2123 263 54.2283 264.392H49.2843ZM61.5813 265.096C61.5813 267.352 63.4053 269.176 65.6613 269.176C67.0213 269.176 68.1573 268.52 68.8612 267.48L67.9813 266.792C67.3573 267.624 66.5893 268.04 65.6773 268.04C64.0613 268.04 62.8453 266.728 62.8453 265.096C62.8453 263.48 64.0613 262.168 65.6773 262.168C66.5893 262.168 67.3733 262.584 67.9973 263.432L68.8773 262.728C68.1733 261.688 67.0213 261.032 65.6613 261.032C63.4373 261 61.5333 262.872 61.5813 265.096ZM70.9538 269H72.1858V257H70.9538V269ZM74.3313 265.096C74.2993 267.288 76.1713 269.208 78.3953 269.16C80.6193 269.208 82.5393 267.288 82.4913 265.096C82.5393 262.872 80.6353 261 78.4113 261.032C76.1873 260.984 74.2833 262.872 74.3313 265.096ZM81.2273 265.112C81.2273 266.744 79.9793 268.024 78.3953 268.024C76.8113 268.024 75.5953 266.744 75.5953 265.112C75.5953 263.432 76.8113 262.168 78.4113 262.168C79.9953 262.168 81.2273 263.432 81.2273 265.112ZM84.0969 265.096C84.0969 267.352 85.9209 269.176 88.1769 269.176C89.5369 269.176 90.6729 268.52 91.3769 267.48L90.4969 266.792C89.8729 267.624 89.1049 268.04 88.1929 268.04C86.5769 268.04 85.3609 266.728 85.3609 265.096C85.3609 263.48 86.5769 262.168 88.1929 262.168C89.1049 262.168 89.8889 262.584 90.5129 263.432L91.3929 262.728C90.6889 261.688 89.5369 261.032 88.1769 261.032C85.9529 261 84.0489 262.872 84.0969 265.096ZM93.4694 269H94.7014V257H93.4694V269ZM96.3174 264.632L99.6934 261.208H98.0774L94.8294 264.616L98.4134 269H99.9974L96.3174 264.632ZM107.472 259.432C107.472 258.328 108.064 257.944 109.104 257.944C109.312 257.944 109.536 257.96 109.792 257.992V256.952C109.488 256.872 109.152 256.824 108.816 256.824C107.232 256.824 106.24 257.64 106.24 259.352V261.208H105.12V262.312H106.24V269H107.472V262.312H109.424V261.208H107.472V259.432ZM110.331 265.096C110.299 267.288 112.171 269.208 114.395 269.16C116.619 269.208 118.539 267.288 118.491 265.096C118.539 262.872 116.635 261 114.411 261.032C112.187 260.984 110.283 262.872 110.331 265.096ZM117.227 265.112C117.227 266.744 115.979 268.024 114.395 268.024C112.811 268.024 111.595 266.744 111.595 265.112C111.595 263.432 112.811 262.168 114.411 262.168C115.995 262.168 117.227 263.432 117.227 265.112ZM124.801 261.208C124.593 261.16 124.401 261.144 124.225 261.144C123.281 261.144 122.369 261.56 121.809 262.312V261.208H120.657V269H121.889V264.584C121.889 263.144 123.025 262.296 124.337 262.296H124.801V261.208ZM130.378 265.096C130.346 267.288 132.218 269.208 134.442 269.16C136.666 269.208 138.586 267.288 138.538 265.096C138.586 262.872 136.682 261 134.458 261.032C132.234 260.984 130.33 262.872 130.378 265.096ZM137.274 265.112C137.274 266.744 136.026 268.024 134.442 268.024C132.858 268.024 131.642 266.744 131.642 265.112C131.642 263.432 132.858 262.168 134.458 262.168C136.042 262.168 137.274 263.432 137.274 265.112ZM147.152 264.104C147.152 262.264 146.064 261.032 144.256 261.032C143.28 261.032 142.432 261.4 141.856 262.04V261.208H140.704V269H141.936V264.248C141.936 263.032 142.784 262.168 143.984 262.168C145.184 262.168 145.92 263.016 145.92 264.248V269H147.152V264.104ZM156.086 261.208V262.456C155.494 261.56 154.358 261.032 153.126 261.032C150.934 261.032 149.302 262.744 149.302 264.984C149.302 267.24 150.934 268.92 153.126 268.92C154.294 268.92 155.398 268.44 156.022 267.624V268.312C156.022 269.992 155.046 270.92 153.43 270.92C152.262 270.92 151.398 270.456 150.518 269.688L149.798 270.552C150.678 271.432 151.942 272.056 153.462 272.056C155.766 272.056 157.254 270.616 157.254 268.248V261.208H156.086ZM156.038 264.984C156.038 266.872 154.742 267.784 153.318 267.784C151.734 267.784 150.55 266.648 150.55 265C150.55 263.368 151.734 262.2 153.318 262.2C154.726 262.2 156.038 263.112 156.038 264.984ZM159.394 265.096C159.362 267.288 161.234 269.208 163.458 269.16C165.682 269.208 167.602 267.288 167.554 265.096C167.602 262.872 165.698 261 163.474 261.032C161.25 260.984 159.346 262.872 159.394 265.096ZM166.29 265.112C166.29 266.744 165.042 268.024 163.458 268.024C161.874 268.024 160.658 266.744 160.658 265.112C160.658 263.432 161.874 262.168 163.474 262.168C165.058 262.168 166.29 263.432 166.29 265.112ZM169.719 269H170.951V261.208H169.719V269ZM169.415 258.232C169.415 258.744 169.831 259.128 170.343 259.128C170.855 259.128 171.255 258.744 171.255 258.232C171.255 257.736 170.839 257.336 170.343 257.336C169.831 257.336 169.415 257.736 169.415 258.232ZM180.105 264.104C180.105 262.264 179.017 261.032 177.209 261.032C176.233 261.032 175.385 261.4 174.809 262.04V261.208H173.657V269H174.889V264.248C174.889 263.032 175.737 262.168 176.937 262.168C178.137 262.168 178.873 263.016 178.873 264.248V269H180.105V264.104ZM189.039 261.208V262.456C188.447 261.56 187.311 261.032 186.079 261.032C183.887 261.032 182.255 262.744 182.255 264.984C182.255 267.24 183.887 268.92 186.079 268.92C187.247 268.92 188.351 268.44 188.975 267.624V268.312C188.975 269.992 187.999 270.92 186.383 270.92C185.215 270.92 184.351 270.456 183.471 269.688L182.751 270.552C183.631 271.432 184.895 272.056 186.415 272.056C188.719 272.056 190.207 270.616 190.207 268.248V261.208H189.039ZM188.991 264.984C188.991 266.872 187.695 267.784 186.271 267.784C184.687 267.784 183.503 266.648 183.503 265C183.503 263.368 184.687 262.2 186.271 262.2C187.679 262.2 188.991 263.112 188.991 264.984ZM196.655 267.656C197.343 268.552 198.399 269.176 199.695 269.176C200.463 269.176 201.103 268.984 201.631 268.584C202.159 268.184 202.431 267.608 202.431 266.888C202.431 265.816 201.823 265.208 200.367 264.584L199.647 264.28C198.703 263.88 198.383 263.64 198.383 263.144C198.383 262.52 198.911 262.168 199.679 262.168C200.399 262.168 201.071 262.504 201.599 263.032L202.351 262.264C201.711 261.496 200.831 261.032 199.743 261.032C198.255 261.032 197.119 261.848 197.119 263.208C197.119 264.248 197.759 264.84 199.055 265.368L199.807 265.688C200.767 266.072 201.167 266.312 201.167 266.936C201.167 267.624 200.527 268.04 199.679 268.04C198.799 268.04 198.191 267.608 197.439 266.84L196.655 267.656ZM204.561 265.896C204.561 267.864 205.969 269.176 207.793 269.176C209.601 269.176 211.009 267.864 211.009 265.896V261.208H209.777V265.976C209.777 267.208 208.929 268.04 207.793 268.04C206.641 268.04 205.777 267.24 205.777 265.976V261.208H204.561V265.896ZM221.562 265.096C221.562 262.808 219.93 261.032 217.706 261.032C216.49 261.032 215.354 261.56 214.762 262.456V261.208H213.61V271.88H214.842V267.88C215.482 268.696 216.554 269.176 217.706 269.176C219.898 269.176 221.562 267.384 221.562 265.096ZM220.298 265.112C220.298 266.792 219.114 268.04 217.53 268.04C216.09 268.04 214.826 267.08 214.826 265.096C214.826 263.128 216.138 262.168 217.53 262.168C219.114 262.168 220.298 263.432 220.298 265.112ZM231.671 265.096C231.671 262.808 230.039 261.032 227.815 261.032C226.599 261.032 225.463 261.56 224.871 262.456V261.208H223.719V271.88H224.951V267.88C225.591 268.696 226.663 269.176 227.815 269.176C230.007 269.176 231.671 267.384 231.671 265.096ZM230.407 265.112C230.407 266.792 229.223 268.04 227.639 268.04C226.199 268.04 224.935 267.08 224.935 265.096C224.935 263.128 226.247 262.168 227.639 262.168C229.223 262.168 230.407 263.432 230.407 265.112ZM233.269 265.096C233.237 267.288 235.109 269.208 237.333 269.16C239.557 269.208 241.477 267.288 241.429 265.096C241.477 262.872 239.573 261 237.349 261.032C235.125 260.984 233.221 262.872 233.269 265.096ZM240.165 265.112C240.165 266.744 238.917 268.024 237.333 268.024C235.749 268.024 234.533 266.744 234.533 265.112C234.533 263.432 235.749 262.168 237.349 262.168C238.933 262.168 240.165 263.432 240.165 265.112ZM247.738 261.208C247.53 261.16 247.338 261.144 247.162 261.144C246.218 261.144 245.306 261.56 244.746 262.312V261.208H243.594V269H244.826V264.584C244.826 263.144 245.962 262.296 247.274 262.296H247.738V261.208ZM253.647 267.96C253.247 268.024 252.911 268.056 252.607 268.056C251.535 268.056 250.959 267.672 250.959 266.568V262.312H253.391V261.208H250.959V259.08H249.727V261.208H248.415V262.312H249.727V266.648C249.727 268.36 250.735 269.176 252.351 269.176C252.719 269.176 253.151 269.112 253.647 269V267.96ZM255.565 271.864H256.573L257.229 267.56H255.773L255.565 271.864ZM37.504 285.208C37.296 285.16 37.104 285.144 36.928 285.144C35.984 285.144 35.072 285.56 34.512 286.312V285.208H33.36V293H34.592V288.584C34.592 287.144 35.728 286.296 37.04 286.296H37.504V285.208ZM45.8806 289.48C45.9446 289.16 45.9766 288.856 45.9766 288.552C45.9766 286.488 44.4406 285.032 42.4246 285.032C40.2006 285.032 38.4406 286.856 38.4406 289.112C38.4406 291.4 40.2486 293.176 42.5686 293.176C43.8006 293.176 44.8726 292.664 45.6886 291.816L44.9686 290.984C44.2646 291.688 43.4646 292.04 42.5846 292.04C41.0486 292.04 39.8646 291.016 39.7206 289.48H45.8806ZM39.7686 288.392C40.0406 287.048 41.0966 286.152 42.3926 286.152C43.6886 286.152 44.6966 287 44.7126 288.392H39.7686ZM49.5653 283.432C49.5653 282.328 50.1573 281.944 51.1973 281.944C51.4053 281.944 51.6293 281.96 51.8853 281.992V280.952C51.5813 280.872 51.2453 280.824 50.9093 280.824C49.3253 280.824 48.3333 281.64 48.3333 283.352V285.208H47.2133V286.312H48.3333V293H49.5653V286.312H51.5173V285.208H49.5653V283.432ZM53.2293 293H54.4613V285.208H53.2293V293ZM52.9253 282.232C52.9253 282.744 53.3413 283.128 53.8533 283.128C54.3653 283.128 54.7653 282.744 54.7653 282.232C54.7653 281.736 54.3493 281.336 53.8533 281.336C53.3413 281.336 52.9253 281.736 52.9253 282.232ZM57.1725 293H58.4045V281H57.1725V293ZM61.11 293H62.342V281H61.11V293ZM64.3115 291.656C64.9995 292.552 66.0555 293.176 67.3515 293.176C68.1195 293.176 68.7595 292.984 69.2875 292.584C69.8155 292.184 70.0875 291.608 70.0875 290.888C70.0875 289.816 69.4795 289.208 68.0235 288.584L67.3035 288.28C66.3595 287.88 66.0395 287.64 66.0395 287.144C66.0395 286.52 66.5675 286.168 67.3355 286.168C68.0555 286.168 68.7275 286.504 69.2555 287.032L70.0075 286.264C69.3675 285.496 68.4875 285.032 67.3995 285.032C65.9115 285.032 64.7755 285.848 64.7755 287.208C64.7755 288.248 65.4155 288.84 66.7115 289.368L67.4635 289.688C68.4235 290.072 68.8235 290.312 68.8235 290.936C68.8235 291.624 68.1835 292.04 67.3355 292.04C66.4555 292.04 65.8475 291.608 65.0955 290.84L64.3115 291.656ZM72.3931 295.864H73.4011L74.0571 291.56H72.6011L72.3931 295.864ZM87.1219 288.2C87.1219 286.152 85.9219 285.032 84.0819 285.032C82.7859 285.032 81.6179 285.592 80.9139 286.744L81.7299 287.416C82.3699 286.584 83.0579 286.168 84.0019 286.168C85.1699 286.168 85.8899 286.856 85.8899 288.136V288.808H83.4259C81.7459 288.808 80.6259 289.656 80.6259 290.984C80.6259 292.328 81.7459 293.176 83.3459 293.176C84.4819 293.176 85.3939 292.76 85.9699 291.992V293H87.1219V288.2ZM85.8899 290.008C85.8899 291.208 84.7859 292.152 83.5059 292.152C82.5939 292.152 81.8899 291.704 81.8899 290.92C81.8899 290.2 82.4819 289.816 83.5699 289.816H85.8899V290.008ZM96.183 288.104C96.183 286.264 95.095 285.032 93.287 285.032C92.311 285.032 91.463 285.4 90.887 286.04V285.208H89.735V293H90.967V288.248C90.967 287.032 91.815 286.168 93.015 286.168C94.215 286.168 94.951 287.016 94.951 288.248V293H96.183V288.104ZM104.974 281V286.36C104.35 285.528 103.262 285.032 102.094 285.032C99.9015 285.032 98.2375 286.824 98.2375 289.112C98.2375 291.4 99.9015 293.176 102.094 293.176C103.31 293.176 104.446 292.648 105.038 291.768V293H106.206V281H104.974ZM104.99 289.112C104.99 291.08 103.678 292.04 102.27 292.04C100.686 292.04 99.5015 290.776 99.5015 289.096C99.5015 287.416 100.686 286.168 102.27 286.168C103.678 286.168 104.99 287.128 104.99 289.112ZM113.391 293H114.623V281H113.391V293ZM117.329 293H118.561V285.208H117.329V293ZM117.025 282.232C117.025 282.744 117.441 283.128 117.953 283.128C118.465 283.128 118.865 282.744 118.865 282.232C118.865 281.736 118.449 281.336 117.953 281.336C117.441 281.336 117.025 281.736 117.025 282.232ZM122.69 283.432C122.69 282.328 123.282 281.944 124.322 281.944C124.53 281.944 124.754 281.96 125.01 281.992V280.952C124.706 280.872 124.37 280.824 124.034 280.824C122.45 280.824 121.458 281.64 121.458 283.352V285.208H120.338V286.312H121.458V293H122.69V286.312H124.642V285.208H122.69V283.432ZM132.99 289.48C133.054 289.16 133.086 288.856 133.086 288.552C133.086 286.488 131.55 285.032 129.534 285.032C127.31 285.032 125.55 286.856 125.55 289.112C125.55 291.4 127.358 293.176 129.678 293.176C130.91 293.176 131.982 292.664 132.798 291.816L132.078 290.984C131.374 291.688 130.574 292.04 129.694 292.04C128.158 292.04 126.974 291.016 126.83 289.48H132.99ZM126.878 288.392C127.15 287.048 128.206 286.152 129.502 286.152C130.798 286.152 131.806 287 131.822 288.392H126.878ZM134.515 291.656C135.203 292.552 136.259 293.176 137.555 293.176C138.323 293.176 138.963 292.984 139.491 292.584C140.019 292.184 140.291 291.608 140.291 290.888C140.291 289.816 139.683 289.208 138.227 288.584L137.507 288.28C136.563 287.88 136.243 287.64 136.243 287.144C136.243 286.52 136.771 286.168 137.539 286.168C138.259 286.168 138.931 286.504 139.459 287.032L140.211 286.264C139.571 285.496 138.691 285.032 137.603 285.032C136.115 285.032 134.979 285.848 134.979 287.208C134.979 288.248 135.619 288.84 136.915 289.368L137.667 289.688C138.627 290.072 139.027 290.312 139.027 290.936C139.027 291.624 138.387 292.04 137.539 292.04C136.659 292.04 136.051 291.608 135.299 290.84L134.515 291.656ZM146.772 291.96C146.372 292.024 146.036 292.056 145.732 292.056C144.66 292.056 144.084 291.672 144.084 290.568V286.312H146.516V285.208H144.084V283.08H142.852V285.208H141.54V286.312H142.852V290.648C142.852 292.36 143.86 293.176 145.476 293.176C145.844 293.176 146.276 293.112 146.772 293V291.96ZM154.146 285.208L151.57 291.416L148.994 285.208H147.666L150.898 292.76L150.482 293.688C150.082 294.632 149.538 294.936 148.722 294.936C148.498 294.936 148.178 294.904 147.778 294.856V295.896C148.178 296.008 148.578 296.056 148.978 296.056C150.178 296.056 151.026 295.448 151.618 294.088L155.458 285.208H154.146ZM157.235 293H158.467V281H157.235V293ZM168.053 289.48C168.117 289.16 168.149 288.856 168.149 288.552C168.149 286.488 166.613 285.032 164.597 285.032C162.373 285.032 160.613 286.856 160.613 289.112C160.613 291.4 162.421 293.176 164.741 293.176C165.973 293.176 167.045 292.664 167.861 291.816L167.141 290.984C166.437 291.688 165.637 292.04 164.757 292.04C163.221 292.04 162.037 291.016 161.893 289.48H168.053ZM161.941 288.392C162.213 287.048 163.269 286.152 164.565 286.152C165.861 286.152 166.869 287 166.885 288.392H161.941ZM174.238 289.096C174.238 291.352 176.062 293.176 178.318 293.176C179.678 293.176 180.814 292.52 181.517 291.48L180.638 290.792C180.014 291.624 179.246 292.04 178.334 292.04C176.718 292.04 175.502 290.728 175.502 289.096C175.502 287.48 176.718 286.168 178.334 286.168C179.246 286.168 180.03 286.584 180.654 287.432L181.534 286.728C180.83 285.688 179.678 285.032 178.318 285.032C176.094 285 174.19 286.872 174.238 289.096ZM182.894 289.096C182.862 291.288 184.734 293.208 186.958 293.16C189.182 293.208 191.102 291.288 191.054 289.096C191.102 286.872 189.198 285 186.974 285.032C184.75 284.984 182.846 286.872 182.894 289.096ZM189.79 289.112C189.79 290.744 188.542 292.024 186.958 292.024C185.374 292.024 184.158 290.744 184.158 289.112C184.158 287.432 185.374 286.168 186.974 286.168C188.558 286.168 189.79 287.432 189.79 289.112ZM199.059 288.2C199.059 286.152 197.859 285.032 196.019 285.032C194.723 285.032 193.555 285.592 192.851 286.744L193.667 287.416C194.307 286.584 194.995 286.168 195.939 286.168C197.107 286.168 197.827 286.856 197.827 288.136V288.808H195.363C193.683 288.808 192.563 289.656 192.563 290.984C192.563 292.328 193.683 293.176 195.283 293.176C196.419 293.176 197.331 292.76 197.907 291.992V293H199.059V288.2ZM197.827 290.008C197.827 291.208 196.723 292.152 195.443 292.152C194.531 292.152 193.827 291.704 193.827 290.92C193.827 290.2 194.419 289.816 195.507 289.816H197.827V290.008ZM201.113 289.096C201.113 291.352 202.937 293.176 205.193 293.176C206.553 293.176 207.689 292.52 208.392 291.48L207.513 290.792C206.889 291.624 206.121 292.04 205.209 292.04C203.593 292.04 202.377 290.728 202.377 289.096C202.377 287.48 203.593 286.168 205.209 286.168C206.121 286.168 206.905 286.584 207.529 287.432L208.409 286.728C207.705 285.688 206.553 285.032 205.193 285.032C202.969 285 201.065 286.872 201.113 289.096ZM216.933 288.104C216.933 286.264 215.845 285.032 214.053 285.032C213.077 285.032 212.245 285.432 211.717 286.088V281H210.485V293H211.717V288.264C211.717 287.048 212.565 286.168 213.765 286.168C214.965 286.168 215.701 287 215.701 288.264V293H216.933V288.104ZM219.548 293H220.78V285.208H219.548V293ZM219.243 282.232C219.243 282.744 219.66 283.128 220.172 283.128C220.684 283.128 221.084 282.744 221.084 282.232C221.084 281.736 220.668 281.336 220.172 281.336C219.66 281.336 219.243 281.736 219.243 282.232ZM229.933 288.104C229.933 286.264 228.845 285.032 227.037 285.032C226.061 285.032 225.213 285.4 224.637 286.04V285.208H223.485V293H224.717V288.248C224.717 287.032 225.565 286.168 226.765 286.168C227.965 286.168 228.701 287.016 228.701 288.248V293H229.933V288.104ZM238.868 285.208V286.456C238.276 285.56 237.14 285.032 235.908 285.032C233.716 285.032 232.084 286.744 232.084 288.984C232.084 291.24 233.716 292.92 235.908 292.92C237.076 292.92 238.18 292.44 238.804 291.624V292.312C238.804 293.992 237.828 294.92 236.212 294.92C235.044 294.92 234.18 294.456 233.299 293.688L232.58 294.552C233.46 295.432 234.724 296.056 236.244 296.056C238.548 296.056 240.036 294.616 240.036 292.248V285.208H238.868ZM238.82 288.984C238.82 290.872 237.524 291.784 236.1 291.784C234.516 291.784 233.332 290.648 233.332 289C233.332 287.368 234.516 286.2 236.1 286.2C237.508 286.2 238.82 287.112 238.82 288.984ZM242.607 292.168C242.607 292.744 243.055 293.176 243.615 293.176C244.175 293.176 244.623 292.744 244.623 292.168C244.623 291.592 244.175 291.16 243.615 291.16C243.055 291.16 242.607 291.592 242.607 292.168Z" fill="#6C6A7C"/>
<rect x="12.75" y="0.75" width="268.5" height="318.5" rx="19.25" stroke="#F2F4F7" stroke-width="1.5"/>
</g>
<defs>
<filter id="filter0_dd_2274_14130" x="0" y="0" width="294" height="344" filterUnits="userSpaceOnUse" color-interpolation-filters="sRGB">
<feFlood flood-opacity="0" result="BackgroundImageFix"/>
<feColorMatrix in="SourceAlpha" type="matrix" values="0 0 0 0 0 0 0 0 0 0 0 0 0 0 0 0 0 0 127 0" result="hardAlpha"/>
<feMorphology radius="2" operator="erode" in="SourceAlpha" result="effect1_dropShadow_2274_14130"/>
<feOffset dy="4"/>
<feGaussianBlur stdDeviation="3"/>
<feColorMatrix type="matrix" values="0 0 0 0 0.192157 0 0 0 0 0.2 0 0 0 0 0.215686 0 0 0 0.05 0"/>
<feBlend mode="normal" in2="BackgroundImageFix" result="effect1_dropShadow_2274_14130"/>
<feColorMatrix in="SourceAlpha" type="matrix" values="0 0 0 0 0 0 0 0 0 0 0 0 0 0 0 0 0 0 127 0" result="hardAlpha"/>
<feMorphology radius="4" operator="erode" in="SourceAlpha" result="effect2_dropShadow_2274_14130"/>
<feOffset dy="12"/>
<feGaussianBlur stdDeviation="8"/>
<feColorMatrix type="matrix" values="0 0 0 0 0.192157 0 0 0 0 0.2 0 0 0 0 0.215686 0 0 0 0.1 0"/>
<feBlend mode="normal" in2="effect1_dropShadow_2274_14130" result="effect2_dropShadow_2274_14130"/>
<feBlend mode="normal" in="SourceGraphic" in2="effect2_dropShadow_2274_14130" result="shape"/>
</filter>
<clipPath id="clip0_2274_14130">
<rect x="32" y="20" width="230" height="155" rx="12" fill="white"/>
</clipPath>
</defs>
</svg>
