<svg width="268" height="218" viewBox="0 0 268 218" fill="none" xmlns="http://www.w3.org/2000/svg">
<g clip-path="url(#clip0_2891_33037)">
<rect width="268" height="218" rx="8" fill="#F7F9FE"/>
<path d="M186.157 122.423H147.883V179.843H186.157V122.423Z" fill="#7D9DF1"/>
<path d="M190.783 107H143.264V122.415H190.783V107Z" fill="#455A64"/>
<path d="M179.762 138.941H154.283V164.42H179.762V138.941Z" fill="white"/>
<path opacity="0.1" d="M147.883 122.423V126.895L169.432 135.037V179.834H179.763V122.423H147.883Z" fill="#403E48"/>
<path d="M136 178.524C136 177.892 136.125 177.266 136.367 176.683C136.609 176.099 136.964 175.568 137.411 175.122C137.859 174.675 138.39 174.321 138.974 174.08C139.558 173.839 140.184 173.715 140.817 173.717H150.398C151.03 173.715 151.657 173.839 152.242 174.08C152.827 174.321 153.358 174.675 153.806 175.121C154.254 175.568 154.61 176.098 154.853 176.682C155.096 177.266 155.222 177.892 155.223 178.524C155.221 179.803 154.711 181.028 153.807 181.931C152.902 182.834 151.676 183.341 150.398 183.341H140.851C140.216 183.344 139.586 183.222 138.999 182.982C138.411 182.742 137.876 182.387 137.425 181.94C136.975 181.492 136.617 180.96 136.372 180.374C136.128 179.788 136.001 179.16 136 178.524Z" fill="#455A64"/>
<path d="M136 178.524C136 177.892 136.125 177.266 136.367 176.683C136.609 176.099 136.964 175.568 137.411 175.122C137.859 174.675 138.39 174.321 138.974 174.08C139.558 173.839 140.184 173.715 140.817 173.717H145.599V183.358H140.851C140.214 183.362 139.584 183.239 138.995 182.998C138.406 182.756 137.87 182.4 137.419 181.951C136.968 181.502 136.611 180.968 136.367 180.38C136.124 179.792 135.999 179.161 136 178.524Z" fill="#7D9DF1"/>
<path d="M201.484 178.524C201.483 179.157 201.357 179.783 201.114 180.367C200.871 180.951 200.516 181.481 200.067 181.928C199.619 182.374 199.088 182.728 198.503 182.969C197.918 183.21 197.292 183.333 196.659 183.332H187.155C186.523 183.333 185.896 183.21 185.311 182.969C184.727 182.728 184.195 182.374 183.747 181.928C183.299 181.481 182.943 180.951 182.7 180.367C182.457 179.783 182.331 179.157 182.33 178.524C182.33 177.245 182.838 176.017 183.743 175.112C184.648 174.208 185.876 173.699 187.155 173.699H196.694C197.967 173.708 199.186 174.221 200.083 175.125C200.981 176.029 201.484 177.251 201.484 178.524Z" fill="#455A64"/>
<path d="M201.484 178.524C201.483 179.157 201.357 179.783 201.114 180.367C200.871 180.951 200.515 181.481 200.067 181.928C199.619 182.374 199.088 182.728 198.503 182.969C197.918 183.21 197.291 183.333 196.659 183.332H191.92V173.699H196.693C197.967 173.708 199.186 174.221 200.083 175.125C200.98 176.029 201.484 177.251 201.484 178.524Z" fill="#7D9DF1"/>
<path d="M212.349 180.463C211.903 180.911 211.372 181.266 210.788 181.508C210.204 181.75 209.578 181.875 208.946 181.875C208.314 181.875 207.688 181.75 207.104 181.508C206.52 181.266 205.989 180.911 205.543 180.463L198.787 173.717C197.885 172.813 197.379 171.589 197.379 170.313C197.379 169.037 197.885 167.813 198.787 166.91C199.693 166.007 200.92 165.5 202.199 165.5C203.478 165.5 204.705 166.007 205.611 166.91L212.358 173.656C213.257 174.562 213.76 175.786 213.759 177.061C213.757 178.337 213.25 179.56 212.349 180.463Z" fill="#455A64"/>
<path d="M212.351 180.463C211.904 180.911 211.373 181.266 210.789 181.508C210.205 181.75 209.579 181.875 208.947 181.875C208.315 181.875 207.689 181.75 207.105 181.508C206.521 181.266 205.99 180.911 205.544 180.463L202.166 177.086L208.982 170.27L212.359 173.648C213.26 174.553 213.766 175.779 213.764 177.057C213.762 178.335 213.254 179.56 212.351 180.463Z" fill="#7D9DF1"/>
<path d="M168.691 188.166C168.693 187.534 168.818 186.908 169.061 186.324C169.304 185.74 169.66 185.21 170.108 184.763C170.556 184.317 171.088 183.963 171.673 183.722C172.258 183.481 172.884 183.357 173.517 183.358H183.055C183.687 183.357 184.314 183.481 184.899 183.722C185.484 183.963 186.015 184.317 186.463 184.763C186.911 185.21 187.267 185.74 187.51 186.324C187.753 186.908 187.879 187.534 187.88 188.166C187.878 189.445 187.368 190.67 186.464 191.573C185.559 192.476 184.333 192.983 183.055 192.983H173.517C172.238 192.983 171.012 192.476 170.108 191.573C169.203 190.67 168.694 189.445 168.691 188.166Z" fill="#455A64"/>
<path d="M168.691 188.166C168.693 187.534 168.818 186.908 169.061 186.324C169.304 185.74 169.66 185.21 170.108 184.763C170.556 184.317 171.088 183.963 171.673 183.722C172.258 183.481 172.884 183.357 173.517 183.358H178.29V193H173.517C172.882 193 172.254 192.875 171.668 192.632C171.082 192.389 170.55 192.033 170.102 191.584C169.653 191.135 169.298 190.602 169.056 190.016C168.814 189.429 168.69 188.801 168.691 188.166Z" fill="#7D9DF1"/>
<path d="M64.9132 79.7241H109.561C112.459 79.7241 115.238 80.8753 117.288 82.9245C119.337 84.9737 120.488 87.753 120.488 90.651V188.915C120.488 189.998 120.058 191.037 119.292 191.803C118.526 192.569 117.487 193 116.403 193H58.1355C57.0522 193 56.0132 192.569 55.2472 191.803C54.4812 191.037 54.0508 189.998 54.0508 188.915V90.6381C54.0541 87.7535 55.198 84.9872 57.2329 82.9426C59.2678 80.8981 62.0286 79.7411 64.9132 79.7241Z" fill="#7D9DF1"/>
<path d="M106.496 65.3445H67.9941V82.9846H106.496V65.3445Z" fill="#7D9DF1"/>
<path d="M120.489 116.615H54V161.444H120.489V116.615Z" fill="#EBEBEB"/>
<path d="M120.489 152.282H54V156.341H120.489V152.282Z" fill="#455A64"/>
<path d="M120.489 121.731H54V125.79H120.489V121.731Z" fill="#455A64"/>
<path d="M109.174 53H65.3125V69.3387H109.174V53Z" fill="#455A64"/>
<path d="M111.47 69.3259H63.0078V74.158H111.47V69.3259Z" fill="#37474F"/>
<path d="M68.8178 55.2808H68.2509C67.8524 55.2808 67.5293 55.6039 67.5293 56.0024V66.3365C67.5293 66.735 67.8524 67.058 68.2509 67.058H68.8178C69.2164 67.058 69.5394 66.735 69.5394 66.3365V56.0024C69.5394 55.6039 69.2164 55.2808 68.8178 55.2808Z" fill="#37474F"/>
<path d="M72.5542 55.2808H71.9872C71.5887 55.2808 71.2656 55.6039 71.2656 56.0024V66.3365C71.2656 66.735 71.5887 67.058 71.9872 67.058H72.5542C72.9527 67.058 73.2757 66.735 73.2757 66.3365V56.0024C73.2757 55.6039 72.9527 55.2808 72.5542 55.2808Z" fill="#37474F"/>
<path d="M75.7247 55.2809H76.3046C76.4925 55.2809 76.6728 55.3556 76.8057 55.4885C76.9386 55.6214 77.0133 55.8016 77.0133 55.9896V66.2979C77.0133 66.4893 76.9373 66.6728 76.8019 66.8081C76.6666 66.9435 76.483 67.0195 76.2917 67.0195H75.7119C75.5205 67.0195 75.3369 66.9435 75.2016 66.8081C75.0663 66.6728 74.9902 66.4893 74.9902 66.2979V55.9896C74.9919 55.8948 75.0123 55.8013 75.0501 55.7144C75.0879 55.6275 75.1425 55.5489 75.2107 55.4831C75.2789 55.4173 75.3594 55.3656 75.4476 55.3309C75.5358 55.2962 75.6299 55.2792 75.7247 55.2809Z" fill="#37474F"/>
<path d="M80.0405 55.2808H79.4735C79.075 55.2808 78.752 55.6039 78.752 56.0024V66.3365C78.752 66.735 79.075 67.058 79.4735 67.058H80.0405C80.439 67.058 80.7621 66.735 80.7621 66.3365V56.0024C80.7621 55.6039 80.439 55.2808 80.0405 55.2808Z" fill="#37474F"/>
<path d="M83.7905 55.2808H83.2235C82.825 55.2808 82.502 55.6039 82.502 56.0024V66.3365C82.502 66.735 82.825 67.058 83.2235 67.058H83.7905C84.189 67.058 84.5121 66.735 84.5121 66.3365V56.0024C84.5121 55.6039 84.189 55.2808 83.7905 55.2808Z" fill="#37474F"/>
<path d="M86.9471 55.2808H87.5269C87.7183 55.2808 87.9019 55.3568 88.0372 55.4921C88.1725 55.6274 88.2485 55.811 88.2485 56.0024V66.3107C88.2485 66.5021 88.1725 66.6856 88.0372 66.8209C87.9019 66.9563 87.7183 67.0323 87.5269 67.0323H86.9471C86.7591 67.0323 86.5789 66.9576 86.446 66.8247C86.3131 66.6918 86.2384 66.5115 86.2384 66.3236V56.0152C86.2367 55.9205 86.2537 55.8263 86.2884 55.7381C86.3231 55.6499 86.3748 55.5694 86.4406 55.5012C86.5064 55.433 86.585 55.3784 86.6719 55.3406C86.7588 55.3028 86.8523 55.2824 86.9471 55.2808Z" fill="#37474F"/>
<path d="M91.2651 55.2808H90.6981C90.2996 55.2808 89.9766 55.6039 89.9766 56.0024V66.3365C89.9766 66.735 90.2996 67.058 90.6981 67.058H91.2651C91.6636 67.058 91.9867 66.735 91.9867 66.3365V56.0024C91.9867 55.6039 91.6636 55.2808 91.2651 55.2808Z" fill="#37474F"/>
<path d="M95.0151 55.2808H94.4481C94.0496 55.2808 93.7266 55.6039 93.7266 56.0024V66.3365C93.7266 66.735 94.0496 67.058 94.4481 67.058H95.0151C95.4136 67.058 95.7367 66.735 95.7367 66.3365V56.0024C95.7367 55.6039 95.4136 55.2808 95.0151 55.2808Z" fill="#37474F"/>
<path d="M98.1834 55.2808H98.7633C98.9546 55.2808 99.1382 55.3568 99.2735 55.4921C99.4088 55.6274 99.4848 55.811 99.4848 56.0024V66.3107C99.4848 66.5021 99.4088 66.6856 99.2735 66.8209C99.1382 66.9563 98.9546 67.0323 98.7633 67.0323H98.1834C97.9955 67.0323 97.8152 66.9576 97.6823 66.8247C97.5494 66.6918 97.4747 66.5115 97.4747 66.3236V56.0152C97.473 55.9205 97.49 55.8263 97.5247 55.7381C97.5594 55.6499 97.6111 55.5694 97.6769 55.5012C97.7427 55.433 97.8214 55.3784 97.9083 55.3406C97.9952 55.3028 98.0886 55.2824 98.1834 55.2808Z" fill="#37474F"/>
<path d="M102.488 55.2808H101.921C101.522 55.2808 101.199 55.6039 101.199 56.0024V66.3365C101.199 66.735 101.522 67.058 101.921 67.058H102.488C102.886 67.058 103.209 66.735 103.209 66.3365V56.0024C103.209 55.6039 102.886 55.2808 102.488 55.2808Z" fill="#37474F"/>
<path d="M106.238 55.2808H105.671C105.272 55.2808 104.949 55.6039 104.949 56.0024V66.3365C104.949 66.735 105.272 67.058 105.671 67.058H106.238C106.636 67.058 106.959 66.735 106.959 66.3365V56.0024C106.959 55.6039 106.636 55.2808 106.238 55.2808Z" fill="#37474F"/>
<path d="M-66.1516 11.584C-67.4668 11.3219 -68.7745 10.9694 -70.0429 10.6247L-69.8985 9.88719C-68.6104 10.2358 -67.3068 10.5568 -66.0072 10.8464L-66.1516 11.584ZM-61.2441 12.5618L-61.0997 11.8242C-59.7943 12.0843 -58.456 12.2283 -57.1314 12.3901L-57.2169 13.1394C-58.5279 12.9599 -59.8879 12.7707 -61.2108 12.548L-61.2441 12.5618ZM-74.9423 9.1888C-76.2345 8.75762 -77.5072 8.33036 -78.7642 7.87554L-78.5138 7.16933C-77.2744 7.6104 -76.0037 8.0475 -74.6899 8.47275L-74.9423 9.1888ZM-52.2349 13.5802L-52.1905 12.8329C-50.8701 12.9121 -49.5341 12.9637 -48.1942 12.9957L-48.2091 13.7488C-49.498 13.7168 -50.8733 13.6574 -52.2016 13.5664L-52.2349 13.5802ZM-83.4609 6.08148C-84.7181 5.57554 -85.9696 5.04011 -87.1701 4.50461L-86.8724 3.81799C-85.672 4.35349 -84.4284 4.87716 -83.181 5.38114L-83.4609 6.08148ZM-43.1445 13.7157L-43.1708 12.9645C-41.8684 12.9277 -40.5191 12.8594 -39.17 12.7399L-39.1222 13.4851C-40.4773 13.5829 -41.8266 13.6513 -43.1407 13.696L-43.1445 13.7157ZM-91.7052 2.35446C-92.9118 1.74621 -94.1146 1.11828 -95.2723 0.468689L-94.9098 -0.184549C-93.76 0.453259 -92.567 1.07922 -91.3702 1.68551L-91.7052 2.35446ZM-34.1139 13.0627L-34.1931 12.3214C-32.8695 12.1764 -31.5422 12.0117 -30.2227 11.8353L-30.1239 12.5804C-31.4395 12.7372 -32.7728 12.8803 -34.0708 13.0508L-34.1139 13.0627ZM157.461 50.466C156.342 50.2431 155.223 50.0202 154.14 49.7225L154.284 48.9849C155.373 49.202 156.477 49.5036 157.576 49.7226L158.195 49.8458L158.05 50.5834L157.461 50.466ZM163.069 51.3585L163.213 50.6209C164.518 50.7787 165.85 50.9011 167.218 50.9999L167.172 51.757C165.785 51.6543 164.393 51.5202 163.108 51.3663L163.069 51.3585ZM149.287 48.3061C147.993 47.8848 146.718 47.4162 145.481 46.9142L145.759 46.2237C146.979 46.712 148.246 47.1687 149.518 47.596L149.287 48.3061ZM-99.6599 -2.12209C-100.814 -2.84248 -101.941 -3.5983 -103.028 -4.3463L-102.601 -4.96619C-101.533 -4.2221 -100.399 -3.50561 -99.2601 -2.75767L-99.6599 -2.12209ZM172.133 51.9384L172.138 51.1833C173.453 51.1897 174.792 51.1705 176.138 51.1218L176.164 51.8729C174.858 51.9294 173.491 51.9329 172.172 51.9462L172.133 51.9384ZM-25.1894 11.8061L-25.3098 11.0669L-21.3636 10.392L-21.2334 11.1332L-25.1894 11.8061ZM140.869 44.8408C139.671 44.2444 138.472 43.5968 137.308 42.9256L137.69 42.2762C138.834 42.9435 140.015 43.5774 141.204 44.1719L140.869 44.8408ZM181.192 51.5567L181.125 50.8076C182.433 50.6901 183.778 50.5392 185.097 50.3627L185.206 51.1098C183.904 51.3 182.549 51.449 181.232 51.5645L181.192 51.5567ZM-107.086 -7.37202C-108.142 -8.22623 -109.183 -9.10799 -110.156 -10.0272L-109.658 -10.5921C-108.687 -9.71418 -107.664 -8.84616 -106.606 -8.00178L-107.086 -7.37202ZM133.028 40.254C131.886 39.5258 130.757 38.7798 129.621 38.1242L130.013 37.4769C131.149 38.1835 132.286 38.8902 133.428 39.6184L133.028 40.254ZM-16.3015 10.2153L-16.4415 9.47218L-12.4995 8.7147L-12.3576 9.44801L-16.3015 10.2153ZM190.182 50.3335L190.042 49.5903C191.341 49.3588 192.658 49.09 193.968 48.8093L194.129 49.5465C192.848 49.8429 191.521 50.1098 190.221 50.3413L190.182 50.3335ZM125.331 35.5019L121.913 33.4823L122.285 32.831C123.427 33.5081 124.589 34.1892 125.747 34.8899L125.331 35.5019ZM-7.42969 8.49869L-7.56971 7.75556C-6.26619 7.50438 -4.95284 7.25516 -3.63161 7.01774L-3.48966 7.75105L-7.42969 8.49869ZM-113.754 -13.4723C-114.689 -14.476 -115.59 -15.5035 -116.419 -16.527L-115.838 -16.9937C-115.017 -15.9819 -114.134 -14.9683 -113.205 -13.9861L-113.754 -13.4723ZM117.543 31.0075C116.368 30.3441 115.2 29.6926 114.039 29.0627L114.393 28.3976L117.915 30.3562L117.543 31.0075ZM1.47402 6.93147L1.34383 6.19028C2.66313 5.96269 3.97858 5.75476 5.31559 5.54091L5.43405 6.28998C4.10859 6.44483 2.78735 6.68224 1.48365 6.88229L1.47402 6.93147ZM109.609 26.6882C108.418 26.0524 107.223 25.4363 106.044 24.8437L106.379 24.1748C107.567 24.7693 108.753 25.3835 109.963 26.0232L109.609 26.6882ZM10.3864 5.58054L10.2875 4.83538C11.6051 4.66874 12.9423 4.50603 14.2855 4.36493L14.3647 5.10617L10.3864 5.58054ZM-119.4 -20.6256C-120.189 -21.8046 -120.84 -22.9562 -121.453 -24.0999L-120.783 -24.4468C-120.181 -23.305 -119.509 -22.1495 -118.779 -20.9822L-119.4 -20.6256ZM101.585 22.6168L97.9592 20.8727L98.2745 20.1999C99.4712 20.755 100.685 21.3239 101.91 21.9459L101.585 22.6168ZM19.4357 4.67581L19.3781 3.92867C20.7037 3.82495 22.0353 3.74285 23.3886 3.70596L23.4247 4.45904C22.032 4.45403 20.6761 4.50404 19.357 4.60906L19.4357 4.67581ZM93.4324 18.8366C92.1927 18.2933 90.9589 17.7716 89.7428 17.2636L90.0325 16.5652C91.2486 17.0732 92.4902 17.6067 93.73 18.15L93.4324 18.8366ZM28.4261 4.28047L28.4213 3.52342C29.7493 3.51212 31.0851 3.51261 32.4465 3.53863L32.4316 4.29178C31.0013 4.20094 29.6674 4.19061 28.3473 4.2137L28.4261 4.28047ZM85.093 15.3869C83.8305 14.8902 82.5642 14.4131 81.2941 13.9557L81.5544 13.2514C82.8016 13.7043 84.0548 14.1788 85.3533 14.6827L85.093 15.3869ZM76.6019 12.2953C75.3194 11.8661 74.0448 11.4487 72.7645 11.0607L72.9776 10.3369C74.2462 10.7327 75.5208 11.1501 76.8131 11.5813L76.6019 12.2953ZM37.4304 4.49076L37.4649 3.74152C38.8095 3.81869 40.1509 3.91225 41.4891 4.0222L41.433 4.77736C39.9945 4.57248 38.6681 4.47169 37.3613 4.37482L37.4304 4.49076ZM67.981 9.65809C66.6752 9.29575 65.3754 8.95504 64.1032 8.63002L64.2476 7.89246C65.5297 8.21943 66.8295 8.56015 68.1254 8.92053L67.981 9.65809ZM46.4016 5.28706L46.4852 4.5476C47.8131 4.71 49.1372 4.89206 50.4574 5.09379L50.313 5.83135C48.98 5.55556 47.624 5.39779 46.3267 5.20062L46.4016 5.28706ZM-123.357 -28.7503C-123.814 -30.0302 -124.192 -31.3374 -124.487 -32.6642L-123.752 -32.8243C-123.462 -31.5288 -123.095 -30.2515 -122.655 -28.9989L-123.357 -28.7503ZM59.2284 7.48507L56.5195 6.94534L55.2926 6.7009L55.4371 5.96334L56.8013 6.23516L59.3925 6.75143L59.2284 7.48507ZM-125.255 -37.8035C-125.322 -39.1595 -125.284 -40.5184 -125.142 -41.8681L-124.402 -41.7923C-124.535 -40.4761 -124.572 -39.1519 -124.516 -37.8299L-125.255 -37.8035ZM-123.424 -46.6346L-124.146 -46.8501C-123.748 -48.1492 -123.254 -49.4169 -122.669 -50.6429L-121.999 -50.3153C-122.565 -49.1296 -123.041 -47.9025 -123.422 -46.6444L-123.424 -46.6346ZM-119.48 -54.5851L-120.098 -55.0249C-119.31 -56.1231 -118.454 -57.1709 -117.536 -58.1622L-116.983 -57.6535C-117.879 -56.6883 -118.712 -55.6667 -119.479 -54.595L-119.48 -54.5851ZM-113.376 -61.0731L-113.843 -61.6566C-112.836 -62.4777 -111.74 -63.2812 -110.596 -64.0749L-110.178 -63.4501C-111.287 -62.68 -112.369 -61.8942 -113.376 -61.0731ZM-105.899 -65.9797L-106.248 -66.6419C-105.107 -67.2626 -103.862 -67.8421 -102.602 -68.3882L-102.31 -67.6964C-103.536 -67.1641 -104.742 -66.5767 -105.889 -65.9777L-105.899 -65.9797ZM-97.6477 -69.5263L-97.8876 -70.228C-96.6515 -70.6561 -95.3583 -71.0626 -94.0415 -71.4338L-93.8368 -70.7084C-95.1359 -70.3235 -96.4173 -69.9249 -97.6477 -69.5263ZM-89.0255 -71.8955L-89.1772 -72.6308C-87.8895 -72.9055 -86.5702 -73.1331 -85.2255 -73.3863L-85.0953 -72.6451C-86.3988 -72.3939 -87.7475 -72.1722 -88.996 -71.8896L-89.0255 -71.8955ZM-80.1429 -73.3546L-80.232 -74.0978C-78.9261 -74.2565 -77.5751 -74.3858 -76.2279 -74.4955L-76.1604 -73.7464C-77.4782 -73.6308 -78.8096 -73.4976 -80.1135 -73.3487L-80.1429 -73.3546ZM-71.1674 -74.039L-71.2035 -74.792C-69.8874 -74.8466 -68.5458 -74.8756 -67.1767 -74.8889L-67.172 -74.1319C-68.5123 -74.0924 -69.8342 -74.0594 -71.1379 -74.0331L-71.1674 -74.039Z" fill="#403E48"/>
<path d="M199.032 48.3457L198.84 47.6139L200.753 47.0777L200.967 47.8036L199.032 48.3457Z" fill="#403E48"/>
<path d="M198.272 37.9463L190.033 49.4611L201.962 44.5609L243.215 41.514L198.272 37.9463Z" fill="#A192F2"/>
<path opacity="0.1" d="M198.272 37.9463L190.033 49.4611L201.962 44.5609L243.215 41.514L198.272 37.9463Z" fill="#403E48"/>
<path d="M202.395 47.8817L190.032 49.435L201.971 44.5438L202.395 47.8817Z" fill="#403E48"/>
<path d="M201.922 44.5547L243.214 41.5296L204.088 62.8405L201.922 44.5547Z" fill="#A192F2"/>
<path d="M198.32 37.9763L185.545 23.5242L243.24 41.5238L198.32 37.9763Z" fill="#A192F2"/>
</g>
<defs>
<clipPath id="clip0_2891_33037">
<rect width="268" height="218" rx="8" fill="white"/>
</clipPath>
</defs>
</svg>
