<svg width="268" height="218" viewBox="0 0 268 218" fill="none" xmlns="http://www.w3.org/2000/svg">
<rect width="268" height="218" rx="8" fill="#FAF6EB"/>
<path d="M103.308 63.4744C103.37 61.2246 101.28 59.4909 99.1475 58.6653C97.0155 57.8397 94.6963 57.5301 92.8139 56.2762C91.1499 55.1616 90.0319 53.4279 88.6227 52.014C86.884 50.2654 84.7076 49.0074 82.3171 48.3691C79.9266 47.7308 77.4079 47.7351 75.0196 48.3817C72.6313 49.0283 70.4594 50.2938 68.7268 52.0484C66.9942 53.803 65.7633 55.9834 65.1603 58.366C64.3543 61.5652 64.9055 65.3475 67.4483 67.4785C70.4019 69.945 74.7751 69.3981 78.5555 68.6292C82.3359 67.8604 86.6207 67.0812 89.7771 69.3052C91.6803 70.6365 92.7723 72.7985 93.9371 74.8006C95.1019 76.8027 96.5371 78.8409 98.7627 79.5942C100.988 80.3476 103.963 79.0473 104.041 76.7408" fill="#403E48"/>
<path d="M103.158 64.7076C102.908 66.591 104.281 68.2783 105.648 69.6096C107.016 70.9409 108.56 72.3496 108.805 74.2536C109.086 76.4569 107.463 78.6241 107.936 80.7965C108.233 82.1742 109.314 83.232 109.97 84.4859C110.838 86.2901 110.981 88.3547 110.37 90.2599C109.808 92.1588 108.909 96.3952 107.578 97.8709C103.901 101.947 98.0512 105.466 92.6796 106.689C87.308 107.912 81.7232 107.923 76.2216 107.587C71.7184 107.314 66.534 107.52 62.7796 101.369C60.8348 98.1805 59.8728 93.9493 58.8432 90.3683C57.9488 87.2723 57.1792 83.9854 58.1048 80.91C58.6248 79.1247 59.7324 77.5302 60.2628 75.75C60.9284 73.5106 60.684 71.106 60.9492 68.7995C61.2388 66.2761 62.1315 63.8579 63.553 61.7459C64.9745 59.6339 66.8837 57.8893 69.1217 56.6573C71.3598 55.4252 73.862 54.7413 76.4201 54.6625C78.9783 54.5836 81.5184 55.1121 83.8292 56.2039" fill="#403E48"/>
<path d="M63.1067 72.4321C63.5279 66.0182 67.8283 58.1544 74.2711 58.8458L94.3743 63.9336C95.3177 64.0365 96.1883 64.4859 96.8147 65.1934C97.4411 65.901 97.7781 66.8155 97.7595 67.7571L95.4975 115.89L95.6379 115.915C95.6379 115.915 91.0567 129.491 77.7603 125.348C75.1239 124.522 73.9175 121.664 73.3975 118.717H73.2623C73.2623 118.366 73.2623 118.041 73.2623 117.685C73.0034 115.491 72.9773 113.275 73.1843 111.075C73.1479 107.19 73.1531 105.601 73.1479 105.637C73.1427 105.673 64.8903 104.254 63.2055 93.5571C62.3475 88.2785 62.6387 79.5581 63.1067 72.4321Z" fill="#FFBE9D"/>
<path d="M66.3459 78.8771C66.3402 79.2346 66.4758 79.58 66.7236 79.8395C66.9715 80.0989 67.3119 80.2517 67.6719 80.2652C67.8478 80.2792 68.0247 80.2583 68.1923 80.2036C68.3599 80.1489 68.5149 80.0616 68.6481 79.9467C68.7812 79.8319 68.89 79.6918 68.9679 79.5347C69.0458 79.3776 69.0914 79.2067 69.1019 79.0319C69.1062 78.674 68.9694 78.3286 68.7208 78.0693C68.4721 77.81 68.1312 77.6573 67.7707 77.6439C67.5951 77.6298 67.4184 77.6508 67.2511 77.7055C67.0838 77.7603 66.9292 77.8477 66.7964 77.9626C66.6636 78.0775 66.5554 78.2176 66.478 78.3747C66.4006 78.5317 66.3557 78.7026 66.3459 78.8771Z" fill="#403E48"/>
<path d="M64.9998 76.9732C65.1714 77.1538 66.2218 76.385 67.709 76.3901C69.1962 76.3953 70.309 77.1383 70.4494 76.9577C70.5274 76.8803 70.3506 76.5553 69.8774 76.2147C69.2367 75.7681 68.4711 75.5317 67.6882 75.5387C66.9142 75.5323 66.1582 75.7709 65.5302 76.2198C65.0726 76.5707 64.9114 76.8907 64.9998 76.9732Z" fill="#403E48"/>
<path d="M80.963 78.8768C80.9587 79.2347 81.0954 79.5802 81.3441 79.8395C81.5928 80.0988 81.9337 80.2514 82.2942 80.2648C82.4698 80.2789 82.6465 80.2579 82.8138 80.2032C82.9811 80.1484 83.1357 80.0611 83.2685 79.9461C83.4012 79.8312 83.5095 79.6911 83.5869 79.534C83.6642 79.377 83.7092 79.2062 83.719 79.0316C83.7247 78.6742 83.5891 78.3287 83.3412 78.0693C83.0934 77.8098 82.753 77.657 82.393 77.6436C82.217 77.6288 82.0398 77.6492 81.8718 77.7036C81.7039 77.758 81.5487 77.8453 81.4153 77.9603C81.282 78.0753 81.1733 78.2156 81.0956 78.3731C81.0179 78.5305 80.9728 78.7018 80.963 78.8768Z" fill="#403E48"/>
<path d="M79.6229 77.2773C79.7945 77.4579 80.845 76.6942 82.3322 76.6994C83.8194 76.7045 84.9061 77.4476 85.0673 77.267C85.1453 77.1844 84.9738 76.8645 84.4954 76.5188C83.8528 76.0759 83.0885 75.8399 82.3062 75.8428C81.5333 75.839 80.7793 76.0794 80.1534 76.5291C79.6958 76.8748 79.5397 77.2205 79.6229 77.2773Z" fill="#403E48"/>
<path d="M74.1988 88.2113C74.1988 88.1287 73.2836 87.9688 71.786 87.7727C71.4064 87.7366 71.0476 87.6592 70.98 87.4012C70.9498 87.012 71.0405 86.623 71.24 86.2866L72.3684 83.4177C73.9284 79.3361 75.0724 75.9769 74.906 75.9202C74.7396 75.8634 73.346 79.1142 71.786 83.2009C71.4046 84.2054 71.0441 85.1669 70.7044 86.0854C70.4632 86.5381 70.3914 87.0609 70.5016 87.5611C70.5567 87.694 70.6415 87.8128 70.7496 87.9084C70.8577 88.0041 70.9862 88.0741 71.1256 88.1133C71.3358 88.1706 71.5524 88.2018 71.7704 88.2061C73.2576 88.2887 74.1936 88.299 74.1988 88.2113Z" fill="#403E48"/>
<path d="M73.1328 105.678C78.2074 105.766 83.2068 104.453 87.5732 101.885C87.5732 101.885 83.9332 109.28 73.1432 108.258L73.1328 105.678Z" fill="#EB996E"/>
<path d="M74.8221 91.7719C75.1052 91.4188 75.4745 91.1435 75.8949 90.9719C76.3154 90.8003 76.7731 90.7382 77.2245 90.7915C77.5532 90.8204 77.8725 90.9154 78.163 91.0706C78.4535 91.2259 78.7092 91.4381 78.9145 91.6945C79.1098 91.9414 79.2249 92.2415 79.2444 92.5548C79.2639 92.8681 79.1869 93.1799 79.0237 93.4489C78.7859 93.7155 78.4724 93.9045 78.1244 93.991C77.7764 94.0776 77.4101 94.0577 77.0737 93.9339C76.3722 93.685 75.7271 93.301 75.1757 92.8039C75.0075 92.6888 74.8643 92.5414 74.7545 92.3704C74.7018 92.2878 74.6738 92.1921 74.6738 92.0944C74.6738 91.9966 74.7018 91.9009 74.7545 91.8183" fill="#EB996E"/>
<path d="M78.5712 89.2436C78.332 89.2436 78.3268 90.8329 76.9384 91.9629C75.55 93.093 73.8184 92.9175 73.8184 93.1446C73.8184 93.2426 74.2032 93.4542 74.926 93.4748C75.8716 93.4909 76.7925 93.1747 77.526 92.5821C78.2292 92.0132 78.6823 91.1955 78.7896 90.3014C78.8624 89.6306 78.6856 89.2333 78.5712 89.2436Z" fill="#403E48"/>
<path d="M78.9518 74.6921C79.0974 75.0946 80.5846 74.9088 82.3266 75.1204C84.0686 75.3319 85.483 75.8067 85.717 75.4506C85.821 75.2803 85.5766 74.8985 85.0046 74.5115C84.253 74.0221 83.3929 73.7211 82.4982 73.6343C81.6062 73.524 80.7006 73.6266 79.8566 73.9336C79.217 74.1916 78.8946 74.5012 78.9518 74.6921Z" fill="#403E48"/>
<path d="M65.5553 72.7008C65.8205 73.0362 66.8449 72.7008 68.0773 72.7008C69.3097 72.7008 70.3497 72.9278 70.5941 72.5821C70.6981 72.4118 70.5317 72.0661 70.0741 71.7565C69.4631 71.3738 68.751 71.1802 68.0287 71.2004C67.3064 71.2206 66.6065 71.4537 66.0181 71.87C65.5865 72.1951 65.4305 72.5408 65.5553 72.7008Z" fill="#403E48"/>
<path d="M101.899 99.12C100.41 99.4178 98.8714 99.3596 97.4098 98.9504C95.9482 98.5411 94.6058 97.7925 93.4935 96.7665C92.3813 95.7404 91.5311 94.4664 91.0134 93.0497C90.4956 91.633 90.3251 90.1144 90.516 88.6194C90.8488 85.9929 92.2788 83.3201 91.3584 80.8329C90.1468 77.546 85.5032 76.5347 84.2708 73.2529C83.5532 71.3489 84.198 69.1249 83.3868 67.2518C82.6224 65.4922 80.7608 64.4809 78.946 63.8307C77.1312 63.1806 75.1916 62.7316 73.668 61.5603C72.1444 60.389 71.198 58.1702 72.1808 56.5242C80.2289 57.4804 88.1333 59.3858 95.7264 62.2002C97.4892 62.8503 99.3352 63.6346 100.375 65.1878C101.478 66.8287 101.415 68.9494 101.332 70.9206L99.9748 99.7237" fill="#403E48"/>
<path d="M101.222 102.794C101.222 102.794 101.29 102.763 101.399 102.686L101.877 102.324C102.293 101.999 102.917 101.519 103.661 100.854C104.592 100.059 105.44 99.174 106.193 98.2118C107.224 96.932 107.918 95.4175 108.211 93.8052C108.418 92.8243 108.4 91.81 108.16 90.8367C107.92 89.8634 107.463 88.9558 106.822 88.1808C106.041 87.4098 105.201 86.699 104.311 86.0549C103.414 85.3804 102.733 84.4629 102.35 83.4129C101.555 81.2354 101.908 78.7122 101.602 76.1322C101.297 73.4406 100.238 70.8877 98.5441 68.7637C97.6711 67.6939 96.5839 66.8154 95.3513 66.1837C94.1411 65.6376 92.8779 65.2158 91.5813 64.9247C90.374 64.6233 89.245 64.0711 88.2689 63.3044C87.3512 62.5417 86.5429 61.658 85.8665 60.678C84.5145 58.7688 83.5109 56.7357 82.2265 55.0381C81.6178 54.2069 80.9049 53.4561 80.1049 52.8038C79.3538 52.2055 78.5017 51.7443 77.5881 51.4416C76.8075 51.146 75.9683 51.0351 75.137 51.1175C74.3057 51.1999 73.5051 51.4734 72.7989 51.9163C72.3023 52.2987 71.8937 52.7819 71.6004 53.3336C71.3072 53.8853 71.1361 54.4929 71.0985 55.1155C71.034 55.9043 71.2655 56.689 71.7485 57.3188C71.8727 57.4786 72.0199 57.6194 72.1853 57.7368C72.2385 57.7827 72.2981 57.8209 72.3621 57.8503C72.3181 57.7962 72.2694 57.7462 72.2165 57.7007C72.0687 57.571 71.9377 57.4237 71.8265 57.2621C71.4014 56.6365 71.2168 55.8802 71.3065 55.131C71.3558 54.542 71.53 53.97 71.8177 53.4524C72.1054 52.9349 72.5 52.4835 72.9757 52.1279C73.6495 51.7232 74.4088 51.4791 75.1937 51.4146C75.9787 51.3502 76.768 51.4671 77.4997 51.7563C78.3715 52.0543 79.1831 52.5033 79.8969 53.0825C80.6632 53.7271 81.3476 54.4618 81.9353 55.2703C83.1833 56.937 84.1661 58.97 85.5389 60.9463C86.2325 61.9656 87.0655 62.8843 88.0141 63.6759C89.0212 64.4673 90.1854 65.0388 91.4305 65.3529C92.6987 65.6402 93.934 66.0551 95.1173 66.5913C96.2944 67.1994 97.3319 68.0427 98.1645 69.0681C99.8065 71.1196 100.837 73.5863 101.139 76.1889C101.456 78.6812 101.092 81.2457 101.94 83.5626C102.349 84.6804 103.07 85.6594 104.02 86.3851C104.896 87.0117 105.725 87.7016 106.5 88.4491C107.11 89.179 107.549 90.035 107.782 90.9546C108.016 91.8742 108.04 92.834 107.852 93.7639C107.586 95.3292 106.936 96.8054 105.959 98.0622C105.227 99.0236 104.407 99.9166 103.51 100.73C102.777 101.411 102.184 101.912 101.789 102.278C101.59 102.438 101.4 102.611 101.222 102.794Z" fill="#455A64"/>
<path d="M103.194 104.125C105.41 101.999 109.19 103.847 111.052 106.282C112.913 108.718 114.229 111.865 117.052 113.093C119.876 114.321 123.542 113.264 125.892 115.214C129.158 117.908 127.322 124.146 130.858 126.489C132.257 127.417 134.108 127.386 135.606 128.15C139.137 129.956 139.095 134.899 138.549 138.806C137.806 144.301 136.963 149.977 133.916 154.621C130.869 159.265 124.936 162.511 119.663 160.725C114.593 159.007 111.988 153.579 109.923 148.671C107.074 141.867 104.221 135.078 101.364 128.305C99.7156 124.378 98.0464 120.389 97.5108 116.169C96.9752 111.948 97.6928 107.397 100.402 104.084" fill="#403E48"/>
<path d="M104.614 99.4394C106.221 99.2485 107.453 101.204 107.027 102.757C106.6 104.31 105.103 105.337 103.569 105.853C102.722 106.187 101.802 106.292 100.901 106.158C100.451 106.088 100.027 105.902 99.672 105.619C99.317 105.335 99.0433 104.964 98.8783 104.543C98.7097 104.179 98.6927 103.764 98.831 103.388C98.9693 103.012 99.2517 102.706 99.6167 102.535C100.657 101.88 101.296 101.364 102.134 100.905C103.413 100.208 103.335 100.115 104.614 99.4136" fill="#A192F2"/>
<path d="M67.5741 116.648L73.8245 111.947L97.3857 110.451L98.3321 113.588L90.6673 161.039L96.7149 217.655H63.8457L67.5741 116.648Z" fill="#A192F2"/>
<g opacity="0.3">
<path opacity="0.3" d="M92.799 197.572C92.045 196.773 90.8126 195.679 89.7154 195.653C81.8426 195.483 73.8086 194.704 65.9358 194.528L65.3066 217.666C67.189 214.373 68.9726 210.958 69.4666 207.191C69.685 205.55 69.9866 203.579 71.4686 202.887C72.3214 202.49 73.325 202.645 74.2454 202.831C77.0898 203.388 79.9134 204.115 82.8046 204.296C85.6958 204.477 88.7274 204.053 91.1558 202.485C92.018 201.98 92.7122 201.235 93.1526 200.343C93.3623 199.895 93.4404 199.398 93.3778 198.907C93.3153 198.417 93.1147 197.955 92.799 197.572Z" fill="#403E48"/>
</g>
<path d="M72.6704 117.608L71.9372 110.822C71.9071 110.538 71.9343 110.251 72.0171 109.977C72.0999 109.703 72.2367 109.448 72.4196 109.228C72.6025 109.007 72.8278 108.824 73.0824 108.69C73.3371 108.557 73.6159 108.475 73.9028 108.449L95.5868 106.503C95.7256 106.493 95.865 106.51 95.9969 106.554C96.1288 106.598 96.2504 106.668 96.3547 106.759C96.4589 106.851 96.5436 106.962 96.6038 107.086C96.6639 107.211 96.6983 107.346 96.7048 107.484L96.9492 115.559L90.6676 126.132L84.2144 128.17H76.3208L71.7812 123.361L72.6704 117.608Z" fill="#A192F2"/>
<path d="M93.7453 112.969C93.4543 112.957 93.1643 112.928 92.8769 112.881C92.0921 112.809 91.3029 112.795 90.5161 112.84C89.3466 112.924 88.1853 113.096 87.0424 113.356C85.7476 113.624 84.3385 114.001 82.8461 114.362C81.4454 114.725 80.0178 114.977 78.5768 115.116C77.3913 115.227 76.1954 115.146 75.0356 114.878C74.2557 114.697 73.511 114.39 72.8308 113.97C72.6497 113.854 72.476 113.726 72.3108 113.588C72.1964 113.495 72.1392 113.439 72.1496 113.434C72.16 113.428 72.4044 113.604 72.8932 113.877C73.5824 114.254 74.3235 114.529 75.0928 114.693C76.2345 114.93 77.4064 114.989 78.5664 114.868C79.993 114.717 81.4062 114.46 82.794 114.099C84.2812 113.743 85.6956 113.372 87.0008 113.114C88.1578 112.867 89.3338 112.719 90.5161 112.67C91.3138 112.636 92.113 112.677 92.9029 112.794C93.1837 112.842 93.3969 112.883 93.5425 112.918C93.6725 112.938 93.7505 112.959 93.7453 112.969Z" fill="#403E48"/>
<g opacity="0.3">
<path opacity="0.3" d="M73.1842 114.037C72.6018 115.621 72.5862 117.582 73.7665 118.795C74.7233 119.785 76.2677 120.033 77.6249 119.765C78.9691 119.421 80.2441 118.853 81.3949 118.083C84.3797 116.323 87.4165 114.496 90.8069 113.748C91.0295 113.722 91.2403 113.634 91.4153 113.495C91.4558 113.458 91.4881 113.413 91.5102 113.363C91.5323 113.313 91.5437 113.259 91.5437 113.204C91.5437 113.149 91.5323 113.095 91.5102 113.045C91.4881 112.995 91.4558 112.95 91.4153 112.912C91.3301 112.863 91.2333 112.836 91.1345 112.835C88.1341 112.536 85.1545 113.351 82.2165 114.032C79.2785 114.713 76.1326 115.152 73.2986 114.135" fill="#403E48"/>
</g>
<path d="M77.3293 108.232C77.0239 108.398 76.7675 108.64 76.5857 108.934C76.2425 109.481 76.2633 110.41 76.2893 111.411C76.3465 113.418 76.6793 115.023 76.6013 115.023C76.4497 114.696 76.3498 114.348 76.3049 113.991C76.1404 113.14 76.0448 112.277 76.0189 111.411C76 110.931 76.0104 110.45 76.0501 109.971C76.0792 109.566 76.2078 109.175 76.4245 108.831C76.5729 108.598 76.7835 108.41 77.0329 108.289C77.2149 108.217 77.3241 108.217 77.3293 108.232Z" fill="#403E48"/>
<path d="M83.0584 114.13C83.0646 113.035 83.0125 111.939 82.9024 110.849C82.6528 109.048 82.0496 107.68 82.1328 107.649C82.33 107.912 82.4795 108.208 82.5748 108.521C82.8588 109.259 83.0594 110.026 83.1728 110.807C83.2852 111.59 83.3079 112.383 83.2404 113.171C83.2351 113.498 83.1735 113.823 83.0584 114.13Z" fill="#403E48"/>
<path d="M90.0436 107.076C90.2365 107.311 90.3766 107.584 90.4544 107.876C90.6891 108.568 90.7863 109.299 90.7404 110.028C90.6911 110.759 90.4967 111.472 90.1684 112.128C90.0519 112.409 89.8744 112.661 89.6484 112.866C90.1194 111.982 90.3975 111.01 90.4647 110.012C90.5319 109.015 90.3866 108.015 90.0384 107.076H90.0436Z" fill="#403E48"/>
<path d="M59.6334 119.703C59.6334 119.703 52.239 124.615 50.2734 133.49C48.7446 140.466 44.5534 177.319 44.5534 177.319L37.2266 191.468L42.0106 202.758C46.1077 203.045 50.1759 201.892 53.5026 199.502L56.7214 197.18L62.6234 188.496L59.6334 119.703Z" fill="white"/>
<path d="M72.1661 113.191L59.6341 119.703L56.6753 129.347L54.0389 157.309L58.9997 190.091L50.2949 217.557L65.3073 217.666L65.6661 201.566L67.1637 149.45L68.6353 116.251L72.1661 113.191Z" fill="white"/>
<path d="M66.0974 156.638C66.0089 156.514 65.9307 156.382 65.8634 156.246L65.2394 155.105C64.9794 154.589 64.7194 153.96 64.4022 153.227C64.2514 152.856 64.1214 152.448 63.9706 152.02C63.8198 151.591 63.6534 151.137 63.5234 150.652C62.343 146.787 61.563 141.209 61.7294 135.059C61.7294 134.584 61.7658 134.114 61.797 133.645V133.562L61.875 133.531L64.0694 132.613L64.0382 132.84L61.8438 131.091L61.797 131.055V131.003C61.7755 128.889 62.113 126.787 62.7954 124.785C63.3466 122.964 63.9498 121.395 64.4802 120.105C65.0106 118.815 65.4734 117.809 65.801 117.128C65.9674 116.782 66.0974 116.519 66.1858 116.349C66.2284 116.257 66.2789 116.169 66.3366 116.085C66.3115 116.182 66.2748 116.276 66.2274 116.364L65.879 117.164C65.5774 117.855 65.1406 118.872 64.631 120.167C64.1214 121.462 63.539 123.031 63.0086 124.847C62.3524 126.826 62.0309 128.899 62.057 130.982L62.005 130.895L64.2046 132.634L64.3762 132.773L64.1734 132.861L61.979 133.779L62.0622 133.666C62.031 134.125 62.0102 134.594 61.9946 135.069C61.8334 141.194 62.577 146.746 63.7054 150.596C63.825 151.086 63.9862 151.535 64.1266 151.963C64.267 152.391 64.3918 152.804 64.5426 153.176C64.8494 153.908 65.0626 154.553 65.333 155.059L65.905 156.22C65.9785 156.355 66.0428 156.494 66.0974 156.638Z" fill="#403E48"/>
<path d="M56.2589 176.215C56.2117 176.083 56.1717 175.949 56.1393 175.813C56.0665 175.52 55.9677 175.128 55.8429 174.636C55.7129 174.12 55.5673 173.501 55.4217 172.773C55.2761 172.046 55.0837 171.225 54.9381 170.281C54.7925 169.337 54.5949 168.341 54.4545 167.247C54.3141 166.153 54.1737 164.977 54.0437 163.743C53.8149 161.266 53.6641 158.537 53.6641 155.668C53.6641 152.799 53.8357 150.069 54.0697 147.598C54.2101 146.364 54.3297 145.188 54.5013 144.094C54.6729 143 54.8237 141.984 54.9901 141.06C55.1565 140.136 55.3333 139.306 55.5101 138.573C55.6869 137.84 55.8117 137.216 55.9417 136.71C56.0717 136.204 56.1653 135.828 56.2433 135.539C56.2732 135.4 56.3132 135.264 56.3629 135.131C56.3529 135.272 56.3303 135.412 56.2953 135.549L56.0457 136.731C55.9313 137.247 55.7909 137.871 55.6609 138.604C55.5309 139.336 55.3437 140.152 55.2033 141.096C55.0629 142.04 54.8809 143.031 54.7509 144.125C54.6209 145.219 54.4753 146.39 54.3453 147.618C54.1269 150.09 53.9709 152.809 53.9605 155.673C53.9501 158.537 54.1061 161.251 54.3141 163.723C54.4441 164.951 54.5481 166.127 54.7041 167.216C54.8601 168.305 55.0005 169.326 55.1513 170.25C55.3021 171.174 55.4633 172.01 55.5933 172.742C55.7233 173.475 55.8585 174.105 55.9729 174.615C56.0873 175.126 56.1601 175.503 56.2173 175.797C56.2461 175.935 56.2601 176.075 56.2589 176.215Z" fill="#403E48"/>
<path d="M59.6479 201.386C59.5014 201.828 59.2969 202.25 59.0395 202.64C58.4778 203.611 57.836 204.534 57.1207 205.4C56.4067 206.267 55.6205 207.073 54.7703 207.81C54.4344 208.135 54.0589 208.418 53.6523 208.651C53.9582 208.302 54.2884 207.974 54.6403 207.671C55.4426 206.899 56.2012 206.084 56.9127 205.23C57.618 204.371 58.2742 203.473 58.8783 202.542C59.1075 202.139 59.3647 201.753 59.6479 201.386Z" fill="#403E48"/>
<path d="M117.254 118.903C119.887 119.918 122.229 121.56 124.073 123.683C125.917 125.806 127.208 128.347 127.831 131.081C131.934 149.017 138.949 172.877 139.063 180.581C139.198 190.385 134.903 197.093 129.24 198.331C124.779 199.311 84.3537 197.113 84.3537 197.113L82.4609 182.149L115.221 177.366L110.739 152.557L115.174 118.129L117.254 118.903Z" fill="white"/>
<path d="M115.174 118.103L106.121 114.434L96.5788 108.882L96.5216 110.508C97.6934 112.493 98.1016 114.831 97.6708 117.092L89.7148 158.196L91.514 188.233L95.2112 217.645H123.92L110.738 186.865L115.392 145.384L115.174 118.103Z" fill="white"/>
<path d="M123.562 198.584L123.364 198.61L122.787 198.667C122.267 198.718 121.523 198.713 120.546 198.739C118.601 198.739 115.772 198.697 112.252 198.584C105.216 198.352 95.4244 197.882 84.364 197.248H84.2548V197.134C84.0312 195.354 83.792 193.476 83.5528 191.572C83.142 188.347 82.7468 185.199 82.3672 182.191V182.062H82.492L107.494 178.45L114.836 177.418L116.807 177.154L117.327 177.087H117.504L117.332 177.124L116.812 177.211L114.846 177.521L107.52 178.63L82.5596 182.33L82.6688 182.18C83.0536 185.194 83.454 188.336 83.8596 191.561C84.104 193.47 84.338 195.349 84.5616 197.129L84.4368 197.015C95.492 197.655 105.289 198.156 112.319 198.439C115.834 198.574 118.658 198.651 120.603 198.677C121.575 198.677 122.334 198.677 122.839 198.646L123.416 198.615L123.562 198.584Z" fill="#403E48"/>
<path d="M110.473 150.018C110.51 150.107 110.535 150.201 110.546 150.296C110.588 150.508 110.64 150.766 110.702 151.091C110.837 151.819 111.019 152.815 111.222 154.027C111.664 156.545 112.262 159.956 112.928 163.728C113.593 167.5 114.134 170.921 114.561 173.444C114.753 174.662 114.909 175.658 115.023 176.391C115.07 176.716 115.107 176.984 115.138 177.196C115.149 177.29 115.149 177.385 115.138 177.479C115.099 177.392 115.072 177.3 115.06 177.206C115.018 176.994 114.966 176.731 114.899 176.411C114.763 175.679 114.576 174.688 114.347 173.475C113.895 170.993 113.307 167.567 112.642 163.774C111.976 159.982 111.415 156.55 111.014 154.058C110.827 152.84 110.671 151.839 110.557 151.107C110.515 150.783 110.479 150.515 110.447 150.302C110.446 150.206 110.454 150.111 110.473 150.018Z" fill="#403E48"/>
<path d="M100.744 111.792C100.744 111.792 100.744 111.829 100.781 111.896L100.864 112.195C100.931 112.463 101.046 112.85 101.155 113.366C101.472 114.825 101.701 116.302 101.841 117.788C102.053 120.032 102.111 122.287 102.013 124.538C101.925 127.118 101.654 129.94 101.264 132.948V133.041H101.171L98.191 133.588L98.2898 133.408C98.4614 133.862 98.633 134.347 98.7682 134.847C99.5874 138.136 99.4704 141.585 98.4302 144.811C97.6064 147.429 96.4385 149.927 94.9566 152.242C93.719 154.233 92.6062 155.761 91.8366 156.819L90.937 158.026C90.8434 158.155 90.7602 158.253 90.6978 158.336C90.6742 158.375 90.6443 158.409 90.6094 158.439C90.6094 158.439 90.6094 158.398 90.677 158.32L90.8954 157.995C91.1034 157.696 91.4154 157.283 91.7482 156.757C92.4918 155.683 93.5838 154.141 94.7902 152.144C96.2378 149.832 97.3807 147.345 98.191 144.744C99.049 141.819 99.4546 138.341 98.5082 134.94C98.3764 134.461 98.2202 133.99 98.0402 133.526L97.983 133.377L98.1442 133.346L101.103 132.804L100.994 132.918C101.389 129.92 101.675 127.092 101.774 124.533C101.883 122.297 101.847 120.056 101.665 117.825C101.543 116.341 101.339 114.864 101.056 113.402C100.963 112.886 100.859 112.494 100.812 112.226C100.786 112.102 100.765 112.004 100.749 111.921C100.739 111.879 100.738 111.835 100.744 111.792Z" fill="#403E48"/>
<path d="M100.745 153.945V147.397C100.745 147.397 100.828 145.782 99.4551 146.122C98.0823 146.463 98.3371 149.017 98.3371 149.017C98.3371 149.017 98.0823 158.981 98.6803 158.899C99.2783 158.816 99.5123 158.047 99.5123 158.047V154.213L100.745 153.945Z" fill="#A192F2"/>
<path d="M106.454 154.353C105.278 154.488 104.094 154.533 102.912 154.487C101.73 154.533 100.546 154.488 99.3711 154.353C100.546 154.22 101.73 154.175 102.912 154.218C104.094 154.175 105.278 154.22 106.454 154.353Z" fill="#403E48"/>
<path d="M119.511 122.793C119.272 122.904 119.026 122.996 118.772 123.067C118.1 123.305 117.443 123.586 116.807 123.908C114.71 124.979 112.891 126.517 111.492 128.402C111.097 128.933 110.748 129.498 110.452 130.09C110.196 130.649 109.987 131.229 109.828 131.823C109.56 132.837 109.386 133.874 109.308 134.919C109.236 135.812 109.22 136.545 109.215 137.045C109.23 137.307 109.23 137.568 109.215 137.83C109.15 137.584 109.115 137.331 109.111 137.076C109.07 136.363 109.07 135.648 109.111 134.935C109.162 133.873 109.321 132.818 109.584 131.787C109.741 131.175 109.951 130.578 110.213 130.002C110.516 129.394 110.873 128.814 111.279 128.268C112.698 126.347 114.569 124.801 116.729 123.764C117.378 123.453 118.051 123.194 118.741 122.99C118.99 122.898 119.248 122.833 119.511 122.793Z" fill="#403E48"/>
<path d="M3 177.319L50.294 194.698L90.1624 200.746L42.7592 177.815L3 177.319Z" fill="#403E48"/>
<path d="M23.2393 196.06C22.8594 193.553 22.0017 191.139 20.7121 188.95C20.4335 188.538 20.2163 188.087 20.0673 187.614C19.9929 187.377 19.9782 187.125 20.0244 186.882C20.0707 186.638 20.1764 186.409 20.3325 186.215C20.9409 185.56 22.0485 185.849 22.7973 186.344C24.3129 187.439 25.4296 188.993 25.9797 190.771C26.5216 192.537 26.8703 194.355 27.0197 196.195" fill="#FFBE9D"/>
<path d="M41.6726 191.592H39.3222C38.7454 191.025 38.0279 190.619 37.2422 190.415C36.9515 190.367 36.6529 190.397 36.3783 190.504C36.1036 190.61 35.8631 190.788 35.6822 191.019C36.7222 189.301 37.8662 187.407 38.0846 186.891C38.5058 185.885 37.5646 185.132 36.0514 185.132C34.5382 185.132 27.8406 194.538 27.8406 194.538C27.8406 194.538 32.0006 186.969 32.401 185.813C33.4098 182.923 30.2222 182.717 29.0678 184.105C27.6326 185.833 21.8346 194.538 21.8346 194.538C21.8346 194.538 20.7322 196.303 21.4914 197.98C22.2506 199.657 24.4554 199.012 24.4554 199.012C24.4881 199.502 24.6492 199.975 24.9228 200.384C25.1965 200.793 25.5731 201.124 26.0154 201.344C27.7106 202.283 29.9466 201.195 29.9466 201.195L38.615 203.125L41.735 202.815C43.8644 202.603 45.8617 201.693 47.4103 200.227C48.9589 198.761 49.9702 196.825 50.2838 194.724L41.6726 191.592Z" fill="#FFBE9D"/>
<path d="M35.8436 190.885C35.9424 190.947 34.8036 192.743 33.2956 194.899C32.5468 195.978 31.8552 196.963 31.3404 197.634C31.087 198.024 30.7943 198.387 30.4668 198.718C30.6656 198.298 30.906 197.899 31.1844 197.526C31.6576 196.809 32.3232 195.823 33.072 194.745C33.8208 193.666 34.5072 192.681 35.0064 192L35.6096 191.179C35.6786 191.074 35.7569 190.976 35.8436 190.885Z" fill="#EB996E"/>
<path d="M35.3223 200.462C35.5338 199.971 35.7915 199.501 36.0919 199.059C36.6119 198.212 37.3295 197.062 38.1303 195.782C38.5307 195.147 38.9155 194.538 39.2275 193.976C39.3639 193.736 39.4511 193.471 39.4842 193.198C39.5172 192.924 39.4953 192.647 39.4199 192.382C39.2669 191.882 39.016 191.417 38.6815 191.014C38.6815 191.014 38.8219 191.086 39.0143 191.293C39.2855 191.589 39.4863 191.941 39.6019 192.325C39.6985 192.613 39.735 192.917 39.7091 193.22C39.6832 193.523 39.5954 193.817 39.4511 194.084C39.1391 194.667 38.7595 195.281 38.3643 195.921C37.5583 197.201 36.8043 198.336 36.2531 199.157C35.9743 199.613 35.6633 200.049 35.3223 200.462Z" fill="#EB996E"/>
<path d="M39.8732 201.319C39.9603 200.853 40.1163 200.403 40.336 199.982L40.9548 198.579C41.2125 198.02 41.4247 197.442 41.5892 196.85C41.6679 196.567 41.684 196.271 41.6364 195.982C41.5889 195.692 41.4787 195.416 41.3136 195.173C41.146 194.98 40.9337 194.829 40.6948 194.735C40.494 194.633 40.2749 194.571 40.05 194.554C39.7217 194.602 39.4057 194.713 39.1192 194.879C39.0107 194.947 38.891 194.996 38.7656 195.024C38.7656 195.024 38.8644 194.925 39.0672 194.786C39.193 194.702 39.3232 194.624 39.4572 194.554C39.6395 194.451 39.8413 194.386 40.05 194.363C40.3048 194.369 40.5558 194.425 40.7884 194.528C41.0647 194.628 41.3115 194.795 41.506 195.013C41.7031 195.283 41.8364 195.593 41.8958 195.921C41.9552 196.249 41.9393 196.586 41.8492 196.907C41.6835 197.519 41.4589 198.113 41.1784 198.682C40.934 199.198 40.7 199.668 40.5076 200.06C40.3187 200.49 40.107 200.91 39.8732 201.319Z" fill="#EB996E"/>
<path d="M41.4688 193.197C41.5963 193.208 41.7203 193.244 41.8327 193.305C42.1546 193.44 42.4585 193.613 42.7376 193.821C43.682 194.521 44.3424 195.534 44.599 196.675C44.8557 197.817 44.6915 199.012 44.1364 200.044C43.9772 200.354 43.7798 200.644 43.5488 200.906C43.3824 201.086 43.2732 201.169 43.2628 201.159C43.2524 201.148 43.606 200.736 43.9648 199.962C44.4479 198.957 44.5777 197.821 44.3336 196.735C44.0894 195.649 43.4854 194.676 42.618 193.971C42.2496 193.692 41.866 193.433 41.4688 193.197Z" fill="#EB996E"/>
<path d="M26.233 188.259C25.6559 189.337 25.0007 190.371 24.2725 191.355C23.6225 192.407 22.8943 193.409 22.0938 194.353C22.6678 193.274 23.3213 192.24 24.0489 191.257C24.7017 190.206 25.4317 189.203 26.233 188.259Z" fill="#EB996E"/>
<path d="M82.3411 182.727L76.9331 181.515L71.7331 176.659C71.1001 176.071 70.2797 175.72 69.4139 175.668L59.9655 175.152C59.0199 175.094 58.0883 175.401 57.3655 176.009L50.6055 181.685L80.0947 195.901L84.1403 196.257L82.3411 182.727Z" fill="#FFBE9D"/>
<path d="M66.321 180.225C66.321 180.266 65.6242 180.142 64.501 179.998C63.3778 179.853 61.7762 179.724 60.2214 180.442C59.4976 180.788 58.8141 181.212 58.183 181.706C57.585 182.149 57.0494 182.562 56.5762 182.877C56.2048 183.133 55.8136 183.359 55.4062 183.553C55.2612 183.632 55.1052 183.689 54.9434 183.723C54.9434 183.682 55.5622 183.398 56.467 182.722C56.9194 182.392 57.4394 181.964 58.027 181.504C58.6673 180.99 59.3652 180.55 60.107 180.194C60.8676 179.861 61.6885 179.685 62.5198 179.678C63.1905 179.667 63.8608 179.719 64.5218 179.833C65.0886 179.92 65.5618 180.024 65.8426 180.101C66.008 180.115 66.1698 180.157 66.321 180.225Z" fill="#EB996E"/>
<path d="M68.2609 185.446C68.2609 185.488 67.8761 185.317 67.2209 185.255C66.3962 185.18 65.5652 185.295 64.7925 185.591C64.0144 185.893 63.2688 186.271 62.5669 186.721C62.2809 186.927 61.9721 187.1 61.6465 187.237C61.884 186.977 62.1571 186.751 62.4577 186.566C63.1464 186.061 63.9002 185.65 64.6989 185.343C65.5095 185.032 66.3881 184.938 67.2469 185.07C67.6142 185.097 67.9661 185.227 68.2609 185.446Z" fill="#EB996E"/>
<path d="M80.422 186.314C80.3544 186.355 79.5952 185.23 78.5916 183.899C77.588 182.567 76.7248 181.52 76.782 181.468C77.5499 182.138 78.2295 182.9 78.8048 183.739C79.4529 184.525 79.9965 185.39 80.422 186.314Z" fill="#EB996E"/>
<path d="M65.5404 175.684L77.5004 164.616C77.6225 164.503 77.7184 164.366 77.7813 164.213C77.8443 164.06 77.8728 163.895 77.8649 163.73C77.857 163.564 77.8128 163.403 77.7355 163.257C77.6582 163.11 77.5495 162.982 77.4172 162.882C77.2053 162.721 76.9432 162.638 76.6763 162.648C76.4094 162.659 76.1546 162.761 75.956 162.939L61.916 175.436" fill="#A192F2"/>
<g opacity="0.3">
<path opacity="0.3" d="M65.5404 175.684L77.5004 164.616C77.6225 164.503 77.7184 164.366 77.7813 164.213C77.8443 164.06 77.8728 163.895 77.8649 163.73C77.857 163.564 77.8128 163.403 77.7355 163.257C77.6582 163.11 77.5495 162.982 77.4172 162.882C77.2053 162.721 76.9432 162.638 76.6763 162.648C76.4094 162.659 76.1546 162.761 75.956 162.939L61.916 175.436" fill="#403E48"/>
</g>
<path d="M163.422 69.0055C163.235 68.9333 155.981 67.0447 156.417 74.3255C156.854 81.6062 164.129 79.6661 164.134 79.4545C164.139 79.2429 163.422 69.0055 163.422 69.0055Z" fill="#B78876"/>
<path d="M161.726 76.8331C161.69 76.8073 161.601 76.926 161.393 77.0395C161.096 77.1869 160.753 77.2129 160.436 77.1117C159.646 76.8795 158.918 75.6979 158.804 74.3873C158.747 73.7742 158.825 73.1563 159.032 72.5761C159.087 72.344 159.198 72.1287 159.356 71.9489C159.514 71.7691 159.713 71.6301 159.937 71.5441C160.082 71.4967 160.239 71.5013 160.38 71.5569C160.522 71.6125 160.639 71.7158 160.712 71.8485C160.821 72.0446 160.785 72.1943 160.821 72.2046C160.858 72.2149 160.972 72.0704 160.894 71.7763C160.844 71.5975 160.731 71.442 160.577 71.3377C160.473 71.2675 160.356 71.2186 160.233 71.1938C160.109 71.169 159.982 71.1688 159.859 71.1932C159.562 71.2703 159.29 71.4218 159.069 71.6332C158.847 71.8446 158.684 72.1089 158.596 72.4007C158.316 73.0512 158.206 73.7607 158.273 74.4647C158.408 75.9301 159.251 77.2562 160.327 77.4987C160.528 77.544 160.736 77.5438 160.937 77.4983C161.138 77.4527 161.326 77.3629 161.487 77.2356C161.721 77.0085 161.752 76.8434 161.726 76.8331Z" fill="#AA6550"/>
<path d="M181.736 43.0046C185.465 43.0046 189.261 43.0046 193.925 45.4247C196.868 46.9727 198.699 49.3618 200.233 52.2823C201.456 54.6568 202.054 57.3 201.97 59.9656C201.834 62.4836 201.824 64.2432 200.81 66.5549" fill="#403E48"/>
<path d="M180.243 43.5774C182.864 43.3921 185.495 43.7273 187.984 44.5632C190.472 45.3992 192.768 46.7192 194.736 48.446C196.704 50.1728 198.306 52.2718 199.447 54.6201C200.588 56.9684 201.245 59.5189 201.381 62.1225C201.86 71.2402 202.281 81.1009 202.182 86.0648C201.964 96.7254 191.205 98.2992 191.205 98.2992C191.205 98.2992 191.444 101.457 191.725 105.379C191.85 107.252 191.595 109.131 190.976 110.905C190.356 112.68 189.385 114.312 188.119 115.707C186.852 117.102 185.317 118.231 183.604 119.028C181.89 119.824 180.033 120.271 178.142 120.343C176.285 120.413 174.431 120.119 172.688 119.478C170.945 118.837 169.346 117.862 167.983 116.607C166.62 115.352 165.52 113.843 164.745 112.166C163.97 110.489 163.536 108.677 163.468 106.834L161.872 63.8717C161.677 58.7799 163.488 53.8129 166.92 50.0229C170.352 46.2329 175.136 43.9174 180.259 43.5671L180.243 43.5774Z" fill="#B78876"/>
<path d="M191.206 98.299C191.206 98.299 184.602 98.6395 177.426 94.0833C177.426 94.0833 180.676 101.823 191.398 100.967L191.206 98.299Z" fill="#AA6550"/>
<path d="M197.262 68.0507C197.27 68.4514 197.119 68.839 196.84 69.129C196.561 69.4191 196.179 69.5879 195.775 69.5987C195.58 69.612 195.385 69.5865 195.201 69.5238C195.016 69.4611 194.847 69.3624 194.701 69.2335C194.556 69.1047 194.438 68.9482 194.354 68.7735C194.271 68.5987 194.223 68.4091 194.215 68.2159C194.214 67.8175 194.369 67.4344 194.646 67.146C194.923 66.8577 195.301 66.6865 195.702 66.6679C195.896 66.6553 196.091 66.6813 196.275 66.7443C196.459 66.8073 196.629 66.906 196.774 67.0347C196.919 67.1635 197.037 67.3196 197.121 67.4941C197.205 67.6685 197.253 67.8577 197.262 68.0507Z" fill="#403E48"/>
<path d="M198.756 65.8943C198.564 66.0904 197.409 65.2287 195.756 65.2184C194.102 65.208 192.89 66.0233 192.714 65.8221C192.625 65.7292 192.823 65.3732 193.353 64.9965C194.07 64.5088 194.923 64.2561 195.792 64.2741C196.65 64.2748 197.485 64.5498 198.174 65.0584C198.678 65.4454 198.85 65.8066 198.756 65.8943Z" fill="#403E48"/>
<path d="M181.076 68.0509C181.084 68.4524 180.932 68.8408 180.652 69.131C180.372 69.4212 179.988 69.5894 179.583 69.5989C179.389 69.6115 179.194 69.5855 179.01 69.5225C178.826 69.4595 178.656 69.3608 178.511 69.232C178.366 69.1033 178.248 68.9472 178.164 68.7727C178.081 68.5983 178.033 68.409 178.023 68.216C178.023 67.8168 178.178 67.4329 178.456 67.1445C178.734 66.856 179.114 66.6853 179.516 66.668C179.71 66.6562 179.905 66.6827 180.088 66.7459C180.272 66.8092 180.441 66.9079 180.587 67.0365C180.732 67.1651 180.85 67.321 180.934 67.4951C181.018 67.6692 181.066 67.8581 181.076 68.0509Z" fill="#403E48"/>
<path d="M182.525 66.075C182.333 66.2711 181.173 65.4094 179.525 65.399C177.876 65.3887 176.66 66.1988 176.478 65.9976C176.394 65.9099 176.587 65.5487 177.122 65.172C177.841 64.6871 178.693 64.4347 179.561 64.4496C180.419 64.4554 181.252 64.7299 181.943 65.2339C182.432 65.6261 182.619 65.9821 182.525 66.075Z" fill="#403E48"/>
<path d="M188.418 78.2522C188.418 78.1593 189.458 77.9942 191.101 77.7929C191.522 77.7517 191.922 77.6743 191.995 77.3905C192.037 76.9582 191.943 76.5236 191.725 76.1469C191.34 75.1149 190.929 74.0829 190.503 72.9529C188.808 68.4017 187.586 64.6659 187.773 64.5988C187.96 64.5317 189.484 68.1644 191.174 72.7155C191.584 73.8352 191.974 74.9033 192.344 75.9302C192.605 76.4359 192.679 77.0168 192.552 77.5711C192.487 77.7179 192.391 77.8487 192.27 77.954C192.148 78.0593 192.005 78.1365 191.85 78.1799C191.616 78.2374 191.377 78.2685 191.137 78.2728C189.463 78.3605 188.423 78.3605 188.418 78.2522Z" fill="#403E48"/>
<path d="M183.55 79.3615C183.821 79.3615 183.805 81.1262 185.329 82.4007C186.852 83.6753 188.766 83.4947 188.776 83.7423C188.776 83.8559 188.345 84.0881 187.539 84.1035C186.488 84.1055 185.47 83.7401 184.663 83.0715C183.89 82.4295 183.397 81.5165 183.285 80.5225C183.223 79.8001 183.425 79.3512 183.55 79.3615Z" fill="#403E48"/>
<path d="M183 59.6763C182.834 60.1201 181.191 59.8982 179.251 60.1149C177.311 60.3317 175.741 60.8425 175.486 60.44C175.377 60.2491 175.653 59.8311 176.287 59.408C177.134 58.8875 178.089 58.565 179.08 58.4649C180.071 58.3648 181.072 58.4897 182.007 58.8301C182.719 59.0932 183.073 59.4441 183 59.6763Z" fill="#403E48"/>
<path d="M198.522 60.0637C198.231 60.4352 197.097 60.0379 195.73 60.0121C194.362 59.9863 193.202 60.2391 192.937 59.847C192.823 59.656 193.005 59.2845 193.514 58.9388C194.198 58.5209 194.991 58.3144 195.793 58.3456C196.595 58.3769 197.369 58.6444 198.018 59.1142C198.496 59.5012 198.652 59.8831 198.522 60.0637Z" fill="#403E48"/>
<path d="M161.982 67.21C161.982 67.21 162.45 69.6764 162.574 70.7858C162.621 71.1935 162.574 75.7085 163.672 75.9459C164.623 76.1419 166.511 75.2802 167.353 73.4123C168.196 71.5444 169.797 67.0603 169.62 65.0221C169.386 62.246 169.256 59.4184 169.818 56.6836C170.38 53.9488 171.695 51.2862 173.905 49.5628C176.115 47.8393 179.313 47.2459 181.83 48.4946C183.39 49.2686 184.539 50.636 185.99 51.5906C187.277 52.4951 188.853 52.9008 190.42 52.731C191.198 52.6341 191.932 52.3211 192.539 51.8281C193.145 51.3351 193.599 50.6822 193.847 49.9446C194.305 48.3192 193.462 46.539 192.147 45.4606C190.831 44.3821 189.141 43.8868 187.467 43.5565C182.819 42.5661 177.984 42.9025 173.52 44.5266C169.116 46.2242 165.2 49.4854 163.328 53.7836C161.155 58.7527 161.404 61.8023 161.982 67.1996" fill="#403E48"/>
<path d="M186.536 68.1179C186.484 67.5273 186.39 66.941 186.255 66.3636C185.839 64.7958 184.903 63.4127 183.598 62.4368C182.706 61.767 181.667 61.3145 180.566 61.1158C179.302 60.8866 177.999 60.9952 176.791 61.4306C176.141 61.6609 175.53 61.9898 174.982 62.4058C174.395 62.824 173.883 63.3347 173.463 63.9177C172.561 65.1363 172.075 66.6087 172.075 68.1205C172.075 69.6324 172.561 71.1048 173.463 72.3233C173.885 72.904 174.398 73.4143 174.982 73.8352C175.53 74.2497 176.141 74.5769 176.791 74.8053C177.999 75.2422 179.302 75.3526 180.566 75.1252C181.668 74.9257 182.706 74.4714 183.598 73.7991C184.904 72.8253 185.841 71.4441 186.26 69.8775C186.393 69.298 186.485 68.7101 186.536 68.1179C186.544 68.1571 186.544 68.1974 186.536 68.2366V68.5823C186.538 68.7709 186.523 68.9592 186.489 69.1448C186.464 69.3991 186.419 69.651 186.354 69.8981C185.967 71.5115 185.032 72.9435 183.707 73.9539C182.726 74.7044 181.569 75.1971 180.345 75.3865C179.121 75.5759 177.868 75.4559 176.703 75.0375C176.027 74.8049 175.392 74.4689 174.82 74.0416C174.221 73.6111 173.694 73.0886 173.26 72.4936C172.321 71.2309 171.814 69.7028 171.814 68.1334C171.814 66.564 172.321 65.036 173.26 63.7732C174.132 62.5948 175.335 61.6974 176.718 61.1932C177.966 60.7511 179.311 60.646 180.613 60.8888C181.749 61.1029 182.818 61.5803 183.733 62.282C185.057 63.2911 185.992 64.7212 186.38 66.3326C186.445 66.5814 186.491 66.8351 186.515 67.0911C186.549 67.2749 186.564 67.4616 186.562 67.6484V67.9941C186.546 68.0818 186.541 68.1179 186.536 68.1179Z" fill="#403E48"/>
<path d="M205.448 68.1184C205.393 67.5281 205.299 66.9421 205.167 66.364C204.749 64.7955 203.811 63.4123 202.505 62.4372C201.613 61.7666 200.574 61.314 199.473 61.1162C198.211 60.8869 196.909 60.9956 195.703 61.431C194.372 61.9177 193.214 62.7827 192.375 63.9181C191.47 65.1354 190.982 66.6083 190.982 68.121C190.982 69.6336 191.47 71.1065 192.375 72.3238C192.795 72.9042 193.306 73.4146 193.888 73.8357C194.438 74.2512 195.051 74.5786 195.703 74.8057C196.909 75.2427 198.21 75.3531 199.473 75.1257C200.575 74.9262 201.613 74.4718 202.505 73.7995C203.81 72.8257 204.748 71.4445 205.167 69.8779C205.299 69.2982 205.393 68.7104 205.448 68.1184C205.45 68.1579 205.45 68.1975 205.448 68.2371C205.448 68.3299 205.448 68.4435 205.448 68.5828C205.45 68.7711 205.436 68.9592 205.406 69.1452C205.38 69.3996 205.333 69.6515 205.266 69.8986C204.883 71.5136 203.948 72.9469 202.619 73.9543C201.704 74.6551 200.635 75.1307 199.499 75.3424C198.195 75.5904 196.848 75.4853 195.599 75.0379C194.214 74.5403 193.011 73.6416 192.146 72.4579C191.204 71.1965 190.695 69.6679 190.695 68.0977C190.695 66.5276 191.204 64.999 192.146 63.7375C192.58 63.1421 193.106 62.6194 193.706 62.1895C194.279 61.7626 194.913 61.425 195.589 61.1885C196.839 60.7461 198.184 60.641 199.489 60.884C200.625 61.0974 201.694 61.5749 202.609 62.2772C203.936 63.2837 204.871 64.7149 205.255 66.3279C205.322 66.5766 205.369 66.8303 205.396 67.0864C205.425 67.2706 205.439 67.4571 205.437 67.6437C205.437 67.783 205.437 67.8965 205.437 67.9894C205.444 68.0321 205.447 68.0752 205.448 68.1184Z" fill="#403E48"/>
<path d="M191.018 67.3438C191.018 67.385 190.753 67.2509 190.342 67.1167C189.805 66.9375 189.238 66.8639 188.673 66.9C188.114 66.9412 187.567 67.0846 187.061 67.3231C186.671 67.5141 186.452 67.6792 186.426 67.6431C186.4 67.6069 186.582 67.4005 186.946 67.158C187.459 66.8515 188.038 66.671 188.635 66.6315C189.231 66.5921 189.829 66.6947 190.378 66.931C190.831 67.127 191.039 67.3231 191.018 67.3438Z" fill="#403E48"/>
<path d="M193.946 49.3567C194.055 48.8046 193.868 48.495 194.185 48.2679C194.502 48.0409 195.225 48.691 195.464 48.9594C195.547 49.0471 195.797 48.7065 195.896 48.6446C196.004 48.4234 196.068 48.1832 196.083 47.9377C196.036 47.5507 195.428 47.4217 195.142 47.1843C194.847 46.927 194.502 46.7321 194.128 46.6116C193.976 46.5368 193.806 46.5027 193.637 46.5127C193.467 46.5226 193.303 46.5763 193.161 46.6683C193.076 46.7674 193.013 46.8827 192.976 47.0069C192.938 47.1312 192.927 47.2619 192.942 47.3907C192.941 47.6489 192.99 47.9048 193.088 48.1441C193.186 48.3848 193.371 48.5801 193.608 48.691" fill="#403E48"/>
<path d="M161.58 61.5443C161.58 61.5443 166.848 63.4587 169.588 64.6145L169.432 61.9416L161.773 58.9333C161.773 58.9333 161.575 60.9199 161.58 61.5443Z" fill="white"/>
<path d="M162.074 57.3904C163.347 57.7816 164.593 58.2556 165.803 58.8094C167.053 59.2821 168.269 59.8389 169.443 60.4761C168.17 60.0849 166.924 59.6109 165.714 59.0571C164.464 58.5844 163.248 58.0275 162.074 57.3904Z" fill="white"/>
<path d="M163.661 113.696L163.256 101.049C163.256 101.049 165.788 112.623 179.053 112.474C191.726 112.329 191.497 102.277 191.497 102.277L191.949 107.375V127.969L183.681 161.566L173.12 162.876L161.451 116.952L163.661 113.696Z" fill="#7D9DF1"/>
<path d="M190.316 109.651C190.277 109.746 190.226 109.836 190.165 109.919C190.007 110.174 189.833 110.418 189.645 110.652C188.978 111.523 188.182 112.288 187.284 112.923C185.952 113.869 184.458 114.568 182.875 114.987C180.935 115.503 178.913 115.641 176.921 115.394C174.936 115.123 173.007 114.547 171.201 113.686C169.735 112.99 168.342 112.154 167.041 111.189C166.16 110.548 165.317 109.859 164.514 109.125C164.228 108.867 164.02 108.65 163.874 108.506C163.796 108.438 163.727 108.362 163.666 108.279C163.754 108.333 163.836 108.397 163.91 108.469L164.586 109.047C165.169 109.563 166.032 110.25 167.155 111.049C168.463 111.984 169.856 112.796 171.315 113.475C173.1 114.31 175.002 114.87 176.957 115.136C178.914 115.38 180.899 115.252 182.807 114.76C184.367 114.358 185.845 113.691 187.175 112.788C188.069 112.176 188.872 111.443 189.562 110.611C190.061 109.992 190.295 109.636 190.316 109.651Z" fill="#403E48"/>
<path d="M181.111 217.629L180.919 157.928L163.831 114.373L163.259 101.261L152.859 109.073C152.859 109.073 137.712 160.813 137.457 159.027C137.202 157.242 137.457 217.629 137.457 217.629H181.111Z" fill="white"/>
<path d="M180.702 217.464C180.629 217.464 180.566 204.012 180.566 187.418C180.566 170.823 180.629 157.371 180.702 157.371C180.774 157.371 180.837 170.823 180.837 187.418C180.837 204.012 180.774 217.464 180.702 217.464Z" fill="#403E48"/>
<path d="M153 117.576L155.111 119.166L153.629 128.825L178.568 154.749L155.917 125.229L157.846 117.576H153Z" fill="#E0E0E0"/>
<path d="M182.048 187.046L143.771 175.911L142.502 147.061L153.001 109.052C153.001 109.052 127.978 121.442 126.273 129.336C124.567 137.231 120.464 156.385 120.033 170.24C119.643 182.624 119.585 190.88 122.435 194.858C130.599 206.179 184.388 208.202 205.874 194.858" fill="white"/>
<path d="M179.053 155.374C179.053 155.374 179.006 155.332 178.928 155.234C178.85 155.136 178.725 154.987 178.585 154.811L177.285 153.16C176.151 151.705 174.534 149.62 172.543 147.051L156.979 126.839L155.809 125.291L155.767 125.239V125.177C156.433 122.535 157.083 119.971 157.702 117.525L157.827 117.69H152.98H152.855V117.566C152.855 114.47 152.855 111.581 152.855 109.042V108.99L152.897 108.96L160.421 103.284L162.501 101.736L163.021 101.338C163.081 101.29 163.145 101.248 163.214 101.214L163.042 101.364L162.522 101.782L160.489 103.361L153.022 109.109L153.063 109.027C153.063 111.565 153.063 114.429 153.063 117.551L152.939 117.432H157.785H157.993L157.951 117.597L156.027 125.25L156.001 125.136L157.177 126.658L172.673 146.922L177.353 153.078C177.873 153.8 178.315 154.362 178.611 154.76C178.746 154.945 178.85 155.095 178.933 155.203L179.053 155.374Z" fill="#403E48"/>
<path d="M196.114 106.803C193.061 101.508 191.475 102.055 191.475 102.055L191.636 103.944V107.912L190.186 124.94L180.914 161.932L181.106 217.629H216.16L220.522 149.641L220.127 120.348L196.114 106.803Z" fill="white"/>
<path d="M220.133 120.348C220.133 120.348 229.207 126.994 230.013 137.69C230.652 146.375 232.093 170.157 232.379 175.333C232.795 183.393 226.466 202.273 209.993 196.927C200.113 193.718 163.619 181.411 163.619 181.411L166.048 166.029L209.364 168.609L210.227 132.757L220.133 120.348Z" fill="white"/>
<path d="M165.532 167.799C165.532 167.799 153.271 166.483 150.452 167.164C147.722 167.819 143.838 171.132 143.838 171.132L143.895 175.936L163.619 181.411L165.532 167.799Z" fill="#B78876"/>
<path d="M180.92 156.369C180.933 156.313 180.953 156.257 180.977 156.204C181.019 156.086 181.081 155.926 181.159 155.73C181.331 155.296 181.58 154.698 181.892 153.913L184.638 147.247L188.736 137.37C189.126 136.447 189.51 135.482 189.994 134.538C190.478 133.593 191.003 132.649 191.554 131.705C192.749 129.779 194.047 127.919 195.444 126.132C196.151 125.229 196.863 124.347 197.602 123.5V123.64L196.073 119.785L196.021 119.656L196.151 119.61L202.531 117.468L202.464 117.644C199.5 112.731 196.998 108.583 195.22 105.642C194.346 104.186 193.598 103.02 192.802 102.546C192.502 102.366 192.176 102.236 191.835 102.159C191.714 102.136 191.594 102.107 191.476 102.071C191.598 102.079 191.72 102.094 191.84 102.117C192.193 102.18 192.533 102.304 192.844 102.484C193.326 102.795 193.743 103.196 194.071 103.665C194.53 104.275 194.955 104.909 195.345 105.564L202.677 117.525L202.755 117.654L202.609 117.7L196.229 119.873L196.307 119.703L197.841 123.557L197.872 123.629L197.815 123.691C197.087 124.527 196.374 125.409 195.672 126.312C194.282 128.087 192.987 129.933 191.793 131.844C191.237 132.783 190.691 133.707 190.233 134.651C189.776 135.595 189.37 136.534 188.98 137.463C187.42 141.168 186.006 144.507 184.82 147.319C183.634 150.131 182.667 152.37 181.996 153.949C181.664 154.718 181.398 155.322 181.216 155.75C181.128 155.946 181.06 156.096 181.003 156.215C180.983 156.27 180.955 156.322 180.92 156.369Z" fill="#403E48"/>
<path d="M225.11 193.934C225.065 193.993 225.015 194.047 224.959 194.094L224.491 194.543C223.875 195.102 223.208 195.603 222.499 196.04C221.369 196.722 220.142 197.234 218.859 197.557C217.16 197.974 215.398 198.086 213.659 197.887C212.645 197.77 211.644 197.559 210.669 197.257C209.629 196.937 208.631 196.54 207.549 196.169C205.412 195.395 203.114 194.621 200.701 193.754C195.865 192.072 190.535 190.276 184.919 188.444C173.687 184.786 163.443 181.7 156.017 179.497L147.219 176.917L144.827 176.21L144.208 176.024C144.136 176.005 144.067 175.979 144 175.947L144.218 175.993L144.842 176.158L147.25 176.813C149.33 177.391 152.351 178.243 156.09 179.316C163.526 181.468 173.77 184.528 185.018 188.191C190.639 190.018 195.969 191.803 200.8 193.516C203.212 194.368 205.506 195.178 207.643 195.957C208.714 196.339 209.723 196.741 210.763 197.061C211.723 197.364 212.711 197.576 213.711 197.696C215.434 197.906 217.181 197.809 218.87 197.412C220.147 197.102 221.373 196.61 222.51 195.952C223.219 195.525 223.89 195.04 224.517 194.502L225 194.074C225.033 194.025 225.07 193.978 225.11 193.934Z" fill="#403E48"/>
<path d="M143.874 176.024C143.874 176.081 143.183 175.931 142.086 175.977C141.444 176.004 140.809 176.108 140.193 176.287C139.441 176.511 138.724 176.835 138.061 177.252C136.863 178.036 135.85 179.067 135.092 180.276C134.514 181.204 134.26 181.824 134.213 181.824C134.241 181.665 134.29 181.51 134.358 181.364C134.516 180.954 134.707 180.557 134.93 180.178C135.659 178.907 136.682 177.826 137.915 177.025C138.601 176.596 139.345 176.267 140.125 176.05C140.763 175.878 141.42 175.79 142.08 175.786C142.524 175.78 142.966 175.82 143.401 175.905C143.564 175.923 143.723 175.963 143.874 176.024Z" fill="#403E48"/>
<path d="M131.816 172.257C131.816 172.257 131.816 172.206 131.863 172.118C131.925 171.995 132.006 171.882 132.102 171.782C132.474 171.422 132.951 171.187 133.465 171.112C134.209 170.99 134.967 170.99 135.711 171.112C136.621 171.231 137.516 171.447 138.379 171.757C139.958 172.307 141.399 173.187 142.606 174.337C142.966 174.688 143.295 175.07 143.589 175.477C143.703 175.621 143.799 175.779 143.875 175.947C143.828 175.983 143.402 175.322 142.476 174.476C141.256 173.393 139.832 172.56 138.285 172.025C137.442 171.725 136.571 171.506 135.685 171.37C134.964 171.241 134.228 171.22 133.501 171.308C133.017 171.363 132.56 171.556 132.186 171.865C131.926 172.087 131.837 172.268 131.816 172.257Z" fill="#403E48"/>
<path d="M146.105 139.14C146.021 138.887 145.961 138.626 145.929 138.361C145.851 138.113 145.741 137.819 145.622 137.479C145.502 137.138 145.294 136.767 145.055 136.375C144.495 135.451 143.842 134.586 143.105 133.795C142.193 132.833 141.192 131.959 140.115 131.184C138.16 129.765 135.937 128.753 133.579 128.206C132.861 128.055 132.132 127.962 131.4 127.928C131.13 127.929 130.86 127.908 130.594 127.866C130.862 127.828 131.134 127.814 131.405 127.824C132.146 127.816 132.887 127.882 133.615 128.02C136.021 128.518 138.29 129.523 140.271 130.967C141.365 131.748 142.376 132.638 143.287 133.624C144.028 134.435 144.677 135.324 145.221 136.276C145.455 136.684 145.606 137.081 145.741 137.417C145.877 137.752 145.949 138.077 146.012 138.33C146.063 138.597 146.095 138.868 146.105 139.14Z" fill="#403E48"/>
<path d="M218.775 183.238C218.769 183.176 218.769 183.114 218.775 183.052V182.51C218.775 182.036 218.738 181.339 218.671 180.446C218.482 177.911 217.958 175.411 217.111 173.011C216.856 172.216 216.507 171.454 216.071 170.74C215.584 169.981 214.877 169.385 214.043 169.032C212.301 168.289 210.205 168.388 208.073 168.269L194.116 167.686C182.583 167.17 172.323 166.757 165.875 166.416L165.964 166.344C165.574 168.697 165.262 170.56 165.048 171.855C164.939 172.479 164.856 172.964 164.794 173.31C164.768 173.465 164.742 173.589 164.726 173.687L164.695 173.811C164.69 173.768 164.69 173.725 164.695 173.682L164.747 173.305C164.794 172.959 164.866 172.469 164.955 171.84C165.152 170.544 165.433 168.676 165.792 166.318V166.246H165.87L194.111 167.412L208.068 168.037C209.139 168.088 210.184 168.114 211.188 168.197C212.188 168.252 213.172 168.471 214.1 168.847C214.974 169.211 215.717 169.828 216.232 170.617C216.672 171.346 217.021 172.126 217.272 172.939C218.107 175.354 218.604 177.871 218.749 180.421C218.806 181.318 218.806 182.02 218.801 182.485C218.801 182.712 218.801 182.892 218.801 183.026C218.78 183.171 218.775 183.238 218.775 183.238Z" fill="#403E48"/>
<path d="M210.512 149.584C210.585 149.584 210.647 153.748 210.647 158.872C210.647 163.996 210.585 168.16 210.512 168.16C210.439 168.16 210.377 163.996 210.377 158.872C210.377 153.748 210.439 149.584 210.512 149.584Z" fill="#403E48"/>
<path d="M126.574 128.392C126.574 128.392 126.543 128.511 126.47 128.733C126.397 128.955 126.267 129.29 126.158 129.765C125.903 130.657 125.581 131.989 125.222 133.728C124.499 137.205 123.61 142.293 122.622 148.661C122.128 151.849 121.582 155.369 121.062 159.141C120.797 161.034 120.631 163.005 120.495 165.049C120.36 167.092 120.251 169.177 120.168 171.365C120.012 175.704 119.918 180.286 120.043 185.059C120.085 186.251 120.126 187.459 120.225 188.671C120.256 189.28 120.36 189.879 120.433 190.482C120.544 191.086 120.692 191.682 120.875 192.268C121.245 193.452 121.83 194.559 122.601 195.534C123.375 196.526 124.392 197.304 125.555 197.794C128.03 198.999 130.612 199.977 133.267 200.715C135.955 201.514 138.732 202.159 141.55 202.732C147.683 203.989 153.909 204.741 160.166 204.982C163.13 205.058 166.097 204.982 169.053 204.755C171.949 204.554 174.773 204.239 177.503 203.852C182.651 203.128 187.725 201.957 192.666 200.353C196.897 198.967 201 197.22 204.928 195.132V195.302L188.153 189.383L183.623 187.779L182.453 187.355C182.188 187.257 182.058 187.201 182.058 187.201L182.459 187.33L183.639 187.727L188.184 189.275L205.032 195.106L205.235 195.173L205.047 195.276C201.112 197.381 197.001 199.143 192.76 200.544C187.808 202.163 182.721 203.346 177.56 204.079C174.825 204.487 171.996 204.791 169.095 204.992C166.13 205.223 163.155 205.302 160.182 205.23C153.909 204.992 147.667 204.24 141.519 202.98C138.69 202.402 135.908 201.757 133.199 200.957C130.529 200.209 127.932 199.223 125.441 198.011C124.229 197.505 123.169 196.698 122.362 195.668C121.573 194.666 120.976 193.529 120.599 192.314C120.411 191.719 120.26 191.112 120.147 190.498C120.069 189.879 119.97 189.27 119.939 188.661C119.84 187.443 119.799 186.231 119.762 185.049C119.637 180.26 119.762 175.678 119.908 171.334C119.991 169.166 120.104 167.059 120.246 165.013C120.386 162.949 120.558 160.988 120.828 159.094C121.348 155.301 121.899 151.798 122.388 148.614C123.428 142.247 124.333 137.164 125.087 133.691C125.461 131.952 125.794 130.621 126.065 129.729C126.179 129.28 126.325 128.949 126.397 128.727C126.47 128.506 126.574 128.392 126.574 128.392Z" fill="#403E48"/>
<path d="M143.816 172.459C150.218 165.425 149.937 152.923 146.26 144.053C145.922 153.661 144.778 162.185 143.905 171.525" fill="#E0E0E0"/>
<path d="M146.278 145.848C146.289 145.951 146.289 146.055 146.278 146.158C146.278 146.39 146.246 146.674 146.22 147.035C146.158 147.835 146.075 148.929 145.966 150.26C145.737 153.016 145.446 156.757 145.087 160.895L144.245 171.535C144.146 172.866 144.063 173.96 144 174.76L143.922 175.632C143.916 175.734 143.902 175.836 143.881 175.936C143.865 175.835 143.865 175.733 143.881 175.632C143.881 175.4 143.881 175.116 143.907 174.75C143.933 173.986 143.99 172.882 144.063 171.519C144.224 168.795 144.484 165.028 144.827 160.874C145.17 156.721 145.513 152.964 145.789 150.245C145.929 148.913 146.044 147.825 146.127 147.025C146.174 146.669 146.21 146.38 146.236 146.153C146.236 146.05 146.25 145.948 146.278 145.848Z" fill="#403E48"/>
<path d="M162.053 133.144C162.19 134.959 162.235 136.779 162.188 138.598C162.235 140.418 162.19 142.238 162.053 144.053C161.98 144.053 161.918 141.607 161.918 138.598C161.918 135.59 161.98 133.144 162.053 133.144Z" fill="#403E48"/>
<path d="M157.883 151.261C157.992 152.316 158.401 153.319 159.063 154.151C159.666 154.93 160.888 155.699 161.871 155.632C162.612 155.669 163.349 155.516 164.012 155.185C164.675 154.855 165.24 154.36 165.652 153.749C166.848 151.86 167.144 147.923 166.172 145.596C165.511 143.996 164.029 142.5 162.287 142.464C159.999 142.412 158.564 144.053 158.075 145.714" fill="#E0E0E0"/>
<path d="M158.087 145.714C158.162 145.322 158.305 144.945 158.508 144.6C158.734 144.185 159.024 143.807 159.366 143.48C159.824 143.044 160.38 142.722 160.988 142.541C161.341 142.434 161.707 142.375 162.075 142.365C162.478 142.344 162.882 142.396 163.266 142.52C164.103 142.814 164.839 143.339 165.388 144.032C166.006 144.781 166.436 145.665 166.641 146.612C166.857 147.617 166.934 148.646 166.87 149.672C166.766 151.287 166.443 152.897 165.544 154.125C165.096 154.702 164.5 155.148 163.817 155.415C163.197 155.662 162.53 155.773 161.862 155.74C161.374 155.744 160.893 155.627 160.463 155.4C160.085 155.203 159.735 154.957 159.423 154.667C158.934 154.183 158.545 153.608 158.279 152.974C158.101 152.575 157.979 152.153 157.915 151.72C157.898 151.608 157.887 151.494 157.884 151.38C157.877 151.341 157.877 151.301 157.884 151.261C157.99 151.834 158.164 152.392 158.404 152.923C158.682 153.529 159.074 154.077 159.558 154.538C159.872 154.811 160.222 155.04 160.598 155.219C161 155.425 161.446 155.529 161.898 155.523C162.557 155.556 163.214 155.432 163.816 155.163C164.417 154.894 164.945 154.487 165.356 153.975C166.194 152.825 166.516 151.241 166.615 149.662C166.729 147.598 166.381 145.565 165.211 144.192C164.688 143.534 163.988 143.035 163.193 142.752C162.833 142.634 162.454 142.58 162.075 142.592C161.723 142.596 161.374 142.647 161.035 142.742C160.454 142.908 159.92 143.207 159.475 143.614C159.135 143.923 158.843 144.279 158.607 144.672C158.414 145.009 158.24 145.357 158.087 145.714Z" fill="#403E48"/>
<path d="M156.666 151.364C156.776 152.419 157.185 153.421 157.846 154.254C158.444 155.033 159.672 155.802 160.654 155.735C161.395 155.772 162.132 155.618 162.795 155.288C163.457 154.958 164.022 154.463 164.435 153.851C165.631 151.958 165.927 148.026 164.955 145.699C164.294 144.094 162.812 142.603 161.07 142.567C160.103 142.558 159.161 142.874 158.396 143.463C157.632 144.052 157.09 144.88 156.858 145.812" fill="#E0E0E0"/>
<path d="M156.868 145.812C156.945 145.421 157.087 145.046 157.29 144.703C157.516 144.288 157.805 143.91 158.148 143.583C158.877 142.886 159.844 142.488 160.857 142.469C161.26 142.447 161.664 142.5 162.048 142.623C162.885 142.917 163.621 143.442 164.169 144.135C164.788 144.883 165.216 145.768 165.417 146.715C165.637 147.72 165.716 148.749 165.651 149.775C165.547 151.39 165.225 152.995 164.325 154.228C163.878 154.805 163.281 155.251 162.599 155.518C161.978 155.765 161.311 155.876 160.644 155.843C160.156 155.846 159.675 155.727 159.245 155.498C158.865 155.305 158.515 155.06 158.205 154.77C157.712 154.286 157.323 153.709 157.061 153.072C156.883 152.674 156.76 152.254 156.697 151.824C156.697 151.674 156.666 151.56 156.66 151.483C156.655 151.444 156.655 151.404 156.66 151.364C156.767 151.935 156.941 152.491 157.18 153.021C157.455 153.63 157.847 154.181 158.335 154.641C158.649 154.914 158.999 155.143 159.375 155.322C159.777 155.525 160.223 155.63 160.675 155.627C161.333 155.658 161.989 155.534 162.589 155.265C163.189 154.996 163.717 154.589 164.128 154.079C164.97 152.923 165.292 151.344 165.391 149.765C165.506 147.701 165.157 145.668 163.987 144.295C163.472 143.632 162.778 143.127 161.985 142.84C161.627 142.722 161.25 142.668 160.872 142.68C159.907 142.695 158.982 143.062 158.272 143.712C157.932 144.021 157.64 144.377 157.404 144.77C157.204 145.106 157.025 145.454 156.868 145.812Z" fill="#403E48"/>
<path d="M158.876 145.234C158.299 145.162 157.714 145.278 157.21 145.566C156.706 145.854 156.31 146.297 156.084 146.829C155.652 147.911 155.652 149.116 156.084 150.198C156.262 150.759 156.558 151.276 156.952 151.715C157.353 152.158 157.913 152.427 158.512 152.463C158.945 152.439 159.367 152.312 159.74 152.093C160.114 151.874 160.429 151.569 160.66 151.204C161.062 150.636 161.336 149.988 161.462 149.305C161.589 148.622 161.565 147.92 161.393 147.247C161.154 146.349 160.488 145.435 159.557 145.41" fill="#E0E0E0"/>
<path d="M159.552 145.41C159.552 145.41 159.625 145.41 159.76 145.41C159.96 145.433 160.154 145.498 160.327 145.601C160.633 145.804 160.896 146.065 161.1 146.37C161.303 146.675 161.444 147.017 161.512 147.376C161.766 148.435 161.653 149.547 161.19 150.534C160.931 151.125 160.531 151.646 160.025 152.051C159.753 152.284 159.429 152.449 159.08 152.532C158.731 152.616 158.367 152.615 158.018 152.531C157.337 152.316 156.764 151.851 156.416 151.231C156.097 150.676 155.872 150.073 155.751 149.445C155.621 148.921 155.6 148.376 155.689 147.844C155.779 147.312 155.976 146.803 156.271 146.349C156.482 146.049 156.75 145.794 157.06 145.597C157.371 145.401 157.718 145.267 158.08 145.204C158.279 145.175 158.48 145.175 158.678 145.204C158.808 145.23 158.876 145.25 158.876 145.26C158.617 145.252 158.357 145.267 158.101 145.307C157.416 145.465 156.817 145.876 156.427 146.458C156.157 146.896 155.98 147.384 155.906 147.892C155.832 148.4 155.862 148.918 155.995 149.414C156.117 150.012 156.336 150.585 156.645 151.112C156.959 151.672 157.476 152.093 158.091 152.288C158.399 152.363 158.721 152.364 159.029 152.29C159.337 152.216 159.624 152.071 159.864 151.865C160.336 151.484 160.713 151 160.966 150.451C161.417 149.513 161.543 148.454 161.325 147.438C161.216 146.75 160.843 146.131 160.285 145.709C160.062 145.565 159.813 145.464 159.552 145.41Z" fill="#403E48"/>
<path d="M161.498 153.717C161.456 153.717 161.399 153.552 161.222 153.346C160.984 153.08 160.676 152.886 160.333 152.784C159.977 152.682 159.61 152.625 159.241 152.613C158.955 152.613 158.768 152.567 158.768 152.531C158.768 152.495 158.944 152.453 159.241 152.422C159.636 152.381 160.035 152.416 160.416 152.526C160.813 152.639 161.155 152.892 161.378 153.238C161.539 153.506 161.529 153.712 161.498 153.717Z" fill="#403E48"/>
<path d="M161.908 144.533C161.908 144.533 161.824 144.714 161.585 144.904C161.264 145.149 160.887 145.311 160.488 145.379C160.09 145.451 159.68 145.43 159.292 145.317C159.001 145.219 158.845 145.106 158.86 145.075C159.377 145.155 159.901 145.168 160.42 145.116C160.938 144.983 161.438 144.787 161.908 144.533Z" fill="#403E48"/>
<path d="M197.637 107.571C197.637 107.571 197.699 107.571 197.808 107.633C197.967 107.703 198.122 107.783 198.271 107.871C198.829 108.183 199.351 108.554 199.831 108.975C201.43 110.372 202.592 112.195 203.18 114.228C203.795 116.224 204.222 118.273 204.454 120.347C204.548 121.142 204.594 121.787 204.626 122.231C204.652 122.462 204.652 122.696 204.626 122.927C204.567 122.702 204.529 122.473 204.511 122.241C204.444 121.751 204.355 121.121 204.256 120.373C203.969 118.319 203.518 116.29 202.91 114.305C202.331 112.318 201.22 110.524 199.696 109.114C199.049 108.55 198.361 108.034 197.637 107.571Z" fill="#403E48"/>
<path d="M191.157 164.368C192.665 164.311 193.872 162.82 195.38 162.902C195.653 162.926 195.919 163.002 196.162 163.127C196.406 163.252 196.622 163.423 196.799 163.631C196.975 163.839 197.109 164.079 197.192 164.339C197.275 164.598 197.306 164.871 197.283 165.142C197.26 165.413 197.183 165.677 197.057 165.918C196.931 166.16 196.758 166.375 196.549 166.55C196.339 166.725 196.097 166.858 195.835 166.941C195.574 167.023 195.299 167.054 195.026 167.03C193.44 166.85 192.514 165.008 190.965 164.657" fill="#403E48"/>
<path d="M203.939 165.642C203.467 165.641 202.996 165.603 202.53 165.528L202.613 165.012C204.474 165.307 206.04 165.012 207.262 164.109C208.822 162.99 209.794 160.983 210.21 158.145V158.036C210.382 156.911 210.616 134.842 210.616 130.652C210.616 124.104 204.828 123.211 204.578 123.175C204.329 123.139 199.082 122.262 196.29 129.408C193.367 136.896 188.693 151.323 188.386 153.015C188.344 153.222 188.287 153.48 188.225 153.774C187.736 155.941 186.727 160.446 189.753 163.036C193.128 165.931 195.791 164.811 195.9 164.765L196.113 165.234C195.988 165.286 193.055 166.55 189.415 163.428C186.15 160.632 187.205 155.926 187.715 153.66C187.783 153.372 187.835 153.144 187.871 152.923C188.183 151.22 192.873 136.731 195.806 129.223C198.739 121.715 204.605 122.654 204.646 122.67C204.688 122.685 211.115 123.65 211.115 130.652C211.115 134.104 210.886 156.916 210.704 158.114V158.217C210.267 161.199 209.206 163.32 207.548 164.527C206.498 165.276 205.232 165.667 203.939 165.642Z" fill="#403E48"/>
<path d="M210.891 134.878C210.661 133.97 210.296 133.101 209.81 132.298C209.257 131.452 208.562 130.705 207.756 130.09C206.763 129.346 205.624 128.819 204.412 128.542C202.187 128.056 199.86 128.357 197.834 129.393C197.007 129.842 196.237 130.388 195.541 131.019C195.574 130.962 195.614 130.91 195.661 130.864C195.779 130.716 195.91 130.578 196.051 130.451C196.556 129.97 197.125 129.559 197.741 129.228C199.795 128.112 202.188 127.775 204.475 128.279C205.723 128.571 206.894 129.127 207.907 129.909C208.735 130.546 209.44 131.328 209.987 132.216C210.352 132.81 210.623 133.458 210.787 134.135C210.836 134.318 210.873 134.505 210.897 134.693C210.897 134.806 210.902 134.878 210.891 134.878Z" fill="#403E48"/>
<path d="M224.136 176.127C223.944 175.38 223.704 174.646 223.418 173.929C222.679 172.219 221.454 170.759 219.893 169.729C219.018 169.198 218.046 168.847 217.033 168.697C216.197 168.568 215.355 168.482 214.511 168.439L212.8 168.32C212.589 168.314 212.38 168.287 212.176 168.237C212.385 168.212 212.596 168.212 212.805 168.237L214.521 168.268C215.374 168.287 216.224 168.356 217.069 168.475C218.12 168.611 219.131 168.962 220.038 169.507C221.645 170.563 222.887 172.083 223.595 173.862C223.812 174.393 223.972 174.944 224.073 175.508C224.122 175.711 224.143 175.919 224.136 176.127Z" fill="#403E48"/>
<path d="M197.902 167.521C197.902 167.521 203.019 159.837 204.324 158.831C205.63 157.825 216.804 152.82 218.099 153.625C219.394 154.43 218.619 156.174 218.619 156.174C218.619 156.174 223.341 154.533 223.845 155.178C224.116 155.566 224.262 156.027 224.262 156.499C224.262 156.971 224.116 157.432 223.845 157.82C223.845 157.82 226.445 157.423 226.445 158.222C226.435 158.759 226.292 159.286 226.029 159.755C225.766 160.225 225.391 160.623 224.937 160.916C223.731 161.814 215.884 166.994 215.255 168.429L212.712 168.274L197.902 167.521Z" fill="#B78876"/>
<path d="M212.619 165.317C212.677 165.147 212.755 164.984 212.853 164.832C213.102 164.412 213.384 164.012 213.696 163.635C214.741 162.398 215.996 161.35 217.403 160.539C218.803 159.727 220.272 159.036 221.792 158.475C222.369 158.253 222.832 158.088 223.17 157.959C223.337 157.891 223.511 157.842 223.69 157.815C223.541 157.917 223.378 157.999 223.206 158.057L221.86 158.63C220.375 159.233 218.933 159.934 217.544 160.73C216.161 161.53 214.912 162.538 213.841 163.718C213.03 164.672 212.666 165.343 212.619 165.317Z" fill="#AA6550"/>
<path d="M206.135 165.194C206.195 164.997 206.279 164.808 206.384 164.631C206.561 164.275 206.816 163.764 207.17 163.145C207.577 162.417 208.049 161.727 208.579 161.081C208.893 160.688 209.253 160.333 209.65 160.023C210.082 159.734 210.534 159.466 211.007 159.187C212.606 158.242 214.275 157.417 215.999 156.721C216.522 156.516 217.057 156.343 217.601 156.205C217.801 156.148 218.007 156.111 218.214 156.096C218.214 156.143 217.367 156.339 216.072 156.917C214.38 157.661 212.734 158.503 211.142 159.44C210.674 159.714 210.222 159.987 209.801 160.261C209.418 160.553 209.069 160.887 208.761 161.256C208.228 161.887 207.748 162.56 207.326 163.269L206.462 164.703C206.371 164.878 206.261 165.042 206.135 165.194Z" fill="#AA6550"/>
</svg>
