<svg width="100" height="100" viewBox="0 0 100 100" fill="none" xmlns="http://www.w3.org/2000/svg">
<path d="M93.999 51.1803C93.999 61.734 90.0902 71.3785 83.6363 78.7369C78.723 84.3547 72.3236 88.6406 65.0516 90.9904C64.8471 91.0586 64.6426 91.1223 64.4334 91.1859C64.3334 91.2178 64.2289 91.2451 64.1242 91.2768C63.9197 91.3404 63.7105 91.3994 63.5016 91.4586C63.3016 91.5131 63.0971 91.5676 62.8971 91.6223C62.8016 91.6496 62.7061 91.6723 62.6107 91.6949C60.2383 92.3086 57.7838 92.7221 55.266 92.9039C54.2389 92.981 53.207 93.0176 52.1617 93.0176C50.1301 93.0176 48.1348 92.8721 46.1805 92.5902C46.0441 92.5721 45.9123 92.5539 45.776 92.5357C42.4445 92.0268 39.2447 91.1223 36.2223 89.8723C34.5633 89.1859 32.9543 88.3951 31.409 87.5135C18.8148 80.3049 10.3291 66.7334 10.3291 51.1803C10.3291 45.0762 11.6381 39.2768 13.9879 34.0455C14.0742 33.8545 14.1605 33.6637 14.2561 33.4729C15.215 31.4094 16.3422 29.4414 17.6193 27.5824C17.792 27.3234 17.9738 27.0688 18.1557 26.8143C25.7459 16.2379 38.1494 9.34766 52.1617 9.34766C75.2689 9.34746 93.999 28.0777 93.999 51.1803Z" fill="#F3FAF2"/>
<path d="M39.3328 90.7529C38.5823 90.2758 38.0996 90.4869 37.3055 90.1002C30.6553 86.8621 22.6647 86.4189 16.3739 82.4295C14.8868 81.4863 13.3604 79.7529 14.1426 78.175C14.7537 76.9424 16.3799 76.6984 17.7551 76.6525C14.3864 73.1601 11.6819 69.3726 9.35199 65.1162C8.68265 63.8933 8.04886 62.607 7.92211 61.2187C7.79535 59.8305 8.27582 58.307 9.43754 57.5365C10.4286 56.8791 11.7469 56.8785 12.869 57.2725C13.9911 57.6664 14.9539 58.4086 15.8614 59.1773C21.7555 64.1705 26.1223 70.6869 30.4094 77.1127C33.0778 81.1123 35.486 85.0457 38.0684 89.0234C38.5793 89.8103 38.8049 89.9615 39.3328 90.7529Z" fill="#9FD09A"/>
<path d="M96.4526 82.3152C95.8812 83.0187 95.1171 83.5364 94.3218 83.9753C92.5136 84.9722 90.5333 85.6095 88.5507 86.1642C87.8948 86.346 87.2392 86.523 86.579 86.6853L86.5741 86.6851C86.3687 86.7364 86.1681 86.788 85.963 86.8345C85.963 86.8345 85.963 86.8345 85.9581 86.8392C82.3157 87.7216 78.6048 88.34 74.8735 88.6907C71.0159 89.0519 67.1337 89.1263 63.3083 89.6825C62.0655 89.8691 60.5981 90.2468 59.4499 90.9409C59.445 90.9407 59.445 90.9407 59.445 90.9407C58.9601 91.23 58.5364 91.5749 58.2026 91.9857C58.2288 91.9284 58.2503 91.8659 58.2765 91.8087C59.4938 88.8911 61.503 86.3734 63.3778 83.8122C65.5878 80.8017 67.6366 77.6741 69.7187 74.572C69.7747 74.4913 69.831 74.406 69.8821 74.3253C71.5507 71.8446 73.2376 69.3888 75.0431 67.0195C76.4425 65.1894 77.9181 63.4054 79.5017 61.7269C79.5671 61.6515 79.6327 61.5761 79.7026 61.5154C82.7489 58.2902 86.1749 55.4558 90.089 53.404C91.1452 52.8525 92.2577 52.3562 93.4327 52.1673C94.12 52.0593 94.8521 52.0691 95.462 52.3902C95.605 52.4628 95.7376 52.5593 95.8556 52.6603C95.9267 52.7113 95.9876 52.7714 96.0485 52.8365C96.6575 53.4823 96.9153 54.4753 96.9479 55.3882C97.0358 57.6995 96.0845 59.9081 95.0505 61.9736C95.0401 61.9927 95.0294 62.0214 95.0192 62.0404C94.988 62.1023 94.962 62.1597 94.931 62.2169C92.8171 66.4189 90.3169 70.4284 87.4858 74.1798C87.4251 74.2554 87.3692 74.3312 87.3136 74.4021C86.9536 74.8702 86.5985 75.3384 86.2245 75.7964C87.9872 75.5835 89.7444 75.3851 91.5015 75.6329C93.2585 75.8757 95.0054 76.5741 96.2183 77.8657C96.7239 78.4064 97.1433 79.0654 97.2497 79.8011C97.3747 80.6972 97.0241 81.6116 96.4526 82.3152Z" fill="#9FD09A"/>
<path d="M96.0485 52.8365C91.6386 54.7797 87.3985 57.8875 83.1487 62.2994C83.0634 62.384 82.978 62.4732 82.8976 62.5578C82.4554 63.0184 82.0226 63.4938 81.5847 63.9736C78.754 67.1285 76.1517 70.5674 73.6351 73.9072C73.5892 73.9736 73.5386 74.0398 73.4878 74.1061C73.4726 74.125 73.4624 74.1439 73.4421 74.1676C72.3157 75.6625 71.1536 77.2096 69.9833 78.7127C68.6257 80.4522 67.2202 82.1705 65.7915 83.859C65.731 83.9297 65.6753 84.0006 65.6196 84.0666C63.6259 86.4152 61.5657 88.7131 59.4499 90.9412C59.445 90.941 59.445 90.941 59.445 90.941C58.9601 91.2303 58.5364 91.5752 58.2026 91.9859C58.2288 91.9287 58.2503 91.8662 58.2765 91.809C62.3296 87.6184 66.1978 83.1596 69.7894 78.5607C70.1134 78.1496 70.4331 77.7287 70.7571 77.3176L70.7573 77.3127C70.8081 77.2416 70.8687 77.1709 70.9196 77.0998L70.9198 77.0949C71.7259 76.0451 72.5175 74.9949 73.2987 73.959C75.511 71.0211 77.7843 67.998 80.231 65.1604L80.2312 65.1555C80.2968 65.0801 80.3575 65.0045 80.4278 64.9293C80.7507 64.5568 81.0784 64.1799 81.4058 63.8174C81.8288 63.3465 82.2466 62.89 82.6636 62.4529L82.6638 62.448C82.7087 62.4107 82.7491 62.3637 82.7892 62.3213L82.794 62.3215C87.0905 57.8141 91.3813 54.6449 95.8556 52.6602C95.9267 52.7111 95.9876 52.7715 96.0485 52.8365Z" fill="#403E48"/>
<path d="M82.6653 62.4513L82.6661 62.4562C82.671 62.524 82.7265 62.5699 82.7944 62.5652C82.8286 62.5652 82.8622 62.5603 82.8966 62.5603C86.8859 62.2779 90.923 62.1599 94.9316 62.2173C94.9624 62.1591 94.9884 62.1015 95.0192 62.0431C95.031 62.0218 95.0419 61.9958 95.0534 61.9745C91.0896 61.9204 87.0948 62.0275 83.1482 62.299C83.0269 62.3066 82.9103 62.3134 82.789 62.321C82.7841 62.3218 82.7841 62.3218 82.7794 62.3224C82.7159 62.3265 82.6605 62.3835 82.6653 62.4513Z" fill="#403E48"/>
<path d="M79.5015 61.7262C79.7239 62.8693 79.9649 64.0051 80.2196 65.134C80.221 65.1436 80.2224 65.1531 80.2327 65.1566C80.2499 65.208 80.3026 65.2348 80.3554 65.2271C80.3603 65.2264 80.3603 65.2264 80.3649 65.2258C80.4314 65.2113 80.4712 65.1471 80.4567 65.0805C80.4444 65.0283 80.4327 64.9811 80.4251 64.9283C80.1698 63.7947 79.928 62.6543 79.7007 61.5117C79.6317 61.5752 79.5687 61.6478 79.5015 61.7262Z" fill="#403E48"/>
<path d="M73.3255 74.0547C73.3296 74.1178 73.3851 74.1637 73.4441 74.165C73.449 74.1645 73.449 74.1645 73.4537 74.1637C78.0671 73.7967 82.7201 73.8744 87.3148 74.4012C87.3683 74.3299 87.4257 74.2531 87.4841 74.1811C82.8927 73.6439 78.238 73.5518 73.6374 73.907C73.5695 73.9119 73.5066 73.916 73.4386 73.9207C73.3706 73.9258 73.3206 73.9867 73.3255 74.0547Z" fill="#403E48"/>
<path d="M69.7173 74.5732L70.7314 77.2775C70.7382 77.2912 70.745 77.3049 70.7567 77.318C70.7849 77.3434 70.8212 77.3578 70.8644 77.3516L70.8884 77.348C70.9534 77.324 70.9823 77.2514 70.9589 77.191L70.9204 77.0937L69.8823 74.3242C69.8304 74.4053 69.7741 74.4916 69.7173 74.5732Z" fill="#403E48"/>
<path d="M65.6176 84.0665C65.6395 84.0829 65.6608 84.0947 65.6854 84.096C72.4262 84.8736 79.2262 85.7896 85.9569 86.838C85.9618 86.8372 85.9618 86.8372 85.9618 86.8372C86.1702 86.7878 86.3688 86.7398 86.5717 86.6863C79.6745 85.6031 72.6991 84.6583 65.7889 83.8609C65.7643 83.8595 65.7389 83.8533 65.7141 83.8519C65.645 83.8472 65.5879 83.8945 65.5778 83.9597C65.5737 83.9993 65.5895 84.0411 65.6176 84.0665Z" fill="#403E48"/>
<path d="M2.72754 29.443L35.8984 83.0268L71.8896 60.0623L37.1072 7.01562L2.72754 29.443Z" fill="#6C6A7C"/>
<path d="M6.98047 27.4842L36.5254 76.7137L67.2791 58.8523L34.4174 9.58594L6.98047 27.4842Z" fill="#FAFAFA"/>
<path d="M26.7165 15.9158L14.0796 24.891L12.8417 23.1482C12.378 22.4955 12.5313 21.5904 13.1841 21.1267L23.4571 13.8304C24.1098 13.3668 25.0149 13.5201 25.4786 14.1728L26.7165 15.9158Z" fill="#6C6A7C"/>
<path d="M21.762 15.7724L15.3184 20.3488L14.5727 19.2986C14.321 18.9441 14.4042 18.4525 14.7589 18.2006L19.9182 14.5361C20.2727 14.2844 20.7643 14.3676 21.0163 14.7221L21.762 15.7724Z" fill="#6C6A7C"/>
<path d="M45.8439 44.768L35.9126 51.2148L36.3766 51.9296L46.3079 45.4828L45.8439 44.768Z" fill="#BB8C98"/>
<path d="M68.5152 73.7252L68.2652 74.4889L62.6111 91.6918C60.2386 92.3055 57.7841 92.719 55.2663 92.9008C54.2392 92.978 53.2074 93.0145 52.162 93.0145C50.1304 93.0145 48.1351 92.869 46.1808 92.5872C46.0445 92.569 45.9126 92.5508 45.7763 92.5327C42.4449 92.0237 39.2451 91.1192 36.2226 89.8692C36.7908 86.6059 38.1042 78.5247 37.7224 75.0024C37.2453 70.5346 28.3095 49.4774 31.1822 46.6049C32.1548 45.6323 34.391 46.8913 37.0408 49.1911C37.4089 49.5092 37.7816 49.8456 38.1634 50.2C39.1497 51.1182 40.1724 52.1499 41.1949 53.2362C42.2083 54.3178 43.2265 55.4541 44.1992 56.5905C44.2355 56.6313 44.2673 56.6676 44.2992 56.7086C44.6128 57.0768 44.9218 57.4405 45.2263 57.804C47.7943 60.8946 49.9667 63.8534 50.9667 65.5897C51.2531 66.0852 51.6394 66.5623 52.1076 67.0168C56.607 71.3709 68.5152 73.7252 68.5152 73.7252Z" fill="#EBEBEB"/>
<path d="M43.2676 59.7277L52.0619 34.0625L71.0268 44.7713L69.8303 49.7967C69.8303 49.7967 74.377 46.566 77.0094 47.7627C79.6418 48.9592 80.1203 50.9934 78.8041 52.7881C77.4879 54.5828 73.8984 58.8902 73.8984 58.8902L68.3945 74.4449L57.3865 78.3934L44.823 68.3426L43.2676 59.7277Z" fill="#EBEBEB"/>
<path d="M53.4305 69.8763C53.3857 69.8763 53.343 69.8505 53.3234 69.807C49.2445 60.6744 42.4183 52.5826 34.1029 47.0224C33.6414 46.7136 33.2203 46.448 32.7426 46.3234C32.2105 46.1843 31.6898 46.2693 31.349 46.5496C31.2986 46.5906 31.2254 46.5841 31.184 46.5336C31.143 46.4836 31.1498 46.4099 31.1998 46.3687C31.5982 46.0406 32.1967 45.938 32.8016 46.0968C33.3146 46.2306 33.7537 46.507 34.2336 46.8275C42.5848 52.4121 49.4408 60.5392 53.5377 69.7115C53.5641 69.7705 53.5373 69.8398 53.4783 69.8664C53.4629 69.873 53.4467 69.8763 53.4305 69.8763Z" fill="#403E48"/>
<path d="M55.672 44.8545L42.4284 61.2848C42.4284 61.2848 39.1667 61.1348 36.3972 58.7494C35.1272 57.6574 33.9603 56.0969 33.2573 53.8662L46.8196 37.1172L52.1948 41.8129L55.672 44.8545Z" fill="#90B1F9"/>
<path d="M35.8496 53.0287L45.2223 41.582L52.1223 47.0461L42.7895 58.2934C42.7893 58.2934 39.6385 57.9744 35.8496 53.0287Z" fill="#F0F5FE"/>
<path d="M46.7388 47.498L45.7461 46.707L41.8293 51.6233L42.8221 52.4142L46.7388 47.498Z" fill="#CADAFC"/>
<path d="M46.3497 52.0162L47.1406 51.0234L42.2244 47.1067L41.4335 48.0994L46.3497 52.0162Z" fill="#CADAFC"/>
<path d="M45.8403 36.6966L56.9081 46.1491L57.3532 45.5927C57.5069 45.4007 57.4858 45.1224 57.3052 44.9556L56.8483 44.5339L57.8394 43.0165C58.3642 42.2128 58.1972 41.1425 57.4522 40.537L50.754 35.0919C50.029 34.5025 48.9808 34.537 48.296 35.1728L46.977 36.3974L46.7083 36.1958C46.4745 36.0204 46.1388 36.0997 46.0079 36.3612L45.8403 36.6966Z" fill="white"/>
<path d="M69.8303 49.7925C69.8303 49.7925 74.1377 38.5453 70.1893 38.0667C66.2408 37.5882 55.3525 47.9978 56.6688 51.8267C57.9848 55.6554 66.5996 53.023 69.8303 49.7925Z" fill="#EBEBEB"/>
<path d="M62.4118 32.7631C61.8128 32.7881 60.9462 33.0834 60.7366 33.2017C58.0685 34.7101 55.1927 37.908 54.7698 40.5705C54.5767 41.7865 55.3519 43.0744 56.4364 43.6572C57.4632 44.2094 58.747 44.0863 59.8136 43.6156C62.286 42.5248 65.0187 39.7695 65.7728 37.1375C66.5058 34.5799 65.2835 32.6434 62.4118 32.7631Z" fill="#EBEBEB"/>
<path d="M57.3727 31.4032C56.0229 31.0125 54.5496 31.201 53.2483 31.7309C51.8776 32.2889 50.6239 33.2692 50.0217 34.6209C49.7182 35.3024 49.5981 36.1213 49.9471 36.7807C50.3463 37.535 51.2485 37.8836 52.0979 37.9657C53.7811 38.128 55.4342 37.4928 56.9639 36.7715C57.8436 36.3567 60.3588 35.3235 60.3543 34.151C60.3495 32.8793 58.3928 31.6983 57.3727 31.4032Z" fill="#EBEBEB"/>
<path d="M57.6621 44.0378C57.2947 44.0378 56.9365 43.9974 56.6 43.9036C55.7574 43.6689 55.1603 43.1294 54.8254 42.3005C54.0717 40.4333 54.9465 38.1607 57.4268 35.5456C58.3822 34.5376 60.9371 32.2523 63.9889 32.8087C64.0523 32.8202 64.0947 32.8812 64.0832 32.9449C64.0717 33.0081 64.0123 33.0509 63.9471 33.0392C61.0033 32.5058 58.5266 34.7269 57.5965 35.707C55.1853 38.2493 54.3264 40.4384 55.043 42.2128C55.3488 42.9708 55.8939 43.4638 56.6627 43.6779C58.4687 44.1822 61.0582 43.0265 61.7834 42.4822C61.8353 42.4431 61.9084 42.4536 61.9477 42.5054C61.9865 42.5572 61.9758 42.6306 61.9242 42.6695C61.2834 43.1497 59.3809 44.0378 57.6621 44.0378Z" fill="#403E48"/>
<path d="M59.0013 53.3639C58.4343 53.3639 57.9497 53.2157 57.603 52.8684C56.9034 52.169 56.5618 51.311 56.5878 50.318C56.6425 48.2253 58.3339 45.6647 61.6155 42.7077C67.6384 37.2815 70.4667 38.079 70.5835 38.1165C70.6448 38.1356 70.679 38.2008 70.6603 38.2626C70.6419 38.3241 70.5778 38.3596 70.514 38.3403C70.488 38.3319 67.673 37.5659 61.7724 42.8819C58.5401 45.7942 56.8747 48.2983 56.822 50.3243C56.7982 51.2505 57.1163 52.0508 57.7687 52.7032C59.1534 54.0879 63.4495 51.8182 65.6817 49.7094C67.8015 47.7077 68.7105 46.5055 68.7194 46.4936C68.7587 46.4421 68.8321 46.4319 68.8837 46.4704C68.9353 46.5092 68.946 46.5825 68.9071 46.6342C68.8982 46.6463 67.9794 47.8624 65.8431 49.8797C64.2593 51.3745 61.0778 53.3637 59.0013 53.3639Z" fill="#403E48"/>
<path d="M69.2535 56.3227C69.0043 56.3229 68.7517 56.3059 68.4951 56.2698C67.2252 56.0913 65.9189 55.3887 66.0615 53.9526C66.139 53.1727 66.5709 52.3504 67.3818 51.4381C68.5724 50.0987 70.2859 49.0166 72.6207 48.1297C74.7404 47.3249 76.4164 47.2016 77.6027 47.7651C78.5672 48.2225 78.8254 48.9686 78.8359 49C78.856 49.0616 78.823 49.1274 78.7621 49.1481C78.7006 49.1682 78.6345 49.1358 78.6136 49.0745C78.6111 49.0676 78.3705 48.3854 77.4943 47.9731C76.3847 47.4502 74.7279 47.5805 72.7043 48.3489C70.4054 49.2219 68.7216 50.2833 67.5566 51.5938C66.7798 52.4678 66.367 53.2469 66.2943 53.9756C66.1685 55.2469 67.3654 55.8743 68.5275 56.0377C70.6992 56.3442 72.6103 55.2067 74.4609 54.1081C74.681 53.9774 74.8994 53.8479 75.1162 53.7217C75.1713 53.6897 75.2441 53.7083 75.2761 53.7641C75.3089 53.82 75.2898 53.8918 75.234 53.9243C75.0177 54.0498 74.8002 54.1791 74.5804 54.3094C72.9101 55.3014 71.1894 56.3227 69.2535 56.3227Z" fill="#403E48"/>
<path d="M80.0438 25.088C80.0438 25.088 75.1973 13.8788 69.2632 16.911C60.0958 21.5952 73.8091 41.9551 73.8091 41.9551C73.8091 41.9551 98.7825 33.1389 91.7669 23.8026C87.655 18.3309 80.0438 25.088 80.0438 25.088Z" fill="#F877A0"/>
<path d="M80.0887 27.6397L78.5088 27.1172L75.921 34.9416L77.5009 35.4641L80.0887 27.6397Z" fill="white"/>
<path d="M81.6642 33.3689L82.1865 31.7891L74.3621 29.2021L73.8398 30.7819L81.6642 33.3689Z" fill="white"/>
</svg>
