<svg width="124" height="187" viewBox="0 0 124 187" fill="none" xmlns="http://www.w3.org/2000/svg">
<path d="M105.402 140.039C105.402 140.039 123.403 135.78 124 135.044L109.192 97.3246C107.756 93.4495 105.459 89.9423 102.47 87.0616C99.4816 84.1808 95.8775 81.9998 91.9234 80.6793C86.3079 78.7457 80.3831 77.8407 74.4394 78.0085L49.4437 76.7004C42.561 77.1211 35.843 78.9592 29.7204 82.0968C21.3171 86.4293 14.753 93.5851 11.209 102.277L0 129.964L28.2993 135.811L29.3759 165.561L25.1125 206.608H103.157L102.616 141.548L105.402 140.039Z" fill="#455A64"/>
<g opacity="0.3">
<path opacity="0.3" d="M120.918 130.116C120.918 130.201 116.273 131.71 110.46 133.48C104.646 135.251 99.9583 136.626 99.9337 136.522C99.9091 136.419 104.572 134.928 110.392 133.152C116.212 131.376 120.894 130.031 120.918 130.116Z" fill="white"/>
</g>
<path d="M39.2379 103.603C39.0568 103.402 38.8961 103.184 38.758 102.952C38.475 102.526 38.0382 101.918 37.4723 101.187C36.8102 100.339 36.1017 99.5263 35.3498 98.7539C34.4299 97.8034 33.4519 96.9094 32.4215 96.0771C31.3784 95.2562 30.2876 94.4965 29.1548 93.8017C28.2245 93.2439 27.2655 92.7342 26.2818 92.2747C25.4451 91.8792 24.7499 91.5872 24.2639 91.3986C24.0038 91.318 23.754 91.2077 23.5195 91.0701C23.7877 91.1184 24.0512 91.1897 24.307 91.283C25.0089 91.51 25.6988 91.772 26.3741 92.0678C27.3804 92.5063 28.3602 93.0019 29.3086 93.5523C30.4598 94.24 31.5654 95 32.6184 95.8276C33.6613 96.6698 34.6458 97.5803 35.5652 98.5532C36.3106 99.3507 37.0071 100.192 37.6507 101.072C38.0955 101.657 38.5063 102.266 38.8811 102.897C39.0255 103.119 39.1451 103.355 39.2379 103.603Z" fill="#263238"/>
<path d="M35.5512 112.607C35.6373 112.607 34.7639 121.697 33.6014 132.891C32.4389 144.085 31.424 153.156 31.3379 153.144C31.2518 153.132 32.1191 144.055 33.2877 132.86C34.4564 121.666 35.4835 112.595 35.5512 112.607Z" fill="#263238"/>
<path d="M97.0029 95.8037C96.8365 95.2029 96.703 94.5936 96.6031 93.9786C96.2905 92.5013 95.8795 91.0462 95.3729 89.6225C94.8528 88.2001 94.2363 86.8139 93.5277 85.4734C93.2066 84.9315 92.915 84.373 92.6543 83.8003C92.6543 83.8003 92.7896 83.9281 92.9803 84.1957C93.171 84.4634 93.4293 84.865 93.7307 85.3638C94.5012 86.6874 95.1516 88.0759 95.6744 89.513C96.1961 90.9496 96.5851 92.43 96.8368 93.936C96.9291 94.5139 96.9845 94.9824 97.0091 95.3109C97.0303 95.4747 97.0282 95.6405 97.0029 95.8037Z" fill="#263238"/>
<path d="M98.5804 127.531C98.506 127.237 98.4566 126.938 98.4328 126.637C98.3528 126.065 98.2606 125.225 98.156 124.203C97.953 122.134 97.7377 119.263 97.627 116.093C97.5163 112.924 97.5224 110.04 97.5778 107.959C97.6086 106.919 97.6393 106.079 97.6762 105.526C97.6762 105.223 97.7071 104.922 97.7685 104.625C97.8041 104.924 97.8164 105.225 97.8054 105.526V107.971C97.8054 110.046 97.8362 112.917 97.9469 116.087C98.0576 119.257 98.2359 122.116 98.3836 124.191C98.4512 125.182 98.5066 126.016 98.5558 126.624C98.5938 126.925 98.602 127.229 98.5804 127.531Z" fill="#263238"/>
<path d="M60.7821 122.219C54.2202 122.597 47.6387 122.475 41.0957 121.854V124.397H60.7821V122.219Z" fill="white"/>
<g opacity="0.3">
<path opacity="0.3" d="M80.3947 80.156C80.4366 80.2802 80.4634 80.4088 80.4747 80.5393L80.6469 81.6587C80.77 82.6443 80.9423 84.0922 81.0838 85.9174C81.3791 89.5677 81.6374 94.7693 81.699 100.908V101.139L81.4837 101.042C77.5587 99.1497 73.16 97.0933 68.5644 94.8302L46.1896 83.7576L39.4223 80.3689L37.5767 79.4381L37.1092 79.1826C37.0519 79.1594 36.9981 79.1287 36.9492 79.0913C37.0095 79.1056 37.0674 79.1282 37.1215 79.1582L37.6075 79.3772L39.4531 80.2594L46.2572 83.5568L68.7059 94.5442C73.283 96.8074 77.6755 98.8698 81.6251 100.774L81.4159 100.902C81.3483 94.7754 81.133 89.5798 80.8869 85.9234C80.7761 84.0983 80.6285 82.6564 80.5362 81.6648C80.4808 81.1902 80.4378 80.813 80.407 80.5393C80.3962 80.4118 80.3921 80.2839 80.3947 80.156Z" fill="white"/>
</g>
<g opacity="0.3">
<path opacity="0.3" d="M33.3629 132.708C33.2521 132.706 33.1422 132.688 33.0369 132.653L32.1203 132.44L28.7551 131.595C25.9129 130.871 21.9879 129.891 17.6446 128.851C13.3012 127.811 9.35165 126.91 6.49096 126.265L3.10736 125.499L2.19071 125.28C2.08292 125.258 1.97774 125.226 1.87695 125.182C1.98513 125.168 2.09484 125.168 2.20301 125.182L3.13197 125.347C3.93788 125.493 5.10062 125.724 6.54019 126.016C9.41318 126.624 13.3689 127.47 17.7184 128.51C22.0679 129.551 25.9867 130.573 28.792 131.345C30.207 131.735 31.3512 132.057 32.1325 132.288L33.0369 132.562C33.1507 132.599 33.26 132.648 33.3629 132.708Z" fill="white"/>
</g>
<path d="M76.9316 75.5508C76.9316 75.4596 78.6235 76.3356 80.2538 78.7266C81.8841 81.1175 83.3667 84.8104 84.2095 89.0691C84.597 91.0773 84.8375 93.1105 84.9293 95.1529C84.9293 96.0898 84.9724 96.9781 84.9293 97.8116C84.8863 98.645 84.8739 99.4177 84.8001 100.123C84.7263 100.829 84.6525 101.456 84.591 102.022C84.5294 102.587 84.4187 103.05 84.351 103.439C84.3128 103.857 84.2134 104.267 84.0557 104.656C84.018 104.25 84.0345 103.841 84.105 103.439L84.2341 102.015C84.2711 101.45 84.308 100.799 84.3449 100.123C84.3818 99.4481 84.3449 98.6572 84.4003 97.8359C84.4556 97.0146 84.3572 96.1324 84.3264 95.2138C84.2017 93.2126 83.949 91.2212 83.5697 89.2516C82.9262 85.6702 81.6784 82.2213 79.8785 79.049C79.3002 78.1127 78.6126 77.2469 77.8299 76.4695C77.5138 76.1796 77.214 75.8729 76.9316 75.5508Z" fill="#263238"/>
<path d="M48.958 75.7268C48.5784 76.3705 48.1442 76.9811 47.6599 77.552C46.4864 79.2188 45.514 81.0156 44.7623 82.9057C43.6842 85.721 42.9631 88.6575 42.6153 91.6482C42.1662 95.0186 42.0001 98.7906 41.7232 102.739C41.4464 106.687 41.5079 110.447 41.5018 113.872C41.4956 117.298 41.5018 120.388 41.5018 122.998C41.5018 125.608 41.4341 127.701 41.3602 129.155C41.3673 129.911 41.291 130.666 41.1326 131.406C41.0021 130.661 40.9526 129.904 40.985 129.149C40.9419 127.67 40.8927 125.578 40.825 123.004C40.7573 120.431 40.6712 117.322 40.622 113.878C40.5728 110.435 40.5605 106.663 40.7697 102.684C40.9788 98.7054 41.2372 94.9517 41.7417 91.5265C42.1418 88.474 42.9486 85.4873 44.141 82.6441C44.9623 80.7337 46.0494 78.946 47.3708 77.3329C47.8234 76.7286 48.3574 76.1882 48.958 75.7268Z" fill="#263238"/>
<path d="M90.3232 126.582C90.2233 125.918 90.1821 125.246 90.2002 124.574C90.1633 123.278 90.1325 121.405 90.1079 119.099C90.1079 117.937 90.1079 116.665 90.071 115.315C90.0341 113.964 90.071 112.492 89.991 110.995C89.949 109.445 89.3984 107.95 88.4222 106.737C87.8859 106.121 87.2261 105.623 86.4848 105.273C85.7435 104.924 84.9368 104.73 84.1158 104.705C82.4387 104.709 80.8229 105.329 79.5818 106.444C78.4354 107.504 77.6379 108.879 77.2932 110.393C76.9118 111.841 76.7519 113.295 76.5242 114.652L75.909 118.387C75.5399 120.668 75.2261 122.518 74.9985 123.789C74.9141 124.457 74.7742 125.116 74.5802 125.761C74.5774 125.088 74.6351 124.416 74.7524 123.753C74.9062 122.469 75.1462 120.614 75.4599 118.32C75.6199 117.17 75.7983 115.917 75.9829 114.572C76.1674 113.228 76.3274 111.78 76.7088 110.259C77.0713 108.625 77.9298 107.139 79.1696 106C80.512 104.782 82.2628 104.097 84.0851 104.078C85.0003 104.1 85.9006 104.312 86.7274 104.701C87.5542 105.09 88.2888 105.647 88.8836 106.335C89.9409 107.648 90.5331 109.268 90.5693 110.947C90.6616 112.504 90.5693 113.946 90.5693 115.309C90.5693 116.671 90.5386 117.937 90.5201 119.093C90.5201 121.405 90.4524 123.278 90.4094 124.568C90.4361 125.241 90.4073 125.914 90.3232 126.582Z" fill="#263238"/>
<path d="M84.3865 98.7664C84.1835 100.896 83.4946 103.287 82 104.85C83.3103 104.57 84.6685 104.595 85.9673 104.923C85.0324 103.098 84.8848 100.847 84.9094 98.7846" fill="#263238"/>
<path d="M90.3427 112.607C90.2258 112.607 90.1582 111.585 89.3707 110.174C88.9103 109.365 88.3034 108.648 87.5805 108.057C86.7112 107.334 85.6691 106.844 84.5537 106.633C83.4324 106.45 82.2823 106.564 81.2194 106.961C80.3406 107.28 79.5322 107.763 78.8385 108.385C77.645 109.456 77.2513 110.429 77.1467 110.374C77.0421 110.32 77.3313 109.298 78.5248 108.063C79.22 107.351 80.0583 106.791 80.9856 106.42C82.1417 105.951 83.4065 105.808 84.6399 106.006C85.8658 106.236 87.0055 106.792 87.9373 107.612C88.6971 108.266 89.3127 109.068 89.746 109.967C90.5027 111.524 90.3981 112.613 90.3427 112.607Z" fill="#263238"/>
<path d="M106.804 181.525C110.495 181.525 113.744 178.915 115.466 175.721C117.189 172.527 117.632 168.81 117.798 165.19C118.248 155.591 117.058 145.986 114.279 136.778L98.2344 139.546L102.608 182.31L106.804 181.525Z" fill="#FFBE9D"/>
<path d="M41.8652 186.848L94.145 184.968L106.824 124.385L51.7577 127.409L41.8652 186.848Z" fill="#263238"/>
<path d="M68.7734 126.369L69.5609 124.824L73.732 124.526C73.732 124.526 74.7901 121.818 80.7576 121.538C86.0976 121.295 86.2944 123.972 86.2944 123.972H89.1736V125.268L68.7734 126.369Z" fill="#455A64"/>
<path d="M97.9208 167.325L101.883 166.188C102.628 165.971 103.415 165.936 104.177 166.084C105.107 166.264 105.963 166.711 106.638 167.368C107.949 168.645 110.065 170.756 110.366 171.389C110.809 172.308 110.809 173.902 110.366 174.486C109.923 175.07 111.338 178.094 111.16 179.097C111.067 179.954 110.797 180.782 110.366 181.531C110.01 181.951 110.366 183.387 109.48 184.469C108.971 185.099 108.409 185.685 107.801 186.222C107.801 186.222 96.9119 186.727 95.8538 186.222C94.7956 185.717 92.9316 183.788 92.9316 183.788C92.9316 183.788 91.9595 182.03 93.4606 181.859L87.2656 179.517C86.9057 179.388 86.6109 179.125 86.4433 178.784C86.2757 178.444 86.2485 178.052 86.3674 177.692C86.4116 177.559 86.483 177.436 86.5772 177.332C86.6714 177.227 86.7863 177.143 86.9149 177.084C86.9149 177.084 84.1342 176.214 83.4883 175.934C82.2025 175.374 81.7165 172.417 84.3803 172.795C85.7829 172.995 87.6839 173.403 87.6839 173.403C87.6839 173.403 86.6688 171.772 88.0899 170.799C88.9512 170.191 92.827 170.927 92.827 170.927L97.9208 167.331V167.325Z" fill="#FFBE9D"/>
<path d="M99.2987 183.483C98.2064 183.516 97.117 183.356 96.0819 183.009C95.0122 182.772 94.0031 182.321 93.1172 181.683C93.1602 181.61 94.4581 182.236 96.1926 182.705C97.9271 183.173 99.311 183.41 99.2987 183.483Z" fill="#EB996E"/>
<path d="M96.9318 179.657C95.2266 179.389 93.5398 179.017 91.8809 178.543C90.1952 178.176 88.5349 177.703 86.9102 177.126C90.3 177.766 93.6468 178.611 96.9318 179.657Z" fill="#EB996E"/>
<path d="M98.2346 175.848C94.5877 175.222 90.9806 174.387 87.4316 173.348C91.0786 173.974 94.6856 174.808 98.2346 175.848Z" fill="#EB996E"/>
<path d="M102.252 170.945C101.803 171.14 101.335 171.289 100.856 171.389L99.3176 171.778L98.4071 172.003C98.0655 172.088 97.7128 172.121 97.3613 172.101C97.0166 172.076 96.6748 172.021 96.34 171.937L95.4234 171.73L93.8854 171.365C93.4017 171.276 92.9293 171.135 92.4766 170.945C92.9666 170.958 93.4535 171.026 93.9284 171.146L95.491 171.444C96.1142 171.59 96.7446 171.703 97.3797 171.784C98.0052 171.772 98.626 171.676 99.2253 171.498L100.782 171.17C101.262 171.042 101.755 170.967 102.252 170.945Z" fill="#EB996E"/>
<path d="M102.947 173.007C102.984 173.007 103.132 173.117 103.249 173.409C103.407 173.797 103.422 174.228 103.292 174.626C103.168 175.02 102.912 175.361 102.566 175.593C102.302 175.763 102.105 175.788 102.086 175.751C102.068 175.715 102.701 175.337 102.984 174.534C103.09 174.029 103.077 173.507 102.947 173.007Z" fill="#EB996E"/>
<path d="M102.726 177.169C102.8 177.132 103.046 177.564 103.009 178.154C102.972 178.744 102.689 179.152 102.615 179.103C102.541 179.055 102.664 178.653 102.689 178.136C102.714 177.619 102.634 177.199 102.726 177.169Z" fill="#EB996E"/>
<path d="M102.787 181.683C102.867 181.652 103.033 181.944 102.953 182.328C102.873 182.711 102.615 182.936 102.547 182.857C102.48 182.778 102.584 182.565 102.64 182.249C102.695 181.932 102.701 181.707 102.787 181.683Z" fill="#EB996E"/>
<path d="M103.973 170.695C103.624 170.733 103.272 170.717 102.928 170.647L101.808 170.501C101.37 170.411 100.919 170.388 100.474 170.434C100.049 170.532 99.6474 170.712 99.2927 170.963C98.9482 171.188 98.6776 171.444 98.3639 171.608C98.0729 171.82 97.7229 171.939 97.3613 171.949C97.3613 171.894 97.7365 171.79 98.2409 171.419C98.8546 170.819 99.6058 170.375 100.431 170.123C100.68 170.099 100.931 170.099 101.181 170.123C101.433 170.123 101.636 170.196 101.851 170.233L102.965 170.44C103.311 170.477 103.651 170.563 103.973 170.695Z" fill="#EB996E"/>
<path d="M110.262 181.725C110.336 181.469 110.428 181.219 110.539 180.977C111.044 179.823 111.116 178.528 110.742 177.326C110.619 176.791 110.367 176.256 110.232 175.617C110.151 174.951 110.196 174.276 110.367 173.628C110.439 172.956 110.316 172.278 110.01 171.675C109.7 171.056 109.321 170.474 108.878 169.941C108.454 169.411 108.042 168.894 107.648 168.432C106.952 167.584 106.07 166.904 105.07 166.443C104.391 166.143 103.643 166.03 102.905 166.114C102.388 166.187 102.117 166.321 102.105 166.296C102.093 166.272 102.166 166.248 102.296 166.181C102.493 166.097 102.699 166.033 102.911 165.992C103.675 165.86 104.461 165.942 105.181 166.23C106.229 166.68 107.157 167.368 107.888 168.237C108.318 168.706 108.737 169.217 109.167 169.746C109.628 170.309 110.022 170.921 110.342 171.571C110.675 172.23 110.805 172.97 110.718 173.701C110.555 174.318 110.503 174.958 110.564 175.593C110.681 176.201 110.927 176.742 111.044 177.29C111.18 177.8 111.248 178.326 111.247 178.853C111.217 179.613 111.031 180.358 110.699 181.044C110.585 181.289 110.438 181.518 110.262 181.725Z" fill="#EB996E"/>
<path d="M73.6651 151.775L30.7426 158.516L32.6497 136.364L8.77988 131.802L5.87613 164.599L5.37166 172.119C5.20565 174.624 5.6913 177.129 6.78226 179.395C7.87322 181.661 9.53311 183.614 11.6036 185.065C13.4916 186.389 15.6659 187.259 17.9537 187.605C20.2414 187.952 22.5793 187.765 24.7813 187.061L34.0093 184.086L78.9928 168.268" fill="#FFBE9D"/>
<path d="M99.6382 147.193C99.6679 147.018 99.6583 146.837 99.6099 146.666C99.5616 146.494 99.4756 146.335 99.3583 146.2C99.2409 146.065 99.0949 145.957 98.9307 145.883C98.7665 145.81 98.588 145.773 98.4078 145.776C95.9901 145.776 89.4566 145.776 87.1496 146.451C84.295 147.248 73.6582 151.762 73.6582 151.762L78.1676 168.189L94.4889 168.359C94.4889 168.359 100.45 165.652 100.524 164.477C100.518 163.743 100.469 163.01 100.376 162.281L102.179 161.326C104.861 159.647 103.139 156.416 103.139 156.416C103.139 156.416 104.984 155.394 105.083 153.545C105.128 153.003 105.016 152.46 104.761 151.979C104.506 151.497 104.119 151.097 103.643 150.825C103.643 150.825 104.381 148.221 103.028 147.522C101.674 146.822 99.3367 147.716 99.3367 147.716C99.4923 147.579 99.5982 147.396 99.6382 147.193Z" fill="#FFBE9D"/>
<path d="M100.58 147.461C100.422 147.546 100.252 147.606 100.075 147.638C99.7491 147.729 99.2631 147.832 98.6663 147.936C97.4359 148.149 95.7995 148.325 93.96 148.544C92.3924 148.684 90.835 148.92 89.2968 149.25C88.1217 149.518 87.4512 149.858 87.4512 149.858C87.5852 149.741 87.7367 149.644 87.9003 149.572C88.3345 149.359 88.7875 149.186 89.2537 149.055C90.7893 148.661 92.3552 148.392 93.9354 148.252C95.781 148.057 97.4482 147.918 98.6417 147.765C99.8352 147.613 100.561 147.419 100.58 147.461Z" fill="#EB996E"/>
<path d="M103.649 150.759C103.3 151.013 102.912 151.208 102.499 151.337C101.534 151.705 100.54 151.992 99.5272 152.195C98.3398 152.438 97.2632 152.596 96.4512 152.7C96.0322 152.783 95.6046 152.815 95.1777 152.797C95.1777 152.693 97.0849 152.353 99.4349 151.884C100.435 151.682 101.425 151.43 102.4 151.13C102.805 150.97 103.222 150.845 103.649 150.759Z" fill="#EB996E"/>
<path d="M103.157 156.477C100.91 157.502 98.4704 158.049 95.9961 158.084C95.9961 157.986 97.6203 157.785 99.5889 157.341C101.558 156.897 103.157 156.386 103.157 156.477Z" fill="#EB996E"/>
<path d="M102.184 161.357C100.469 162.219 98.5727 162.671 96.6484 162.677C98.4965 162.248 100.342 161.808 102.184 161.357Z" fill="#EB996E"/>
<path d="M93.6695 158.467C93.6695 158.504 93.5035 158.607 93.1713 158.637C92.7341 158.674 92.298 158.555 91.9412 158.303C91.5821 158.051 91.3232 157.683 91.2093 157.262C91.1293 156.94 91.1724 156.739 91.2093 156.739C91.2462 156.739 91.3815 157.524 92.1196 158.041C92.5941 158.304 93.1258 158.45 93.6695 158.467Z" fill="#EB996E"/>
<path d="M93.3136 163.541C93.3136 163.626 92.6984 163.663 92.1141 163.17C91.5297 162.677 91.4989 162.032 91.6035 162.038C91.7081 162.044 91.8557 162.525 92.3294 162.933C92.803 163.34 93.3136 163.45 93.3136 163.541Z" fill="#EB996E"/>
<path d="M91.4682 153.18C91.5051 153.265 91.0561 153.405 90.6378 153.088C90.2195 152.772 90.2318 152.31 90.3241 152.322C90.4164 152.334 90.5209 152.62 90.8285 152.839C91.136 153.058 91.4251 153.094 91.4682 153.18Z" fill="#EB996E"/>
<path d="M73.6641 151.774L73.7933 151.701L74.1808 151.525L75.6942 150.862C77.0231 150.296 78.9486 149.475 81.391 148.483C82.6214 147.996 83.9502 147.455 85.4267 146.913C86.1853 146.613 86.9671 146.373 87.7645 146.196C88.6236 146.045 89.4902 145.939 90.3606 145.879C92.1447 145.739 94.0518 145.678 96.0082 145.654H97.5031H98.266C98.547 145.64 98.8269 145.699 99.078 145.824C99.3458 145.954 99.5608 146.169 99.6873 146.436C99.8138 146.703 99.8441 147.005 99.7732 147.291C99.7351 147.377 99.6706 147.449 99.5887 147.498L99.4041 147.613L99.035 147.783C98.783 147.89 98.524 147.979 98.2598 148.051C98.2199 148.061 98.1778 148.054 98.1423 148.034C98.1068 148.014 98.0806 147.981 98.0691 147.942C98.0636 147.922 98.062 147.902 98.0646 147.881C98.0672 147.861 98.0739 147.842 98.0842 147.824C98.0945 147.807 98.1083 147.791 98.1247 147.779C98.1412 147.767 98.1599 147.758 98.1798 147.753C98.8465 147.562 99.5245 147.411 100.21 147.303C100.92 147.175 101.646 147.15 102.363 147.23C102.753 147.273 103.122 147.43 103.421 147.68C103.698 147.961 103.881 148.32 103.944 148.708C104.055 149.45 104.006 150.207 103.803 150.929L103.723 150.74C104.075 150.941 104.383 151.21 104.627 151.531C104.932 151.939 105.134 152.413 105.215 152.914C105.297 153.414 105.255 153.927 105.095 154.409C104.756 155.334 104.104 156.114 103.249 156.617L103.311 156.404C103.754 157.272 103.933 158.248 103.827 159.215C103.759 159.687 103.585 160.138 103.319 160.535C103.053 160.933 102.701 161.267 102.289 161.515L100.493 162.47L100.573 162.318C100.616 162.744 100.659 163.169 100.69 163.589C100.69 163.796 100.69 164.009 100.721 164.198C100.721 164.301 100.721 164.411 100.721 164.52C100.704 164.644 100.66 164.762 100.591 164.867C100.332 165.207 100.019 165.503 99.6625 165.743C99.3303 165.986 98.9858 166.205 98.6474 166.412C97.3333 167.18 95.9801 167.881 94.5932 168.511H94.5378L82.6583 168.329L79.3732 168.262L78.5119 168.231C78.4137 168.242 78.3147 168.242 78.2166 168.231C78.3148 168.222 78.4137 168.222 78.5119 168.231H79.3732H82.6583L94.5378 168.298H94.4825C95.8579 167.666 97.1988 166.964 98.4998 166.193C98.832 165.992 99.1703 165.773 99.4902 165.536C99.8159 165.319 100.103 165.049 100.339 164.739C100.386 164.676 100.417 164.603 100.431 164.526V164.228C100.431 164.021 100.431 163.814 100.431 163.62C100.401 163.206 100.358 162.786 100.308 162.366C100.304 162.337 100.31 162.307 100.324 162.28C100.339 162.254 100.361 162.233 100.388 162.22L102.185 161.259C102.559 161.035 102.879 160.732 103.12 160.371C103.361 160.01 103.519 159.601 103.581 159.172C103.672 158.27 103.502 157.36 103.089 156.55C103.072 156.514 103.069 156.472 103.081 156.434C103.094 156.395 103.121 156.363 103.157 156.343C103.95 155.882 104.558 155.164 104.879 154.311C105.023 153.877 105.059 153.415 104.985 152.965C104.911 152.514 104.729 152.087 104.455 151.72C104.24 151.438 103.97 151.202 103.661 151.026C103.63 151.009 103.605 150.981 103.59 150.948C103.576 150.915 103.573 150.879 103.581 150.844C103.769 150.169 103.815 149.462 103.717 148.769C103.679 148.445 103.526 148.144 103.285 147.921C103.044 147.698 102.73 147.567 102.4 147.552C101.715 147.476 101.023 147.501 100.345 147.625C99.672 147.725 99.0061 147.87 98.3521 148.057L98.2721 147.759C98.5197 147.695 98.7623 147.614 98.9981 147.516C99.115 147.467 99.238 147.412 99.3426 147.358C99.4472 147.303 99.5579 147.193 99.5948 147.206C99.6171 146.988 99.5832 146.768 99.4964 146.567C99.3899 146.367 99.2248 146.204 99.0227 146.098C98.8156 145.994 98.5838 145.948 98.3521 145.964H96.1005C94.1318 145.964 92.2432 146.037 90.4652 146.165C89.6055 146.222 88.7493 146.321 87.8998 146.463C87.1143 146.637 86.3431 146.869 85.5928 147.157C84.1225 147.686 82.7752 148.215 81.551 148.69L75.8234 150.984L74.2916 151.592L73.8917 151.75L73.6641 151.774Z" fill="#EB996E"/>
<path d="M30.9124 158.467C29.7475 159.236 28.6835 160.146 27.7448 161.174C26.8903 162.274 26.1794 163.476 25.6289 164.752C25.6588 164.33 25.7673 163.917 25.9487 163.535C26.706 161.653 28.0478 160.057 29.7807 158.978C30.1247 158.743 30.5078 158.57 30.9124 158.467Z" fill="#EB996E"/>
<path d="M86.9652 27.2085C86.5385 21.8372 84.0824 16.8216 80.0856 13.16C76.0889 9.49841 70.8446 7.45921 65.3963 7.44824H64.2705C52.1633 8.12355 45.9744 18.6668 46.9957 30.6215L49.0812 78.5316C49.0976 78.9228 49.2205 79.3023 49.4371 79.63C49.6537 79.9577 49.9559 80.2215 50.3116 80.3933L77.4912 93.0051L76.7037 67.8606C76.7037 67.8606 88.3494 66.0963 88.5155 54.5857C88.5648 49.0312 87.7773 37.5693 86.9652 27.2085Z" fill="#FFBE9D"/>
<path d="M76.7717 67.8181C71.3667 67.8131 66.0771 66.2715 61.5332 63.377C61.5332 63.377 65.1014 71.6631 76.7164 70.6775L76.7717 67.8181Z" fill="#EB996E"/>
<path d="M82.8545 34.3568C82.8563 34.7848 82.6899 35.1967 82.3903 35.5055C82.0908 35.8143 81.6815 35.9958 81.2491 36.0116C81.0375 36.029 80.8245 36.004 80.6228 35.9382C80.4212 35.8724 80.235 35.7671 80.0754 35.6285C79.9158 35.49 79.7861 35.321 79.694 35.1318C79.6018 34.9426 79.5492 34.7369 79.5392 34.5271C79.5341 34.0993 79.6987 33.6864 79.9976 33.3771C80.2965 33.0678 80.706 32.8866 81.1384 32.8723C81.3502 32.8558 81.5631 32.8813 81.7647 32.9474C81.9664 33.0134 82.1526 33.1187 82.3125 33.257C82.4724 33.3953 82.6027 33.5639 82.6958 33.7528C82.7889 33.9416 82.8428 34.147 82.8545 34.3568Z" fill="#263238"/>
<path d="M84.4539 32.8359C84.2447 33.0488 82.9897 32.1241 81.1995 32.1241C79.4092 32.1241 78.1235 33.0123 77.9082 32.7933C77.8097 32.696 78.0189 32.3127 78.591 31.899C79.3671 31.3715 80.2886 31.0932 81.2302 31.102C82.1615 31.0989 83.0692 31.391 83.8203 31.9355C84.3678 32.3492 84.5523 32.7385 84.4539 32.8359Z" fill="#263238"/>
<path d="M65.2607 34.8927C65.2658 35.3216 65.1003 35.7353 64.8001 36.0447C64.4998 36.3542 64.0888 36.5347 63.6553 36.5475C63.4439 36.564 63.2312 36.5385 63.0299 36.4723C62.8286 36.4062 62.6428 36.3008 62.4834 36.1624C62.324 36.024 62.1943 35.8554 62.1018 35.6666C62.0094 35.4778 61.9562 35.2725 61.9454 35.063C61.9419 34.6346 62.1078 34.2218 62.4077 33.9126C62.7076 33.6035 63.1178 33.4225 63.5507 33.4082C63.7622 33.3917 63.9748 33.4172 64.1761 33.4834C64.3774 33.5495 64.5633 33.6549 64.7227 33.7933C64.8821 33.9317 65.0118 34.1002 65.1043 34.2891C65.1967 34.4779 65.2499 34.6832 65.2607 34.8927Z" fill="#263238"/>
<path d="M66.8597 33.1399C66.6567 33.3528 65.3955 32.4342 63.6114 32.4342C61.8273 32.4342 60.5354 33.3163 60.3139 33.0973C60.2217 33 60.4308 32.6167 61.003 32.2091C61.7771 31.6769 62.6995 31.3962 63.6422 31.406C64.5708 31.4076 65.4751 31.6993 66.226 32.2395C66.7859 32.6471 66.9766 33.0365 66.8597 33.1399Z" fill="#263238"/>
<path d="M73.3385 46.257C73.3385 46.1597 74.4395 45.9711 76.2417 45.746C76.6968 45.6973 77.1335 45.6121 77.2073 45.3019C77.2484 44.8357 77.1432 44.3683 76.906 43.9634L75.5651 40.52C73.7198 35.6529 72.3482 31.595 72.5512 31.522C72.7542 31.449 74.3964 35.3609 76.2909 40.2645L77.5764 43.7261C77.8628 44.2706 77.9456 44.8976 77.8101 45.4965C77.7434 45.6561 77.6405 45.7984 77.5093 45.9123C77.3781 46.0263 77.2222 46.1088 77.0536 46.1536C76.8008 46.2216 76.5405 46.2584 76.2786 46.2631C74.4702 46.3544 73.3447 46.3604 73.3385 46.257Z" fill="#263238"/>
<path d="M68.09 47.4739C68.3791 47.4739 68.3791 49.372 70.0398 50.7409C71.7005 52.1097 73.761 51.8968 73.7795 52.1645C73.7795 52.2862 73.3182 52.5417 72.4448 52.56C71.3067 52.5745 70.2001 52.191 69.3202 51.477C68.4782 50.792 67.938 49.8105 67.8132 48.7393C67.721 47.9362 67.9362 47.4617 68.09 47.4739Z" fill="#263238"/>
<path d="M67.3519 26.1984C67.1735 26.679 65.3894 26.4478 63.2916 26.6972C61.1937 26.9467 59.4958 27.5064 59.2128 27.0744C59.0897 26.8676 59.385 26.4113 60.074 25.9489C60.9836 25.371 62.0188 25.0144 63.0947 24.9086C64.1681 24.7818 65.2566 24.9111 66.2691 25.2858C67.0381 25.5961 67.4257 25.9733 67.3519 26.1984Z" fill="#263238"/>
<path d="M83.8069 27.7195C83.487 28.115 82.2568 27.7195 80.7745 27.6769C79.2921 27.6343 78.0435 27.9385 77.7544 27.5187C77.6253 27.318 77.8282 26.9104 78.3695 26.5332C79.1065 26.0807 79.9625 25.8543 80.8294 25.8825C81.6964 25.9106 82.5356 26.1921 83.241 26.6913C83.77 27.105 83.9422 27.5187 83.8069 27.7195Z" fill="#263238"/>
<path d="M48.7358 39.139C48.5389 39.0538 40.7381 36.7846 40.9842 44.657C41.2303 52.5295 49.1603 50.6618 49.1664 50.4367C49.1726 50.2116 48.7358 39.139 48.7358 39.139Z" fill="#FFBE9D"/>
<path d="M47.3451 47.5283C47.3082 47.5283 47.2098 47.6257 46.976 47.7413C46.6516 47.8904 46.2814 47.91 45.9427 47.796C45.0939 47.5101 44.3435 46.2142 44.2636 44.7967C44.2247 44.1239 44.336 43.451 44.5895 42.8255C44.6569 42.577 44.7845 42.3485 44.9614 42.1597C45.1382 41.971 45.359 41.8278 45.6044 41.7426C45.762 41.6971 45.9307 41.7067 46.082 41.7699C46.2332 41.8331 46.3578 41.9459 46.4348 42.0894C46.5455 42.3084 46.5024 42.4666 46.5393 42.4788C46.5762 42.4909 46.7116 42.3449 46.6378 42.0225C46.5839 41.8287 46.4672 41.6577 46.3056 41.5358C46.0828 41.3793 45.8065 41.3159 45.5368 41.3593C45.2118 41.4322 44.9112 41.5862 44.6635 41.8067C44.4159 42.0271 44.2294 42.3067 44.1221 42.6187C43.8045 43.3105 43.663 44.0687 43.71 44.8271C43.8084 46.415 44.6757 47.869 45.832 48.1671C46.043 48.2175 46.2626 48.2213 46.4752 48.1782C46.6879 48.1351 46.8883 48.0462 47.0622 47.9177C47.3328 47.7412 47.3697 47.5405 47.3451 47.5283Z" fill="#EB996E"/>
<path d="M53.9402 15.7527L87.1119 16.4767C85.9831 14.2464 84.3081 12.3306 82.2395 10.9039C77.9268 7.60018 72.6688 5.72853 67.2162 5.55625C61.8086 5.45891 50.7904 11.9808 46.8715 15.6676C43.734 18.6182 43.7586 21.1734 43.7586 21.1734C43.2603 25.4321 45.6657 30.2627 46.6254 34.4422C47.1176 36.5959 48.0712 43.1117 48.0712 43.1117C49.9168 43.1117 50.575 41.6698 50.2982 39.8812L49.9598 32.8665C49.9598 32.8665 56.1734 28.4983 53.2266 20.5042C52.7713 19.8654 51.7624 16.9452 53.9402 15.7527Z" fill="#263238"/>
<path d="M60.9173 40.6367C60.8906 40.6375 60.8639 40.6331 60.8389 40.6237C60.8138 40.6144 60.7909 40.6002 60.7714 40.5821C60.7519 40.5639 60.7362 40.5421 60.7252 40.518C60.7143 40.4938 60.7082 40.4678 60.7074 40.4413C60.6942 40.3887 60.7022 40.3331 60.7299 40.2863C60.7576 40.2395 60.8027 40.2053 60.8556 40.191C60.9111 40.1839 60.9672 40.1984 61.0121 40.2314C61.057 40.2645 61.0872 40.3134 61.0963 40.368C61.1057 40.3974 61.1082 40.4285 61.1039 40.459C61.0996 40.4895 61.0885 40.5187 61.0713 40.5444C61.0542 40.5702 61.0315 40.5918 61.0048 40.6077C60.9782 40.6237 60.9483 40.6336 60.9173 40.6367Z" fill="#EB996E"/>
<path d="M64.3386 39.875C64.2279 39.875 64.1232 39.8081 64.0925 39.6743C64.0766 39.6178 64.0831 39.5575 64.1105 39.5055C64.1379 39.4536 64.1842 39.4139 64.2401 39.3944C64.2995 39.391 64.3579 39.4108 64.4028 39.4495C64.4476 39.4881 64.4754 39.5426 64.4801 39.6013C64.4976 39.6561 64.4926 39.7156 64.4661 39.7668C64.4396 39.8181 64.3938 39.8569 64.3386 39.875Z" fill="#EB996E"/>
<path d="M66.6392 39.8322C66.5285 39.8322 66.4239 39.7166 66.3993 39.5402C66.3747 39.3638 66.4485 39.2117 66.5592 39.1995C66.6699 39.1874 66.7683 39.3151 66.7929 39.4915C66.8176 39.668 66.7437 39.8322 66.6392 39.8322Z" fill="#EB996E"/>
<path d="M62.5921 42.7605C62.4871 42.7605 62.3945 42.7053 62.3945 42.6379C62.3945 42.5705 62.4871 42.5093 62.5921 42.5093C62.6971 42.5093 62.7897 42.5705 62.7897 42.6379C62.7897 42.7053 62.7032 42.7605 62.5921 42.7605Z" fill="#EB996E"/>
<path d="M65.7298 42.0486C65.6709 42.0535 65.6124 42.035 65.5672 41.9972C65.5221 41.9594 65.494 41.9054 65.4891 41.8471C65.4841 41.7888 65.5028 41.731 65.5411 41.6863C65.5793 41.6417 65.6338 41.6138 65.6928 41.609C65.7204 41.6082 65.7478 41.6127 65.7736 41.6224C65.7994 41.6321 65.823 41.6467 65.8431 41.6654C65.8631 41.6842 65.8793 41.7066 65.8906 41.7315C65.9019 41.7564 65.9081 41.7832 65.9089 41.8105C65.9161 41.8654 65.9014 41.9209 65.868 41.9653C65.8346 42.0097 65.785 42.0396 65.7298 42.0486Z" fill="#EB996E"/>
<path d="M82.0378 40.1567C82.0106 40.161 81.9828 40.1598 81.956 40.1532C81.9292 40.1465 81.9041 40.1345 81.8822 40.1179C81.8603 40.1014 81.842 40.0806 81.8284 40.0568C81.8148 40.033 81.8063 40.0068 81.8033 39.9797C81.7898 39.9263 81.7977 39.8698 81.8253 39.822C81.8529 39.7743 81.8981 39.7389 81.9514 39.7232C82.0069 39.7161 82.063 39.7306 82.1079 39.7637C82.1529 39.7967 82.183 39.8457 82.1922 39.9003C82.1995 39.9271 82.2014 39.9552 82.1976 39.9828C82.1938 40.0104 82.1844 40.0369 82.17 40.0609C82.1556 40.0848 82.1364 40.1056 82.1137 40.1221C82.0911 40.1386 82.0652 40.1504 82.0378 40.1567Z" fill="#EB996E"/>
<path d="M84.368 39.9478C84.3184 39.964 84.265 39.9645 84.215 39.9492C84.1651 39.934 84.1212 39.9039 84.0894 39.8629C84.0576 39.822 84.0393 39.7722 84.0373 39.7206C84.0353 39.669 84.0495 39.618 84.078 39.5748C84.1065 39.5315 84.1478 39.498 84.1964 39.479C84.2449 39.4599 84.2983 39.4563 84.349 39.4685C84.3998 39.4808 84.4454 39.5083 84.4796 39.5473C84.5139 39.5863 84.535 39.6348 84.5402 39.6862C84.5513 39.7434 84.5395 39.8026 84.5074 39.8514C84.4753 39.9001 84.4253 39.9347 84.368 39.9478Z" fill="#EB996E"/>
<path d="M79.9825 40.2122C79.9351 40.2237 79.885 40.2168 79.8425 40.1929C79.8001 40.169 79.7685 40.1299 79.7541 40.0835C79.7435 40.0324 79.7537 39.9791 79.7827 39.9354C79.8116 39.8918 79.8569 39.8613 79.9085 39.8507C79.96 39.8402 80.0137 39.8504 80.0577 39.8791C80.1017 39.9078 80.1324 39.9527 80.1431 40.0039C80.1484 40.0524 80.1347 40.1012 80.1048 40.1399C80.0749 40.1787 80.0312 40.2046 79.9825 40.2122Z" fill="#EB996E"/>
<path d="M81.7056 42.5149C81.6655 42.5409 81.6183 42.554 81.5704 42.5526C81.5226 42.5512 81.4763 42.5352 81.4378 42.5069C81.3994 42.4786 81.3707 42.4393 81.3557 42.3944C81.3406 42.3494 81.3398 42.3009 81.3535 42.2555C81.3672 42.2101 81.3946 42.17 81.4321 42.1405C81.4696 42.111 81.5154 42.0937 81.5632 42.0908C81.611 42.0879 81.6586 42.0996 81.6994 42.1243C81.7403 42.149 81.7725 42.1856 81.7917 42.229C81.8181 42.2783 81.8238 42.3359 81.8077 42.3894C81.7916 42.4428 81.7549 42.4879 81.7056 42.5149Z" fill="#EB996E"/>
<path d="M83.6933 42.1278C83.6462 42.1188 83.6045 42.0921 83.5769 42.0533C83.5492 42.0144 83.5379 41.9665 83.5451 41.9195C83.567 41.8793 83.602 41.8477 83.6443 41.8297C83.6866 41.8118 83.7338 41.8086 83.7782 41.8207C83.8226 41.8328 83.8616 41.8594 83.8888 41.8962C83.916 41.9331 83.9298 41.978 83.928 42.0236C83.9101 42.0677 83.8756 42.1032 83.8318 42.1226C83.7881 42.1421 83.7384 42.1439 83.6933 42.1278Z" fill="#EB996E"/>
<path d="M46.6691 16.1055C46.2994 14.6517 46.2756 13.1329 46.5995 11.6685C46.9234 10.2041 47.5862 8.83389 48.5359 7.66546C49.4855 6.49704 50.6961 5.56223 52.0726 4.93446C53.4491 4.30668 54.954 4.00302 56.4692 4.04733C58.0195 4.10817 59.5452 4.54012 61.0956 4.37586C63.9685 4.06558 66.1833 1.79023 68.8471 0.682978C70.9498 -0.127613 73.2664 -0.2194 75.428 0.422223C77.5896 1.06385 79.472 2.40201 80.7758 4.22376C81.7848 5.7143 82.443 7.5577 83.9933 8.48244C85.3283 9.29159 87.014 9.22467 88.5151 9.6992C91.5542 10.5996 93.6336 13.7936 93.4736 16.9268C93.3451 18.4958 92.7831 19.9997 91.8489 21.2743C90.9148 22.5489 89.6445 23.5452 88.1767 24.1544C86.7001 24.7373 85.11 24.9853 83.5236 24.88C81.9372 24.7747 80.3949 24.3188 79.0102 23.546C76.5063 22.165 74.267 19.8166 71.4002 19.8957C68.4349 19.9809 65.8634 22.7429 62.935 22.171C61.4093 21.8729 60.2343 20.7109 59.1146 19.6402C57.9949 18.5694 56.7153 17.4804 55.1588 17.3892C53.6024 17.2979 52.7965 19.409 53.3563 20.8448L46.6691 16.1055Z" fill="#263238"/>
<path d="M86.4842 12.3092C86.4682 12.3488 86.4497 12.3874 86.4288 12.4248C86.3714 12.5337 86.3077 12.6394 86.2381 12.7411C85.9688 13.1377 85.6483 13.4976 85.2845 13.8119C84.7063 14.3116 84.0357 14.6959 83.3097 14.9435C82.3416 15.2707 81.3018 15.3317 80.3014 15.1199C79.0806 14.8654 77.9708 14.2401 77.127 13.3313C76.2226 12.3518 75.6812 11.0316 74.8384 9.87566C74.4259 9.27792 73.8755 8.78578 73.2327 8.43988C72.5489 8.10527 71.793 7.94032 71.0303 7.95926C70.2397 7.98264 69.4659 8.19114 68.7725 8.56764C68.0666 8.96264 67.4901 9.54963 67.1115 10.2589C66.7116 10.9829 66.4224 11.7738 65.9426 12.4735C65.7148 12.8373 65.4032 13.1427 65.0333 13.3648C64.6633 13.5868 64.2455 13.7192 63.814 13.7511C62.9941 13.7634 62.1891 13.5347 61.5008 13.094C60.8531 12.6916 60.2615 12.2068 59.7413 11.6521C58.714 10.6301 57.705 9.60797 56.45 9.3342C55.8706 9.22308 55.2739 9.23447 54.6992 9.36764C54.1245 9.5008 53.5848 9.75272 53.1156 10.1068C52.3149 10.6826 51.679 11.4541 51.27 12.3457C50.957 13.0201 50.7257 13.7287 50.581 14.4568C50.4579 15.0652 50.4026 15.5275 50.3657 15.85C50.3523 16.0157 50.3277 16.1803 50.2918 16.3428C50.2855 16.3004 50.2855 16.2574 50.2918 16.215C50.2918 16.1298 50.2918 16.0082 50.2918 15.8439C50.3175 15.3705 50.373 14.8991 50.458 14.4324C50.571 13.6899 50.7777 12.9644 51.0732 12.2727C51.4719 11.3448 52.108 10.5355 52.9188 9.92433C53.4112 9.54257 53.9806 9.26957 54.5886 9.1237C55.1967 8.97783 55.8293 8.96247 56.4439 9.07868C57.8035 9.36462 58.8555 10.4354 59.8767 11.4453C60.3853 11.9772 60.96 12.4432 61.5869 12.8324C62.2241 13.24 62.9691 13.4517 63.7278 13.4408C64.1101 13.4084 64.4793 13.2882 64.8062 13.0896C65.1331 12.891 65.4084 12.6196 65.6104 12.297C66.0595 11.64 66.3486 10.8552 66.7608 10.1068C67.1675 9.34078 67.7891 8.70705 68.551 8.2817C69.2906 7.88381 70.1149 7.66489 70.9565 7.6429C71.7711 7.62634 72.5777 7.8059 73.3065 8.1661C73.9892 8.53662 74.5733 9.06206 75.0107 9.69923C75.8781 10.916 76.3949 12.2058 77.2562 13.1548C78.0585 14.0308 79.1162 14.6388 80.2829 14.8948C81.2446 15.1142 82.2485 15.07 83.1867 14.7671C83.8982 14.5414 84.56 14.1842 85.1369 13.7146C85.6466 13.3068 86.0996 12.8343 86.4842 12.3092Z" fill="#455A64"/>
<path d="M92.4957 12.4551C92.5757 12.6487 92.6215 12.8545 92.631 13.0635C92.6792 13.6546 92.623 14.2496 92.4649 14.8217C92.2289 15.6713 91.8091 16.4601 91.2345 17.1335C90.5173 17.9526 89.6211 18.5997 88.6137 19.0256C86.7809 19.7635 84.7776 19.9867 82.8247 19.6705C82.2404 19.589 81.6612 19.4753 81.0898 19.3298C80.8752 19.2924 80.6678 19.2226 80.4746 19.1229C80.4746 19.0743 81.379 19.2933 82.8554 19.4454C84.7625 19.6904 86.7012 19.4452 88.4846 18.7336C89.4496 18.3275 90.3127 17.7169 91.013 16.9449C91.5711 16.3063 91.9899 15.5607 92.2434 14.7548C92.4563 14.0074 92.5415 13.2302 92.4957 12.4551Z" fill="#455A64"/>
<path d="M35.8789 139.187C36.0057 140.43 36.488 141.612 37.2693 142.594C37.9829 143.513 39.4286 144.419 40.5913 144.34C41.4674 144.384 42.3401 144.203 43.124 143.814C43.908 143.424 44.5764 142.841 45.0639 142.119C46.485 139.893 46.8295 135.251 45.6791 132.507C44.8978 130.621 43.1383 128.857 41.0774 128.814C38.3705 128.753 36.6725 130.688 36.0942 132.647" fill="#E0E0E0"/>
<path d="M36.0997 132.647C36.1899 132.184 36.3606 131.739 36.6042 131.333C36.8699 130.843 37.2125 130.397 37.6192 130.013C38.1582 129.498 38.8144 129.118 39.5326 128.906C39.9498 128.78 40.3823 128.71 40.8183 128.699C41.2953 128.673 41.773 128.735 42.2271 128.881C43.2202 129.227 44.093 129.845 44.7433 130.664C45.4711 131.549 45.977 132.591 46.2198 133.706C46.4803 134.89 46.5735 136.104 46.4966 137.313C46.3674 139.218 45.9922 141.116 44.9217 142.564C44.3952 143.247 43.6885 143.773 42.8793 144.085C42.1472 144.375 41.3602 144.506 40.5722 144.468C39.9935 144.472 39.4227 144.334 38.9112 144.067C38.4631 143.835 38.0491 143.545 37.6808 143.203C37.0978 142.634 36.6355 141.955 36.3212 141.207C36.1162 140.734 35.9715 140.237 35.8905 139.729C35.8697 139.596 35.8574 139.462 35.8536 139.327C35.8431 139.281 35.8431 139.233 35.8536 139.187C35.9725 139.864 36.1793 140.522 36.4688 141.146C36.7997 141.86 37.263 142.506 37.8346 143.051C38.206 143.372 38.6199 143.642 39.065 143.854C39.5401 144.096 40.0683 144.219 40.603 144.213C41.3824 144.251 42.1598 144.105 42.8712 143.788C43.5825 143.471 44.2073 142.991 44.6941 142.387C45.6845 141.031 46.066 139.163 46.189 137.301C46.3182 134.868 45.9122 132.471 44.528 130.852C43.9147 130.074 43.0946 129.48 42.1594 129.137C41.7332 128.997 41.2855 128.933 40.8368 128.948C40.4205 128.952 40.0066 129.011 39.6064 129.125C38.9174 129.318 38.2848 129.67 37.7608 130.153C37.3512 130.512 36.9986 130.931 36.7149 131.394C36.4858 131.8 36.2804 132.218 36.0997 132.647Z" fill="#263238"/>
<path d="M34.4395 139.309C34.5672 140.552 35.0494 141.734 35.8298 142.716C36.5435 143.635 37.9892 144.541 39.1519 144.462C40.028 144.506 40.9007 144.325 41.6846 143.936C42.4686 143.546 43.1369 142.963 43.6244 142.242C45.0394 140.009 45.3901 135.373 44.2396 132.629C43.4583 130.737 41.705 128.979 39.6441 128.936C38.4992 128.927 37.3845 129.299 36.4803 129.993C35.576 130.688 34.935 131.664 34.6609 132.763" fill="#E0E0E0"/>
<path d="M34.6719 132.763C34.7629 132.302 34.9336 131.859 35.1764 131.455C35.44 130.963 35.7829 130.517 36.1915 130.135C37.0512 129.312 38.1944 128.842 39.3905 128.821C39.8675 128.795 40.3452 128.857 40.7994 129.003C41.7933 129.347 42.6666 129.966 43.3155 130.786C44.0433 131.67 44.5492 132.713 44.792 133.828C45.0535 135.012 45.1446 136.226 45.0627 137.435C44.9397 139.34 44.5644 141.232 43.4939 142.686C42.9674 143.369 42.2607 143.895 41.4515 144.207C40.7194 144.497 39.9324 144.628 39.1445 144.59C38.5652 144.592 37.9944 144.452 37.4834 144.182C37.0333 143.957 36.6188 143.668 36.253 143.324C35.6685 142.754 35.2061 142.074 34.8934 141.323C34.685 140.853 34.5402 140.358 34.4628 139.851C34.442 139.718 34.4296 139.584 34.4259 139.449C34.4153 139.403 34.4153 139.355 34.4259 139.309C34.5453 139.984 34.7521 140.64 35.0411 141.262C35.368 141.98 35.8317 142.628 36.4068 143.172C36.7782 143.494 37.1921 143.764 37.6372 143.975C38.1134 144.215 38.6409 144.338 39.1752 144.334C39.9546 144.373 40.7321 144.227 41.4434 143.91C42.1547 143.592 42.7796 143.112 43.2663 142.509C44.2568 141.146 44.6382 139.285 44.7551 137.423C44.8904 134.99 44.4844 132.593 43.094 130.974C42.4862 130.193 41.6671 129.599 40.7317 129.259C40.3055 129.119 39.8577 129.055 39.409 129.07C38.9928 129.075 38.5791 129.134 38.1786 129.246C37.4899 129.44 36.8575 129.793 36.333 130.275C35.9273 130.637 35.5789 131.057 35.2995 131.522C35.0687 131.925 34.8593 132.339 34.6719 132.763Z" fill="#263238"/>
<path d="M37.0477 132.081C36.3653 131.997 35.6735 132.135 35.0773 132.474C34.4812 132.813 34.0131 133.335 33.7441 133.961C33.2363 135.238 33.2363 136.657 33.7441 137.934C33.9582 138.594 34.308 139.203 34.7715 139.723C35.2476 140.243 35.9095 140.559 36.6171 140.605C37.1332 140.58 37.6356 140.432 38.0813 140.174C38.527 139.915 38.9027 139.554 39.1764 139.12C39.6524 138.45 39.9764 137.686 40.1261 136.881C40.2758 136.076 40.2477 135.248 40.0438 134.454C39.7608 133.396 38.9795 132.319 37.8783 132.288" fill="#E0E0E0"/>
<path d="M37.8534 132.306C37.8534 132.306 37.9334 132.306 38.0933 132.306C38.3305 132.333 38.5592 132.41 38.7639 132.531C39.1285 132.769 39.4411 133.077 39.6831 133.436C39.9251 133.796 40.0916 134.2 40.1727 134.624C40.4667 135.873 40.3325 137.182 39.7913 138.347C39.4794 139.042 39.0075 139.654 38.4132 140.136C38.0912 140.41 37.7079 140.604 37.295 140.703C36.8821 140.801 36.4514 140.801 36.0386 140.702C35.2321 140.446 34.5531 139.898 34.1376 139.169C33.7602 138.514 33.4941 137.803 33.3501 137.064C33.1963 136.446 33.1715 135.803 33.2773 135.176C33.383 134.548 33.6172 133.948 33.9653 133.413C34.2152 133.059 34.5335 132.757 34.9021 132.525C35.2706 132.294 35.682 132.136 36.1124 132.063C36.3449 132.029 36.5812 132.029 36.8137 132.063C36.9675 132.093 37.0475 132.118 37.0475 132.13C36.7409 132.119 36.4339 132.138 36.1308 132.184C35.3203 132.372 34.6122 132.857 34.1499 133.541C33.8325 134.059 33.6238 134.634 33.536 135.233C33.4483 135.832 33.4834 136.442 33.6393 137.027C33.7853 137.731 34.045 138.407 34.4083 139.029C34.7834 139.688 35.3963 140.184 36.1247 140.416C36.4883 140.504 36.8679 140.505 37.2318 140.418C37.5958 140.331 37.9333 140.159 38.2164 139.917C38.7764 139.469 39.223 138.899 39.5206 138.25C40.0517 137.144 40.2029 135.896 39.9513 134.697C39.8187 133.888 39.3786 133.159 38.7208 132.659C38.4558 132.49 38.1618 132.371 37.8534 132.306Z" fill="#263238"/>
<path d="M40.1473 142.083C40.1042 142.083 40.0366 141.889 39.8213 141.645C39.5421 141.332 39.1799 141.102 38.7756 140.982C38.3543 140.866 37.9209 140.799 37.484 140.781C37.1395 140.781 36.9242 140.726 36.9181 140.684C36.9119 140.641 37.1272 140.593 37.4778 140.556C37.9448 140.507 38.417 140.548 38.8679 140.678C39.3378 140.812 39.7423 141.11 40.0058 141.517C40.2026 141.834 40.1842 142.077 40.1473 142.083Z" fill="#263238"/>
<path d="M40.633 131.254C40.633 131.254 40.5407 131.467 40.2516 131.692C39.8712 131.98 39.4258 132.172 38.9538 132.252C38.485 132.337 38.0024 132.312 37.5452 132.179C37.1947 132.063 37.0102 131.929 37.0286 131.893C37.6391 131.986 38.2592 132.003 38.8738 131.941C39.4866 131.785 40.0774 131.554 40.633 131.254Z" fill="#263238"/>
</svg>
