<svg width="168" height="182" viewBox="0 0 168 182" fill="none" xmlns="http://www.w3.org/2000/svg">
<path d="M141.403 161.994H114.718C111.507 163.058 109.171 177.005 108.058 183.655L108 184H19C19.5 179.5 19.9559 167.952 22.679 154.412C25.402 140.873 23.7682 130.041 21.5898 124.625C19.4113 119.209 12.3314 112.169 9.0638 105.128C5.79616 98.0875 -2.37297 85.631 2.5285 45.0122C13.4207 14.1419 47.7309 2.22632 69.5152 1.14315C91.2995 0.0599839 115.807 4.93425 130.511 22.2649C145.216 39.5957 145.216 53.6768 145.216 55.3016C145.216 56.9264 145.216 58.0095 143.582 61.8006C144.126 64.5085 167 91.0462 167 95.3789C167 99.7115 158.286 102.419 156.108 102.961C153.929 103.503 152.84 104.586 152.84 106.211C152.84 107.835 153.929 110.002 153.929 111.085C153.929 112.168 157.197 114.876 157.197 117.042C157.197 119.209 152.84 120.833 152.84 122.458C152.84 124.083 156.652 126.249 156.108 127.874C155.563 129.499 151.751 131.665 151.206 135.998C150.662 140.33 155.019 145.205 154.474 151.162C153.929 157.119 145.216 161.994 141.403 161.994Z" fill="#F9F9FA"/>
<path d="M141.403 161.994H114.718C111.507 163.058 109.171 177.005 108.058 183.655L108 184H19C19.5 179.5 19.9559 167.952 22.679 154.412C25.402 140.873 23.7682 130.041 21.5898 124.625C19.4113 119.209 12.3314 112.169 9.0638 105.128C5.79616 98.0875 -2.37297 85.631 2.5285 45.0122C13.4207 14.1419 47.7309 2.22632 69.5152 1.14315C91.2995 0.0599839 115.807 4.93425 130.511 22.2649C145.216 39.5957 145.216 53.6768 145.216 55.3016C145.216 56.9264 145.216 58.0095 143.582 61.8006C144.126 64.5085 167 91.0462 167 95.3789C167 99.7115 158.286 102.419 156.108 102.961C153.929 103.503 152.84 104.586 152.84 106.211C152.84 107.835 153.929 110.002 153.929 111.085C153.929 112.168 157.197 114.876 157.197 117.042C157.197 119.209 152.84 120.833 152.84 122.458C152.84 124.083 156.652 126.249 156.108 127.874C155.563 129.499 151.751 131.665 151.206 135.998C150.662 140.33 155.019 145.205 154.474 151.162C153.929 157.119 145.216 161.994 141.403 161.994Z" stroke="#E1E0E6" stroke-width="2" stroke-linecap="round" stroke-dasharray="4 8"/>
</svg>
