<svg width="141" height="182" viewBox="0 0 141 182" fill="none" xmlns="http://www.w3.org/2000/svg">
<path d="M29.5 183.96C30.2987 179.359 29.7876 167.498 29.4548 164.348C26.4595 161.472 18.9714 152.845 18.9714 149.147C18.9714 146.189 17.973 130.328 17.4738 126.768C16.4964 126.678 15.637 126.647 14.8702 126.619C12.1121 126.52 10.5497 126.463 8.9873 123.892C6.99048 120.605 5.49286 111.977 4.99365 108.691C4.77541 107.254 3.98473 105.581 3.16382 103.845C2.10696 101.609 1 99.268 1 97.1869C1 93.4893 3.49603 89.3809 4.99365 89.3809H9.48651C6.99048 83.6291 3.99524 72.1255 4.99365 56.9244C5.99206 41.7232 8.4881 28.1654 19.9698 17.8943C31.4516 7.62324 47.2562 1.04975 71.3881 1.04975C71.3922 1.19651 71.3842 0.884455 71.3881 1.04975C95.52 1.04975 109.917 8.3639 121.03 18.3051C132.512 28.5762 135.008 42.134 136.006 57.3352C137.005 72.5364 134.01 84.04 131.513 89.7918H136.006C137.504 89.7918 140 93.9002 140 97.5978C140 99.6789 138.893 102.02 137.836 104.256C137.015 105.992 136.225 107.664 136.006 109.101C135.507 112.388 134.01 121.016 132.013 124.303C130.45 126.874 128.888 126.931 126.13 127.03C125.363 127.058 124.504 127.089 123.526 127.178C123.027 130.739 122.029 142.6 122.029 145.558C122.029 149.256 114.54 161.883 111.545 164.759C111.212 167.909 110.746 179.359 111.545 183.96H70C70.0004 188.098 69.9996 187.824 70 183.96H29.5Z" fill="#F9F9FA"/>
<path d="M71.3881 1.04975C47.2562 1.04975 31.4516 7.62324 19.9698 17.8943C8.4881 28.1654 5.99206 41.7232 4.99365 56.9244C3.99524 72.1255 6.99048 83.6291 9.48651 89.3809H4.99365C3.49603 89.3809 1 93.4893 1 97.1869C1 99.268 2.10696 101.609 3.16382 103.845C3.98473 105.581 4.77541 107.254 4.99365 108.691C5.49286 111.977 6.99048 120.605 8.9873 123.892C10.5497 126.463 12.1121 126.52 14.8702 126.619C15.637 126.647 16.4964 126.678 17.4738 126.768C17.973 130.328 18.9714 146.189 18.9714 149.147C18.9714 152.845 26.4595 161.472 29.4548 164.348C29.7876 167.498 30.2987 179.359 29.5 183.96H70M71.3881 1.04975C71.3842 0.884455 71.3922 1.19651 71.3881 1.04975ZM71.3881 1.04975C95.52 1.04975 109.917 8.3639 121.03 18.3051C132.512 28.5762 135.008 42.134 136.006 57.3352C137.005 72.5364 134.01 84.04 131.513 89.7918H136.006C137.504 89.7918 140 93.9002 140 97.5978C140 99.6789 138.893 102.02 137.836 104.256C137.015 105.992 136.225 107.664 136.006 109.101C135.507 112.388 134.01 121.016 132.013 124.303C130.45 126.874 128.888 126.931 126.13 127.03C125.363 127.058 124.504 127.089 123.526 127.178C123.027 130.739 122.029 142.6 122.029 145.558C122.029 149.256 114.54 161.883 111.545 164.759C111.212 167.909 110.746 179.359 111.545 183.96H70M70 183.96C69.9996 187.824 70.0004 188.098 70 183.96Z" stroke="#E1E0E6" stroke-width="2" stroke-linecap="round" stroke-dasharray="4 8"/>
</svg>
