<svg width="168" height="182" viewBox="0 0 168 182" fill="none" xmlns="http://www.w3.org/2000/svg">
<path d="M26.5965 161.994H53.2823C56.4933 163.058 58.8287 177.005 59.9422 183.655L60 184H149C148.5 179.5 148.044 167.952 145.321 154.412C142.598 140.873 144.232 130.041 146.41 124.625C148.589 119.209 155.669 112.169 158.936 105.128C162.204 98.0875 170.373 85.631 165.471 45.0122C154.579 14.1419 120.269 2.22632 98.4848 1.14315C76.7005 0.0599839 52.1931 4.93425 37.4887 22.2649C22.7843 39.5957 22.7843 53.6768 22.7843 55.3016C22.7843 56.9264 22.7843 58.0095 24.4181 61.8006C23.8735 64.5085 1 91.0462 1 95.3789C1 99.7115 9.71372 102.419 11.8922 102.961C14.0706 103.503 15.1598 104.586 15.1598 106.211C15.1598 107.835 14.0706 110.002 14.0706 111.085C14.0706 112.168 10.8029 114.876 10.8029 117.042C10.8029 119.209 15.1599 120.833 15.1599 122.458C15.1599 124.083 11.3476 126.249 11.8922 127.874C12.4368 129.499 16.249 131.665 16.7936 135.998C17.3382 140.33 12.9813 145.205 13.5259 151.162C14.0705 157.119 22.7843 161.994 26.5965 161.994Z" fill="#F9F9FA"/>
<path d="M26.5965 161.994H53.2823C56.4933 163.058 58.8287 177.005 59.9422 183.655L60 184H149C148.5 179.5 148.044 167.952 145.321 154.412C142.598 140.873 144.232 130.041 146.41 124.625C148.589 119.209 155.669 112.169 158.936 105.128C162.204 98.0875 170.373 85.631 165.471 45.0122C154.579 14.1419 120.269 2.22632 98.4848 1.14315C76.7005 0.0599839 52.1931 4.93425 37.4887 22.2649C22.7843 39.5957 22.7843 53.6768 22.7843 55.3016C22.7843 56.9264 22.7843 58.0095 24.4181 61.8006C23.8735 64.5085 1 91.0462 1 95.3789C1 99.7115 9.71372 102.419 11.8922 102.961C14.0706 103.503 15.1598 104.586 15.1598 106.211C15.1598 107.835 14.0706 110.002 14.0706 111.085C14.0706 112.168 10.8029 114.876 10.8029 117.042C10.8029 119.209 15.1599 120.833 15.1599 122.458C15.1599 124.083 11.3476 126.249 11.8922 127.874C12.4368 129.499 16.249 131.665 16.7936 135.998C17.3382 140.33 12.9813 145.205 13.5259 151.162C14.0705 157.119 22.7843 161.994 26.5965 161.994Z" stroke="#E1E0E6" stroke-width="2" stroke-linecap="round" stroke-dasharray="4 8"/>
</svg>
