<svg width="204" height="241" viewBox="0 0 204 241" fill="none" xmlns="http://www.w3.org/2000/svg">
<g filter="url(#filter0_d_2891_39160)">
<g clip-path="url(#clip0_2891_39160)">
<rect x="2" y="1" width="200" height="200" rx="12" fill="white"/>
<path d="M159.403 180.994H132.718C129.507 182.058 127.171 196.005 126.058 202.655L126 203H37C37.5 198.5 37.9559 186.952 40.679 173.412C43.402 159.873 41.7682 149.041 39.5898 143.625C37.4113 138.209 30.3314 131.169 27.0638 124.128C23.7962 117.087 15.627 104.631 20.5285 64.0122C31.4207 33.1419 65.7309 21.2263 87.5152 20.1432C109.3 19.06 133.807 23.9342 148.511 41.2649C163.216 58.5957 163.216 72.6768 163.216 74.3016C163.216 75.9264 163.216 77.0095 161.582 80.8006C162.126 83.5085 185 110.046 185 114.379C185 118.712 176.286 121.419 174.108 121.961C171.929 122.503 170.84 123.586 170.84 125.211C170.84 126.835 171.929 129.002 171.929 130.085C171.929 131.168 175.197 133.876 175.197 136.042C175.197 138.209 170.84 139.833 170.84 141.458C170.84 143.083 174.652 145.249 174.108 146.874C173.563 148.499 169.751 150.665 169.206 154.998C168.662 159.33 173.019 164.205 172.474 170.162C171.929 176.119 163.216 180.994 159.403 180.994Z" fill="#F9F9FA"/>
<path d="M159.403 180.994H132.718C129.507 182.058 127.171 196.005 126.058 202.655L126 203H37C37.5 198.5 37.9559 186.952 40.679 173.412C43.402 159.873 41.7682 149.041 39.5898 143.625C37.4113 138.209 30.3314 131.169 27.0638 124.128C23.7962 117.087 15.627 104.631 20.5285 64.0122C31.4207 33.1419 65.7309 21.2263 87.5152 20.1432C109.3 19.06 133.807 23.9342 148.511 41.2649C163.216 58.5957 163.216 72.6768 163.216 74.3016C163.216 75.9264 163.216 77.0095 161.582 80.8006C162.126 83.5085 185 110.046 185 114.379C185 118.712 176.286 121.419 174.108 121.961C171.929 122.503 170.84 123.586 170.84 125.211C170.84 126.835 171.929 129.002 171.929 130.085C171.929 131.168 175.197 133.876 175.197 136.042C175.197 138.209 170.84 139.833 170.84 141.458C170.84 143.083 174.652 145.249 174.108 146.874C173.563 148.499 169.751 150.665 169.206 154.998C168.662 159.33 173.019 164.205 172.474 170.162C171.929 176.119 163.216 180.994 159.403 180.994Z" stroke="#E1E0E6" stroke-width="2" stroke-linecap="round" stroke-dasharray="4 8"/>
</g>
<rect x="2.5" y="1.5" width="199" height="199" rx="11.5" stroke="#E1E0E6"/>
<rect x="100" y="161" width="90" height="28" rx="6" fill="#403E48"/>
<path d="M117.428 179L115.052 175.736C116 175.364 116.576 174.548 116.576 173.504C116.576 172.076 115.484 171.08 113.888 171.08H110.996V179H112.268V175.94H113.72L115.976 179H117.428ZM112.268 172.208H113.864C114.74 172.208 115.268 172.736 115.268 173.516C115.268 174.284 114.74 174.812 113.864 174.812H112.268V172.208ZM118.482 179H119.742V173.108H118.482V179ZM118.254 170.912C118.254 171.38 118.638 171.74 119.118 171.74C119.586 171.74 119.97 171.38 119.97 170.912C119.97 170.444 119.586 170.072 119.118 170.072C118.638 170.072 118.254 170.444 118.254 170.912ZM126.184 173.108V173.948C125.752 173.336 124.996 172.976 124.096 172.976C122.464 172.976 121.228 174.212 121.228 175.928C121.228 177.644 122.452 178.88 124.096 178.88C124.912 178.88 125.644 178.58 126.088 178.04V178.46C126.088 179.564 125.392 180.14 124.324 180.14C123.52 180.14 122.92 179.828 122.26 179.3L121.564 180.176C122.272 180.836 123.232 181.292 124.396 181.292C126.184 181.292 127.348 180.248 127.348 178.388V173.108H126.184ZM126.1 175.916C126.1 176.516 125.92 176.972 125.572 177.296C125.224 177.62 124.816 177.776 124.324 177.776C123.808 177.776 123.388 177.608 123.04 177.272C122.692 176.924 122.524 176.48 122.524 175.928C122.524 175.388 122.692 174.944 123.04 174.608C123.388 174.272 123.808 174.104 124.324 174.104C125.296 174.104 126.1 174.716 126.1 175.916ZM134.318 175.316C134.318 173.924 133.478 172.976 132.134 172.976C131.426 172.976 130.826 173.228 130.43 173.696V170H129.17V179H130.43V175.496C130.43 174.692 130.994 174.128 131.774 174.128C132.554 174.128 133.058 174.68 133.058 175.496V179H134.318V175.316ZM139.576 177.932C139.228 177.968 138.976 177.992 138.796 177.992C138.028 177.992 137.632 177.728 137.632 176.972V174.2H139.384V173.108H137.632V171.56H136.36V173.108H135.4V174.2H136.36V177.08C136.36 178.46 137.176 179.132 138.532 179.132C138.832 179.132 139.18 179.084 139.576 179V177.932ZM150.337 176.048C150.337 174.308 149.113 172.976 147.445 172.976C146.581 172.976 145.825 173.324 145.393 173.936V173.108H144.217V181.16H145.477V178.28C145.945 178.82 146.641 179.132 147.445 179.132C149.113 179.132 150.337 177.812 150.337 176.048ZM149.041 176.06C149.041 177.188 148.249 177.98 147.241 177.98C146.317 177.98 145.465 177.344 145.465 176.048C145.465 174.764 146.317 174.128 147.241 174.128C148.261 174.128 149.041 174.932 149.041 176.06ZM155.159 173.108C155.015 173.072 154.859 173.048 154.679 173.048C154.007 173.048 153.383 173.348 152.963 173.876V173.108H151.787V179H153.047V175.856C153.047 174.812 153.779 174.224 154.775 174.224H155.159V173.108ZM155.798 176.048C155.762 177.716 157.214 179.168 158.906 179.132C160.622 179.168 162.074 177.716 162.038 176.048C162.074 174.38 160.622 172.94 158.906 172.976C157.214 172.952 155.762 174.356 155.798 176.048ZM160.742 176.06C160.742 177.128 159.95 177.968 158.906 177.968C157.874 177.968 157.082 177.152 157.082 176.06C157.082 174.968 157.874 174.128 158.918 174.128C159.938 174.128 160.742 174.968 160.742 176.06ZM164.958 172.028C164.958 171.272 165.342 171.008 166.11 171.008C166.254 171.008 166.422 171.02 166.614 171.044V169.976C166.386 169.904 166.122 169.868 165.798 169.868C164.502 169.868 163.698 170.54 163.698 171.92V173.108H162.858V174.2H163.698V179H164.958V174.2H166.35V173.108H164.958V172.028ZM167.526 179H168.786V173.108H167.526V179ZM167.298 170.912C167.298 171.38 167.682 171.74 168.162 171.74C168.63 171.74 169.014 171.38 169.014 170.912C169.014 170.444 168.63 170.072 168.162 170.072C167.682 170.072 167.298 170.444 167.298 170.912ZM170.619 179H171.879V170H170.619V179ZM179.005 176.468C179.065 176.192 179.101 175.928 179.101 175.676C179.101 174.14 177.937 172.976 176.377 172.976C174.709 172.94 173.293 174.368 173.329 176.06C173.329 177.8 174.697 179.132 176.497 179.132C177.397 179.132 178.177 178.82 178.849 178.184L178.249 177.32C177.721 177.788 177.145 178.016 176.533 178.016C175.525 178.016 174.769 177.428 174.613 176.468H179.005ZM174.637 175.484C174.829 174.608 175.501 174.044 176.329 174.044C177.157 174.044 177.829 174.584 177.841 175.484H174.637Z" fill="white"/>
<g clip-path="url(#clip1_2891_39160)">
<path d="M106.5 69.9878H111.25C114.687 69.9878 117.5 68.1622 117.5 64.7628C117.5 61.3634 114.187 59.6709 111.5 59.5378C110.944 54.2215 107.062 50.9878 102.5 50.9878C98.1875 50.9878 95.41 53.8497 94.5 56.6878C90.75 57.044 87.5 59.4303 87.5 63.3378C87.5 67.2453 90.875 69.9878 95 69.9878H98.5" stroke="#A09DB1" stroke-width="1.5" stroke-linecap="round" stroke-linejoin="round"/>
<path d="M106.5 62.9866L102.5 58.9866L98.5 62.9866" stroke="#A09DB1" stroke-width="1.5" stroke-linecap="round" stroke-linejoin="round"/>
<path d="M102.5 75.014V59.9878" stroke="#A09DB1" stroke-width="1.5" stroke-linecap="round" stroke-linejoin="round"/>
</g>
<path d="M50.978 98.38C50.922 101.026 53.204 103.196 55.836 103.154C57.558 103.154 59.014 102.328 59.798 101.026L58.678 100.2C58.02 101.222 57.068 101.796 55.85 101.796C53.96 101.796 52.518 100.34 52.518 98.38C52.518 96.42 53.96 94.964 55.85 94.964C57.068 94.964 58.02 95.538 58.678 96.56L59.798 95.734C59 94.432 57.53 93.606 55.836 93.606C53.204 93.564 50.922 95.734 50.978 98.38ZM67.4811 98.702C67.4811 97.078 66.5011 95.972 64.9331 95.972C64.1071 95.972 63.4071 96.266 62.9451 96.812V92.5H61.4751V103H62.9451V98.912C62.9451 97.974 63.6031 97.316 64.5131 97.316C65.4231 97.316 66.0111 97.96 66.0111 98.912V103H67.4811V98.702ZM69.0939 99.556C69.0519 101.502 70.7459 103.196 72.7199 103.154C74.7219 103.196 76.4159 101.502 76.3739 99.556C76.4159 97.61 74.7219 95.93 72.7199 95.972C70.7459 95.944 69.0519 97.582 69.0939 99.556ZM74.8619 99.57C74.8619 100.816 73.9379 101.796 72.7199 101.796C71.5159 101.796 70.5919 100.844 70.5919 99.57C70.5919 98.296 71.5159 97.316 72.7339 97.316C73.9239 97.316 74.8619 98.296 74.8619 99.57ZM77.6251 99.556C77.5831 101.502 79.2771 103.196 81.2511 103.154C83.2531 103.196 84.9471 101.502 84.9051 99.556C84.9471 97.61 83.2531 95.93 81.2511 95.972C79.2771 95.944 77.5831 97.582 77.6251 99.556ZM83.3931 99.57C83.3931 100.816 82.4691 101.796 81.2511 101.796C80.0471 101.796 79.1231 100.844 79.1231 99.57C79.1231 98.296 80.0471 97.316 81.2651 97.316C82.4551 97.316 83.3931 98.296 83.3931 99.57ZM85.9464 101.824C86.5624 102.622 87.5424 103.154 88.7184 103.154C89.4464 103.154 90.0484 102.972 90.5384 102.608C91.0284 102.23 91.2664 101.712 91.2664 101.054C91.2664 100.088 90.6924 99.528 89.3904 98.982L88.7324 98.716C88.0604 98.436 87.8224 98.254 87.8224 97.904C87.8224 97.47 88.1864 97.246 88.7604 97.246C89.3624 97.246 89.9364 97.498 90.3704 97.946L91.1684 97.036C90.5664 96.322 89.7824 95.972 88.7884 95.972C87.3884 95.972 86.3664 96.728 86.3664 97.96C86.3664 98.926 86.9404 99.458 88.1584 99.962L88.8584 100.256C89.5304 100.536 89.8244 100.704 89.8244 101.11C89.8244 101.614 89.3484 101.88 88.7184 101.88C87.9904 101.88 87.3884 101.53 86.7864 100.9L85.9464 101.824ZM99.1495 100.046C99.2195 99.724 99.2615 99.416 99.2615 99.122C99.2615 97.33 97.9035 95.972 96.0835 95.972C94.1375 95.93 92.4855 97.596 92.5275 99.57C92.5275 101.6 94.1235 103.154 96.2235 103.154C97.2735 103.154 98.1835 102.79 98.9675 102.048L98.2675 101.04C97.6515 101.586 96.9795 101.852 96.2655 101.852C95.0895 101.852 94.2075 101.166 94.0255 100.046H99.1495ZM94.0535 98.898C94.2775 97.876 95.0615 97.218 96.0275 97.218C96.9935 97.218 97.7775 97.848 97.7915 98.898H94.0535ZM110.33 98.842C110.33 96.994 109.21 95.972 107.516 95.972C106.326 95.972 105.304 96.448 104.618 97.442L105.472 98.31C106.046 97.624 106.606 97.288 107.376 97.288C108.314 97.288 108.846 97.806 108.846 98.758V99.206H106.9C105.346 99.206 104.366 99.976 104.366 101.166C104.366 102.356 105.318 103.154 106.76 103.154C107.698 103.154 108.454 102.832 108.958 102.23V103H110.33V98.842ZM108.846 100.396C108.846 101.334 108.062 102.02 107.068 102.02C106.354 102.02 105.864 101.684 105.864 101.11C105.864 100.55 106.298 100.27 107.082 100.27H108.846V100.396ZM123.439 99.556C123.439 97.526 122.011 95.972 120.065 95.972C119.057 95.972 118.175 96.378 117.671 97.092V96.126H116.299V105.52H117.769V102.16C118.315 102.79 119.127 103.154 120.065 103.154C122.011 103.154 123.439 101.614 123.439 99.556ZM121.927 99.57C121.927 100.886 121.003 101.81 119.827 101.81C118.749 101.81 117.755 101.068 117.755 99.556C117.755 98.058 118.749 97.316 119.827 97.316C121.017 97.316 121.927 98.254 121.927 99.57ZM131.137 98.702C131.137 97.078 130.157 95.972 128.589 95.972C127.763 95.972 127.063 96.266 126.601 96.812V92.5H125.131V103H126.601V98.912C126.601 97.974 127.259 97.316 128.169 97.316C129.079 97.316 129.667 97.96 129.667 98.912V103H131.137V98.702ZM132.75 99.556C132.708 101.502 134.402 103.196 136.376 103.154C138.378 103.196 140.072 101.502 140.03 99.556C140.072 97.61 138.378 95.93 136.376 95.972C134.402 95.944 132.708 97.582 132.75 99.556ZM138.518 99.57C138.518 100.816 137.594 101.796 136.376 101.796C135.172 101.796 134.248 100.844 134.248 99.57C134.248 98.296 135.172 97.316 136.39 97.316C137.58 97.316 138.518 98.296 138.518 99.57ZM145.803 101.754C145.397 101.796 145.103 101.824 144.893 101.824C143.997 101.824 143.535 101.516 143.535 100.634V97.4H145.579V96.126H143.535V94.32H142.051V96.126H140.931V97.4H142.051V100.76C142.051 102.37 143.003 103.154 144.585 103.154C144.935 103.154 145.341 103.098 145.803 103V101.754ZM146.723 99.556C146.681 101.502 148.375 103.196 150.349 103.154C152.351 103.196 154.045 101.502 154.003 99.556C154.045 97.61 152.351 95.93 150.349 95.972C148.375 95.944 146.681 97.582 146.723 99.556ZM152.491 99.57C152.491 100.816 151.567 101.796 150.349 101.796C149.145 101.796 148.221 100.844 148.221 99.57C148.221 98.296 149.145 97.316 150.363 97.316C151.553 97.316 152.491 98.296 152.491 99.57Z" fill="#403E48"/>
<path d="M56.6404 121.584C56.6124 123.502 58.2504 125.182 60.1964 125.14C62.1424 125.182 63.8224 123.502 63.7804 121.584C63.8224 119.638 62.1564 118 60.2104 118.028C58.2644 117.986 56.5984 119.638 56.6404 121.584ZM62.6744 121.598C62.6744 123.026 61.5824 124.146 60.1964 124.146C58.8104 124.146 57.7464 123.026 57.7464 121.598C57.7464 120.128 58.8104 119.022 60.2104 119.022C61.5964 119.022 62.6744 120.128 62.6744 121.598ZM69.3014 118.182C69.1194 118.14 68.9514 118.126 68.7974 118.126C67.9714 118.126 67.1734 118.49 66.6834 119.148V118.182H65.6754V125H66.7534V121.136C66.7534 119.876 67.7474 119.134 68.8954 119.134H69.3014V118.182ZM80.0754 114.5V119.19C79.5294 118.462 78.5774 118.028 77.5554 118.028C75.6374 118.028 74.1814 119.596 74.1814 121.598C74.1814 123.6 75.6374 125.154 77.5554 125.154C78.6194 125.154 79.6134 124.692 80.1314 123.922V125H81.1534V114.5H80.0754ZM80.0894 121.598C80.0894 123.32 78.9414 124.16 77.7094 124.16C76.3234 124.16 75.2874 123.054 75.2874 121.584C75.2874 120.114 76.3234 119.022 77.7094 119.022C78.9414 119.022 80.0894 119.862 80.0894 121.598ZM87.1431 118.182C86.9611 118.14 86.7931 118.126 86.6391 118.126C85.8131 118.126 85.0151 118.49 84.5251 119.148V118.182H83.5171V125H84.5951V121.136C84.5951 119.876 85.5891 119.134 86.7371 119.134H87.1431V118.182ZM93.5627 120.8C93.5627 119.008 92.5127 118.028 90.9027 118.028C89.7687 118.028 88.7467 118.518 88.1307 119.526L88.8447 120.114C89.4047 119.386 90.0067 119.022 90.8327 119.022C91.8547 119.022 92.4847 119.624 92.4847 120.744V121.332H90.3287C88.8587 121.332 87.8787 122.074 87.8787 123.236C87.8787 124.412 88.8587 125.154 90.2587 125.154C91.2527 125.154 92.0507 124.79 92.5547 124.118V125H93.5627V120.8ZM92.4847 122.382C92.4847 123.432 91.5187 124.258 90.3987 124.258C89.6007 124.258 88.9847 123.866 88.9847 123.18C88.9847 122.55 89.5027 122.214 90.4547 122.214H92.4847V122.382ZM101.379 118.182V119.274C100.861 118.49 99.8672 118.028 98.7892 118.028C96.8712 118.028 95.4432 119.526 95.4432 121.486C95.4432 123.46 96.8712 124.93 98.7892 124.93C99.8112 124.93 100.777 124.51 101.323 123.796V124.398C101.323 125.868 100.469 126.68 99.0552 126.68C98.0332 126.68 97.2772 126.274 96.5072 125.602L95.8772 126.358C96.6472 127.128 97.7532 127.674 99.0832 127.674C101.099 127.674 102.401 126.414 102.401 124.342V118.182H101.379ZM101.337 121.486C101.337 123.138 100.203 123.936 98.9572 123.936C97.5712 123.936 96.5352 122.942 96.5352 121.5C96.5352 120.072 97.5712 119.05 98.9572 119.05C100.189 119.05 101.337 119.848 101.337 121.486ZM108.687 125H109.765V118.182H108.687V125ZM108.421 115.578C108.421 116.026 108.785 116.362 109.233 116.362C109.681 116.362 110.031 116.026 110.031 115.578C110.031 115.144 109.667 114.794 109.233 114.794C108.785 114.794 108.421 115.144 108.421 115.578ZM115.856 124.09C115.506 124.146 115.212 124.174 114.946 124.174C114.008 124.174 113.504 123.838 113.504 122.872V119.148H115.632V118.182H113.504V116.32H112.426V118.182H111.278V119.148H112.426V122.942C112.426 124.44 113.308 125.154 114.722 125.154C115.044 125.154 115.422 125.098 115.856 125V124.09ZM127.03 120.716C127.03 119.106 126.078 118.028 124.51 118.028C123.656 118.028 122.928 118.378 122.466 118.952V114.5H121.388V125H122.466V120.856C122.466 119.792 123.208 119.022 124.258 119.022C125.308 119.022 125.952 119.75 125.952 120.856V125H127.03V120.716ZM135.338 121.92C135.394 121.64 135.422 121.374 135.422 121.108C135.422 119.302 134.078 118.028 132.314 118.028C130.368 118.028 128.828 119.624 128.828 121.598C128.828 123.6 130.41 125.154 132.44 125.154C133.518 125.154 134.456 124.706 135.17 123.964L134.54 123.236C133.924 123.852 133.224 124.16 132.454 124.16C131.11 124.16 130.074 123.264 129.948 121.92H135.338ZM129.99 120.968C130.228 119.792 131.152 119.008 132.286 119.008C133.42 119.008 134.302 119.75 134.316 120.968H129.99ZM140.942 118.182C140.76 118.14 140.592 118.126 140.438 118.126C139.612 118.126 138.814 118.49 138.324 119.148V118.182H137.316V125H138.394V121.136C138.394 119.876 139.388 119.134 140.536 119.134H140.942V118.182ZM148.272 121.92C148.328 121.64 148.356 121.374 148.356 121.108C148.356 119.302 147.012 118.028 145.248 118.028C143.302 118.028 141.762 119.624 141.762 121.598C141.762 123.6 143.344 125.154 145.374 125.154C146.452 125.154 147.39 124.706 148.104 123.964L147.474 123.236C146.858 123.852 146.158 124.16 145.388 124.16C144.044 124.16 143.008 123.264 142.882 121.92H148.272ZM142.924 120.968C143.162 119.792 144.086 119.008 145.22 119.008C146.354 119.008 147.236 119.75 147.25 120.968H142.924Z" fill="#6C6A7C"/>
</g>
<path d="M6.016 234H7.264V224.56H10.992V223.44H2.304V224.56H6.016V234ZM19.1049 229.104C19.1049 227.264 18.0169 226.032 16.2249 226.032C15.2489 226.032 14.4169 226.432 13.8889 227.088V222H12.6569V234H13.8889V229.264C13.8889 228.048 14.7369 227.168 15.9369 227.168C17.1369 227.168 17.8729 228 17.8729 229.264V234H19.1049V229.104ZM28.5994 230.48C28.6634 230.16 28.6954 229.856 28.6954 229.552C28.6954 227.488 27.1594 226.032 25.1434 226.032C22.9194 226.032 21.1594 227.856 21.1594 230.112C21.1594 232.4 22.9674 234.176 25.2874 234.176C26.5194 234.176 27.5914 233.664 28.4074 232.816L27.6874 231.984C26.9834 232.688 26.1834 233.04 25.3034 233.04C23.7674 233.04 22.5834 232.016 22.4394 230.48H28.5994ZM22.4874 229.392C22.7594 228.048 23.8154 227.152 25.1114 227.152C26.4074 227.152 27.4154 228 27.4314 229.392H22.4874ZM39.4884 226.208C39.2804 226.16 39.0884 226.144 38.9124 226.144C37.9684 226.144 37.0564 226.56 36.4964 227.312V226.208H35.3444V234H36.5764V229.584C36.5764 228.144 37.7124 227.296 39.0244 227.296H39.4884V226.208ZM41.1413 234H42.3733V226.208H41.1413V234ZM40.8372 223.232C40.8372 223.744 41.2533 224.128 41.7653 224.128C42.2773 224.128 42.6773 223.744 42.6773 223.232C42.6773 222.736 42.2613 222.336 41.7653 222.336C41.2533 222.336 40.8372 222.736 40.8372 223.232ZM51.3988 226.208V227.456C50.8068 226.56 49.6708 226.032 48.4388 226.032C46.2468 226.032 44.6148 227.744 44.6148 229.984C44.6148 232.24 46.2468 233.92 48.4388 233.92C49.6068 233.92 50.7108 233.44 51.3348 232.624V233.312C51.3348 234.992 50.3588 235.92 48.7428 235.92C47.5748 235.92 46.7108 235.456 45.8307 234.688L45.1108 235.552C45.9908 236.432 47.2548 237.056 48.7748 237.056C51.0788 237.056 52.5668 235.616 52.5668 233.248V226.208H51.3988ZM51.3508 229.984C51.3508 231.872 50.0548 232.784 48.6308 232.784C47.0468 232.784 45.8628 231.648 45.8628 230C45.8628 228.368 47.0468 227.2 48.6308 227.2C50.0388 227.2 51.3508 228.112 51.3508 229.984ZM61.7143 229.104C61.7143 227.264 60.6263 226.032 58.8343 226.032C57.8583 226.032 57.0263 226.432 56.4983 227.088V222H55.2663V234H56.4983V229.264C56.4983 228.048 57.3463 227.168 58.5463 227.168C59.7463 227.168 60.4823 228 60.4823 229.264V234H61.7143V229.104ZM68.5848 232.96C68.1848 233.024 67.8488 233.056 67.5448 233.056C66.4728 233.056 65.8968 232.672 65.8968 231.568V227.312H68.3288V226.208H65.8968V224.08H64.6648V226.208H63.3528V227.312H64.6648V231.648C64.6648 233.36 65.6728 234.176 67.2888 234.176C67.6568 234.176 68.0888 234.112 68.5848 234V232.96ZM74.1709 232.656C74.8589 233.552 75.9149 234.176 77.2109 234.176C77.9789 234.176 78.6189 233.984 79.1469 233.584C79.6749 233.184 79.9469 232.608 79.9469 231.888C79.9469 230.816 79.3389 230.208 77.8829 229.584L77.1629 229.28C76.2189 228.88 75.8989 228.64 75.8989 228.144C75.8989 227.52 76.4269 227.168 77.1949 227.168C77.9149 227.168 78.5869 227.504 79.1149 228.032L79.8669 227.264C79.2269 226.496 78.3469 226.032 77.2589 226.032C75.7709 226.032 74.6349 226.848 74.6349 228.208C74.6349 229.248 75.2749 229.84 76.5709 230.368L77.3229 230.688C78.2829 231.072 78.6829 231.312 78.6829 231.936C78.6829 232.624 78.0429 233.04 77.1949 233.04C76.3149 233.04 75.7069 232.608 74.9549 231.84L74.1709 232.656ZM82.1725 234H83.4045V226.208H82.1725V234ZM81.8685 223.232C81.8685 223.744 82.2845 224.128 82.7965 224.128C83.3085 224.128 83.7085 223.744 83.7085 223.232C83.7085 222.736 83.2925 222.336 82.7965 222.336C82.2845 222.336 81.8685 222.736 81.8685 223.232ZM92.286 222V227.36C91.662 226.528 90.574 226.032 89.406 226.032C87.214 226.032 85.55 227.824 85.55 230.112C85.55 232.4 87.214 234.176 89.406 234.176C90.622 234.176 91.758 233.648 92.35 232.768V234H93.518V222H92.286ZM92.302 230.112C92.302 232.08 90.99 233.04 89.582 233.04C87.998 233.04 86.814 231.776 86.814 230.096C86.814 228.416 87.998 227.168 89.582 227.168C90.99 227.168 92.302 228.128 92.302 230.112ZM103.099 230.48C103.163 230.16 103.195 229.856 103.195 229.552C103.195 227.488 101.659 226.032 99.6434 226.032C97.4194 226.032 95.6594 227.856 95.6594 230.112C95.6594 232.4 97.4674 234.176 99.7874 234.176C101.019 234.176 102.091 233.664 102.907 232.816L102.187 231.984C101.483 232.688 100.683 233.04 99.8034 233.04C98.2674 233.04 97.0834 232.016 96.9394 230.48H103.099ZM96.9874 229.392C97.2594 228.048 98.3154 227.152 99.6114 227.152C100.907 227.152 101.915 228 101.931 229.392H96.9874ZM109.284 230.096C109.252 232.288 111.124 234.208 113.348 234.16C115.572 234.208 117.492 232.288 117.444 230.096C117.492 227.872 115.588 226 113.364 226.032C111.14 225.984 109.236 227.872 109.284 230.096ZM116.18 230.112C116.18 231.744 114.932 233.024 113.348 233.024C111.764 233.024 110.548 231.744 110.548 230.112C110.548 228.432 111.764 227.168 113.364 227.168C114.948 227.168 116.18 228.432 116.18 230.112ZM121.034 224.432C121.034 223.328 121.626 222.944 122.666 222.944C122.874 222.944 123.098 222.96 123.354 222.992V221.952C123.05 221.872 122.714 221.824 122.378 221.824C120.794 221.824 119.802 222.64 119.802 224.352V226.208H118.682V227.312H119.802V234H121.034V227.312H122.986V226.208H121.034V224.432ZM133.99 226.208L131.414 232.416L128.838 226.208H127.51L130.742 233.76L130.326 234.688C129.926 235.632 129.382 235.936 128.566 235.936C128.342 235.936 128.022 235.904 127.622 235.856V236.896C128.022 237.008 128.422 237.056 128.822 237.056C130.022 237.056 130.87 236.448 131.462 235.088L135.302 226.208H133.99ZM136.206 230.096C136.174 232.288 138.046 234.208 140.27 234.16C142.494 234.208 144.414 232.288 144.366 230.096C144.414 227.872 142.51 226 140.286 226.032C138.062 225.984 136.158 227.872 136.206 230.096ZM143.102 230.112C143.102 231.744 141.854 233.024 140.27 233.024C138.686 233.024 137.47 231.744 137.47 230.112C137.47 228.432 138.686 227.168 140.286 227.168C141.87 227.168 143.102 228.432 143.102 230.112ZM146.436 230.896C146.436 232.864 147.844 234.176 149.668 234.176C151.476 234.176 152.884 232.864 152.884 230.896V226.208H151.652V230.976C151.652 232.208 150.804 233.04 149.668 233.04C148.516 233.04 147.652 232.24 147.652 230.976V226.208H146.436V230.896ZM159.629 226.208C159.421 226.16 159.229 226.144 159.053 226.144C158.109 226.144 157.197 226.56 156.637 227.312V226.208H155.485V234H156.717V229.584C156.717 228.144 157.853 227.296 159.165 227.296H159.629V226.208ZM167.19 224.432C167.19 223.328 167.782 222.944 168.822 222.944C169.03 222.944 169.254 222.96 169.51 222.992V221.952C169.206 221.872 168.87 221.824 168.534 221.824C166.95 221.824 165.958 222.64 165.958 224.352V226.208H164.838V227.312H165.958V234H167.19V227.312H169.142V226.208H167.19V224.432ZM176.45 229.2C176.45 227.152 175.25 226.032 173.41 226.032C172.114 226.032 170.946 226.592 170.242 227.744L171.058 228.416C171.698 227.584 172.386 227.168 173.33 227.168C174.498 227.168 175.218 227.856 175.218 229.136V229.808H172.754C171.074 229.808 169.954 230.656 169.954 231.984C169.954 233.328 171.074 234.176 172.674 234.176C173.81 234.176 174.722 233.76 175.298 232.992V234H176.45V229.2ZM175.218 231.008C175.218 232.208 174.114 233.152 172.834 233.152C171.922 233.152 171.218 232.704 171.218 231.92C171.218 231.2 171.81 230.816 172.898 230.816H175.218V231.008ZM178.503 230.096C178.503 232.352 180.327 234.176 182.583 234.176C183.943 234.176 185.079 233.52 185.783 232.48L184.903 231.792C184.279 232.624 183.511 233.04 182.599 233.04C180.983 233.04 179.767 231.728 179.767 230.096C179.767 228.48 180.983 227.168 182.599 227.168C183.511 227.168 184.295 227.584 184.919 228.432L185.799 227.728C185.095 226.688 183.943 226.032 182.583 226.032C180.359 226 178.455 227.872 178.503 230.096ZM194.599 230.48C194.663 230.16 194.695 229.856 194.695 229.552C194.695 227.488 193.159 226.032 191.143 226.032C188.919 226.032 187.159 227.856 187.159 230.112C187.159 232.4 188.967 234.176 191.287 234.176C192.519 234.176 193.591 233.664 194.407 232.816L193.687 231.984C192.983 232.688 192.183 233.04 191.303 233.04C189.767 233.04 188.583 232.016 188.439 230.48H194.599ZM188.487 229.392C188.759 228.048 189.815 227.152 191.111 227.152C192.407 227.152 193.415 228 193.431 229.392H188.487Z" fill="#6C6A7C"/>
<defs>
<filter id="filter0_d_2891_39160" x="0" y="0" width="204" height="204" filterUnits="userSpaceOnUse" color-interpolation-filters="sRGB">
<feFlood flood-opacity="0" result="BackgroundImageFix"/>
<feColorMatrix in="SourceAlpha" type="matrix" values="0 0 0 0 0 0 0 0 0 0 0 0 0 0 0 0 0 0 127 0" result="hardAlpha"/>
<feOffset dy="1"/>
<feGaussianBlur stdDeviation="1"/>
<feColorMatrix type="matrix" values="0 0 0 0 0.192157 0 0 0 0 0.2 0 0 0 0 0.215686 0 0 0 0.05 0"/>
<feBlend mode="normal" in2="BackgroundImageFix" result="effect1_dropShadow_2891_39160"/>
<feBlend mode="normal" in="SourceGraphic" in2="effect1_dropShadow_2891_39160" result="shape"/>
</filter>
<clipPath id="clip0_2891_39160">
<rect x="2" y="1" width="200" height="200" rx="12" fill="white"/>
</clipPath>
<clipPath id="clip1_2891_39160">
<rect width="32" height="32" fill="white" transform="translate(86.5 47)"/>
</clipPath>
</defs>
</svg>
