<svg width="204" height="204" viewBox="0 0 204 204" fill="none" xmlns="http://www.w3.org/2000/svg">
<g filter="url(#filter0_d_2891_39131)">
<g clip-path="url(#clip0_2891_39131)">
<rect x="2" y="1" width="200" height="200" rx="12" fill="white"/>
<path d="M44.5965 180.994H71.2823C74.4933 182.058 76.8287 196.005 77.9422 202.655L78 203H167C166.5 198.5 166.044 186.952 163.321 173.412C160.598 159.873 162.232 149.041 164.41 143.625C166.589 138.209 173.669 131.169 176.936 124.128C180.204 117.087 188.373 104.631 183.471 64.0122C172.579 33.1419 138.269 21.2263 116.485 20.1432C94.7005 19.06 70.1931 23.9342 55.4887 41.2649C40.7843 58.5957 40.7843 72.6768 40.7843 74.3016C40.7843 75.9264 40.7843 77.0095 42.4181 80.8006C41.8735 83.5085 19 110.046 19 114.379C19 118.712 27.7137 121.419 29.8922 121.961C32.0706 122.503 33.1598 123.586 33.1598 125.211C33.1598 126.835 32.0706 129.002 32.0706 130.085C32.0706 131.168 28.8029 133.876 28.8029 136.042C28.8029 138.209 33.1599 139.833 33.1599 141.458C33.1599 143.083 29.3476 145.249 29.8922 146.874C30.4368 148.499 34.249 150.665 34.7936 154.998C35.3382 159.33 30.9813 164.205 31.5259 170.162C32.0705 176.119 40.7843 180.994 44.5965 180.994Z" fill="#F9F9FA"/>
<path d="M44.5965 180.994H71.2823C74.4933 182.058 76.8287 196.005 77.9422 202.655L78 203H167C166.5 198.5 166.044 186.952 163.321 173.412C160.598 159.873 162.232 149.041 164.41 143.625C166.589 138.209 173.669 131.169 176.936 124.128C180.204 117.087 188.373 104.631 183.471 64.0122C172.579 33.1419 138.269 21.2263 116.485 20.1432C94.7005 19.06 70.1931 23.9342 55.4887 41.2649C40.7843 58.5957 40.7843 72.6768 40.7843 74.3016C40.7843 75.9264 40.7843 77.0095 42.4181 80.8006C41.8735 83.5085 19 110.046 19 114.379C19 118.712 27.7137 121.419 29.8922 121.961C32.0706 122.503 33.1598 123.586 33.1598 125.211C33.1598 126.835 32.0706 129.002 32.0706 130.085C32.0706 131.168 28.8029 133.876 28.8029 136.042C28.8029 138.209 33.1599 139.833 33.1599 141.458C33.1599 143.083 29.3476 145.249 29.8922 146.874C30.4368 148.499 34.249 150.665 34.7936 154.998C35.3382 159.33 30.9813 164.205 31.5259 170.162C32.0705 176.119 40.7843 180.994 44.5965 180.994Z" stroke="#E1E0E6" stroke-width="2" stroke-linecap="round" stroke-dasharray="4 8"/>
</g>
<rect x="2.5" y="1.5" width="199" height="199" rx="11.5" stroke="#E1E0E6"/>
<rect x="108" y="161" width="82" height="28" rx="6" fill="#403E48"/>
<path d="M118.996 179H123.892V177.86H120.268V171.08H118.996V179ZM130.345 176.468C130.405 176.192 130.441 175.928 130.441 175.676C130.441 174.14 129.277 172.976 127.717 172.976C126.049 172.94 124.633 174.368 124.669 176.06C124.669 177.8 126.037 179.132 127.837 179.132C128.737 179.132 129.517 178.82 130.189 178.184L129.589 177.32C129.061 177.788 128.485 178.016 127.873 178.016C126.865 178.016 126.109 177.428 125.953 176.468H130.345ZM125.977 175.484C126.169 174.608 126.841 174.044 127.669 174.044C128.497 174.044 129.169 174.584 129.181 175.484H125.977ZM133.361 172.028C133.361 171.272 133.745 171.008 134.513 171.008C134.657 171.008 134.825 171.02 135.017 171.044V169.976C134.789 169.904 134.525 169.868 134.201 169.868C132.905 169.868 132.101 170.54 132.101 171.92V173.108H131.261V174.2H132.101V179H133.361V174.2H134.753V173.108H133.361V172.028ZM138.951 177.932C138.603 177.968 138.351 177.992 138.171 177.992C137.403 177.992 137.007 177.728 137.007 176.972V174.2H138.759V173.108H137.007V171.56H135.735V173.108H134.775V174.2H135.735V177.08C135.735 178.46 136.551 179.132 137.907 179.132C138.207 179.132 138.555 179.084 138.951 179V177.932ZM149.712 176.048C149.712 174.308 148.488 172.976 146.82 172.976C145.956 172.976 145.2 173.324 144.768 173.936V173.108H143.592V181.16H144.852V178.28C145.32 178.82 146.016 179.132 146.82 179.132C148.488 179.132 149.712 177.812 149.712 176.048ZM148.416 176.06C148.416 177.188 147.624 177.98 146.616 177.98C145.692 177.98 144.84 177.344 144.84 176.048C144.84 174.764 145.692 174.128 146.616 174.128C147.636 174.128 148.416 174.932 148.416 176.06ZM154.534 173.108C154.39 173.072 154.234 173.048 154.054 173.048C153.382 173.048 152.758 173.348 152.338 173.876V173.108H151.162V179H152.422V175.856C152.422 174.812 153.154 174.224 154.15 174.224H154.534V173.108ZM155.173 176.048C155.137 177.716 156.589 179.168 158.281 179.132C159.997 179.168 161.449 177.716 161.413 176.048C161.449 174.38 159.997 172.94 158.281 172.976C156.589 172.952 155.137 174.356 155.173 176.048ZM160.117 176.06C160.117 177.128 159.325 177.968 158.281 177.968C157.249 177.968 156.457 177.152 156.457 176.06C156.457 174.968 157.249 174.128 158.293 174.128C159.313 174.128 160.117 174.968 160.117 176.06ZM164.333 172.028C164.333 171.272 164.717 171.008 165.485 171.008C165.629 171.008 165.797 171.02 165.989 171.044V169.976C165.761 169.904 165.497 169.868 165.173 169.868C163.877 169.868 163.073 170.54 163.073 171.92V173.108H162.233V174.2H163.073V179H164.333V174.2H165.725V173.108H164.333V172.028ZM166.901 179H168.161V173.108H166.901V179ZM166.673 170.912C166.673 171.38 167.057 171.74 167.537 171.74C168.005 171.74 168.389 171.38 168.389 170.912C168.389 170.444 168.005 170.072 167.537 170.072C167.057 170.072 166.673 170.444 166.673 170.912ZM169.994 179H171.254V170H169.994V179ZM178.38 176.468C178.44 176.192 178.476 175.928 178.476 175.676C178.476 174.14 177.312 172.976 175.752 172.976C174.084 172.94 172.668 174.368 172.704 176.06C172.704 177.8 174.072 179.132 175.872 179.132C176.772 179.132 177.552 178.82 178.224 178.184L177.624 177.32C177.096 177.788 176.52 178.016 175.908 178.016C174.9 178.016 174.144 177.428 173.988 176.468H178.38ZM174.012 175.484C174.204 174.608 174.876 174.044 175.704 174.044C176.532 174.044 177.204 174.584 177.216 175.484H174.012Z" fill="white"/>
<g clip-path="url(#clip1_2891_39131)">
<path d="M106.5 69.9878H111.25C114.687 69.9878 117.5 68.1622 117.5 64.7628C117.5 61.3634 114.187 59.6709 111.5 59.5378C110.944 54.2215 107.062 50.9878 102.5 50.9878C98.1875 50.9878 95.41 53.8497 94.5 56.6878C90.75 57.044 87.5 59.4303 87.5 63.3378C87.5 67.2453 90.875 69.9878 95 69.9878H98.5" stroke="#A09DB1" stroke-width="1.5" stroke-linecap="round" stroke-linejoin="round"/>
<path d="M106.5 62.9866L102.5 58.9866L98.5 62.9866" stroke="#A09DB1" stroke-width="1.5" stroke-linecap="round" stroke-linejoin="round"/>
<path d="M102.5 75.014V59.9878" stroke="#A09DB1" stroke-width="1.5" stroke-linecap="round" stroke-linejoin="round"/>
</g>
<path d="M50.978 98.38C50.922 101.026 53.204 103.196 55.836 103.154C57.558 103.154 59.014 102.328 59.798 101.026L58.678 100.2C58.02 101.222 57.068 101.796 55.85 101.796C53.96 101.796 52.518 100.34 52.518 98.38C52.518 96.42 53.96 94.964 55.85 94.964C57.068 94.964 58.02 95.538 58.678 96.56L59.798 95.734C59 94.432 57.53 93.606 55.836 93.606C53.204 93.564 50.922 95.734 50.978 98.38ZM67.4811 98.702C67.4811 97.078 66.5011 95.972 64.9331 95.972C64.1071 95.972 63.4071 96.266 62.9451 96.812V92.5H61.4751V103H62.9451V98.912C62.9451 97.974 63.6031 97.316 64.5131 97.316C65.4231 97.316 66.0111 97.96 66.0111 98.912V103H67.4811V98.702ZM69.0939 99.556C69.0519 101.502 70.7459 103.196 72.7199 103.154C74.7219 103.196 76.4159 101.502 76.3739 99.556C76.4159 97.61 74.7219 95.93 72.7199 95.972C70.7459 95.944 69.0519 97.582 69.0939 99.556ZM74.8619 99.57C74.8619 100.816 73.9379 101.796 72.7199 101.796C71.5159 101.796 70.5919 100.844 70.5919 99.57C70.5919 98.296 71.5159 97.316 72.7339 97.316C73.9239 97.316 74.8619 98.296 74.8619 99.57ZM77.6251 99.556C77.5831 101.502 79.2771 103.196 81.2511 103.154C83.2531 103.196 84.9471 101.502 84.9051 99.556C84.9471 97.61 83.2531 95.93 81.2511 95.972C79.2771 95.944 77.5831 97.582 77.6251 99.556ZM83.3931 99.57C83.3931 100.816 82.4691 101.796 81.2511 101.796C80.0471 101.796 79.1231 100.844 79.1231 99.57C79.1231 98.296 80.0471 97.316 81.2651 97.316C82.4551 97.316 83.3931 98.296 83.3931 99.57ZM85.9464 101.824C86.5624 102.622 87.5424 103.154 88.7184 103.154C89.4464 103.154 90.0484 102.972 90.5384 102.608C91.0284 102.23 91.2664 101.712 91.2664 101.054C91.2664 100.088 90.6924 99.528 89.3904 98.982L88.7324 98.716C88.0604 98.436 87.8224 98.254 87.8224 97.904C87.8224 97.47 88.1864 97.246 88.7604 97.246C89.3624 97.246 89.9364 97.498 90.3704 97.946L91.1684 97.036C90.5664 96.322 89.7824 95.972 88.7884 95.972C87.3884 95.972 86.3664 96.728 86.3664 97.96C86.3664 98.926 86.9404 99.458 88.1584 99.962L88.8584 100.256C89.5304 100.536 89.8244 100.704 89.8244 101.11C89.8244 101.614 89.3484 101.88 88.7184 101.88C87.9904 101.88 87.3884 101.53 86.7864 100.9L85.9464 101.824ZM99.1495 100.046C99.2195 99.724 99.2615 99.416 99.2615 99.122C99.2615 97.33 97.9035 95.972 96.0835 95.972C94.1375 95.93 92.4855 97.596 92.5275 99.57C92.5275 101.6 94.1235 103.154 96.2235 103.154C97.2735 103.154 98.1835 102.79 98.9675 102.048L98.2675 101.04C97.6515 101.586 96.9795 101.852 96.2655 101.852C95.0895 101.852 94.2075 101.166 94.0255 100.046H99.1495ZM94.0535 98.898C94.2775 97.876 95.0615 97.218 96.0275 97.218C96.9935 97.218 97.7775 97.848 97.7915 98.898H94.0535ZM110.33 98.842C110.33 96.994 109.21 95.972 107.516 95.972C106.326 95.972 105.304 96.448 104.618 97.442L105.472 98.31C106.046 97.624 106.606 97.288 107.376 97.288C108.314 97.288 108.846 97.806 108.846 98.758V99.206H106.9C105.346 99.206 104.366 99.976 104.366 101.166C104.366 102.356 105.318 103.154 106.76 103.154C107.698 103.154 108.454 102.832 108.958 102.23V103H110.33V98.842ZM108.846 100.396C108.846 101.334 108.062 102.02 107.068 102.02C106.354 102.02 105.864 101.684 105.864 101.11C105.864 100.55 106.298 100.27 107.082 100.27H108.846V100.396ZM123.439 99.556C123.439 97.526 122.011 95.972 120.065 95.972C119.057 95.972 118.175 96.378 117.671 97.092V96.126H116.299V105.52H117.769V102.16C118.315 102.79 119.127 103.154 120.065 103.154C122.011 103.154 123.439 101.614 123.439 99.556ZM121.927 99.57C121.927 100.886 121.003 101.81 119.827 101.81C118.749 101.81 117.755 101.068 117.755 99.556C117.755 98.058 118.749 97.316 119.827 97.316C121.017 97.316 121.927 98.254 121.927 99.57ZM131.137 98.702C131.137 97.078 130.157 95.972 128.589 95.972C127.763 95.972 127.063 96.266 126.601 96.812V92.5H125.131V103H126.601V98.912C126.601 97.974 127.259 97.316 128.169 97.316C129.079 97.316 129.667 97.96 129.667 98.912V103H131.137V98.702ZM132.75 99.556C132.708 101.502 134.402 103.196 136.376 103.154C138.378 103.196 140.072 101.502 140.03 99.556C140.072 97.61 138.378 95.93 136.376 95.972C134.402 95.944 132.708 97.582 132.75 99.556ZM138.518 99.57C138.518 100.816 137.594 101.796 136.376 101.796C135.172 101.796 134.248 100.844 134.248 99.57C134.248 98.296 135.172 97.316 136.39 97.316C137.58 97.316 138.518 98.296 138.518 99.57ZM145.803 101.754C145.397 101.796 145.103 101.824 144.893 101.824C143.997 101.824 143.535 101.516 143.535 100.634V97.4H145.579V96.126H143.535V94.32H142.051V96.126H140.931V97.4H142.051V100.76C142.051 102.37 143.003 103.154 144.585 103.154C144.935 103.154 145.341 103.098 145.803 103V101.754ZM146.723 99.556C146.681 101.502 148.375 103.196 150.349 103.154C152.351 103.196 154.045 101.502 154.003 99.556C154.045 97.61 152.351 95.93 150.349 95.972C148.375 95.944 146.681 97.582 146.723 99.556ZM152.491 99.57C152.491 100.816 151.567 101.796 150.349 101.796C149.145 101.796 148.221 100.844 148.221 99.57C148.221 98.296 149.145 97.316 150.363 97.316C151.553 97.316 152.491 98.296 152.491 99.57Z" fill="#403E48"/>
<path d="M56.6404 121.584C56.6124 123.502 58.2504 125.182 60.1964 125.14C62.1424 125.182 63.8224 123.502 63.7804 121.584C63.8224 119.638 62.1564 118 60.2104 118.028C58.2644 117.986 56.5984 119.638 56.6404 121.584ZM62.6744 121.598C62.6744 123.026 61.5824 124.146 60.1964 124.146C58.8104 124.146 57.7464 123.026 57.7464 121.598C57.7464 120.128 58.8104 119.022 60.2104 119.022C61.5964 119.022 62.6744 120.128 62.6744 121.598ZM69.3014 118.182C69.1194 118.14 68.9514 118.126 68.7974 118.126C67.9714 118.126 67.1734 118.49 66.6834 119.148V118.182H65.6754V125H66.7534V121.136C66.7534 119.876 67.7474 119.134 68.8954 119.134H69.3014V118.182ZM80.0754 114.5V119.19C79.5294 118.462 78.5774 118.028 77.5554 118.028C75.6374 118.028 74.1814 119.596 74.1814 121.598C74.1814 123.6 75.6374 125.154 77.5554 125.154C78.6194 125.154 79.6134 124.692 80.1314 123.922V125H81.1534V114.5H80.0754ZM80.0894 121.598C80.0894 123.32 78.9414 124.16 77.7094 124.16C76.3234 124.16 75.2874 123.054 75.2874 121.584C75.2874 120.114 76.3234 119.022 77.7094 119.022C78.9414 119.022 80.0894 119.862 80.0894 121.598ZM87.1431 118.182C86.9611 118.14 86.7931 118.126 86.6391 118.126C85.8131 118.126 85.0151 118.49 84.5251 119.148V118.182H83.5171V125H84.5951V121.136C84.5951 119.876 85.5891 119.134 86.7371 119.134H87.1431V118.182ZM93.5627 120.8C93.5627 119.008 92.5127 118.028 90.9027 118.028C89.7687 118.028 88.7467 118.518 88.1307 119.526L88.8447 120.114C89.4047 119.386 90.0067 119.022 90.8327 119.022C91.8547 119.022 92.4847 119.624 92.4847 120.744V121.332H90.3287C88.8587 121.332 87.8787 122.074 87.8787 123.236C87.8787 124.412 88.8587 125.154 90.2587 125.154C91.2527 125.154 92.0507 124.79 92.5547 124.118V125H93.5627V120.8ZM92.4847 122.382C92.4847 123.432 91.5187 124.258 90.3987 124.258C89.6007 124.258 88.9847 123.866 88.9847 123.18C88.9847 122.55 89.5027 122.214 90.4547 122.214H92.4847V122.382ZM101.379 118.182V119.274C100.861 118.49 99.8672 118.028 98.7892 118.028C96.8712 118.028 95.4432 119.526 95.4432 121.486C95.4432 123.46 96.8712 124.93 98.7892 124.93C99.8112 124.93 100.777 124.51 101.323 123.796V124.398C101.323 125.868 100.469 126.68 99.0552 126.68C98.0332 126.68 97.2772 126.274 96.5072 125.602L95.8772 126.358C96.6472 127.128 97.7532 127.674 99.0832 127.674C101.099 127.674 102.401 126.414 102.401 124.342V118.182H101.379ZM101.337 121.486C101.337 123.138 100.203 123.936 98.9572 123.936C97.5712 123.936 96.5352 122.942 96.5352 121.5C96.5352 120.072 97.5712 119.05 98.9572 119.05C100.189 119.05 101.337 119.848 101.337 121.486ZM108.687 125H109.765V118.182H108.687V125ZM108.421 115.578C108.421 116.026 108.785 116.362 109.233 116.362C109.681 116.362 110.031 116.026 110.031 115.578C110.031 115.144 109.667 114.794 109.233 114.794C108.785 114.794 108.421 115.144 108.421 115.578ZM115.856 124.09C115.506 124.146 115.212 124.174 114.946 124.174C114.008 124.174 113.504 123.838 113.504 122.872V119.148H115.632V118.182H113.504V116.32H112.426V118.182H111.278V119.148H112.426V122.942C112.426 124.44 113.308 125.154 114.722 125.154C115.044 125.154 115.422 125.098 115.856 125V124.09ZM127.03 120.716C127.03 119.106 126.078 118.028 124.51 118.028C123.656 118.028 122.928 118.378 122.466 118.952V114.5H121.388V125H122.466V120.856C122.466 119.792 123.208 119.022 124.258 119.022C125.308 119.022 125.952 119.75 125.952 120.856V125H127.03V120.716ZM135.338 121.92C135.394 121.64 135.422 121.374 135.422 121.108C135.422 119.302 134.078 118.028 132.314 118.028C130.368 118.028 128.828 119.624 128.828 121.598C128.828 123.6 130.41 125.154 132.44 125.154C133.518 125.154 134.456 124.706 135.17 123.964L134.54 123.236C133.924 123.852 133.224 124.16 132.454 124.16C131.11 124.16 130.074 123.264 129.948 121.92H135.338ZM129.99 120.968C130.228 119.792 131.152 119.008 132.286 119.008C133.42 119.008 134.302 119.75 134.316 120.968H129.99ZM140.942 118.182C140.76 118.14 140.592 118.126 140.438 118.126C139.612 118.126 138.814 118.49 138.324 119.148V118.182H137.316V125H138.394V121.136C138.394 119.876 139.388 119.134 140.536 119.134H140.942V118.182ZM148.272 121.92C148.328 121.64 148.356 121.374 148.356 121.108C148.356 119.302 147.012 118.028 145.248 118.028C143.302 118.028 141.762 119.624 141.762 121.598C141.762 123.6 143.344 125.154 145.374 125.154C146.452 125.154 147.39 124.706 148.104 123.964L147.474 123.236C146.858 123.852 146.158 124.16 145.388 124.16C144.044 124.16 143.008 123.264 142.882 121.92H148.272ZM142.924 120.968C143.162 119.792 144.086 119.008 145.22 119.008C146.354 119.008 147.236 119.75 147.25 120.968H142.924Z" fill="#6C6A7C"/>
</g>
<defs>
<filter id="filter0_d_2891_39131" x="0" y="0" width="204" height="204" filterUnits="userSpaceOnUse" color-interpolation-filters="sRGB">
<feFlood flood-opacity="0" result="BackgroundImageFix"/>
<feColorMatrix in="SourceAlpha" type="matrix" values="0 0 0 0 0 0 0 0 0 0 0 0 0 0 0 0 0 0 127 0" result="hardAlpha"/>
<feOffset dy="1"/>
<feGaussianBlur stdDeviation="1"/>
<feColorMatrix type="matrix" values="0 0 0 0 0.192157 0 0 0 0 0.2 0 0 0 0 0.215686 0 0 0 0.05 0"/>
<feBlend mode="normal" in2="BackgroundImageFix" result="effect1_dropShadow_2891_39131"/>
<feBlend mode="normal" in="SourceGraphic" in2="effect1_dropShadow_2891_39131" result="shape"/>
</filter>
<clipPath id="clip0_2891_39131">
<rect x="2" y="1" width="200" height="200" rx="12" fill="white"/>
</clipPath>
<clipPath id="clip1_2891_39131">
<rect width="32" height="32" fill="white" transform="translate(86.5 47)"/>
</clipPath>
</defs>
</svg>
