<svg width="294" height="344" viewBox="0 0 294 344" fill="none" xmlns="http://www.w3.org/2000/svg">
<g filter="url(#filter0_dd_2274_14039)">
<rect x="12" width="270" height="320" rx="20" fill="#F3FAF2"/>
<g clip-path="url(#clip0_2274_14039)">
<rect x="32" y="20" width="230" height="155" rx="12" fill="#DEEFDC"/>
<g clip-path="url(#clip1_2274_14039)">
<path d="M124.33 60.8728L126.844 96.6616C127.043 99.478 128.297 102.114 130.352 104.038C132.408 105.962 135.113 107.031 137.922 107.03C139.442 107.03 140.946 106.716 142.341 106.108C143.736 105.5 144.992 104.61 146.03 103.494C147.069 102.378 147.869 101.059 148.379 99.6197C148.89 98.1802 149.101 96.6506 149 95.1256C148.778 91.7196 148.576 88.9317 148.576 88.9317C148.576 88.9317 157.198 87.5839 157.305 78.9208C157.366 73.9288 156.506 62.5624 155.777 53.8648C155.535 51.0287 154.244 48.3868 152.158 46.4619C150.072 44.5369 147.343 43.4692 144.511 43.47H139.289C137.16 43.5948 135.076 44.148 133.163 45.0966C131.25 46.0453 129.545 47.3702 128.15 48.9929C126.756 50.6155 125.699 52.5031 125.043 54.5437C124.386 56.5842 124.144 58.7364 124.33 60.8728Z" fill="#B78876"/>
<path d="M148.584 88.8242C148.584 88.8242 143.137 89.2697 137.35 85.614C137.35 85.614 140.005 91.8502 148.603 91.0706L148.584 88.8242Z" fill="#AA6550"/>
<path d="M153.083 64.352C153.086 64.6748 152.964 64.986 152.742 65.2191C152.52 65.4523 152.216 65.589 151.895 65.6C151.739 65.6126 151.582 65.5935 151.433 65.544C151.284 65.4945 151.146 65.4156 151.028 65.3118C150.91 65.208 150.813 65.0816 150.744 64.9398C150.676 64.7981 150.636 64.6439 150.627 64.4864C150.624 64.164 150.746 63.8529 150.967 63.6192C151.188 63.3855 151.491 63.2475 151.811 63.2346C151.968 63.2221 152.126 63.2412 152.275 63.2909C152.425 63.3406 152.563 63.4198 152.681 63.5239C152.8 63.6281 152.897 63.755 152.966 63.8972C153.035 64.0394 153.075 64.194 153.083 64.352Z" fill="#403E48"/>
<path d="M154.275 62.5702C154.122 62.7315 153.19 62.0403 151.869 62.0441C150.547 62.048 149.577 62.7123 149.428 62.551C149.359 62.4781 149.516 62.167 149.936 61.8752C150.509 61.4768 151.191 61.2662 151.888 61.2723C152.574 61.2695 153.243 61.4875 153.798 61.8944C154.214 62.2093 154.352 62.5011 154.275 62.5702Z" fill="#403E48"/>
<path d="M140.161 64.3519C140.165 64.6746 140.042 64.9858 139.82 65.219C139.598 65.4522 139.294 65.5889 138.973 65.5999C138.817 65.6124 138.66 65.5934 138.511 65.5439C138.362 65.4944 138.224 65.4154 138.106 65.3117C137.988 65.2079 137.891 65.0814 137.823 64.9397C137.754 64.7979 137.714 64.6438 137.705 64.4863C137.702 64.1632 137.824 63.8516 138.046 63.6178C138.268 63.384 138.572 63.2465 138.893 63.2345C139.05 63.2225 139.207 63.242 139.356 63.292C139.505 63.3419 139.643 63.4212 139.761 63.5253C139.879 63.6294 139.975 63.7561 140.044 63.898C140.113 64.04 140.153 64.1943 140.161 64.3519Z" fill="#403E48"/>
<path d="M141.262 62.816C141.109 62.9773 140.173 62.2823 138.851 62.2861C137.53 62.29 136.559 62.9581 136.41 62.793C136.342 62.72 136.494 62.432 136.918 62.121C137.493 61.7246 138.174 61.513 138.87 61.5143C139.556 61.5167 140.224 61.7342 140.78 62.1364C141.197 62.4551 141.334 62.7469 141.262 62.816Z" fill="#403E48"/>
<path d="M146.067 72.6925C146.067 72.6157 146.885 72.4736 148.218 72.3085C148.554 72.2701 148.875 72.2048 148.932 71.9706C148.962 71.6199 148.883 71.2687 148.707 70.9645C148.391 70.1427 148.058 69.28 147.706 68.3763C146.319 64.6899 145.311 61.6602 145.46 61.6064C145.609 61.5526 146.854 64.4941 148.245 68.1767C148.578 69.088 148.898 69.9571 149.204 70.784C149.33 71.168 149.551 71.6058 149.375 72.1165C149.327 72.2365 149.252 72.3436 149.156 72.4296C149.06 72.5155 148.946 72.5779 148.822 72.6119C148.635 72.6652 148.442 72.6924 148.249 72.6925C146.904 72.7616 146.071 72.7693 146.067 72.6925Z" fill="#403E48"/>
<path d="M142.17 73.614C142.384 73.614 142.388 75.0463 143.618 76.0716C144.848 77.0969 146.376 76.9395 146.387 77.1391C146.41 77.2313 146.047 77.4195 145.402 77.4387C144.559 77.4506 143.74 77.1637 143.087 76.6284C142.46 76.1139 142.057 75.3743 141.964 74.5663C141.91 73.9519 142.071 73.6063 142.17 73.614Z" fill="#403E48"/>
<path d="M141.601 57.6012C141.471 57.9852 140.15 57.7932 138.595 57.9852C137.04 58.1772 135.783 58.5996 135.577 58.2732C135.485 58.1196 135.703 57.7779 136.211 57.4284C136.887 56.9994 137.65 56.7305 138.445 56.642C139.239 56.5535 140.043 56.6478 140.795 56.9177C141.387 57.1481 141.659 57.4399 141.601 57.6012Z" fill="#403E48"/>
<path d="M153.79 58.7186C153.557 59.022 152.644 58.7186 151.548 58.6917C150.452 58.6649 149.523 58.8953 149.309 58.5804C149.214 58.4268 149.359 58.1234 149.768 57.8354C150.313 57.4922 150.947 57.3198 151.59 57.3404C152.233 57.3609 152.855 57.5733 153.378 57.9506C153.764 58.2578 153.894 58.5919 153.79 58.7186Z" fill="#403E48"/>
<path d="M127.252 67.3741C127.103 67.3088 121.331 65.6154 121.522 71.5366C121.713 77.4579 127.585 76.0486 127.592 75.8758C127.6 75.703 127.252 67.3741 127.252 67.3741Z" fill="#B78876"/>
<path d="M125.702 73.6908C125.675 73.6908 125.602 73.7676 125.431 73.8521C125.191 73.9637 124.917 73.9788 124.667 73.8943C124.036 73.6831 123.482 72.7077 123.417 71.6402C123.388 71.1331 123.47 70.6257 123.658 70.1541C123.709 69.9655 123.806 69.7923 123.939 69.6497C124.072 69.5071 124.238 69.3995 124.422 69.3362C124.539 69.3012 124.665 69.3086 124.777 69.357C124.89 69.4054 124.981 69.4918 125.037 69.6012C125.121 69.7624 125.087 69.8815 125.117 69.893C125.148 69.9045 125.243 69.7893 125.186 69.5436C125.148 69.3986 125.062 69.2712 124.942 69.1826C124.86 69.1232 124.767 69.0808 124.668 69.0577C124.57 69.0347 124.468 69.0314 124.369 69.0482C124.128 69.1045 123.907 69.2216 123.724 69.3882C123.542 69.5549 123.404 69.7657 123.326 70.0005C123.093 70.5222 122.99 71.0927 123.024 71.6632C123.1 72.8575 123.742 73.9673 124.602 74.1746C124.762 74.2159 124.929 74.2204 125.091 74.1879C125.253 74.1553 125.406 74.0864 125.537 73.9865C125.694 73.8367 125.725 73.7023 125.702 73.6908Z" fill="#AA6550"/>
<path d="M123.961 67.1745C124.858 66.9556 126.413 67.7889 126.795 68.6337C127.177 69.4785 127.261 70.4385 127.643 71.2871C128.025 72.1357 128.889 72.8961 129.79 72.681C130.095 72.5852 130.369 72.4101 130.584 72.1733C130.799 71.9366 130.949 71.6467 131.016 71.3332C131.146 70.7005 131.153 70.0484 131.035 69.4132C130.688 66.6484 130.111 63.9066 130 61.1188C129.889 58.3309 130.283 55.4394 131.738 53.0548C133.194 50.6701 135.864 48.9345 138.614 49.161C140.444 49.3069 142.125 50.2669 143.943 50.5242C145.027 50.6683 146.128 50.5623 147.165 50.2143C148.201 49.8663 149.145 49.2855 149.925 48.5159C150.124 48.3201 151.041 47.7095 151.041 47.7095C151.041 47.5674 150.907 46.3309 150.422 45.8778C146.812 42.5255 140.31 41.5885 135.543 42.8058C130.776 44.0231 126.306 47.4138 124.255 51.8836C122.204 56.3533 122.815 62.6356 123.946 67.1668" fill="#403E48"/>
<path d="M155.857 52.5478C155.857 52.5478 133.25 45.2518 123.471 64.8972C123.471 64.8972 122.008 59.9782 122.008 57.3401C122.008 55.5776 123.054 45.0867 133.796 41.7843C133.796 41.7843 149.974 35.5788 155.857 52.5478Z" fill="#81C27A"/>
<path d="M136.422 53.0393C136.823 53.6902 137.37 54.2385 138.018 54.6409C138.667 55.0433 139.399 55.2888 140.158 55.3581C140.917 55.4273 141.681 55.3184 142.391 55.04C143.101 54.7615 143.737 54.3211 144.249 53.7535C144.474 54.3185 144.869 54.7986 145.379 55.1265C145.888 55.4543 146.488 55.6136 147.092 55.5818C147.697 55.5501 148.276 55.3289 148.749 54.9494C149.222 54.5698 149.566 54.051 149.73 53.4655C150.343 54.1522 151.093 54.7017 151.931 55.0783C152.79 55.397 153.879 55.2742 154.441 54.5522C155.002 53.8303 154.849 52.6898 154.284 51.9449C153.666 51.2405 152.876 50.7109 151.992 50.4089C149.312 49.2241 146.367 48.7762 143.458 49.111C140.574 49.495 137.782 50.9081 135.979 53.2044" fill="#403E48"/>
<g opacity="0.4">
<path opacity="0.4" d="M155.856 52.5478C153.976 50.5556 151.397 49.3779 148.667 49.2646C141.998 48.9689 129.518 52.7398 123.455 64.8972C123.455 64.8972 121.992 59.9782 121.992 57.3401C121.992 55.5776 123.039 45.0867 133.781 41.7843C133.796 41.7843 149.974 35.5788 155.856 52.5478Z" fill="#403E48"/>
</g>
<path d="M124.414 62.5971C127.764 57.4399 132.386 53.1775 137.585 49.9251C142.784 46.6726 151.376 43.4355 157.297 41.8611C159.077 41.3849 160.929 40.9702 162.744 41.2851C164.558 41.6 166.331 42.8211 166.778 44.6067C167.343 46.8531 163.378 50.3167 161.518 51.6761C159.657 53.0355 155.856 55.0361 155.856 55.0361C155.856 55.0361 155.91 50.8735 149.278 50.0172C140.263 48.8307 124.414 62.5971 124.414 62.5971Z" fill="#81C27A"/>
<path d="M142.957 45.6127C142.957 45.6127 146.212 43.8003 149.486 43.3779C148.939 42.9507 148.342 42.5922 147.709 42.3103C145.932 42.6056 144.214 43.1865 142.621 44.0307L142.957 45.6127Z" fill="#E0E0E0"/>
<path d="M161.305 96.4007L154.135 94.8109L151.217 94.0775L148.787 90.2912C148.787 90.2912 147.641 97.0612 143.29 100.705C142.701 101.19 142.011 101.534 141.27 101.712C140.53 101.891 139.759 101.898 139.016 101.734C138.034 101.527 136.88 101.274 136.025 101.043C135.841 100.993 135.643 100.928 135.429 100.851C132.283 99.677 129.662 97.4051 128.045 94.45C127.082 92.7296 126.268 90.9632 126.547 90.2912L123.144 97.376L103.089 106.661L91.7012 134.624L113.769 141.183L114.457 164.223L110.301 193.269L172.731 193.311L170.515 128.687" fill="#81C27A"/>
<path d="M145.165 121.418C145.038 121.428 144.91 121.428 144.783 121.418L143.671 121.391L139.702 121.249H139.626V121.184C139.561 119.452 139.481 117.402 139.393 115.209C139.29 112.049 139.198 109.192 139.125 107.091C139.102 106.07 139.083 105.236 139.068 104.63C139.068 104.357 139.068 104.134 139.068 103.962C139.058 103.884 139.058 103.805 139.068 103.727C139.086 103.803 139.095 103.88 139.095 103.958C139.095 104.134 139.121 104.342 139.137 104.626C139.167 105.233 139.209 106.066 139.259 107.084C139.343 109.184 139.458 112.041 139.584 115.197C139.66 117.394 139.729 119.444 139.79 121.176L139.706 121.096L143.675 121.307L144.783 121.38C144.911 121.379 145.039 121.391 145.165 121.418Z" fill="#403E48"/>
<path d="M141.769 112.083C141.857 112.021 141.96 111.987 142.067 111.983C142.315 111.967 142.562 112.023 142.779 112.145C142.996 112.267 143.173 112.45 143.289 112.671C143.398 112.886 143.437 113.131 143.4 113.37C143.359 113.64 143.241 113.893 143.06 114.098C142.879 114.302 142.643 114.449 142.38 114.521C142.114 114.578 141.838 114.559 141.582 114.467C141.326 114.376 141.1 114.215 140.929 114.003C140.79 113.832 140.693 113.631 140.645 113.416C140.597 113.2 140.6 112.977 140.654 112.763C140.713 112.472 140.856 112.204 141.066 111.995C141.211 111.853 141.318 111.807 141.322 111.818C141.326 111.83 141.246 111.899 141.124 112.049C140.954 112.259 140.84 112.508 140.791 112.774C140.752 112.966 140.757 113.164 140.805 113.353C140.852 113.542 140.942 113.719 141.066 113.869C141.219 114.05 141.417 114.187 141.64 114.265C141.863 114.343 142.103 114.36 142.334 114.314C142.56 114.25 142.763 114.123 142.919 113.948C143.075 113.772 143.179 113.556 143.217 113.323C143.249 113.133 143.227 112.937 143.155 112.758C143.083 112.58 142.963 112.424 142.808 112.31C142.598 112.141 142.339 112.048 142.071 112.045C141.872 112.06 141.769 112.098 141.769 112.083Z" fill="#403E48"/>
<path d="M141.093 103.969C141.181 103.891 141.29 103.841 141.406 103.823C141.723 103.756 142.054 103.805 142.338 103.962C142.54 104.065 142.712 104.218 142.838 104.407C142.985 104.628 143.059 104.89 143.048 105.156C143.036 105.459 142.934 105.751 142.754 105.994C142.574 106.237 142.325 106.42 142.04 106.519C141.748 106.594 141.441 106.581 141.157 106.481C140.873 106.381 140.625 106.2 140.443 105.958C140.282 105.75 140.185 105.499 140.164 105.237C140.152 105.01 140.189 104.783 140.271 104.572C140.39 104.272 140.6 104.016 140.871 103.843C140.965 103.772 141.078 103.729 141.196 103.72C141.196 103.72 141.085 103.777 140.917 103.908C140.681 104.091 140.503 104.339 140.405 104.622C140.328 104.825 140.305 105.044 140.337 105.259C140.369 105.473 140.456 105.676 140.588 105.847C140.75 106.054 140.967 106.21 141.215 106.295C141.462 106.38 141.729 106.391 141.983 106.327C142.229 106.239 142.443 106.081 142.6 105.871C142.757 105.661 142.849 105.41 142.865 105.148C142.875 104.933 142.825 104.719 142.72 104.531C142.616 104.343 142.461 104.188 142.273 104.085C142.016 103.932 141.717 103.868 141.421 103.9C141.211 103.927 141.1 103.985 141.093 103.969Z" fill="#403E48"/>
<path d="M139.061 134.962C139.061 134.962 139.091 134.943 139.156 134.92L139.443 134.808C139.698 134.72 140.061 134.559 140.524 134.344C141.814 133.689 142.999 132.843 144.038 131.832C145.565 130.321 146.915 128.638 148.06 126.817C149.493 124.604 150.802 122.312 151.98 119.951C154.098 115.649 155.957 111.223 157.546 106.696C158.168 104.96 158.653 103.551 158.993 102.579L159.375 101.458C159.417 101.343 159.456 101.247 159.482 101.17C159.493 101.137 159.507 101.104 159.524 101.074C159.521 101.109 159.514 101.144 159.501 101.178C159.478 101.254 159.448 101.35 159.414 101.473C159.326 101.746 159.207 102.122 159.058 102.625C158.741 103.604 158.275 105.021 157.664 106.761C156.116 111.3 154.276 115.733 152.156 120.032C150.975 122.399 149.658 124.695 148.213 126.909C147.054 128.74 145.685 130.427 144.134 131.936C143.078 132.945 141.872 133.781 140.558 134.413C140.199 134.579 139.83 134.723 139.454 134.847L139.16 134.939C139.128 134.952 139.095 134.959 139.061 134.962Z" fill="#403E48"/>
<path d="M152.214 127.293C152.378 127.293 156.179 127.032 156.179 127.032C156.179 127.032 154.609 129.82 152.974 130.872H149.646L152.214 127.293Z" fill="#FAFAFA"/>
<path d="M138.396 143.406C138.462 143.343 138.533 143.288 138.61 143.241L139.252 142.796C139.806 142.412 140.604 141.836 141.563 141.094C143.473 139.624 146.017 137.427 148.737 134.916C150.097 133.66 151.411 132.477 152.534 131.341C153.542 130.344 154.478 129.277 155.334 128.146C155.909 127.383 156.42 126.574 156.862 125.727C157.03 125.431 157.134 125.189 157.214 125.028C157.25 124.943 157.295 124.862 157.347 124.786C157.323 124.874 157.291 124.96 157.252 125.043C157.183 125.208 157.088 125.458 156.931 125.761C156.511 126.628 156.014 127.454 155.445 128.23C154.6 129.38 153.669 130.464 152.66 131.471C151.533 132.623 150.227 133.81 148.867 135.062C146.147 137.573 143.599 139.762 141.647 141.206C140.673 141.932 139.86 142.485 139.294 142.857C139.008 143.041 138.782 143.176 138.63 143.272C138.557 143.325 138.479 143.37 138.396 143.406Z" fill="#403E48"/>
<path d="M127.686 186.08C127.686 186.08 127.686 186.045 127.731 185.988C127.777 185.93 127.827 185.838 127.888 185.734C128.029 185.515 128.243 185.193 128.53 184.786C129.103 183.979 129.989 182.843 131.158 181.506C133.511 178.853 136.808 175.232 140.437 171.223L149.792 160.974L152.638 157.902L153.402 157.069L153.608 156.857L153.684 156.788C153.684 156.788 153.665 156.819 153.623 156.869L153.432 157.096L152.668 157.956L149.868 161.085L140.586 171.346L131.265 181.591C130.085 182.912 129.183 184.029 128.591 184.82C128.297 185.204 128.071 185.531 127.922 185.746L127.75 185.988C127.731 186.02 127.71 186.051 127.686 186.08Z" fill="#403E48"/>
<path d="M160.809 96.224C161.137 96.7194 168.517 97.545 170.324 99.3574C172.131 101.17 190.188 115.025 190.188 115.025L177.319 132.435L169.014 130.596L160.809 96.224Z" fill="#81C27A"/>
<path opacity="0.4" d="M187.998 113.335L173.57 131.606L177.318 132.435L190.172 115.005L187.998 113.335Z" fill="#403E48"/>
<path d="M164.738 114.349C164.673 114.151 164.624 113.948 164.589 113.742C164.547 113.546 164.497 113.304 164.463 113.02C164.429 112.736 164.371 112.413 164.352 112.052C164.333 111.691 164.295 111.284 164.295 110.874C164.295 110.463 164.295 109.998 164.329 109.522C164.404 108.486 164.563 107.459 164.807 106.45C165.067 105.446 165.411 104.466 165.834 103.52C166.037 103.09 166.216 102.675 166.434 102.306C166.652 101.938 166.839 101.596 167.034 101.293C167.229 100.989 167.416 100.728 167.584 100.494C167.723 100.293 167.872 100.1 168.031 99.9142C168.156 99.7474 168.295 99.5919 168.447 99.4495C168.343 99.6293 168.224 99.8001 168.092 99.9602C167.974 100.122 167.828 100.317 167.676 100.559C167.523 100.801 167.328 101.058 167.152 101.37C166.977 101.681 166.77 102.011 166.579 102.387C166.388 102.763 166.197 103.155 166.002 103.593C165.6 104.535 165.271 105.507 165.017 106.5C164.779 107.496 164.617 108.509 164.532 109.53C164.505 110.002 164.471 110.451 164.482 110.87C164.494 111.288 164.482 111.68 164.513 112.022C164.543 112.363 164.566 112.701 164.593 112.986C164.62 113.27 164.654 113.512 164.685 113.707C164.723 113.919 164.741 114.134 164.738 114.349Z" fill="#403E48"/>
<path d="M170.514 128.664C169.923 127.511 169.391 126.328 168.921 125.12C168.389 123.939 167.917 122.732 167.508 121.503C168.099 122.655 168.632 123.837 169.105 125.043C169.638 126.224 170.108 127.433 170.514 128.664Z" fill="#403E48"/>
<path d="M113.767 116.015C113.737 116.015 113.428 115.459 112.843 114.595C112.08 113.469 111.208 112.423 110.238 111.473C109.263 110.529 108.199 109.684 107.06 108.95C106.181 108.389 105.604 108.097 105.619 108.067C105.766 108.107 105.907 108.165 106.04 108.239C106.413 108.418 106.778 108.615 107.132 108.831C108.307 109.535 109.397 110.374 110.379 111.331C111.358 112.29 112.225 113.36 112.961 114.518C113.24 114.963 113.45 115.332 113.58 115.597C113.66 115.728 113.722 115.869 113.767 116.015Z" fill="#403E48"/>
<path opacity="0.4" d="M91.7012 134.613L92.5912 132.435L117.001 139.117L116.035 141.847L91.7012 134.613Z" fill="#403E48"/>
<path d="M156.865 126.007H166.159V129.847L154.268 129.77C154.268 129.77 156.105 127.547 156.865 126.007Z" fill="#FAFAFA"/>
<g opacity="0.2">
<path opacity="0.2" d="M123.715 98.2207C124.051 101.216 124.418 104.307 125.892 106.934C127.367 109.56 130.251 111.63 133.219 111.188C135.198 110.893 136.875 109.564 138.223 108.074C139.572 106.584 140.702 104.898 142.173 103.535C143.062 104.498 144.057 105.357 145.137 106.097C146.229 106.84 147.54 107.188 148.854 107.083C150.149 106.926 150.864 106.408 151.272 105.163C149.889 105.594 149.129 105.528 147.75 105.263C146.228 104.97 144.798 104.311 143.583 103.343C142.773 102.702 142.479 101.738 141.451 101.807C140.5 101.861 139.755 102.618 139.129 103.343C138.117 104.507 137.008 105.581 135.813 106.554C134.667 107.464 133.559 108.09 132.1 108.047C129.697 107.994 127.73 106.097 126.404 104.081C125.181 102.222 124.277 100.17 123.73 98.0095" fill="#403E48"/>
</g>
<path d="M151.846 94.4843C151.868 94.5542 151.882 94.6264 151.888 94.6994C151.888 94.8415 151.934 95.0488 151.961 95.3176C152.018 95.8552 152.076 96.6347 152.099 97.6216C152.15 100.146 151.911 102.668 151.384 105.136V105.198V105.259H151.327C149.969 105.579 148.552 105.541 147.213 105.148C146.118 104.854 145.083 104.368 144.157 103.712C143.53 103.283 142.967 102.766 142.487 102.176C142.358 102.016 142.238 101.85 142.128 101.677C142.086 101.618 142.048 101.555 142.018 101.488C142.641 102.308 143.388 103.023 144.233 103.608C145.155 104.234 146.175 104.699 147.251 104.983C148.561 105.355 149.943 105.388 151.27 105.079L151.197 105.152V105.09C151.717 102.634 151.973 100.129 151.961 97.6178C151.961 96.6539 151.919 95.8744 151.888 95.333C151.888 95.0834 151.862 94.8799 151.85 94.7147C151.838 94.6385 151.837 94.5609 151.846 94.4843Z" fill="#403E48"/>
<path d="M140.24 102.061C140.21 102.143 140.169 102.22 140.118 102.291C139.99 102.504 139.85 102.709 139.698 102.906C139.127 103.621 138.499 104.288 137.818 104.899C137.394 105.283 136.917 105.709 136.401 106.147C136.141 106.365 135.882 106.596 135.591 106.826C135.292 107.053 134.977 107.257 134.648 107.437C133.941 107.829 133.16 108.068 132.356 108.139C131.478 108.214 130.599 108.019 129.835 107.579C129.091 107.133 128.424 106.569 127.86 105.908C127.325 105.31 126.827 104.679 126.37 104.019C125.598 102.9 124.947 101.701 124.425 100.444C124.076 99.5989 123.79 98.7286 123.57 97.8406C123.49 97.5257 123.44 97.28 123.409 97.111C123.388 97.0267 123.375 96.9405 123.371 96.8537C123.406 96.9337 123.432 97.0174 123.447 97.1033C123.493 97.2684 123.554 97.5104 123.642 97.8214C123.893 98.6961 124.198 99.5541 124.555 100.39C125.09 101.628 125.75 102.808 126.523 103.912C126.978 104.562 127.473 105.184 128.005 105.774C128.55 106.417 129.195 106.968 129.915 107.406C130.646 107.826 131.486 108.013 132.325 107.944C133.106 107.876 133.865 107.649 134.556 107.275C134.88 107.103 135.191 106.905 135.484 106.684C135.763 106.469 136.031 106.235 136.29 106.02C136.81 105.586 137.291 105.179 137.719 104.795C138.402 104.203 139.04 103.561 139.629 102.875C139.831 102.629 139.98 102.426 140.08 102.287C140.127 102.207 140.18 102.131 140.24 102.061Z" fill="#403E48"/>
<path d="M132.014 146.182L134.959 141.866C134.959 141.866 136.983 134.793 136.708 133.802C136.433 132.812 135.54 129.125 135.75 129.079C135.96 129.033 138.164 128.211 139.36 131.168C140.104 133.011 140.349 135.438 140.429 137.005C140.438 137.198 140.488 137.388 140.577 137.56C140.665 137.732 140.79 137.883 140.942 138.002C141.094 138.121 141.27 138.205 141.458 138.249C141.646 138.293 141.841 138.296 142.03 138.257C144.066 137.834 147.454 137.193 148.26 137.389C149.429 137.669 150.476 139.167 150.575 139.67C150.674 140.173 149.872 141.306 149.872 141.306C149.872 141.306 150.865 141.816 151.171 142.588C151.213 142.692 151.247 142.796 151.278 142.895C151.371 143.205 151.383 143.533 151.311 143.849C151.239 144.164 151.087 144.455 150.869 144.693L150.556 145.038C150.556 145.038 151.797 145.38 151.95 146.094C152.033 146.616 152.019 147.148 151.908 147.665L150.743 148.874C151.068 149.179 151.281 149.585 151.347 150.026C151.408 150.687 149.662 152.33 149.662 152.33L142.171 155.018L139.199 155.786L132.014 146.182Z" fill="#B78876"/>
<path d="M149.894 141.313C149.038 141.545 148.171 141.733 147.297 141.878C146.437 142.089 145.568 142.255 144.691 142.377C144.926 142.262 145.174 142.175 145.429 142.12C145.891 141.989 146.536 141.828 147.258 141.682C147.98 141.536 148.634 141.428 149.115 141.367C149.371 141.314 149.633 141.296 149.894 141.313Z" fill="#AA6550"/>
<path d="M150.577 145.038C149.94 145.338 149.277 145.576 148.595 145.748C147.933 145.987 147.25 146.162 146.555 146.271C147.191 145.971 147.855 145.733 148.537 145.56C149.199 145.322 149.882 145.147 150.577 145.038Z" fill="#AA6550"/>
<path d="M151.024 148.713C150.353 149.117 149.649 149.462 148.919 149.746C148.216 150.092 147.485 150.377 146.734 150.598C147.405 150.194 148.11 149.849 148.839 149.565C149.542 149.219 150.273 148.934 151.024 148.713Z" fill="#AA6550"/>
<path d="M114.755 172.855L142.305 154.277L135.352 141.605L110.209 154.604L113.063 140.949L95.9987 135.872L91.7279 159.258C91.0709 169.656 99.3679 178.051 109.369 175.32C111.286 174.799 113.105 173.966 114.755 172.855Z" fill="#B78876"/>
<path d="M106.569 161.953C106.519 161.842 106.487 161.725 106.473 161.604C106.416 161.28 106.384 160.953 106.378 160.625C106.363 159.532 106.607 158.452 107.088 157.472C107.576 156.495 108.29 155.649 109.17 155.007C109.432 154.811 109.711 154.639 110.003 154.492C110.107 154.431 110.221 154.385 110.339 154.358C110.339 154.392 109.892 154.611 109.254 155.126C108.419 155.782 107.74 156.617 107.266 157.57C106.793 158.523 106.538 159.571 106.519 160.636C106.5 161.443 106.626 161.949 106.569 161.953Z" fill="#AA6550"/>
<path d="M177.318 132.435C177.49 132.197 196.938 144.109 196.938 144.109L203.172 172.659L212.145 175.969C212.145 175.969 214.945 144.197 212.814 139.251C210.682 134.305 189.073 116.511 189.073 116.511L177.318 132.435Z" fill="#B78876"/>
<path d="M201.185 141.92C200.752 142.575 200.176 143.121 199.5 143.518C198.86 143.971 198.126 144.273 197.354 144.401C198.051 144.086 198.732 143.735 199.393 143.349C200.017 142.906 200.615 142.43 201.185 141.92Z" fill="#AA6550"/>
<path d="M153.928 132.497L155.452 159.899L186.531 157.787L185.592 137.389L181.065 131.264L153.928 132.497Z" fill="#403E48"/>
<path d="M146.865 160.509C146.957 161.036 149.597 185.853 149.597 185.853L195.853 182.624L203.68 181.568L200.07 158.459L194.543 157.126L146.865 160.509Z" fill="#81C27A"/>
<path opacity="0.4" d="M194.543 157.123L146.865 160.51C146.957 161.036 149.597 185.853 149.597 185.853L197.755 182.486L194.543 157.123Z" fill="#403E48"/>
<path d="M181.871 158.102L155.452 159.899L153.928 132.497L181.065 131.264L181.871 158.102Z" fill="#455A64"/>
<path d="M163.779 132.051L164.337 140.495L165.75 139.681L166.534 140.495L167.508 139.681L169.013 140.495V131.813L163.779 132.051Z" fill="#403E48"/>
<path d="M173.57 166.335L173.417 158.678L167.24 159.096L167.901 166.876L173.57 166.335Z" fill="#81C27A"/>
<path d="M193.714 170.357L183.344 171.347L184.214 180.567L194.585 179.578L193.714 170.357Z" fill="#FAFAFA"/>
<path d="M194.569 179.59C194.556 179.532 194.547 179.473 194.542 179.414C194.542 179.287 194.508 179.122 194.485 178.914C194.439 178.469 194.37 177.835 194.286 177.041C194.122 175.42 193.904 173.131 193.614 170.378L193.706 170.455L183.342 171.457C183.319 171.48 183.51 171.254 183.43 171.35V171.419V171.499V171.653L183.46 171.968L183.518 172.59C183.56 173.001 183.598 173.408 183.636 173.815C183.709 174.625 183.785 175.416 183.858 176.192C183.999 177.728 184.137 179.206 184.259 180.562L184.163 180.485L191.647 179.817L193.771 179.636L194.34 179.594C194.407 179.589 194.475 179.589 194.542 179.594C194.483 179.608 194.423 179.617 194.363 179.621L193.813 179.686L191.712 179.909L184.182 180.677H184.095V180.589C183.961 179.229 183.82 177.762 183.671 176.219C183.599 175.451 183.524 174.658 183.445 173.842C183.407 173.435 183.369 173.028 183.331 172.613C183.311 172.41 183.292 172.202 183.269 171.995L183.243 171.68V171.526V171.446V171.377C183.163 171.473 183.35 171.242 183.334 171.265L193.702 170.294H193.786V170.378C194.03 173.154 194.233 175.466 194.378 177.102C194.443 177.889 194.493 178.515 194.531 178.961C194.531 179.164 194.558 179.325 194.565 179.448C194.57 179.495 194.571 179.543 194.569 179.59Z" fill="#403E48"/>
<path d="M192.889 172.579C192.889 172.636 191.082 172.87 188.84 173.108C187.49 173.287 186.132 173.397 184.771 173.439C184.771 173.385 186.578 173.147 188.821 172.909C191.063 172.671 192.885 172.525 192.889 172.579Z" fill="#403E48"/>
<path d="M192.827 174.145C192.467 174.276 192.094 174.37 191.715 174.426C191.02 174.564 190.054 174.725 188.98 174.852C187.907 174.979 186.925 175.048 186.218 175.071C185.837 175.105 185.453 175.105 185.072 175.071C185.45 174.996 185.833 174.952 186.218 174.94C186.921 174.875 187.891 174.787 188.961 174.66C190.031 174.533 190.997 174.395 191.696 174.276C192.069 174.204 192.447 174.16 192.827 174.145Z" fill="#403E48"/>
<path d="M201.9 190.097C201.9 190.097 210.437 184.417 211.094 181.514C211.751 178.611 212.145 175.969 212.145 175.969L203.023 172.172L203.928 175.474C203.928 175.474 200.658 177.429 200.322 179.798C200.1 181.376 195.872 184.08 195.872 184.08C195.52 183.652 195.072 183.315 194.565 183.095C194.059 182.876 193.507 182.78 192.957 182.816L189.404 183.07L191.807 188.511L201.9 190.097Z" fill="#B78876"/>
<path d="M206.255 174.944C206.255 175.005 205.659 174.944 204.979 175.117C204.299 175.29 203.833 175.643 203.779 175.593C204.095 175.27 204.492 175.04 204.928 174.925C205.364 174.811 205.822 174.817 206.255 174.944Z" fill="#AA6550"/>
</g>
</g>
<path d="M37.72 211.7L39.42 209.9C40.36 208.92 41.06 208.04 41.54 207.28C42.02 206.5 42.26 205.68 42.26 204.78C42.26 202.38 40.32 200.56 37.68 200.56C34.86 200.56 33.02 202.68 33.02 204.92C33.02 205.3 33.06 205.68 33.16 206.04H35.88C35.82 205.64 35.78 205.32 35.78 205.08C35.78 203.88 36.52 203.06 37.64 203.06C38.76 203.06 39.48 203.86 39.48 205C39.48 205.98 38.92 206.9 37.62 208.32L32.9 213.44V214.02L42.64 214V211.7H37.72ZM44.6197 212.38C44.6197 213.44 45.4397 214.24 46.4997 214.24C47.5597 214.24 48.3397 213.44 48.3397 212.38C48.3397 211.34 47.5397 210.52 46.4997 210.52C45.4397 210.52 44.6197 211.34 44.6197 212.38ZM55.6506 207.4C55.5906 211.18 58.8306 214.32 62.7106 214.24C64.0906 214.24 65.3306 213.92 66.4306 213.26C67.5506 212.6 68.4106 211.72 69.0106 210.66V206.76H62.6706V209.1H66.3106V210.18C65.5706 211.2 64.3506 211.82 62.8306 211.82C60.2106 211.82 58.4306 209.96 58.4306 207.4C58.4306 204.88 60.1506 203.06 62.6706 203.06C64.1906 203.06 65.4106 203.7 66.3506 205L68.2706 203.42C66.9906 201.6 65.0306 200.56 62.7106 200.56C58.8106 200.5 55.5706 203.6 55.6506 207.4ZM80.272 209.96C80.392 209.46 80.452 208.96 80.452 208.48C80.452 205.9 78.532 203.88 75.792 203.88C72.932 203.82 70.552 206.2 70.612 209.06C70.552 211.92 72.972 214.3 76.032 214.24C77.492 214.24 78.812 213.74 79.992 212.76L78.872 210.92C78.012 211.58 77.092 211.92 76.112 211.92C74.672 211.92 73.652 211.22 73.332 209.96H80.272ZM73.332 208.06C73.632 206.84 74.552 206.06 75.692 206.06C76.872 206.06 77.812 206.84 77.832 208.06H73.332ZM88.9188 211.74C88.2188 211.8 87.7988 211.82 87.6388 211.82C86.3587 211.82 85.7988 211.4 85.7988 210.28V206.38H88.5988V204.1H85.7988V201.6H83.0988V204.1H81.5388V206.38H83.0988V210.52C83.0988 213 84.5588 214.24 87.0588 214.24C87.6588 214.24 88.2788 214.16 88.9188 214V211.74ZM98.6484 214H101.348V203.24H105.588V200.8H94.4284V203.24H98.6484V214ZM112.389 204.1C112.129 204.02 111.849 203.98 111.509 203.98C110.409 203.98 109.449 204.46 108.789 205.28V204.1H106.309V214H109.009V209.06C109.009 207.36 110.049 206.48 111.669 206.48H112.389V204.1ZM122.967 209.96C123.087 209.46 123.147 208.96 123.147 208.48C123.147 205.9 121.227 203.88 118.487 203.88C115.627 203.82 113.247 206.2 113.307 209.06C113.247 211.92 115.667 214.3 118.727 214.24C120.187 214.24 121.507 213.74 122.687 212.76L121.567 210.92C120.707 211.58 119.787 211.92 118.807 211.92C117.367 211.92 116.347 211.22 116.027 209.96H122.967ZM116.027 208.06C116.327 206.84 117.247 206.06 118.387 206.06C119.567 206.06 120.507 206.84 120.527 208.06H116.027ZM133.554 208.12C133.554 205.38 131.894 203.88 129.314 203.88C127.574 203.88 126.134 204.56 124.994 205.92L126.394 207.58C127.274 206.64 127.994 206.22 129.014 206.22C130.214 206.22 130.854 206.86 130.854 207.96V208.4H128.374C126.074 208.4 124.634 209.5 124.634 211.28C124.634 213.02 125.954 214.24 128.054 214.24C129.314 214.24 130.354 213.78 131.074 213.04V214H133.554V208.12ZM130.854 210.3C130.854 211.44 129.954 212.26 128.774 212.26C127.914 212.26 127.354 211.84 127.354 211.18C127.354 210.52 127.854 210.18 128.734 210.18H130.854V210.3ZM142.513 211.74C141.813 211.8 141.393 211.82 141.233 211.82C139.952 211.82 139.393 211.4 139.393 210.28V206.38H142.193V204.1H139.393V201.6H136.693V204.1H135.133V206.38H136.693V210.52C136.693 213 138.153 214.24 140.653 214.24C141.253 214.24 141.873 214.16 142.513 214V211.74ZM159.733 207.86C159.733 205.46 158.313 203.88 155.993 203.88C154.633 203.88 153.473 204.42 152.693 205.3C152.033 204.36 151.053 203.88 149.753 203.88C148.613 203.88 147.613 204.28 146.953 204.98V204.1H144.473V214H147.173V208.24C147.173 207.06 147.893 206.32 148.993 206.32C150.053 206.32 150.753 207.06 150.753 208.24V214H153.453V208.18C153.453 207.08 154.213 206.32 155.273 206.32C156.333 206.32 157.033 207.06 157.033 208.24V214H159.733V207.86ZM171.405 209.96C171.525 209.46 171.585 208.96 171.585 208.48C171.585 205.9 169.665 203.88 166.925 203.88C164.065 203.82 161.685 206.2 161.745 209.06C161.685 211.92 164.105 214.3 167.165 214.24C168.625 214.24 169.945 213.74 171.125 212.76L170.005 210.92C169.145 211.58 168.225 211.92 167.245 211.92C165.805 211.92 164.785 211.22 164.465 209.96H171.405ZM164.465 208.06C164.765 206.84 165.685 206.06 166.825 206.06C168.005 206.06 168.945 206.84 168.965 208.06H164.465ZM182.792 207.86C182.792 205.46 181.372 203.88 179.072 203.88C177.892 203.88 176.872 204.3 176.172 205V204.1H173.692V214H176.392V208.22C176.392 207.08 177.172 206.3 178.272 206.3C179.372 206.3 180.112 207.08 180.112 208.22V214H182.792V207.86ZM191.751 211.74C191.051 211.8 190.631 211.82 190.471 211.82C189.191 211.82 188.631 211.4 188.631 210.28V206.38H191.431V204.1H188.631V201.6H185.931V204.1H184.371V206.38H185.931V210.52C185.931 213 187.391 214.24 189.891 214.24C190.491 214.24 191.111 214.16 191.751 214V211.74Z" fill="#403E48"/>
<path d="M41.696 245L38.32 240.424C39.712 240.024 40.544 238.92 40.544 237.496C40.544 235.72 39.216 234.44 37.168 234.44H33.456V245H34.704V240.568H36.96L40.24 245H41.696ZM34.704 235.56H37.12C38.464 235.56 39.248 236.36 39.248 237.512C39.248 238.68 38.48 239.448 37.12 239.448H34.704V235.56ZM49.9588 241.48C50.0228 241.16 50.0548 240.856 50.0548 240.552C50.0548 238.488 48.5188 237.032 46.5028 237.032C44.2788 237.032 42.5188 238.856 42.5188 241.112C42.5188 243.4 44.3268 245.176 46.6468 245.176C47.8788 245.176 48.9508 244.664 49.7668 243.816L49.0468 242.984C48.3428 243.688 47.5428 244.04 46.6628 244.04C45.1268 244.04 43.9428 243.016 43.7988 241.48H49.9588ZM43.8468 240.392C44.1188 239.048 45.1748 238.152 46.4708 238.152C47.7668 238.152 48.7748 239 48.7908 240.392H43.8468ZM51.6594 241.096C51.6594 243.352 53.4834 245.176 55.7394 245.176C57.0994 245.176 58.2354 244.52 58.9394 243.48L58.0594 242.792C57.4354 243.624 56.6674 244.04 55.7554 244.04C54.1394 244.04 52.9234 242.728 52.9234 241.096C52.9234 239.48 54.1394 238.168 55.7554 238.168C56.6674 238.168 57.4514 238.584 58.0754 239.432L58.9554 238.728C58.2514 237.688 57.0994 237.032 55.7394 237.032C53.5154 237 51.6114 238.872 51.6594 241.096ZM67.7556 241.48C67.8196 241.16 67.8516 240.856 67.8516 240.552C67.8516 238.488 66.3156 237.032 64.2996 237.032C62.0756 237.032 60.3156 238.856 60.3156 241.112C60.3156 243.4 62.1236 245.176 64.4436 245.176C65.6756 245.176 66.7476 244.664 67.5636 243.816L66.8436 242.984C66.1396 243.688 65.3396 244.04 64.4596 244.04C62.9236 244.04 61.7396 243.016 61.5956 241.48H67.7556ZM61.6436 240.392C61.9156 239.048 62.9716 238.152 64.2676 238.152C65.5636 238.152 66.5716 239 66.5876 240.392H61.6436ZM70.0163 245H71.2483V237.208H70.0163V245ZM69.7122 234.232C69.7122 234.744 70.1283 235.128 70.6403 235.128C71.1523 235.128 71.5523 234.744 71.5523 234.232C71.5523 233.736 71.1363 233.336 70.6403 233.336C70.1283 233.336 69.7122 233.736 69.7122 234.232ZM79.4898 237.208L76.9138 243.08L74.3218 237.208H73.0098L76.6898 245.176H77.1378L80.8018 237.208H79.4898ZM89.1463 241.48C89.2103 241.16 89.2423 240.856 89.2423 240.552C89.2423 238.488 87.7063 237.032 85.6903 237.032C83.4663 237.032 81.7063 238.856 81.7063 241.112C81.7063 243.4 83.5143 245.176 85.8343 245.176C87.0663 245.176 88.1383 244.664 88.9543 243.816L88.2343 242.984C87.5303 243.688 86.7303 244.04 85.8503 244.04C84.3143 244.04 83.1303 243.016 82.9863 241.48H89.1463ZM83.0343 240.392C83.3063 239.048 84.3623 238.152 85.6583 238.152C86.9543 238.152 87.9623 239 87.9783 240.392H83.0343ZM101.427 237.208L98.8513 243.416L96.2753 237.208H94.9473L98.1793 244.76L97.7633 245.688C97.3633 246.632 96.8193 246.936 96.0033 246.936C95.7793 246.936 95.4593 246.904 95.0592 246.856V247.896C95.4593 248.008 95.8593 248.056 96.2593 248.056C97.4593 248.056 98.3073 247.448 98.8993 246.088L102.739 237.208H101.427ZM103.644 241.096C103.612 243.288 105.484 245.208 107.708 245.16C109.932 245.208 111.852 243.288 111.804 241.096C111.852 238.872 109.948 237 107.724 237.032C105.5 236.984 103.596 238.872 103.644 241.096ZM110.54 241.112C110.54 242.744 109.292 244.024 107.708 244.024C106.124 244.024 104.908 242.744 104.908 241.112C104.908 239.432 106.124 238.168 107.724 238.168C109.308 238.168 110.54 239.432 110.54 241.112ZM113.873 241.896C113.873 243.864 115.281 245.176 117.105 245.176C118.913 245.176 120.321 243.864 120.321 241.896V237.208H119.089V241.976C119.089 243.208 118.241 244.04 117.105 244.04C115.953 244.04 115.089 243.24 115.089 241.976V237.208H113.873V241.896ZM127.067 237.208C126.859 237.16 126.667 237.144 126.491 237.144C125.547 237.144 124.635 237.56 124.075 238.312V237.208H122.923V245H124.155V240.584C124.155 239.144 125.291 238.296 126.603 238.296H127.067V237.208ZM137.46 243.96C137.06 244.024 136.724 244.056 136.42 244.056C135.348 244.056 134.772 243.672 134.772 242.568V238.312H137.204V237.208H134.772V235.08H133.54V237.208H132.228V238.312H133.54V242.648C133.54 244.36 134.548 245.176 136.164 245.176C136.532 245.176 136.964 245.112 137.46 245V243.96ZM143.442 237.208C143.234 237.16 143.042 237.144 142.866 237.144C141.922 237.144 141.01 237.56 140.45 238.312V237.208H139.298V245H140.53V240.584C140.53 239.144 141.666 238.296 142.978 238.296H143.442V237.208ZM151.818 241.48C151.882 241.16 151.914 240.856 151.914 240.552C151.914 238.488 150.378 237.032 148.362 237.032C146.138 237.032 144.378 238.856 144.378 241.112C144.378 243.4 146.186 245.176 148.506 245.176C149.738 245.176 150.81 244.664 151.626 243.816L150.906 242.984C150.202 243.688 149.402 244.04 148.522 244.04C146.986 244.04 145.802 243.016 145.658 241.48H151.818ZM145.706 240.392C145.978 239.048 147.034 238.152 148.33 238.152C149.626 238.152 150.634 239 150.65 240.392H145.706ZM159.919 240.2C159.919 238.152 158.719 237.032 156.879 237.032C155.583 237.032 154.415 237.592 153.711 238.744L154.527 239.416C155.167 238.584 155.855 238.168 156.799 238.168C157.967 238.168 158.687 238.856 158.687 240.136V240.808H156.223C154.543 240.808 153.423 241.656 153.423 242.984C153.423 244.328 154.543 245.176 156.143 245.176C157.279 245.176 158.191 244.76 158.767 243.992V245H159.919V240.2ZM158.687 242.008C158.687 243.208 157.583 244.152 156.303 244.152C155.391 244.152 154.687 243.704 154.687 242.92C154.687 242.2 155.279 241.816 156.367 241.816H158.687V242.008ZM166.788 243.96C166.388 244.024 166.052 244.056 165.748 244.056C164.676 244.056 164.1 243.672 164.1 242.568V238.312H166.532V237.208H164.1V235.08H162.868V237.208H161.556V238.312H162.868V242.648C162.868 244.36 163.876 245.176 165.492 245.176C165.86 245.176 166.292 245.112 166.788 245V243.96ZM180.002 240.104C180.002 238.248 178.962 237.032 177.17 237.032C176.018 237.032 175.074 237.56 174.498 238.376C174.05 237.528 173.234 237.032 172.098 237.032C171.138 237.032 170.338 237.384 169.778 238.024V237.208H168.626V245H169.858V240.264C169.858 239.032 170.674 238.168 171.842 238.168C172.978 238.168 173.698 239 173.698 240.264V245H174.93V240.152C174.93 239.048 175.762 238.168 176.93 238.168C178.082 238.168 178.77 239 178.77 240.264V245H180.002V240.104ZM189.49 241.48C189.554 241.16 189.586 240.856 189.586 240.552C189.586 238.488 188.05 237.032 186.034 237.032C183.81 237.032 182.05 238.856 182.05 241.112C182.05 243.4 183.858 245.176 186.178 245.176C187.41 245.176 188.482 244.664 189.298 243.816L188.578 242.984C187.874 243.688 187.074 244.04 186.194 244.04C184.658 244.04 183.474 243.016 183.33 241.48H189.49ZM183.378 240.392C183.65 239.048 184.706 238.152 186.002 238.152C187.298 238.152 188.306 239 188.322 240.392H183.378ZM198.199 240.104C198.199 238.264 197.111 237.032 195.303 237.032C194.327 237.032 193.479 237.4 192.903 238.04V237.208H191.751V245H192.983V240.248C192.983 239.032 193.831 238.168 195.031 238.168C196.231 238.168 196.967 239.016 196.967 240.248V245H198.199V240.104ZM205.069 243.96C204.669 244.024 204.333 244.056 204.029 244.056C202.957 244.056 202.381 243.672 202.381 242.568V238.312H204.813V237.208H202.381V235.08H201.149V237.208H199.837V238.312H201.149V242.648C201.149 244.36 202.157 245.176 203.773 245.176C204.141 245.176 204.573 245.112 205.069 245V243.96ZM219.343 241.096C219.343 238.808 217.711 237.032 215.487 237.032C214.271 237.032 213.135 237.56 212.543 238.456V237.208H211.391V247.88H212.623V243.88C213.263 244.696 214.335 245.176 215.487 245.176C217.679 245.176 219.343 243.384 219.343 241.096ZM218.079 241.112C218.079 242.792 216.895 244.04 215.311 244.04C213.871 244.04 212.607 243.08 212.607 241.096C212.607 239.128 213.919 238.168 215.311 238.168C216.895 238.168 218.079 239.432 218.079 241.112ZM221.501 245H222.733V233H221.501V245ZM231.278 240.2C231.278 238.152 230.078 237.032 228.238 237.032C226.942 237.032 225.774 237.592 225.07 238.744L225.886 239.416C226.526 238.584 227.214 238.168 228.158 238.168C229.326 238.168 230.046 238.856 230.046 240.136V240.808H227.582C225.902 240.808 224.782 241.656 224.782 242.984C224.782 244.328 225.902 245.176 227.502 245.176C228.638 245.176 229.55 244.76 230.126 243.992V245H231.278V240.2ZM230.046 242.008C230.046 243.208 228.942 244.152 227.662 244.152C226.75 244.152 226.046 243.704 226.046 242.92C226.046 242.2 226.638 241.816 227.726 241.816H230.046V242.008ZM240.339 240.104C240.339 238.264 239.251 237.032 237.443 237.032C236.467 237.032 235.619 237.4 235.043 238.04V237.208H233.891V245H235.123V240.248C235.123 239.032 235.971 238.168 237.171 238.168C238.371 238.168 239.107 239.016 239.107 240.248V245H240.339V240.104ZM37.504 261.208C37.296 261.16 37.104 261.144 36.928 261.144C35.984 261.144 35.072 261.56 34.512 262.312V261.208H33.36V269H34.592V264.584C34.592 263.144 35.728 262.296 37.04 262.296H37.504V261.208ZM39.1569 269H40.3889V261.208H39.1569V269ZM38.8529 258.232C38.8529 258.744 39.2689 259.128 39.7809 259.128C40.2929 259.128 40.6929 258.744 40.6929 258.232C40.6929 257.736 40.2769 257.336 39.7809 257.336C39.2689 257.336 38.8529 257.736 38.8529 258.232ZM49.4144 261.208V262.456C48.8224 261.56 47.6864 261.032 46.4544 261.032C44.2624 261.032 42.6304 262.744 42.6304 264.984C42.6304 267.24 44.2624 268.92 46.4544 268.92C47.6224 268.92 48.7264 268.44 49.3504 267.624V268.312C49.3504 269.992 48.3744 270.92 46.7584 270.92C45.5904 270.92 44.7264 270.456 43.8464 269.688L43.1264 270.552C44.0064 271.432 45.2704 272.056 46.7904 272.056C49.0944 272.056 50.5824 270.616 50.5824 268.248V261.208H49.4144ZM49.3664 264.984C49.3664 266.872 48.0704 267.784 46.6464 267.784C45.0624 267.784 43.8784 266.648 43.8784 265C43.8784 263.368 45.0624 262.2 46.6464 262.2C48.0544 262.2 49.3664 263.112 49.3664 264.984ZM59.7299 264.104C59.7299 262.264 58.6419 261.032 56.8499 261.032C55.8739 261.032 55.0419 261.432 54.5139 262.088V257H53.2819V269H54.5139V264.264C54.5139 263.048 55.3619 262.168 56.5619 262.168C57.7619 262.168 58.4979 263 58.4979 264.264V269H59.7299V264.104ZM66.6004 267.96C66.2004 268.024 65.8644 268.056 65.5604 268.056C64.4884 268.056 63.9124 267.672 63.9124 266.568V262.312H66.3444V261.208H63.9124V259.08H62.6804V261.208H61.3684V262.312H62.6804V266.648C62.6804 268.36 63.6884 269.176 65.3044 269.176C65.6724 269.176 66.1044 269.112 66.6004 269V267.96ZM77.1785 267.96C76.7785 268.024 76.4425 268.056 76.1385 268.056C75.0665 268.056 74.4905 267.672 74.4905 266.568V262.312H76.9225V261.208H74.4905V259.08H73.2585V261.208H71.9465V262.312H73.2585V266.648C73.2585 268.36 74.2665 269.176 75.8825 269.176C76.2505 269.176 76.6825 269.112 77.1785 269V267.96ZM78.3 265.096C78.268 267.288 80.14 269.208 82.364 269.16C84.588 269.208 86.508 267.288 86.46 265.096C86.508 262.872 84.604 261 82.38 261.032C80.156 260.984 78.252 262.872 78.3 265.096ZM85.196 265.112C85.196 266.744 83.948 268.024 82.364 268.024C80.78 268.024 79.564 266.744 79.564 265.112C79.564 263.432 80.78 262.168 82.38 262.168C83.964 262.168 85.196 263.432 85.196 265.112ZM98.646 261.208L96.07 267.416L93.494 261.208H92.166L95.398 268.76L94.982 269.688C94.582 270.632 94.038 270.936 93.222 270.936C92.998 270.936 92.678 270.904 92.278 270.856V271.896C92.678 272.008 93.078 272.056 93.478 272.056C94.678 272.056 95.526 271.448 96.118 270.088L99.958 261.208H98.646ZM100.863 265.096C100.831 267.288 102.703 269.208 104.927 269.16C107.151 269.208 109.071 267.288 109.023 265.096C109.071 262.872 107.167 261 104.943 261.032C102.719 260.984 100.815 262.872 100.863 265.096ZM107.759 265.112C107.759 266.744 106.511 268.024 104.927 268.024C103.343 268.024 102.127 266.744 102.127 265.112C102.127 263.432 103.343 262.168 104.943 262.168C106.527 262.168 107.759 263.432 107.759 265.112ZM111.092 265.896C111.092 267.864 112.5 269.176 114.324 269.176C116.132 269.176 117.54 267.864 117.54 265.896V261.208H116.308V265.976C116.308 267.208 115.46 268.04 114.324 268.04C113.172 268.04 112.308 267.24 112.308 265.976V261.208H111.092V265.896ZM124.285 261.208C124.077 261.16 123.885 261.144 123.709 261.144C122.765 261.144 121.853 261.56 121.293 262.312V261.208H120.141V269H121.373V264.584C121.373 263.144 122.509 262.296 123.821 262.296H124.285V261.208ZM136.871 264.104C136.871 262.264 135.783 261.032 133.991 261.032C133.015 261.032 132.183 261.432 131.655 262.088V257H130.423V269H131.655V264.264C131.655 263.048 132.503 262.168 133.703 262.168C134.903 262.168 135.639 263 135.639 264.264V269H136.871V264.104ZM138.925 265.096C138.893 267.288 140.765 269.208 142.989 269.16C145.213 269.208 147.133 267.288 147.085 265.096C147.133 262.872 145.229 261 143.005 261.032C140.781 260.984 138.877 262.872 138.925 265.096ZM145.821 265.112C145.821 266.744 144.573 268.024 142.989 268.024C141.405 268.024 140.189 266.744 140.189 265.112C140.189 263.432 141.405 262.168 143.005 262.168C144.589 262.168 145.821 263.432 145.821 265.112ZM149.155 265.896C149.155 267.864 150.563 269.176 152.387 269.176C154.195 269.176 155.603 267.864 155.603 265.896V261.208H154.371V265.976C154.371 267.208 153.523 268.04 152.387 268.04C151.235 268.04 150.371 267.24 150.371 265.976V261.208H149.155V265.896ZM157.468 267.656C158.156 268.552 159.212 269.176 160.508 269.176C161.276 269.176 161.916 268.984 162.444 268.584C162.972 268.184 163.244 267.608 163.244 266.888C163.244 265.816 162.636 265.208 161.18 264.584L160.46 264.28C159.516 263.88 159.196 263.64 159.196 263.144C159.196 262.52 159.724 262.168 160.492 262.168C161.212 262.168 161.884 262.504 162.412 263.032L163.164 262.264C162.524 261.496 161.644 261.032 160.556 261.032C159.068 261.032 157.932 261.848 157.932 263.208C157.932 264.248 158.572 264.84 159.868 265.368L160.62 265.688C161.58 266.072 161.98 266.312 161.98 266.936C161.98 267.624 161.34 268.04 160.492 268.04C159.612 268.04 159.004 267.608 158.252 266.84L157.468 267.656ZM172.349 265.48C172.413 265.16 172.445 264.856 172.445 264.552C172.445 262.488 170.909 261.032 168.893 261.032C166.669 261.032 164.909 262.856 164.909 265.112C164.909 267.4 166.717 269.176 169.037 269.176C170.269 269.176 171.341 268.664 172.157 267.816L171.437 266.984C170.733 267.688 169.933 268.04 169.053 268.04C167.517 268.04 166.333 267.016 166.189 265.48H172.349ZM166.237 264.392C166.509 263.048 167.565 262.152 168.861 262.152C170.157 262.152 171.165 263 171.181 264.392H166.237ZM178.534 265.096C178.502 267.288 180.374 269.208 182.598 269.16C184.822 269.208 186.742 267.288 186.694 265.096C186.742 262.872 184.838 261 182.614 261.032C180.39 260.984 178.486 262.872 178.534 265.096ZM185.43 265.112C185.43 266.744 184.182 268.024 182.598 268.024C181.014 268.024 179.798 266.744 179.798 265.112C179.798 263.432 181.014 262.168 182.614 262.168C184.198 262.168 185.43 263.432 185.43 265.112ZM193.004 261.208C192.796 261.16 192.604 261.144 192.428 261.144C191.484 261.144 190.572 261.56 190.012 262.312V261.208H188.86V269H190.092V264.584C190.092 263.144 191.228 262.296 192.54 262.296H193.004V261.208ZM207.093 265.096C207.093 262.808 205.461 261.032 203.237 261.032C202.021 261.032 200.885 261.56 200.293 262.456V261.208H199.141V271.88H200.373V267.88C201.013 268.696 202.085 269.176 203.237 269.176C205.429 269.176 207.093 267.384 207.093 265.096ZM205.829 265.112C205.829 266.792 204.645 268.04 203.061 268.04C201.621 268.04 200.357 267.08 200.357 265.096C200.357 263.128 201.669 262.168 203.061 262.168C204.645 262.168 205.829 263.432 205.829 265.112ZM209.251 269H210.483V261.208H209.251V269ZM208.947 258.232C208.947 258.744 209.363 259.128 209.875 259.128C210.387 259.128 210.787 258.744 210.787 258.232C210.787 257.736 210.371 257.336 209.875 257.336C209.363 257.336 208.947 257.736 208.947 258.232ZM212.628 265.096C212.628 267.352 214.452 269.176 216.708 269.176C218.068 269.176 219.204 268.52 219.908 267.48L219.028 266.792C218.404 267.624 217.636 268.04 216.724 268.04C215.108 268.04 213.892 266.728 213.892 265.096C213.892 263.48 215.108 262.168 216.724 262.168C217.636 262.168 218.42 262.584 219.044 263.432L219.924 262.728C219.22 261.688 218.068 261.032 216.708 261.032C214.484 261 212.58 262.872 212.628 265.096ZM222.001 269H223.233V257H222.001V269ZM224.849 264.632L228.225 261.208H226.609L223.361 264.616L226.945 269H228.529L224.849 264.632ZM234.579 269H235.811V261.208H234.579V269ZM234.275 258.232C234.275 258.744 234.691 259.128 235.203 259.128C235.715 259.128 236.115 258.744 236.115 258.232C236.115 257.736 235.699 257.336 235.203 257.336C234.691 257.336 234.275 257.736 234.275 258.232ZM242.772 267.96C242.372 268.024 242.036 268.056 241.732 268.056C240.66 268.056 240.084 267.672 240.084 266.568V262.312H242.516V261.208H240.084V259.08H238.852V261.208H237.54V262.312H238.852V266.648C238.852 268.36 239.86 269.176 241.476 269.176C241.844 269.176 242.276 269.112 242.772 269V267.96ZM33.264 289.896C33.264 291.864 34.672 293.176 36.496 293.176C38.304 293.176 39.712 291.864 39.712 289.896V285.208H38.48V289.976C38.48 291.208 37.632 292.04 36.496 292.04C35.344 292.04 34.48 291.24 34.48 289.976V285.208H33.264V289.896ZM50.2651 289.096C50.2651 286.808 48.6331 285.032 46.4091 285.032C45.1931 285.032 44.0571 285.56 43.4651 286.456V285.208H42.3131V295.88H43.5451V291.88C44.1851 292.696 45.2571 293.176 46.4091 293.176C48.6011 293.176 50.2651 291.384 50.2651 289.096ZM49.0011 289.112C49.0011 290.792 47.8171 292.04 46.2331 292.04C44.7931 292.04 43.5291 291.08 43.5291 289.096C43.5291 287.128 44.8411 286.168 46.2331 286.168C47.8171 286.168 49.0011 287.432 49.0011 289.112ZM62.7469 288.2C62.7469 286.152 61.5469 285.032 59.7069 285.032C58.4109 285.032 57.2429 285.592 56.5389 286.744L57.3549 287.416C57.9949 286.584 58.6829 286.168 59.6269 286.168C60.7949 286.168 61.5149 286.856 61.5149 288.136V288.808H59.0509C57.3709 288.808 56.2509 289.656 56.2509 290.984C56.2509 292.328 57.3709 293.176 58.9709 293.176C60.1069 293.176 61.0189 292.76 61.5949 291.992V293H62.7469V288.2ZM61.5149 290.008C61.5149 291.208 60.4109 292.152 59.1309 292.152C58.2189 292.152 57.5149 291.704 57.5149 290.92C57.5149 290.2 58.1069 289.816 59.1949 289.816H61.5149V290.008ZM69.616 291.96C69.216 292.024 68.88 292.056 68.576 292.056C67.504 292.056 66.928 291.672 66.928 290.568V286.312H69.36V285.208H66.928V283.08H65.696V285.208H64.384V286.312H65.696V290.648C65.696 292.36 66.704 293.176 68.32 293.176C68.688 293.176 69.12 293.112 69.616 293V291.96ZM81.4741 285.208L78.8981 291.416L76.3221 285.208H74.9941L78.2261 292.76L77.8101 293.688C77.4101 294.632 76.8661 294.936 76.0501 294.936C75.8261 294.936 75.5061 294.904 75.1061 294.856V295.896C75.5061 296.008 75.9061 296.056 76.3061 296.056C77.5061 296.056 78.3541 295.448 78.9461 294.088L82.7861 285.208H81.4741ZM83.6906 289.096C83.6586 291.288 85.5306 293.208 87.7546 293.16C89.9786 293.208 91.8986 291.288 91.8506 289.096C91.8986 286.872 89.9946 285 87.7706 285.032C85.5466 284.984 83.6426 286.872 83.6906 289.096ZM90.5866 289.112C90.5866 290.744 89.3386 292.024 87.7546 292.024C86.1706 292.024 84.9546 290.744 84.9546 289.112C84.9546 287.432 86.1706 286.168 87.7706 286.168C89.3546 286.168 90.5866 287.432 90.5866 289.112ZM93.9203 289.896C93.9203 291.864 95.3283 293.176 97.1523 293.176C98.9603 293.176 100.368 291.864 100.368 289.896V285.208H99.1363V289.976C99.1363 291.208 98.2883 292.04 97.1523 292.04C96.0003 292.04 95.1363 291.24 95.1363 289.976V285.208H93.9203V289.896ZM107.113 285.208C106.905 285.16 106.713 285.144 106.537 285.144C105.593 285.144 104.681 285.56 104.121 286.312V285.208H102.969V293H104.201V288.584C104.201 287.144 105.337 286.296 106.649 286.296H107.113V285.208ZM113.251 293H114.483V281H113.251V293ZM116.628 289.096C116.596 291.288 118.468 293.208 120.692 293.16C122.916 293.208 124.836 291.288 124.788 289.096C124.836 286.872 122.932 285 120.708 285.032C118.484 284.984 116.58 286.872 116.628 289.096ZM123.524 289.112C123.524 290.744 122.276 292.024 120.692 292.024C119.108 292.024 117.892 290.744 117.892 289.112C117.892 287.432 119.108 286.168 120.708 286.168C122.292 286.168 123.524 287.432 123.524 289.112ZM126.394 289.096C126.394 291.352 128.218 293.176 130.474 293.176C131.834 293.176 132.97 292.52 133.674 291.48L132.794 290.792C132.17 291.624 131.402 292.04 130.49 292.04C128.874 292.04 127.658 290.728 127.658 289.096C127.658 287.48 128.874 286.168 130.49 286.168C131.402 286.168 132.186 286.584 132.81 287.432L133.69 286.728C132.986 285.688 131.834 285.032 130.474 285.032C128.25 285 126.346 286.872 126.394 289.096ZM141.606 288.2C141.606 286.152 140.406 285.032 138.566 285.032C137.27 285.032 136.102 285.592 135.398 286.744L136.214 287.416C136.854 286.584 137.542 286.168 138.486 286.168C139.654 286.168 140.374 286.856 140.374 288.136V288.808H137.91C136.23 288.808 135.11 289.656 135.11 290.984C135.11 292.328 136.23 293.176 137.83 293.176C138.966 293.176 139.878 292.76 140.454 291.992V293H141.606V288.2ZM140.374 290.008C140.374 291.208 139.27 292.152 137.99 292.152C137.078 292.152 136.374 291.704 136.374 290.92C136.374 290.2 136.966 289.816 138.054 289.816H140.374V290.008ZM144.219 293H145.451V281H144.219V293ZM160.593 289.096C160.593 286.808 158.961 285.032 156.737 285.032C155.521 285.032 154.385 285.56 153.793 286.456V285.208H152.641V295.88H153.873V291.88C154.513 292.696 155.585 293.176 156.737 293.176C158.929 293.176 160.593 291.384 160.593 289.096ZM159.329 289.112C159.329 290.792 158.145 292.04 156.561 292.04C155.121 292.04 153.857 291.08 153.857 289.096C153.857 287.128 155.169 286.168 156.561 286.168C158.145 286.168 159.329 287.432 159.329 289.112ZM169.199 288.104C169.199 286.264 168.111 285.032 166.319 285.032C165.343 285.032 164.511 285.432 163.983 286.088V281H162.751V293H163.983V288.264C163.983 287.048 164.831 286.168 166.031 286.168C167.231 286.168 167.967 287 167.967 288.264V293H169.199V288.104ZM177.653 288.2C177.653 286.152 176.453 285.032 174.613 285.032C173.317 285.032 172.149 285.592 171.445 286.744L172.261 287.416C172.901 286.584 173.589 286.168 174.533 286.168C175.701 286.168 176.421 286.856 176.421 288.136V288.808H173.957C172.277 288.808 171.157 289.656 171.157 290.984C171.157 292.328 172.277 293.176 173.877 293.176C175.013 293.176 175.925 292.76 176.501 291.992V293H177.653V288.2ZM176.421 290.008C176.421 291.208 175.317 292.152 174.037 292.152C173.125 292.152 172.421 291.704 172.421 290.92C172.421 290.2 173.013 289.816 174.101 289.816H176.421V290.008ZM184.41 285.208C184.202 285.16 184.01 285.144 183.834 285.144C182.89 285.144 181.978 285.56 181.418 286.312V285.208H180.266V293H181.498V288.584C181.498 287.144 182.634 286.296 183.946 286.296H184.41V285.208ZM197.439 288.104C197.439 286.248 196.399 285.032 194.607 285.032C193.455 285.032 192.511 285.56 191.935 286.376C191.487 285.528 190.671 285.032 189.535 285.032C188.575 285.032 187.775 285.384 187.215 286.024V285.208H186.063V293H187.295V288.264C187.295 287.032 188.111 286.168 189.279 286.168C190.415 286.168 191.135 287 191.135 288.264V293H192.367V288.152C192.367 287.048 193.199 286.168 194.367 286.168C195.519 286.168 196.207 287 196.207 288.264V293H197.439V288.104ZM205.888 288.2C205.888 286.152 204.688 285.032 202.848 285.032C201.552 285.032 200.384 285.592 199.68 286.744L200.496 287.416C201.136 286.584 201.824 286.168 202.768 286.168C203.936 286.168 204.656 286.856 204.656 288.136V288.808H202.192C200.512 288.808 199.392 289.656 199.392 290.984C199.392 292.328 200.512 293.176 202.112 293.176C203.248 293.176 204.16 292.76 204.736 291.992V293H205.888V288.2ZM204.656 290.008C204.656 291.208 203.552 292.152 202.272 292.152C201.36 292.152 200.656 291.704 200.656 290.92C200.656 290.2 201.248 289.816 202.336 289.816H204.656V290.008ZM207.941 289.096C207.941 291.352 209.765 293.176 212.021 293.176C213.381 293.176 214.517 292.52 215.221 291.48L214.341 290.792C213.717 291.624 212.949 292.04 212.037 292.04C210.421 292.04 209.205 290.728 209.205 289.096C209.205 287.48 210.421 286.168 212.037 286.168C212.949 286.168 213.733 286.584 214.357 287.432L215.237 286.728C214.533 285.688 213.381 285.032 212.021 285.032C209.797 285 207.893 286.872 207.941 289.096ZM222.849 285.208L220.273 291.416L217.697 285.208H216.369L219.601 292.76L219.185 293.688C218.785 294.632 218.241 294.936 217.425 294.936C217.201 294.936 216.881 294.904 216.481 294.856V295.896C216.881 296.008 217.281 296.056 217.681 296.056C218.881 296.056 219.729 295.448 220.321 294.088L224.161 285.208H222.849ZM224.685 292.168C224.685 292.744 225.133 293.176 225.693 293.176C226.253 293.176 226.701 292.744 226.701 292.168C226.701 291.592 226.253 291.16 225.693 291.16C225.133 291.16 224.685 291.592 224.685 292.168Z" fill="#6C6A7C"/>
<rect x="12.75" y="0.75" width="268.5" height="318.5" rx="19.25" stroke="#F2F4F7" stroke-width="1.5"/>
</g>
<defs>
<filter id="filter0_dd_2274_14039" x="0" y="0" width="294" height="344" filterUnits="userSpaceOnUse" color-interpolation-filters="sRGB">
<feFlood flood-opacity="0" result="BackgroundImageFix"/>
<feColorMatrix in="SourceAlpha" type="matrix" values="0 0 0 0 0 0 0 0 0 0 0 0 0 0 0 0 0 0 127 0" result="hardAlpha"/>
<feMorphology radius="2" operator="erode" in="SourceAlpha" result="effect1_dropShadow_2274_14039"/>
<feOffset dy="4"/>
<feGaussianBlur stdDeviation="3"/>
<feColorMatrix type="matrix" values="0 0 0 0 0.192157 0 0 0 0 0.2 0 0 0 0 0.215686 0 0 0 0.05 0"/>
<feBlend mode="normal" in2="BackgroundImageFix" result="effect1_dropShadow_2274_14039"/>
<feColorMatrix in="SourceAlpha" type="matrix" values="0 0 0 0 0 0 0 0 0 0 0 0 0 0 0 0 0 0 127 0" result="hardAlpha"/>
<feMorphology radius="4" operator="erode" in="SourceAlpha" result="effect2_dropShadow_2274_14039"/>
<feOffset dy="12"/>
<feGaussianBlur stdDeviation="8"/>
<feColorMatrix type="matrix" values="0 0 0 0 0.192157 0 0 0 0 0.2 0 0 0 0 0.215686 0 0 0 0.1 0"/>
<feBlend mode="normal" in2="effect1_dropShadow_2274_14039" result="effect2_dropShadow_2274_14039"/>
<feBlend mode="normal" in="SourceGraphic" in2="effect2_dropShadow_2274_14039" result="shape"/>
</filter>
<clipPath id="clip0_2274_14039">
<rect x="32" y="20" width="230" height="155" rx="12" fill="white"/>
</clipPath>
<clipPath id="clip1_2274_14039">
<rect width="191" height="192" fill="white" transform="translate(52 28)"/>
</clipPath>
</defs>
</svg>
