<svg width="149" height="28" viewBox="0 0 149 28" fill="none" xmlns="http://www.w3.org/2000/svg">
<path d="M17.6277 1.04229V20.2971H12.9375V12.3703H5.64146V20.2971H0.951172V1.04229H5.64146V8.58514H12.9375V1.04229H17.6277Z" fill="#403E48"/>
<path d="M27.9805 20.5166C26.4811 20.5166 25.128 20.1966 23.9211 19.5566C22.7325 18.9166 21.7908 18.0023 21.096 16.8137C20.4194 15.6251 20.0811 14.2354 20.0811 12.6446C20.0811 11.072 20.4285 9.69143 21.1234 8.50286C21.8182 7.296 22.7691 6.37257 23.976 5.73257C25.1828 5.09257 26.536 4.77257 28.0354 4.77257C29.5348 4.77257 30.888 5.09257 32.0948 5.73257C33.3017 6.37257 34.2525 7.296 34.9474 8.50286C35.6422 9.69143 35.9897 11.072 35.9897 12.6446C35.9897 14.2171 35.6331 15.6069 34.92 16.8137C34.2251 18.0023 33.2651 18.9166 32.04 19.5566C30.8331 20.1966 29.48 20.5166 27.9805 20.5166ZM27.9805 16.4571C28.8765 16.4571 29.6354 16.128 30.2571 15.4697C30.8971 14.8114 31.2171 13.8697 31.2171 12.6446C31.2171 11.4194 30.9062 10.4777 30.2845 9.81943C29.6811 9.16114 28.9314 8.832 28.0354 8.832C27.1211 8.832 26.3622 9.16114 25.7588 9.81943C25.1554 10.4594 24.8537 11.4011 24.8537 12.6446C24.8537 13.8697 25.1462 14.8114 25.7314 15.4697C26.3348 16.128 27.0845 16.4571 27.9805 16.4571Z" fill="#403E48"/>
<path d="M47.8037 4.82743C49.5957 4.82743 51.0219 5.41257 52.0825 6.58286C53.1614 7.73486 53.7008 9.32572 53.7008 11.3554V20.2971H49.038V11.9863C49.038 10.9623 48.7728 10.1669 48.2425 9.6C47.7122 9.03314 46.9991 8.74971 46.1031 8.74971C45.2071 8.74971 44.494 9.03314 43.9637 9.6C43.4334 10.1669 43.1682 10.9623 43.1682 11.9863V20.2971H38.478V4.992H43.1682V7.02171C43.6437 6.34514 44.2837 5.81486 45.0882 5.43086C45.8928 5.02857 46.798 4.82743 47.8037 4.82743Z" fill="#403E48"/>
<path d="M71.3875 12.3977C71.3875 12.8366 71.3601 13.2937 71.3052 13.7691H60.6904C60.7635 14.72 61.0652 15.4514 61.5955 15.9634C62.1441 16.4571 62.8115 16.704 63.5978 16.704C64.7681 16.704 65.5818 16.2103 66.0389 15.2229H71.031C70.775 16.2286 70.3087 17.1337 69.6321 17.9383C68.9738 18.7429 68.1418 19.3737 67.1361 19.8309C66.1304 20.288 65.0058 20.5166 63.7624 20.5166C62.2629 20.5166 60.9281 20.1966 59.7578 19.5566C58.5875 18.9166 57.6732 18.0023 57.0149 16.8137C56.3567 15.6251 56.0275 14.2354 56.0275 12.6446C56.0275 11.0537 56.3475 9.664 56.9875 8.47543C57.6458 7.28686 58.5601 6.37257 59.7304 5.73257C60.9007 5.09257 62.2447 4.77257 63.7624 4.77257C65.2435 4.77257 66.5601 5.08343 67.7121 5.70514C68.8641 6.32686 69.7601 7.21371 70.4001 8.36571C71.0584 9.51771 71.3875 10.8617 71.3875 12.3977ZM66.5875 11.1634C66.5875 10.3589 66.3132 9.71886 65.7647 9.24343C65.2161 8.768 64.5304 8.53028 63.7075 8.53028C62.9212 8.53028 62.2538 8.75886 61.7052 9.216C61.1749 9.67314 60.8458 10.3223 60.7178 11.1634H66.5875Z" fill="#403E48"/>
<path d="M89.4962 4.992L79.8962 27.5657H74.8493L78.3602 19.776L72.1339 4.992H77.3727L80.911 14.5646L84.4219 4.992H89.4962Z" fill="#403E48"/>
<path d="M90.2597 12.6171C90.2597 11.0446 90.5522 9.664 91.1374 8.47543C91.7408 7.28686 92.5545 6.37257 93.5785 5.73257C94.6025 5.09257 95.7454 4.77257 97.0071 4.77257C98.0128 4.77257 98.9271 4.98286 99.7499 5.40343C100.591 5.824 101.249 6.39086 101.725 7.104V0H106.415V20.2971H101.725V18.1029C101.286 18.8343 100.655 19.4194 99.8322 19.8583C99.0276 20.2971 98.0859 20.5166 97.0071 20.5166C95.7454 20.5166 94.6025 20.1966 93.5785 19.5566C92.5545 18.8983 91.7408 17.9749 91.1374 16.7863C90.5522 15.5794 90.2597 14.1897 90.2597 12.6171ZM101.725 12.6446C101.725 11.4743 101.396 10.5509 100.737 9.87429C100.097 9.19771 99.3111 8.85943 98.3785 8.85943C97.4459 8.85943 96.6505 9.19771 95.9922 9.87429C95.3522 10.5326 95.0322 11.4469 95.0322 12.6171C95.0322 13.7874 95.3522 14.72 95.9922 15.4149C96.6505 16.0914 97.4459 16.4297 98.3785 16.4297C99.3111 16.4297 100.097 16.0914 100.737 15.4149C101.396 14.7383 101.725 13.8149 101.725 12.6446Z" fill="#403E48"/>
<path d="M124.236 12.3977C124.236 12.8366 124.208 13.2937 124.153 13.7691H113.539C113.612 14.72 113.913 15.4514 114.444 15.9634C114.992 16.4571 115.66 16.704 116.446 16.704C117.616 16.704 118.43 16.2103 118.887 15.2229H123.879C123.623 16.2286 123.157 17.1337 122.48 17.9383C121.822 18.7429 120.99 19.3737 119.984 19.8309C118.979 20.288 117.854 20.5166 116.611 20.5166C115.111 20.5166 113.776 20.1966 112.606 19.5566C111.436 18.9166 110.521 18.0023 109.863 16.8137C109.205 15.6251 108.876 14.2354 108.876 12.6446C108.876 11.0537 109.196 9.664 109.836 8.47543C110.494 7.28686 111.408 6.37257 112.579 5.73257C113.749 5.09257 115.093 4.77257 116.611 4.77257C118.092 4.77257 119.408 5.08343 120.56 5.70514C121.712 6.32686 122.608 7.21371 123.248 8.36571C123.907 9.51771 124.236 10.8617 124.236 12.3977ZM119.436 11.1634C119.436 10.3589 119.161 9.71886 118.613 9.24343C118.064 8.768 117.379 8.53028 116.556 8.53028C115.769 8.53028 115.102 8.75886 114.553 9.216C114.023 9.67314 113.694 10.3223 113.566 11.1634H119.436Z" fill="#403E48"/>
<path d="M148.68 4.992L144.539 20.2971H139.355L136.941 10.368L134.445 20.2971H129.288L125.119 4.992H129.81L131.976 15.936L134.555 4.992H139.519L142.125 15.8811L144.264 4.992H148.68Z" fill="#403E48"/>
</svg>
