<svg width="122" height="179" viewBox="0 0 122 179" fill="none" xmlns="http://www.w3.org/2000/svg">
<path d="M43.1749 79.8085C44.9864 79.3035 34.2248 83.4125 34.0039 83.4882L43.6167 99.1415L80.8562 107.069L94.881 84.2898L66.5411 75.8384L43.1749 79.8085Z" fill="#FFBE9D"/>
<path d="M111.702 88.1715C110.439 87.5403 108.887 87.4141 107.883 86.4231C106.293 84.8578 106.949 82.2132 106.52 80.023C105.889 76.703 102.626 74.5254 99.4191 73.4335C98.1568 72.998 96.7493 72.6319 95.8341 71.6409C93.9405 69.5959 95.0893 66.3706 95.083 63.5934C95.1066 62.0487 94.6476 60.535 93.7701 59.2635C92.6529 57.7298 90.9172 56.8019 89.4465 55.6027C86.9218 53.5577 84.435 40.0757 83.7344 36.9072L84.0436 64.5212C84.3924 69.3372 84.9886 74.1321 85.8299 78.8868C86.5305 82.8633 87.4268 86.8712 89.3077 90.4437C91.2332 93.9999 94.0545 96.9913 97.4921 99.1213C100.93 101.251 104.864 102.446 108.906 102.588C111.058 102.638 113.501 102.209 114.668 100.41C115.254 99.343 115.533 98.1352 115.476 96.9196C115.552 93.5617 114.744 89.661 111.702 88.1715Z" fill="#263238"/>
<path d="M39.2291 81.2221C39.2291 81.2221 16.0271 86.5745 14.2156 88.6195C12.4041 90.6645 0.171875 124.338 0.171875 124.338C0.171875 124.338 24.245 131.148 25.1539 131.603C26.0628 132.057 27.6407 167.712 27.6407 167.712C27.6407 167.712 16.5636 188.813 16.128 193.812L19.1451 194.695C20.2559 196.235 26.5298 197.719 29.4711 198.615C41.2371 201.015 53.2127 202.24 65.221 202.269C68.541 202.269 74.3542 197.624 77.4848 197.485C78.9239 197.416 94.7664 181.131 94.7664 181.131L99.3993 179.484L95.5428 147.729L96.9125 132.733L119.635 122.968C119.635 122.968 110.994 92.9999 108.722 89.8125C106.45 86.625 85.9994 77.0942 85.9994 77.0942C85.9994 77.0942 74.897 92.8737 61.0426 93.7826C47.1883 94.6915 41.9495 93.2587 39.2291 81.2221Z" fill="#A09DB1"/>
<path d="M36.2629 10.7069C31.9709 11.8872 28.7203 15.6553 27.2749 19.8653C25.8295 24.0752 25.962 28.6702 26.6437 33.0632C27.136 36.2191 27.9061 39.375 27.2749 42.5309C26.9735 43.8215 26.5747 45.0875 26.082 46.3179C24.6808 50.2502 23.7151 54.5674 24.889 58.5754C25.5409 60.4999 26.4451 62.3294 27.5779 64.0162C30.2793 68.3839 33.2585 72.7706 37.6262 75.5162C40.8208 77.5271 44.5458 78.532 48.3183 78.4007C49.6691 74.0203 49.9531 69.3812 50.073 64.7988C50.5717 45.2323 48.2363 25.6658 45.9073 6.21924" fill="#263238"/>
<path d="M34.5017 31.9461C34.3577 32.5686 34.0404 33.1376 33.5865 33.5872C33.2155 34.1117 32.7002 34.5174 32.1032 34.7549C32.0464 34.6728 32.6713 34.1237 33.3214 33.3663C33.9715 32.6089 34.4133 31.8956 34.5017 31.9461Z" fill="#A09DB1"/>
<path d="M72.2725 49.796C74.0398 44.8728 75.7818 39.9118 76.6907 34.7551C77.5996 29.5983 77.5807 24.2081 75.9018 19.2533C75.6493 18.5022 73.4402 13.4528 72.6512 13.5033C72.0831 13.5412 73.396 18.2371 73.0993 18.7168C70.2401 23.3055 69.3123 28.904 69.6152 34.3006C69.9278 39.5492 70.8255 44.7466 72.2914 49.796" fill="#263238"/>
<path d="M58.3111 92.7348C62.2012 92.6326 65.8972 91.0135 68.6097 88.2232C71.3222 85.4329 72.8361 81.6926 72.8282 77.8011L72.7209 29.0048C73.1122 15.9015 65.7779 4.74864 52.6873 4.72339L51.4754 4.78651C45.598 5.1255 40.0631 7.66299 35.9704 11.8949C31.8777 16.1267 29.5266 21.7433 29.3842 27.6288C29.1128 38.99 29.8261 48.9437 30.2426 55.0093C31.1137 67.5634 42.7904 69.4128 42.7904 69.4128C42.7904 69.4128 42.9987 74.3296 43.0429 78.022C43.0699 79.9935 43.4873 81.94 44.2711 83.7491C45.0548 85.5583 46.1893 87.1941 47.609 88.5622C49.0288 89.9303 50.7055 91.0034 52.5425 91.7196C54.3794 92.4358 56.34 92.7808 58.3111 92.7348Z" fill="#FFBE9D"/>
<path d="M42.7891 69.413C45.6015 69.9657 48.4957 69.9535 51.3033 69.377C54.1109 68.8006 56.7758 67.6714 59.1429 66.0552C59.1429 66.0552 55.5136 73.5346 42.9342 72.7078L42.7891 69.413Z" fill="#AA6550"/>
<path d="M35.2148 37.2986C35.2214 37.7663 35.4106 38.213 35.7419 38.5432C36.0733 38.8734 36.5207 39.061 36.9885 39.0659C37.216 39.0795 37.444 39.0476 37.6591 38.9722C37.8743 38.8967 38.0722 38.7792 38.2414 38.6265C38.4106 38.4737 38.5477 38.2888 38.6447 38.0824C38.7417 37.8761 38.7966 37.6526 38.8062 37.4248C38.7997 36.957 38.6105 36.5104 38.2791 36.1802C37.9478 35.85 37.5004 35.6624 37.0326 35.6575C36.8049 35.643 36.5765 35.6743 36.361 35.7494C36.1455 35.8245 35.9472 35.942 35.7779 36.0949C35.6085 36.2478 35.4714 36.4331 35.3747 36.6398C35.278 36.8465 35.2236 37.0705 35.2148 37.2986Z" fill="#263238"/>
<path d="M32.8805 33.802C33.1077 34.0355 34.4458 32.9941 36.3835 32.9499C38.3212 32.9057 39.754 33.8462 39.956 33.5811C40.0569 33.4738 39.8234 33.0572 39.1922 32.6217C38.34 32.0652 37.3377 31.7833 36.3204 31.8138C35.3154 31.8376 34.3436 32.1777 33.5432 32.7858C32.9625 33.2718 32.7668 33.701 32.8805 33.802Z" fill="#263238"/>
<path d="M52.8379 37.8098C52.8445 38.2776 53.0336 38.7243 53.365 39.0545C53.6964 39.3847 54.1437 39.5722 54.6115 39.5771C54.8404 39.5899 55.0695 39.5568 55.2855 39.4799C55.5015 39.4029 55.6999 39.2837 55.8692 39.1291C56.0385 38.9745 56.1752 38.7877 56.2714 38.5796C56.3676 38.3715 56.4212 38.1463 56.4293 37.9171C56.4164 37.4526 56.2248 37.0109 55.8944 36.6841C55.564 36.3573 55.1203 36.1704 54.6557 36.1625C54.4276 36.1489 54.1991 36.1809 53.9836 36.2567C53.7681 36.3326 53.5698 36.4507 53.4005 36.6041C53.2312 36.7575 53.0943 36.9432 52.9977 37.1502C52.901 37.3573 52.8467 37.5815 52.8379 37.8098Z" fill="#263238"/>
<path d="M45.2763 47.5932C45.2763 47.4859 44.0708 47.3028 42.1204 47.1009C41.6281 47.063 41.1547 46.9746 41.0664 46.6401C41.012 46.1318 41.1133 45.619 41.3567 45.1695C41.7922 43.9639 42.253 42.7015 42.7264 41.3824C44.6199 35.9795 45.9896 31.5486 45.7686 31.4729C45.5477 31.3972 43.8372 35.7144 41.9374 41.1173L40.6309 44.9044C40.3362 45.5081 40.2625 46.196 40.4226 46.8484C40.4974 47.0208 40.6109 47.1737 40.7543 47.2951C40.8976 47.4166 41.0671 47.5035 41.2494 47.549C41.524 47.6166 41.8061 47.6484 42.0889 47.6437C44.0518 47.7257 45.27 47.7005 45.2763 47.5932Z" fill="#263238"/>
<path d="M51.2857 26.3793C51.5319 26.8842 53.4317 26.4298 55.7039 26.4676C57.9762 26.5055 59.8887 26.9221 60.1222 26.4234C60.2358 26.1836 59.8634 25.7292 59.0744 25.3C58.0238 24.783 56.8697 24.5111 55.6988 24.5045C54.528 24.498 53.3708 24.757 52.3145 25.2621C51.5508 25.685 51.1784 26.1394 51.2857 26.3793Z" fill="#263238"/>
<path d="M32.1349 28.0328C32.52 28.4683 34.0285 28.0328 35.8589 28.0328C37.6893 28.0328 39.2231 28.3421 39.5828 27.8813C39.7406 27.6604 39.4945 27.2502 38.8254 26.802C37.9026 26.2828 36.8539 26.0294 35.7958 26.0699C34.7429 26.0765 33.7129 26.3783 32.8229 26.9409C32.1728 27.3638 31.9645 27.8182 32.1349 28.0328Z" fill="#263238"/>
<path d="M72.5751 39.2111C72.7897 39.1101 81.1591 36.4402 81.0897 45.0495C81.0203 53.6587 72.3921 51.8157 72.3795 51.5695C72.3668 51.3234 72.5751 39.2111 72.5751 39.2111Z" fill="#FFBE9D"/>
<path d="M75.036 48.3253C75.0739 48.3253 75.1875 48.4326 75.44 48.5525C75.7945 48.7063 76.1946 48.7176 76.5572 48.5841C77.4724 48.2559 78.2487 46.8168 78.2992 45.2704C78.3307 44.5315 78.1925 43.7952 77.8953 43.1181C77.8178 42.8481 77.6755 42.6012 77.4808 42.3988C77.2861 42.1963 77.0448 42.0446 76.7781 41.9567C76.6059 41.9107 76.4231 41.9257 76.2608 41.9994C76.0985 42.0731 75.9668 42.2007 75.8881 42.3607C75.7745 42.6005 75.825 42.7772 75.7808 42.7899C75.7366 42.8025 75.5978 42.6447 75.6672 42.2849C75.7172 42.0713 75.84 41.8816 76.0144 41.7484C76.2522 41.5737 76.549 41.4989 76.8412 41.5401C77.1943 41.6123 77.523 41.7737 77.796 42.0091C78.0689 42.2445 78.2769 42.5459 78.4002 42.8845C78.7591 43.6338 78.9302 44.4592 78.8988 45.2893C78.8294 47.0251 77.9331 48.6409 76.6834 48.988C76.4517 49.0534 76.2083 49.0658 75.9712 49.0243C75.7341 48.9828 75.5094 48.8884 75.3137 48.7482C75.0486 48.5336 74.9792 48.3442 75.036 48.3253Z" fill="#AA6550"/>
<path d="M51.4876 33.7008C51.7148 33.9281 53.0592 32.8929 54.9906 32.8488C56.922 32.8046 58.3611 33.7387 58.5631 33.4799C58.664 33.3726 58.4305 32.9561 57.7993 32.5206C56.9448 31.9722 55.9419 31.7011 54.9275 31.7442C53.9225 31.768 52.9507 32.1081 52.1503 32.7162C51.5696 33.1707 51.3803 33.5999 51.4876 33.7008Z" fill="#263238"/>
<path d="M45.9462 54.8011C46.6113 55.4302 47.4443 55.8533 48.3447 56.0192C48.941 56.113 49.5513 56.052 50.1172 55.842C50.6831 55.632 51.1856 55.2801 51.5763 54.82C51.8111 54.4231 51.9177 53.9634 51.8815 53.5036C51.8454 53.0439 51.6683 52.6065 51.3743 52.2511C51.0695 51.8865 50.6945 51.5869 50.2717 51.3701C49.8488 51.1532 49.3867 51.0235 48.9127 50.9888C48.2557 50.9202 47.592 51.0204 46.9845 51.28C46.3771 51.5395 45.8459 51.9498 45.4413 52.472C45.4413 52.472 44.5197 53.545 45.9462 54.8011Z" fill="#EB996E"/>
<path d="M50.8244 49.657C50.5215 49.657 50.5404 51.6957 48.7984 53.1726C47.0563 54.6496 44.8661 54.435 44.8535 54.7443C44.8535 54.8705 45.3458 55.1356 46.2737 55.1482C47.4782 55.1516 48.6453 54.7291 49.5684 53.9553C50.4555 53.2152 51.0174 52.1571 51.1337 51.0077C51.2032 50.1493 50.9949 49.6443 50.8244 49.657Z" fill="#263238"/>
<path d="M35.6129 11.8432C35.4109 4.6036 43.9949 -0.306962 51.2471 0.0149381C58.4994 0.336839 67.5441 2.85524 72.9596 9.93074C81.2785 20.787 84.2388 34.067 84.6869 47.7383C84.769 50.1557 84.6869 52.6173 85.3181 54.9526C86.795 60.5133 91.8634 64.5339 93.5234 70.0441C94.7479 74.1846 93.8895 78.6155 93.0626 82.8507C92.2358 87.0859 91.4721 91.5546 92.867 95.6383C94.2619 99.722 98.617 103.13 102.758 101.95C102.53 103.807 101.623 105.515 100.212 106.743C98.8008 107.971 96.9847 108.634 95.114 108.603C96.4604 109.776 98.1136 110.54 99.8794 110.806C97.6955 113.557 93.9337 114.649 90.4117 114.447C86.8897 114.245 83.576 112.952 80.3129 111.67C77.6619 110.622 74.6323 109.146 74.1336 106.33C73.8307 104.595 74.6323 102.84 74.4997 101.085C74.2472 97.7086 70.8578 95.6257 68.6613 93.0505C67.3386 91.478 66.4016 89.6182 65.9249 87.6194C65.4482 85.6206 65.4451 83.5381 65.9157 81.5378C66.9003 77.5172 69.7848 73.9637 69.8858 69.8484C69.9805 66.0172 64.5082 62.0723 63.8139 58.3042C63.0754 54.2899 64.0663 52.0492 66.2124 46.5517C69.1347 39.0785 68.3394 32.2239 64.7228 25.0916C61.1061 17.9593 59.3893 15.3147 55.0216 13.1876C50.2436 10.8586 43.6604 13.1876 40.4098 14.0586C39.4849 14.2474 38.524 14.1405 37.6631 13.7532C36.8023 13.3658 36.085 12.7175 35.6129 11.9" fill="#263238"/>
<path d="M35.8477 11.5782C36.9143 13.5917 39.3949 14.4501 41.6734 14.4879C43.952 14.5258 46.199 13.9199 48.4712 13.8567C50.1501 13.7936 52.1762 14.2796 52.6875 15.8765C52.8122 16.4875 52.8798 17.1087 52.8894 17.7322C53.1987 20.118 55.4836 21.6581 57.4907 22.9773C59.4979 24.2964 61.6691 26.1332 61.5176 28.5506C61.423 30.0843 60.35 31.4287 60.2553 32.9688C59.9713 36.7559 65.2731 39.0092 65.412 42.8089C65.4877 44.9738 60.8297 52.4217 63.3354 57.1871C66.6428 63.4989 65.4057 49.4488 65.6014 49.5183C66.0369 49.6698 66.485 49.3415 66.8195 49.0196C71.08 44.9612 72.8031 38.681 72.1025 32.8363C71.4019 26.9916 68.5237 21.576 64.7682 17.0568C62.5528 14.3743 59.9586 11.919 56.8091 10.4484C53.6595 8.97774 49.8661 8.59273 46.7102 10.0129C44.6589 10.9407 42.8159 12.6007 40.5689 12.6575" fill="#263238"/>
<path d="M73.4403 87.1996L73.2446 86.9787C73.1815 86.9029 73.0995 86.8146 73.0174 86.701L72.7523 86.2718C72.2499 85.2717 72.0712 84.14 72.2411 83.0338C72.4941 81.294 73.1161 79.6284 74.0652 78.1485C74.6017 77.2775 75.2139 76.3812 75.8072 75.3903C76.4521 74.3656 76.9733 73.2681 77.3599 72.1208C77.7923 70.8672 77.8056 69.5071 77.3978 68.2453C76.8802 66.9029 76.0234 65.7177 74.911 64.8054C73.8127 63.7892 72.5566 62.8488 71.4205 61.6937C70.8428 61.1013 70.3404 60.4399 69.9246 59.7244C69.5122 58.9776 69.2204 58.1702 69.0599 57.3323C68.7557 55.5917 68.8506 53.8047 69.3377 52.1061C69.8173 50.3704 70.6379 48.7419 71.2312 47.0062C71.5368 46.1419 71.7339 45.2429 71.8182 44.33C71.8837 43.414 71.6983 42.4975 71.2817 41.6791C70.8122 40.8638 70.165 40.1648 69.3882 39.6341C68.6244 39.0597 67.7976 38.5547 67.0023 37.9614C66.179 37.3903 65.5091 36.625 65.052 35.7334C64.6589 34.8136 64.564 33.7938 64.7805 32.8173C65.1719 30.9238 66.1502 29.2449 66.4658 27.4586C66.6443 26.5886 66.5676 25.6856 66.2449 24.8582C65.8775 24.0627 65.2934 23.3868 64.5596 22.9079C63.1206 21.9169 61.4038 21.4435 59.8258 20.9007C58.2129 20.4045 56.7603 19.4898 55.6159 18.2498C55.0729 17.6256 54.7492 16.8408 54.6943 16.0154C54.6975 15.2298 54.872 14.4544 55.2056 13.7432C55.502 13.088 55.5314 12.3431 55.2876 11.6666C55.0191 11.0305 54.6337 10.4503 54.1515 9.95609C53.2234 9.00473 52.1442 8.21349 50.9578 7.61442C49.8609 7.11024 48.674 6.83123 47.4674 6.79389C46.3888 6.75208 45.3097 6.86041 44.261 7.11579C43.3503 7.34731 42.4799 7.71547 41.6795 8.20773C40.9991 8.6111 40.3512 9.06693 39.7417 9.57107C38.871 10.2391 38.1343 11.0658 37.5705 12.0074C37.3868 12.3417 37.2932 12.718 37.2991 13.0994C37.2991 13.0994 37.2991 13.0047 37.2991 12.809C37.3275 12.5198 37.4066 12.2377 37.5326 11.9759C38.0757 11.0019 38.8049 10.1441 39.6786 9.45115C40.2911 8.93669 40.9409 8.46834 41.6226 8.04993C42.4317 7.54378 43.3127 7.16287 44.2357 6.92012C45.3015 6.65016 46.4 6.53118 47.4989 6.56667C48.7349 6.59649 49.9522 6.87558 51.0777 7.3872C52.2937 7.9938 53.4006 8.79789 54.3535 9.76674C54.8745 10.2812 55.2904 10.8922 55.578 11.5656C55.7188 11.9271 55.7811 12.3143 55.761 12.7017C55.7317 13.0865 55.6467 13.4649 55.5086 13.8252C55.1915 14.5056 55.0237 15.2459 55.0162 15.9965C55.0705 16.7618 55.3768 17.4876 55.8873 18.0604C56.9984 19.2487 58.4057 20.1201 59.9647 20.5851C61.6576 21.0355 63.2788 21.7218 64.7805 22.6238C65.5602 23.1323 66.1814 23.8497 66.5731 24.6941C66.9175 25.594 66.9878 26.5757 66.7751 27.5154C66.4405 29.409 65.4685 31.0437 65.0961 32.8805C64.8949 33.7888 64.9809 34.7372 65.3423 35.5945C65.7755 36.4392 66.4135 37.1618 67.198 37.6963C67.968 38.277 68.8012 38.7883 69.5838 39.3753C70.3935 39.935 71.0684 40.6681 71.5594 41.5213C72.0079 42.395 72.2046 43.3762 72.1275 44.3553C72.0375 45.2981 71.8253 46.2253 71.4963 47.1135C70.9093 48.8745 70.0824 50.5029 69.6028 52.1629C69.1299 53.8163 69.0329 55.5545 69.3187 57.2502C69.4721 58.0567 69.7511 58.8341 70.1456 59.554C70.5467 60.2429 71.0323 60.879 71.591 61.4475C72.7018 62.5837 73.9516 63.5304 75.0624 64.5593C76.1968 65.5084 77.0666 66.7347 77.5871 68.1191C78.0052 69.4321 77.9853 70.8453 77.5303 72.146C77.1314 73.308 76.5953 74.4183 75.9335 75.4534C75.3338 76.4443 74.709 77.3469 74.1725 78.199C73.2227 79.6539 72.5904 81.2928 72.3168 83.0086C72.1364 84.0919 72.2928 85.2045 72.7649 86.196L73.0048 86.6252C73.0868 86.7451 73.1626 86.8335 73.2194 86.9156C73.3007 87.004 73.3746 87.099 73.4403 87.1996Z" fill="#A09DB1"/>
<path d="M37.2734 13.0991C36.3518 16.154 33.6504 18.2811 31.8768 20.9383C29.3521 24.6812 28.803 29.3772 28.7209 33.8838C28.8472 31.763 28.0014 29.718 27.5848 27.6351C26.8465 23.9328 27.4926 20.0883 29.4006 16.8307C31.3086 13.5731 34.3458 11.1291 37.9361 9.96216" fill="#263238"/>
<path d="M18.375 105.699C18.5257 106.046 18.6481 106.405 18.7411 106.772C18.962 107.517 19.2523 108.514 19.6058 109.72C20.3253 112.245 21.2973 115.666 22.3451 119.478C22.869 121.371 23.3613 123.202 23.8157 124.862C24.0367 125.689 24.2639 126.471 24.4469 127.216C24.63 127.961 24.7751 128.661 24.9014 129.299C25.1475 130.561 25.3179 131.609 25.4316 132.322C25.5132 132.692 25.5639 133.068 25.583 133.446C25.5376 133.357 25.5078 133.261 25.4947 133.162L25.3053 132.348C25.1475 131.584 24.9329 130.574 24.6741 129.343C24.5353 128.712 24.3775 128.018 24.1818 127.285C23.9862 126.553 23.7589 125.764 23.5507 124.944L22.0548 119.566C21.0007 115.779 20.0665 112.289 19.4038 109.777C19.0945 108.565 18.8358 107.561 18.6401 106.804C18.5286 106.442 18.4401 106.073 18.375 105.699Z" fill="#263238"/>
<path d="M72.2775 152.507C72.2775 152.507 72.1954 152.602 72.0187 152.76L71.236 153.435C70.5544 154.016 69.5382 154.83 68.2632 155.802C61.5975 160.87 54.3404 165.109 46.6517 168.426C45.1747 169.057 43.9692 169.543 43.1297 169.852L42.1577 170.206C42.045 170.249 41.9289 170.283 41.8105 170.307C41.9094 170.237 42.0178 170.181 42.1325 170.142L43.0792 169.732C43.9061 169.385 45.099 168.867 46.557 168.211C54.1731 164.779 61.4028 160.548 68.1243 155.587C69.3867 154.641 70.4471 153.852 71.154 153.303L71.9745 152.671C72.0709 152.609 72.1722 152.554 72.2775 152.507Z" fill="#263238"/>
<g opacity="0.2">
<path opacity="0.2" d="M90.1279 140.591C85.8358 135.491 79.8397 132.095 73.673 129.558C67.5064 127.02 60.5509 125.139 53.9109 126.471C47.7885 127.67 42.4992 131.388 37.4498 135.055C35.7373 136.179 34.2014 137.551 32.8927 139.126C31.5672 140.894 30.8414 143.027 30.1723 145.135C28.4492 150.601 28.607 156.957 27.4141 162.556L27.4646 163.553C28.6196 163.906 29.1372 163.37 30.1976 162.789C36.5093 159.356 39.0908 150.38 46.078 148.638C47.36 148.385 48.6563 148.21 49.9597 148.114C53.3535 147.664 56.5954 146.428 59.4274 144.504C60.5698 143.74 61.7312 142.844 63.1071 142.749C64.4831 142.655 65.8906 143.45 67.153 144.169C70.8265 146.242 74.7934 147.744 78.9181 148.626C79.4783 148.697 80.0153 148.894 80.4898 149.2C81.0037 149.694 81.3652 150.325 81.5312 151.018C83.0776 155.436 85.0343 159.81 87.9819 163.471C90.9295 167.132 94.9248 170.067 99.5387 171.045C98.5856 160.29 97.0708 148.859 90.1279 140.591Z" fill="#403E48"/>
</g>
<g opacity="0.2">
<path opacity="0.2" d="M47.209 173.355C52.0817 175.047 60.1923 172.831 64.6989 170.319C69.2055 167.807 73.0873 162.398 74.2234 157.349C66.624 162.278 55.4585 169.676 47.209 173.355Z" fill="#403E48"/>
</g>
<g opacity="0.2">
<path opacity="0.2" d="M22.0295 118.733C20.9817 115.457 20.1991 111.961 19.145 108.685H19.0251C18.2781 112.693 18.2887 116.806 19.0566 120.81C19.9121 124.837 22.0517 128.479 25.1538 131.186C24.3994 126.968 23.3555 122.808 22.0295 118.733Z" fill="#403E48"/>
</g>
<path d="M17.9525 96.8313C17.2946 95.6527 16.7898 94.3949 16.4503 93.0884C16.0029 91.8151 15.7228 90.489 15.6172 89.1436C15.7056 89.1436 16.1158 90.873 16.7659 92.9937C17.416 95.1145 18.0409 96.7934 17.9525 96.8313Z" fill="#263238"/>
<path d="M103.016 96.5662C103.105 96.5662 101.994 104.336 100.523 113.886C99.0524 123.435 97.7964 131.174 97.708 131.161C97.6197 131.148 98.7368 123.391 100.201 113.835C101.665 104.279 102.928 96.5536 103.016 96.5662Z" fill="#263238"/>
<path d="M80.4023 136.684C80.4023 136.684 95.9924 176.019 104.791 177.047C114.17 178.146 123.266 169.839 121.555 155.493C120.924 149.989 117.061 124.073 117.061 124.073L97.5514 132.467L102.733 143.197L95.0457 131.205L80.4023 136.684Z" fill="#FFBE9D"/>
<path d="M5.07699 125.727C5.07699 125.727 0.702926 151.068 0.134867 155.392C-0.433193 159.715 0.766047 169.511 4.25015 172.434C7.73425 175.356 10.7197 176.126 13.2129 175.672C15.706 175.217 23.5326 167.056 26.4676 163.768C29.4026 160.479 44.2163 133.85 44.2163 133.85L30.5513 127.772L22.5922 137.473L24.391 131.331L5.07699 125.727Z" fill="#FFBE9D"/>
<path d="M22.8261 137.151C22.6703 137.425 22.4908 137.685 22.2896 137.927L20.7558 139.979C20.1246 140.843 19.3104 141.872 18.3952 142.97C17.4191 144.178 16.3648 145.321 15.2393 146.391C14.0626 147.423 12.7781 148.324 11.4081 149.08C10.1773 149.812 9.07904 150.475 8.20802 151.113C7.27311 151.805 6.41034 152.589 5.63281 153.454C5.63281 153.454 5.67068 153.372 5.75905 153.24C5.89105 153.046 6.03436 152.861 6.18824 152.684C6.75276 152.029 7.38778 151.439 8.08177 150.923C9.09679 150.169 10.1502 149.467 11.2377 148.821C12.5877 148.063 13.8566 147.168 15.0247 146.151C16.143 145.09 17.1969 143.962 18.1806 142.775C19.1084 141.683 19.91 140.679 20.5917 139.84L22.2075 137.845C22.3917 137.595 22.5988 137.363 22.8261 137.151Z" fill="#AA6550"/>
<path d="M37.2363 105.232V132.101H82.3403V105.232H37.2363Z" fill="#60B257"/>
<path d="M85.1038 92.8423H35.2598V105.232H85.1038V92.8423Z" fill="#60B257"/>
<path opacity="0.4" d="M65.8411 105.232H56.5312V132.101H65.8411V105.232Z" fill="white"/>
<path d="M85.0785 105.232C85.0785 105.321 73.9192 105.396 60.1533 105.396C46.3873 105.396 35.2344 105.321 35.2344 105.232C35.2344 105.144 46.3873 105.068 60.1533 105.068C73.9192 105.068 85.0785 105.138 85.0785 105.232Z" fill="#263238"/>
<path opacity="0.4" d="M62.9118 105.049L52.2891 105.1V92.8423H62.9118V105.049Z" fill="white"/>
<path d="M58.0516 88.2347C56.764 88.2361 55.4997 87.8917 54.3908 87.2375C53.261 86.6063 52.2069 85.8867 51.0582 85.3439C48.2257 83.9564 44.9706 83.7013 41.9566 84.6307C41.8093 84.6602 41.676 84.7379 41.5779 84.8516C41.4958 84.9995 41.469 85.1718 41.5021 85.3376L42.5246 96.6988C42.4986 96.9378 42.5341 97.1795 42.6279 97.4008C42.7217 97.6221 42.8706 97.8158 43.0605 97.9632C43.2503 98.1107 43.4748 98.207 43.7125 98.2432C43.9501 98.2793 44.1931 98.2539 44.4182 98.1695C46.2255 98.0768 48.0177 97.7911 49.7643 97.3174C51.5198 96.8416 53.1223 95.9196 54.416 94.6412C55.003 94.01 55.489 93.3283 56.0887 92.7476C56.6663 92.1202 57.4504 91.7214 58.2978 91.6241L58.0516 88.2347Z" fill="#60B257"/>
<path d="M79.1585 95.7897C79.209 91.0496 79.2532 86.2842 78.5274 81.6009C75.4788 80.9697 72.3229 81.948 69.5583 83.3619C66.7938 84.7757 64.2754 86.644 61.4919 88.02L60.9238 91.3273C61.8839 91.184 62.8646 91.3544 63.7199 91.8133C64.5657 92.2688 65.3703 92.7967 66.1247 93.3913C67.8785 94.7267 69.8233 95.7905 71.8937 96.5472C73.9819 97.3 76.254 97.3773 78.3885 96.7681C78.6451 96.7051 78.8697 96.5501 79.0197 96.3326C79.1098 96.1658 79.1575 95.9793 79.1585 95.7897Z" fill="#60B257"/>
<g opacity="0.3">
<path opacity="0.3" d="M58.0516 88.2347C56.764 88.2361 55.4997 87.8917 54.3908 87.2375C53.261 86.6063 52.2069 85.8867 51.0582 85.3439C48.2257 83.9564 44.9706 83.7013 41.9566 84.6307C41.8093 84.6602 41.676 84.7379 41.5779 84.8516C41.4958 84.9995 41.469 85.1718 41.5021 85.3376L42.5246 96.6988C42.4986 96.9378 42.5341 97.1795 42.6279 97.4008C42.7217 97.6221 42.8706 97.8158 43.0605 97.9632C43.2503 98.1107 43.4748 98.207 43.7125 98.2432C43.9501 98.2793 44.1931 98.2539 44.4182 98.1695C46.2255 98.0768 48.0177 97.7911 49.7643 97.3174C51.5198 96.8416 53.1223 95.9196 54.416 94.6412C55.003 94.01 55.489 93.3283 56.0887 92.7476C56.6663 92.1202 57.4504 91.7214 58.2978 91.6241L58.0516 88.2347Z" fill="#403E48"/>
</g>
<path d="M58.0512 88.2348C58.0512 88.2348 58.0512 88.2979 58.0512 88.443C58.0512 88.5882 58.0891 88.8091 58.1143 89.0742C58.1711 89.6549 58.2469 90.4944 58.3478 91.5989V91.6494H58.3037C57.7116 91.6994 57.1463 91.9185 56.6752 92.2806C56.1192 92.7284 55.6209 93.2436 55.192 93.8144C54.6853 94.4726 54.0955 95.0624 53.4373 95.569C52.6971 96.126 51.8863 96.5823 51.0262 96.9261C49.0655 97.6548 47.0053 98.0804 44.9164 98.1884C44.3481 98.2868 43.7654 98.2653 43.2059 98.1253C43.0632 98.0688 42.9335 97.9837 42.8249 97.8751C42.7164 97.7665 42.6312 97.6369 42.5747 97.4941C42.4771 97.2114 42.4218 96.9157 42.4106 96.6168C42.3033 95.4617 42.2023 94.2751 42.0887 93.0696C41.9309 91.3023 41.7794 89.5729 41.628 87.9002C41.5522 87.0608 41.4765 86.2402 41.407 85.4386C41.3628 85.2268 41.3848 85.0064 41.4702 84.8075C41.6166 84.64 41.8181 84.5303 42.0382 84.4982C42.4135 84.3841 42.7949 84.2914 43.1807 84.2205C45.9004 83.688 48.7201 84.0813 51.1903 85.3377C52.2317 85.8742 53.0838 86.4738 53.9107 86.9282C54.5836 87.3353 55.2989 87.6676 56.0441 87.9192C56.5162 88.0768 57.0058 88.1765 57.5021 88.2158C57.8429 88.2158 58.0323 88.2158 58.0259 88.2158H57.8934H57.5021C56.9981 88.193 56.4994 88.1039 56.0188 87.9507C55.2606 87.7099 54.5322 87.3838 53.8476 86.9787C53.0396 86.5243 52.1623 85.9373 51.1272 85.4071C49.9947 84.8401 48.781 84.4526 47.5295 84.2583C46.0947 84.0312 44.6311 84.059 43.2059 84.3404C42.8335 84.4161 42.4548 84.5108 42.0824 84.6244C41.9041 84.645 41.7387 84.7276 41.6153 84.858C41.5469 85.0284 41.5336 85.2161 41.5775 85.3945C41.6532 86.1961 41.7226 87.0166 41.7984 87.8497C41.9499 89.5224 42.1076 91.2518 42.2718 93.0254C42.3791 94.2246 42.4864 95.4112 42.5873 96.5726C42.5975 96.8521 42.6486 97.1285 42.7388 97.3931C42.785 97.5166 42.8575 97.6285 42.9512 97.7211C43.0449 97.8138 43.1577 97.8849 43.2816 97.9296C43.8128 98.0604 44.3655 98.0776 44.9038 97.9801C46.9762 97.8833 49.0217 97.4704 50.9694 96.7557C51.8198 96.4214 52.6221 95.9757 53.3552 95.4302C54.0076 94.931 54.595 94.3521 55.1036 93.7071C55.5415 93.1318 56.0505 92.6144 56.6184 92.167C57.1054 91.7945 57.6919 91.5749 58.3037 91.5358L58.2595 91.58C58.1837 90.507 58.1206 89.6865 58.0764 89.0995C58.0764 88.8217 58.0764 88.6008 58.0386 88.4683C58.0007 88.3357 58.0512 88.2348 58.0512 88.2348Z" fill="#263238"/>
<g opacity="0.3">
<path opacity="0.3" d="M79.1585 95.7897C79.209 91.0496 79.2532 86.2842 78.5274 81.6009C75.4788 80.9697 72.3229 81.948 69.5583 83.3619C66.7938 84.7757 64.2754 86.644 61.4919 88.02L60.9238 91.3273C61.8839 91.184 62.8646 91.3544 63.7199 91.8133C64.5657 92.2688 65.3703 92.7967 66.1247 93.3913C67.8785 94.7267 69.8233 95.7905 71.8937 96.5472C73.9819 97.3 76.254 97.3773 78.3885 96.7681C78.6451 96.7051 78.8697 96.5501 79.0197 96.3326C79.1098 96.1658 79.1575 95.9793 79.1585 95.7897Z" fill="#403E48"/>
</g>
<path d="M79.1584 95.7898C79.1794 95.9194 79.1794 96.0515 79.1584 96.1811C79.1226 96.342 79.0281 96.4838 78.8933 96.5788C78.6992 96.7016 78.4858 96.7912 78.2622 96.8439C76.8967 97.2468 75.4588 97.3417 74.0522 97.1216C71.9162 96.7705 69.8777 95.9749 68.0686 94.7862C67.5448 94.4643 67.0146 94.1109 66.4781 93.7385C65.9416 93.3661 65.4177 92.9621 64.8559 92.5834C64.2914 92.1853 63.6785 91.8607 63.0318 91.6177C62.3652 91.3688 61.6453 91.297 60.9426 91.4094H60.8164V91.2832C60.9931 90.2354 61.1825 89.1182 61.3718 87.9758V87.9316H61.4097C62.7226 87.3005 64.0354 86.4862 65.3672 85.6657C67.4476 84.2937 69.6669 83.145 71.9883 82.2384C74.0695 81.4109 76.3385 81.1728 78.5462 81.5504H78.603V81.6072C79.0734 85.0157 79.2844 88.455 79.2342 91.8954C79.2342 93.1578 79.2342 94.1172 79.1963 94.7862C79.1963 95.1102 79.1963 95.3627 79.1963 95.5436V95.7393C79.1948 95.7624 79.1948 95.7856 79.1963 95.8087C79.1963 95.8087 79.1963 95.8087 79.1963 95.7393V95.5436C79.1963 95.3606 79.1963 95.1081 79.1963 94.7799C79.1963 94.1045 79.1963 93.1325 79.1963 91.8954C79.198 88.4525 78.9491 85.014 78.4515 81.6072L78.5146 81.6767C76.3351 81.315 74.0982 81.555 72.0451 82.371C69.7549 83.2973 67.5658 84.4564 65.5124 85.8298C64.1806 86.6503 62.8614 87.4456 61.5359 88.102L61.5864 88.0326C61.3908 89.175 61.2014 90.2859 61.0184 91.34L60.9174 91.239C61.6501 91.1206 62.401 91.1967 63.095 91.4599C63.7682 91.7 64.4053 92.0313 64.9885 92.4445C65.5565 92.8296 66.0804 93.2335 66.6106 93.6059C67.1408 93.9783 67.6647 94.3381 68.1823 94.66C69.9748 95.8443 71.9924 96.6457 74.109 97.0143C75.4997 97.2423 76.9234 97.1647 78.2811 96.7871C78.4917 96.7404 78.6926 96.657 78.8744 96.5409C79.0062 96.4542 79.1008 96.3214 79.1395 96.1685C79.1584 95.9223 79.1458 95.7835 79.1584 95.7898Z" fill="#263238"/>
<path d="M58.6772 92.3374C58.6772 92.3374 57.8188 92.3374 56.7268 94.5465C55.6349 96.7556 52.3086 107.404 52.3086 107.404L62.2055 112.074L61.0252 93.139L58.6772 92.3374Z" fill="#60B257"/>
<path d="M61.8145 92.8927L65.8035 105.762L72.4561 99.823C72.4561 99.823 66.7061 92.5581 62.3573 91.8765L61.8145 92.8927Z" fill="#60B257"/>
<g opacity="0.3">
<path opacity="0.3" d="M58.6772 92.3374C58.6772 92.3374 57.8188 92.3374 56.7268 94.5465C55.6349 96.7556 52.3086 107.404 52.3086 107.404L62.2055 112.074L61.0252 93.139L58.6772 92.3374Z" fill="#403E48"/>
</g>
<g opacity="0.3">
<path opacity="0.3" d="M61.8145 92.8927L65.8035 105.762L72.4561 99.823C72.4561 99.823 66.7061 92.5581 62.3573 91.8765L61.8145 92.8927Z" fill="#403E48"/>
</g>
<path d="M58.676 92.3374L58.8338 92.3753L59.2819 92.5141L61.0366 93.0696V93.1011C61.2765 96.5347 61.7372 103.629 62.2674 112.036V112.194L62.1285 112.131L59.364 110.825L52.2569 107.486L52.1875 107.454V107.378C53.6581 102.758 54.9647 98.807 56.0124 96.0487C56.3684 94.9496 56.9154 93.9219 57.6282 93.0128C57.8268 92.7738 58.0688 92.5747 58.3415 92.4258C58.4129 92.3876 58.4894 92.36 58.5687 92.3437C58.5936 92.338 58.6195 92.338 58.6444 92.3437H58.5687C58.4945 92.3688 58.4227 92.4005 58.3541 92.4384C58.0884 92.603 57.857 92.8173 57.6724 93.0696C56.9837 93.9854 56.4564 95.0121 56.1134 96.1055C55.0972 98.8701 53.8096 102.828 52.3579 107.467L52.3137 107.359L59.4523 110.724L62.2106 112.024L62.0844 112.112C61.5605 103.673 61.1376 96.5789 60.9546 93.139V93.1769L59.2188 92.5899L58.7707 92.4321L58.676 92.3374Z" fill="#263238"/>
<path d="M61.8136 92.8926C61.812 92.8695 61.812 92.8463 61.8136 92.8232L61.9082 92.6275C62.0029 92.4445 62.1228 92.1857 62.287 91.8638C63.3473 91.9963 65.001 92.7474 66.7873 94.1234C68.8824 95.804 70.7872 97.7089 72.4678 99.804L72.5183 99.8734L72.4552 99.9302L69.4066 102.651L65.7963 105.87L65.689 105.964L65.6511 105.825C64.5087 102.108 63.5241 98.8825 62.8171 96.5787C62.4826 95.4425 62.186 94.5337 62.0156 93.8899L61.8073 93.1766C61.7631 93.0125 61.7441 92.9305 61.7441 92.9305C61.7829 93.0096 61.8145 93.0919 61.8388 93.1766L62.0787 93.8962L62.9308 96.5724C63.6566 98.8698 64.6602 102.076 65.8216 105.775L65.6764 105.737L69.2804 102.512L72.3353 99.7977V99.9176C70.6675 97.8257 68.7777 95.921 66.6989 94.237C65.4279 93.1307 63.9143 92.3393 62.2806 91.9269H62.3185L61.9146 92.6654L61.8073 92.8547C61.8325 92.8673 61.8199 92.8926 61.8136 92.8926Z" fill="#263238"/>
<path d="M57.7616 90.7089C57.7616 90.7089 57.263 90.7404 56.4677 90.7783C55.6724 90.8162 54.5742 90.9045 53.3749 91.075C52.1757 91.2454 51.1027 91.4789 50.3327 91.6746C49.9173 91.7969 49.496 91.898 49.0703 91.9775C49.1709 91.9171 49.2792 91.8704 49.3922 91.8387C49.6005 91.7629 49.9035 91.6619 50.2885 91.5483C51.2913 91.2687 52.3119 91.0579 53.3434 90.9172C54.3762 90.7676 55.4179 90.6875 56.4614 90.6773C56.859 90.6773 57.1809 90.6773 57.4082 90.6773C57.5269 90.6695 57.6462 90.6801 57.7616 90.7089Z" fill="#263238"/>
<path d="M57.591 89.4969C57.591 89.4969 57.1365 89.4337 56.4043 89.3201C55.4555 89.1686 54.4987 89.0716 53.5388 89.0298C52.4153 88.9856 51.3928 89.0298 50.6543 89.0298C50.2551 89.06 49.8543 89.06 49.4551 89.0298C49.5572 88.9954 49.6632 88.9742 49.7707 88.9667L50.648 88.872C51.6112 88.7867 52.5789 88.7635 53.5451 88.8026C54.514 88.8415 55.4783 88.9555 56.4296 89.1434C56.7894 89.2191 57.0608 89.2886 57.288 89.3454C57.3966 89.3789 57.499 89.4301 57.591 89.4969Z" fill="#263238"/>
<path d="M72.9418 88.285C72.9418 88.285 72.3737 88.2093 71.4648 88.1272C70.2812 88.0074 69.0886 88.0074 67.905 88.1272C66.7225 88.2625 65.5583 88.5271 64.4335 88.9162C63.5688 89.2128 63.0575 89.459 63.0449 89.4274C63.1504 89.3456 63.2674 89.2796 63.3921 89.2318C63.6193 89.1118 63.9601 88.9604 64.3893 88.7899C65.5147 88.3622 66.6896 88.078 67.8861 87.9442C69.0802 87.8122 70.2858 87.8228 71.4775 87.9757C71.9382 88.0388 72.3043 88.102 72.5568 88.1588C72.6898 88.1847 72.8192 88.2271 72.9418 88.285Z" fill="#263238"/>
<path d="M71.8249 91.3273C71.7143 91.3614 71.5997 91.3805 71.484 91.3841C71.2631 91.3841 70.9475 91.4346 70.5499 91.4536C69.5161 91.5011 68.4802 91.4716 67.4508 91.3652C66.4196 91.2597 65.3982 91.074 64.3959 90.8098C64.0109 90.7088 63.7079 90.6141 63.4933 90.5447C63.3824 90.5157 63.2761 90.4711 63.1777 90.4121C63.1777 90.4121 63.6574 90.5131 64.4401 90.6835C65.4442 90.9059 66.4598 91.0724 67.4824 91.1821C68.5037 91.2845 69.5297 91.333 70.5562 91.3273C70.9787 91.3037 71.4023 91.3037 71.8249 91.3273Z" fill="#263238"/>
<path d="M63.2467 90.9044C63.2264 90.2589 63.1072 89.6203 62.8932 89.0109C62.7165 88.4744 62.7165 87.9632 62.0727 87.5781C61.7788 87.431 61.4546 87.3543 61.1259 87.3543C60.7972 87.3543 60.473 87.431 60.1791 87.5781C59.8004 87.0732 59.0051 87.1742 58.4434 87.4708C58.1696 87.6325 57.9373 87.8559 57.7653 88.1233C57.5932 88.3907 57.4861 88.6947 57.4524 89.0109C57.3942 89.6422 57.4872 90.2784 57.7239 90.8666C58.0063 91.755 58.5495 92.538 59.2829 93.1136C59.6194 93.3558 60.0118 93.509 60.4234 93.5586C60.8351 93.6083 61.2527 93.5529 61.6371 93.3976C62.1282 93.1965 62.5458 92.8497 62.8336 92.4039C63.1214 91.9581 63.2656 91.4347 63.2467 90.9044Z" fill="#60B257"/>
<g opacity="0.3">
<path opacity="0.3" d="M63.2467 90.9044C63.2264 90.2589 63.1072 89.6203 62.8932 89.0109C62.7165 88.4744 62.7165 87.9632 62.0727 87.5781C61.7788 87.431 61.4546 87.3543 61.1259 87.3543C60.7972 87.3543 60.473 87.431 60.1791 87.5781C59.8004 87.0732 59.0051 87.1742 58.4434 87.4708C58.1696 87.6325 57.9373 87.8559 57.7653 88.1233C57.5932 88.3907 57.4861 88.6947 57.4524 89.0109C57.3942 89.6422 57.4872 90.2784 57.7239 90.8666C58.0063 91.755 58.5495 92.538 59.2829 93.1136C59.6194 93.3558 60.0118 93.509 60.4234 93.5586C60.8351 93.6083 61.2527 93.5529 61.6371 93.3976C62.1282 93.1965 62.5458 92.8497 62.8336 92.4039C63.1214 91.9581 63.2656 91.4347 63.2467 90.9044Z" fill="#403E48"/>
</g>
<path d="M63.2455 90.9045C63.2512 90.9696 63.2512 91.0351 63.2455 91.1002C63.2358 91.2938 63.2084 91.486 63.1634 91.6746C63.0156 92.2643 62.6625 92.782 62.1674 93.1348C61.6723 93.4876 61.0676 93.6524 60.462 93.5997C59.8843 93.5371 59.3432 93.2865 58.9219 92.8864C58.4621 92.4534 58.095 91.9317 57.8426 91.3527C57.5488 90.742 57.3793 90.0791 57.344 89.4023C57.3208 89.0188 57.3955 88.6357 57.5612 88.289C57.7268 87.9423 57.9778 87.6434 58.2907 87.4204C58.6 87.2308 58.9511 87.1203 59.3132 87.0985C59.49 87.0819 59.6682 87.1088 59.8322 87.1771C59.9962 87.2453 60.1409 87.3527 60.2537 87.4899H60.1401C60.5084 87.2838 60.9334 87.2019 61.3519 87.2563C61.7337 87.2761 62.098 87.4227 62.3871 87.6729C62.6282 87.9086 62.7913 88.2126 62.8541 88.5439C62.9173 88.8343 63.0056 89.0931 63.0687 89.3329C63.1736 89.7083 63.2412 90.093 63.2707 90.4817C63.2707 90.6142 63.2707 90.7215 63.2707 90.7909C63.2707 90.8604 63.2707 90.8982 63.2707 90.8982C63.2707 90.8982 63.2707 90.7531 63.2202 90.488C63.1743 90.107 63.094 89.731 62.9804 89.3645C62.911 89.1309 62.8163 88.8658 62.7405 88.5755C62.6775 88.2712 62.5259 87.9924 62.305 87.7739C62.0362 87.5471 61.6973 87.42 61.3456 87.4141C60.9639 87.3648 60.5765 87.4401 60.2411 87.6287L60.1716 87.6729L60.1275 87.6098C60.0304 87.495 59.9063 87.4061 59.7664 87.351C59.6265 87.2959 59.4752 87.2764 59.3259 87.2942C59.0649 87.3061 58.8091 87.3719 58.5748 87.4874C58.3405 87.603 58.1326 87.7658 57.9642 87.9656C57.7958 88.1653 57.6706 88.3978 57.5965 88.6483C57.5223 88.8989 57.5008 89.162 57.5333 89.4213C57.566 90.078 57.729 90.7217 58.013 91.3148C58.2565 91.8713 58.606 92.375 59.0418 92.7981C59.4312 93.1686 59.9288 93.4052 60.462 93.4734C60.934 93.522 61.4099 93.4321 61.8316 93.2147C62.1386 93.058 62.4094 92.839 62.6268 92.5716C62.8442 92.3042 63.0033 91.9944 63.094 91.662C63.2392 91.1823 63.2202 90.8982 63.2455 90.9045Z" fill="#263238"/>
<path d="M58.752 92.6592C58.752 92.6592 58.9792 92.432 59.2885 92.028C59.7003 91.5192 60.0031 90.931 60.1779 90.3001C60.3528 89.6693 60.3959 89.0092 60.3047 88.3609C60.2415 87.8623 60.1405 87.5656 60.1658 87.553C60.3084 87.795 60.4007 88.0634 60.4372 88.342C60.5665 89.0112 60.5393 89.7014 60.3575 90.3584C60.1757 91.0154 59.8444 91.6214 59.3894 92.129C59.2171 92.3491 58.9998 92.5299 58.752 92.6592Z" fill="#263238"/>
<path d="M63.0447 89.4465C63.0191 89.7043 62.9508 89.9559 62.8428 90.1913C62.6143 90.7701 62.2924 91.3075 61.8897 91.7819C61.4888 92.2593 61.0057 92.6612 60.4632 92.9685C60.2444 93.1064 60.0029 93.2047 59.75 93.2589C60.4975 92.8358 61.1764 92.3016 61.7635 91.6746C62.2874 90.992 62.7183 90.2427 63.0447 89.4465Z" fill="#263238"/>
<path d="M115.716 163.231C115.684 163.231 115.716 162.726 115.652 161.824C115.611 160.541 115.41 159.269 115.053 158.036C114.53 156.223 113.501 154.596 112.086 153.347C111.31 152.646 110.306 152.084 109.442 151.27C108.546 150.465 107.702 149.602 106.917 148.689C104.197 145.448 101.717 142.013 99.4943 138.413C98.6296 137.044 97.9416 135.92 97.4745 135.144C97.2536 134.784 97.0769 134.512 96.938 134.247C96.8704 134.144 96.8133 134.034 96.7676 133.919C96.8538 134.007 96.93 134.105 96.9948 134.21L97.5818 135.074L99.6899 138.293C101.965 141.854 104.463 145.267 107.169 148.512C107.955 149.42 108.798 150.276 109.694 151.075C110.534 151.876 111.512 152.425 112.326 153.164C113.771 154.458 114.808 156.144 115.312 158.018C115.651 159.264 115.823 160.55 115.823 161.842C115.823 162.297 115.823 162.65 115.823 162.884C115.802 163.004 115.766 163.12 115.716 163.231Z" fill="#AA6550"/>
<path d="M26.5488 132.865L28.9599 128.857L28.556 124.66C28.5058 124.147 28.566 123.629 28.7326 123.141C28.8991 122.654 29.1682 122.207 29.5217 121.832L33.1573 117.963L38.3645 116.208C38.434 116.183 38.5081 116.174 38.5817 116.18C38.6553 116.186 38.7267 116.209 38.7909 116.245C38.8551 116.282 38.9106 116.332 38.9535 116.392C38.9965 116.452 39.026 116.521 39.0398 116.593C39.2039 117.559 38.9199 119.162 36.9443 120.639C35.6362 121.639 34.5163 122.864 33.6369 124.256C33.6369 124.256 37.9037 120.677 39.2418 121.731C40.5799 122.785 40.6683 123.738 40.1065 124.458L36.3195 129.274L38.7053 131.521L42.9405 130.139L44.7583 129.703C44.7583 129.703 49.1197 129.81 48.1919 132.739C48.1919 132.739 52.7048 131.3 53.519 131.23C54.7814 131.129 57.8994 130.814 57.4576 132.442C57.2821 132.952 56.9932 133.415 56.6127 133.796C56.2322 134.178 55.7701 134.468 55.2611 134.645C55.2611 134.645 57.2682 135.276 56.069 137.05C55.3966 138.078 54.3847 138.838 53.2098 139.196L46.1027 142.043C45.2347 142.389 44.2704 142.409 43.3886 142.099L41.148 141.304L36.7297 143.198C36.7297 143.198 27.8364 140.648 26.5488 132.865Z" fill="#FFBE9D"/>
<path d="M30.6269 127.248C30.6269 127.248 30.9235 127.008 31.4285 126.541C31.9334 126.074 32.6214 125.354 33.4987 124.477C33.9824 124.003 34.4902 123.554 35.0199 123.132C35.6114 122.617 36.2669 122.18 36.9702 121.832C37.3662 121.642 37.7945 121.529 38.2326 121.498C38.4613 121.486 38.6907 121.505 38.9143 121.554C39.0339 121.579 39.1504 121.617 39.2614 121.668C39.368 121.719 39.4695 121.781 39.5644 121.851C39.7669 121.988 39.9423 122.162 40.0819 122.362C40.1415 122.475 40.184 122.597 40.2082 122.722L40.3028 123.05C40.3986 123.293 40.4206 123.559 40.366 123.814C40.3001 124.046 40.22 124.274 40.1261 124.496C39.731 125.339 39.2258 126.127 38.6239 126.837C38.0875 127.504 37.5099 128.136 36.8945 128.731C35.8803 129.79 34.6828 130.656 33.3599 131.287C32.9002 131.489 32.4023 131.59 31.9002 131.582C31.3981 131.575 30.9036 131.459 30.4502 131.243C30.2104 131.123 29.996 130.958 29.819 130.757C29.6927 130.624 29.6486 130.536 29.6549 130.53C29.904 130.786 30.1941 131 30.5133 131.161C30.9545 131.345 31.4292 131.435 31.9072 131.427C32.3852 131.418 32.8562 131.31 33.2905 131.11C34.5677 130.475 35.7235 129.621 36.7051 128.586C37.3105 127.991 37.8776 127.359 38.403 126.692C38.9863 126.003 39.4746 125.239 39.8547 124.42C39.9459 124.215 40.0239 124.004 40.0882 123.789C40.1285 123.576 40.1043 123.356 40.0188 123.158L39.9241 122.829C39.9112 122.73 39.879 122.633 39.8295 122.545C39.716 122.377 39.5701 122.233 39.4003 122.123C39.3172 122.06 39.2285 122.005 39.1352 121.958C39.0473 121.916 38.9537 121.886 38.8575 121.87C38.661 121.825 38.4591 121.808 38.2578 121.82C37.857 121.841 37.4644 121.942 37.1028 122.116C36.4224 122.458 35.7865 122.882 35.2092 123.379C34.6475 123.827 34.1236 124.25 33.6818 124.679C32.7918 125.531 32.0849 126.244 31.5421 126.68C31.2707 126.894 31.0498 127.052 30.9109 127.153C30.8208 127.197 30.7253 127.229 30.6269 127.248Z" fill="#AA6550"/>
<path d="M33.7323 124.407C33.1549 124.563 32.5542 124.615 31.9587 124.559C31.3653 124.611 30.7673 124.56 30.1914 124.407C30.7679 124.258 31.3653 124.207 31.9587 124.256C32.5542 124.207 33.1536 124.259 33.7323 124.407Z" fill="#AA6550"/>
<path d="M36.5609 116.877C36.5609 116.909 36.1128 117.004 35.3996 117.244C35.0461 117.357 34.6169 117.496 34.1372 117.666C33.8989 117.751 33.6651 117.848 33.4366 117.957C33.2062 118.091 32.994 118.254 32.8054 118.443C32.0101 119.263 31.2653 120.008 30.7352 120.532C30.4673 120.829 30.2245 121.148 30.0093 121.485C29.9651 121.485 30.0661 120.974 30.5774 120.387C31.0886 119.8 31.7766 119.055 32.5908 118.222C32.7989 118.014 33.0346 117.835 33.2914 117.692C33.5346 117.577 33.7856 117.48 34.0425 117.401C34.5159 117.244 34.9514 117.124 35.3049 117.035C35.7049 116.883 36.1357 116.829 36.5609 116.877Z" fill="#AA6550"/>
<path d="M35.8974 132.802C35.9947 132.735 36.101 132.682 36.213 132.644L37.1409 132.253L40.5745 130.864C41.3646 130.529 42.1714 130.234 42.9919 129.981C43.9482 129.681 44.9588 129.594 45.9521 129.728C46.4951 129.814 47.0174 130 47.4922 130.277C47.7606 130.412 47.995 130.606 48.1776 130.844C48.3602 131.082 48.4862 131.359 48.5462 131.653C48.5621 131.966 48.5001 132.278 48.3657 132.561C48.2313 132.845 48.0288 133.09 47.7762 133.275C47.2857 133.63 46.7426 133.904 46.1667 134.09L39.8928 136.52C38.9828 136.904 38.0436 137.214 37.0841 137.448C36.2329 137.647 35.3473 137.647 34.4962 137.448C34.1384 137.367 33.8012 137.213 33.5057 136.996C33.2103 136.779 32.963 136.503 32.7794 136.185C32.5226 135.707 32.3698 135.18 32.3313 134.639C32.2982 134.301 32.2877 133.962 32.2997 133.623C32.2962 133.506 32.309 133.389 32.3376 133.275C32.3692 133.275 32.3376 133.761 32.4512 134.62C32.508 135.139 32.669 135.641 32.9246 136.097C33.1024 136.387 33.3383 136.638 33.6174 136.834C33.8964 137.029 34.2128 137.165 34.5467 137.233C35.3672 137.402 36.2154 137.383 37.0272 137.176C37.9696 136.935 38.8918 136.62 39.7855 136.236L46.0531 133.761C46.5996 133.582 47.1165 133.323 47.5868 132.991C47.7923 132.835 47.9569 132.63 48.0668 132.396C48.1766 132.162 48.2285 131.905 48.218 131.647C48.1651 131.398 48.0564 131.164 47.9001 130.963C47.7438 130.762 47.5439 130.598 47.3154 130.486C46.874 130.225 46.3884 130.047 45.8827 129.962C44.9291 129.826 43.9572 129.901 43.0361 130.183C42.1587 130.423 41.3634 130.744 40.6313 131.022L37.1598 132.322L36.2067 132.657C36.1101 132.718 36.0062 132.767 35.8974 132.802Z" fill="#AA6550"/>
<path d="M48.2999 132.771C48.3925 132.706 48.4948 132.657 48.6029 132.625L49.4865 132.266C50.5804 131.829 51.7075 131.481 52.857 131.224C53.6578 131.055 54.4751 130.976 55.2934 130.991C55.7557 130.999 56.2162 131.05 56.6694 131.142C56.9295 131.203 57.1637 131.344 57.3384 131.546C57.5107 131.76 57.6023 132.029 57.5972 132.303C57.5922 132.576 57.5275 132.843 57.4075 133.088C57.2875 133.332 57.1152 133.547 56.9029 133.717C56.4897 134.055 56.0483 134.357 55.5837 134.62C54.626 135.183 53.6282 135.674 52.5982 136.091C50.6084 136.861 48.5795 137.527 46.52 138.085L43.8375 138.849C43.0633 139.104 42.2752 139.315 41.4769 139.48C40.806 139.615 40.1131 139.596 39.4508 139.423C38.9501 139.277 38.4971 139 38.138 138.622C37.9129 138.387 37.7483 138.101 37.6583 137.788C37.6218 137.681 37.6047 137.568 37.6078 137.454C37.7234 137.863 37.9405 138.237 38.239 138.54C38.5928 138.881 39.0269 139.129 39.5013 139.259C40.1411 139.405 40.8056 139.405 41.4453 139.259C42.1649 139.127 42.9349 138.868 43.7744 138.628L46.4443 137.833C48.4908 137.267 50.5069 136.598 52.4846 135.825C53.4999 135.416 54.4848 134.935 55.4322 134.386C55.876 134.136 56.2982 133.848 56.6946 133.528C56.8811 133.388 57.0345 133.208 57.1436 133.002C57.2527 132.796 57.3149 132.568 57.3258 132.335C57.334 132.123 57.2658 131.916 57.1337 131.75C57.0017 131.584 56.8145 131.472 56.6062 131.432C56.1766 131.339 55.7392 131.286 55.2997 131.275C54.4998 131.247 53.6994 131.311 52.9138 131.464C51.7698 131.699 50.6436 132.013 49.5434 132.404L48.6345 132.707C48.5258 132.741 48.4135 132.763 48.2999 132.771Z" fill="#AA6550"/>
<path d="M88.1275 114.605L88.8913 116.379C89.7244 117.767 91.9462 121.839 91.9462 121.839C91.9462 121.839 96.9956 129.11 96.7683 133.9C96.7242 134.834 93.7955 136.741 93.7955 136.741C93.7955 136.741 84.5424 143.684 82.327 144.138C80.1116 144.592 76.7726 142.478 76.4002 142.383C76.0279 142.289 63.5369 134.33 63.4737 133.206C63.4146 132.712 63.5134 132.212 63.7561 131.778C63.9988 131.343 64.3728 130.997 64.8245 130.789L78.9944 129.987L85.7101 124.71L85.3503 120.002L83.0592 115.464C83.0592 115.464 81.3929 111.153 83.6903 108.59C84.5298 107.719 88.1275 114.605 88.1275 114.605Z" fill="#FFBE9D"/>
<path d="M88.5122 130.101C88.2693 130.303 88.0143 130.491 87.7485 130.662L85.6088 132.114C84.6936 132.745 83.6459 133.433 82.3961 134.228C82.0302 134.368 81.6377 134.424 81.2474 134.393C80.8687 134.393 80.49 134.393 80.0986 134.437C79.316 134.481 78.5081 134.544 77.6812 134.614C76.119 134.772 74.5491 134.843 72.979 134.828C72.2728 134.829 71.5749 134.676 70.9339 134.38C70.6442 134.248 70.395 134.04 70.212 133.78C70.0289 133.519 69.9186 133.214 69.8925 132.897C69.8704 132.375 70.0437 131.864 70.3785 131.464C70.6251 131.171 70.9277 130.931 71.2685 130.757C71.47 130.649 71.6813 130.56 71.8996 130.492C72.0511 130.448 72.1395 130.429 72.1395 130.441C72.1395 130.454 71.8176 130.561 71.3 130.864C70.987 131.047 70.7108 131.287 70.4858 131.571C70.1994 131.945 70.0561 132.408 70.0818 132.878C70.115 133.153 70.2199 133.414 70.3861 133.636C70.5523 133.857 70.7739 134.031 71.0286 134.14C71.6376 134.405 72.2958 134.539 72.96 134.531C74.3928 134.531 75.9707 134.443 77.6307 134.298C78.4576 134.228 79.2718 134.159 80.0545 134.121L81.2158 134.083C81.5639 134.123 81.9165 134.08 82.2446 133.957L85.4636 131.918L87.6601 130.549C87.929 130.372 88.2144 130.222 88.5122 130.101Z" fill="#AA6550"/>
<path d="M88.9857 136.917C88.8976 136.958 88.804 136.986 88.708 136.999L87.8938 137.163L84.902 137.732L80.4522 138.527L77.8265 138.988C77.372 139.057 76.9113 139.158 76.419 139.209C75.9035 139.27 75.3818 139.167 74.9294 138.912C74.4813 138.653 74.1215 138.344 73.7238 138.079C73.3262 137.814 72.9475 137.549 72.5562 137.302C71.8075 136.837 71.0222 136.434 70.2082 136.097C69.4318 135.775 68.6429 135.586 67.9359 135.283C67.2753 135.003 66.6686 134.61 66.1434 134.121C65.6574 133.686 65.2471 133.282 64.881 132.897C64.5542 132.576 64.3546 132.148 64.3193 131.691C64.3133 131.547 64.3364 131.402 64.3874 131.267C64.4384 131.131 64.5161 131.007 64.6159 130.902C64.6855 130.831 64.7725 130.778 64.8684 130.751C64.8684 130.751 64.78 130.808 64.6601 130.946C64.4947 131.155 64.4157 131.42 64.4392 131.685C64.4392 132.417 65.3418 133.111 66.2696 133.957C66.785 134.416 67.3739 134.785 68.0117 135.049C68.6997 135.333 69.4949 135.51 70.2965 135.832C71.129 136.169 71.9314 136.577 72.695 137.05C73.0927 137.29 73.4903 137.549 73.8816 137.826C74.273 138.104 74.658 138.413 75.0619 138.647C75.8698 139.145 76.8545 138.811 77.7571 138.691L80.3891 138.243L84.8452 137.517L87.8559 137.05L88.6764 136.936C88.7775 136.911 88.8823 136.905 88.9857 136.917Z" fill="#AA6550"/>
<path d="M85.1162 141.335C84.7132 141.516 84.2891 141.645 83.8539 141.72C82.8125 141.955 81.7589 142.132 80.698 142.251C79.6318 142.376 78.5587 142.433 77.4853 142.421C77.0252 142.456 76.5672 142.329 76.1914 142.061C76.6155 142.16 77.0498 142.209 77.4853 142.206C78.2932 142.169 79.4293 142.08 80.6412 141.941C81.8531 141.803 82.9955 141.632 83.7971 141.506C84.2297 141.403 84.6718 141.346 85.1162 141.335Z" fill="#AA6550"/>
<path d="M94.5472 135.219C94.5472 135.219 94.5472 135.295 94.5472 135.434C94.4948 135.634 94.423 135.829 94.3326 136.015C93.9579 136.688 93.4112 137.25 92.7483 137.643C92.2995 137.917 91.8209 138.14 91.3219 138.306C91.0631 138.401 90.8295 138.514 90.7601 138.748C90.6907 138.981 90.6717 139.328 90.5581 139.638C90.3432 140.297 89.9284 140.872 89.3715 141.285C88.7619 141.685 88.0766 141.956 87.358 142.08C86.6746 142.197 86.0073 142.394 85.3698 142.667C84.8018 142.977 84.2274 143.355 83.6972 143.671C83.4258 143.829 83.1797 143.993 82.883 144.138C82.606 144.264 82.3091 144.341 82.0057 144.365C81.4738 144.399 80.94 144.342 80.4277 144.195C79.7038 143.977 78.9988 143.7 78.3196 143.368C78.0663 143.26 77.8233 143.129 77.5938 142.977C77.864 143.037 78.1265 143.128 78.3764 143.248C79.0621 143.535 79.7664 143.776 80.4845 143.968C80.9723 144.095 81.4782 144.137 81.9804 144.094C82.2518 144.068 82.5167 143.996 82.7631 143.879C83.0029 143.753 83.268 143.576 83.5331 143.412C84.0759 143.084 84.5998 142.724 85.2247 142.377C85.8825 142.084 86.5734 141.872 87.2823 141.746C87.9554 141.628 88.5987 141.379 89.1758 141.014C89.6792 140.639 90.0594 140.122 90.2678 139.53C90.3751 139.246 90.3814 138.969 90.4824 138.634C90.55 138.483 90.6529 138.35 90.7825 138.247C90.9121 138.143 91.0646 138.073 91.2272 138.041C91.713 137.88 92.1805 137.668 92.6221 137.41C93.2671 137.052 93.8135 136.54 94.2126 135.92C94.4777 135.503 94.5472 135.207 94.5472 135.219Z" fill="#AA6550"/>
<path d="M87.4014 123.265C86.1057 124.507 84.7356 125.668 83.2988 126.743C81.932 127.904 80.4944 128.979 78.9941 129.962C80.2904 128.724 81.6582 127.562 83.0905 126.484C84.4606 125.324 85.9002 124.249 87.4014 123.265Z" fill="#AA6550"/>
</svg>
