<svg width="370" height="264" viewBox="0 0 370 264" fill="none" xmlns="http://www.w3.org/2000/svg">
<g clip-path="url(#clip0_2891_35746)">
<rect width="370" height="264" fill="white"/>
<circle cx="181" cy="132" r="120" fill="url(#paint0_radial_2891_35746)"/>
<path d="M221.871 146.016C221.871 146.016 229.337 148.946 232.799 159.876C235.204 167.479 246.463 224.081 246.463 224.081L230.764 234.416L224.382 181.418L221.871 146.016Z" fill="#E1E0E6"/>
<path d="M162.17 118.982L157.254 127.694C157.254 127.694 124.391 144.379 124.509 146.016C124.509 146.016 126.346 208.293 126.69 253.979C126.822 271.231 126.188 287.084 125.844 294.701C124.932 314.699 124.219 392.381 124.219 392.381L243.147 389.569L221.872 146.016L205.09 138.69L202.949 134.321L195.246 128.064L162.17 118.982Z" fill="#E1E0E6"/>
<path d="M214.25 390.216C214.267 390.04 214.267 389.863 214.25 389.688C214.25 389.305 214.25 388.79 214.184 388.143C214.104 386.731 213.999 384.724 213.853 382.164C213.549 376.95 213.1 369.452 212.532 360.225C211.409 341.666 209.889 316.085 208.158 287.823C206.427 259.562 205.053 233.981 203.982 215.408C203.493 206.168 203.084 198.684 202.806 193.457C202.661 190.896 202.555 188.903 202.476 187.49C202.476 186.843 202.397 186.329 202.37 185.946C202.36 185.768 202.338 185.592 202.304 185.418C202.289 185.593 202.289 185.77 202.304 185.946C202.304 186.329 202.304 186.843 202.304 187.503C202.304 188.903 202.41 190.909 202.502 193.47C202.687 198.657 203.018 206.168 203.454 215.435C204.326 233.915 205.727 259.589 207.418 287.876C209.109 316.164 210.748 341.732 212.003 360.252C212.638 369.492 213.166 376.963 213.523 382.19C213.721 384.738 213.88 386.744 213.986 388.143L214.118 389.701C214.142 389.877 214.187 390.05 214.25 390.216V390.216Z" fill="#403E48"/>
<path d="M195.245 128.064L198.006 147.138L202.948 185.418L181.409 148.484L162.711 124.011L193.527 145.58L193.91 127.707" fill="#C0B1FB"/>
<path d="M157.109 128.856C157.26 129.371 157.459 129.87 157.704 130.347C158.167 131.39 158.774 132.776 159.541 134.479L166.227 148.999L166.307 149.184H166.518H171.011L170.799 148.577L167.496 151.283L167.192 151.533L167.469 151.811L173.733 157.935L193.885 177.458L200.043 183.306L201.747 184.877C201.933 185.072 202.142 185.245 202.368 185.391C202.223 185.16 202.045 184.951 201.84 184.771L200.241 183.108L194.228 177.089L174.235 157.421C172.081 155.309 169.967 153.263 167.958 151.309V151.824L171.249 149.105L171.975 148.497H171.024H166.531L166.822 148.682C164.007 142.821 161.629 137.858 159.898 134.268C159.065 132.591 158.404 131.232 157.902 130.215C157.674 129.742 157.409 129.288 157.109 128.856V128.856Z" fill="#403E48"/>
<path d="M202.951 185.378C203.156 184.598 203.302 183.804 203.387 183.002C203.625 181.352 203.929 179.161 204.299 176.508C205.039 171.017 206.016 163.427 207.047 155.045L207.999 147.23V146.927L207.695 146.847L202.29 145.527V146.161L207.708 145.197L208.078 145.131L207.919 144.801L204.351 137.053C203.942 136.221 203.611 135.522 203.334 134.954C203.235 134.697 203.097 134.456 202.924 134.241C202.98 134.511 203.068 134.773 203.189 135.02C203.426 135.601 203.717 136.34 204.061 137.185C204.906 139.165 206.043 141.818 207.404 145.026L207.615 144.643L202.184 145.527L200.625 145.778L202.158 146.161L207.549 147.481L207.285 147.111C206.968 149.593 206.651 152.22 206.307 154.913C205.276 163.308 204.378 170.898 203.77 176.402C203.493 179.042 203.255 181.273 203.083 183.002C202.977 183.79 202.933 184.584 202.951 185.378V185.378Z" fill="#403E48"/>
<path d="M234.454 290.001C234.443 289.892 234.443 289.781 234.454 289.671L234.336 288.721C234.247 287.841 234.115 286.613 233.939 285.038C233.622 281.765 233.173 277.118 232.618 271.469C231.534 260.011 230.081 244.171 228.548 226.681C227.015 209.191 225.693 193.338 224.808 181.801C224.372 176.059 224.055 171.413 223.87 168.205C223.764 166.595 223.724 165.354 223.698 164.496C223.698 164.113 223.698 163.796 223.698 163.532C223.679 163.423 223.679 163.311 223.698 163.202C224.015 166.925 226.222 192.15 229.235 226.562C230.741 244.039 232.116 259.853 233.107 271.376C233.569 277.065 233.952 281.685 234.217 284.959C234.336 286.517 234.428 287.757 234.494 288.655C234.494 289.038 234.494 289.355 234.494 289.619C234.5 289.747 234.486 289.876 234.454 290.001Z" fill="#403E48"/>
<path d="M251.684 225.335C252.192 227.163 252.379 229.066 252.239 230.958C251.962 233.849 251.83 240.95 244.126 243.379C236.422 245.808 232.682 243.485 230.317 240.224L229.141 226.1L237.386 220.662L251.684 225.335Z" fill="#E1E0E6"/>
<g opacity="0.3">
<path d="M187.316 234.416C187.316 234.416 167.614 253.86 152.312 256.658C137.009 259.457 131.539 254.018 127.469 240.33L187.316 234.416Z" fill="#403E48"/>
</g>
<path d="M124.867 145.541C124.867 145.541 112.353 157.13 115.921 184.573C119.225 210.075 125.171 245.583 132.941 249.715C140.711 253.847 157.692 251.774 170.073 244.765C182.455 237.756 218.332 218.801 218.332 218.801L203.479 192.401L155.63 210.881C155.63 210.881 149.446 168.641 145.733 161.301" fill="#E1E0E6"/>
<path d="M145.534 160.813C145.534 160.813 145.666 161.09 145.904 161.631C146.009 161.895 146.168 162.225 146.327 162.635C146.485 163.044 146.617 163.545 146.802 164.087C147.503 166.278 148.335 169.565 149.247 173.841C151.097 182.382 153.33 194.843 155.682 210.366L155.339 210.155L203.161 191.543L203.425 191.437L203.571 191.688C208.262 200.03 213.257 208.848 218.437 218.088L218.609 218.405L218.292 218.576L187.608 235.089L172.557 243.181C170.086 244.501 167.628 245.887 165.078 246.983C162.533 248.057 159.92 248.961 157.255 249.689C152.064 251.141 146.677 251.765 141.292 251.537C138.667 251.42 136.08 250.862 133.641 249.887L132.742 249.491C132.452 249.345 132.174 249.134 131.883 248.949C131.392 248.533 130.949 248.064 130.562 247.55C129.775 246.537 129.098 245.444 128.54 244.29C126.478 239.851 124.867 235.216 123.73 230.456C122.528 225.876 121.576 221.375 120.717 217.005C119.026 208.28 117.77 200.096 116.753 192.612C115.735 185.127 114.771 178.316 115.048 172.284C115.179 167.128 116.097 162.022 117.77 157.143C118.855 154.07 120.382 151.171 122.303 148.537C122.808 147.856 123.355 147.208 123.942 146.597C124.142 146.391 124.354 146.198 124.576 146.016L123.994 146.649C123.434 147.276 122.909 147.932 122.422 148.616C120.562 151.269 119.085 154.171 118.035 157.236C116.395 162.094 115.504 167.172 115.392 172.297C115.154 178.29 116.105 185.061 117.189 192.533C118.273 200.004 119.554 208.188 121.272 216.9C122.131 221.243 123.096 225.731 124.312 230.298C125.443 235.012 127.041 239.602 129.082 243.999C129.616 245.103 130.257 246.151 130.998 247.128C131.388 247.615 131.832 248.058 132.319 248.448C132.563 248.62 132.82 248.775 133.086 248.91L133.932 249.293C136.311 250.222 138.831 250.744 141.384 250.837C146.694 251.054 152.005 250.435 157.123 249.002C159.749 248.288 162.327 247.406 164.84 246.362C167.377 245.267 169.782 243.907 172.266 242.587L187.317 234.482L218.014 217.982L217.869 218.457L203.042 192.057L203.452 192.203L155.577 210.683L155.273 210.801V210.485C152.987 194.975 150.833 182.501 149.075 173.947C148.216 169.67 147.423 166.37 146.763 164.179C146.604 163.638 146.459 163.149 146.327 162.727L145.943 161.711C145.679 161.103 145.534 160.813 145.534 160.813Z" fill="#403E48"/>
<path d="M162.711 192.44H186.457V184.547H162.711V192.44Z" fill="white"/>
<path d="M167.629 188.019C170.078 187.663 172.557 187.543 175.029 187.662C177.506 187.543 179.988 187.663 182.442 188.019C179.987 188.358 177.505 188.473 175.029 188.362C172.557 188.473 170.08 188.358 167.629 188.019V188.019Z" fill="#403E48"/>
<g opacity="0.3">
<path d="M201.745 184.903L166.794 156.576L167.626 154.107H164.587L159.539 134.479L166.807 148.735L171.009 148.537L167.957 151.335L201.745 184.903Z" fill="#403E48"/>
</g>
<path d="M158.575 152.616L159.896 152.088C159.896 152.022 157.029 145.197 154.214 137.964C153.203 135.741 152.793 133.292 153.025 130.862C153.183 130.098 153.607 129.413 154.221 128.93C154.835 128.447 155.6 128.197 156.381 128.222L157.306 127.734L157.782 126.889C155.337 126.361 152.06 128.407 151.664 130.664C151.406 133.348 151.862 136.053 152.985 138.505C155.694 145.778 158.535 152.55 158.575 152.616Z" fill="#6C6A7C"/>
<path d="M156.516 168.561L158.274 167.875C156.834 164.166 154.865 157.605 155.71 155.757C156.127 155.098 156.68 154.534 157.332 154.104C157.983 153.674 158.719 153.387 159.49 153.263C160.433 153.014 161.422 152.987 162.378 153.184C163.334 153.381 164.232 153.796 165 154.398C167.009 156.101 170.048 162.093 171.052 164.271L172.757 163.48C172.611 163.15 168.964 155.269 166.216 152.92C165.227 152.129 164.067 151.579 162.829 151.313C161.59 151.048 160.307 151.073 159.08 151.388C158.015 151.573 157.006 151.995 156.127 152.623C155.248 153.252 154.523 154.071 154.006 155.018C152.579 158.081 155.843 166.898 156.516 168.561Z" fill="#6C6A7C"/>
<path d="M175.491 197.179C177.658 197.179 179.799 196.017 181.847 193.721L181.133 193.087C178.887 195.635 176.561 196.638 174.262 196.097C164.867 193.892 157.704 167.822 157.638 167.558L156.727 167.796C157.03 168.891 164.1 194.684 174.037 197.007C174.513 197.123 175.001 197.181 175.491 197.179Z" fill="#403E48"/>
<path d="M180.036 194.79C180.227 194.981 180.481 195.096 180.75 195.116C181.019 195.135 181.287 195.057 181.503 194.895L183.538 193.377C183.69 193.283 183.821 193.158 183.923 193.011C184.025 192.864 184.096 192.698 184.132 192.522C184.168 192.347 184.168 192.166 184.132 191.991C184.095 191.816 184.024 191.65 183.921 191.503V191.503C183.813 191.334 183.668 191.191 183.497 191.086C183.326 190.982 183.132 190.917 182.932 190.898C182.732 190.879 182.531 190.906 182.342 190.976C182.154 191.047 181.985 191.159 181.847 191.305L180.01 193.206C179.804 193.42 179.691 193.706 179.695 194.003C179.7 194.3 179.823 194.583 180.036 194.79V194.79Z" fill="#403E48"/>
<path d="M171.501 198.037C172.723 198.131 173.95 197.918 175.069 197.417C176.188 196.917 177.165 196.146 177.909 195.173C183.684 187.081 172.796 164.615 172.333 163.664L171.487 164.074C171.593 164.311 182.601 186.989 177.143 194.631C175.716 196.625 173.179 197.417 169.717 196.981L169.598 197.905C170.228 197.993 170.864 198.037 171.501 198.037Z" fill="#403E48"/>
<path d="M171.672 197.522C171.654 197.791 171.539 198.044 171.35 198.235C171.161 198.426 170.909 198.544 170.641 198.565L168.104 198.776C167.928 198.804 167.749 198.796 167.576 198.753C167.403 198.71 167.241 198.633 167.099 198.525C166.957 198.418 166.839 198.283 166.75 198.129C166.662 197.975 166.605 197.804 166.584 197.628V197.628C166.551 197.43 166.564 197.227 166.622 197.034C166.679 196.842 166.78 196.665 166.917 196.517C167.053 196.369 167.221 196.255 167.409 196.182C167.596 196.109 167.798 196.08 167.998 196.097L170.641 196.321C170.935 196.348 171.208 196.488 171.4 196.713C171.593 196.937 171.69 197.227 171.672 197.522Z" fill="#403E48"/>
<path d="M216.893 169.961C220.6 169.961 223.605 166.958 223.605 163.255C223.605 159.552 220.6 156.549 216.893 156.549C213.185 156.549 210.18 159.552 210.18 163.255C210.18 166.958 213.185 169.961 216.893 169.961Z" fill="#403E48"/>
<path d="M216.893 169.961C220.6 169.961 223.605 166.958 223.605 163.255C223.605 159.552 220.6 156.549 216.893 156.549C213.185 156.549 210.18 159.552 210.18 163.255C210.18 166.958 213.185 169.961 216.893 169.961Z" fill="#403E48"/>
<path d="M211.934 163.255C211.931 164.238 212.221 165.199 212.765 166.017C213.31 166.836 214.086 167.474 214.995 167.851C215.903 168.228 216.903 168.328 217.868 168.137C218.833 167.946 219.72 167.473 220.415 166.778C221.111 166.083 221.585 165.197 221.776 164.233C221.967 163.269 221.868 162.27 221.49 161.363C221.112 160.455 220.473 159.68 219.654 159.136C218.835 158.592 217.873 158.302 216.889 158.305C215.575 158.305 214.314 158.826 213.385 159.755C212.456 160.683 211.934 161.942 211.934 163.255Z" fill="#E1E0E6"/>
<path d="M202.647 134.044C203.281 134.954 210.298 149.752 214.13 157.21L215.253 156.629C214.685 155.533 204.484 134.506 203.691 133.331L196.264 127.298L196 128.711L202.647 134.044Z" fill="#6C6A7C"/>
<path d="M199.829 163.097C204.692 167.941 217.008 180.547 217.008 180.547L220.298 178.567L202.961 160.087C202.609 159.712 202.136 159.475 201.625 159.417C201.114 159.359 200.6 159.484 200.173 159.77V159.77C199.906 159.947 199.682 160.18 199.516 160.454C199.35 160.727 199.247 161.034 199.215 161.352C199.182 161.67 199.22 161.992 199.326 162.293C199.432 162.595 199.604 162.869 199.829 163.097V163.097Z" fill="#403E48"/>
<path d="M203.332 191.859L207.468 180.217C207.897 178.961 208.695 177.863 209.759 177.067C210.822 176.272 212.1 175.814 213.428 175.755H214.049C216.533 176.033 229.179 176.864 229.179 176.864L234.068 182.342C234.471 182.798 234.693 183.385 234.693 183.992C234.693 184.6 234.471 185.186 234.068 185.642V185.642L235.482 195.542L232.747 197.443L233.025 204.36C233.025 204.36 230.553 205.997 229.457 205.455L228.347 204.901L226.708 203.251L222.03 209.851L215.568 213.587L203.332 191.859Z" fill="#FFBF9D"/>
<path d="M234.15 186.197C233.598 185.525 233.006 184.886 232.38 184.283C231.676 183.679 230.877 183.197 230.014 182.857C228.891 182.592 227.745 182.437 226.592 182.395C223.556 182.228 220.538 181.822 217.566 181.181C220.605 181.108 223.645 181.276 226.658 181.682C227.87 181.722 229.072 181.908 230.239 182.237C231.165 182.629 232.008 183.193 232.723 183.9C233.439 184.487 233.941 185.295 234.15 186.197Z" fill="#FF9A6C"/>
<path d="M233.872 195.291C233.589 194.429 233.249 193.587 232.854 192.77C231.726 190.901 230.005 189.461 227.965 188.678C225.889 187.932 223.696 187.561 221.49 187.583C220.564 187.646 219.635 187.619 218.715 187.503C219.609 187.205 220.547 187.063 221.49 187.081C223.777 186.904 226.075 187.219 228.229 188.005C230.421 188.838 232.228 190.45 233.303 192.533C233.799 193.362 233.999 194.334 233.872 195.291Z" fill="#FF9A6C"/>
<path d="M232.63 203.779C232.173 202.947 231.945 202.009 231.97 201.06C231.916 200.087 231.706 199.129 231.349 198.222C231.104 197.702 230.735 197.25 230.274 196.907C229.813 196.564 229.274 196.34 228.706 196.255C226.528 195.789 224.32 195.472 222.099 195.305C221.155 195.267 220.227 195.052 219.363 194.671C220.295 194.649 221.226 194.693 222.151 194.803C224.414 194.821 226.668 195.073 228.878 195.555C229.543 195.721 230.171 196.012 230.728 196.413C231.245 196.817 231.646 197.35 231.89 197.958C232.251 198.938 232.426 199.976 232.406 201.02C232.472 202.736 232.749 203.739 232.63 203.779Z" fill="#FF9A6C"/>
<path d="M239.525 181.946L184.977 238.218L187.078 240.343L226.152 235.947L278.732 185.906L278.679 183.504L239.525 181.946Z" fill="#6C6A7C"/>
<g opacity="0.3">
<path d="M249.743 208.188C248.458 207.017 246.941 206.128 245.291 205.578C243.641 205.027 241.894 204.829 240.163 204.994C236.694 205.349 233.409 206.727 230.728 208.954C228.457 210.615 226.802 212.983 226.023 215.686C224.913 220.411 228.812 227.024 233.106 229.321C238.55 224.952 243.849 218.246 249.294 213.89C250.177 213.32 250.842 212.469 251.183 211.475C251.229 210.851 251.122 210.226 250.871 209.653C250.62 209.08 250.233 208.577 249.743 208.188V208.188Z" fill="#403E48"/>
</g>
<path d="M278.522 185.801C278.284 185.817 278.046 185.817 277.808 185.801H275.72L267.897 185.708L240.676 185.233L240.927 185.127L227.263 199.291L198.919 228.423L190.277 237.188L187.898 239.551C187.63 239.834 187.343 240.098 187.039 240.343C187.272 240.038 187.533 239.755 187.819 239.498L190.105 237.043L198.588 228.12C205.843 220.583 215.767 210.247 226.774 198.842C231.598 193.853 236.236 189.074 240.464 184.718L240.57 184.613H240.676L267.858 185.391L275.667 185.669L277.755 185.774C278.011 185.755 278.268 185.764 278.522 185.801Z" fill="#403E48"/>
<path d="M244.375 202.301C244.375 202.301 249.661 202.406 251.392 203.264C253.123 204.122 257.854 209.138 257.854 209.138C257.854 209.138 257.854 212.57 256.532 212.702C256.701 213.47 256.794 214.253 256.81 215.039C256.942 216.966 257.219 218.061 254.603 219.711C254.603 219.711 254.88 222.866 253.916 223.671C253.264 224.219 252.575 224.722 251.854 225.176C251.854 225.176 251.709 228.648 247.044 228.608L242.67 230.535C242.67 230.535 232.945 229.625 233.975 228.476C235.006 227.328 237.345 221.639 237.345 221.639C237.345 221.639 230.738 216.794 230.817 215.289C230.896 213.785 231.504 213.639 231.504 213.639C231.504 213.639 231.24 210.762 233.566 210.485C233.566 210.485 235.363 206.907 237.147 206.775C238.931 206.643 251.035 211.026 251.035 211.026L246.502 207.185C246.502 207.185 241.957 206.498 242.102 204.98C242.247 203.462 244.375 202.301 244.375 202.301Z" fill="#FFBF9D"/>
<path d="M243.582 220.398C241.484 219.514 239.433 218.523 237.438 217.428C235.339 216.53 233.288 215.526 231.293 214.418C233.556 214.839 235.738 215.619 237.755 216.728C239.878 217.639 241.844 218.877 243.582 220.398Z" fill="#FF9A6C"/>
<path d="M249.926 216.2C247.215 215.574 244.562 214.717 241.997 213.64C239.362 212.785 236.806 211.703 234.359 210.406C237.07 211.032 239.723 211.889 242.288 212.966C244.923 213.821 247.479 214.903 249.926 216.2V216.2Z" fill="#FF9A6C"/>
<path d="M163.794 94.5623C162.035 88.5758 160.789 82.451 160.068 76.2539C159.347 70.0268 160.182 63.7184 162.499 57.8927C162.882 57.0215 166.001 51.2927 166.926 51.3719C167.6 51.4643 165.604 56.9159 165.895 57.5231C168.855 63.2519 169.384 69.9971 168.538 76.3991C167.656 82.609 166.082 88.7011 163.847 94.5623" fill="#403E48"/>
<path d="M164.418 70.7625C164.709 55.1073 174.078 42.2506 189.724 43.0426L191.164 43.201C198.171 43.9231 204.648 47.2583 209.302 52.5409C213.956 57.8235 216.445 64.665 216.271 71.6997C215.941 85.2561 215.399 100.225 214.553 107.432C212.796 122.335 197.599 123.087 197.599 123.087L194.137 146.082L162.172 123.879L164.418 70.7625Z" fill="#FFBF9D"/>
<path d="M197.544 123.14C190.642 122.391 184.099 119.684 178.688 115.339C178.687 115.339 181.674 128.104 196.725 128.328L197.544 123.14Z" fill="#FF9A6C"/>
<path d="M210.522 84.1209C210.469 84.6767 210.2 85.1894 209.772 85.5495C209.345 85.9097 208.794 86.0886 208.236 86.0481C207.963 86.0414 207.693 85.98 207.444 85.8675C207.194 85.755 206.97 85.5937 206.784 85.3931C206.598 85.1926 206.454 84.9568 206.361 84.6997C206.268 84.4427 206.227 84.1696 206.241 83.8965C206.295 83.3397 206.564 82.8256 206.99 82.4634C207.417 82.1012 207.968 81.9192 208.527 81.9561C208.801 81.9645 209.071 82.0275 209.321 82.1415C209.57 82.2554 209.794 82.4179 209.98 82.6195C210.166 82.8212 210.31 83.0578 210.403 83.3156C210.496 83.5734 210.537 83.8472 210.522 84.1209V84.1209Z" fill="#403E48"/>
<path d="M212.373 77.4945C212.083 77.7321 210.589 76.3725 208.29 76.1745C205.991 75.9765 204.194 76.9137 203.969 76.6101C203.744 76.3065 204.18 75.9897 204.973 75.5409C206.04 74.952 207.265 74.7119 208.475 74.8545C209.668 74.9752 210.792 75.4696 211.686 76.2669C212.334 76.8477 212.519 77.3757 212.373 77.4945Z" fill="#403E48"/>
<path d="M190.87 83.197C190.816 83.7538 190.548 84.2679 190.121 84.6301C189.694 84.9924 189.143 85.1743 188.584 85.1374C188.31 85.129 188.04 85.066 187.79 84.952C187.541 84.8381 187.317 84.6756 187.131 84.474C186.945 84.2723 186.801 84.0357 186.708 83.7779C186.615 83.5201 186.575 83.2463 186.589 82.9726C186.658 82.4277 186.934 81.93 187.359 81.5815C187.784 81.233 188.326 81.0601 188.875 81.0982C189.144 81.105 189.409 81.1648 189.655 81.274C189.901 81.3832 190.122 81.5397 190.308 81.7346C190.493 81.9295 190.638 82.159 190.735 82.4099C190.831 82.6608 190.877 82.9283 190.87 83.197V83.197Z" fill="#403E48"/>
<path d="M189.776 76.0426C189.485 76.2934 187.992 74.9338 185.692 74.7226C183.393 74.5114 181.596 75.4618 181.371 75.145C181.147 74.8282 181.583 74.5378 182.376 74.089C183.442 73.5001 184.667 73.26 185.877 73.4026C187.07 73.5233 188.194 74.0177 189.089 74.815C189.736 75.409 189.921 75.937 189.776 76.0426Z" fill="#403E48"/>
<path d="M196.156 94.5489C197.407 94.2908 198.687 94.1976 199.962 94.2717C200.543 94.2717 201.112 94.2717 201.283 93.8229C201.396 93.2213 201.322 92.5996 201.072 92.0409L199.817 87.3945C198.072 80.7945 196.883 75.3825 197.174 75.3165C197.464 75.2505 199.063 80.5965 200.808 87.1965C201.217 88.8201 201.614 90.3777 201.997 91.8561C202.271 92.611 202.271 93.4377 201.997 94.1925C201.892 94.389 201.743 94.5588 201.562 94.6892C201.381 94.8196 201.173 94.9071 200.953 94.9449C200.615 94.9886 200.273 94.9886 199.936 94.9449C198.664 94.9683 197.395 94.8353 196.156 94.5489V94.5489Z" fill="#403E48"/>
<path d="M189.232 95.4203C189.602 95.4203 189.351 97.9283 191.293 99.9215C193.236 101.915 195.918 101.915 195.905 102.271C195.892 102.627 195.257 102.693 194.134 102.601C192.673 102.469 191.305 101.824 190.276 100.779C189.281 99.783 188.717 98.4375 188.703 97.0307C188.716 95.9747 189.06 95.3939 189.232 95.4203Z" fill="#403E48"/>
<path d="M190.633 66.7235C190.342 67.3175 188.083 66.7235 185.347 66.8291C182.612 66.9347 180.366 67.3703 180.062 66.8291C179.929 66.5387 180.379 65.9975 181.383 65.5091C182.611 64.8858 183.97 64.5602 185.347 64.5587C186.722 64.5513 188.079 64.8631 189.312 65.4695C190.316 65.8919 190.765 66.4331 190.633 66.7235Z" fill="#403E48"/>
<path d="M212.227 69.7595C211.764 70.2347 210.245 69.5351 208.342 69.3107C206.439 69.0863 204.8 69.3107 204.483 68.7035C204.351 68.4263 204.655 67.9247 205.408 67.5023C206.413 66.9998 207.548 66.8199 208.659 66.9875C209.773 67.0988 210.824 67.5611 211.658 68.3075C212.266 68.9675 212.438 69.5219 212.227 69.7595Z" fill="#403E48"/>
<path d="M164.469 81.9429C164.218 81.7977 154.519 77.8245 153.765 88.0677C153.012 98.3109 163.465 96.9513 163.504 96.6609C163.544 96.3705 164.469 81.9429 164.469 81.9429Z" fill="#FFBF9D"/>
<path d="M160.651 92.5425C160.651 92.5425 160.466 92.6613 160.149 92.7801C159.714 92.9187 159.243 92.8904 158.827 92.7009C157.783 92.2257 156.991 90.4437 157.07 88.5957C157.114 87.7156 157.348 86.8554 157.757 86.0745C157.87 85.751 158.063 85.4609 158.316 85.2304C158.57 84.9999 158.878 84.8363 159.211 84.7545C159.42 84.7129 159.638 84.7472 159.824 84.8512C160.01 84.9552 160.154 85.1221 160.228 85.3221C160.347 85.6125 160.228 85.8105 160.321 85.8369C160.413 85.8633 160.545 85.6785 160.492 85.2561C160.455 84.9973 160.329 84.7595 160.136 84.5829C160.005 84.4668 159.852 84.3779 159.686 84.3212C159.521 84.2646 159.346 84.2413 159.171 84.2529C158.742 84.3011 158.334 84.4605 157.986 84.7152C157.639 84.97 157.364 85.3111 157.189 85.7049C156.691 86.5574 156.405 87.5173 156.356 88.5033C156.277 90.5757 157.189 92.5821 158.642 93.1233C158.912 93.2232 159.2 93.2609 159.487 93.2334C159.773 93.206 160.049 93.1142 160.294 92.9649C160.625 92.7933 160.691 92.5689 160.651 92.5425Z" fill="#FF9A6C"/>
<path d="M210.679 54.223C212.397 53.4178 207.759 47.7286 203.794 45.6166C197.808 42.4222 188.505 40.099 182.651 41.3398C175.674 42.8446 169.767 45.8806 165.935 51.8998C162.218 58.0245 160.197 65.0266 160.081 72.1882C159.855 74.3641 160.215 76.5608 161.125 78.5506C162.447 80.9002 165.09 82.5106 164.746 85.6258C164.671 86.1885 164.709 86.7605 164.856 87.3087C165.003 87.857 165.258 88.3707 165.605 88.8202C167.362 90.9454 169.767 89.2162 170.957 87.4078C173.467 83.527 174.022 78.7618 174.525 74.2078C175.06 70.9693 175.06 67.6651 174.525 64.4266C174.128 62.6842 173.428 61.021 173.203 59.2522C173.001 58.3813 172.991 57.4768 173.173 56.6016C173.356 55.7263 173.727 54.9012 174.26 54.1834C174.531 53.8971 174.827 53.6364 175.146 53.4046C176.658 52.2519 178.45 51.5222 180.338 51.2902C182.226 51.0582 184.142 51.3324 185.889 52.0846C191.531 54.5002 201.204 58.183 203.913 56.3878C207.798 53.8138 208.802 52.0318 208.802 52.0318L210.679 54.223Z" fill="#403E48"/>
<path d="M369.914 263.778L0.479694 264H0.171331V263.778L0 0.369334V0H0.4283L369.863 0.251167H370V0.354569L369.914 263.778ZM369.914 263.778L369.777 0.369334L369.914 0.487524L0.479694 0.738668L0.907994 0.369334L0.73669 263.778L0.479694 263.557L369.914 263.778Z" fill="#6C6A7C"/>
<path d="M14.4458 7.72289C14.4458 8.45921 14.2274 9.179 13.8184 9.79122C13.4093 10.4034 12.8278 10.8806 12.1476 11.1624C11.4673 11.4442 10.7188 11.5179 9.99659 11.3742C9.27442 11.2306 8.61106 10.876 8.09041 10.3554C7.56975 9.83471 7.21518 9.17135 7.07154 8.44919C6.92789 7.72702 7.00161 6.97848 7.28339 6.29822C7.56517 5.61795 8.04233 5.0365 8.65455 4.62742C9.26678 4.21835 9.98656 4 10.7229 4C11.7103 4 12.6572 4.39224 13.3554 5.09042C14.0535 5.7886 14.4458 6.73552 14.4458 7.72289Z" fill="#F877A0"/>
<path d="M14.3005 7.85968C14.298 8.863 13.9103 9.82704 13.2175 10.5528C12.5248 11.2786 11.5798 11.7106 10.5777 11.7598C10.0567 11.7814 9.53671 11.6998 9.04741 11.5198C8.55811 11.3398 8.1092 11.0649 7.72641 10.7109C7.33503 10.3447 7.02301 9.90203 6.8097 9.4103C6.59639 8.91858 6.48633 8.38829 6.48633 7.85229C6.48633 7.31629 6.59639 6.786 6.8097 6.29427C7.02301 5.80255 7.33503 5.35987 7.72641 4.99365C8.28236 4.47001 8.97983 4.12114 9.73227 3.99029C10.4847 3.85944 11.259 3.95238 11.9591 4.25759C12.6592 4.5628 13.2543 5.06684 13.6705 5.70718C14.0867 6.34752 14.3058 7.09597 14.3005 7.85968V7.85968ZM14.3005 7.85968C14.2937 7.37373 14.191 6.8939 13.9983 6.44772C13.8056 6.00154 13.5268 5.59779 13.1778 5.25958C12.6727 4.7884 12.0409 4.47503 11.3601 4.35798C10.6793 4.24092 9.97921 4.32525 9.34571 4.60064C8.71222 4.87604 8.17298 5.33048 7.79421 5.90815C7.41545 6.48581 7.21368 7.16153 7.21368 7.85229C7.21368 8.54305 7.41545 9.21877 7.79421 9.79643C8.17298 10.3741 8.71222 10.8285 9.34571 11.1039C9.97921 11.3793 10.6793 11.4637 11.3601 11.3466C12.0409 11.2296 12.6727 10.9162 13.1778 10.445C13.5257 10.1091 13.8039 9.70779 13.9966 9.26416C14.1893 8.82054 14.2925 8.34327 14.3005 7.85968V7.85968Z" fill="#6C6A7C"/>
<path d="M29.5024 7.85961C29.5024 8.59593 29.2841 9.31572 28.875 9.92794C28.4659 10.5402 27.8845 11.0173 27.2042 11.2991C26.524 11.5809 25.7754 11.6546 25.0532 11.511C24.3311 11.3673 23.6677 11.0127 23.147 10.4921C22.6264 9.97143 22.2718 9.30807 22.1282 8.5859C21.9845 7.86373 22.0583 7.1152 22.34 6.43493C22.6218 5.75467 23.099 5.17322 23.7112 4.76414C24.3234 4.35506 25.0432 4.13672 25.7795 4.13672C26.2684 4.13672 26.7525 4.23303 27.2042 4.42012C27.6559 4.60721 28.0663 4.88144 28.412 5.22714C28.7577 5.57284 29.0319 5.98325 29.219 6.43493C29.4061 6.88662 29.5024 7.37072 29.5024 7.85961V7.85961Z" fill="#FFAA00"/>
<path d="M29.5017 7.85968C29.4991 8.863 29.1115 9.82704 28.4187 10.5528C27.7259 11.2786 26.781 11.7106 25.7788 11.7598C25.2579 11.7814 24.7379 11.6998 24.2486 11.5198C23.7593 11.3398 23.3104 11.0649 22.9276 10.7109C22.5362 10.3447 22.2242 9.90203 22.0109 9.4103C21.7976 8.91858 21.6875 8.38829 21.6875 7.85229C21.6875 7.31629 21.7976 6.786 22.0109 6.29427C22.2242 5.80255 22.5362 5.35987 22.9276 4.99365C23.4835 4.47001 24.181 4.12114 24.9334 3.99029C25.6859 3.85944 26.4602 3.95238 27.1603 4.25759C27.8604 4.5628 28.4554 5.06684 28.8717 5.70718C29.2879 6.34752 29.507 7.09597 29.5017 7.85968V7.85968ZM29.5017 7.85968C29.4948 7.37373 29.3921 6.8939 29.1995 6.44772C29.0068 6.00154 28.728 5.59779 28.379 5.25958C27.8738 4.7884 27.2421 4.47503 26.5613 4.35798C25.8805 4.24092 25.1804 4.32525 24.5469 4.60064C23.9134 4.87604 23.3741 5.33048 22.9954 5.90815C22.6166 6.48581 22.4149 7.16153 22.4149 7.85229C22.4149 8.54305 22.6166 9.21877 22.9954 9.79643C23.3741 10.3741 23.9134 10.8285 24.5469 11.1039C25.1804 11.3793 25.8805 11.4637 26.5613 11.3466C27.2421 11.2296 27.8738 10.9162 28.379 10.445C28.7269 10.1091 29.0051 9.70779 29.1978 9.26416C29.3904 8.82054 29.4937 8.34327 29.5017 7.85968V7.85968Z" fill="#6C6A7C"/>
<path d="M44.7212 7.85961C44.7212 8.59593 44.5028 9.31572 44.0937 9.92794C43.6847 10.5402 43.1032 11.0173 42.423 11.2991C41.7427 11.5809 40.9941 11.6546 40.272 11.511C39.5498 11.3673 38.8865 11.0127 38.3658 10.4921C37.8451 9.97143 37.4906 9.30807 37.3469 8.5859C37.2033 7.86373 37.277 7.1152 37.5588 6.43493C37.8406 5.75467 38.3177 5.17322 38.93 4.76414C39.5422 4.35506 40.262 4.13672 40.9983 4.13672C41.9856 4.13672 42.9326 4.52896 43.6308 5.22714C44.3289 5.92531 44.7212 6.87224 44.7212 7.85961Z" fill="#60B257"/>
<path d="M44.7174 7.85957C44.7149 8.86289 44.3272 9.82693 43.6344 10.5527C42.9416 11.2784 41.9967 11.7105 40.9945 11.7597C39.9379 11.8039 38.9071 11.4266 38.1285 10.7108C37.3652 9.95558 36.9255 8.93312 36.9023 7.85957C36.9153 6.77953 37.3563 5.74876 38.1285 4.99353C38.9071 4.27779 39.9379 3.90052 40.9945 3.94464C41.9992 3.99398 42.9463 4.42812 43.6395 5.15703C44.3326 5.88595 44.7187 6.8537 44.7174 7.85957V7.85957ZM44.7174 7.85957C44.6981 6.87631 44.2889 5.94103 43.5799 5.25947C43.0748 4.78829 42.443 4.47492 41.7623 4.35786C41.0815 4.2408 40.3813 4.32514 39.7478 4.60053C39.1144 4.87592 38.5751 5.33037 38.1963 5.90803C37.8176 6.48569 37.6158 7.16141 37.6158 7.85218C37.6158 8.54294 37.8176 9.21866 38.1963 9.79632C38.5751 10.374 39.1144 10.8284 39.7478 11.1038C40.3813 11.3792 41.0815 11.4636 41.7623 11.3465C42.443 11.2295 43.0748 10.9161 43.5799 10.4449C44.2866 9.76789 44.6958 8.83803 44.7174 7.85957V7.85957Z" fill="#6C6A7C"/>
<path d="M0.480469 15.1723L46.6513 14.995L92.8391 14.9359L185.198 14.803L277.556 14.9359L323.744 14.995L369.915 15.1723L323.744 15.3644L277.556 15.4235L185.198 15.5416L92.8391 15.4235L46.6513 15.3496L0.480469 15.1723Z" fill="#6C6A7C"/>
</g>
<defs>
<radialGradient id="paint0_radial_2891_35746" cx="0" cy="0" r="1" gradientUnits="userSpaceOnUse" gradientTransform="translate(181 132) rotate(90) scale(120)">
<stop stop-color="#FFEECC"/>
<stop offset="1" stop-color="white" stop-opacity="0"/>
</radialGradient>
<clipPath id="clip0_2891_35746">
<rect width="370" height="264" fill="white"/>
</clipPath>
</defs>
</svg>
