<svg width="294" height="344" viewBox="0 0 294 344" fill="none" xmlns="http://www.w3.org/2000/svg">
<g filter="url(#filter0_dd_2274_13793)">
<rect x="12" width="270" height="320" rx="20" fill="#F3FAF2"/>
<g clip-path="url(#clip0_2274_13793)">
<rect x="32" y="20" width="230" height="155" rx="12" fill="#DEEFDC"/>
<path d="M172.905 166.208L174.953 168.243C175.177 168.46 175.475 168.583 175.787 168.587C175.943 168.588 176.097 168.558 176.242 168.499C176.386 168.44 176.516 168.353 176.627 168.244C176.737 168.134 176.824 168.004 176.883 167.861C176.943 167.718 176.973 167.564 176.972 167.409C176.968 167.099 176.844 166.802 176.626 166.58L174.579 164.545C174.47 164.434 174.339 164.346 174.196 164.286C174.052 164.226 173.898 164.195 173.742 164.195C173.586 164.195 173.432 164.226 173.288 164.286C173.145 164.346 173.014 164.434 172.905 164.545C172.795 164.653 172.707 164.782 172.647 164.925C172.587 165.067 172.555 165.22 172.555 165.374C172.56 165.686 172.686 165.985 172.905 166.208Z" fill="#FAFAFA"/>
<path d="M180.338 135.512C178.813 135.675 177.275 135.675 175.75 135.512C177.275 135.349 178.813 135.349 180.338 135.512Z" fill="#455A64"/>
<path d="M196.358 83.0062C195.547 80.5608 197.012 71.7926 195.083 71.7785C192.618 71.7549 193.324 81.6728 193.319 82.5774C193.315 83.482 192.025 83.4538 192.073 82.6528C192.139 81.5032 192.547 70.1718 190.063 70.3697C188.693 70.4781 188.869 72.9516 188.869 72.9516C188.869 72.9516 189.632 84.2877 188.466 84.3442C187.3 84.4008 186.883 77.7857 186.788 75.4582C186.693 73.2296 185.75 72.3438 184.716 73.1024C183.683 73.861 183.892 80.5608 183.949 82.7988C184.005 85.0368 184.271 91.1666 181.669 88.1842C179.066 85.2017 175.981 83.8589 174.881 84.071C173.781 84.283 173.744 85.8614 174.857 86.3749C175.758 86.7895 177.057 87.9392 177.995 88.8438C178.722 89.6245 179.358 90.4843 179.891 91.4069C180.621 92.5679 181.151 93.8418 181.46 95.1762C181.718 96.2256 182.198 97.2086 182.867 98.0599C183.536 98.9111 184.38 99.6113 185.342 100.114L185.219 104.27L197.235 103.233L197.467 95.374C197.59 89.3668 198.647 85.3242 199.282 81.7529C200.301 76.0566 199.562 75.8822 198.875 75.9152C197.377 75.9671 197.154 85.3902 196.358 83.0062Z" fill="#B78876"/>
<path d="M196.359 90.7144C195.802 90.818 195.251 90.9549 194.71 91.1243C193.429 91.5972 192.335 92.4679 191.591 93.6073C191.369 93.955 191.183 94.3245 191.036 94.7099L190.965 94.8889L190.818 94.7664C189.985 94.0762 189.044 93.5271 188.031 93.1409C187.273 92.8488 186.789 92.7498 186.799 92.7074C187.242 92.7259 187.679 92.8167 188.093 92.976C189.151 93.3165 190.135 93.8519 190.994 94.5544L190.776 94.6156C190.925 94.2103 191.118 93.8217 191.349 93.4566C191.775 92.8058 192.318 92.2388 192.951 91.784C193.469 91.4172 194.039 91.1312 194.644 90.9359C195.05 90.8067 195.47 90.7261 195.895 90.6956C196.05 90.6788 196.206 90.6851 196.359 90.7144Z" fill="#AA6550"/>
<path d="M194.686 99.1149C193.776 99.5692 192.786 99.8443 191.771 99.9253C190.766 100.094 189.738 100.07 188.742 99.8546C188.742 99.7698 190.093 99.8546 191.733 99.6426C193.373 99.4306 194.662 99.0348 194.686 99.1149Z" fill="#AA6550"/>
<path d="M162.436 99.4732C162.436 99.4732 168.697 102.654 171.991 107.233C175.285 111.813 185.235 126.014 185.235 126.014L183.813 104.463L199.179 102.484C199.179 102.484 203.649 124.19 204.697 131.696C205.673 138.721 205.265 145.633 198.364 149.402C190.221 153.85 180.973 147.842 177.897 145.562C174.077 142.735 167.024 138.113 167.024 138.113L162.436 99.4732Z" fill="white"/>
<path d="M154.715 96.7828L150.331 91.9157L131.167 90.4552L128.684 94.4459L135.4 136.115L132.376 178.208H157.346L154.715 96.7828Z" fill="#81C27A"/>
<g opacity="0.3">
<path opacity="0.3" d="M133.532 168.196C134.191 167.499 135.272 166.533 136.234 166.514C143.135 166.363 150.183 165.676 157.089 165.525L157.355 178.208L153.994 176.644C153.805 175.231 153.563 173.483 152.24 172.875C151.491 172.521 150.615 172.658 149.804 172.818C147.311 173.289 144.837 173.949 142.301 174.105C139.765 174.26 137.111 173.897 134.982 172.517C134.225 172.074 133.617 171.418 133.233 170.632C133.045 170.24 132.974 169.802 133.027 169.371C133.08 168.94 133.255 168.532 133.532 168.196Z" fill="#403E48"/>
</g>
<path d="M150.33 91.9156L162.606 99.8122L165.204 108.284L167.688 134.697L164.948 161.727L169.678 178.208H157.345L157.321 171.706L156.004 125.938L154.715 96.7827L150.33 91.9156Z" fill="white"/>
<path d="M156.942 132.247C157.017 132.139 157.085 132.025 157.146 131.908C157.278 131.663 157.463 131.328 157.691 130.904C157.918 130.48 158.136 129.901 158.425 129.255C158.558 128.93 158.672 128.572 158.805 128.195C158.937 127.818 159.084 127.422 159.193 126.994C160.227 123.601 160.914 118.706 160.767 113.302C160.767 112.882 160.739 112.468 160.71 112.058V111.987L160.644 111.959L158.719 111.153L158.748 111.351L160.667 109.82L160.71 109.787V109.74C160.728 107.882 160.431 106.035 159.833 104.274C159.359 102.677 158.824 101.301 158.359 100.171C157.895 99.0398 157.487 98.154 157.198 97.5509C157.056 97.2494 156.942 97.0232 156.861 96.8677C156.824 96.7871 156.779 96.7099 156.729 96.6369C156.753 96.7211 156.785 96.8031 156.823 96.8819L157.131 97.5839C157.397 98.1917 157.781 99.0869 158.226 100.222C158.672 101.358 159.174 102.738 159.648 104.331C160.223 106.07 160.505 107.891 160.483 109.721L160.525 109.641L158.601 111.172L158.449 111.295L158.629 111.37L160.549 112.176L160.478 112.077C160.506 112.477 160.52 112.892 160.535 113.306C160.682 118.687 160.028 123.564 159.037 126.97C158.933 127.399 158.79 127.795 158.667 128.171C158.544 128.548 158.435 128.906 158.307 129.232C158.032 129.877 157.833 130.447 157.61 130.89C157.387 131.333 157.231 131.658 157.108 131.908C157.043 132.016 156.988 132.13 156.942 132.247Z" fill="#403E48"/>
<path d="M165.563 149.444C165.605 149.327 165.64 149.207 165.668 149.086C165.734 148.832 165.819 148.488 165.928 148.059C166.037 147.63 166.17 147.06 166.298 146.419C166.426 145.779 166.592 145.048 166.725 144.233C166.857 143.418 167.023 142.528 167.146 141.566C167.27 140.605 167.393 139.573 167.507 138.49C167.706 136.318 167.838 133.92 167.838 131.399C167.838 128.878 167.687 126.485 167.483 124.331C167.36 123.248 167.255 122.216 167.104 121.255C166.952 120.294 166.824 119.403 166.677 118.588C166.53 117.773 166.374 117.047 166.241 116.407C166.108 115.766 165.98 115.215 165.867 114.767C165.753 114.319 165.668 113.994 165.601 113.74C165.578 113.618 165.542 113.5 165.492 113.386C165.505 113.509 165.526 113.63 165.554 113.749C165.611 114.008 165.682 114.357 165.777 114.791C165.871 115.224 165.995 115.789 166.113 116.435C166.232 117.08 166.388 117.806 166.511 118.621C166.635 119.436 166.791 120.322 166.909 121.283C167.028 122.244 167.151 123.267 167.265 124.35C167.455 126.518 167.592 128.906 167.601 131.418C167.611 133.929 167.473 136.318 167.289 138.485C167.18 139.569 167.09 140.596 166.947 141.557C166.805 142.518 166.691 143.409 166.559 144.219C166.426 145.029 166.284 145.764 166.17 146.405C166.056 147.046 165.938 147.602 165.838 148.054C165.739 148.507 165.677 148.832 165.62 149.091C165.589 149.206 165.57 149.325 165.563 149.444Z" fill="#403E48"/>
<path d="M162.592 171.551C162.721 171.938 162.899 172.307 163.123 172.649C163.617 173.5 164.18 174.31 164.805 175.071C165.433 175.832 166.123 176.541 166.867 177.191C167.161 177.476 167.491 177.723 167.848 177.926C167.578 177.622 167.288 177.335 166.981 177.068C166.279 176.39 165.614 175.674 164.99 174.924C164.372 174.172 163.797 173.386 163.27 172.569C163.066 172.215 162.84 171.875 162.592 171.551Z" fill="#403E48"/>
<g opacity="0.3">
<path opacity="0.3" d="M156.463 149.435C155.165 148.761 153.577 149.115 152.198 149.637C150.818 150.16 149.472 150.863 148.007 150.848C146.017 150.848 143.196 150.109 142.158 148.427C141.016 146.5 140.168 144.415 139.642 142.24C138.058 134.999 137.698 128.643 136.115 121.396C135.252 117.457 134.157 112.915 132.688 109.146C131.266 105.504 129.939 101.735 128.82 97.9892C129.019 106.47 129.218 115.017 130.536 123.432C131.389 128.836 132.698 134.16 133.413 139.578C134.025 144.219 134.195 148.907 134.361 153.586L138.803 158.985L151.046 159.23L157.44 151.032L156.463 149.435Z" fill="#403E48"/>
</g>
<path d="M112.088 99.1102C109.777 100 107.721 101.441 106.101 103.306C104.481 105.171 103.347 107.403 102.798 109.806C99.2052 125.561 93.0528 146.513 92.958 153.275C92.8348 161.883 96.6219 167.777 101.566 168.865C105.476 169.723 140.907 167.796 140.907 167.796L142.585 153.095L113.866 150.471L117.795 128.642L113.904 98.4082L112.088 99.1102Z" fill="white"/>
<path d="M113.912 98.4085L121.852 95.1858L130.919 90.314L131.004 90.5779C129.981 92.3212 128.89 95.5392 129.274 97.5228L136.233 133.623L134.654 160.008L132.374 178.218H109.514L117.804 158.82L113.723 122.39L113.912 98.4085Z" fill="white"/>
<path d="M118.037 126.437C118.004 126.514 117.981 126.595 117.971 126.678C117.938 126.866 117.89 127.097 117.833 127.38C117.715 128.02 117.554 128.892 117.359 129.957C116.971 132.167 116.449 135.163 115.866 138.475C115.283 141.788 114.809 144.794 114.444 147.008C114.278 148.078 114.141 148.954 114.037 149.6L113.942 150.306C113.928 150.389 113.928 150.473 113.942 150.556C113.97 150.476 113.99 150.394 114.003 150.311C114.046 150.127 114.089 149.896 114.15 149.614C114.269 148.973 114.43 148.101 114.624 147.036C115.023 144.86 115.572 141.854 116.127 138.518C116.681 135.182 117.198 132.171 117.549 129.985C117.715 128.916 117.852 128.039 117.952 127.394C117.99 127.106 118.018 126.876 118.042 126.687C118.048 126.604 118.046 126.52 118.037 126.437Z" fill="#403E48"/>
<path d="M126.57 92.8581C126.57 92.8581 126.57 92.8864 126.536 92.9429C126.503 92.9995 126.494 93.1031 126.461 93.2068C126.404 93.4424 126.299 93.7816 126.209 94.2339C125.926 95.5158 125.724 96.814 125.603 98.121C125.418 100.091 125.368 102.071 125.451 104.048C125.527 106.3 125.769 108.793 126.11 111.431V111.516H126.19L128.788 111.987L128.698 111.827C128.551 112.223 128.394 112.651 128.276 113.09C127.56 115.979 127.663 119.009 128.575 121.844C129.3 124.142 130.325 126.335 131.622 128.369C132.703 130.113 133.684 131.455 134.357 132.388L135.144 133.448L135.353 133.722C135.4 133.778 135.428 133.811 135.433 133.806C135.415 133.772 135.394 133.739 135.372 133.708C135.324 133.627 135.258 133.538 135.182 133.42L134.433 132.332C133.784 131.389 132.826 130.033 131.765 128.28C130.496 126.249 129.495 124.066 128.783 121.783C127.897 118.985 127.802 115.999 128.508 113.151C128.622 112.722 128.774 112.303 128.916 111.916L128.968 111.78L128.831 111.756L126.233 111.285L126.328 111.384C125.982 108.75 125.735 106.267 125.641 104.02C125.547 102.052 125.58 100.08 125.74 98.1163C125.847 96.8133 126.026 95.5173 126.276 94.2339C126.356 93.7628 126.446 93.4376 126.489 93.1974C126.489 93.0937 126.527 93.0042 126.541 92.9288C126.553 92.9062 126.562 92.8825 126.57 92.8581Z" fill="#403E48"/>
<path d="M126.569 129.887V124.129C126.569 124.129 126.493 122.715 127.697 123.008C128.901 123.3 128.674 125.547 128.674 125.547C128.674 125.547 128.901 134.301 128.375 134.226C127.849 134.15 127.645 133.477 127.645 133.477V130.113L126.569 129.887Z" fill="#81C27A"/>
<path d="M121.539 130.244C123.606 130.402 125.682 130.402 127.748 130.244C125.682 130.087 123.606 130.087 121.539 130.244Z" fill="#403E48"/>
<path d="M110.092 102.531C110.303 102.624 110.52 102.703 110.741 102.767C111.33 102.979 111.907 103.226 112.466 103.506C114.303 104.449 115.896 105.8 117.121 107.455C117.469 107.92 117.775 108.415 118.036 108.934C118.264 109.426 118.448 109.937 118.586 110.461C118.825 111.353 118.984 112.264 119.06 113.184C119.126 113.966 119.14 114.597 119.145 115.069C119.128 115.298 119.128 115.527 119.145 115.756C119.196 115.531 119.221 115.3 119.221 115.069C119.254 114.441 119.254 113.812 119.221 113.184C119.174 112.251 119.034 111.324 118.804 110.418C118.669 109.88 118.485 109.355 118.254 108.849C117.983 108.316 117.666 107.806 117.306 107.327C116.064 105.638 114.426 104.276 112.533 103.36C111.963 103.088 111.371 102.861 110.765 102.682C110.546 102.609 110.321 102.559 110.092 102.531Z" fill="#403E48"/>
<path d="M140.915 167.796C140.909 167.703 140.909 167.61 140.915 167.518C140.915 167.32 140.958 167.046 140.991 166.717C141.062 166.001 141.167 164.978 141.299 163.697C141.588 161.091 141.991 157.421 142.465 153.081L142.565 153.209L131.9 152.309L113.888 150.73C112.07 150.559 110.24 150.917 108.622 151.762C108.186 151.993 107.766 152.255 107.366 152.544L107.058 152.78C107.025 152.808 106.989 152.832 106.949 152.851C107.435 152.385 107.984 151.99 108.58 151.677C110.203 150.786 112.056 150.396 113.903 150.556L131.938 152.064L142.603 152.982H142.717V153.096C142.205 157.425 141.769 161.105 141.465 163.701L141.086 166.712C141.043 167.047 141.005 167.31 140.982 167.508C140.968 167.606 140.946 167.702 140.915 167.796Z" fill="#403E48"/>
<path d="M133.204 168.187C133.155 167.985 133.126 167.778 133.119 167.57C133.081 167.169 133.043 166.585 133.014 165.864C132.877 162.107 133.211 158.348 134.01 154.674C134.166 153.972 134.304 153.407 134.417 153.016C134.46 152.811 134.525 152.612 134.612 152.422C134.599 152.63 134.565 152.837 134.512 153.039C134.422 153.482 134.313 154.043 134.18 154.707C133.915 156.121 133.602 158.081 133.408 160.262C133.213 162.444 133.176 164.427 133.185 165.859C133.185 166.543 133.209 167.113 133.213 167.56C133.233 167.769 133.23 167.979 133.204 168.187Z" fill="#403E48"/>
<path d="M137.271 163.579C137.271 163.579 137.39 163.518 137.622 163.518C137.955 163.53 138.277 163.645 138.541 163.848C138.747 163.995 138.912 164.192 139.022 164.419C139.132 164.646 139.184 164.896 139.172 165.148C139.155 165.459 139.05 165.759 138.87 166.014C138.69 166.269 138.441 166.468 138.153 166.59C137.857 166.692 137.538 166.708 137.233 166.636C136.928 166.564 136.651 166.408 136.432 166.185C136.252 166.002 136.125 165.774 136.065 165.525C136.005 165.276 136.014 165.015 136.091 164.771C136.174 164.449 136.367 164.164 136.636 163.966C136.728 163.885 136.842 163.833 136.963 163.815C136.963 163.838 136.859 163.89 136.698 164.036C136.477 164.246 136.325 164.517 136.261 164.814C136.207 165.025 136.21 165.246 136.268 165.456C136.326 165.665 136.438 165.857 136.593 166.01C136.782 166.198 137.021 166.329 137.282 166.388C137.543 166.448 137.815 166.433 138.067 166.345C138.312 166.239 138.523 166.069 138.677 165.854C138.832 165.638 138.924 165.384 138.944 165.12C138.959 164.902 138.921 164.683 138.833 164.483C138.745 164.283 138.609 164.107 138.437 163.97C138.202 163.774 137.916 163.647 137.612 163.603C137.498 163.601 137.384 163.593 137.271 163.579Z" fill="#403E48"/>
<path d="M131.02 90.1912L130.873 90.2807L130.399 90.5398L128.65 91.5246L121.891 95.242L110.515 99.9819C108.159 100.922 106.156 102.569 104.785 104.693C104.031 105.828 103.423 107.051 102.974 108.335C102.481 109.68 102.142 111.076 101.965 112.496C99.8601 121.448 97.4712 131.724 95.1533 142.65C94.6794 145.006 94.2054 147.324 93.7314 149.618C93.6129 150.193 93.5181 150.768 93.4138 151.338C93.3095 151.908 93.2005 152.474 93.1294 153.044C92.9672 154.167 92.9085 155.302 92.954 156.436C93.0336 158.646 93.5456 160.819 94.4613 162.834C94.9049 163.807 95.4754 164.718 96.1582 165.543C96.8322 166.34 97.6327 167.021 98.5282 167.56C100.272 168.598 102.291 169.091 104.32 168.973L110.084 168.856C113.8 168.766 117.265 168.658 120.427 168.549L135.405 168.008L139.476 167.852L140.538 167.819H140.898L140.538 167.847L139.481 167.909L135.409 168.107C131.873 168.271 126.759 168.498 120.436 168.728C117.274 168.846 113.8 168.964 110.089 169.063L104.32 169.195C102.25 169.316 100.19 168.815 98.4097 167.758C97.492 167.206 96.6694 166.51 95.9734 165.699C95.2799 164.856 94.6984 163.928 94.2433 162.938C93.312 160.895 92.7904 158.691 92.7076 156.45C92.6597 155.302 92.7184 154.152 92.8829 153.015C92.954 152.436 93.0678 151.87 93.1673 151.3C93.2669 150.73 93.3664 150.151 93.4849 149.581C93.921 147.281 94.395 144.954 94.9069 142.607C97.2247 131.686 99.6231 121.405 101.747 112.453C101.923 111.024 102.26 109.619 102.751 108.265C103.206 106.965 103.826 105.729 104.595 104.585C105.992 102.432 108.03 100.767 110.425 99.8217L121.83 95.1101L128.617 91.4492L130.409 90.5069L130.883 90.2666L131.02 90.1912Z" fill="#403E48"/>
<path d="M170.792 128.049H159.957V131.408H170.792V128.049Z" fill="#403E48"/>
<path d="M210.862 134.226L174.815 172.446L139.655 172.663L138.82 171.075L173.479 133.75L210.862 134.226Z" fill="#403E48"/>
<path d="M176.792 133.75C176.792 133.75 179.134 133.75 179.831 134.561C180.641 135.531 182.201 137.717 178.797 143.282C177.442 145.51 170.792 153.176 168.057 161.03C165.502 168.361 166.668 170.783 166.668 170.783L192.036 169.978L192.51 169.068C192.51 169.068 203.54 139.385 200.62 133.731C199.274 131.154 176.612 132.798 176.792 133.75Z" fill="white"/>
<path d="M196.251 169.224L168.963 169.45C168.636 162.58 171.035 157.591 174.604 151.697C175.969 149.44 177.837 147.508 179.197 145.246C180.629 142.864 181.466 140.176 181.638 137.406C181.709 136.304 181.638 135.112 180.96 134.24C180.282 133.369 177.846 133.321 176.794 133.769C177.973 132.921 179.363 132.411 180.813 132.294C183.017 132.111 201.057 132.233 204.413 132.261C205.224 132.296 206.027 132.426 206.807 132.648C209.253 133.906 209.755 137.218 209.409 139.602C209.082 141.859 207.674 143.988 205.906 146.372C205.392 147.055 204.918 147.766 204.484 148.502C202.622 151.711 197.479 160.71 196.554 163.815C196.106 165.582 196.003 167.418 196.251 169.224Z" fill="#FAFAFA"/>
<path d="M196.249 169.167L189.68 169.219L177.128 169.322L171.858 169.37H170.094C169.767 169.405 169.436 169.405 169.108 169.37C169.085 169.37 168.976 169.37 168.962 169.37C168.947 169.37 168.999 168.865 168.995 168.809C168.995 168.573 168.995 168.338 168.995 168.097C168.995 167.636 169.009 167.174 169.037 166.712C169.149 164.947 169.457 163.199 169.957 161.501C170.971 158.081 172.711 154.905 174.55 151.88C175.559 150.212 176.811 148.719 177.967 147.169C179.083 145.701 179.986 144.085 180.65 142.367C181.301 140.66 181.667 138.859 181.736 137.034C181.769 135.865 181.598 134.264 180.361 133.736C179.795 133.517 179.191 133.412 178.584 133.425C178.181 133.425 177.247 133.373 176.901 133.651C176.801 133.726 176.853 133.755 176.925 133.736C176.983 133.705 177.037 133.667 177.086 133.623C177.271 133.5 177.465 133.382 177.659 133.279C178.323 132.921 179.032 132.657 179.769 132.492C181.238 132.167 182.83 132.261 184.328 132.247C189.002 132.209 193.68 132.247 198.358 132.247L203.757 132.28C204.607 132.275 205.455 132.356 206.288 132.52C207.71 132.817 208.658 134.245 209.075 135.54C209.518 136.954 209.6 138.455 209.312 139.908C208.952 141.75 207.933 143.399 206.876 144.926C205.928 146.302 204.937 147.63 204.094 149.081C203.515 150.094 202.937 151.103 202.364 152.12C200.994 154.552 199.648 157.002 198.396 159.503C197.32 161.647 196.282 163.772 196.116 166.203C196.041 167.212 196.074 168.226 196.216 169.228C196.216 169.304 196.344 169.271 196.33 169.195C195.972 166.743 196.326 164.241 197.349 161.982C198.42 159.555 199.69 157.209 200.965 154.886C202.128 152.766 203.316 150.661 204.53 148.573C206.298 145.534 209.142 142.881 209.535 139.225C209.777 136.94 209.246 133.571 206.833 132.549C205.994 132.262 205.108 132.132 204.222 132.167H202.25C197.657 132.139 193.059 132.115 188.466 132.12C186.485 132.12 184.504 132.12 182.522 132.157C180.726 132.19 179.005 132.365 177.403 133.293C177.184 133.416 176.973 133.555 176.773 133.708C176.73 133.741 176.773 133.825 176.835 133.807C177.884 133.445 179.022 133.428 180.081 133.759C181.503 134.231 181.669 135.927 181.612 137.222C181.449 140.328 180.451 143.333 178.721 145.925C177.877 147.197 176.901 148.379 175.986 149.604C175.126 150.775 174.334 151.994 173.616 153.256C172.238 155.537 171.089 157.947 170.184 160.451C169.199 163.345 168.767 166.397 168.909 169.45C168.909 169.466 168.916 169.481 168.927 169.493C168.939 169.504 168.955 169.511 168.971 169.511L178.19 169.435L192.884 169.313L196.254 169.285C196.263 169.287 196.273 169.287 196.282 169.285C196.291 169.283 196.3 169.278 196.307 169.272C196.315 169.266 196.321 169.259 196.324 169.25C196.328 169.242 196.33 169.232 196.33 169.223C196.329 169.213 196.327 169.204 196.322 169.196C196.318 169.187 196.311 169.18 196.303 169.175C196.296 169.169 196.287 169.166 196.277 169.165C196.268 169.163 196.258 169.164 196.249 169.167Z" fill="#403E48"/>
<path d="M194.639 163.56C194.639 163.631 189.828 163.683 183.889 163.683C177.95 163.683 173.139 163.631 173.139 163.56C173.139 163.49 177.954 163.438 183.889 163.438C189.823 163.438 194.639 163.494 194.639 163.56Z" fill="#403E48"/>
<path d="M195.24 159.988C195.24 160.054 190.429 160.111 184.49 160.111C178.551 160.111 173.74 160.054 173.74 159.988C173.74 159.923 178.556 159.866 184.49 159.866C190.425 159.866 195.24 159.918 195.24 159.988Z" fill="#403E48"/>
<path d="M198.131 156.154C198.131 156.22 193.315 156.276 187.381 156.276C181.447 156.276 176.631 156.22 176.631 156.154C176.631 156.088 181.442 156.031 187.381 156.031C193.32 156.031 198.131 156.083 198.131 156.154Z" fill="#403E48"/>
<path d="M199.91 152.648C199.91 152.714 195.099 152.771 189.16 152.771C183.221 152.771 178.41 152.714 178.41 152.648C178.41 152.582 183.226 152.526 189.16 152.526C195.095 152.526 199.91 152.582 199.91 152.648Z" fill="#403E48"/>
<path d="M201.093 149.444C201.093 149.51 196.282 149.567 190.348 149.567C184.413 149.567 179.598 149.51 179.598 149.444C179.598 149.378 184.409 149.322 190.348 149.322C196.287 149.322 201.093 149.373 201.093 149.444Z" fill="#403E48"/>
<path d="M204.014 145.232C204.014 145.303 199.203 145.354 193.264 145.354C187.325 145.354 182.514 145.303 182.514 145.232C182.514 145.161 187.329 145.109 193.264 145.109C199.198 145.109 204.014 145.166 204.014 145.232Z" fill="#403E48"/>
<path d="M206.764 141.204C206.764 141.269 201.953 141.326 196.014 141.326C190.075 141.326 185.264 141.269 185.264 141.204C185.264 141.138 190.079 141.081 196.014 141.081C201.948 141.081 206.764 141.138 206.764 141.204Z" fill="#403E48"/>
<path d="M206.564 137.373C206.564 137.439 201.753 137.496 195.819 137.496C189.885 137.496 185.055 137.439 185.055 137.373C185.055 137.307 189.866 137.251 195.805 137.251C201.744 137.251 206.564 137.302 206.564 137.373Z" fill="#403E48"/>
<path d="M173.478 133.75C173.531 133.778 173.581 133.813 173.625 133.853L174.052 134.188L175.682 135.507L175.725 135.545L175.687 135.587C172.753 138.777 166.392 145.595 159.012 153.458C153.921 159.004 149.016 163.758 145.465 167.183C143.688 168.898 142.242 170.269 141.237 171.216L140.071 172.3L139.763 172.573L139.654 172.663C139.654 172.663 139.683 172.625 139.744 172.559L140.038 172.262L141.171 171.145L145.347 167.061C148.864 163.598 153.741 158.839 158.832 153.289C166.212 145.425 172.611 138.645 175.607 135.512V135.592L174.004 134.23L173.597 133.877C173.553 133.839 173.513 133.796 173.478 133.75Z" fill="#455A64"/>
<path d="M142.556 154.782H147.704C147.704 154.782 151.183 151.767 151.97 151.536C153.624 151.041 157.895 150.523 157.895 150.523L154.979 153.671C154.302 154.396 153.06 155.051 153.794 155.051H159.151C159.151 155.051 164.625 152.441 165.44 152.917C166.123 153.317 166.36 154.043 165.663 155.051C164.966 156.059 160.165 158.443 159.61 158.627L158.041 159.098L159.516 159.569L166.497 157.143C166.948 157.063 167.578 156.987 167.782 157.251C167.869 157.341 167.937 157.448 167.983 157.565C168.028 157.681 168.05 157.806 168.046 157.931C168.042 158.056 168.014 158.179 167.962 158.293C167.91 158.406 167.836 158.509 167.744 158.594C166.749 159.485 165.694 160.309 164.587 161.058C164.587 161.058 165.701 162.688 164.777 163.513C163.853 164.338 161.179 166.811 161.179 166.811C161.179 166.811 160.9 168.187 160.07 168.828C159.241 169.468 150.116 169.468 149.457 169.468C148.799 169.468 145.12 167.362 145.12 167.362L141.115 167.066L142.556 154.782Z" fill="#B78876"/>
<path d="M158.473 163.659C158.795 163.764 159.134 163.811 159.473 163.796C159.845 163.798 160.215 163.733 160.563 163.603C160.981 163.437 161.38 163.227 161.753 162.976C162.544 162.462 163.25 161.991 163.758 161.638C164.045 161.467 164.312 161.265 164.554 161.035C164.246 161.161 163.952 161.319 163.677 161.506C163.146 161.822 162.426 162.279 161.634 162.787C161.276 163.033 160.893 163.241 160.492 163.409C160.165 163.54 159.82 163.617 159.468 163.635C158.861 163.668 158.473 163.626 158.473 163.659Z" fill="#AA6550"/>
<path d="M158.037 167.056C158.215 167.264 158.462 167.402 158.734 167.443C159.383 167.587 160.062 167.476 160.63 167.132C161.185 166.818 161.699 166.439 162.161 166.001C162.512 165.666 162.701 165.431 162.678 165.412C161.988 165.959 161.269 166.47 160.526 166.943C160.002 167.261 159.383 167.386 158.777 167.296C158.523 167.24 158.275 167.16 158.037 167.056Z" fill="#AA6550"/>
<path d="M155.469 159.541C155.953 159.599 156.445 159.561 156.914 159.428C157.398 159.365 157.864 159.204 158.284 158.957C157.803 159 157.327 159.086 156.862 159.216C156.388 159.278 155.921 159.387 155.469 159.541Z" fill="#AA6550"/>
<path d="M120.545 57.5027C119.872 56.3073 118.967 55.2567 117.882 54.412C116.797 53.5674 115.554 52.9455 114.225 52.5825C112.896 52.2195 111.508 52.1227 110.141 52.2976C108.774 52.4726 107.456 52.9158 106.263 53.6015C104.22 54.7794 102.519 56.8996 102.656 59.2554C102.784 61.4699 104.443 63.2555 106.007 64.8339C103.514 65.8658 102.268 69.0037 103.083 71.5573C103.898 74.111 106.467 75.9156 109.15 76.1606C111.833 76.4056 114.539 75.2465 116.478 73.3807C118.375 71.454 119.7 69.0443 120.308 66.417" fill="#403E48"/>
<path d="M112.031 63.2131C111.598 63.4011 111.137 63.5173 110.666 63.5571C109.371 63.6797 108.069 63.4103 106.931 62.7844C106.14 62.362 105.445 61.7831 104.888 61.0835C104.25 60.272 103.822 59.3175 103.641 58.3036C103.435 57.1447 103.505 55.9538 103.845 54.8263C104.185 53.6989 104.785 52.6663 105.599 51.8111C106.436 50.9831 107.437 50.3375 108.539 49.9157C109.64 49.4938 110.818 49.305 111.998 49.3611C113.943 49.3997 115.803 50.1612 117.212 51.4954C118.144 52.4109 118.692 53.6431 118.747 54.9443C118.759 55.2926 118.725 55.641 118.648 55.9808C118.624 56.0986 118.586 56.1834 118.572 56.24C118.558 56.2965 118.539 56.3248 118.534 56.3248C118.629 55.871 118.669 55.4075 118.653 54.9443C118.56 53.6822 118.003 52.4983 117.088 51.6179C115.703 50.3384 113.889 49.6149 111.998 49.5872C110.852 49.5388 109.708 49.7265 108.639 50.1384C107.57 50.5503 106.598 51.1775 105.784 51.9807C104.999 52.8106 104.42 53.8104 104.09 54.9012C103.761 55.992 103.692 57.1439 103.888 58.2659C104.054 59.2451 104.459 60.1688 105.068 60.9563C105.727 61.7864 106.576 62.4471 107.546 62.8825C108.515 63.3179 109.575 63.5153 110.637 63.4581C111.107 63.4086 111.573 63.3267 112.031 63.2131Z" fill="#403E48"/>
<path d="M115.094 65.2672C114.995 65.3509 114.885 65.4206 114.767 65.4745C114.464 65.6454 114.147 65.7889 113.819 65.9033C113.326 66.0771 112.818 66.2034 112.302 66.2802C111.666 66.3674 111.023 66.3895 110.382 66.3462C109.739 66.297 109.103 66.1785 108.486 65.9928C107.986 65.839 107.502 65.6387 107.041 65.3945C106.73 65.2306 106.433 65.0415 106.154 64.8291C105.96 64.6736 105.86 64.5841 105.87 64.5699C105.879 64.5558 106.344 64.862 107.121 65.239C107.579 65.4565 108.055 65.6362 108.543 65.7761C109.747 66.116 111.008 66.2106 112.25 66.0541C112.755 65.9893 113.254 65.8838 113.743 65.7384C114.586 65.484 115.07 65.2248 115.094 65.2672Z" fill="#455A64"/>
<path d="M102.646 59.6697C102.681 59.4728 102.745 59.2822 102.836 59.1043C103.055 58.5961 103.401 58.1519 103.841 57.8133C104.53 57.3603 105.325 57.0939 106.149 57.0406C107.142 56.9587 108.141 57.0062 109.121 57.182C110.901 57.467 112.619 58.0551 114.198 58.9205C114.674 59.1825 115.133 59.4737 115.572 59.7922C115.746 59.8974 115.905 60.024 116.046 60.1691C115.863 60.0889 115.689 59.9877 115.53 59.8676C115.203 59.6697 114.729 59.3964 114.108 59.076C112.527 58.2661 110.829 57.708 109.074 57.4223C108.115 57.252 107.14 57.1998 106.168 57.2668C105.379 57.3058 104.613 57.5425 103.94 57.9547C103.508 58.2639 103.159 58.6731 102.921 59.1467C102.839 59.3255 102.747 59.5001 102.646 59.6697Z" fill="#455A64"/>
<path d="M117.122 69.1213C117.122 69.1213 117.122 69.1779 117.056 69.2815C116.99 69.3852 116.914 69.5218 116.8 69.7055C116.458 70.2122 116.057 70.6771 115.606 71.0908C114.932 71.7043 114.16 72.2012 113.321 72.5608C112.287 73.0009 111.171 73.2208 110.046 73.2063C108.922 73.2028 107.811 72.9602 106.789 72.4948C105.956 72.1077 105.222 71.5374 104.642 70.8269C104.253 70.3458 103.982 69.7812 103.851 69.1779C103.815 69.0152 103.794 68.8496 103.789 68.6831C103.789 68.5701 103.789 68.5135 103.789 68.5135C103.789 68.5135 103.818 68.7491 103.931 69.1543C104.097 69.7286 104.383 70.2617 104.77 70.7185C105.348 71.389 106.066 71.9261 106.875 72.2922C107.872 72.7319 108.95 72.9597 110.041 72.9613C111.131 72.9731 112.213 72.7664 113.221 72.3535C114.046 72.0071 114.808 71.5297 115.478 70.94C116.09 70.3941 116.641 69.7844 117.122 69.1213Z" fill="#455A64"/>
<path d="M118.028 71.5712C117.874 71.7959 117.699 72.0057 117.506 72.1978C117.155 72.5842 116.634 73.1401 115.942 73.7668C115.596 74.0824 115.203 74.417 114.766 74.7562C113.249 76.027 111.289 76.6517 109.311 76.4948C107.933 76.4557 106.6 75.9986 105.491 75.185C104.62 74.4863 103.933 73.5893 103.486 72.57C103.179 71.8905 103 71.1606 102.959 70.4168C102.946 70.2145 102.946 70.0114 102.959 69.809C102.963 69.7389 102.974 69.6694 102.993 69.6017C103.003 69.672 103.003 69.7434 102.993 69.8137C102.99 70.0121 103.001 70.2105 103.026 70.4074C103.098 71.1328 103.295 71.8405 103.609 72.4993C104.066 73.4781 104.748 74.3366 105.6 75.0059C106.677 75.7787 107.964 76.212 109.292 76.2498C110.619 76.3279 111.944 76.0786 113.15 75.5242C113.669 75.262 114.158 74.9461 114.61 74.5819C115.046 74.2521 115.44 73.927 115.79 73.6396C116.492 73.0318 117.032 72.5041 117.407 72.1366C117.602 71.9361 117.81 71.7473 118.028 71.5712Z" fill="#455A64"/>
<path d="M122.013 57.2196L122.705 57.7614C122.426 56.593 121.108 55.8768 119.904 55.9805C119.305 56.0747 118.734 56.3014 118.235 56.6439C117.735 56.9864 117.319 57.4359 117.018 57.9593C116.422 59.0121 116.028 60.1656 115.856 61.3611C115.487 63.34 115.302 65.4508 116.093 67.2977C116.885 69.1446 118.937 70.5958 120.89 70.1246C122.843 69.6535 123.938 67.5286 124.232 65.5497C124.439 64.0843 124.349 62.5926 123.968 61.1621C123.588 59.7316 122.923 58.3912 122.013 57.2196Z" fill="#81C27A"/>
<path d="M119.299 66.1813C118.729 66.5202 118.062 66.6627 117.403 66.5865C116.942 66.5654 116.488 66.4649 116.061 66.2897C115.715 66.153 115.587 65.8939 115.654 65.8892C115.797 65.9943 115.958 66.0755 116.128 66.1295C116.55 66.2476 116.984 66.3187 117.422 66.3415C118.05 66.3316 118.677 66.2781 119.299 66.1813Z" fill="#403E48"/>
<path d="M120.26 62.6852C119.506 62.7876 118.742 62.8049 117.984 62.737C117.224 62.7562 116.464 62.6914 115.719 62.5439C116.473 62.4472 117.236 62.4298 117.994 62.492C118.754 62.4785 119.513 62.5433 120.26 62.6852Z" fill="#403E48"/>
<path d="M119.501 58.9489C119.501 59.029 118.8 58.9489 117.975 58.8546C117.626 58.8254 117.275 58.846 116.932 58.9159C116.671 58.9724 116.515 59.0384 116.496 59.0054C116.477 58.9724 116.61 58.8546 116.88 58.7463C117.236 58.6234 117.614 58.5769 117.989 58.6096C118.51 58.6257 119.023 58.7408 119.501 58.9489Z" fill="#403E48"/>
<path d="M124.317 49.4975C124.26 47.5281 126.099 46.0015 127.948 45.2571C129.796 44.5126 131.849 44.2629 133.498 43.1604C134.958 42.1851 135.939 40.6633 137.172 39.4147C138.696 37.8791 140.604 36.7743 142.699 36.2138C144.795 35.6532 147.003 35.6571 149.096 36.2249C151.19 36.7928 153.094 37.9042 154.612 39.4452C156.131 40.9861 157.21 42.9009 157.738 44.9932C158.449 47.8202 157.966 51.1183 155.738 53.0029C153.15 55.1702 149.311 54.6896 145.997 54.0159C142.684 53.3421 138.93 52.6731 136.162 54.6096C134.494 55.778 133.536 57.6768 132.512 59.4342C131.489 61.1916 130.213 62.982 128.284 63.6416C126.355 64.3013 123.734 63.1705 123.658 61.1351" fill="#403E48"/>
<path d="M124.451 50.5814C124.669 52.2398 123.465 53.7193 122.265 54.8877C121.066 56.0562 119.715 57.2954 119.502 58.9491C119.256 60.8856 120.673 62.7891 120.26 64.6925C120 65.9034 119.057 66.8363 118.483 67.9341C117.716 69.5164 117.589 71.331 118.127 73.0038C118.601 74.6717 119.407 78.3938 120.573 79.6895C123.796 83.2703 128.925 86.3611 133.636 87.4353C138.348 88.5096 143.239 88.519 148.065 88.2222C152.013 87.9819 156.554 88.1609 159.848 82.7614C161.55 79.9628 162.398 76.2453 163.304 73.1027C164.081 70.3935 164.759 67.4959 163.943 64.7962C163.469 63.2225 162.521 61.8279 162.047 60.2542C161.464 58.2895 161.678 56.1834 161.441 54.1292C161.186 51.9148 160.404 49.7928 159.159 47.9395C157.913 46.0862 156.241 44.5551 154.28 43.4736C152.32 42.3921 150.128 41.7914 147.887 41.7213C145.646 41.6513 143.421 42.1141 141.396 43.0711" fill="#403E48"/>
<path d="M131.166 95.5345C131.166 95.5345 131.166 95.6523 131.19 95.7088L131.166 95.5345Z" fill="#B78876"/>
<path d="M159.563 57.3707C159.193 51.7404 155.42 44.8332 149.775 45.441L132.147 49.9123C131.32 50.0007 130.557 50.3945 130.008 51.0158C129.459 51.637 129.165 52.4405 129.184 53.2669L131.118 94.5922C131.146 95.2943 131.306 95.985 131.592 96.6276C132.901 99.4922 137.252 106.781 146.694 103.832C149.007 103.111 150.064 100.595 150.519 98.0128C150.519 97.7066 150.647 97.4333 150.652 97.1412C150.879 95.2141 150.903 93.2686 150.723 91.3365C150.756 87.9253 150.751 86.526 150.751 86.559C150.751 86.5919 157.989 85.3481 159.473 75.9532C160.226 71.284 159.97 63.6277 159.563 57.3707Z" fill="#B78876"/>
<path d="M156.724 63.4958C156.728 63.8097 156.608 64.1126 156.39 64.3398C156.172 64.5669 155.874 64.7003 155.558 64.7114C155.404 64.7242 155.249 64.7062 155.102 64.6583C154.954 64.6104 154.819 64.5336 154.702 64.4326C154.585 64.3315 154.49 64.2082 154.422 64.07C154.354 63.9317 154.315 63.7813 154.307 63.6277C154.303 63.3146 154.422 63.0124 154.639 62.7853C154.856 62.5583 155.153 62.4244 155.468 62.4121C155.622 62.3993 155.778 62.4173 155.925 62.4652C156.073 62.513 156.209 62.5897 156.326 62.6907C156.443 62.7917 156.538 62.9149 156.607 63.0532C156.675 63.1915 156.715 63.342 156.724 63.4958Z" fill="#403E48"/>
<path d="M157.898 61.3567C157.746 61.5122 156.827 60.8384 155.528 60.8431C154.229 60.8478 153.272 61.5027 153.13 61.3426C153.059 61.2719 153.215 60.9892 153.628 60.6876C154.191 60.2986 154.861 60.0913 155.547 60.094C156.228 60.0885 156.892 60.2999 157.443 60.6971C157.837 60.9986 157.974 61.286 157.898 61.3567Z" fill="#403E48"/>
<path d="M143.817 63.4955C143.822 63.809 143.703 64.1119 143.486 64.3392C143.269 64.5665 142.971 64.7001 142.656 64.7111C142.502 64.724 142.346 64.7059 142.199 64.658C142.052 64.6101 141.916 64.5334 141.8 64.4323C141.683 64.3313 141.588 64.208 141.52 64.0697C141.452 63.9315 141.413 63.7811 141.404 63.6275C141.399 63.314 141.518 63.0111 141.735 62.7838C141.952 62.5565 142.251 62.4229 142.566 62.4119C142.72 62.399 142.875 62.4171 143.022 62.465C143.169 62.5129 143.305 62.5896 143.422 62.6907C143.539 62.7917 143.634 62.915 143.702 63.0533C143.769 63.1915 143.809 63.3419 143.817 63.4955Z" fill="#403E48"/>
<path d="M145.082 61.6108C144.93 61.7663 144.011 61.0926 142.712 61.102C141.413 61.1114 140.456 61.7569 140.314 61.6014C140.243 61.5307 140.394 61.2433 140.788 60.9418C141.353 60.5521 142.025 60.3448 142.712 60.3481C143.392 60.3446 144.056 60.5558 144.608 60.9512C145.021 61.2716 145.158 61.5543 145.082 61.6108Z" fill="#403E48"/>
<path d="M149.838 71.2273C149.838 71.1519 150.643 71.0106 151.956 70.8409C152.288 70.808 152.601 70.742 152.658 70.5158C152.684 70.1743 152.607 69.8328 152.435 69.5358C152.117 68.7349 151.79 67.8962 151.444 67.0151C150.07 63.4296 149.074 60.4849 149.217 60.4189C149.359 60.353 150.596 63.2459 151.97 66.8125C152.302 67.6983 152.618 68.5433 152.918 69.3474C153.131 69.7446 153.193 70.2042 153.094 70.6431C153.045 70.7577 152.971 70.8598 152.876 70.9415C152.782 71.0232 152.67 71.0823 152.549 71.1142C152.365 71.1653 152.175 71.1923 151.985 71.1943C150.662 71.2933 149.842 71.298 149.838 71.2273Z" fill="#403E48"/>
<path d="M150.772 86.5823C146.328 86.649 141.952 85.4894 138.131 83.2324C138.131 83.2324 141.326 89.7297 150.782 88.8298L150.772 86.5823Z" fill="#AA6550"/>
<path d="M149.292 74.3321C149.042 74.0236 148.718 73.7829 148.349 73.6322C147.98 73.4815 147.579 73.4256 147.183 73.4699C146.896 73.4968 146.617 73.5807 146.363 73.7166C146.109 73.8526 145.885 74.0378 145.704 74.2614C145.531 74.4782 145.429 74.7424 145.411 75.0186C145.393 75.2948 145.461 75.5699 145.605 75.8068C145.815 76.0385 146.09 76.2029 146.395 76.2792C146.699 76.3555 147.02 76.3403 147.316 76.2355C147.93 76.0154 148.496 75.6776 148.98 75.2414C149.127 75.1381 149.253 75.0068 149.349 74.8551C149.396 74.7853 149.421 74.7033 149.421 74.6195C149.421 74.5356 149.396 74.4536 149.349 74.3839" fill="#AA6550"/>
<path d="M146.002 72.1321C146.216 72.1321 146.22 73.5455 147.424 74.5208C148.628 75.4961 150.145 75.3595 150.155 75.5574C150.155 75.6422 149.818 75.8306 149.183 75.8495C148.353 75.8635 147.545 75.5848 146.903 75.0627C146.285 74.5641 145.887 73.8458 145.794 73.0602C145.746 72.4713 145.903 72.1226 146.002 72.1321Z" fill="#403E48"/>
<path d="M145.667 59.3541C145.539 59.7074 144.245 59.5425 142.709 59.731C141.173 59.9194 139.941 60.3341 139.737 60.0184C139.647 59.8676 139.86 59.5472 140.358 59.1939C141.022 58.7736 141.775 58.5093 142.557 58.4211C143.34 58.333 144.133 58.4232 144.875 58.685C145.439 58.9112 145.714 59.1844 145.667 59.3541Z" fill="#403E48"/>
<path d="M157.411 57.6061C157.184 57.8982 156.283 57.6061 155.203 57.6061C154.122 57.6061 153.212 57.8087 152.999 57.5025C152.904 57.3517 153.051 57.0596 153.449 56.7769C153.985 56.442 154.609 56.2731 155.242 56.2915C155.875 56.31 156.488 56.515 157.004 56.8805C157.388 57.1585 157.511 57.4601 157.411 57.6061Z" fill="#403E48"/>
<path d="M125.555 80.8012C126.858 81.0588 128.204 81.0048 129.482 80.6436C130.761 80.2825 131.934 79.6245 132.906 78.724C133.878 77.8235 134.621 76.7061 135.074 75.4642C135.526 74.2222 135.675 72.8911 135.508 71.5807C135.215 69.2767 133.963 66.9256 134.769 64.7442C135.831 61.8607 139.902 60.9749 140.983 58.0914C141.613 56.4141 141.049 54.4588 141.76 52.8192C142.429 51.2738 144.059 50.388 145.652 49.8132C147.245 49.2384 148.946 48.8709 150.278 47.8202C151.61 46.7695 152.444 44.8425 151.586 43.396C144.529 44.2367 137.598 45.9101 130.939 48.3809C129.399 48.9557 127.778 49.6436 126.868 51.0052C125.92 52.4469 125.948 54.3033 126.029 56.0372C126.424 64.4709 126.819 72.9046 127.214 81.3383" fill="#403E48"/>
<path d="M126.147 84.0334C126.091 84.0078 126.038 83.9745 125.991 83.9345L125.574 83.6188C125.209 83.3314 124.669 82.9121 124.01 82.3278C123.194 81.6274 122.45 80.8494 121.787 80.005C120.882 78.8824 120.274 77.5526 120.019 76.1368C119.837 75.2756 119.852 74.3848 120.063 73.5302C120.274 72.6756 120.675 71.8789 121.237 71.1991C121.921 70.5148 122.658 69.8847 123.441 69.3145C124.226 68.7187 124.822 67.9106 125.157 66.9869C125.854 65.0693 125.545 62.8549 125.816 60.5886C126.082 58.2242 127.01 55.9814 128.494 54.1149C129.259 53.1717 130.213 52.3968 131.295 51.8392C132.361 51.3601 133.472 50.9892 134.613 50.732C135.67 50.4708 136.659 49.989 137.514 49.3185C138.321 48.6495 139.03 47.8726 139.623 47.0099C140.808 45.3372 141.685 43.5516 142.818 42.0627C143.351 41.3311 143.977 40.6708 144.68 40.098C145.338 39.5722 146.084 39.167 146.884 38.9012C147.569 38.6432 148.305 38.5464 149.033 38.6183C149.762 38.6902 150.464 38.929 151.084 39.3158C151.521 39.6537 151.88 40.0809 152.137 40.5686C152.394 41.0563 152.542 41.5931 152.572 42.1428C152.629 42.8358 152.426 43.5253 152.004 44.0793C151.894 44.218 151.765 44.3402 151.62 44.442C151.525 44.5174 151.473 44.5504 151.468 44.541C151.463 44.5316 151.506 44.4939 151.591 44.4138C151.722 44.2992 151.838 44.1695 151.937 44.0274C152.318 43.4763 152.486 42.8072 152.411 42.1428C152.364 41.6255 152.207 41.124 151.951 40.671C151.696 40.218 151.347 39.8236 150.928 39.5137C150.337 39.1585 149.671 38.9443 148.982 38.8879C148.294 38.8315 147.602 38.9345 146.96 39.1886C146.197 39.4515 145.487 39.8453 144.861 40.3524C144.187 40.9231 143.589 41.5752 143.078 42.2936C141.983 43.7589 141.121 45.5398 139.922 47.2596C139.312 48.1529 138.582 48.9583 137.751 49.653C136.858 50.3616 135.824 50.8738 134.717 51.156C133.606 51.4113 132.523 51.7759 131.485 52.2444C130.452 52.7776 129.542 53.5171 128.811 54.4165C127.381 56.2215 126.483 58.3861 126.218 60.6687C125.944 62.8596 126.261 65.1117 125.517 67.1471C125.151 68.1289 124.511 68.9868 123.673 69.6207C122.902 70.1705 122.173 70.7768 121.493 71.4347C120.96 72.0762 120.577 72.8275 120.372 73.6343C120.167 74.441 120.145 75.2829 120.308 76.0991C120.546 77.4713 121.117 78.7652 121.972 79.8684C122.614 80.7155 123.331 81.5039 124.114 82.2242C124.759 82.8178 125.28 83.2607 125.626 83.567C125.812 83.7083 125.986 83.8643 126.147 84.0334Z" fill="#455A64"/>
<path d="M164.493 69.3473C164.746 69.0953 164.935 68.7867 165.043 68.4474C165.151 67.9759 165.159 67.4872 165.066 67.0125C164.973 66.5378 164.781 66.0877 164.503 65.6912C164.176 65.1682 163.735 64.6499 163.289 64.0609C162.781 63.4447 162.409 62.7286 162.199 61.9596C162.009 61.1041 161.974 60.2219 162.095 59.3541C162.194 58.4542 162.374 57.5401 162.493 56.6072C162.725 54.8463 162.514 53.0556 161.877 51.3962C161.359 50.0409 160.592 48.7931 159.616 47.7165C158.959 46.9894 158.204 46.3553 157.374 45.8319C156.786 45.4596 156.426 45.29 156.426 45.2712C156.517 45.2939 156.605 45.3288 156.686 45.3748C156.933 45.4859 157.172 45.6117 157.402 45.7518C158.264 46.252 159.046 46.8759 159.725 47.6034C160.739 48.682 161.535 49.944 162.071 51.3208C162.734 53.0115 162.957 54.841 162.72 56.6402C162.602 57.5825 162.417 58.5013 162.317 59.3824C162.195 60.2241 162.224 61.0808 162.403 61.9125C162.6 62.6532 162.95 63.3448 163.431 63.9432C163.867 64.5321 164.308 65.0645 164.635 65.6063C164.918 66.024 165.107 66.4974 165.189 66.9942C165.271 67.4911 165.243 67.9997 165.109 68.4851C165.022 68.7442 164.878 68.9807 164.687 69.1777C164.631 69.2426 164.565 69.2997 164.493 69.3473Z" fill="#403E48"/>
</g>
<path d="M46.0365 211.7V200.8H45.1365L39.5365 202.42L40.1965 204.8L43.3365 203.92V211.7H39.7965V214H49.1365V211.7H46.0365ZM50.6679 212.38C50.6679 213.44 51.4879 214.24 52.5479 214.24C53.6079 214.24 54.3879 213.44 54.3879 212.38C54.3879 211.34 53.5879 210.52 52.5479 210.52C51.4879 210.52 50.6679 211.34 50.6679 212.38ZM75.56 200.56L69.98 207.7L64.4 200.56H63.52V214H66.22V206.96L69.54 211.12H70.42L73.74 206.96V214H76.44V200.56H75.56ZM88.2994 209.96C88.4194 209.46 88.4794 208.96 88.4794 208.48C88.4794 205.9 86.5594 203.88 83.8194 203.88C80.9594 203.82 78.5794 206.2 78.6394 209.06C78.5794 211.92 80.9994 214.3 84.0594 214.24C85.5194 214.24 86.8394 213.74 88.0194 212.76L86.8994 210.92C86.0394 211.58 85.1194 211.92 84.1394 211.92C82.6994 211.92 81.6794 211.22 81.3594 209.96H88.2994ZM81.3594 208.06C81.6594 206.84 82.5794 206.06 83.7194 206.06C84.8994 206.06 85.8394 206.84 85.8594 208.06H81.3594ZM99.6861 209.96C99.8061 209.46 99.8661 208.96 99.8661 208.48C99.8661 205.9 97.9461 203.88 95.2061 203.88C92.3461 203.82 89.9661 206.2 90.0261 209.06C89.9661 211.92 92.3861 214.3 95.4461 214.24C96.9061 214.24 98.2261 213.74 99.4061 212.76L98.2861 210.92C97.4261 211.58 96.5061 211.92 95.5261 211.92C94.0861 211.92 93.0661 211.22 92.7461 209.96H99.6861ZM92.7461 208.06C93.0461 206.84 93.9661 206.06 95.1061 206.06C96.2861 206.06 97.2261 206.84 97.2461 208.06H92.7461ZM108.333 211.74C107.633 211.8 107.213 211.82 107.053 211.82C105.773 211.82 105.213 211.4 105.213 210.28V206.38H108.013V204.1H105.213V201.6H102.513V204.1H100.953V206.38H102.513V210.52C102.513 213 103.973 214.24 106.473 214.24C107.073 214.24 107.693 214.16 108.333 214V211.74ZM125.898 200.8H122.918L120.018 206.04L117.098 200.8H114.098L118.658 208.82V214H121.358V208.8L125.898 200.8ZM125.397 209.04C125.337 211.86 127.777 214.28 130.677 214.22C133.577 214.28 136.077 211.86 136.017 209.04C136.077 206.22 133.597 203.84 130.697 203.88C127.797 203.82 125.337 206.22 125.397 209.04ZM133.257 209.06C133.257 210.6 132.157 211.74 130.697 211.74C129.197 211.74 128.137 210.6 128.137 209.06C128.137 207.48 129.197 206.34 130.697 206.34C132.157 206.34 133.257 207.52 133.257 209.06ZM138.025 209.64C138.025 212.4 139.965 214.24 142.605 214.24C145.185 214.24 147.145 212.4 147.145 209.64V204.1H144.445V209.86C144.445 211 143.645 211.76 142.605 211.76C141.505 211.76 140.725 211 140.725 209.86V204.1H138.025V209.64ZM155.807 204.1C155.547 204.02 155.267 203.98 154.927 203.98C153.827 203.98 152.867 204.46 152.207 205.28V204.1H149.727V214H152.427V209.06C152.427 207.36 153.467 206.48 155.087 206.48H155.807V204.1ZM163.266 214H165.966V209.34H168.226C170.986 209.34 172.986 207.58 172.986 205.06C172.986 202.52 170.986 200.8 168.226 200.8H163.266V214ZM165.966 206.98V203.18H168.226C169.446 203.18 170.226 203.94 170.226 205.06C170.226 206.2 169.486 206.98 168.226 206.98H165.966ZM181.041 204.1C180.781 204.02 180.501 203.98 180.161 203.98C179.061 203.98 178.101 204.46 177.441 205.28V204.1H174.961V214H177.661V209.06C177.661 207.36 178.701 206.48 180.321 206.48H181.041V204.1ZM181.96 209.04C181.9 211.86 184.34 214.28 187.24 214.22C190.14 214.28 192.64 211.86 192.58 209.04C192.64 206.22 190.16 203.84 187.26 203.88C184.36 203.82 181.9 206.22 181.96 209.04ZM189.82 209.06C189.82 210.6 188.72 211.74 187.26 211.74C185.76 211.74 184.7 210.6 184.7 209.06C184.7 207.48 185.76 206.34 187.26 206.34C188.72 206.34 189.82 207.52 189.82 209.06ZM201.037 204.1L198.537 209.7L196.037 204.1H193.197L198.097 214.24H198.997L203.897 204.1H201.037ZM205.469 214H208.169V204.1H205.469V214ZM205.089 200.5C205.089 201.44 205.849 202.16 206.809 202.16C207.769 202.16 208.549 201.44 208.549 200.5C208.549 199.54 207.769 198.82 206.809 198.82C205.849 198.82 205.089 199.54 205.089 200.5ZM218.04 199V205.06C217.32 204.28 216.34 203.88 215.08 203.88C212.32 203.88 210.28 206.08 210.28 209.06C210.28 212.04 212.32 214.24 215.08 214.24C216.44 214.24 217.6 213.72 218.26 212.78V214H220.74V199H218.04ZM218.08 209.06C218.08 210.84 216.94 211.78 215.58 211.78C214.12 211.78 213.02 210.7 213.02 209.04C213.02 207.42 214.14 206.32 215.58 206.32C216.94 206.32 218.08 207.3 218.08 209.06ZM232.518 209.96C232.638 209.46 232.698 208.96 232.698 208.48C232.698 205.9 230.778 203.88 228.038 203.88C225.178 203.82 222.798 206.2 222.858 209.06C222.798 211.92 225.218 214.3 228.278 214.24C229.738 214.24 231.058 213.74 232.238 212.76L231.118 210.92C230.258 211.58 229.338 211.92 228.358 211.92C226.918 211.92 225.898 211.22 225.578 209.96H232.518ZM225.578 208.06C225.878 206.84 226.798 206.06 227.938 206.06C229.118 206.06 230.058 206.84 230.078 208.06H225.578ZM240.885 204.1C240.625 204.02 240.345 203.98 240.005 203.98C238.905 203.98 237.945 204.46 237.285 205.28V204.1H234.805V214H237.505V209.06C237.505 207.36 238.545 206.48 240.165 206.48H240.885V204.1Z" fill="#403E48"/>
<path d="M32.768 239.72C32.704 242.744 35.264 245.224 38.256 245.176C40.128 245.176 41.76 244.296 42.64 242.904L41.712 242.168C40.896 243.336 39.728 244.024 38.272 244.024C35.888 244.024 34.064 242.168 34.064 239.72C34.064 237.272 35.888 235.416 38.272 235.416C39.728 235.416 40.896 236.104 41.712 237.272L42.64 236.536C41.744 235.144 40.128 234.264 38.256 234.264C35.264 234.216 32.704 236.696 32.768 239.72ZM44.0813 241.096C44.0493 243.288 45.9213 245.208 48.1453 245.16C50.3693 245.208 52.2893 243.288 52.2413 241.096C52.2893 238.872 50.3853 237 48.1613 237.032C45.9373 236.984 44.0333 238.872 44.0813 241.096ZM50.9773 241.112C50.9773 242.744 49.7293 244.024 48.1453 244.024C46.5613 244.024 45.3453 242.744 45.3453 241.112C45.3453 239.432 46.5613 238.168 48.1613 238.168C49.7453 238.168 50.9773 239.432 50.9773 241.112ZM60.8549 240.104C60.8549 238.264 59.7669 237.032 57.9589 237.032C56.9829 237.032 56.1349 237.4 55.5589 238.04V237.208H54.4069V245H55.6389V240.248C55.6389 239.032 56.4869 238.168 57.6869 238.168C58.8869 238.168 59.6229 239.016 59.6229 240.248V245H60.8549V240.104ZM69.9174 240.104C69.9174 238.264 68.8294 237.032 67.0214 237.032C66.0454 237.032 65.1974 237.4 64.6214 238.04V237.208H63.4694V245H64.7014V240.248C64.7014 239.032 65.5494 238.168 66.7494 238.168C67.9494 238.168 68.6854 239.016 68.6854 240.248V245H69.9174V240.104ZM79.4119 241.48C79.4759 241.16 79.5079 240.856 79.5079 240.552C79.5079 238.488 77.9719 237.032 75.9559 237.032C73.7319 237.032 71.9719 238.856 71.9719 241.112C71.9719 243.4 73.7799 245.176 76.0999 245.176C77.3319 245.176 78.4039 244.664 79.2199 243.816L78.4999 242.984C77.7959 243.688 76.9959 244.04 76.1159 244.04C74.5799 244.04 73.3959 243.016 73.2519 241.48H79.4119ZM73.2999 240.392C73.5719 239.048 74.6279 238.152 75.9239 238.152C77.2199 238.152 78.2279 239 78.2439 240.392H73.2999ZM81.1125 241.096C81.1125 243.352 82.9365 245.176 85.1925 245.176C86.5525 245.176 87.6885 244.52 88.3925 243.48L87.5125 242.792C86.8885 243.624 86.1205 244.04 85.2085 244.04C83.5925 244.04 82.3765 242.728 82.3765 241.096C82.3765 239.48 83.5925 238.168 85.2085 238.168C86.1205 238.168 86.9045 238.584 87.5285 239.432L88.4085 238.728C87.7045 237.688 86.5525 237.032 85.1925 237.032C82.9685 237 81.0645 238.872 81.1125 241.096ZM94.741 243.96C94.341 244.024 94.005 244.056 93.701 244.056C92.629 244.056 92.053 243.672 92.053 242.568V238.312H94.485V237.208H92.053V235.08H90.821V237.208H89.509V238.312H90.821V242.648C90.821 244.36 91.829 245.176 93.445 245.176C93.813 245.176 94.245 245.112 94.741 245V243.96ZM111.091 237.208L108.883 242.936L106.259 237.032H105.795L103.203 242.984L100.947 237.208H99.6348L102.947 245.176H103.379L106.019 239.288L108.675 245.176H109.123L112.403 237.208H111.091ZM114.188 245H115.42V237.208H114.188V245ZM113.884 234.232C113.884 234.744 114.3 235.128 114.812 235.128C115.324 235.128 115.724 234.744 115.724 234.232C115.724 233.736 115.308 233.336 114.812 233.336C114.3 233.336 113.884 233.736 113.884 234.232ZM122.382 243.96C121.982 244.024 121.646 244.056 121.342 244.056C120.27 244.056 119.694 243.672 119.694 242.568V238.312H122.126V237.208H119.694V235.08H118.462V237.208H117.15V238.312H118.462V242.648C118.462 244.36 119.47 245.176 121.086 245.176C121.454 245.176 121.886 245.112 122.382 245V243.96ZM130.667 240.104C130.667 238.264 129.579 237.032 127.787 237.032C126.811 237.032 125.979 237.432 125.451 238.088V233H124.219V245H125.451V240.264C125.451 239.048 126.299 238.168 127.499 238.168C128.699 238.168 129.435 239 129.435 240.264V245H130.667V240.104ZM143.606 240.2C143.606 238.152 142.406 237.032 140.566 237.032C139.27 237.032 138.102 237.592 137.398 238.744L138.214 239.416C138.854 238.584 139.542 238.168 140.486 238.168C141.654 238.168 142.374 238.856 142.374 240.136V240.808H139.91C138.23 240.808 137.11 241.656 137.11 242.984C137.11 244.328 138.23 245.176 139.83 245.176C140.966 245.176 141.878 244.76 142.454 243.992V245H143.606V240.2ZM142.374 242.008C142.374 243.208 141.27 244.152 139.99 244.152C139.078 244.152 138.374 243.704 138.374 242.92C138.374 242.2 138.966 241.816 140.054 241.816H142.374V242.008ZM150.704 245H151.936V233H150.704V245ZM154.641 245H155.873V237.208H154.641V245ZM154.337 234.232C154.337 234.744 154.753 235.128 155.265 235.128C155.777 235.128 156.177 234.744 156.177 234.232C156.177 233.736 155.761 233.336 155.265 233.336C154.753 233.336 154.337 233.736 154.337 234.232ZM158.019 241.096C158.019 243.352 159.843 245.176 162.099 245.176C163.459 245.176 164.595 244.52 165.299 243.48L164.419 242.792C163.795 243.624 163.027 244.04 162.115 244.04C160.499 244.04 159.283 242.728 159.283 241.096C159.283 239.48 160.499 238.168 162.115 238.168C163.027 238.168 163.811 238.584 164.435 239.432L165.315 238.728C164.611 237.688 163.459 237.032 162.099 237.032C159.875 237 157.971 238.872 158.019 241.096ZM174.115 241.48C174.179 241.16 174.211 240.856 174.211 240.552C174.211 238.488 172.675 237.032 170.659 237.032C168.435 237.032 166.675 238.856 166.675 241.112C166.675 243.4 168.483 245.176 170.803 245.176C172.035 245.176 173.107 244.664 173.923 243.816L173.203 242.984C172.499 243.688 171.699 244.04 170.819 244.04C169.283 244.04 168.099 243.016 167.955 241.48H174.115ZM168.003 240.392C168.275 239.048 169.331 238.152 170.627 238.152C171.923 238.152 172.931 239 172.947 240.392H168.003ZM182.824 240.104C182.824 238.264 181.736 237.032 179.928 237.032C178.952 237.032 178.104 237.4 177.528 238.04V237.208H176.376V245H177.608V240.248C177.608 239.032 178.456 238.168 179.656 238.168C180.856 238.168 181.592 239.016 181.592 240.248V245H182.824V240.104ZM184.702 243.656C185.39 244.552 186.446 245.176 187.742 245.176C188.51 245.176 189.15 244.984 189.678 244.584C190.206 244.184 190.478 243.608 190.478 242.888C190.478 241.816 189.87 241.208 188.414 240.584L187.694 240.28C186.75 239.88 186.43 239.64 186.43 239.144C186.43 238.52 186.958 238.168 187.726 238.168C188.446 238.168 189.118 238.504 189.646 239.032L190.398 238.264C189.758 237.496 188.878 237.032 187.79 237.032C186.302 237.032 185.166 237.848 185.166 239.208C185.166 240.248 185.806 240.84 187.102 241.368L187.854 241.688C188.814 242.072 189.214 242.312 189.214 242.936C189.214 243.624 188.574 244.04 187.726 244.04C186.846 244.04 186.238 243.608 185.486 242.84L184.702 243.656ZM199.584 241.48C199.648 241.16 199.68 240.856 199.68 240.552C199.68 238.488 198.144 237.032 196.128 237.032C193.904 237.032 192.144 238.856 192.144 241.112C192.144 243.4 193.952 245.176 196.272 245.176C197.504 245.176 198.576 244.664 199.392 243.816L198.672 242.984C197.968 243.688 197.168 244.04 196.288 244.04C194.752 244.04 193.568 243.016 193.424 241.48H199.584ZM193.472 240.392C193.744 239.048 194.8 238.152 196.096 238.152C197.392 238.152 198.4 239 198.416 240.392H193.472ZM208.02 233V238.36C207.396 237.528 206.308 237.032 205.14 237.032C202.948 237.032 201.284 238.824 201.284 241.112C201.284 243.4 202.948 245.176 205.14 245.176C206.356 245.176 207.492 244.648 208.084 243.768V245H209.252V233H208.02ZM208.036 241.112C208.036 243.08 206.724 244.04 205.316 244.04C203.732 244.04 202.548 242.776 202.548 241.096C202.548 239.416 203.732 238.168 205.316 238.168C206.724 238.168 208.036 239.128 208.036 241.112ZM41.312 265.096C41.312 262.808 39.68 261.032 37.456 261.032C36.24 261.032 35.104 261.56 34.512 262.456V261.208H33.36V271.88H34.592V267.88C35.232 268.696 36.304 269.176 37.456 269.176C39.648 269.176 41.312 267.384 41.312 265.096ZM40.048 265.112C40.048 266.792 38.864 268.04 37.28 268.04C35.84 268.04 34.576 267.08 34.576 265.096C34.576 263.128 35.888 262.168 37.28 262.168C38.864 262.168 40.048 263.432 40.048 265.112ZM47.6134 261.208C47.4054 261.16 47.2134 261.144 47.0374 261.144C46.0934 261.144 45.1814 261.56 44.6214 262.312V261.208H43.4694V269H44.7014V264.584C44.7014 263.144 45.8374 262.296 47.1494 262.296H47.6134V261.208ZM48.55 265.096C48.518 267.288 50.39 269.208 52.614 269.16C54.838 269.208 56.758 267.288 56.71 265.096C56.758 262.872 54.854 261 52.63 261.032C50.406 260.984 48.502 262.872 48.55 265.096ZM55.446 265.112C55.446 266.744 54.198 268.024 52.614 268.024C51.03 268.024 49.814 266.744 49.814 265.112C49.814 263.432 51.03 262.168 52.63 262.168C54.214 262.168 55.446 263.432 55.446 265.112ZM64.0991 261.208L61.5231 267.08L58.9311 261.208H57.6191L61.2991 269.176H61.7471L65.4111 261.208H64.0991ZM67.1881 269H68.4201V261.208H67.1881V269ZM66.8841 258.232C66.8841 258.744 67.3001 259.128 67.8121 259.128C68.3241 259.128 68.7241 258.744 68.7241 258.232C68.7241 257.736 68.3081 257.336 67.8121 257.336C67.3001 257.336 66.8841 257.736 66.8841 258.232ZM77.3016 257V262.36C76.6776 261.528 75.5896 261.032 74.4216 261.032C72.2296 261.032 70.5656 262.824 70.5656 265.112C70.5656 267.4 72.2296 269.176 74.4216 269.176C75.6376 269.176 76.7736 268.648 77.3656 267.768V269H78.5336V257H77.3016ZM77.3176 265.112C77.3176 267.08 76.0056 268.04 74.5976 268.04C73.0136 268.04 71.8296 266.776 71.8296 265.096C71.8296 263.416 73.0136 262.168 74.5976 262.168C76.0056 262.168 77.3176 263.128 77.3176 265.112ZM88.115 265.48C88.179 265.16 88.211 264.856 88.211 264.552C88.211 262.488 86.675 261.032 84.659 261.032C82.435 261.032 80.675 262.856 80.675 265.112C80.675 267.4 82.483 269.176 84.803 269.176C86.035 269.176 87.107 268.664 87.923 267.816L87.203 266.984C86.499 267.688 85.699 268.04 84.819 268.04C83.283 268.04 82.099 267.016 81.955 265.48H88.115ZM82.003 264.392C82.275 263.048 83.331 262.152 84.627 262.152C85.923 262.152 86.931 263 86.947 264.392H82.003ZM94.5196 261.208C94.3116 261.16 94.1196 261.144 93.9436 261.144C92.9996 261.144 92.0876 261.56 91.5276 262.312V261.208H90.3756V269H91.6076V264.584C91.6076 263.144 92.7436 262.296 94.0556 262.296H94.5196V261.208ZM100.097 265.096C100.065 267.288 101.937 269.208 104.161 269.16C106.385 269.208 108.305 267.288 108.257 265.096C108.305 262.872 106.401 261 104.177 261.032C101.953 260.984 100.049 262.872 100.097 265.096ZM106.993 265.112C106.993 266.744 105.745 268.024 104.161 268.024C102.577 268.024 101.361 266.744 101.361 265.112C101.361 263.432 102.577 262.168 104.177 262.168C105.761 262.168 106.993 263.432 106.993 265.112ZM115.646 261.208L113.07 267.08L110.478 261.208H109.166L112.846 269.176H113.294L116.958 261.208H115.646ZM125.303 265.48C125.367 265.16 125.399 264.856 125.399 264.552C125.399 262.488 123.863 261.032 121.847 261.032C119.623 261.032 117.863 262.856 117.863 265.112C117.863 267.4 119.671 269.176 121.991 269.176C123.223 269.176 124.295 268.664 125.111 267.816L124.391 266.984C123.687 267.688 122.887 268.04 122.007 268.04C120.471 268.04 119.287 267.016 119.143 265.48H125.303ZM119.191 264.392C119.463 263.048 120.519 262.152 121.815 262.152C123.111 262.152 124.119 263 124.135 264.392H119.191ZM131.707 261.208C131.499 261.16 131.307 261.144 131.131 261.144C130.187 261.144 129.275 261.56 128.715 262.312V261.208H127.563V269H128.795V264.584C128.795 263.144 129.931 262.296 131.243 262.296H131.707V261.208ZM142.948 261.08L140.948 265.56L138.948 261.08H136.676L140.596 269.192H141.316L145.236 261.08H142.948ZM146.494 269H148.654V261.08H146.494V269ZM146.19 258.2C146.19 258.952 146.798 259.528 147.566 259.528C148.334 259.528 148.958 258.952 148.958 258.2C148.958 257.432 148.334 256.856 147.566 256.856C146.798 256.856 146.19 257.432 146.19 258.2ZM156.551 257V261.848C155.975 261.224 155.191 260.904 154.183 260.904C151.975 260.904 150.343 262.664 150.343 265.048C150.343 267.432 151.975 269.192 154.183 269.192C155.271 269.192 156.199 268.776 156.727 268.024V269H158.711V257H156.551ZM156.583 265.048C156.583 266.472 155.671 267.224 154.583 267.224C153.415 267.224 152.535 266.36 152.535 265.032C152.535 263.736 153.431 262.856 154.583 262.856C155.671 262.856 156.583 263.64 156.583 265.048ZM168.133 265.768C168.229 265.368 168.277 264.968 168.277 264.584C168.277 262.52 166.741 260.904 164.549 260.904C162.261 260.856 160.357 262.76 160.405 265.048C160.357 267.336 162.293 269.24 164.741 269.192C165.909 269.192 166.965 268.792 167.909 268.008L167.013 266.536C166.325 267.064 165.589 267.336 164.805 267.336C163.653 267.336 162.837 266.776 162.581 265.768H168.133ZM162.581 264.248C162.821 263.272 163.557 262.648 164.469 262.648C165.413 262.648 166.165 263.272 166.181 264.248H162.581ZM169.515 265.032C169.467 267.288 171.419 269.224 173.739 269.176C176.059 269.224 178.059 267.288 178.011 265.032C178.059 262.776 176.075 260.872 173.755 260.904C171.435 260.856 169.467 262.776 169.515 265.032ZM175.803 265.048C175.803 266.28 174.923 267.192 173.755 267.192C172.555 267.192 171.707 266.28 171.707 265.048C171.707 263.784 172.555 262.872 173.755 262.872C174.923 262.872 175.803 263.816 175.803 265.048ZM188.725 267.96C188.325 268.024 187.989 268.056 187.685 268.056C186.613 268.056 186.037 267.672 186.037 266.568V262.312H188.469V261.208H186.037V259.08H184.805V261.208H183.493V262.312H184.805V266.648C184.805 268.36 185.813 269.176 187.429 269.176C187.797 269.176 188.229 269.112 188.725 269V267.96ZM197.011 264.104C197.011 262.264 195.923 261.032 194.131 261.032C193.155 261.032 192.323 261.432 191.795 262.088V257H190.563V269H191.795V264.264C191.795 263.048 192.643 262.168 193.843 262.168C195.043 262.168 195.779 263 195.779 264.264V269H197.011V264.104ZM203.77 261.208C203.562 261.16 203.37 261.144 203.194 261.144C202.25 261.144 201.338 261.56 200.778 262.312V261.208H199.626V269H200.858V264.584C200.858 263.144 201.994 262.296 203.306 262.296H203.77V261.208ZM204.706 265.096C204.674 267.288 206.546 269.208 208.77 269.16C210.994 269.208 212.914 267.288 212.866 265.096C212.914 262.872 211.01 261 208.786 261.032C206.562 260.984 204.658 262.872 204.706 265.096ZM211.602 265.112C211.602 266.744 210.354 268.024 208.77 268.024C207.186 268.024 205.97 266.744 205.97 265.112C205.97 263.432 207.186 262.168 208.786 262.168C210.37 262.168 211.602 263.432 211.602 265.112ZM214.936 265.896C214.936 267.864 216.344 269.176 218.168 269.176C219.976 269.176 221.384 267.864 221.384 265.896V261.208H220.152V265.976C220.152 267.208 219.304 268.04 218.168 268.04C217.016 268.04 216.152 267.24 216.152 265.976V261.208H214.936V265.896ZM230.305 261.208V262.456C229.713 261.56 228.577 261.032 227.345 261.032C225.153 261.032 223.521 262.744 223.521 264.984C223.521 267.24 225.153 268.92 227.345 268.92C228.513 268.92 229.617 268.44 230.241 267.624V268.312C230.241 269.992 229.265 270.92 227.649 270.92C226.481 270.92 225.617 270.456 224.737 269.688L224.017 270.552C224.897 271.432 226.161 272.056 227.681 272.056C229.985 272.056 231.473 270.616 231.473 268.248V261.208H230.305ZM230.257 264.984C230.257 266.872 228.961 267.784 227.537 267.784C225.953 267.784 224.769 266.648 224.769 265C224.769 263.368 225.953 262.2 227.537 262.2C228.945 262.2 230.257 263.112 230.257 264.984ZM240.621 264.104C240.621 262.264 239.533 261.032 237.741 261.032C236.765 261.032 235.933 261.432 235.405 262.088V257H234.173V269H235.405V264.264C235.405 263.048 236.253 262.168 237.453 262.168C238.653 262.168 239.389 263 239.389 264.264V269H240.621V264.104ZM38.896 285.208L36.32 291.416L33.744 285.208H32.416L35.648 292.76L35.232 293.688C34.832 294.632 34.288 294.936 33.472 294.936C33.248 294.936 32.928 294.904 32.528 294.856V295.896C32.928 296.008 33.328 296.056 33.728 296.056C34.928 296.056 35.776 295.448 36.368 294.088L40.208 285.208H38.896ZM41.1125 289.096C41.0805 291.288 42.9525 293.208 45.1765 293.16C47.4005 293.208 49.3205 291.288 49.2725 289.096C49.3205 286.872 47.4165 285 45.1925 285.032C42.9685 284.984 41.0645 286.872 41.1125 289.096ZM48.0085 289.112C48.0085 290.744 46.7605 292.024 45.1765 292.024C43.5925 292.024 42.3765 290.744 42.3765 289.112C42.3765 287.432 43.5925 286.168 45.1925 286.168C46.7765 286.168 48.0085 287.432 48.0085 289.112ZM51.3421 289.896C51.3421 291.864 52.7501 293.176 54.5741 293.176C56.3821 293.176 57.7901 291.864 57.7901 289.896V285.208H56.5581V289.976C56.5581 291.208 55.7101 292.04 54.5741 292.04C53.4221 292.04 52.5581 291.24 52.5581 289.976V285.208H51.3421V289.896ZM64.5353 285.208C64.3273 285.16 64.1353 285.144 63.9593 285.144C63.0153 285.144 62.1033 285.56 61.5433 286.312V285.208H60.3913V293H61.6233V288.584C61.6233 287.144 62.7593 286.296 64.0713 286.296H64.5353V285.208ZM78.6245 289.096C78.6245 286.808 76.9925 285.032 74.7685 285.032C73.5525 285.032 72.4165 285.56 71.8245 286.456V285.208H70.6725V295.88H71.9045V291.88C72.5445 292.696 73.6165 293.176 74.7685 293.176C76.9605 293.176 78.6245 291.384 78.6245 289.096ZM77.3605 289.112C77.3605 290.792 76.1765 292.04 74.5925 292.04C73.1525 292.04 71.8885 291.08 71.8885 289.096C71.8885 287.128 73.2005 286.168 74.5925 286.168C76.1765 286.168 77.3605 287.432 77.3605 289.112ZM87.2299 288.104C87.2299 286.264 86.1419 285.032 84.3499 285.032C83.3739 285.032 82.5419 285.432 82.0139 286.088V281H80.7819V293H82.0139V288.264C82.0139 287.048 82.8619 286.168 84.0619 286.168C85.2619 286.168 85.9979 287 85.9979 288.264V293H87.2299V288.104ZM89.2844 289.096C89.2524 291.288 91.1244 293.208 93.3484 293.16C95.5724 293.208 97.4924 291.288 97.4444 289.096C97.4924 286.872 95.5884 285 93.3644 285.032C91.1404 284.984 89.2364 286.872 89.2844 289.096ZM96.1804 289.112C96.1804 290.744 94.9324 292.024 93.3484 292.024C91.7644 292.024 90.5484 290.744 90.5484 289.112C90.5484 287.432 91.7644 286.168 93.3644 286.168C94.9484 286.168 96.1804 287.432 96.1804 289.112ZM106.058 288.104C106.058 286.264 104.97 285.032 103.162 285.032C102.186 285.032 101.338 285.4 100.762 286.04V285.208H99.61V293H100.842V288.248C100.842 287.032 101.69 286.168 102.89 286.168C104.09 286.168 104.826 287.016 104.826 288.248V293H106.058V288.104ZM115.553 289.48C115.617 289.16 115.649 288.856 115.649 288.552C115.649 286.488 114.113 285.032 112.097 285.032C109.873 285.032 108.113 286.856 108.113 289.112C108.113 291.4 109.921 293.176 112.241 293.176C113.473 293.176 114.545 292.664 115.361 291.816L114.641 290.984C113.937 291.688 113.137 292.04 112.257 292.04C110.721 292.04 109.537 291.016 109.393 289.48H115.553ZM109.441 288.392C109.713 287.048 110.769 286.152 112.065 286.152C113.361 286.152 114.369 287 114.385 288.392H109.441ZM121.738 289.096C121.706 291.288 123.578 293.208 125.802 293.16C128.026 293.208 129.946 291.288 129.898 289.096C129.946 286.872 128.042 285 125.818 285.032C123.594 284.984 121.69 286.872 121.738 289.096ZM128.634 289.112C128.634 290.744 127.386 292.024 125.802 292.024C124.218 292.024 123.002 290.744 123.002 289.112C123.002 287.432 124.218 286.168 125.818 286.168C127.402 286.168 128.634 287.432 128.634 289.112ZM136.207 285.208C135.999 285.16 135.807 285.144 135.631 285.144C134.687 285.144 133.775 285.56 133.215 286.312V285.208H132.063V293H133.295V288.584C133.295 287.144 134.431 286.296 135.743 286.296H136.207V285.208ZM141.784 289.096C141.784 291.352 143.608 293.176 145.864 293.176C147.224 293.176 148.36 292.52 149.064 291.48L148.184 290.792C147.56 291.624 146.792 292.04 145.88 292.04C144.264 292.04 143.048 290.728 143.048 289.096C143.048 287.48 144.264 286.168 145.88 286.168C146.792 286.168 147.576 286.584 148.2 287.432L149.08 286.728C148.376 285.688 147.224 285.032 145.864 285.032C143.64 285 141.736 286.872 141.784 289.096ZM150.441 289.096C150.409 291.288 152.281 293.208 154.505 293.16C156.729 293.208 158.649 291.288 158.601 289.096C158.649 286.872 156.745 285 154.521 285.032C152.297 284.984 150.393 286.872 150.441 289.096ZM157.337 289.112C157.337 290.744 156.089 292.024 154.505 292.024C152.921 292.024 151.705 290.744 151.705 289.112C151.705 287.432 152.921 286.168 154.521 286.168C156.105 286.168 157.337 287.432 157.337 289.112ZM172.142 288.104C172.142 286.248 171.102 285.032 169.31 285.032C168.158 285.032 167.214 285.56 166.638 286.376C166.19 285.528 165.374 285.032 164.238 285.032C163.278 285.032 162.478 285.384 161.918 286.024V285.208H160.766V293H161.998V288.264C161.998 287.032 162.814 286.168 163.982 286.168C165.118 286.168 165.838 287 165.838 288.264V293H167.07V288.152C167.07 287.048 167.902 286.168 169.07 286.168C170.222 286.168 170.91 287 170.91 288.264V293H172.142V288.104ZM182.703 289.096C182.703 286.808 181.071 285.032 178.847 285.032C177.631 285.032 176.495 285.56 175.903 286.456V285.208H174.751V295.88H175.983V291.88C176.623 292.696 177.695 293.176 178.847 293.176C181.039 293.176 182.703 291.384 182.703 289.096ZM181.439 289.112C181.439 290.792 180.255 292.04 178.671 292.04C177.231 292.04 175.967 291.08 175.967 289.096C175.967 287.128 177.279 286.168 178.671 286.168C180.255 286.168 181.439 287.432 181.439 289.112ZM184.764 289.896C184.764 291.864 186.172 293.176 187.996 293.176C189.804 293.176 191.212 291.864 191.212 289.896V285.208H189.98V289.976C189.98 291.208 189.132 292.04 187.996 292.04C186.844 292.04 185.98 291.24 185.98 289.976V285.208H184.764V289.896ZM198.069 291.96C197.669 292.024 197.333 292.056 197.029 292.056C195.957 292.056 195.381 291.672 195.381 290.568V286.312H197.813V285.208H195.381V283.08H194.149V285.208H192.837V286.312H194.149V290.648C194.149 292.36 195.157 293.176 196.773 293.176C197.141 293.176 197.573 293.112 198.069 293V291.96ZM206.631 289.48C206.695 289.16 206.727 288.856 206.727 288.552C206.727 286.488 205.191 285.032 203.175 285.032C200.951 285.032 199.191 286.856 199.191 289.112C199.191 291.4 200.999 293.176 203.319 293.176C204.551 293.176 205.623 292.664 206.439 291.816L205.719 290.984C205.015 291.688 204.215 292.04 203.335 292.04C201.799 292.04 200.615 291.016 200.471 289.48H206.631ZM200.519 288.392C200.791 287.048 201.847 286.152 203.143 286.152C204.439 286.152 205.447 287 205.463 288.392H200.519ZM213.035 285.208C212.827 285.16 212.635 285.144 212.459 285.144C211.515 285.144 210.603 285.56 210.043 286.312V285.208H208.891V293H210.123V288.584C210.123 287.144 211.259 286.296 212.571 286.296H213.035V285.208ZM213.404 292.168C213.404 292.744 213.852 293.176 214.412 293.176C214.972 293.176 215.42 292.744 215.42 292.168C215.42 291.592 214.972 291.16 214.412 291.16C213.852 291.16 213.404 291.592 213.404 292.168Z" fill="#6C6A7C"/>
<rect x="12.75" y="0.75" width="268.5" height="318.5" rx="19.25" stroke="#F2F4F7" stroke-width="1.5"/>
</g>
<defs>
<filter id="filter0_dd_2274_13793" x="0" y="0" width="294" height="344" filterUnits="userSpaceOnUse" color-interpolation-filters="sRGB">
<feFlood flood-opacity="0" result="BackgroundImageFix"/>
<feColorMatrix in="SourceAlpha" type="matrix" values="0 0 0 0 0 0 0 0 0 0 0 0 0 0 0 0 0 0 127 0" result="hardAlpha"/>
<feMorphology radius="2" operator="erode" in="SourceAlpha" result="effect1_dropShadow_2274_13793"/>
<feOffset dy="4"/>
<feGaussianBlur stdDeviation="3"/>
<feColorMatrix type="matrix" values="0 0 0 0 0.192157 0 0 0 0 0.2 0 0 0 0 0.215686 0 0 0 0.05 0"/>
<feBlend mode="normal" in2="BackgroundImageFix" result="effect1_dropShadow_2274_13793"/>
<feColorMatrix in="SourceAlpha" type="matrix" values="0 0 0 0 0 0 0 0 0 0 0 0 0 0 0 0 0 0 127 0" result="hardAlpha"/>
<feMorphology radius="4" operator="erode" in="SourceAlpha" result="effect2_dropShadow_2274_13793"/>
<feOffset dy="12"/>
<feGaussianBlur stdDeviation="8"/>
<feColorMatrix type="matrix" values="0 0 0 0 0.192157 0 0 0 0 0.2 0 0 0 0 0.215686 0 0 0 0.1 0"/>
<feBlend mode="normal" in2="effect1_dropShadow_2274_13793" result="effect2_dropShadow_2274_13793"/>
<feBlend mode="normal" in="SourceGraphic" in2="effect2_dropShadow_2274_13793" result="shape"/>
</filter>
<clipPath id="clip0_2274_13793">
<rect x="32" y="20" width="230" height="155" rx="12" fill="white"/>
</clipPath>
</defs>
</svg>
