<svg width="268" height="218" viewBox="0 0 268 218" fill="none" xmlns="http://www.w3.org/2000/svg">
<rect width="268" height="218" rx="8" fill="#F3FAF2"/>
<path d="M187.333 32.1965H61V200H187.333V32.1965Z" fill="#6FB343"/>
<g opacity="0.1">
<path opacity="0.1" d="M187.333 32.1965H61V200H187.333V32.1965Z" fill="#403E48"/>
</g>
<path d="M190.766 32.1965H64.4336V200H190.766V32.1965Z" fill="#6FB343"/>
<path d="M182.398 38.8908L70.8789 40.3118L72.8051 191.483L184.324 190.062L182.398 38.8908Z" fill="#EBEBEB"/>
<path d="M71.7756 38.4168L68.5039 189.564L180.006 191.978L183.277 40.8303L71.7756 38.4168Z" fill="#DBDBDB"/>
<path d="M181.649 39.5967H70.1211V190.78H181.649V39.5967Z" fill="white"/>
<path d="M92.3259 126.679H82.8555V136.15H92.3259V126.679Z" fill="#EBEBEB"/>
<path d="M128.119 126.679H97.4395V128.066H128.119V126.679Z" fill="#455A64"/>
<path d="M168.916 129.377H97.4395V130.764H168.916V129.377Z" fill="#EBEBEB"/>
<path d="M168.916 132.07H97.4395V133.457H168.916V132.07Z" fill="#EBEBEB"/>
<path d="M168.916 134.763H97.4395V136.15H168.916V134.763Z" fill="#EBEBEB"/>
<path d="M83.5527 130.924C83.9017 131.217 84.2319 131.518 84.562 131.83C84.8922 132.141 85.2082 132.452 85.5336 132.773C86.1703 133.4 86.7834 134.051 87.3919 134.707L86.3071 134.777C87.1666 132.981 88.1517 131.247 89.2548 129.589C89.8019 128.764 90.382 127.953 91.0046 127.17C91.6264 126.374 92.3008 125.621 93.0232 124.916C92.7381 125.882 92.3866 126.827 91.9714 127.745C91.5658 128.66 91.1241 129.552 90.6461 130.42C89.6942 132.164 88.6226 133.841 87.439 135.438L86.8448 136.235L86.3731 135.508C85.8685 134.768 85.378 134.023 84.911 133.259C84.6799 132.872 84.4394 132.495 84.2177 132.103C83.9961 131.712 83.7555 131.339 83.5527 130.924Z" fill="#6FB343"/>
<path d="M92.3259 142.352H82.8555V151.822H92.3259V142.352Z" fill="#EBEBEB"/>
<path d="M128.119 142.352H97.4395V143.739H128.119V142.352Z" fill="#455A64"/>
<path d="M168.916 145.045H97.4395V146.431H168.916V145.045Z" fill="#EBEBEB"/>
<path d="M168.916 147.738H97.4395V149.125H168.916V147.738Z" fill="#EBEBEB"/>
<path d="M168.916 150.431H97.4395V151.818H168.916V150.431Z" fill="#EBEBEB"/>
<path d="M92.3259 158.02H82.8555V167.49H92.3259V158.02Z" fill="#EBEBEB"/>
<path d="M128.119 158.02H97.4395V159.406H128.119V158.02Z" fill="#455A64"/>
<path d="M168.916 160.713H97.4395V162.099H168.916V160.713Z" fill="#EBEBEB"/>
<path d="M168.916 163.406H97.4395V164.793H168.916V163.406Z" fill="#EBEBEB"/>
<path d="M168.916 166.099H97.4395V167.485H168.916V166.099Z" fill="#EBEBEB"/>
<path d="M168.916 176.659H121.021V178.045H168.916V176.659Z" fill="#EBEBEB"/>
<path d="M108.928 77.5728H82.9648V78.9593H108.928V77.5728Z" fill="#455A64"/>
<path d="M139.349 80.2659H82.9648V81.6525H139.349V80.2659Z" fill="#EBEBEB"/>
<path d="M139.349 82.9634H82.9648V84.35H139.349V82.9634Z" fill="#EBEBEB"/>
<path d="M139.349 88.3496H82.9648V89.7362H139.349V88.3496Z" fill="#EBEBEB"/>
<path d="M107.485 91.0425H82.9648V92.4291H107.485V91.0425Z" fill="#EBEBEB"/>
<path d="M168.915 53.9907H82.8555V67.173H168.915V53.9907Z" fill="#6FB343"/>
<path d="M169.146 119.784H82.6191V101.277H169.146V119.784ZM83.0908 119.312H168.674V101.749H83.0908V119.312Z" fill="#EBEBEB"/>
<path d="M168.915 112.186H82.8555V112.658H168.915V112.186Z" fill="#EBEBEB"/>
<path d="M168.915 105.069H82.8555V105.54H168.915V105.069Z" fill="#EBEBEB"/>
<path d="M111.183 101.513H110.711V119.553H111.183V101.513Z" fill="#EBEBEB"/>
<path d="M141.056 101.513H140.584V119.553H141.056V101.513Z" fill="#EBEBEB"/>
<path d="M87.7695 103.442C89.2882 103.348 90.8116 103.301 92.335 103.263C93.8584 103.225 95.377 103.216 96.9004 103.206C98.4238 103.197 99.9425 103.206 101.466 103.263L103.749 103.329C104.508 103.367 105.267 103.39 106.031 103.442C105.267 103.499 104.508 103.522 103.749 103.56L101.466 103.626C99.9425 103.669 98.4191 103.673 96.9004 103.678C95.3817 103.683 93.8536 103.678 92.335 103.626C90.8163 103.574 89.2882 103.541 87.7695 103.442Z" fill="#455A64"/>
<path d="M116.752 103.442C118.275 103.348 119.794 103.301 121.317 103.263C122.841 103.225 124.359 103.216 125.883 103.206C127.406 103.197 128.925 103.206 130.448 103.263L132.731 103.329C133.49 103.367 134.254 103.39 135.014 103.442C134.254 103.499 133.49 103.522 132.731 103.56L130.448 103.626C128.925 103.669 127.406 103.673 125.883 103.678C124.359 103.683 122.841 103.678 121.317 103.626C119.794 103.574 118.275 103.541 116.752 103.442Z" fill="#455A64"/>
<path d="M145.914 103.442C147.437 103.348 148.961 103.301 150.48 103.263C151.998 103.225 153.526 103.216 155.045 103.206C156.564 103.197 158.092 103.206 159.61 103.263L161.893 103.329C162.657 103.367 163.416 103.39 164.176 103.442C163.416 103.499 162.657 103.522 161.893 103.56L159.61 103.626C158.092 103.669 156.568 103.673 155.045 103.678C153.522 103.683 152.003 103.678 150.48 103.626C148.956 103.574 147.437 103.541 145.914 103.442Z" fill="#455A64"/>
<path d="M87.7695 107.993C89.2882 107.899 90.8116 107.852 92.335 107.814C93.8584 107.776 95.377 107.767 96.9004 107.757C98.4238 107.748 99.9425 107.757 101.466 107.814L103.749 107.88C104.508 107.918 105.267 107.941 106.031 107.993C105.267 108.05 104.508 108.069 103.749 108.111L101.466 108.177C99.9425 108.22 98.4191 108.224 96.9004 108.229C95.3817 108.234 93.8536 108.229 92.335 108.177C90.8163 108.125 89.2882 108.092 87.7695 107.993Z" fill="#EBEBEB"/>
<path d="M116.752 107.993C118.275 107.899 119.794 107.852 121.317 107.814C122.841 107.776 124.359 107.767 125.883 107.757C127.406 107.748 128.925 107.757 130.448 107.814L132.731 107.88C133.49 107.918 134.254 107.941 135.014 107.993C134.254 108.05 133.49 108.069 132.731 108.111L130.448 108.177C128.925 108.22 127.406 108.224 125.883 108.229C124.359 108.234 122.841 108.229 121.317 108.177C119.794 108.125 118.275 108.092 116.752 107.993Z" fill="#EBEBEB"/>
<path d="M145.914 107.993C147.437 107.899 148.961 107.852 150.48 107.814C151.998 107.776 153.526 107.767 155.045 107.757C156.564 107.748 158.092 107.757 159.61 107.814L161.893 107.88C162.657 107.918 163.416 107.941 164.176 107.993C163.416 108.05 162.657 108.069 161.893 108.111L159.61 108.177C158.092 108.22 156.568 108.224 155.045 108.229C153.522 108.234 152.003 108.229 150.48 108.177C148.956 108.125 147.437 108.092 145.914 107.993Z" fill="#EBEBEB"/>
<path d="M87.7695 109.823C89.2882 109.729 90.8116 109.682 92.335 109.644C93.8584 109.606 95.377 109.592 96.9004 109.588C98.4238 109.583 99.9425 109.588 101.466 109.644L103.749 109.71C104.508 109.748 105.267 109.771 106.031 109.823C105.267 109.88 104.508 109.899 103.749 109.941L101.466 110.007C99.9425 110.05 98.4191 110.054 96.9004 110.059C95.3817 110.064 93.8536 110.059 92.335 110.003C90.8163 109.946 89.2882 109.922 87.7695 109.823Z" fill="#EBEBEB"/>
<path d="M116.752 109.823C118.275 109.729 119.794 109.682 121.317 109.644C122.841 109.606 124.359 109.592 125.883 109.588C127.406 109.583 128.925 109.588 130.448 109.644L132.731 109.71C133.49 109.748 134.254 109.771 135.014 109.823C134.254 109.88 133.49 109.899 132.731 109.941L130.448 110.007C128.925 110.05 127.406 110.054 125.883 110.059C124.359 110.064 122.841 110.059 121.317 110.003C119.794 109.946 118.275 109.922 116.752 109.823Z" fill="#EBEBEB"/>
<path d="M145.914 109.823C147.437 109.729 148.961 109.682 150.48 109.644C151.998 109.606 153.526 109.592 155.045 109.588C156.564 109.583 158.092 109.588 159.61 109.644L161.893 109.71C162.657 109.748 163.416 109.771 164.176 109.823C163.416 109.88 162.657 109.899 161.893 109.941L159.61 110.007C158.092 110.05 156.568 110.054 155.045 110.059C153.522 110.064 152.003 110.059 150.48 110.003C148.956 109.946 147.437 109.922 145.914 109.823Z" fill="#EBEBEB"/>
<path d="M87.7695 114.709C89.2882 114.615 90.8116 114.568 92.335 114.53C93.8584 114.492 95.377 114.483 96.9004 114.473C98.4238 114.464 99.9425 114.473 101.466 114.53L103.749 114.596C104.508 114.634 105.267 114.657 106.031 114.709C105.267 114.766 104.508 114.785 103.749 114.827L101.466 114.893C99.9425 114.936 98.4191 114.94 96.9004 114.945C95.3817 114.95 93.8536 114.945 92.335 114.893C90.8163 114.841 89.2882 114.832 87.7695 114.709Z" fill="#EBEBEB"/>
<path d="M116.752 114.709C118.275 114.615 119.794 114.568 121.317 114.53C122.841 114.492 124.359 114.483 125.883 114.473C127.406 114.464 128.925 114.473 130.448 114.53L132.731 114.596C133.49 114.634 134.254 114.657 135.014 114.709C134.254 114.766 133.49 114.785 132.731 114.827L130.448 114.893C128.925 114.936 127.406 114.94 125.883 114.945C124.359 114.95 122.841 114.945 121.317 114.893C119.794 114.841 118.275 114.832 116.752 114.709Z" fill="#EBEBEB"/>
<path d="M145.914 114.709C147.437 114.615 148.961 114.568 150.48 114.53C151.998 114.492 153.526 114.483 155.045 114.473C156.564 114.464 158.092 114.473 159.61 114.53L161.893 114.596C162.657 114.634 163.416 114.657 164.176 114.709C163.416 114.766 162.657 114.785 161.893 114.827L159.61 114.893C158.092 114.936 156.568 114.94 155.045 114.945C153.522 114.95 152.003 114.945 150.48 114.893C148.956 114.841 147.437 114.832 145.914 114.709Z" fill="#EBEBEB"/>
<path d="M87.7695 116.539C89.2882 116.445 90.8116 116.397 92.335 116.36C93.8584 116.322 95.377 116.308 96.9004 116.303C98.4238 116.298 99.9425 116.303 101.466 116.36L103.749 116.426C104.508 116.464 105.267 116.487 106.031 116.539C105.267 116.596 104.508 116.614 103.749 116.657L101.466 116.723C99.9425 116.765 98.4191 116.77 96.9004 116.775C95.3817 116.78 93.8536 116.775 92.335 116.718C90.8163 116.662 89.2882 116.638 87.7695 116.539Z" fill="#EBEBEB"/>
<path d="M116.752 116.539C118.275 116.445 119.794 116.397 121.317 116.36C122.841 116.322 124.359 116.308 125.883 116.303C127.406 116.298 128.925 116.303 130.448 116.36L132.731 116.426C133.49 116.464 134.254 116.487 135.014 116.539C134.254 116.596 133.49 116.614 132.731 116.657L130.448 116.723C128.925 116.765 127.406 116.77 125.883 116.775C124.359 116.78 122.841 116.775 121.317 116.718C119.794 116.662 118.275 116.638 116.752 116.539Z" fill="#EBEBEB"/>
<path d="M145.914 116.539C147.437 116.445 148.961 116.397 150.48 116.36C151.998 116.322 153.526 116.308 155.045 116.303C156.564 116.298 158.092 116.303 159.61 116.36L161.893 116.426C162.657 116.464 163.416 116.487 164.176 116.539C163.416 116.596 162.657 116.614 161.893 116.657L159.61 116.723C158.092 116.765 156.568 116.77 155.045 116.775C153.522 116.78 152.003 116.775 150.48 116.718C148.956 116.662 147.437 116.638 145.914 116.539Z" fill="#EBEBEB"/>
<path d="M153.275 29.1309H98.4941V45.8315H153.275V29.1309Z" fill="#C7C7C7"/>
<path d="M142.631 20H108.635L107.131 29.1309H144.64L142.631 20ZM125.883 26.5699C125.487 26.5699 125.099 26.4523 124.77 26.2321C124.44 26.0118 124.183 25.6988 124.031 25.3325C123.88 24.9662 123.84 24.5632 123.917 24.1744C123.995 23.7856 124.185 23.4284 124.466 23.1481C124.746 22.8677 125.103 22.6768 125.492 22.5995C125.881 22.5222 126.284 22.5619 126.65 22.7136C127.016 22.8653 127.33 23.1222 127.55 23.4518C127.77 23.7815 127.888 24.169 127.888 24.5654C127.888 25.0971 127.676 25.6069 127.3 25.9828C126.925 26.3587 126.415 26.5699 125.883 26.5699Z" fill="#C7C7C7"/>
<path d="M144.64 29.1308H107.131L107.466 27.0886H144.187L144.64 29.1308Z" fill="#A6A6A6"/>
<path d="M91.3628 63.2988H92.1626V59.0352H93.8454V58.3184H89.6875V59.0352H91.3628V63.2988Z" fill="white"/>
<path d="M99.3919 63.2988L97.8978 61.2463C98.494 61.0123 98.8562 60.4992 98.8562 59.8427C98.8562 58.9447 98.1695 58.3184 97.1658 58.3184H95.3472V63.2988H96.1471V61.3746H97.0602L98.4789 63.2988H99.3919ZM96.1471 59.0277H97.1507C97.7016 59.0277 98.0336 59.3597 98.0336 59.8502C98.0336 60.3332 97.7016 60.6652 97.1507 60.6652H96.1471V59.0277Z" fill="white"/>
<path d="M100.862 63.2988H104.228V62.5819H101.662V61.0048H103.526V60.3105H101.662V59.0352H104.137V58.3184H100.862V63.2988Z" fill="white"/>
<path d="M109.256 63.2988H110.117L107.921 58.2354H107.649L105.453 63.2988H106.306L106.66 62.4688H108.902L109.256 63.2988ZM108.615 61.7821H106.947L107.785 59.7219L108.615 61.7821Z" fill="white"/>
<path d="M112.267 63.2988H113.066V59.0352H114.749V58.3184H110.591V59.0352H112.267V63.2988Z" fill="white"/>
<path d="M120.711 58.2354L118.621 61.0199L116.53 58.2354H116.251V63.2988H117.051V60.1672L118.485 62.0462H118.756L120.183 60.1747V63.2988H120.982V58.2354H120.711Z" fill="white"/>
<path d="M122.99 63.2988H126.355V62.5819H123.789V61.0048H125.653V60.3105H123.789V59.0352H126.265V58.3184H122.99V63.2988Z" fill="white"/>
<path d="M131.346 58.3184V61.6764L128.32 58.2354H128.04V63.2988H128.84V59.9257L131.874 63.3818H132.146V58.3184H131.346Z" fill="white"/>
<path d="M135.33 63.2988H136.129V59.0352H137.812V58.3184H133.654V59.0352H135.33V63.2988Z" fill="white"/>
<path d="M141.808 63.2988H142.608V61.3746H143.626C144.63 61.3746 145.317 60.7331 145.317 59.8427C145.317 58.9447 144.63 58.3184 143.626 58.3184H141.808V63.2988ZM142.608 60.6652V59.0277H143.611C144.177 59.0277 144.494 59.3597 144.494 59.8502C144.494 60.3407 144.177 60.6652 143.611 60.6652H142.608Z" fill="white"/>
<path d="M146.962 63.2988H150.041V62.5819H147.762V58.3184H146.962V63.2988Z" fill="white"/>
<path d="M154.943 63.2988H155.803L153.607 58.2354H153.336L151.14 63.2988H151.993L152.347 62.4688H154.588L154.943 63.2988ZM154.302 61.7821H152.634L153.472 59.7219L154.302 61.7821Z" fill="white"/>
<path d="M160.656 58.3184V61.6764L157.63 58.2354H157.351V63.2988H158.151V59.9257L161.185 63.3818H161.456V58.3184H160.656Z" fill="white"/>
<path d="M221.211 30.6401C221.211 30.6401 217.025 64.1252 210.161 71.6314C201.915 80.6654 195.929 79.34 192.602 84C189.274 79.333 183.289 80.6654 175.036 71.6245C168.172 64.0973 164 30.6331 164 30.6331C182.096 21.8502 192.602 12 192.602 12C192.93 12.3209 203.394 21.9967 221.211 30.6401Z" fill="#37474F"/>
<path d="M192.602 12.0139V84C189.274 79.333 183.289 80.6654 175.036 71.6245C168.172 64.0973 164 30.6331 164 30.6331C182.096 21.8502 192.602 12 192.602 12V12.0139Z" fill="#403E48"/>
<path d="M216.767 33.34C216.767 33.34 213.237 61.6 207.44 67.9622C200.464 75.6359 195.406 74.4848 192.595 78.4263C189.804 74.4918 184.726 75.6359 177.757 67.9622C171.953 61.6 168.43 33.34 168.43 33.34C183.721 25.9104 192.595 17.595 192.595 17.595C192.595 17.595 201.482 25.8825 216.767 33.34Z" fill="#455A64"/>
<path d="M168.438 33.3398C168.438 33.3398 171.967 61.5999 177.771 67.969C184.748 75.6008 189.791 74.4847 192.603 78.4331V17.6018C192.331 17.8599 183.492 26.0289 168.438 33.3398Z" fill="#37474F"/>
<path d="M192.601 59.2209C198.793 59.2209 203.812 54.2018 203.812 48.0104C203.812 41.8189 198.793 36.7998 192.601 36.7998C186.41 36.7998 181.391 41.8189 181.391 48.0104C181.391 54.2018 186.41 59.2209 192.601 59.2209Z" fill="#E9BB55"/>
<path d="M191.325 55.2865L186.33 50.0963L188.186 48.3174L190.934 51.1776L196.864 42.0808L199.02 43.483L191.325 55.2865Z" fill="white"/>
</svg>
