<svg width="205" height="70" viewBox="0 0 205 70" fill="none" xmlns="http://www.w3.org/2000/svg">
<path d="M88.8691 20.3945C88.8691 20.9414 89.0013 21.4518 89.2656 21.9258C89.5391 22.3906 89.8945 22.8008 90.332 23.1562C90.7695 23.5026 91.2708 23.776 91.8359 23.9766C92.401 24.168 92.9798 24.2637 93.5723 24.2637C93.7546 24.2637 93.9414 24.25 94.1328 24.2227C94.3242 24.1862 94.4974 24.127 94.6523 24.0449C94.8073 23.9629 94.9349 23.8581 95.0352 23.7305C95.1354 23.5938 95.1855 23.4251 95.1855 23.2246C95.1855 22.8418 95.0488 22.4635 94.7754 22.0898C94.5111 21.7161 94.1602 21.347 93.7227 20.9824C93.2852 20.6087 92.7839 20.2396 92.2188 19.875C91.6536 19.5013 91.0794 19.1322 90.4961 18.7676C89.9128 18.403 89.3385 18.0384 88.7734 17.6738C88.2083 17.3001 87.707 16.931 87.2695 16.5664C86.832 16.1927 86.4766 15.819 86.2031 15.4453C85.9388 15.0625 85.8066 14.6797 85.8066 14.2969C85.8066 13.9323 85.8978 13.5951 86.0801 13.2852C86.2715 12.9661 86.5221 12.679 86.832 12.4238C87.1419 12.1686 87.502 11.9408 87.9121 11.7402C88.3223 11.5397 88.7507 11.3711 89.1973 11.2344C89.6439 11.0977 90.0905 10.9974 90.5371 10.9336C90.9928 10.8607 91.4258 10.8242 91.8359 10.8242C92.1367 10.8242 92.4648 10.8333 92.8203 10.8516C93.1849 10.8607 93.5221 10.9017 93.832 10.9746C94.151 11.0384 94.4154 11.1387 94.625 11.2754C94.8346 11.4121 94.9395 11.6081 94.9395 11.8633C94.9395 11.9453 94.9258 12.0501 94.8984 12.1777C94.8711 12.2962 94.7936 12.4967 94.666 12.7793C94.5384 13.0436 94.388 13.2441 94.2148 13.3809C94.0508 13.5085 93.8366 13.5723 93.5723 13.5723C93.1986 13.5723 92.8021 13.5312 92.3828 13.4492C91.9727 13.3581 91.5579 13.3125 91.1387 13.3125C90.9108 13.3125 90.6784 13.3262 90.4414 13.3535C90.2135 13.3717 90.0039 13.4128 89.8125 13.4766C89.6211 13.5312 89.4661 13.6178 89.3477 13.7363C89.2292 13.8457 89.1699 13.987 89.1699 14.1602C89.1699 14.3333 89.293 14.5293 89.5391 14.748C89.7943 14.9668 90.127 15.2083 90.5371 15.4727C90.9564 15.737 91.4303 16.0286 91.959 16.3477C92.4876 16.6576 93.0254 16.9948 93.5723 17.3594C94.1283 17.7148 94.6706 18.0977 95.1992 18.5078C95.7279 18.9089 96.1973 19.3372 96.6074 19.793C97.0267 20.2396 97.3594 20.7135 97.6055 21.2148C97.8607 21.7161 97.9883 22.2357 97.9883 22.7734C97.9883 23.4297 97.8379 24.0085 97.5371 24.5098C97.2363 25.0111 96.849 25.4303 96.375 25.7676C95.901 26.1048 95.377 26.3555 94.8027 26.5195C94.2285 26.6927 93.668 26.7793 93.1211 26.7793C92.5651 26.7793 92 26.7109 91.4258 26.5742C90.8607 26.4466 90.3138 26.2598 89.7852 26.0137C89.2565 25.7767 88.7598 25.4896 88.2949 25.1523C87.8392 24.806 87.4427 24.4232 87.1055 24.0039C86.7682 23.5755 86.4993 23.1152 86.2988 22.623C86.1074 22.1309 86.0117 21.6159 86.0117 21.0781C86.0117 20.8503 86.0254 20.6224 86.0527 20.3945C86.0892 20.1576 86.1484 19.9525 86.2305 19.7793C86.3125 19.597 86.4264 19.4512 86.5723 19.3418C86.7181 19.2233 86.9049 19.1641 87.1328 19.1641C87.2057 19.1641 87.2878 19.1732 87.3789 19.1914C87.4701 19.2005 87.6296 19.2415 87.8574 19.3145C88.1217 19.3965 88.3542 19.5286 88.5547 19.7109C88.7643 19.8841 88.8691 20.112 88.8691 20.3945ZM107.709 14.0508C108.21 14.0508 108.693 14.1283 109.158 14.2832C109.623 14.4382 110.033 14.6523 110.389 14.9258C110.744 15.1992 111.027 15.5273 111.236 15.9102C111.455 16.293 111.564 16.7168 111.564 17.1816C111.564 17.373 111.519 17.5599 111.428 17.7422C111.346 17.9154 111.232 18.0703 111.086 18.207C110.94 18.3346 110.771 18.4395 110.58 18.5215C110.398 18.5944 110.206 18.6309 110.006 18.6309C109.988 18.6309 109.969 18.6354 109.951 18.6445C109.942 18.6445 109.928 18.6445 109.91 18.6445C109.892 18.6536 109.874 18.6582 109.855 18.6582L109.91 19.752C109.947 21.0553 110.129 22.0078 110.457 22.6094C110.794 23.2109 111.232 23.5117 111.77 23.5117C111.961 23.5117 112.13 23.4935 112.275 23.457C112.43 23.4206 112.572 23.3796 112.699 23.334C112.836 23.2793 112.964 23.2337 113.082 23.1973C113.201 23.1608 113.319 23.1426 113.438 23.1426C113.647 23.1426 113.829 23.2337 113.984 23.416C114.148 23.5983 114.23 23.8171 114.23 24.0723C114.23 24.3275 114.13 24.5827 113.93 24.8379C113.738 25.0931 113.483 25.3255 113.164 25.5352C112.845 25.7357 112.485 25.8997 112.084 26.0273C111.683 26.1549 111.277 26.2188 110.867 26.2188C110.156 26.2188 109.532 25.9271 108.994 25.3438C108.456 24.7513 108.074 23.8854 107.846 22.7461C107.791 22.5638 107.718 22.4727 107.627 22.4727C107.518 22.4727 107.422 22.5273 107.34 22.6367C106.438 23.776 105.476 24.6328 104.455 25.207C103.434 25.7721 102.427 26.0547 101.434 26.0547C100.969 26.0547 100.549 25.9863 100.176 25.8496C99.8021 25.7129 99.4831 25.5215 99.2188 25.2754C98.9635 25.0202 98.763 24.7148 98.6172 24.3594C98.4805 23.9948 98.4121 23.5892 98.4121 23.1426C98.4121 22.5137 98.5488 21.8529 98.8223 21.1602C99.1048 20.4674 99.4831 19.7839 99.957 19.1094C100.431 18.4349 100.978 17.7923 101.598 17.1816C102.227 16.571 102.883 16.0332 103.566 15.5684C104.259 15.1035 104.961 14.7344 105.672 14.4609C106.383 14.1875 107.062 14.0508 107.709 14.0508ZM107.258 18.7812C107.422 18.4714 107.572 18.248 107.709 18.1113C107.846 17.9655 108.042 17.8698 108.297 17.8242C108.497 17.7969 108.598 17.7331 108.598 17.6328C108.598 17.5599 108.57 17.4824 108.516 17.4004C108.342 17.1634 108.16 16.9583 107.969 16.7852C107.777 16.6029 107.522 16.5117 107.203 16.5117C106.857 16.5117 106.469 16.612 106.041 16.8125C105.613 17.013 105.175 17.2819 104.729 17.6191C104.291 17.9473 103.858 18.3255 103.43 18.7539C103.01 19.1732 102.637 19.6061 102.309 20.0527C101.98 20.4993 101.716 20.9414 101.516 21.3789C101.315 21.8164 101.215 22.2083 101.215 22.5547C101.215 22.8646 101.297 23.1061 101.461 23.2793C101.634 23.4525 101.867 23.5391 102.158 23.5391C102.906 23.5391 103.721 23.1426 104.605 22.3496C105.49 21.5566 106.374 20.3672 107.258 18.7812ZM121.996 15.4453C122.023 15.1901 122.055 14.9805 122.092 14.8164C122.137 14.6432 122.201 14.5065 122.283 14.4062C122.374 14.2969 122.488 14.2194 122.625 14.1738C122.762 14.1283 122.935 14.1055 123.145 14.1055C123.81 14.1055 124.298 14.2057 124.607 14.4062C124.926 14.5977 125.086 14.9076 125.086 15.3359C125.086 15.418 125.068 15.6003 125.031 15.8828C125.004 16.1562 124.963 16.498 124.908 16.9082C124.854 17.3092 124.79 17.7559 124.717 18.248C124.653 18.7311 124.589 19.2233 124.525 19.7246C124.361 20.8913 124.174 22.1992 123.965 23.6484C123.837 24.5052 123.582 25.1204 123.199 25.4941C122.826 25.8678 122.27 26.0547 121.531 26.0547C120.975 26.0547 120.401 25.9134 119.809 25.6309C119.216 25.3483 118.642 24.9655 118.086 24.4824C117.53 23.9993 117.001 23.4388 116.5 22.8008C116.008 22.1536 115.575 21.4701 115.201 20.75C114.827 20.0208 114.531 19.278 114.312 18.5215C114.103 17.765 113.998 17.0267 113.998 16.3066C113.998 15.4954 114.112 14.8893 114.34 14.4883C114.577 14.0781 114.982 13.873 115.557 13.873C115.958 13.873 116.29 13.9004 116.555 13.9551C116.819 14.0007 117.029 14.0872 117.184 14.2148C117.348 14.3333 117.462 14.4928 117.525 14.6934C117.598 14.8939 117.635 15.1445 117.635 15.4453C117.635 15.6458 117.626 15.8464 117.607 16.0469C117.589 16.2474 117.58 16.4479 117.58 16.6484C117.58 17.1133 117.626 17.6009 117.717 18.1113C117.817 18.6126 117.949 19.1048 118.113 19.5879C118.277 20.071 118.469 20.5312 118.688 20.9688C118.906 21.3971 119.139 21.7754 119.385 22.1035C119.631 22.4316 119.877 22.6914 120.123 22.8828C120.378 23.0742 120.624 23.1699 120.861 23.1699C121.025 23.1699 121.148 23.1152 121.23 23.0059C121.322 22.8965 121.381 22.7096 121.408 22.4453L121.996 15.4453ZM138.676 23.0059C138.94 22.778 139.2 22.6641 139.455 22.6641C139.601 22.6641 139.733 22.7005 139.852 22.7734C139.97 22.8464 140.102 22.9603 140.248 23.1152C140.385 23.3249 140.48 23.498 140.535 23.6348C140.599 23.7624 140.631 23.89 140.631 24.0176C140.631 24.291 140.494 24.5508 140.221 24.7969C139.783 25.1615 139.309 25.4896 138.799 25.7812C138.288 26.0638 137.755 26.3053 137.199 26.5059C136.643 26.7064 136.069 26.8568 135.477 26.957C134.884 27.0664 134.296 27.1211 133.713 27.1211C132.975 27.1211 132.282 27.0254 131.635 26.834C130.988 26.6517 130.409 26.3874 129.898 26.041C129.397 25.6947 128.973 25.2799 128.627 24.7969C128.281 24.3047 128.035 23.7533 127.889 23.1426C127.807 22.8874 127.729 22.7233 127.656 22.6504C127.592 22.5684 127.483 22.5273 127.328 22.5273C126.991 22.5273 126.731 22.4453 126.549 22.2812C126.367 22.1172 126.275 21.8802 126.275 21.5703C126.275 21.4427 126.285 21.3607 126.303 21.3242L126.33 21.0508C126.376 20.7227 126.462 20.4857 126.59 20.3398C126.727 20.194 126.936 20.1211 127.219 20.1211H127.424C127.807 20.1211 128.076 19.9434 128.23 19.5879C128.513 18.959 128.873 18.3848 129.311 17.8652C129.748 17.3457 130.24 16.9036 130.787 16.5391C131.334 16.1654 131.917 15.8783 132.537 15.6777C133.166 15.4681 133.804 15.3633 134.451 15.3633C135.126 15.3633 135.755 15.4635 136.338 15.6641C136.93 15.8555 137.445 16.1243 137.883 16.4707C138.32 16.8171 138.662 17.2227 138.908 17.6875C139.163 18.1523 139.291 18.6536 139.291 19.1914C139.291 19.5651 139.218 19.9069 139.072 20.2168C138.926 20.5267 138.717 20.8001 138.443 21.0371C138.17 21.265 137.837 21.4518 137.445 21.5977C137.062 21.7435 136.625 21.8392 136.133 21.8848L131.389 22.3633C131.206 22.3633 131.056 22.4089 130.938 22.5C130.828 22.5911 130.773 22.7142 130.773 22.8691C130.773 23.1061 130.86 23.334 131.033 23.5527C131.215 23.7715 131.452 23.9674 131.744 24.1406C132.045 24.3047 132.387 24.4368 132.77 24.5371C133.161 24.6374 133.562 24.6875 133.973 24.6875C134.365 24.6875 134.766 24.651 135.176 24.5781C135.595 24.4961 136.005 24.3822 136.406 24.2363C136.816 24.0905 137.213 23.9173 137.596 23.7168C137.979 23.5072 138.339 23.2702 138.676 23.0059ZM135.627 19.4785C135.764 19.4512 135.882 19.3874 135.982 19.2871C136.083 19.1777 136.133 19.0456 136.133 18.8906C136.133 18.7539 136.083 18.6263 135.982 18.5078C135.882 18.3893 135.745 18.2845 135.572 18.1934C135.399 18.0931 135.199 18.0156 134.971 17.9609C134.743 17.9062 134.501 17.8789 134.246 17.8789C133.872 17.8789 133.49 17.9336 133.098 18.043C132.706 18.1523 132.35 18.2982 132.031 18.4805C131.712 18.6536 131.452 18.8496 131.252 19.0684C131.051 19.278 130.951 19.4876 130.951 19.6973C130.951 19.9069 131.079 20.0117 131.334 20.0117C131.489 20.0117 131.74 19.9935 132.086 19.957C132.432 19.9206 132.815 19.8796 133.234 19.834C133.654 19.7793 134.077 19.7201 134.506 19.6562C134.934 19.5924 135.308 19.5332 135.627 19.4785ZM152.594 19.9023C152.53 19.9206 152.471 19.9342 152.416 19.9434C152.361 19.9525 152.307 19.957 152.252 19.957C151.969 19.957 151.751 19.8704 151.596 19.6973C151.441 19.5241 151.34 19.2826 151.295 18.9727L151.213 18.4121C151.213 18.3665 151.208 18.3255 151.199 18.2891C151.19 18.2526 151.186 18.2207 151.186 18.1934C151.186 17.929 151.245 17.7194 151.363 17.5645C151.491 17.4004 151.65 17.2773 151.842 17.1953C152.042 17.1042 152.266 17.0449 152.512 17.0176C152.758 16.9811 153.008 16.9583 153.264 16.9492C153.811 16.931 154.253 16.7806 154.59 16.498C154.936 16.2064 155.109 15.7598 155.109 15.1582C155.109 14.821 155.018 14.5384 154.836 14.3105C154.654 14.0736 154.421 13.8822 154.139 13.7363C153.865 13.5905 153.56 13.4857 153.223 13.4219C152.895 13.349 152.58 13.3125 152.279 13.3125C151.66 13.3125 151.099 13.4219 150.598 13.6406C150.096 13.8503 149.622 14.1237 149.176 14.4609C148.884 14.6706 148.629 14.7754 148.41 14.7754C148.255 14.7754 148.109 14.7344 147.973 14.6523C147.836 14.5703 147.686 14.4245 147.521 14.2148C147.312 13.9323 147.171 13.7181 147.098 13.5723C147.025 13.4173 146.988 13.276 146.988 13.1484C146.988 12.9479 147.07 12.752 147.234 12.5605C147.408 12.36 147.635 12.1732 147.918 12C148.21 11.8268 148.547 11.6673 148.93 11.5215C149.312 11.3757 149.714 11.2526 150.133 11.1523C150.561 11.0521 150.994 10.9746 151.432 10.9199C151.878 10.8561 152.311 10.8242 152.73 10.8242C153.505 10.8242 154.207 10.9199 154.836 11.1113C155.474 11.3027 156.016 11.5716 156.463 11.918C156.91 12.2643 157.251 12.6836 157.488 13.1758C157.734 13.6589 157.857 14.1921 157.857 14.7754C157.857 15.1126 157.807 15.4453 157.707 15.7734C157.616 16.1016 157.461 16.4206 157.242 16.7305C157.105 16.9128 157.037 17.054 157.037 17.1543C157.037 17.3092 157.169 17.4505 157.434 17.5781C157.935 17.8151 158.368 18.1022 158.732 18.4395C159.097 18.7676 159.393 19.1367 159.621 19.5469C159.858 19.9479 160.031 20.3809 160.141 20.8457C160.259 21.3014 160.318 21.7708 160.318 22.2539C160.318 22.9922 160.159 23.6484 159.84 24.2227C159.521 24.7878 159.097 25.2663 158.568 25.6582C158.04 26.041 157.434 26.3327 156.75 26.5332C156.076 26.7337 155.378 26.834 154.658 26.834C154.02 26.834 153.41 26.752 152.826 26.5879C152.252 26.4329 151.728 26.2005 151.254 25.8906C150.789 25.5716 150.388 25.1888 150.051 24.7422C149.714 24.2865 149.467 23.7624 149.312 23.1699C149.294 23.1152 149.281 23.056 149.271 22.9922C149.262 22.9284 149.258 22.8691 149.258 22.8145C149.258 22.5592 149.349 22.3587 149.531 22.2129C149.714 22.0671 149.951 21.9941 150.242 21.9941L151.131 22.0762C151.468 22.1217 151.714 22.2311 151.869 22.4043C152.024 22.5684 152.17 22.8053 152.307 23.1152C152.416 23.3704 152.571 23.5755 152.771 23.7305C152.972 23.8854 153.195 24.0039 153.441 24.0859C153.697 24.168 153.961 24.2227 154.234 24.25C154.517 24.2773 154.79 24.291 155.055 24.291C155.419 24.291 155.757 24.2546 156.066 24.1816C156.376 24.1087 156.641 23.9948 156.859 23.8398C157.087 23.6849 157.26 23.4798 157.379 23.2246C157.507 22.9694 157.57 22.6549 157.57 22.2812C157.57 21.8438 157.479 21.4518 157.297 21.1055C157.124 20.7591 156.896 20.4629 156.613 20.2168C156.331 19.9707 156.012 19.7839 155.656 19.6562C155.301 19.5195 154.941 19.4512 154.576 19.4512C154.266 19.4512 153.943 19.5059 153.605 19.6152C153.268 19.7155 152.931 19.8112 152.594 19.9023ZM167.141 19.9023C167.077 19.9206 167.018 19.9342 166.963 19.9434C166.908 19.9525 166.854 19.957 166.799 19.957C166.516 19.957 166.298 19.8704 166.143 19.6973C165.988 19.5241 165.887 19.2826 165.842 18.9727L165.76 18.4121C165.76 18.3665 165.755 18.3255 165.746 18.2891C165.737 18.2526 165.732 18.2207 165.732 18.1934C165.732 17.929 165.792 17.7194 165.91 17.5645C166.038 17.4004 166.197 17.2773 166.389 17.1953C166.589 17.1042 166.812 17.0449 167.059 17.0176C167.305 16.9811 167.555 16.9583 167.811 16.9492C168.357 16.931 168.799 16.7806 169.137 16.498C169.483 16.2064 169.656 15.7598 169.656 15.1582C169.656 14.821 169.565 14.5384 169.383 14.3105C169.201 14.0736 168.968 13.8822 168.686 13.7363C168.412 13.5905 168.107 13.4857 167.77 13.4219C167.441 13.349 167.127 13.3125 166.826 13.3125C166.206 13.3125 165.646 13.4219 165.145 13.6406C164.643 13.8503 164.169 14.1237 163.723 14.4609C163.431 14.6706 163.176 14.7754 162.957 14.7754C162.802 14.7754 162.656 14.7344 162.52 14.6523C162.383 14.5703 162.232 14.4245 162.068 14.2148C161.859 13.9323 161.717 13.7181 161.645 13.5723C161.572 13.4173 161.535 13.276 161.535 13.1484C161.535 12.9479 161.617 12.752 161.781 12.5605C161.954 12.36 162.182 12.1732 162.465 12C162.757 11.8268 163.094 11.6673 163.477 11.5215C163.859 11.3757 164.26 11.2526 164.68 11.1523C165.108 11.0521 165.541 10.9746 165.979 10.9199C166.425 10.8561 166.858 10.8242 167.277 10.8242C168.052 10.8242 168.754 10.9199 169.383 11.1113C170.021 11.3027 170.563 11.5716 171.01 11.918C171.456 12.2643 171.798 12.6836 172.035 13.1758C172.281 13.6589 172.404 14.1921 172.404 14.7754C172.404 15.1126 172.354 15.4453 172.254 15.7734C172.163 16.1016 172.008 16.4206 171.789 16.7305C171.652 16.9128 171.584 17.054 171.584 17.1543C171.584 17.3092 171.716 17.4505 171.98 17.5781C172.482 17.8151 172.915 18.1022 173.279 18.4395C173.644 18.7676 173.94 19.1367 174.168 19.5469C174.405 19.9479 174.578 20.3809 174.688 20.8457C174.806 21.3014 174.865 21.7708 174.865 22.2539C174.865 22.9922 174.706 23.6484 174.387 24.2227C174.068 24.7878 173.644 25.2663 173.115 25.6582C172.587 26.041 171.98 26.3327 171.297 26.5332C170.622 26.7337 169.925 26.834 169.205 26.834C168.567 26.834 167.956 26.752 167.373 26.5879C166.799 26.4329 166.275 26.2005 165.801 25.8906C165.336 25.5716 164.935 25.1888 164.598 24.7422C164.26 24.2865 164.014 23.7624 163.859 23.1699C163.841 23.1152 163.827 23.056 163.818 22.9922C163.809 22.9284 163.805 22.8691 163.805 22.8145C163.805 22.5592 163.896 22.3587 164.078 22.2129C164.26 22.0671 164.497 21.9941 164.789 21.9941L165.678 22.0762C166.015 22.1217 166.261 22.2311 166.416 22.4043C166.571 22.5684 166.717 22.8053 166.854 23.1152C166.963 23.3704 167.118 23.5755 167.318 23.7305C167.519 23.8854 167.742 24.0039 167.988 24.0859C168.243 24.168 168.508 24.2227 168.781 24.25C169.064 24.2773 169.337 24.291 169.602 24.291C169.966 24.291 170.303 24.2546 170.613 24.1816C170.923 24.1087 171.188 23.9948 171.406 23.8398C171.634 23.6849 171.807 23.4798 171.926 23.2246C172.053 22.9694 172.117 22.6549 172.117 22.2812C172.117 21.8438 172.026 21.4518 171.844 21.1055C171.671 20.7591 171.443 20.4629 171.16 20.2168C170.878 19.9707 170.559 19.7839 170.203 19.6562C169.848 19.5195 169.488 19.4512 169.123 19.4512C168.813 19.4512 168.49 19.5059 168.152 19.6152C167.815 19.7155 167.478 19.8112 167.141 19.9023ZM185.748 11.0156C185.83 10.7604 185.949 10.5736 186.104 10.4551C186.258 10.3275 186.436 10.2637 186.637 10.2637C186.719 10.2637 186.805 10.2728 186.896 10.291C186.997 10.3092 187.097 10.3457 187.197 10.4004L187.703 10.6602C187.94 10.7695 188.113 10.9062 188.223 11.0703C188.341 11.2344 188.4 11.4212 188.4 11.6309C188.4 11.7858 188.373 11.9453 188.318 12.1094C187.972 13.1393 187.621 14.1556 187.266 15.1582C186.91 16.1608 186.541 17.1725 186.158 18.1934C186.104 18.3301 186.076 18.4486 186.076 18.5488C186.076 18.7038 186.14 18.7812 186.268 18.7812C186.395 18.7812 186.546 18.7129 186.719 18.5762C187.202 18.2572 187.717 18.0065 188.264 17.8242C188.82 17.6419 189.38 17.5508 189.945 17.5508C190.574 17.5508 191.121 17.6738 191.586 17.9199C192.06 18.1569 192.452 18.4714 192.762 18.8633C193.072 19.2552 193.304 19.7018 193.459 20.2031C193.614 20.7044 193.691 21.2194 193.691 21.748C193.691 22.4408 193.568 23.0742 193.322 23.6484C193.076 24.2227 192.739 24.7194 192.311 25.1387C191.891 25.5488 191.404 25.8678 190.848 26.0957C190.292 26.3327 189.708 26.4512 189.098 26.4512C188.56 26.4512 188.054 26.3464 187.58 26.1367C187.106 25.9271 186.691 25.6354 186.336 25.2617C185.98 24.8789 185.698 24.4323 185.488 23.9219C185.288 23.4023 185.188 22.8372 185.188 22.2266C185.188 22.0443 185.197 21.8574 185.215 21.666C185.242 21.4746 185.27 21.2878 185.297 21.1055L185.406 20.4219L185.324 20.3945C184.75 21.9805 184.176 23.5527 183.602 25.1113C183.027 26.6699 182.471 28.2467 181.934 29.8418C181.77 30.3431 181.469 30.5938 181.031 30.5938C180.949 30.5938 180.858 30.5846 180.758 30.5664C180.667 30.5482 180.562 30.5117 180.443 30.457L179.951 30.1973C179.495 29.9785 179.268 29.6549 179.268 29.2266C179.268 29.0625 179.299 28.903 179.363 28.748C179.883 27.2077 180.416 25.6855 180.963 24.1816C181.51 22.6777 182.066 21.1647 182.631 19.6426C182.658 19.5605 182.681 19.4876 182.699 19.4238C182.727 19.3509 182.74 19.2917 182.74 19.2461C182.74 19.1549 182.695 19.1094 182.604 19.1094C182.503 19.1094 182.353 19.1641 182.152 19.2734C181.842 19.4557 181.51 19.597 181.154 19.6973C180.808 19.7884 180.452 19.834 180.088 19.834C179.614 19.834 179.181 19.7474 178.789 19.5742C178.397 19.3919 178.06 19.1458 177.777 18.8359C177.504 18.526 177.29 18.1615 177.135 17.7422C176.989 17.3138 176.916 16.8535 176.916 16.3613C176.916 16.1243 176.934 15.901 176.971 15.6914C177.007 15.4727 177.048 15.2767 177.094 15.1035C177.148 14.9212 177.199 14.7663 177.244 14.6387C177.299 14.5111 177.34 14.4154 177.367 14.3516C177.422 14.224 177.458 14.1237 177.477 14.0508C177.495 13.9688 177.504 13.9004 177.504 13.8457C177.504 13.8001 177.495 13.7682 177.477 13.75C177.458 13.7318 177.449 13.6999 177.449 13.6543C177.449 13.5996 177.486 13.5267 177.559 13.4355C177.632 13.3353 177.745 13.2305 177.9 13.1211C178.283 12.8568 178.684 12.6562 179.104 12.5195C179.532 12.3828 179.951 12.3145 180.361 12.3145C180.826 12.3145 181.268 12.3965 181.688 12.5605C182.116 12.7155 182.49 12.9479 182.809 13.2578C183.137 13.5677 183.396 13.9505 183.588 14.4062C183.788 14.862 183.889 15.3861 183.889 15.9785C183.889 15.9967 183.916 15.9375 183.971 15.8008C184.035 15.6641 184.107 15.4954 184.189 15.2949C184.281 15.0853 184.372 14.8665 184.463 14.6387C184.554 14.4108 184.627 14.2148 184.682 14.0508C184.864 13.5404 185.042 13.0345 185.215 12.5332C185.397 12.0319 185.575 11.526 185.748 11.0156ZM189.549 24.1816C189.831 24.1816 190.077 24.1178 190.287 23.9902C190.506 23.8535 190.684 23.6803 190.82 23.4707C190.957 23.2611 191.057 23.0241 191.121 22.7598C191.194 22.4954 191.23 22.2311 191.23 21.9668C191.23 21.6478 191.176 21.3607 191.066 21.1055C190.966 20.8411 190.825 20.6178 190.643 20.4355C190.469 20.2533 190.264 20.112 190.027 20.0117C189.79 19.9115 189.54 19.8613 189.275 19.8613C189.148 19.8613 189.007 19.875 188.852 19.9023C188.706 19.9297 188.56 19.9753 188.414 20.0391C188.277 20.0938 188.15 20.1667 188.031 20.2578C187.922 20.349 187.849 20.4538 187.812 20.5723C187.849 20.6452 187.867 20.6999 187.867 20.7363C187.867 20.791 187.858 20.8594 187.84 20.9414C187.822 21.0234 187.803 21.1237 187.785 21.2422C187.767 21.3242 187.753 21.4108 187.744 21.502C187.735 21.584 187.73 21.6842 187.73 21.8027C187.73 22.0671 187.767 22.3405 187.84 22.623C187.922 22.9056 188.04 23.1654 188.195 23.4023C188.35 23.6302 188.542 23.8171 188.77 23.9629C188.997 24.1087 189.257 24.1816 189.549 24.1816ZM179.473 15.8965C179.473 16.0605 179.491 16.2428 179.527 16.4434C179.564 16.6348 179.623 16.8171 179.705 16.9902C179.787 17.1634 179.901 17.3092 180.047 17.4277C180.193 17.5462 180.375 17.6055 180.594 17.6055C180.849 17.6055 181.045 17.4824 181.182 17.2363C181.327 16.9811 181.4 16.6895 181.4 16.3613C181.4 16.1608 181.368 15.9603 181.305 15.7598C181.25 15.5592 181.163 15.3815 181.045 15.2266C180.926 15.0716 180.776 14.944 180.594 14.8438C180.411 14.7435 180.197 14.6934 179.951 14.6934C179.851 14.6934 179.769 14.7389 179.705 14.8301C179.641 14.9212 179.591 15.0306 179.555 15.1582C179.527 15.2858 179.505 15.418 179.486 15.5547C179.477 15.6914 179.473 15.8053 179.473 15.8965ZM84.8086 49.457C84.8086 49.1016 84.9681 48.8327 85.2871 48.6504C85.6061 48.459 86.0618 48.3633 86.6543 48.3633C86.791 48.3633 86.9141 48.3815 87.0234 48.418C87.1328 48.4544 87.2285 48.5273 87.3105 48.6367C87.4017 48.737 87.4837 48.8783 87.5566 49.0605C87.6296 49.2428 87.7025 49.4753 87.7754 49.7578C87.8483 50.0768 87.9212 50.2363 87.9941 50.2363C88.0579 50.2363 88.1354 50.1042 88.2266 49.8398C88.3906 49.3203 88.6048 48.8691 88.8691 48.4863C89.1426 48.0944 89.4479 47.7708 89.7852 47.5156C90.1224 47.2513 90.487 47.0553 90.8789 46.9277C91.2799 46.8001 91.6992 46.7363 92.1367 46.7363C93.0208 46.7363 93.8457 46.9049 94.6113 47.2422C95.377 47.5703 96.0378 48.0306 96.5938 48.623C97.1497 49.2064 97.5872 49.8991 97.9062 50.7012C98.2253 51.4941 98.3848 52.3555 98.3848 53.2852C98.3848 54.2695 98.2116 55.181 97.8652 56.0195C97.528 56.8581 97.054 57.5827 96.4434 58.1934C95.8327 58.7949 95.1035 59.2643 94.2559 59.6016C93.4173 59.9479 92.4967 60.1211 91.4941 60.1211L90.7969 60.0938C90.3867 60.0938 90.1816 60.3262 90.1816 60.791L90.8789 67.0664C90.8698 67.2214 90.8151 67.3626 90.7148 67.4902C90.6237 67.627 90.4961 67.7454 90.332 67.8457C90.1771 67.946 89.9902 68.0234 89.7715 68.0781C89.5618 68.1328 89.3431 68.1602 89.1152 68.1602C88.459 68.1602 88.1035 67.946 88.0488 67.5176C87.8574 65.8587 87.6432 64.2819 87.4062 62.7871C87.1784 61.2923 86.9414 59.9023 86.6953 58.6172C86.4583 57.3229 86.2259 56.1471 85.998 55.0898C85.7702 54.0326 85.5651 53.112 85.3828 52.3281C85.2096 51.5443 85.0729 50.9062 84.9727 50.4141C84.8633 49.9219 84.8086 49.6029 84.8086 49.457ZM89.252 53.0664C89.252 53.6589 89.2747 54.2467 89.3203 54.8301C89.3659 55.4043 89.4388 56.0286 89.5391 56.7031C89.5938 57.1133 89.8171 57.3457 90.209 57.4004C90.446 57.4551 90.7103 57.5098 91.002 57.5645C91.3027 57.61 91.5534 57.6328 91.7539 57.6328C92.3372 57.6328 92.8659 57.5462 93.3398 57.373C93.8138 57.1999 94.2194 56.9538 94.5566 56.6348C94.8939 56.3066 95.1536 55.9193 95.3359 55.4727C95.5182 55.026 95.6094 54.5293 95.6094 53.9824C95.6094 53.3171 95.5182 52.6973 95.3359 52.123C95.1536 51.5397 94.903 51.0339 94.584 50.6055C94.2741 50.1771 93.9049 49.8398 93.4766 49.5938C93.0573 49.3477 92.6016 49.2246 92.1094 49.2246C91.681 49.2246 91.2891 49.3203 90.9336 49.5117C90.5872 49.694 90.2865 49.9538 90.0312 50.291C89.7852 50.6191 89.5938 51.0202 89.457 51.4941C89.3203 51.9681 89.252 52.4922 89.252 53.0664ZM111.551 56.0059C111.815 55.778 112.075 55.6641 112.33 55.6641C112.476 55.6641 112.608 55.7005 112.727 55.7734C112.845 55.8464 112.977 55.9603 113.123 56.1152C113.26 56.3249 113.355 56.498 113.41 56.6348C113.474 56.7624 113.506 56.89 113.506 57.0176C113.506 57.291 113.369 57.5508 113.096 57.7969C112.658 58.1615 112.184 58.4896 111.674 58.7812C111.163 59.0638 110.63 59.3053 110.074 59.5059C109.518 59.7064 108.944 59.8568 108.352 59.957C107.759 60.0664 107.171 60.1211 106.588 60.1211C105.85 60.1211 105.157 60.0254 104.51 59.834C103.863 59.6517 103.284 59.3874 102.773 59.041C102.272 58.6947 101.848 58.2799 101.502 57.7969C101.156 57.3047 100.91 56.7533 100.764 56.1426C100.682 55.8874 100.604 55.7233 100.531 55.6504C100.467 55.5684 100.358 55.5273 100.203 55.5273C99.8659 55.5273 99.6061 55.4453 99.4238 55.2812C99.2415 55.1172 99.1504 54.8802 99.1504 54.5703C99.1504 54.4427 99.1595 54.3607 99.1777 54.3242L99.2051 54.0508C99.2507 53.7227 99.3372 53.4857 99.4648 53.3398C99.6016 53.194 99.8112 53.1211 100.094 53.1211H100.299C100.682 53.1211 100.951 52.9434 101.105 52.5879C101.388 51.959 101.748 51.3848 102.186 50.8652C102.623 50.3457 103.115 49.9036 103.662 49.5391C104.209 49.1654 104.792 48.8783 105.412 48.6777C106.041 48.4681 106.679 48.3633 107.326 48.3633C108.001 48.3633 108.63 48.4635 109.213 48.6641C109.805 48.8555 110.32 49.1243 110.758 49.4707C111.195 49.8171 111.537 50.2227 111.783 50.6875C112.038 51.1523 112.166 51.6536 112.166 52.1914C112.166 52.5651 112.093 52.9069 111.947 53.2168C111.801 53.5267 111.592 53.8001 111.318 54.0371C111.045 54.265 110.712 54.4518 110.32 54.5977C109.938 54.7435 109.5 54.8392 109.008 54.8848L104.264 55.3633C104.081 55.3633 103.931 55.4089 103.812 55.5C103.703 55.5911 103.648 55.7142 103.648 55.8691C103.648 56.1061 103.735 56.334 103.908 56.5527C104.09 56.7715 104.327 56.9674 104.619 57.1406C104.92 57.3047 105.262 57.4368 105.645 57.5371C106.036 57.6374 106.438 57.6875 106.848 57.6875C107.24 57.6875 107.641 57.651 108.051 57.5781C108.47 57.4961 108.88 57.3822 109.281 57.2363C109.691 57.0905 110.088 56.9173 110.471 56.7168C110.854 56.5072 111.214 56.2702 111.551 56.0059ZM108.502 52.4785C108.639 52.4512 108.757 52.3874 108.857 52.2871C108.958 52.1777 109.008 52.0456 109.008 51.8906C109.008 51.7539 108.958 51.6263 108.857 51.5078C108.757 51.3893 108.62 51.2845 108.447 51.1934C108.274 51.0931 108.074 51.0156 107.846 50.9609C107.618 50.9062 107.376 50.8789 107.121 50.8789C106.747 50.8789 106.365 50.9336 105.973 51.043C105.581 51.1523 105.225 51.2982 104.906 51.4805C104.587 51.6536 104.327 51.8496 104.127 52.0684C103.926 52.278 103.826 52.4876 103.826 52.6973C103.826 52.9069 103.954 53.0117 104.209 53.0117C104.364 53.0117 104.615 52.9935 104.961 52.957C105.307 52.9206 105.69 52.8796 106.109 52.834C106.529 52.7793 106.952 52.7201 107.381 52.6562C107.809 52.5924 108.183 52.5332 108.502 52.4785ZM121.791 48.7734C121.454 48.7734 121.158 48.8646 120.902 49.0469C120.647 49.2201 120.428 49.4661 120.246 49.7852C120.064 50.0951 119.913 50.4642 119.795 50.8926C119.676 51.3118 119.581 51.7721 119.508 52.2734C119.435 52.7747 119.385 53.2988 119.357 53.8457C119.33 54.3926 119.316 54.944 119.316 55.5C119.316 56.2292 119.344 56.9492 119.398 57.6602C119.462 58.362 119.494 59.0137 119.494 59.6152C119.494 60.0072 119.348 60.3125 119.057 60.5312C118.765 60.7591 118.35 60.873 117.812 60.873C117.712 60.873 117.598 60.8639 117.471 60.8457C117.343 60.8275 117.22 60.791 117.102 60.7363C116.992 60.6816 116.892 60.6042 116.801 60.5039C116.719 60.4128 116.673 60.2852 116.664 60.1211C116.582 59.319 116.464 58.4987 116.309 57.6602C116.154 56.8216 115.958 55.9876 115.721 55.1582C115.493 54.3197 115.215 53.4902 114.887 52.6699C114.568 51.8496 114.199 51.0475 113.779 50.2637C113.706 50.127 113.643 49.9993 113.588 49.8809C113.542 49.7624 113.52 49.6484 113.52 49.5391C113.52 49.4023 113.579 49.2565 113.697 49.1016C113.825 48.9375 113.98 48.7871 114.162 48.6504C114.354 48.5137 114.559 48.4043 114.777 48.3223C115.005 48.2311 115.224 48.1855 115.434 48.1855C115.78 48.1855 116.085 48.4271 116.35 48.9102C116.614 49.3841 116.86 50.1452 117.088 51.1934C117.133 51.3757 117.17 51.5033 117.197 51.5762C117.225 51.6491 117.261 51.6855 117.307 51.6855C117.407 51.6855 117.471 51.5306 117.498 51.2207C117.607 50.3548 117.794 49.612 118.059 48.9922C118.323 48.3633 118.651 47.8483 119.043 47.4473C119.444 47.0371 119.9 46.7363 120.41 46.5449C120.93 46.3535 121.499 46.2578 122.119 46.2578C122.475 46.2578 122.835 46.2897 123.199 46.3535C123.564 46.4173 123.892 46.513 124.184 46.6406C124.475 46.7682 124.712 46.9232 124.895 47.1055C125.077 47.2878 125.168 47.4928 125.168 47.7207C125.168 47.8848 125.132 48.0807 125.059 48.3086C124.995 48.5273 124.908 48.7415 124.799 48.9512C124.689 49.1517 124.562 49.3249 124.416 49.4707C124.279 49.6074 124.138 49.6758 123.992 49.6758C123.828 49.6758 123.669 49.6302 123.514 49.5391C123.359 49.4388 123.19 49.334 123.008 49.2246C122.835 49.1152 122.648 49.015 122.447 48.9238C122.256 48.8236 122.037 48.7734 121.791 48.7734ZM132.168 59.5879C132.104 58.3757 131.999 57.2591 131.854 56.2383C131.717 55.2083 131.571 54.3105 131.416 53.5449C131.27 52.7793 131.138 52.1595 131.02 51.6855C130.91 51.2116 130.855 50.9154 130.855 50.7969C130.855 50.6237 130.919 50.4551 131.047 50.291C131.184 50.127 131.352 49.9857 131.553 49.8672C131.753 49.7396 131.967 49.6393 132.195 49.5664C132.432 49.4935 132.646 49.457 132.838 49.457C132.993 49.457 133.125 49.4844 133.234 49.5391C133.353 49.5938 133.435 49.6849 133.48 49.8125C133.526 49.9674 133.567 50.1315 133.604 50.3047C133.649 50.4688 133.695 50.6693 133.74 50.9062C133.795 51.2435 133.868 51.4121 133.959 51.4121C134.059 51.4121 134.173 51.2617 134.301 50.9609C134.483 50.5417 134.679 50.1953 134.889 49.9219C135.098 49.6484 135.322 49.4342 135.559 49.2793C135.805 49.1152 136.055 49.0013 136.311 48.9375C136.575 48.8737 136.848 48.8418 137.131 48.8418C137.988 48.8418 138.712 49.179 139.305 49.8535C139.906 50.528 140.376 51.5033 140.713 52.7793C140.758 52.9251 140.799 53.0208 140.836 53.0664C140.872 53.1029 140.913 53.1211 140.959 53.1211C141.005 53.1211 141.05 53.1029 141.096 53.0664C141.15 53.0208 141.201 52.9342 141.246 52.8066C141.465 52.2142 141.72 51.7129 142.012 51.3027C142.303 50.8835 142.604 50.5462 142.914 50.291C143.233 50.0267 143.557 49.8353 143.885 49.7168C144.213 49.5983 144.527 49.5391 144.828 49.5391C145.384 49.5391 145.885 49.7441 146.332 50.1543C146.788 50.5553 147.189 51.1797 147.535 52.0273C147.891 52.8659 148.196 53.9323 148.451 55.2266C148.715 56.5117 148.934 58.0384 149.107 59.8066C149.107 60.2988 148.957 60.6406 148.656 60.832C148.355 61.0326 147.945 61.1328 147.426 61.1328C147.089 61.1328 146.824 61.0599 146.633 60.9141C146.441 60.7682 146.332 60.5768 146.305 60.3398C146.186 59.0729 146.054 57.9473 145.908 56.9629C145.771 55.9694 145.621 55.1354 145.457 54.4609C145.293 53.7773 145.111 53.2578 144.91 52.9023C144.719 52.5469 144.505 52.3691 144.268 52.3691C144.149 52.3691 143.999 52.4557 143.816 52.6289C143.643 52.8021 143.456 53.1211 143.256 53.5859C143.055 54.0417 142.846 54.6706 142.627 55.4727C142.408 56.2656 142.199 57.2819 141.998 58.5215C141.943 58.8678 141.775 59.1322 141.492 59.3145C141.219 59.4967 140.882 59.5879 140.48 59.5879C140.016 59.5879 139.692 59.515 139.51 59.3691C139.337 59.2233 139.241 58.9772 139.223 58.6309C139.186 58.0293 139.122 57.4323 139.031 56.8398C138.949 56.2383 138.844 55.6686 138.717 55.1309C138.589 54.584 138.448 54.0827 138.293 53.627C138.138 53.1621 137.974 52.7611 137.801 52.4238C137.628 52.0775 137.45 51.8086 137.268 51.6172C137.085 51.4258 136.908 51.3301 136.734 51.3301C136.507 51.3301 136.283 51.4896 136.064 51.8086C135.855 52.1276 135.663 52.5788 135.49 53.1621C135.326 53.7454 135.194 54.4473 135.094 55.2676C134.993 56.0879 134.943 57.0039 134.943 58.0156C134.943 58.1888 134.948 58.362 134.957 58.5352C134.966 58.6992 134.971 58.8724 134.971 59.0547C134.971 59.3281 134.925 59.5514 134.834 59.7246C134.752 59.8978 134.629 60.0345 134.465 60.1348C134.31 60.235 134.128 60.3034 133.918 60.3398C133.708 60.3763 133.48 60.3945 133.234 60.3945C133.007 60.3945 132.824 60.3763 132.688 60.3398C132.551 60.3125 132.446 60.2669 132.373 60.2031C132.3 60.1393 132.25 60.0527 132.223 59.9434C132.195 59.8431 132.177 59.7246 132.168 59.5879ZM151.008 54.4609C151.008 54.306 151.026 54.1328 151.062 53.9414C151.099 53.75 151.117 53.5404 151.117 53.3125C151.117 53.1576 151.049 53.0391 150.912 52.957C150.785 52.875 150.639 52.7839 150.475 52.6836C150.311 52.5833 150.16 52.4557 150.023 52.3008C149.896 52.1458 149.832 51.9225 149.832 51.6309C149.832 51.4212 149.887 51.2116 149.996 51.002C150.115 50.7923 150.283 50.6009 150.502 50.4277C151.04 50.0267 151.596 49.6667 152.17 49.3477C152.753 49.0286 153.332 48.7598 153.906 48.541C154.49 48.3223 155.064 48.1536 155.629 48.0352C156.194 47.9167 156.736 47.8574 157.256 47.8574C158.131 47.8574 158.951 48.0215 159.717 48.3496C160.492 48.6686 161.161 49.1107 161.727 49.6758C162.301 50.2318 162.752 50.888 163.08 51.6445C163.417 52.3919 163.586 53.194 163.586 54.0508C163.586 54.8893 163.408 55.6868 163.053 56.4434C162.706 57.1908 162.237 57.847 161.645 58.4121C161.052 58.9772 160.355 59.4238 159.553 59.752C158.76 60.0892 157.921 60.2578 157.037 60.2578C156.171 60.2578 155.369 60.112 154.631 59.8203C153.893 59.5286 153.255 59.1276 152.717 58.6172C152.179 58.0977 151.76 57.487 151.459 56.7852C151.158 56.0742 151.008 55.2995 151.008 54.4609ZM157.338 57.7969C157.721 57.7969 158.117 57.7194 158.527 57.5645C158.938 57.4095 159.311 57.1862 159.648 56.8945C159.995 56.5938 160.277 56.2292 160.496 55.8008C160.724 55.3724 160.838 54.8893 160.838 54.3516C160.838 53.8047 160.738 53.2943 160.537 52.8203C160.337 52.3464 160.059 51.9362 159.703 51.5898C159.357 51.2344 158.942 50.9564 158.459 50.7559C157.985 50.5553 157.47 50.4551 156.914 50.4551C155.902 50.4551 155.128 50.7194 154.59 51.248C154.052 51.7676 153.783 52.5697 153.783 53.6543C153.783 54.2467 153.87 54.7982 154.043 55.3086C154.225 55.8099 154.476 56.2474 154.795 56.6211C155.114 56.9857 155.488 57.2728 155.916 57.4824C156.354 57.6921 156.827 57.7969 157.338 57.7969ZM165.609 47.9668C165.609 47.8301 165.669 47.6979 165.787 47.5703C165.906 47.4336 166.061 47.3151 166.252 47.2148C166.443 47.1055 166.658 47.0189 166.895 46.9551C167.141 46.8822 167.387 46.8457 167.633 46.8457C167.77 46.8457 167.883 46.8822 167.975 46.9551C168.075 47.028 168.161 47.1693 168.234 47.3789C168.307 47.5794 168.371 47.8665 168.426 48.2402C168.49 48.6048 168.549 49.0833 168.604 49.6758C168.64 49.8581 168.672 49.9993 168.699 50.0996C168.736 50.1908 168.781 50.2363 168.836 50.2363C168.918 50.2363 169 50.0951 169.082 49.8125C169.747 47.8893 170.709 46.9277 171.967 46.9277C172.55 46.9277 173.079 47.11 173.553 47.4746C174.036 47.8392 174.482 48.4362 174.893 49.2656C175.312 50.0859 175.708 51.1706 176.082 52.5195C176.456 53.8594 176.829 55.5137 177.203 57.4824C177.221 57.5827 177.235 57.6738 177.244 57.7559C177.253 57.8379 177.258 57.9154 177.258 57.9883C177.258 58.1979 177.208 58.3802 177.107 58.5352C177.016 58.681 176.893 58.804 176.738 58.9043C176.583 58.9954 176.41 59.0638 176.219 59.1094C176.027 59.1641 175.836 59.1914 175.645 59.1914C175.262 59.1914 174.984 59.1504 174.811 59.0684C174.646 58.9863 174.542 58.8314 174.496 58.6035C174.232 57.2181 173.972 55.9876 173.717 54.9121C173.471 53.8366 173.225 52.9342 172.979 52.2051C172.742 51.4668 172.505 50.9062 172.268 50.5234C172.031 50.1406 171.794 49.9492 171.557 49.9492C171.32 49.9492 171.096 50.0996 170.887 50.4004C170.686 50.6921 170.49 51.1523 170.299 51.7812C170.107 52.4102 169.921 53.2077 169.738 54.1738C169.565 55.14 169.396 56.293 169.232 57.6328C169.187 57.9974 169.005 58.2891 168.686 58.5078C168.367 58.7266 167.961 58.8359 167.469 58.8359C167.141 58.8359 166.89 58.7676 166.717 58.6309C166.544 58.4941 166.448 58.3073 166.43 58.0703C166.348 56.1745 166.257 54.6159 166.156 53.3945C166.065 52.1641 165.979 51.1797 165.896 50.4414C165.814 49.694 165.746 49.138 165.691 48.7734C165.637 48.4089 165.609 48.14 165.609 47.9668ZM179.965 43.209C179.965 42.7259 180.102 42.3887 180.375 42.1973C180.648 41.9967 181.1 41.8965 181.729 41.8965C181.956 41.8965 182.148 41.9193 182.303 41.9648C182.467 42.0013 182.604 42.0742 182.713 42.1836C182.831 42.293 182.923 42.4388 182.986 42.6211C183.059 42.7943 183.118 43.0176 183.164 43.291C183.273 44.1387 183.392 45.0137 183.52 45.916C183.656 46.8184 183.798 47.7253 183.943 48.6367C183.998 49.0469 184.212 49.252 184.586 49.252C184.686 49.252 184.85 49.2428 185.078 49.2246C185.315 49.1973 185.593 49.1699 185.912 49.1426C186.231 49.1061 186.573 49.0697 186.938 49.0332C187.311 48.9967 187.68 48.9648 188.045 48.9375C188.419 48.901 188.77 48.8737 189.098 48.8555C189.435 48.8281 189.731 48.8145 189.986 48.8145C190.187 48.8145 190.346 48.8555 190.465 48.9375C190.583 49.0104 190.674 49.1107 190.738 49.2383C190.811 49.3568 190.857 49.4935 190.875 49.6484C190.902 49.7943 190.916 49.9447 190.916 50.0996C190.916 50.2363 190.889 50.3776 190.834 50.5234C190.788 50.6693 190.72 50.8014 190.629 50.9199C190.547 51.0293 190.442 51.1204 190.314 51.1934C190.187 51.2663 190.041 51.3027 189.877 51.3027C189.084 51.3027 188.282 51.3301 187.471 51.3848C186.669 51.4303 185.867 51.4941 185.064 51.5762C184.654 51.6309 184.449 51.8359 184.449 52.1914C184.449 52.2188 184.454 52.2552 184.463 52.3008C184.472 52.3372 184.477 52.3691 184.477 52.3965C184.586 53.1895 184.686 53.9323 184.777 54.625C184.878 55.3177 184.96 55.9375 185.023 56.4844C185.096 57.0221 185.151 57.4733 185.188 57.8379C185.233 58.1934 185.256 58.4303 185.256 58.5488C185.256 58.877 185.224 59.1504 185.16 59.3691C185.096 59.597 184.992 59.7793 184.846 59.916C184.7 60.0618 184.504 60.1621 184.258 60.2168C184.021 60.2806 183.72 60.3125 183.355 60.3125C183.009 60.3125 182.754 60.2305 182.59 60.0664C182.426 59.9023 182.335 59.6517 182.316 59.3145C182.262 58.2389 182.175 57.1589 182.057 56.0742C181.938 54.9805 181.801 53.8913 181.646 52.8066C181.564 52.4147 181.359 52.2188 181.031 52.2188C181.004 52.2188 180.972 52.2233 180.936 52.2324C180.899 52.2415 180.867 52.2461 180.84 52.2461C180.275 52.3737 179.742 52.5013 179.24 52.6289C178.739 52.7565 178.27 52.8932 177.832 53.0391C177.586 53.1211 177.367 53.1803 177.176 53.2168C176.984 53.2441 176.811 53.2578 176.656 53.2578C176.447 53.2578 176.292 53.1667 176.191 52.9844C176.091 52.793 176.041 52.556 176.041 52.2734C176.041 52.1732 176.05 52.0592 176.068 51.9316C176.087 51.7949 176.123 51.6628 176.178 51.5352C176.223 51.3984 176.296 51.2754 176.396 51.166C176.488 51.0475 176.615 50.9518 176.779 50.8789C177.162 50.724 177.673 50.5645 178.311 50.4004C178.949 50.2272 179.669 50.0677 180.471 49.9219C180.653 49.8763 180.794 49.8034 180.895 49.7031C181.004 49.5938 181.059 49.4342 181.059 49.2246C181.059 49.179 181.059 49.1335 181.059 49.0879C181.059 49.0332 181.049 48.9785 181.031 48.9238C180.885 48.0853 180.744 47.3242 180.607 46.6406C180.48 45.9479 180.366 45.3555 180.266 44.8633C180.174 44.3711 180.102 43.9837 180.047 43.7012C179.992 43.4186 179.965 43.2546 179.965 43.209ZM189.74 45.834C189.74 44.8496 190.378 44.3574 191.654 44.3574C191.873 44.3574 192.064 44.4167 192.229 44.5352C192.393 44.6536 192.488 44.8177 192.516 45.0273C192.598 45.5833 192.671 46.1348 192.734 46.6816C192.798 47.2285 192.857 47.8438 192.912 48.5273C192.976 49.2018 193.035 49.9857 193.09 50.8789C193.154 51.763 193.222 52.8203 193.295 54.0508C193.295 54.1784 193.313 54.2695 193.35 54.3242C193.395 54.3789 193.445 54.4062 193.5 54.4062C193.582 54.4062 193.664 54.3242 193.746 54.1602C194.056 53.4766 194.402 52.8659 194.785 52.3281C195.168 51.7812 195.578 51.321 196.016 50.9473C196.453 50.5645 196.913 50.2773 197.396 50.0859C197.889 49.8854 198.39 49.7852 198.9 49.7852C199.575 49.7852 200.186 49.9766 200.732 50.3594C201.279 50.7422 201.744 51.2845 202.127 51.9863C202.51 52.6882 202.806 53.5404 203.016 54.543C203.225 55.5365 203.33 56.6484 203.33 57.8789C203.33 58.2161 203.303 58.4941 203.248 58.7129C203.202 58.9225 203.12 59.0911 203.002 59.2188C202.883 59.3464 202.719 59.4329 202.51 59.4785C202.3 59.5332 202.04 59.5605 201.73 59.5605C201.302 59.5605 200.992 59.4785 200.801 59.3145C200.618 59.1504 200.527 58.8952 200.527 58.5488C200.527 57.6921 200.468 56.8854 200.35 56.1289C200.24 55.3633 200.085 54.6934 199.885 54.1191C199.684 53.5449 199.447 53.0892 199.174 52.752C198.91 52.4147 198.622 52.2461 198.312 52.2461C197.611 52.2461 196.909 52.8158 196.207 53.9551C195.514 55.0944 194.79 56.8125 194.033 59.1094C193.96 59.319 193.878 59.4922 193.787 59.6289C193.696 59.7656 193.587 59.875 193.459 59.957C193.34 60.0391 193.195 60.0938 193.021 60.1211C192.848 60.1576 192.643 60.1758 192.406 60.1758C191.923 60.1758 191.577 60.0846 191.367 59.9023C191.167 59.7201 191.057 59.4193 191.039 59C190.984 57.4141 190.884 55.901 190.738 54.4609C190.602 53.0117 190.456 51.7038 190.301 50.5371C190.155 49.3613 190.023 48.3678 189.904 47.5566C189.795 46.7363 189.74 46.1621 189.74 45.834Z" fill="#5E39F5"/>
<path fill-rule="evenodd" clip-rule="evenodd" d="M49.4579 30.8484C49.7591 30.1403 50.5773 29.8103 51.2855 30.1115C54.4757 31.4683 57.8418 32.3557 61.3173 33.0654C63.0577 33.4207 64.7991 33.6908 66.5617 33.8707C66.7583 33.8908 67.0046 33.9028 67.2935 33.9168C67.5575 33.9296 67.8569 33.9442 68.1864 33.9682C68.4269 33.9858 68.811 34.016 69.0927 34.0963C69.1579 34.1149 69.3563 34.1724 69.5604 34.3114C69.6651 34.3828 69.8668 34.539 70.0159 34.8142C70.1912 35.1379 70.243 35.538 70.117 35.9249C70.0091 36.2564 69.809 36.4605 69.7003 36.5562C69.5831 36.6593 69.4715 36.724 69.4034 36.76C69.2675 36.8318 69.1387 36.8748 69.0598 36.8989C68.7472 36.9948 68.4348 37.0905 68.1226 37.1861C64.0619 38.4296 60.0329 39.6635 56.1226 41.1553C53.2689 42.2441 50.5304 43.4259 48.2295 45.1516C47.6139 45.6133 46.7405 45.4885 46.2788 44.8729C45.817 44.2573 45.9418 43.3839 46.5574 42.9222C49.1906 40.9473 52.2424 39.6531 55.1293 38.5516C57.4837 37.6534 59.8774 36.8474 62.2724 36.084C61.7675 35.9947 61.2634 35.8986 60.7598 35.7958C57.1932 35.0675 53.6255 34.135 50.1949 32.676C49.4867 32.3748 49.1568 31.5566 49.4579 30.8484Z" fill="#5E39F5"/>
<path d="M2 2C8.5 22.5 34 40.5 67 35.5" stroke="#5E39F5" stroke-width="2.5" stroke-linecap="round"/>
</svg>
