<svg width="270" height="270" viewBox="0 0 270 270" fill="none" xmlns="http://www.w3.org/2000/svg">
<rect width="270" height="270" rx="12" fill="#FAF9FF"/>
<path fill-rule="evenodd" clip-rule="evenodd" d="M191.572 84.432C191.441 85.0659 190.821 85.4737 190.187 85.3427C185.261 84.3253 180.459 83.1089 175.75 81.9162C172.374 81.0611 169.047 80.2182 165.757 79.4697C157.792 77.6576 149.788 76.328 141.051 76.459C125.411 76.6935 109.843 80.2606 96.8132 89.0348C90.0922 93.5607 83.7679 100.314 79.9258 107.986C76.0879 115.65 74.7632 124.145 77.8534 132.268C79.4208 136.389 81.9751 140.299 85.1998 143.78C85.887 139.359 87.2558 134.939 89.4561 130.573C94.668 120.23 105.697 118.383 115.338 121.424C124.942 124.454 133.744 132.483 134.72 142.628C135.245 148.084 133.507 152.547 130.231 155.667C126.98 158.763 122.314 160.447 117.106 160.597C108.723 160.839 99.848 157.833 92.354 152.874C90.4985 151.646 88.7212 150.294 87.0518 148.836C86.5014 161 90.9349 173.16 97.1272 184.238C97.4431 184.803 97.2411 185.517 96.6761 185.833C96.111 186.149 95.397 185.947 95.0812 185.382C88.4805 173.574 83.6596 160.221 84.8367 146.775C80.7967 142.769 77.5674 138.109 75.6625 133.102C72.2786 124.206 73.784 115.016 77.8299 106.936C81.8715 98.8657 88.4845 91.8173 95.5039 87.0905C109.012 77.9942 125.061 74.3544 141.016 74.1152C150.017 73.9802 158.224 75.352 166.277 77.1841C169.707 77.9644 173.065 78.816 176.439 79.6719C181.072 80.8469 185.736 82.0299 190.661 83.0471C191.295 83.1781 191.703 83.7981 191.572 84.432ZM87.2852 145.883C89.2354 147.723 91.3746 149.415 93.6476 150.919C100.828 155.67 109.235 158.479 117.038 158.254C121.805 158.116 125.872 156.581 128.615 153.969C131.332 151.381 132.848 147.645 132.387 142.852C131.53 133.944 123.667 126.509 114.633 123.66C105.637 120.822 96.0571 122.682 91.5494 131.628C89.1837 136.322 87.8279 141.096 87.2852 145.883Z" fill="#6C6A7C"/>
<path fill-rule="evenodd" clip-rule="evenodd" d="M186.153 78.5356C186.511 77.996 187.238 77.8483 187.778 78.2057C187.834 78.243 187.915 78.2963 188.017 78.3635C188.799 78.8777 190.829 80.2133 192.694 81.5542C193.744 82.3087 194.774 83.0883 195.507 83.7373C195.864 84.0534 196.206 84.3858 196.44 84.6992C196.551 84.8469 196.703 85.0746 196.783 85.3542C196.871 85.6556 196.917 86.2209 196.469 86.6813C195.831 87.3365 194.922 87.6085 194.16 87.7507C193.365 87.8989 192.482 87.946 191.719 87.9846L191.657 87.9877C190.876 88.0271 190.243 88.0591 189.761 88.1479C189.57 88.1832 189.449 88.22 189.379 88.2478C189.08 88.7294 188.466 88.9348 187.927 88.7064C187.331 88.4537 187.053 87.7657 187.306 87.1698C187.52 86.6637 187.917 86.3601 188.266 86.1812C188.61 86.0054 188.991 85.9065 189.336 85.8427C189.976 85.7247 190.753 85.6859 191.459 85.6506C191.507 85.6483 191.554 85.6459 191.601 85.6435C192.39 85.6037 193.116 85.561 193.73 85.4464C193.778 85.4374 193.825 85.4281 193.869 85.4186C193.231 84.8635 192.318 84.1706 191.326 83.4574C189.506 82.1489 187.523 80.8442 186.733 80.3243C186.627 80.2549 186.543 80.1995 186.483 80.16C185.943 79.8025 185.796 79.0753 186.153 78.5356ZM194.585 86.1349C194.585 86.1349 194.583 86.1326 194.581 86.128C194.584 86.1327 194.585 86.135 194.585 86.1349Z" fill="#6C6A7C"/>
</svg>
