<svg width="294" height="344" viewBox="0 0 294 344" fill="none" xmlns="http://www.w3.org/2000/svg">
<g filter="url(#filter0_dd_2274_13872)">
<rect x="12" width="270" height="320" rx="20" fill="#F3FAF2"/>
<g clip-path="url(#clip0_2274_13872)">
<rect x="32" y="20" width="230" height="155" rx="12" fill="#DEEFDC"/>
<path d="M185.681 114.081L202.013 129.762L231.156 98.5843L243.145 105.346L217.322 145.434C215.973 147.429 214.195 149.131 212.105 150.426C210.015 151.721 207.66 152.582 205.195 152.95C202.297 153.379 199.332 153.113 196.568 152.178C193.805 151.242 191.331 149.666 189.37 147.591L171.35 128.525L185.681 114.081Z" fill="#FFBE9D"/>
<path d="M202.889 139.84C201.871 138.302 201.301 136.534 201.239 134.718C201.018 132.911 201.301 131.082 202.06 129.412C201.768 131.152 201.651 132.913 201.709 134.674C201.932 136.427 202.328 138.156 202.889 139.84Z" fill="#D1734A"/>
<path d="M244.573 72.6867C244.688 73.3914 244.725 74.1057 244.684 74.8178C244.684 76.1333 244.683 77.9575 244.6 79.9658C244.517 81.9741 244.462 83.7895 244.379 85.105C244.386 85.8218 244.306 86.537 244.139 87.2361C244.025 86.5313 243.991 85.8168 244.038 85.105C244.038 83.7807 244.038 81.9654 244.121 79.957C244.204 77.9487 244.259 76.1333 244.342 74.8178C244.341 74.1018 244.419 73.3876 244.573 72.6867Z" fill="white"/>
<path d="M240.451 86.6926C239.338 85.8718 238.324 84.9365 237.426 83.9038C236.418 82.9686 235.521 81.9303 234.752 80.8079C235.875 81.6215 236.893 82.5576 237.786 83.5968C238.797 84.5278 239.691 85.5666 240.451 86.6926Z" fill="white"/>
<path d="M252.68 80.4836C252.02 81.6193 251.225 82.6787 250.31 83.6408C249.509 84.6993 248.58 85.6648 247.543 86.5174C248.193 85.3783 248.986 84.3182 249.904 83.3602C250.706 82.2999 251.638 81.3343 252.68 80.4836Z" fill="white"/>
<path d="M248.271 90.1307L251.435 86.842C251.545 86.7113 251.687 86.6089 251.85 86.5438C251.995 86.5207 252.145 86.5392 252.28 86.597C252.414 86.6548 252.528 86.7492 252.606 86.8683C252.792 87.1904 252.88 87.5554 252.861 87.9224C252.841 88.2895 252.715 88.6441 252.495 88.9468C252.049 89.5473 251.655 90.1807 251.315 90.8411C251.142 91.4929 251.016 92.1551 250.937 92.8231C250.889 93.1581 250.748 93.475 250.53 93.7416C250.311 94.0081 250.022 94.2147 249.692 94.3403" fill="#EB996E"/>
<path d="M248.622 89.8595H220.881C219.807 89.8595 218.936 90.688 218.936 91.71V104.014C218.936 105.036 219.807 105.865 220.881 105.865H248.622C249.697 105.865 250.568 105.036 250.568 104.014V91.71C250.568 90.688 249.697 89.8595 248.622 89.8595Z" fill="#403E48"/>
<path d="M251.953 93.683L248.679 95.3142C248.311 95.4842 247.965 95.6931 247.646 95.9369C247.32 96.1795 247.09 96.5193 246.991 96.9016C246.949 97.0503 246.951 97.2075 246.998 97.3549C247.046 97.5024 247.136 97.6341 247.259 97.7347C247.418 97.8047 247.591 97.8409 247.766 97.8409C247.941 97.8409 248.114 97.8047 248.273 97.7347C249.754 97.3604 251.186 96.831 252.543 96.1561C253.004 95.976 253.398 95.671 253.678 95.2791C253.755 95.1465 253.802 94.9995 253.814 94.8482C253.827 94.6969 253.806 94.5448 253.751 94.4021C253.673 94.2361 253.554 94.09 253.405 93.9757C253.256 93.8614 253.081 93.7821 252.894 93.7444C252.518 93.6703 252.132 93.6526 251.75 93.6917" fill="#EB996E"/>
<path d="M251.665 96.1463L248.41 97.7776C248.042 97.9476 247.695 98.1564 247.377 98.4002C247.053 98.6451 246.823 98.984 246.722 99.3649C246.657 99.6719 246.952 100.023 247.211 100.242C247.469 100.461 247.672 100.356 248.004 100.242C249.485 99.8745 250.918 99.3479 252.274 98.6721C252.741 98.477 253.136 98.1532 253.408 97.7425C253.479 97.6156 253.522 97.4763 253.535 97.3331C253.547 97.1899 253.529 97.0457 253.482 96.9093C253.401 96.7448 253.281 96.6001 253.133 96.4861C252.984 96.3721 252.81 96.2919 252.624 96.2516C252.248 96.1805 251.862 96.1657 251.48 96.2077" fill="#EB996E"/>
<path d="M251.767 93.6917L249.055 94.9633C248.575 95.16 248.127 95.423 247.727 95.7438C247.532 95.909 247.376 96.1117 247.27 96.3385C247.163 96.5653 247.109 96.811 247.109 97.0593C247.119 97.3079 247.224 97.5446 247.404 97.7253C247.584 97.906 247.826 98.0184 248.087 98.0416" fill="#EB996E"/>
<path d="M248.086 98.0241C248.086 98.0241 247.966 98.1118 247.745 98.0241C247.592 97.9837 247.449 97.9138 247.325 97.8188C247.201 97.7238 247.099 97.6056 247.026 97.4716C246.916 97.2664 246.859 97.0395 246.859 96.8094C246.859 96.5794 246.916 96.3525 247.026 96.1473C247.279 95.6716 247.677 95.2801 248.169 95.0247C249.283 94.3814 250.497 93.9107 251.766 93.6303C251.858 93.7794 250.318 94.6038 248.474 95.5159C247.551 95.9631 247.164 96.7875 247.404 97.2699C247.644 97.7522 248.105 97.9715 248.086 98.0241Z" fill="#D1734A"/>
<path d="M247.551 100.322C247.551 100.322 247.404 100.322 247.21 100.208C246.922 100.046 246.687 99.8128 246.528 99.5331C246.403 99.3099 246.367 99.0515 246.426 98.8051C246.504 98.5291 246.676 98.2854 246.915 98.1123C247.389 97.7941 247.916 97.5539 248.474 97.4019C250.678 96.6214 252.513 96.1039 252.568 96.253C252.624 96.4021 250.89 97.1301 248.686 97.9281C248.181 98.0666 247.697 98.2671 247.247 98.5245C247.09 98.608 246.969 98.7423 246.906 98.9031C246.843 99.0639 246.843 99.2406 246.906 99.4015C247.173 99.954 247.634 100.252 247.551 100.322Z" fill="#D1734A"/>
<path d="M251.935 98.647C250.856 99.1908 249.953 99.6819 248.864 100.226C248.497 100.396 248.15 100.605 247.831 100.848C247.508 101.093 247.278 101.432 247.177 101.813C247.125 101.968 247.123 102.134 247.171 102.29C247.219 102.446 247.314 102.585 247.444 102.69C247.606 102.839 247.814 102.937 248.037 102.968C248.26 103 248.488 102.964 248.689 102.865C250.091 102.269 251.382 101.831 252.728 101.111C253.193 100.917 253.588 100.597 253.863 100.191C253.939 100.057 253.984 99.9105 253.997 99.7595C254.01 99.6084 253.989 99.4566 253.937 99.3136C253.856 99.1491 253.736 99.0043 253.588 98.8903C253.439 98.7763 253.265 98.6961 253.079 98.6558C252.7 98.5993 252.314 98.5993 251.935 98.6558" fill="#EB996E"/>
<path d="M248.252 102.962C248.252 102.962 248.132 103.049 247.911 103.005C247.758 102.965 247.615 102.895 247.491 102.8C247.367 102.705 247.266 102.587 247.192 102.453C247.082 102.248 247.025 102.021 247.025 101.791C247.025 101.561 247.082 101.334 247.192 101.129C247.445 100.653 247.843 100.261 248.335 100.006C249.447 99.3584 250.661 98.8874 251.932 98.6116C252.024 98.7519 250.484 99.5763 248.64 100.488C247.717 100.936 247.33 101.76 247.57 102.242C247.81 102.725 248.271 102.883 248.252 102.962Z" fill="#D1734A"/>
<path d="M224.11 97.0322C224.112 97.2845 224.035 97.5315 223.888 97.742C223.742 97.9525 223.533 98.1168 223.289 98.2141C223.044 98.3115 222.774 98.3374 222.514 98.2886C222.254 98.2398 222.015 98.1185 221.827 97.9402C221.64 97.7618 221.512 97.5344 221.461 97.2869C221.409 97.0394 221.437 96.783 221.539 96.5503C221.641 96.3176 221.814 96.1191 222.036 95.98C222.257 95.8409 222.517 95.7676 222.782 95.7693C223.134 95.7693 223.472 95.9024 223.721 96.1392C223.97 96.3761 224.11 96.6973 224.11 97.0322Z" fill="#FAFAFA"/>
<path d="M157.212 60.5315L153.588 100.496L132.543 98.9002C132.414 96.5586 132.589 87.4992 132.589 87.4992C132.589 87.4992 123.828 86.21 123.717 77.8522C123.671 73.8092 124.271 65.4514 124.916 57.918C125.258 53.9035 127.239 50.1757 130.434 47.5321C133.63 44.8885 137.786 43.5389 142.014 43.772C144.181 43.893 146.3 44.4264 148.245 45.3406C150.191 46.2549 151.924 47.5313 153.342 49.0943C154.759 50.6572 155.832 52.4749 156.497 54.4395C157.162 56.4041 157.405 58.4757 157.212 60.5315Z" fill="#FFBE9D"/>
<circle cx="144.586" cy="72.3669" r="0.560122" fill="#FF523D"/>
<circle cx="146.584" cy="70.9665" r="0.560122" fill="#FF523D"/>
<circle cx="129.181" cy="83.5693" r="0.560122" fill="#FF523D"/>
<circle cx="145.776" cy="73.5571" r="0.350076" fill="#FF523D"/>
<circle cx="149.034" cy="72.0168" r="0.210046" fill="#FF523D"/>
<circle cx="147.634" cy="73.4171" r="0.210046" fill="#FF523D"/>
<circle cx="130.829" cy="83.2192" r="0.210046" fill="#FF523D"/>
<circle cx="128.028" cy="72.0168" r="0.210046" fill="#FF523D"/>
<circle cx="143.573" cy="70.7565" r="0.350076" fill="#FF523D"/>
<circle cx="128.168" cy="70.7565" r="0.350076" fill="#FF523D"/>
<circle cx="142.172" cy="72.1568" r="0.350076" fill="#FF523D"/>
<circle cx="126.768" cy="72.1568" r="0.350076" fill="#FF523D"/>
<path d="M132.569 87.4027C136.612 87.4705 140.586 86.3961 143.986 84.3156C143.986 84.3156 141.284 90.3055 132.551 89.5776L132.569 87.4027Z" fill="#D1734A"/>
<path d="M129.25 63.4965C129.245 63.8075 129.369 64.1079 129.595 64.3328C129.821 64.5576 130.131 64.6888 130.458 64.698C130.617 64.7099 130.776 64.6915 130.927 64.6438C131.078 64.5961 131.217 64.5202 131.337 64.4204C131.456 64.3207 131.554 64.1992 131.623 64.0631C131.692 63.927 131.732 63.779 131.74 63.628C131.745 63.3185 131.623 63.0193 131.398 62.7947C131.174 62.5702 130.867 62.438 130.541 62.4265C130.382 62.4146 130.222 62.433 130.071 62.4806C129.92 62.5281 129.78 62.6039 129.659 62.7036C129.539 62.8032 129.441 62.9247 129.371 63.0608C129.3 63.197 129.259 63.3451 129.25 63.4965Z" fill="#403E48"/>
<path d="M126.786 62.1645C126.943 62.3224 127.884 61.6558 129.23 61.6558C130.577 61.6558 131.563 62.2961 131.711 62.1382C131.859 61.9803 131.628 61.7962 131.195 61.498C130.613 61.1125 129.921 60.9073 129.212 60.9104C128.512 60.9085 127.83 61.1206 127.266 61.5155C126.851 61.8137 126.713 62.068 126.786 62.1645Z" fill="#403E48"/>
<path d="M141.701 63.8209C141.699 64.129 141.822 64.4259 142.046 64.6486C142.27 64.8713 142.576 65.0022 142.9 65.0136C143.059 65.0268 143.22 65.0093 143.372 64.9622C143.524 64.9151 143.664 64.8393 143.785 64.7395C143.905 64.6396 144.003 64.5176 144.073 64.3809C144.143 64.2442 144.183 64.0955 144.191 63.9437C144.194 63.6333 144.069 63.3341 143.844 63.1098C143.618 62.8855 143.309 62.7536 142.983 62.7422C142.824 62.7303 142.664 62.749 142.512 62.7972C142.361 62.8454 142.221 62.9221 142.101 63.0228C141.982 63.1234 141.885 63.246 141.816 63.3831C141.747 63.5202 141.708 63.6691 141.701 63.8209Z" fill="#403E48"/>
<path d="M140.013 62.4003C140.17 62.5582 141.12 61.8917 142.466 61.8917C143.813 61.8917 144.8 62.5407 144.938 62.3828C145.076 62.2249 144.855 62.032 144.421 61.7338C143.836 61.3602 143.143 61.17 142.439 61.1901C141.739 61.1856 141.057 61.3946 140.493 61.7864C140.078 62.0671 139.939 62.3302 140.013 62.4003Z" fill="#403E48"/>
<path d="M135.134 71.8888C134.424 71.6803 133.69 71.5566 132.948 71.5204C132.598 71.5204 132.275 71.4152 132.22 71.1959C132.191 70.8567 132.271 70.5171 132.45 70.2225C132.773 69.4332 133.105 68.6088 133.465 67.7405C134.876 64.2325 135.899 61.2858 135.743 61.2332C135.586 61.1806 134.332 64.0045 132.921 67.5476C132.579 68.4246 132.257 69.3016 131.943 70.0471C131.729 70.4444 131.667 70.9002 131.768 71.3362C131.817 71.4513 131.893 71.554 131.99 71.6362C132.088 71.7185 132.204 71.7779 132.33 71.8098C132.52 71.8583 132.715 71.8848 132.911 71.8888C133.649 71.983 134.396 71.983 135.134 71.8888Z" fill="#403E48"/>
<path d="M139.091 72.7757C138.869 72.7757 138.869 74.1526 137.615 75.1436C136.361 76.1346 134.849 76.0206 134.802 76.1697C134.756 76.3188 135.153 76.4416 135.808 76.4591C136.663 76.4661 137.494 76.1902 138.159 75.6786C138.793 75.1823 139.199 74.4719 139.294 73.6966C139.358 73.1177 139.192 72.7669 139.091 72.7757Z" fill="#403E48"/>
<path d="M139.663 57.3834C139.801 57.7342 141.148 57.5675 142.725 57.7517C144.302 57.9359 145.574 58.3393 145.786 58.0323C145.879 57.8745 145.657 57.55 145.141 57.2167C144.46 56.7927 143.682 56.531 142.872 56.4537C142.065 56.3643 141.246 56.4575 140.484 56.7256C139.903 56.9449 139.608 57.2167 139.663 57.3834Z" fill="#403E48"/>
<path d="M127.275 58.4629C127.515 58.7523 128.447 58.4629 129.563 58.4629C130.679 58.4629 131.619 58.6558 131.831 58.3489C131.933 58.1998 131.785 57.9104 131.37 57.6385C130.822 57.3026 130.177 57.1371 129.526 57.1649C128.862 57.1655 128.215 57.3684 127.681 57.7437C127.303 58.0156 127.174 58.3138 127.275 58.4629Z" fill="#403E48"/>
<path d="M147.703 51.3938H147.758C149.155 52.4375 150.071 53.9562 150.313 55.6297V55.7963C150.654 58.173 150.59 60.5848 150.959 62.9614C151.201 65.3688 152.286 67.6293 154.039 69.3811C154.795 70.0476 156.132 70.5124 156.759 69.7231C156.966 69.3943 157.074 69.0184 157.073 68.6356C157.562 62.9439 159.222 57.8573 159.222 51.8586C159.223 51.056 159.024 50.2646 158.641 49.5496C158.257 48.8345 157.701 48.2162 157.018 47.7455C155.69 46.8685 154.085 45.9125 152.609 46.5703C151.134 47.228 149.243 49.8415 148.109 50.9553" fill="#403E48"/>
<path d="M154.259 64.2946C154.407 64.2332 160.281 62.602 160.088 68.2937C159.894 73.9855 153.927 72.6788 153.918 72.4683C153.909 72.2578 154.259 64.2946 154.259 64.2946Z" fill="#FFBE9D"/>
<path d="M155.819 70.3713C155.819 70.3713 155.921 70.4415 156.096 70.5204C156.348 70.613 156.628 70.613 156.88 70.5204C157.273 70.2975 157.597 69.9797 157.818 69.5992C158.04 69.2188 158.152 68.7892 158.143 68.3542C158.176 67.8667 158.095 67.3782 157.903 66.9247C157.851 66.7448 157.754 66.5793 157.621 66.4421C157.488 66.3048 157.322 66.1997 157.138 66.1354C157.02 66.1005 156.893 66.107 156.779 66.1537C156.666 66.2003 156.574 66.2841 156.52 66.3897C156.428 66.5476 156.465 66.6616 156.437 66.6704C156.409 66.6791 156.308 66.5739 156.363 66.3371C156.4 66.1958 156.488 66.0715 156.612 65.9863C156.783 65.8769 156.99 65.833 157.193 65.8635C157.434 65.9121 157.657 66.018 157.843 66.1715C158.029 66.3249 158.17 66.5207 158.254 66.7405C158.49 67.2412 158.595 67.789 158.558 68.3367C158.566 68.8434 158.419 69.3414 158.136 69.7708C157.853 70.2002 157.446 70.5427 156.963 70.7572C156.804 70.7917 156.64 70.7931 156.48 70.7613C156.321 70.7295 156.171 70.6653 156.041 70.573C155.828 70.5029 155.801 70.3801 155.819 70.3713Z" fill="#D1734A"/>
<path d="M152.768 47.456C154.243 45.1757 150.204 41.9045 147.234 41.0188C144.265 40.133 140.382 41.5011 137.449 42.4307C135.605 43.0183 133.761 43.8339 131.787 43.755C130.483 43.6269 129.206 43.3166 127.997 42.8342C126.782 42.3495 125.477 42.1049 124.16 42.115C123.503 42.1297 122.863 42.3148 122.309 42.6502C121.755 42.9856 121.308 43.4586 121.015 44.0181C120.892 44.3016 120.833 44.607 120.844 44.9138C120.854 45.2206 120.934 45.5217 121.077 45.7967C121.221 46.0718 121.424 46.3145 121.674 46.5084C121.925 46.7023 122.216 46.843 122.528 46.921C122.111 46.7029 121.645 46.5843 121.169 46.5751C120.694 46.566 120.223 46.6666 119.797 46.8685C119.372 47.0703 119.004 47.3673 118.725 47.734C118.447 48.1007 118.266 48.5262 118.198 48.9739C118.13 49.4217 118.178 49.8784 118.336 50.3048C118.495 50.7313 118.76 51.1149 119.108 51.4226C119.457 51.7304 119.879 51.9531 120.338 52.0718C120.797 52.1905 121.279 52.2016 121.744 52.1041C120.886 51.4902 119.586 52.4987 119.687 53.516C119.805 54.0116 120.055 54.4699 120.414 54.8464C120.773 55.2229 121.228 55.5048 121.735 55.6647C124.234 56.7083 127.148 56.3751 129.73 55.5507C132.313 54.7263 134.71 53.4371 137.274 52.5513C139.838 51.6656 144.126 50.0694 146.699 50.9289C148.544 51.5603 149.909 53.7353 150.978 53.2529C151.492 52.9969 151.936 52.6292 152.272 52.1797C152.609 51.7302 152.829 51.2115 152.915 50.6658C153.064 49.5882 153.024 48.4946 152.795 47.4296" fill="#403E48"/>
<path d="M121.845 46.7638C121.901 46.7638 122.159 47.1848 122.767 47.8513C123.684 48.7756 124.824 49.4739 126.088 49.8859C127.947 50.5284 129.997 50.4496 131.796 49.6667C133.834 48.7897 135.577 47.0357 137.588 45.4308C139.443 43.7724 141.79 42.6976 144.311 42.3525C145.353 42.2341 146.41 42.3423 147.402 42.6689C148.394 42.9955 149.295 43.5321 150.038 44.2381C150.514 44.7328 150.88 45.3144 151.113 45.9475C151.346 46.5807 151.441 47.2522 151.393 47.9215C151.364 48.2799 151.277 48.6319 151.135 48.9651C151.034 49.1931 150.96 49.2984 150.941 49.2896C151.052 48.8366 151.126 48.3763 151.163 47.9127C151.172 46.6563 150.673 45.4445 149.77 44.5275C149.06 43.8912 148.21 43.4138 147.282 43.13C146.353 42.8463 145.369 42.7634 144.403 42.8875C142.008 43.2491 139.782 44.2846 138.012 45.8605C136.047 47.4567 134.249 49.237 132.073 50.1403C130.47 50.8017 128.686 50.9541 126.984 50.575C125.283 50.1958 123.756 49.3053 122.629 48.0355C122.388 47.7651 122.178 47.4711 122.002 47.1585C121.882 46.8954 121.827 46.7726 121.845 46.7638Z" fill="#455A64"/>
<path d="M155.792 64.0481C155.792 64.0481 155.534 63.8902 155.303 63.4429C155.005 62.7924 154.902 62.0758 155.008 61.3732C155.137 59.5403 156.852 57.5758 157.064 55.0413C157.214 53.8691 156.982 52.6816 156.4 51.6385C155.891 50.8051 155.106 50.1548 154.169 49.788C153.541 49.5343 152.853 49.4435 152.177 49.5249C151.697 49.6039 151.43 49.7091 151.411 49.6653C151.393 49.6214 151.623 49.4635 152.131 49.3145C152.853 49.1357 153.615 49.1693 154.316 49.4109C155.376 49.7598 156.278 50.4439 156.871 51.3491C157.541 52.4779 157.812 53.7812 157.645 55.0676C157.487 56.3315 157.084 57.5566 156.456 58.6808C155.968 59.5448 155.608 60.4685 155.386 61.4258C155.227 62.3187 155.369 63.2367 155.792 64.0481Z" fill="#455A64"/>
<path d="M122.549 114.025L119.903 129.214C119.349 153.823 65.2701 165.619 65.2701 165.619V165.557C61.5331 167.301 57.7004 168.853 53.7884 170.205C48.2551 171.854 48.126 171.389 48.0337 170.74C47.7847 168.986 57.588 167.495 55.2824 166.662C52.9768 165.829 43.5148 169.855 43.2935 168.039C43.0537 165.68 53.3457 164.259 54.2126 164.084C55.0795 163.909 54.8305 162.707 54.0559 162.909C52.9492 163.207 41.2646 165.996 41.0064 163.68C40.8588 162.4 43.312 162.365 43.312 162.365C43.312 162.365 54.4524 160.515 54.2956 159.427C54.1389 158.34 47.5542 159.199 45.3501 159.646C43.146 160.094 42.0762 159.278 42.6756 158.208C43.0814 157.471 49.7767 155.954 51.9532 155.577C54.1296 155.2 60.1517 154.209 56.7764 152.402C53.4011 150.596 51.529 148.017 51.5382 146.947C51.5641 146.708 51.6682 146.483 51.8357 146.303C52.0033 146.124 52.2258 145.998 52.4722 145.945C52.7185 145.892 52.9762 145.913 53.209 146.007C53.4418 146.1 53.638 146.26 53.77 146.465C54.641 147.396 55.6434 148.208 56.7487 148.877C57.6247 149.451 58.598 149.879 59.6261 150.14C60.7881 150.438 61.7933 150.648 62.651 150.806C67.7877 149.21 85.9832 141.677 96.598 132.81C99.1341 130.688 105.645 108.473 105.645 108.473" fill="#FFBE9D"/>
<path d="M111.941 130.771C111.941 130.771 110.733 158.248 109.875 173.744C109.267 184.733 109.414 192.644 109.414 192.644L176.164 194.222L171.212 160.651L169.552 128.29L177.031 134.999L192.303 118.844L178.11 104.093C173.829 99.6421 168.232 96.5268 162.054 95.1564L156.742 93.9813C155.94 93.8936 155.119 93.8322 154.262 93.7971C147.192 95.9237 139.604 95.9237 132.534 93.7971C131.308 93.9462 129.417 94.104 126.936 94.4285C121.643 95.1126 120.739 95.1564 118.387 96.1825C113.838 98.2603 109.776 101.189 106.445 104.795L99.3711 113.486L111.95 130.728" fill="#81C27A"/>
<g opacity="0.3">
<path opacity="0.3" d="M168.969 120.264C168.969 120.264 164.016 141.768 165.584 148.89C167.152 156.011 173.506 176.077 173.506 176.077L171.21 160.475L170.287 138.102L168.969 120.264Z" fill="#403E48"/>
</g>
<path d="M111.763 116.038C111.946 116.978 112.042 117.932 112.049 118.888C112.151 120.642 112.234 123.098 112.252 125.79C112.27 128.482 112.252 130.929 112.132 132.692C112.134 133.65 112.054 134.606 111.892 135.551C111.778 134.602 111.744 133.646 111.791 132.692C111.791 130.789 111.791 128.421 111.791 125.799C111.791 123.177 111.745 120.8 111.726 118.906C111.664 117.95 111.677 116.992 111.763 116.038Z" fill="#403E48"/>
<path d="M169.902 98.0241C169.79 98.1907 169.657 98.3438 169.506 98.4801C169.229 98.7608 168.842 99.208 168.279 99.7079C166.716 101.162 165.012 102.472 163.188 103.619C160.489 105.337 157.561 106.705 154.483 107.689C149.152 109.394 143.48 109.912 137.905 109.2C132.331 108.488 127.003 106.567 122.334 103.584C120.512 102.435 118.811 101.122 117.253 99.6641C116.69 99.1642 116.33 98.7169 116.026 98.4451C115.878 98.3082 115.748 98.1552 115.639 97.989C115.803 98.1052 115.958 98.2343 116.1 98.3749C116.404 98.638 116.801 99.059 117.382 99.5413C118.979 100.933 120.698 102.195 122.518 103.312C125.215 104.978 128.125 106.307 131.178 107.268C138.684 109.688 146.82 109.688 154.326 107.268C157.376 106.309 160.286 104.986 162.986 103.33C164.813 102.217 166.535 100.956 168.132 99.5588C168.713 99.0853 169.118 98.6818 169.423 98.4012C169.571 98.2626 169.731 98.1364 169.902 98.0241Z" fill="#FAFAFA"/>
<path d="M173.304 99.4714C173.195 99.6778 173.062 99.8719 172.908 100.05C172.612 100.401 172.234 100.971 171.644 101.611C170.018 103.48 168.188 105.18 166.185 106.68C163.214 108.922 159.91 110.734 156.381 112.056C147.672 115.407 137.944 115.461 129.194 112.205C125.652 110.92 122.327 109.147 119.326 106.943C117.297 105.47 115.441 103.791 113.793 101.936C113.194 101.296 112.806 100.734 112.511 100.384C112.352 100.21 112.215 100.019 112.105 99.8135C112.278 99.9717 112.438 100.142 112.585 100.322C112.908 100.664 113.314 101.199 113.931 101.822C115.62 103.616 117.492 105.247 119.52 106.689C122.514 108.839 125.819 110.567 129.333 111.82C137.99 114.993 147.588 114.94 156.206 111.67C159.706 110.374 162.989 108.601 165.954 106.408C167.967 104.946 169.821 103.295 171.487 101.48C172.105 100.857 172.502 100.313 172.815 99.9713C172.967 99.7955 173.131 99.6285 173.304 99.4714Z" fill="#FAFAFA"/>
<path d="M176.792 102.155C176.652 102.371 176.498 102.579 176.331 102.778C175.999 103.164 175.565 103.786 174.901 104.532C173.066 106.566 171.014 108.415 168.778 110.048C167.233 111.178 165.612 112.212 163.927 113.144C161.98 114.194 159.955 115.109 157.868 115.88C148.207 119.501 137.466 119.53 127.785 115.959C125.695 115.201 123.667 114.298 121.717 113.258C120.025 112.337 118.398 111.312 116.847 110.188C114.599 108.567 112.534 106.727 110.687 104.698C110.014 103.997 109.58 103.383 109.248 102.997C109.076 102.805 108.922 102.6 108.787 102.383C108.986 102.554 109.168 102.742 109.331 102.944C109.682 103.313 110.134 103.9 110.825 104.584C112.713 106.553 114.798 108.341 117.05 109.925C118.601 111.023 120.225 112.024 121.91 112.925C123.853 113.936 125.868 114.815 127.942 115.556C137.531 119.044 148.142 119.016 157.711 115.477C159.781 114.726 161.791 113.832 163.724 112.802C165.406 111.898 167.023 110.89 168.566 109.785C170.811 108.187 172.887 106.383 174.763 104.4C175.445 103.725 175.897 103.128 176.248 102.751C176.409 102.537 176.591 102.337 176.792 102.155Z" fill="#FAFAFA"/>
</g>
<path d="M42.08 209.68C42.08 208.64 41.78 207.76 41.16 207.06C40.54 206.36 39.8 205.88 38.9 205.64L41.82 201.52V200.8H33.32V203.24H37.72L34.96 207.1V207.8H36.62C38.38 207.8 39.32 208.48 39.32 209.7C39.32 210.96 38.36 211.74 37.02 211.74C35.8 211.74 34.98 211.12 34.18 209.92L32.3 211.24C33.2 213.06 34.92 214.24 37.1 214.24C39.84 214.24 42.08 212.34 42.08 209.68ZM43.9166 212.38C43.9166 213.44 44.7366 214.24 45.7966 214.24C46.8566 214.24 47.6366 213.44 47.6366 212.38C47.6366 211.34 46.8366 210.52 45.7966 210.52C44.7366 210.52 43.9166 211.34 43.9166 212.38ZM57.6914 214H60.3914V203.24H64.6314V200.8H53.4714V203.24H57.6914V214ZM71.4317 204.1C71.1717 204.02 70.8917 203.98 70.5517 203.98C69.4517 203.98 68.4917 204.46 67.8317 205.28V204.1H65.3517V214H68.0517V209.06C68.0517 207.36 69.0917 206.48 70.7117 206.48H71.4317V204.1ZM81.2103 208.12C81.2103 205.38 79.5503 203.88 76.9703 203.88C75.2303 203.88 73.7903 204.56 72.6503 205.92L74.0503 207.58C74.9303 206.64 75.6503 206.22 76.6703 206.22C77.8703 206.22 78.5103 206.86 78.5103 207.96V208.4H76.0303C73.7303 208.4 72.2903 209.5 72.2903 211.28C72.2903 213.02 73.6103 214.24 75.7103 214.24C76.9703 214.24 78.0103 213.78 78.7303 213.04V214H81.2103V208.12ZM78.5103 210.3C78.5103 211.44 77.6103 212.26 76.4303 212.26C75.5703 212.26 75.0103 211.84 75.0103 211.18C75.0103 210.52 75.5103 210.18 76.3903 210.18H78.5103V210.3ZM83.2488 209.04C83.2088 211.9 85.6488 214.3 88.5488 214.24C90.4688 214.24 91.9888 213.3 92.8488 211.78L90.9688 210.34C90.3288 211.24 89.6088 211.76 88.5888 211.76C87.0688 211.76 85.9888 210.62 85.9888 209.04C85.9888 207.5 87.0688 206.34 88.5888 206.34C89.6288 206.34 90.3488 206.88 90.9688 207.78L92.8488 206.32C91.9888 204.8 90.4888 203.88 88.5488 203.88C85.6088 203.88 83.2488 206.14 83.2488 209.04ZM104.604 214L100.584 208.48L104.304 204.1H101.104L97.5439 208.32V199H94.8439V214H97.5439V208.52L101.524 214H104.604ZM121.64 200.8H118.66L115.76 206.04L112.84 200.8H109.84L114.4 208.82V214H117.1V208.8L121.64 200.8ZM121.139 209.04C121.079 211.86 123.519 214.28 126.419 214.22C129.319 214.28 131.819 211.86 131.759 209.04C131.819 206.22 129.339 203.84 126.439 203.88C123.539 203.82 121.079 206.22 121.139 209.04ZM128.999 209.06C128.999 210.6 127.899 211.74 126.439 211.74C124.939 211.74 123.879 210.6 123.879 209.06C123.879 207.48 124.939 206.34 126.439 206.34C127.899 206.34 128.999 207.52 128.999 209.06ZM133.767 209.64C133.767 212.4 135.707 214.24 138.347 214.24C140.927 214.24 142.887 212.4 142.887 209.64V204.1H140.187V209.86C140.187 211 139.387 211.76 138.347 211.76C137.247 211.76 136.467 211 136.467 209.86V204.1H133.767V209.64ZM151.549 204.1C151.289 204.02 151.009 203.98 150.669 203.98C149.569 203.98 148.609 204.46 147.949 205.28V204.1H145.469V214H148.169V209.06C148.169 207.36 149.209 206.48 150.829 206.48H151.549V204.1ZM159.008 214H161.708V209.34H163.968C166.728 209.34 168.728 207.58 168.728 205.06C168.728 202.52 166.728 200.8 163.968 200.8H159.008V214ZM161.708 206.98V203.18H163.968C165.188 203.18 165.968 203.94 165.968 205.06C165.968 206.2 165.228 206.98 163.968 206.98H161.708ZM176.783 204.1C176.523 204.02 176.243 203.98 175.903 203.98C174.803 203.98 173.843 204.46 173.183 205.28V204.1H170.703V214H173.403V209.06C173.403 207.36 174.443 206.48 176.063 206.48H176.783V204.1ZM177.702 209.04C177.642 211.86 180.082 214.28 182.982 214.22C185.882 214.28 188.382 211.86 188.322 209.04C188.382 206.22 185.902 203.84 183.002 203.88C180.102 203.82 177.642 206.22 177.702 209.04ZM185.562 209.06C185.562 210.6 184.462 211.74 183.002 211.74C181.502 211.74 180.442 210.6 180.442 209.06C180.442 207.48 181.502 206.34 183.002 206.34C184.462 206.34 185.562 207.52 185.562 209.06ZM197.89 204.1V205.34C197.19 204.4 196.07 203.88 194.65 203.88C191.95 203.88 189.91 205.84 189.91 208.78C189.91 211.68 191.91 213.7 194.65 213.7C195.91 213.7 196.95 213.3 197.67 212.52V213.06C197.67 214.6 196.63 215.4 195.03 215.4C193.83 215.4 192.91 214.94 191.81 214.12L190.39 216C191.77 217.22 193.39 217.84 195.25 217.84C198.35 217.84 200.37 216.12 200.37 212.9V204.1H197.89ZM197.71 208.74C197.71 210.44 196.57 211.42 195.21 211.42C193.77 211.42 192.65 210.36 192.65 208.76C192.65 207.16 193.75 206.18 195.21 206.18C196.59 206.18 197.71 207.04 197.71 208.74ZM209.127 204.1C208.867 204.02 208.587 203.98 208.247 203.98C207.147 203.98 206.187 204.46 205.527 205.28V204.1H203.047V214H205.747V209.06C205.747 207.36 206.787 206.48 208.407 206.48H209.127V204.1ZM219.706 209.96C219.826 209.46 219.886 208.96 219.886 208.48C219.886 205.9 217.966 203.88 215.226 203.88C212.366 203.82 209.986 206.2 210.046 209.06C209.986 211.92 212.406 214.3 215.466 214.24C216.926 214.24 218.246 213.74 219.426 212.76L218.306 210.92C217.446 211.58 216.526 211.92 215.546 211.92C214.106 211.92 213.086 211.22 212.766 209.96H219.706ZM212.766 208.06C213.066 206.84 213.986 206.06 215.126 206.06C216.306 206.06 217.246 206.84 217.266 208.06H212.766ZM221.092 212.32C221.992 213.52 223.452 214.24 225.192 214.24C226.312 214.24 227.232 213.96 227.952 213.4C228.692 212.84 229.052 212.06 229.052 211.08C229.052 209.62 228.192 208.84 226.272 208.06L225.312 207.66C224.532 207.34 224.272 207.16 224.272 206.78C224.272 206.32 224.672 206.08 225.332 206.08C226.152 206.08 226.892 206.4 227.552 207.02L228.912 205.36C228.012 204.38 226.832 203.88 225.352 203.88C223.192 203.88 221.712 204.98 221.712 206.84C221.712 208.3 222.592 209.12 224.412 209.86L225.472 210.3C226.212 210.62 226.492 210.78 226.492 211.2C226.492 211.74 225.952 212.02 225.232 212.02C224.252 212.02 223.312 211.58 222.452 210.68L221.092 212.32ZM230.194 212.32C231.094 213.52 232.554 214.24 234.294 214.24C235.414 214.24 236.334 213.96 237.054 213.4C237.794 212.84 238.154 212.06 238.154 211.08C238.154 209.62 237.294 208.84 235.374 208.06L234.414 207.66C233.634 207.34 233.374 207.16 233.374 206.78C233.374 206.32 233.774 206.08 234.434 206.08C235.254 206.08 235.994 206.4 236.654 207.02L238.014 205.36C237.114 204.38 235.934 203.88 234.454 203.88C232.294 203.88 230.814 204.98 230.814 206.84C230.814 208.3 231.694 209.12 233.514 209.86L234.574 210.3C235.314 210.62 235.594 210.78 235.594 211.2C235.594 211.74 235.054 212.02 234.334 212.02C233.354 212.02 232.414 211.58 231.554 210.68L230.194 212.32Z" fill="#403E48"/>
<path d="M36.016 245H37.264V235.56H40.992V234.44H32.304V235.56H36.016V245ZM46.004 237.208C45.796 237.16 45.604 237.144 45.428 237.144C44.484 237.144 43.572 237.56 43.012 238.312V237.208H41.86V245H43.092V240.584C43.092 239.144 44.228 238.296 45.54 238.296H46.004V237.208ZM53.3406 240.2C53.3406 238.152 52.1406 237.032 50.3006 237.032C49.0046 237.032 47.8366 237.592 47.1326 238.744L47.9486 239.416C48.5886 238.584 49.2766 238.168 50.2206 238.168C51.3886 238.168 52.1086 238.856 52.1086 240.136V240.808H49.6446C47.9646 240.808 46.8446 241.656 46.8446 242.984C46.8446 244.328 47.9646 245.176 49.5646 245.176C50.7006 245.176 51.6126 244.76 52.1886 243.992V245H53.3406V240.2ZM52.1086 242.008C52.1086 243.208 51.0046 244.152 49.7246 244.152C48.8126 244.152 48.1086 243.704 48.1086 242.92C48.1086 242.2 48.7006 241.816 49.7886 241.816H52.1086V242.008ZM55.3938 241.096C55.3938 243.352 57.2178 245.176 59.4738 245.176C60.8338 245.176 61.9698 244.52 62.6737 243.48L61.7938 242.792C61.1698 243.624 60.4018 244.04 59.4898 244.04C57.8738 244.04 56.6578 242.728 56.6578 241.096C56.6578 239.48 57.8738 238.168 59.4898 238.168C60.4018 238.168 61.1858 238.584 61.8098 239.432L62.6898 238.728C61.9858 237.688 60.8338 237.032 59.4738 237.032C57.2498 237 55.3458 238.872 55.3938 241.096ZM64.7663 245H65.9983V233H64.7663V245ZM67.6143 240.632L70.9903 237.208H69.3743L66.1263 240.616L69.7103 245H71.2943L67.6143 240.632ZM82.8804 237.208L80.3044 243.416L77.7284 237.208H76.4004L79.6324 244.76L79.2164 245.688C78.8164 246.632 78.2724 246.936 77.4564 246.936C77.2324 246.936 76.9124 246.904 76.5124 246.856V247.896C76.9124 248.008 77.3124 248.056 77.7124 248.056C78.9124 248.056 79.7604 247.448 80.3524 246.088L84.1924 237.208H82.8804ZM85.0969 241.096C85.0649 243.288 86.9369 245.208 89.1609 245.16C91.3849 245.208 93.3049 243.288 93.2569 241.096C93.3049 238.872 91.4009 237 89.1769 237.032C86.9529 236.984 85.0489 238.872 85.0969 241.096ZM91.9929 241.112C91.9929 242.744 90.7449 244.024 89.1609 244.024C87.5769 244.024 86.3609 242.744 86.3609 241.112C86.3609 239.432 87.5769 238.168 89.1769 238.168C90.7609 238.168 91.9929 239.432 91.9929 241.112ZM95.3265 241.896C95.3265 243.864 96.7345 245.176 98.5585 245.176C100.367 245.176 101.775 243.864 101.775 241.896V237.208H100.543V241.976C100.543 243.208 99.6945 244.04 98.5585 244.04C97.4065 244.04 96.5425 243.24 96.5425 241.976V237.208H95.3265V241.896ZM108.52 237.208C108.312 237.16 108.12 237.144 107.944 237.144C107 237.144 106.088 237.56 105.528 238.312V237.208H104.376V245H105.608V240.584C105.608 239.144 106.744 238.296 108.056 238.296H108.52V237.208ZM122.609 241.096C122.609 238.808 120.977 237.032 118.753 237.032C117.537 237.032 116.401 237.56 115.809 238.456V237.208H114.657V247.88H115.889V243.88C116.529 244.696 117.601 245.176 118.753 245.176C120.945 245.176 122.609 243.384 122.609 241.096ZM121.345 241.112C121.345 242.792 120.161 244.04 118.577 244.04C117.137 244.04 115.873 243.08 115.873 241.096C115.873 239.128 117.185 238.168 118.577 238.168C120.161 238.168 121.345 239.432 121.345 241.112ZM128.91 237.208C128.702 237.16 128.51 237.144 128.334 237.144C127.39 237.144 126.478 237.56 125.918 238.312V237.208H124.766V245H125.998V240.584C125.998 239.144 127.134 238.296 128.446 238.296H128.91V237.208ZM129.847 241.096C129.815 243.288 131.687 245.208 133.911 245.16C136.135 245.208 138.055 243.288 138.007 241.096C138.055 238.872 136.151 237 133.927 237.032C131.703 236.984 129.799 238.872 129.847 241.096ZM136.743 241.112C136.743 242.744 135.495 244.024 133.911 244.024C132.327 244.024 131.111 242.744 131.111 241.112C131.111 239.432 132.327 238.168 133.927 238.168C135.511 238.168 136.743 239.432 136.743 241.112ZM146.493 237.208V238.456C145.901 237.56 144.765 237.032 143.533 237.032C141.341 237.032 139.709 238.744 139.709 240.984C139.709 243.24 141.341 244.92 143.533 244.92C144.701 244.92 145.805 244.44 146.429 243.624V244.312C146.429 245.992 145.453 246.92 143.837 246.92C142.669 246.92 141.805 246.456 140.924 245.688L140.205 246.552C141.085 247.432 142.349 248.056 143.869 248.056C146.173 248.056 147.661 246.616 147.661 244.248V237.208H146.493ZM146.445 240.984C146.445 242.872 145.149 243.784 143.725 243.784C142.141 243.784 140.957 242.648 140.957 241C140.957 239.368 142.141 238.2 143.725 238.2C145.133 238.2 146.445 239.112 146.445 240.984ZM154.504 237.208C154.296 237.16 154.104 237.144 153.928 237.144C152.984 237.144 152.072 237.56 151.512 238.312V237.208H150.36V245H151.592V240.584C151.592 239.144 152.728 238.296 154.04 238.296H154.504V237.208ZM162.881 241.48C162.945 241.16 162.977 240.856 162.977 240.552C162.977 238.488 161.441 237.032 159.425 237.032C157.201 237.032 155.441 238.856 155.441 241.112C155.441 243.4 157.249 245.176 159.569 245.176C160.801 245.176 161.873 244.664 162.689 243.816L161.969 242.984C161.265 243.688 160.465 244.04 159.585 244.04C158.049 244.04 156.865 243.016 156.721 241.48H162.881ZM156.769 240.392C157.041 239.048 158.097 238.152 159.393 238.152C160.689 238.152 161.697 239 161.713 240.392H156.769ZM164.405 243.656C165.093 244.552 166.149 245.176 167.445 245.176C168.213 245.176 168.853 244.984 169.381 244.584C169.909 244.184 170.181 243.608 170.181 242.888C170.181 241.816 169.573 241.208 168.117 240.584L167.397 240.28C166.453 239.88 166.133 239.64 166.133 239.144C166.133 238.52 166.661 238.168 167.429 238.168C168.149 238.168 168.821 238.504 169.349 239.032L170.101 238.264C169.461 237.496 168.581 237.032 167.493 237.032C166.005 237.032 164.869 237.848 164.869 239.208C164.869 240.248 165.509 240.84 166.805 241.368L167.557 241.688C168.517 242.072 168.917 242.312 168.917 242.936C168.917 243.624 168.277 244.04 167.429 244.04C166.549 244.04 165.941 243.608 165.189 242.84L164.405 243.656ZM171.671 243.656C172.359 244.552 173.415 245.176 174.711 245.176C175.479 245.176 176.119 244.984 176.647 244.584C177.175 244.184 177.447 243.608 177.447 242.888C177.447 241.816 176.839 241.208 175.383 240.584L174.663 240.28C173.719 239.88 173.399 239.64 173.399 239.144C173.399 238.52 173.927 238.168 174.695 238.168C175.415 238.168 176.087 238.504 176.615 239.032L177.367 238.264C176.727 237.496 175.847 237.032 174.759 237.032C173.271 237.032 172.135 237.848 172.135 239.208C172.135 240.248 172.775 240.84 174.071 241.368L174.823 241.688C175.783 242.072 176.183 242.312 176.183 242.936C176.183 243.624 175.543 244.04 174.695 244.04C173.815 244.04 173.207 243.608 172.455 242.84L171.671 243.656ZM194.185 237.208L191.977 242.936L189.353 237.032H188.889L186.297 242.984L184.041 237.208H182.729L186.041 245.176H186.473L189.113 239.288L191.769 245.176H192.217L195.497 237.208H194.185ZM197.282 245H198.514V237.208H197.282V245ZM196.978 234.232C196.978 234.744 197.394 235.128 197.906 235.128C198.418 235.128 198.818 234.744 198.818 234.232C198.818 233.736 198.402 233.336 197.906 233.336C197.394 233.336 196.978 233.736 196.978 234.232ZM205.475 243.96C205.075 244.024 204.739 244.056 204.435 244.056C203.363 244.056 202.787 243.672 202.787 242.568V238.312H205.219V237.208H202.787V235.08H201.555V237.208H200.243V238.312H201.555V242.648C201.555 244.36 202.563 245.176 204.179 245.176C204.547 245.176 204.979 245.112 205.475 245V243.96ZM213.761 240.104C213.761 238.264 212.673 237.032 210.881 237.032C209.905 237.032 209.073 237.432 208.545 238.088V233H207.313V245H208.545V240.264C208.545 239.048 209.393 238.168 210.593 238.168C211.793 238.168 212.529 239 212.529 240.264V245H213.761V240.104ZM41.312 265.096C41.312 262.808 39.68 261.032 37.456 261.032C36.24 261.032 35.104 261.56 34.512 262.456V261.208H33.36V271.88H34.592V267.88C35.232 268.696 36.304 269.176 37.456 269.176C39.648 269.176 41.312 267.384 41.312 265.096ZM40.048 265.112C40.048 266.792 38.864 268.04 37.28 268.04C35.84 268.04 34.576 267.08 34.576 265.096C34.576 263.128 35.888 262.168 37.28 262.168C38.864 262.168 40.048 263.432 40.048 265.112ZM49.9174 264.104C49.9174 262.264 48.8294 261.032 47.0374 261.032C46.0614 261.032 45.2294 261.432 44.7014 262.088V257H43.4694V269H44.7014V264.264C44.7014 263.048 45.5494 262.168 46.7494 262.168C47.9494 262.168 48.6854 263 48.6854 264.264V269H49.9174V264.104ZM51.9719 265.096C51.9399 267.288 53.8119 269.208 56.0359 269.16C58.2599 269.208 60.1799 267.288 60.1319 265.096C60.1799 262.872 58.2759 261 56.0519 261.032C53.8279 260.984 51.9239 262.872 51.9719 265.096ZM58.8679 265.112C58.8679 266.744 57.6199 268.024 56.0359 268.024C54.4519 268.024 53.2359 266.744 53.2359 265.112C53.2359 263.432 54.4519 262.168 56.0519 262.168C57.6359 262.168 58.8679 263.432 58.8679 265.112ZM66.5535 267.96C66.1535 268.024 65.8175 268.056 65.5135 268.056C64.4415 268.056 63.8655 267.672 63.8655 266.568V262.312H66.2975V261.208H63.8655V259.08H62.6335V261.208H61.3215V262.312H62.6335V266.648C62.6335 268.36 63.6415 269.176 65.2575 269.176C65.6255 269.176 66.0575 269.112 66.5535 269V267.96ZM67.675 265.096C67.643 267.288 69.515 269.208 71.739 269.16C73.963 269.208 75.883 267.288 75.835 265.096C75.883 262.872 73.979 261 71.755 261.032C69.531 260.984 67.627 262.872 67.675 265.096ZM74.571 265.112C74.571 266.744 73.323 268.024 71.739 268.024C70.155 268.024 68.939 266.744 68.939 265.112C68.939 263.432 70.155 262.168 71.755 262.168C73.339 262.168 74.571 263.432 74.571 265.112ZM77.2646 267.656C77.9526 268.552 79.0086 269.176 80.3046 269.176C81.0726 269.176 81.7126 268.984 82.2406 268.584C82.7686 268.184 83.0406 267.608 83.0406 266.888C83.0406 265.816 82.4326 265.208 80.9766 264.584L80.2566 264.28C79.3126 263.88 78.9926 263.64 78.9926 263.144C78.9926 262.52 79.5206 262.168 80.2886 262.168C81.0086 262.168 81.6806 262.504 82.2086 263.032L82.9606 262.264C82.3206 261.496 81.4406 261.032 80.3526 261.032C78.8646 261.032 77.7286 261.848 77.7286 263.208C77.7286 264.248 78.3686 264.84 79.6646 265.368L80.4166 265.688C81.3766 266.072 81.7766 266.312 81.7766 266.936C81.7766 267.624 81.1366 268.04 80.2886 268.04C79.4086 268.04 78.8006 267.608 78.0486 266.84L77.2646 267.656ZM95.5906 264.2C95.5906 262.152 94.3906 261.032 92.5506 261.032C91.2546 261.032 90.0866 261.592 89.3826 262.744L90.1986 263.416C90.8386 262.584 91.5266 262.168 92.4706 262.168C93.6386 262.168 94.3586 262.856 94.3586 264.136V264.808H91.8946C90.2146 264.808 89.0946 265.656 89.0946 266.984C89.0946 268.328 90.2146 269.176 91.8146 269.176C92.9506 269.176 93.8626 268.76 94.4386 267.992V269H95.5906V264.2ZM94.3586 266.008C94.3586 267.208 93.2546 268.152 91.9746 268.152C91.0626 268.152 90.3586 267.704 90.3586 266.92C90.3586 266.2 90.9506 265.816 92.0386 265.816H94.3586V266.008ZM104.652 264.104C104.652 262.264 103.564 261.032 101.756 261.032C100.78 261.032 99.9318 261.4 99.3558 262.04V261.208H98.2038V269H99.4358V264.248C99.4358 263.032 100.284 262.168 101.484 262.168C102.684 262.168 103.42 263.016 103.42 264.248V269H104.652V264.104ZM113.442 257V262.36C112.818 261.528 111.73 261.032 110.562 261.032C108.37 261.032 106.706 262.824 106.706 265.112C106.706 267.4 108.37 269.176 110.562 269.176C111.778 269.176 112.914 268.648 113.506 267.768V269H114.674V257H113.442ZM113.458 265.112C113.458 267.08 112.146 268.04 110.738 268.04C109.154 268.04 107.97 266.776 107.97 265.096C107.97 263.416 109.154 262.168 110.738 262.168C112.146 262.168 113.458 263.128 113.458 265.112ZM121.124 267.656C121.812 268.552 122.868 269.176 124.164 269.176C124.932 269.176 125.572 268.984 126.1 268.584C126.628 268.184 126.9 267.608 126.9 266.888C126.9 265.816 126.292 265.208 124.836 264.584L124.116 264.28C123.172 263.88 122.852 263.64 122.852 263.144C122.852 262.52 123.38 262.168 124.148 262.168C124.868 262.168 125.54 262.504 126.068 263.032L126.82 262.264C126.18 261.496 125.3 261.032 124.212 261.032C122.724 261.032 121.588 261.848 121.588 263.208C121.588 264.248 122.228 264.84 123.524 265.368L124.276 265.688C125.236 266.072 125.636 266.312 125.636 266.936C125.636 267.624 124.996 268.04 124.148 268.04C123.268 268.04 122.66 267.608 121.908 266.84L121.124 267.656ZM135.574 264.104C135.574 262.264 134.486 261.032 132.694 261.032C131.718 261.032 130.886 261.432 130.358 262.088V257H129.126V269H130.358V264.264C130.358 263.048 131.206 262.168 132.406 262.168C133.606 262.168 134.342 263 134.342 264.264V269H135.574V264.104ZM144.028 264.2C144.028 262.152 142.828 261.032 140.988 261.032C139.692 261.032 138.524 261.592 137.82 262.744L138.636 263.416C139.276 262.584 139.964 262.168 140.908 262.168C142.076 262.168 142.796 262.856 142.796 264.136V264.808H140.332C138.652 264.808 137.532 265.656 137.532 266.984C137.532 268.328 138.652 269.176 140.252 269.176C141.388 269.176 142.3 268.76 142.876 267.992V269H144.028V264.2ZM142.796 266.008C142.796 267.208 141.692 268.152 140.412 268.152C139.5 268.152 138.796 267.704 138.796 266.92C138.796 266.2 139.388 265.816 140.476 265.816H142.796V266.008ZM150.785 261.208C150.577 261.16 150.385 261.144 150.209 261.144C149.265 261.144 148.353 261.56 147.793 262.312V261.208H146.641V269H147.873V264.584C147.873 263.144 149.009 262.296 150.321 262.296H150.785V261.208ZM159.162 265.48C159.226 265.16 159.258 264.856 159.258 264.552C159.258 262.488 157.722 261.032 155.706 261.032C153.482 261.032 151.722 262.856 151.722 265.112C151.722 267.4 153.53 269.176 155.85 269.176C157.082 269.176 158.154 268.664 158.97 267.816L158.25 266.984C157.546 267.688 156.746 268.04 155.866 268.04C154.33 268.04 153.146 267.016 153.002 265.48H159.162ZM153.05 264.392C153.322 263.048 154.378 262.152 155.674 262.152C156.97 262.152 157.978 263 157.994 264.392H153.05ZM175.935 261.208L173.727 266.936L171.103 261.032H170.639L168.047 266.984L165.791 261.208H164.479L167.791 269.176H168.223L170.863 263.288L173.519 269.176H173.967L177.247 261.208H175.935ZM179.032 269H180.264V261.208H179.032V269ZM178.728 258.232C178.728 258.744 179.144 259.128 179.656 259.128C180.168 259.128 180.568 258.744 180.568 258.232C180.568 257.736 180.152 257.336 179.656 257.336C179.144 257.336 178.728 257.736 178.728 258.232ZM187.225 267.96C186.825 268.024 186.489 268.056 186.185 268.056C185.113 268.056 184.537 267.672 184.537 266.568V262.312H186.969V261.208H184.537V259.08H183.305V261.208H181.993V262.312H183.305V266.648C183.305 268.36 184.313 269.176 185.929 269.176C186.297 269.176 186.729 269.112 187.225 269V267.96ZM195.511 264.104C195.511 262.264 194.423 261.032 192.631 261.032C191.655 261.032 190.823 261.432 190.295 262.088V257H189.063V269H190.295V264.264C190.295 263.048 191.143 262.168 192.343 262.168C193.543 262.168 194.279 263 194.279 264.264V269H195.511V264.104ZM208.146 261.208L205.57 267.416L202.994 261.208H201.666L204.898 268.76L204.482 269.688C204.082 270.632 203.538 270.936 202.722 270.936C202.498 270.936 202.178 270.904 201.778 270.856V271.896C202.178 272.008 202.578 272.056 202.978 272.056C204.178 272.056 205.026 271.448 205.618 270.088L209.458 261.208H208.146ZM210.363 265.096C210.331 267.288 212.203 269.208 214.427 269.16C216.651 269.208 218.571 267.288 218.523 265.096C218.571 262.872 216.667 261 214.443 261.032C212.219 260.984 210.315 262.872 210.363 265.096ZM217.259 265.112C217.259 266.744 216.011 268.024 214.427 268.024C212.843 268.024 211.627 266.744 211.627 265.112C211.627 263.432 212.843 262.168 214.443 262.168C216.027 262.168 217.259 263.432 217.259 265.112ZM220.592 265.896C220.592 267.864 222 269.176 223.824 269.176C225.632 269.176 227.04 267.864 227.04 265.896V261.208H225.808V265.976C225.808 267.208 224.96 268.04 223.824 268.04C222.672 268.04 221.808 267.24 221.808 265.976V261.208H220.592V265.896ZM233.785 261.208C233.577 261.16 233.385 261.144 233.209 261.144C232.265 261.144 231.353 261.56 230.793 262.312V261.208H229.641V269H230.873V264.584C230.873 263.144 232.009 262.296 233.321 262.296H233.785V261.208ZM32.8 289.096C32.8 291.352 34.624 293.176 36.88 293.176C38.24 293.176 39.376 292.52 40.08 291.48L39.2 290.792C38.576 291.624 37.808 292.04 36.896 292.04C35.28 292.04 34.064 290.728 34.064 289.096C34.064 287.48 35.28 286.168 36.896 286.168C37.808 286.168 38.592 286.584 39.216 287.432L40.096 286.728C39.392 285.688 38.24 285.032 36.88 285.032C34.656 285 32.752 286.872 32.8 289.096ZM48.0125 288.2C48.0125 286.152 46.8125 285.032 44.9725 285.032C43.6765 285.032 42.5085 285.592 41.8045 286.744L42.6205 287.416C43.2605 286.584 43.9485 286.168 44.8925 286.168C46.0605 286.168 46.7805 286.856 46.7805 288.136V288.808H44.3165C42.6365 288.808 41.5165 289.656 41.5165 290.984C41.5165 292.328 42.6365 293.176 44.2365 293.176C45.3725 293.176 46.2845 292.76 46.8605 291.992V293H48.0125V288.2ZM46.7805 290.008C46.7805 291.208 45.6765 292.152 44.3965 292.152C43.4845 292.152 42.7805 291.704 42.7805 290.92C42.7805 290.2 43.3725 289.816 44.4605 289.816H46.7805V290.008ZM54.7696 285.208C54.5616 285.16 54.3696 285.144 54.1936 285.144C53.2496 285.144 52.3376 285.56 51.7776 286.312V285.208H50.6256V293H51.8576V288.584C51.8576 287.144 52.9936 286.296 54.3056 286.296H54.7696V285.208ZM63.1463 289.48C63.2103 289.16 63.2423 288.856 63.2423 288.552C63.2423 286.488 61.7063 285.032 59.6903 285.032C57.4663 285.032 55.7063 286.856 55.7063 289.112C55.7063 291.4 57.5143 293.176 59.8343 293.176C61.0663 293.176 62.1383 292.664 62.9543 291.816L62.2343 290.984C61.5303 291.688 60.7303 292.04 59.8503 292.04C58.3143 292.04 57.1303 291.016 56.9863 289.48H63.1463ZM57.0343 288.392C57.3063 287.048 58.3623 286.152 59.6583 286.152C60.9543 286.152 61.9623 287 61.9783 288.392H57.0343ZM74.1473 291.96C73.7473 292.024 73.4113 292.056 73.1073 292.056C72.0353 292.056 71.4593 291.672 71.4593 290.568V286.312H73.8913V285.208H71.4593V283.08H70.2273V285.208H68.9153V286.312H70.2273V290.648C70.2273 292.36 71.2353 293.176 72.8513 293.176C73.2193 293.176 73.6513 293.112 74.1473 293V291.96ZM82.7088 289.48C82.7728 289.16 82.8048 288.856 82.8048 288.552C82.8048 286.488 81.2688 285.032 79.2528 285.032C77.0288 285.032 75.2688 286.856 75.2688 289.112C75.2688 291.4 77.0768 293.176 79.3968 293.176C80.6288 293.176 81.7008 292.664 82.5168 291.816L81.7968 290.984C81.0928 291.688 80.2928 292.04 79.4128 292.04C77.8768 292.04 76.6928 291.016 76.5488 289.48H82.7088ZM76.5968 288.392C76.8688 287.048 77.9248 286.152 79.2208 286.152C80.5168 286.152 81.5248 287 81.5408 288.392H76.5968ZM90.8094 288.2C90.8094 286.152 89.6094 285.032 87.7694 285.032C86.4734 285.032 85.3054 285.592 84.6014 286.744L85.4174 287.416C86.0574 286.584 86.7454 286.168 87.6894 286.168C88.8574 286.168 89.5774 286.856 89.5774 288.136V288.808H87.1134C85.4334 288.808 84.3134 289.656 84.3134 290.984C84.3134 292.328 85.4334 293.176 87.0334 293.176C88.1694 293.176 89.0814 292.76 89.6574 291.992V293H90.8094V288.2ZM89.5774 290.008C89.5774 291.208 88.4734 292.152 87.1934 292.152C86.2814 292.152 85.5774 291.704 85.5774 290.92C85.5774 290.2 86.1694 289.816 87.2574 289.816H89.5774V290.008ZM104.799 288.104C104.799 286.248 103.759 285.032 101.967 285.032C100.815 285.032 99.8705 285.56 99.2945 286.376C98.8465 285.528 98.0305 285.032 96.8945 285.032C95.9345 285.032 95.1345 285.384 94.5745 286.024V285.208H93.4225V293H94.6545V288.264C94.6545 287.032 95.4705 286.168 96.6385 286.168C97.7745 286.168 98.4945 287 98.4945 288.264V293H99.7265V288.152C99.7265 287.048 100.559 286.168 101.727 286.168C102.879 286.168 103.567 287 103.567 288.264V293H104.799V288.104ZM111.331 289.096C111.299 291.288 113.171 293.208 115.395 293.16C117.619 293.208 119.539 291.288 119.491 289.096C119.539 286.872 117.635 285 115.411 285.032C113.187 284.984 111.283 286.872 111.331 289.096ZM118.227 289.112C118.227 290.744 116.979 292.024 115.395 292.024C113.811 292.024 112.595 290.744 112.595 289.112C112.595 287.432 113.811 286.168 115.411 286.168C116.995 286.168 118.227 287.432 118.227 289.112ZM128.105 288.104C128.105 286.264 127.017 285.032 125.209 285.032C124.233 285.032 123.385 285.4 122.809 286.04V285.208H121.657V293H122.889V288.248C122.889 287.032 123.737 286.168 124.937 286.168C126.137 286.168 126.873 287.016 126.873 288.248V293H128.105V288.104ZM130.719 293H131.951V281H130.719V293ZM134.657 293H135.889V285.208H134.657V293ZM134.353 282.232C134.353 282.744 134.769 283.128 135.281 283.128C135.793 283.128 136.193 282.744 136.193 282.232C136.193 281.736 135.777 281.336 135.281 281.336C134.769 281.336 134.353 281.736 134.353 282.232ZM145.042 288.104C145.042 286.264 143.954 285.032 142.146 285.032C141.17 285.032 140.322 285.4 139.746 286.04V285.208H138.594V293H139.826V288.248C139.826 287.032 140.674 286.168 141.874 286.168C143.074 286.168 143.81 287.016 143.81 288.248V293H145.042V288.104ZM154.537 289.48C154.601 289.16 154.633 288.856 154.633 288.552C154.633 286.488 153.097 285.032 151.081 285.032C148.857 285.032 147.097 286.856 147.097 289.112C147.097 291.4 148.905 293.176 151.225 293.176C152.457 293.176 153.529 292.664 154.345 291.816L153.625 290.984C152.921 291.688 152.121 292.04 151.241 292.04C149.705 292.04 148.521 291.016 148.377 289.48H154.537ZM148.425 288.392C148.697 287.048 149.753 286.152 151.049 286.152C152.345 286.152 153.353 287 153.369 288.392H148.425ZM156.67 292.168C156.67 292.744 157.118 293.176 157.678 293.176C158.238 293.176 158.686 292.744 158.686 292.168C158.686 291.592 158.238 291.16 157.678 291.16C157.118 291.16 156.67 291.592 156.67 292.168Z" fill="#6C6A7C"/>
<rect x="12.75" y="0.75" width="268.5" height="318.5" rx="19.25" stroke="#F2F4F7" stroke-width="1.5"/>
</g>
<defs>
<filter id="filter0_dd_2274_13872" x="0" y="0" width="294" height="344" filterUnits="userSpaceOnUse" color-interpolation-filters="sRGB">
<feFlood flood-opacity="0" result="BackgroundImageFix"/>
<feColorMatrix in="SourceAlpha" type="matrix" values="0 0 0 0 0 0 0 0 0 0 0 0 0 0 0 0 0 0 127 0" result="hardAlpha"/>
<feMorphology radius="2" operator="erode" in="SourceAlpha" result="effect1_dropShadow_2274_13872"/>
<feOffset dy="4"/>
<feGaussianBlur stdDeviation="3"/>
<feColorMatrix type="matrix" values="0 0 0 0 0.192157 0 0 0 0 0.2 0 0 0 0 0.215686 0 0 0 0.05 0"/>
<feBlend mode="normal" in2="BackgroundImageFix" result="effect1_dropShadow_2274_13872"/>
<feColorMatrix in="SourceAlpha" type="matrix" values="0 0 0 0 0 0 0 0 0 0 0 0 0 0 0 0 0 0 127 0" result="hardAlpha"/>
<feMorphology radius="4" operator="erode" in="SourceAlpha" result="effect2_dropShadow_2274_13872"/>
<feOffset dy="12"/>
<feGaussianBlur stdDeviation="8"/>
<feColorMatrix type="matrix" values="0 0 0 0 0.192157 0 0 0 0 0.2 0 0 0 0 0.215686 0 0 0 0.1 0"/>
<feBlend mode="normal" in2="effect1_dropShadow_2274_13872" result="effect2_dropShadow_2274_13872"/>
<feBlend mode="normal" in="SourceGraphic" in2="effect2_dropShadow_2274_13872" result="shape"/>
</filter>
<clipPath id="clip0_2274_13872">
<rect x="32" y="20" width="230" height="155" rx="12" fill="white"/>
</clipPath>
</defs>
</svg>
