<svg width="280" height="200" viewBox="0 0 280 200" fill="none" xmlns="http://www.w3.org/2000/svg">
<g clip-path="url(#clip0_2625_16172)">
<path d="M260.656 199.832L19.3134 200H19.1119V199.832L19 0.279799V0H19.2798L260.623 0.190278H260.712V0.268613L260.656 199.832ZM260.656 199.832L260.567 0.279799L260.656 0.369336L19.3134 0.559597L19.5932 0.279799L19.4813 199.832L19.3134 199.664L260.656 199.832Z" fill="#6C6A7C"/>
<path d="M29.8339 5.9543C29.832 6.71439 29.5383 7.44472 29.0135 7.99454C28.4886 8.54435 27.7727 8.87169 27.0136 8.90897C26.6189 8.92526 26.225 8.86344 25.8543 8.72708C25.4836 8.59071 25.1435 8.38248 24.8535 8.11434C24.557 7.8369 24.3206 7.50153 24.159 7.12901C23.9974 6.75649 23.9141 6.35476 23.9141 5.9487C23.9141 5.54264 23.9974 5.1409 24.159 4.76838C24.3206 4.39586 24.557 4.0605 24.8535 3.78306C25.2747 3.38636 25.8031 3.12207 26.3731 3.02294C26.9431 2.92381 27.5297 2.99422 28.0601 3.22544C28.5905 3.45666 29.0413 3.83851 29.3566 4.32361C29.672 4.80872 29.8379 5.37573 29.8339 5.9543V5.9543ZM29.8339 5.9543C29.8287 5.58615 29.7509 5.22264 29.605 4.88463C29.459 4.54661 29.2478 4.24074 28.9833 3.98452C28.6007 3.62757 28.1221 3.39017 27.6063 3.30149C27.0906 3.21281 26.5602 3.2767 26.0803 3.48533C25.6003 3.69396 25.1918 4.03824 24.9049 4.47586C24.6179 4.91348 24.4651 5.42539 24.4651 5.9487C24.4651 6.472 24.6179 6.98391 24.9049 7.42153C25.1918 7.85916 25.6003 8.20343 26.0803 8.41207C26.5602 8.6207 27.0906 8.6846 27.6063 8.59592C28.1221 8.50724 28.6007 8.26984 28.9833 7.91289C29.2469 7.65837 29.4577 7.35438 29.6037 7.0183C29.7496 6.68222 29.8279 6.32065 29.8339 5.9543V5.9543Z" fill="#6C6A7C"/>
<path d="M41.3496 5.9543C41.3476 6.71439 41.0539 7.44472 40.5291 7.99454C40.0043 8.54435 39.2884 8.87169 38.5292 8.90897C38.1346 8.92526 37.7406 8.86344 37.3699 8.72708C36.9992 8.59071 36.6591 8.38248 36.3691 8.11434C36.0726 7.8369 35.8363 7.50153 35.6747 7.12901C35.5131 6.75649 35.4297 6.35476 35.4297 5.9487C35.4297 5.54264 35.5131 5.1409 35.6747 4.76838C35.8363 4.39586 36.0726 4.0605 36.3691 3.78306C36.7903 3.38636 37.3187 3.12207 37.8887 3.02294C38.4588 2.92381 39.0453 2.99422 39.5757 3.22544C40.1061 3.45666 40.5569 3.83851 40.8723 4.32361C41.1876 4.80872 41.3535 5.37573 41.3496 5.9543V5.9543ZM41.3496 5.9543C41.3443 5.58615 41.2665 5.22264 41.1206 4.88463C40.9746 4.54661 40.7634 4.24074 40.499 3.98452C40.1163 3.62757 39.6377 3.39017 39.122 3.30149C38.6062 3.21281 38.0758 3.2767 37.5959 3.48533C37.116 3.69396 36.7075 4.03824 36.4205 4.47586C36.1336 4.91348 35.9807 5.42539 35.9807 5.9487C35.9807 6.472 36.1336 6.98391 36.4205 7.42153C36.7075 7.85916 37.116 8.20343 37.5959 8.41207C38.0758 8.6207 38.6062 8.6846 39.122 8.59592C39.6377 8.50724 40.1163 8.26984 40.499 7.91289C40.7625 7.65837 40.9733 7.35438 41.1193 7.0183C41.2652 6.68222 41.3435 6.32065 41.3496 5.9543V5.9543Z" fill="#6C6A7C"/>
<path d="M52.8785 5.95409C52.8766 6.71418 52.5829 7.44451 52.0581 7.99432C51.5332 8.54414 50.8173 8.87147 50.0582 8.90876C49.2577 8.94218 48.4767 8.65635 47.8869 8.11412C47.3087 7.54197 46.9756 6.76738 46.958 5.95409C46.9678 5.13587 47.3019 4.35499 47.8869 3.78285C48.4767 3.24062 49.2577 2.95481 50.0582 2.98823C50.8193 3.02561 51.5368 3.3545 52.0619 3.90671C52.587 4.45892 52.8795 5.19206 52.8785 5.95409V5.95409ZM52.8785 5.95409C52.8639 5.20919 52.5539 4.50065 52.0168 3.98431C51.6341 3.62736 51.1555 3.38996 50.6398 3.30128C50.124 3.2126 49.5936 3.27649 49.1137 3.48512C48.6338 3.69375 48.2253 4.03803 47.9383 4.47565C47.6514 4.91327 47.4985 5.42518 47.4985 5.94849C47.4985 6.47179 47.6514 6.9837 47.9383 7.42132C48.2253 7.85894 48.6338 8.20322 49.1137 8.41185C49.5936 8.62048 50.124 8.68439 50.6398 8.59571C51.1555 8.50703 51.6341 8.26963 52.0168 7.91268C52.5522 7.39978 52.8621 6.69534 52.8785 5.95409V5.95409Z" fill="#6C6A7C"/>
<path d="M19.3135 11.4942L49.4758 11.3599L79.6492 11.3151L139.985 11.2144L200.321 11.3151L230.494 11.3599L260.657 11.4942L230.494 11.6397L200.321 11.6844L139.985 11.774L79.6492 11.6844L49.4758 11.6285L19.3135 11.4942Z" fill="#6C6A7C"/>
<path d="M185.425 140.571H94.0762V63.3017L139.739 34.2922L185.425 63.3017V140.571Z" fill="#FFAA00"/>
<path opacity="0.2" d="M185.425 140.571H94.0762V63.3017L139.739 34.2922L185.425 63.3017V140.571Z" fill="#403E48"/>
<path d="M180.276 134.661H99.2236V30.6211H159.403L180.276 50.442V134.661Z" fill="white"/>
<path d="M180.276 134.661L99.2242 134.93H98.9668V134.661L98.8213 30.5762V30.1621H99.2354L159.414 30.2628H159.549L159.638 30.3524L180.478 50.2069L180.556 50.2852V50.3971L180.467 92.5796L180.276 134.661ZM180.276 134.661L180.008 50.4419L180.086 50.6433L159.191 30.856L159.403 30.9344L99.2242 31.0351L99.6943 30.5762L99.5488 134.661L99.2802 134.393L180.276 134.661Z" fill="#6C6A7C"/>
<path d="M159.403 30.6211L180.276 50.442H159.403V30.6211Z" fill="#E1E0E6"/>
<path d="M107.137 50.7441L152.195 50.7441V48.0693L107.137 48.0693V50.7441Z" fill="#E1E0E6"/>
<path d="M107.137 57.4929L152.195 57.4929V54.818L107.137 54.818V57.4929Z" fill="#E1E0E6"/>
<path d="M107.137 64.2305H152.195V61.5556L107.137 61.5556V64.2305Z" fill="#E1E0E6"/>
<path d="M107.137 70.9792L173.158 70.9792V68.3044L107.137 68.3044V70.9792Z" fill="#E1E0E6"/>
<path d="M107.137 77.7168L173.158 77.7168V75.0419L107.137 75.0419V77.7168Z" fill="#E1E0E6"/>
<path d="M107.137 84.4656L173.158 84.4656V81.7907L107.137 81.7907V84.4656Z" fill="#E1E0E6"/>
<path d="M107.137 91.2031L173.158 91.2031V88.5283L107.137 88.5283V91.2031Z" fill="#E1E0E6"/>
<path d="M107.137 97.9519L173.158 97.9519V95.277L107.137 95.277V97.9519Z" fill="#E1E0E6"/>
<path d="M107.137 104.689L173.158 104.689V102.015L107.137 102.015V104.689Z" fill="#E1E0E6"/>
<path d="M107.137 111.438L173.158 111.438V108.763L107.137 108.763V111.438Z" fill="#E1E0E6"/>
<path d="M107.137 118.187L173.158 118.187V115.512L107.137 115.512V118.187Z" fill="#E1E0E6"/>
<path d="M107.137 124.936L173.158 124.936V122.261L107.137 122.261V124.936Z" fill="#E1E0E6"/>
<path d="M185.424 82.6411V140.571H94.0977V82.6411C98.026 84.8795 101.932 87.1962 105.76 89.4682C109.587 91.7402 113.493 94.1129 117.332 96.4744C121.615 99.0858 125.89 101.727 130.158 104.398L130.304 104.32C130.304 104.32 130.236 104.387 130.192 104.409L139.783 110.408C142.962 108.405 146.163 106.39 149.352 104.409C149.317 104.377 149.28 104.347 149.24 104.32L149.386 104.387C153.654 101.723 157.929 99.0783 162.212 96.452C166.051 94.1128 169.901 91.7737 173.773 89.4682C177.645 87.1626 181.507 84.8683 185.424 82.6411Z" fill="#FFAA00"/>
<g opacity="0.2">
<path opacity="0.2" d="M185.425 82.6414C181.742 85.2379 177.982 87.7225 174.233 90.2743C170.483 92.826 166.734 95.2659 162.962 97.7281C159.023 100.317 155.076 102.876 151.121 105.406L150.763 105.652L140.243 112.367L139.717 112.681L139.213 112.367L128.704 105.652L128.335 105.428C124.373 102.888 120.422 100.336 116.482 97.7393C112.722 95.2882 108.961 92.7924 105.223 90.2966C101.485 87.8008 97.747 85.2603 94.0312 82.6637C97.9596 84.9021 101.866 87.2189 105.693 89.4908C109.521 91.7628 113.427 94.1355 117.266 96.497C121.548 99.1084 125.824 101.75 130.092 104.421L139.683 110.42C142.862 108.416 146.063 106.402 149.252 104.421C153.52 101.757 157.795 99.1122 162.078 96.4858C165.917 94.1467 169.767 91.8075 173.64 89.502C177.512 87.1965 181.507 84.8686 185.425 82.6414Z" fill="#403E48"/>
<path opacity="0.2" d="M130.283 104.32C130.283 104.32 130.216 104.387 130.171 104.41C129.69 104.824 129.208 105.238 128.727 105.63C126.489 107.566 124.094 109.424 121.71 111.225C118.8 113.464 115.823 115.579 112.835 117.694C109.846 119.81 106.802 121.824 103.724 123.794C100.647 125.764 97.5241 127.7 94.3008 129.48C97.0652 127.051 99.8968 124.779 102.851 122.574C105.806 120.369 108.761 118.22 111.738 116.116C114.715 114.012 117.77 111.975 120.859 109.994C123.31 108.416 125.806 106.872 128.358 105.417C128.951 105.07 129.544 104.745 130.137 104.41L130.283 104.32Z" fill="#403E48"/>
<path opacity="0.2" d="M185.211 129.468C181.988 127.689 178.854 125.764 175.787 123.783C172.721 121.802 169.677 119.754 166.655 117.683C163.633 115.613 160.69 113.442 157.78 111.214C155.407 109.424 153.068 107.577 150.785 105.618L149.33 104.376C149.295 104.344 149.257 104.314 149.218 104.287L149.363 104.354L151.143 105.372C153.695 106.827 156.179 108.372 158.653 109.95C161.73 111.931 164.752 113.979 167.752 116.072C170.751 118.165 173.728 120.302 176.638 122.529C179.548 124.757 182.435 127.04 185.211 129.468Z" fill="#403E48"/>
</g>
<path d="M76.2686 150.028L92.1947 149.894L108.121 149.849L139.984 149.748L171.848 149.849L187.774 149.894L203.7 150.028L187.774 150.174L171.848 150.218L139.984 150.308L108.121 150.218L92.1947 150.162L76.2686 150.028Z" fill="#6C6A7C"/>
<path d="M98.418 154.941C105.342 154.837 112.27 154.766 119.201 154.729L139.985 154.661L160.768 154.729C167.7 154.729 174.628 154.799 181.552 154.941C174.628 155.038 167.7 155.109 160.768 155.154L139.985 155.221L119.201 155.154C112.277 155.124 105.35 155.053 98.418 154.941Z" fill="#6C6A7C"/>
<path d="M168.515 165H111C105.477 165 101 169.477 101 175C101 180.523 105.477 185 111 185H168.515C174.038 185 178.515 180.523 178.515 175C178.515 169.477 174.038 165 168.515 165Z" fill="#FFAA00"/>
<path d="M124.487 171L122.017 176.967L119.547 171H118L121.783 179.723H122.251L126.034 171H124.487Z" fill="white"/>
<path d="M127.79 179.58H133.588V178.345H129.168V175.628H132.379V174.432H129.168V172.235H133.432V171H127.79V179.58Z" fill="white"/>
<path d="M142.55 179.58L139.976 176.044C141.003 175.641 141.627 174.757 141.627 173.626C141.627 172.079 140.444 171 138.715 171H135.582V179.58H136.96V176.265H138.533L140.977 179.58H142.55ZM136.96 172.222H138.689C139.638 172.222 140.21 172.794 140.21 173.639C140.21 174.471 139.638 175.043 138.689 175.043H136.96V172.222Z" fill="white"/>
<path d="M144.173 179.58H145.551V171H144.173V179.58Z" fill="white"/>
<path d="M148.105 179.58H149.483V176.044H152.889V174.796H149.483V172.235H153.617V171H148.105V179.58Z" fill="white"/>
<path d="M161.98 171H160.459L158.327 174.731L156.208 171H154.674L157.638 176.122V179.58H159.016V176.122L161.98 171Z" fill="white"/>
</g>
<defs>
<clipPath id="clip0_2625_16172">
<rect width="280" height="200" fill="white"/>
</clipPath>
</defs>
</svg>
