<svg width="242" height="200" viewBox="0 0 242 200" fill="none" xmlns="http://www.w3.org/2000/svg">
<path d="M241.656 199.832L0.313373 200H0.111926V199.832L0 0.279799V0H0.279799L241.623 0.190278H241.712V0.268613L241.656 199.832ZM241.656 199.832L241.567 0.279799L241.656 0.369336L0.313373 0.559597L0.593172 0.279799L0.481262 199.832L0.313373 199.664L241.656 199.832Z" fill="#6C6A7C"/>
<path d="M10.8339 5.9543C10.832 6.71439 10.5383 7.44472 10.0135 7.99454C9.48863 8.54435 8.77273 8.87169 8.01355 8.90897C7.61892 8.92526 7.22496 8.86344 6.85428 8.72708C6.4836 8.59071 6.14351 8.38248 5.85352 8.11434C5.55702 7.8369 5.32064 7.50153 5.15904 7.12901C4.99744 6.75649 4.91406 6.35476 4.91406 5.9487C4.91406 5.54264 4.99744 5.1409 5.15904 4.76838C5.32064 4.39586 5.55702 4.0605 5.85352 3.78306C6.2747 3.38636 6.80308 3.12207 7.37311 3.02294C7.94314 2.92381 8.52972 2.99422 9.0601 3.22544C9.59047 3.45666 10.0413 3.83851 10.3566 4.32361C10.672 4.80872 10.8379 5.37573 10.8339 5.9543V5.9543ZM10.8339 5.9543C10.8287 5.58615 10.7509 5.22264 10.605 4.88463C10.459 4.54661 10.2478 4.24074 9.98334 3.98452C9.60068 3.62757 9.12207 3.39017 8.60633 3.30149C8.09059 3.21281 7.56018 3.2767 7.08026 3.48533C6.60035 3.69396 6.19183 4.03824 5.90488 4.47586C5.61794 4.91348 5.46509 5.42539 5.46509 5.9487C5.46509 6.472 5.61794 6.98391 5.90488 7.42153C6.19183 7.85916 6.60035 8.20343 7.08026 8.41207C7.56018 8.6207 8.09059 8.6846 8.60633 8.59592C9.12207 8.50724 9.60068 8.26984 9.98334 7.91289C10.2469 7.65837 10.4577 7.35438 10.6037 7.0183C10.7496 6.68222 10.8279 6.32065 10.8339 5.9543V5.9543Z" fill="#6C6A7C"/>
<path d="M22.3496 5.9543C22.3476 6.71439 22.0539 7.44472 21.5291 7.99454C21.0043 8.54435 20.2884 8.87169 19.5292 8.90897C19.1346 8.92526 18.7406 8.86344 18.3699 8.72708C17.9992 8.59071 17.6591 8.38248 17.3691 8.11434C17.0726 7.8369 16.8363 7.50153 16.6747 7.12901C16.5131 6.75649 16.4297 6.35476 16.4297 5.9487C16.4297 5.54264 16.5131 5.1409 16.6747 4.76838C16.8363 4.39586 17.0726 4.0605 17.3691 3.78306C17.7903 3.38636 18.3187 3.12207 18.8887 3.02294C19.4588 2.92381 20.0453 2.99422 20.5757 3.22544C21.1061 3.45666 21.5569 3.83851 21.8723 4.32361C22.1876 4.80872 22.3535 5.37573 22.3496 5.9543V5.9543ZM22.3496 5.9543C22.3443 5.58615 22.2665 5.22264 22.1206 4.88463C21.9746 4.54661 21.7634 4.24074 21.499 3.98452C21.1163 3.62757 20.6377 3.39017 20.122 3.30149C19.6062 3.21281 19.0758 3.2767 18.5959 3.48533C18.116 3.69396 17.7075 4.03824 17.4205 4.47586C17.1336 4.91348 16.9807 5.42539 16.9807 5.9487C16.9807 6.472 17.1336 6.98391 17.4205 7.42153C17.7075 7.85916 18.116 8.20343 18.5959 8.41207C19.0758 8.6207 19.6062 8.6846 20.122 8.59592C20.6377 8.50724 21.1163 8.26984 21.499 7.91289C21.7625 7.65837 21.9733 7.35438 22.1193 7.0183C22.2652 6.68222 22.3435 6.32065 22.3496 5.9543V5.9543Z" fill="#6C6A7C"/>
<path d="M33.8785 5.95409C33.8766 6.71418 33.5829 7.44451 33.0581 7.99432C32.5332 8.54414 31.8173 8.87147 31.0582 8.90876C30.2577 8.94218 29.4767 8.65635 28.8869 8.11412C28.3087 7.54197 27.9756 6.76738 27.958 5.95409C27.9678 5.13587 28.3019 4.35499 28.8869 3.78285C29.4767 3.24062 30.2577 2.95481 31.0582 2.98823C31.8193 3.02561 32.5368 3.3545 33.0619 3.90671C33.587 4.45892 33.8795 5.19206 33.8785 5.95409V5.95409ZM33.8785 5.95409C33.8639 5.20919 33.5539 4.50065 33.0168 3.98431C32.6341 3.62736 32.1555 3.38996 31.6398 3.30128C31.124 3.2126 30.5936 3.27649 30.1137 3.48512C29.6338 3.69375 29.2253 4.03803 28.9383 4.47565C28.6514 4.91327 28.4985 5.42518 28.4985 5.94849C28.4985 6.47179 28.6514 6.9837 28.9383 7.42132C29.2253 7.85894 29.6338 8.20322 30.1137 8.41185C30.5936 8.62048 31.124 8.68439 31.6398 8.59571C32.1555 8.50703 32.6341 8.26963 33.0168 7.91268C33.5522 7.39978 33.8621 6.69534 33.8785 5.95409V5.95409Z" fill="#6C6A7C"/>
<path d="M0.313477 11.4942L30.4758 11.3599L60.6492 11.3151L120.985 11.2144L181.321 11.3151L211.494 11.3599L241.657 11.4942L211.494 11.6397L181.321 11.6844L120.985 11.774L60.6492 11.6844L30.4758 11.6285L0.313477 11.4942Z" fill="#6C6A7C"/>
<path d="M166.425 140.571H75.0762V63.3017L120.739 34.2922L166.425 63.3017V140.571Z" fill="#81C27A"/>
<path opacity="0.2" d="M166.425 140.571H75.0762V63.3017L120.739 34.2922L166.425 63.3017V140.571Z" fill="#403E48"/>
<path d="M161.276 134.661H80.2236V30.6211H140.403L161.276 50.442V134.661Z" fill="white"/>
<path d="M88.1365 50.7441L133.195 50.7441V48.0693L88.1365 48.0693V50.7441Z" fill="#E1E0E6"/>
<path d="M88.1365 57.4929L133.195 57.4929V54.818L88.1365 54.818V57.4929Z" fill="#E1E0E6"/>
<path d="M88.1365 64.2305H133.195V61.5556L88.1365 61.5556V64.2305Z" fill="#E1E0E6"/>
<path d="M88.1369 70.9792L154.158 70.9792V68.3044L88.1369 68.3044V70.9792Z" fill="#E1E0E6"/>
<path d="M88.1369 77.7168L154.158 77.7168V75.0419L88.1369 75.0419V77.7168Z" fill="#E1E0E6"/>
<path d="M88.1369 84.4656L154.158 84.4656V81.7907L88.1369 81.7907V84.4656Z" fill="#E1E0E6"/>
<path d="M88.1369 91.2031L154.158 91.2031V88.5283L88.1369 88.5283V91.2031Z" fill="#E1E0E6"/>
<path d="M88.1369 97.9519L154.158 97.9519V95.277L88.1369 95.277V97.9519Z" fill="#E1E0E6"/>
<path d="M88.1369 104.689L154.158 104.689V102.015L88.1369 102.015V104.689Z" fill="#E1E0E6"/>
<path d="M88.1369 111.438L154.158 111.438V108.763L88.1369 108.763V111.438Z" fill="#E1E0E6"/>
<path d="M161.276 134.661L80.2242 134.93H79.9668V134.661L79.8213 30.5762V30.1621H80.2354L140.414 30.2628H140.549L140.638 30.3524L161.478 50.2069L161.556 50.2852V50.3971L161.467 92.5796L161.276 134.661ZM161.276 134.661L161.008 50.4419L161.086 50.6433L140.191 30.856L140.403 30.9344L80.2242 31.0351L80.6943 30.5762L80.5488 134.661L80.2802 134.393L161.276 134.661Z" fill="#6C6A7C"/>
<path d="M140.403 30.6211L161.276 50.442H140.403V30.6211Z" fill="#E1E0E6"/>
<path d="M88.1369 118.187L154.158 118.187V115.512L88.1369 115.512V118.187Z" fill="#E1E0E6"/>
<path d="M88.1369 124.936L154.158 124.936V122.261L88.1369 122.261V124.936Z" fill="#E1E0E6"/>
<path d="M166.424 82.6411V140.571H75.0977V82.6411C79.026 84.8795 82.932 87.1962 86.7597 89.4682C90.5873 91.7402 94.4933 94.1129 98.3321 96.4744C102.615 99.0858 106.89 101.727 111.158 104.398L111.304 104.32C111.304 104.32 111.236 104.387 111.192 104.409L120.783 110.408C123.962 108.405 127.163 106.39 130.352 104.409C130.317 104.377 130.28 104.347 130.24 104.32L130.386 104.387C134.654 101.723 138.929 99.0783 143.212 96.452C147.051 94.1128 150.901 91.7737 154.773 89.4682C158.645 87.1626 162.507 84.8683 166.424 82.6411Z" fill="#81C27A"/>
<g opacity="0.2">
<path opacity="0.2" d="M166.425 82.6414C162.742 85.2379 158.982 87.7225 155.233 90.2743C151.483 92.826 147.734 95.2659 143.962 97.7281C140.023 100.317 136.076 102.876 132.121 105.406L131.763 105.652L121.243 112.367L120.717 112.681L120.213 112.367L109.704 105.652L109.335 105.428C105.373 102.888 101.422 100.336 97.4823 97.7393C93.7218 95.2882 89.9613 92.7924 86.2232 90.2966C82.4851 87.8008 78.747 85.2603 75.0312 82.6637C78.9596 84.9021 82.8656 87.2189 86.6933 89.4908C90.5209 91.7628 94.4269 94.1355 98.2657 96.497C102.548 99.1084 106.824 101.75 111.092 104.421L120.683 110.42C123.862 108.416 127.063 106.402 130.252 104.421C134.52 101.757 138.795 99.1122 143.078 96.4858C146.917 94.1467 150.767 91.8075 154.64 89.502C158.512 87.1965 162.507 84.8686 166.425 82.6414Z" fill="#403E48"/>
<path opacity="0.2" d="M111.283 104.32C111.283 104.32 111.216 104.387 111.171 104.41C110.69 104.824 110.208 105.238 109.727 105.63C107.489 107.566 105.094 109.424 102.71 111.225C99.7999 113.464 96.8229 115.579 93.8347 117.694C90.8464 119.81 87.8022 121.824 84.7244 123.794C81.6466 125.764 78.5241 127.7 75.3008 129.48C78.0652 127.051 80.8968 124.779 83.8514 122.574C86.8061 120.369 89.7608 118.22 92.7378 116.116C95.7149 114.012 98.7703 111.975 101.859 109.994C104.31 108.416 106.806 106.872 109.358 105.417C109.951 105.07 110.544 104.745 111.137 104.41L111.283 104.32Z" fill="#403E48"/>
<path opacity="0.2" d="M166.211 129.468C162.988 127.689 159.854 125.764 156.787 123.783C153.721 121.802 150.677 119.754 147.655 117.683C144.633 115.613 141.69 113.442 138.78 111.214C136.407 109.424 134.068 107.577 131.785 105.618L130.33 104.376C130.295 104.344 130.257 104.314 130.218 104.287L130.363 104.354L132.143 105.372C134.695 106.827 137.179 108.372 139.653 109.95C142.73 111.931 145.752 113.979 148.752 116.072C151.751 118.165 154.728 120.302 157.638 122.529C160.548 124.757 163.435 127.04 166.211 129.468Z" fill="#403E48"/>
</g>
<path d="M57.2686 150.028L73.1947 149.894L89.1208 149.849L120.984 149.748L152.848 149.849L168.774 149.894L184.7 150.028L168.774 150.174L152.848 150.218L120.984 150.308L89.1208 150.218L73.1947 150.162L57.2686 150.028Z" fill="#6C6A7C"/>
<path d="M79.418 154.941C86.342 154.837 93.2699 154.766 100.201 154.729L120.985 154.661L141.768 154.729C148.7 154.729 155.628 154.799 162.552 154.941C155.628 155.038 148.7 155.109 141.768 155.154L120.985 155.221L100.201 155.154C93.2773 155.124 86.3495 155.053 79.418 154.941Z" fill="#6C6A7C"/>
<path d="M118.051 87L106 74.8023L110.049 70.8011L117.09 77.9275L131.712 55L136.513 58.0589L118.051 87Z" fill="#60B257"/>
<path d="M171.492 42.55C171.144 39.804 170.981 37.0378 171.002 34.27C170.982 31.5049 171.152 28.7417 171.512 26C172.178 31.4965 172.178 37.0535 171.512 42.55H171.492Z" fill="#403E48"/>
<path d="M178.532 45.18C181.952 40.8242 185.884 36.8959 190.242 33.48C188.554 35.6707 186.716 37.7422 184.742 39.68C182.799 41.6514 180.724 43.4889 178.532 45.18V45.18Z" fill="#403E48"/>
<path d="M181.642 52.0101C184.387 51.6577 187.154 51.4939 189.922 51.5201C192.687 51.492 195.45 51.6591 198.192 52.0201C195.45 52.3776 192.686 52.5413 189.922 52.5101C187.153 52.533 184.387 52.3659 181.642 52.0101V52.0101Z" fill="#403E48"/>
<path d="M179.012 59.04C183.371 62.4563 187.299 66.3883 190.712 70.75C188.523 69.0551 186.452 67.2143 184.512 65.2401C182.538 63.3021 180.701 61.2305 179.012 59.04V59.04Z" fill="#403E48"/>
</svg>
