<svg width="186" height="153" viewBox="0 0 186 153" fill="none" xmlns="http://www.w3.org/2000/svg">
<path d="M66.8559 9.19507C62.969 10.908 60.7073 15.1222 59.8607 19.2992C59.0141 23.4761 59.286 27.7958 58.9215 32.0472C58.5569 36.2986 57.3951 40.7363 54.3054 43.6595C51.4257 46.3903 47.1927 47.5013 44.7395 50.6231C43.8243 51.7855 43.218 53.1621 42.9774 54.6241C42.7368 56.0861 42.8697 57.5856 43.3638 58.9818C43.8579 60.3781 44.6969 61.6255 45.8022 62.6071C46.9075 63.5887 48.2428 64.2723 49.6831 64.5939C47.7427 67.6971 48.7129 71.9858 51.1971 74.6483C53.6812 77.3109 57.321 78.5832 60.9113 79.1294C67.2267 80.0976 73.9624 79.0301 79.2953 75.4986C84.6282 71.9671 88.3607 65.8352 88.3483 59.4239" fill="#263238"/>
<path d="M50.0169 72.2392C49.7178 71.8167 49.4863 71.3497 49.331 70.8552C48.895 69.5048 48.8099 68.0648 49.0838 66.672C49.2641 65.7096 49.563 64.7735 49.9737 63.8854C50.4683 62.8815 51.0669 61.9329 51.7596 61.0552C53.4076 59.117 55.1941 57.3019 57.1048 55.6246C58.9599 53.9039 60.6963 52.0583 62.3018 50.1008C63.6158 48.5054 64.7341 46.7571 65.6326 44.8936C66.2304 43.636 66.6824 42.3137 66.9797 40.9525C67.0971 40.4746 67.128 40.0898 67.1836 39.8353C67.1967 39.702 67.2257 39.5707 67.2701 39.4443C67.2839 39.5764 67.2839 39.7095 67.2701 39.8415C67.2331 40.1022 67.2207 40.4932 67.1218 40.9773C66.8675 42.3623 66.4398 43.7095 65.8489 44.9867C64.9732 46.8809 63.8646 48.6574 62.549 50.2746C60.9492 52.2585 59.2104 54.1252 57.3458 55.8604C55.4409 57.5264 53.6567 59.3267 52.0067 61.2476C51.317 62.1005 50.7223 63.0266 50.2332 64.0095C49.8169 64.8711 49.5116 65.7825 49.3248 66.7217C49.0351 68.0846 49.086 69.4983 49.4731 70.8366C49.6268 71.3145 49.8084 71.7828 50.0169 72.2392V72.2392Z" fill="#455A64"/>
<path d="M113.338 23.2134C113.338 28.9481 115.971 34.205 118.338 36.1414C121.693 38.8723 126.612 40.1942 129.85 41.1066C134.571 42.4286 138.501 46.5807 139.119 51.4714C139.737 56.362 136.524 61.5817 131.778 62.8105C134.763 65.8703 133.873 71.1334 131.42 74.6028C126.766 81.2375 117.479 83.7884 109.791 81.3306C102.104 78.8728 96.1965 72.0209 93.8853 64.2442" fill="#263238"/>
<path d="M125.08 79.7059C125.732 79.5639 126.35 79.2917 126.896 78.9053C127.526 78.4425 128.046 77.8446 128.417 77.1551C128.921 76.2504 129.201 75.237 129.232 74.2008C129.225 72.9461 128.895 71.7146 128.274 70.6259C127.56 69.3718 126.619 68.2626 125.5 67.3551C123.158 65.3752 119.975 64.1401 116.898 62.3899C115.382 61.5333 114.006 60.4468 112.819 59.1688C112.256 58.552 111.776 57.8633 111.392 57.1206C111.027 56.4081 110.757 55.6507 110.589 54.8677C110.314 53.42 110.247 51.9402 110.391 50.4735C110.496 49.1019 110.669 47.842 110.786 46.6814C111.053 44.8682 111.024 43.0234 110.7 41.2197C110.62 40.9094 110.545 40.6363 110.477 40.388C110.409 40.1398 110.311 39.9598 110.255 39.7984C110.186 39.6386 110.126 39.4749 110.076 39.3081C110.169 39.4549 110.248 39.6109 110.311 39.7736C110.379 39.935 110.484 40.1212 110.564 40.357L110.817 41.1949C111.193 43.0078 111.255 44.872 111.003 46.7062C110.898 47.8668 110.737 49.1329 110.644 50.4921C110.512 51.9436 110.587 53.4066 110.867 54.8367C111.206 56.3939 111.958 57.8304 113.042 58.995C114.21 60.2481 115.562 61.3135 117.052 62.1541C120.099 63.9105 123.3 65.1642 125.704 67.1937C126.845 68.1271 127.801 69.2683 128.522 70.5576C129.16 71.693 129.488 72.9776 129.473 74.2815C129.432 75.3508 129.128 76.3933 128.59 77.3164C128.193 78.0161 127.646 78.6182 126.989 79.0791C126.571 79.3607 126.11 79.5704 125.623 79.6997C125.443 79.7199 125.261 79.722 125.08 79.7059V79.7059Z" fill="#455A64"/>
<path d="M136.203 60.5725C136.544 60.1075 136.746 59.554 136.784 58.9774C136.804 58.3042 136.651 57.6371 136.339 57.041C135.943 56.2455 135.338 55.5738 134.59 55.0984C133.648 54.5671 132.614 54.2197 131.543 54.0743C130.394 53.8695 129.14 53.7951 127.836 53.5902C124.974 53.1309 122.247 52.0484 119.846 50.4187C117.438 48.7919 115.421 46.6488 113.938 44.144C112.744 42.097 111.924 39.8522 111.516 37.5155C111.229 35.9462 111.144 34.3463 111.262 32.7552C111.29 32.3247 111.339 31.8959 111.411 31.4704C111.422 31.3206 111.451 31.1726 111.497 31.0298C111.528 31.0298 111.423 31.6504 111.38 32.7676C111.214 36.705 112.186 40.6065 114.179 44.0013C115.654 46.4572 117.645 48.5604 120.012 50.1643C122.381 51.7653 125.063 52.8382 127.879 53.3109C129.177 53.522 130.437 53.6089 131.587 53.8199C132.678 53.9824 133.727 54.3555 134.676 54.9184C135.454 55.4183 136.075 56.1281 136.469 56.9665C136.78 57.5908 136.921 58.2869 136.876 58.9836C136.84 59.4239 136.7 59.8493 136.469 60.2249C136.388 60.3429 136.308 60.4298 136.258 60.4918L136.203 60.5725Z" fill="#455A64"/>
<path d="M69.6309 90.45C70.4466 81.8789 71.1449 72.8423 71.1449 72.8423C71.1449 72.8423 60.3369 69.9252 59.4718 55.2966C58.6437 41.3507 64.0014 9.85918 64.0014 9.85918C80.4574 4.94367 98.7735 11.1005 108.803 24.9347L101.054 94.4469C100.158 102.515 92.5322 108.163 83.9365 107.127C75.2605 106.078 68.8585 98.6177 69.6309 90.45Z" fill="#B78876"/>
<path d="M65.6452 35.032C65.5958 35.5119 65.7337 35.9922 66.03 36.372C66.3262 36.7517 66.7576 37.0011 67.2334 37.0677C67.4654 37.1103 67.7037 37.1055 67.9339 37.0538C68.1641 37.0021 68.3817 36.9045 68.5736 36.7667C68.7655 36.6289 68.928 36.4538 69.0512 36.2518C69.1745 36.0497 69.2561 35.8249 69.2911 35.5906C69.3406 35.1107 69.2026 34.6303 68.9064 34.2506C68.6102 33.8709 68.1787 33.6214 67.703 33.5549C67.4709 33.5123 67.2327 33.5171 67.0025 33.5688C66.7722 33.6205 66.5547 33.7181 66.3628 33.8559C66.1708 33.9937 66.0084 34.1688 65.8852 34.3708C65.7619 34.5728 65.6803 34.7977 65.6452 35.032Z" fill="#263238"/>
<path d="M62.865 32.6677C63.0689 32.9345 64.5644 32.047 66.5418 32.2332C68.5193 32.4194 69.8726 33.5738 70.1136 33.3504C70.231 33.2511 70.0394 32.798 69.4524 32.2704C68.6541 31.5893 67.6654 31.173 66.6222 31.0788C65.5972 30.9714 64.5645 31.1884 63.6684 31.6994C63.0133 32.1339 62.7661 32.5497 62.865 32.6677Z" fill="#263238"/>
<path d="M85.8652 37.3866C85.8159 37.8673 85.9547 38.3485 86.2522 38.7284C86.5498 39.1083 86.9827 39.3571 87.4596 39.4223C87.6916 39.4648 87.9299 39.4601 88.1601 39.4084C88.3903 39.3567 88.6079 39.259 88.7998 39.1212C88.9917 38.9835 89.1541 38.8084 89.2774 38.6063C89.4007 38.4043 89.4823 38.1794 89.5173 37.9451C89.5668 37.4653 89.4288 36.9849 89.1326 36.6052C88.8363 36.2254 88.4049 35.976 87.9292 35.9094C87.6968 35.8668 87.4582 35.8715 87.2275 35.9232C86.9969 35.9748 86.7789 36.0724 86.5865 36.2101C86.3941 36.3478 86.2311 36.5229 86.1072 36.7249C85.9833 36.927 85.9011 37.152 85.8652 37.3866Z" fill="#263238"/>
<path d="M83.4418 35.4299C83.6458 35.6967 85.1412 34.8092 87.1186 35.0016C89.0961 35.194 90.4494 36.336 90.6904 36.1126C90.8017 36.0195 90.6163 35.5602 90.0292 35.0326C89.2303 34.3526 88.242 33.9364 87.199 33.841C86.174 33.7336 85.1413 33.9506 84.2452 34.4617C83.5901 34.8961 83.343 35.3119 83.4418 35.4299Z" fill="#263238"/>
<path d="M74.8153 49.4615C74.8153 49.3498 73.6288 49.0146 71.6575 48.5615C71.157 48.456 70.6935 48.3071 70.6379 47.9409C70.6495 47.4124 70.8196 46.8997 71.1261 46.47L72.9799 42.7461C75.5939 37.452 77.5404 33.0764 77.3056 32.9709C77.0708 32.8654 74.8029 37.0796 72.189 42.3737C71.571 43.6833 70.9531 44.9246 70.3722 46.0976C69.9972 46.678 69.8354 47.3715 69.9149 48.0588C69.968 48.2468 70.0645 48.4195 70.1965 48.5629C70.3286 48.7064 70.4926 48.8165 70.675 48.8843C70.9473 48.9887 71.2318 49.0576 71.5216 49.0891C73.5546 49.4429 74.7967 49.5732 74.8153 49.4615Z" fill="#263238"/>
<path d="M71.1447 72.8409C77.8861 73.6145 84.7089 72.4906 90.8511 69.595C90.8511 69.595 85.1969 79.0288 70.984 76.2607L71.1447 72.8409Z" fill="#AA6550"/>
<path d="M75.186 54.3357C75.6087 53.8968 76.1356 53.573 76.7172 53.395C77.2988 53.2169 77.916 53.1904 78.5106 53.3179C78.943 53.4024 79.3543 53.5728 79.7204 53.8189C80.0864 54.0651 80.3999 54.3822 80.6425 54.7515C80.8747 55.11 80.9915 55.5316 80.9771 55.959C80.9628 56.3864 80.8179 56.7991 80.5622 57.141C80.2098 57.4669 79.7681 57.679 79.2944 57.7498C78.8206 57.8206 78.3366 57.7469 77.905 57.5382C77.0031 57.1154 76.1943 56.5162 75.5259 55.7756C75.3207 55.6015 75.1489 55.3912 75.0192 55.155C74.9569 55.0384 74.9307 54.9059 74.9439 54.7743C74.9571 54.6427 75.0091 54.5181 75.0933 54.4164" fill="#AA6550"/>
<path d="M80.5068 51.4115C80.1855 51.3618 79.9692 53.5155 77.9794 54.8685C75.9896 56.2215 73.7279 55.756 73.6847 56.0539C73.6414 56.1842 74.1543 56.5256 75.1183 56.6746C76.3737 56.8175 77.6389 56.5097 78.6901 55.8057C79.7026 55.1322 80.4124 54.0873 80.6675 52.8948C80.8714 51.9701 80.6552 51.4115 80.5068 51.4115Z" fill="#263238"/>
<path d="M101.981 40.3018C103.549 40.1234 105.135 40.3832 106.566 41.0528C107.279 41.3892 107.92 41.864 108.45 42.4498C108.98 43.0356 109.39 43.7209 109.656 44.4663C110.108 45.9976 109.962 47.6443 109.248 49.0715C108.531 50.4856 107.509 51.7216 106.257 52.6899C105.406 53.4433 104.39 53.9835 103.291 54.2663C102.741 54.4041 102.165 54.4019 101.616 54.2599C101.066 54.1179 100.561 53.8407 100.145 53.4533" fill="#B78876"/>
<path d="M101.913 49.7228C101.734 49.76 102.308 50.7592 103.767 50.5172C104.536 50.3284 105.201 49.8451 105.62 49.1704C106.119 48.4177 106.465 47.5743 106.64 46.6878C106.84 45.7465 106.704 44.7647 106.257 43.9135C106.065 43.5527 105.795 43.2398 105.467 42.9981C105.139 42.7563 104.76 42.5919 104.36 42.5171C102.92 42.3433 102.37 43.3053 102.506 43.3487C102.642 43.3922 103.223 43.0136 104.144 43.3487C105.064 43.6839 105.8 44.9438 105.454 46.452C105.108 47.9601 104.378 49.4062 103.501 49.6855C102.623 49.9648 102.024 49.6048 101.913 49.7228Z" fill="#AA6550"/>
<path d="M70.9348 16.0156C69.8543 18.481 68.226 20.6651 66.1747 22.4004C64.1234 24.1358 61.7036 25.3762 59.101 26.0266C58.7982 22.4703 58.5881 18.8705 59.169 15.3453C59.7499 11.82 61.1711 8.35059 63.7295 5.87421C66.2878 3.39784 70.0758 2.06345 73.5116 2.982" fill="#263238"/>
<path d="M71.9236 9.48646C71.0278 11.7514 70.729 14.2101 71.0562 16.6249C71.3834 19.0397 72.3254 21.3288 73.7912 23.271C75.2571 25.2131 77.197 26.7425 79.4236 27.7112C81.6501 28.68 84.0878 29.0553 86.5011 28.8009C87.4403 28.7016 88.4291 28.5154 89.3066 28.8568C90.1841 29.1981 90.87 30.0981 91.4323 30.9546C93.7187 34.3867 96.1349 37.9555 99.7376 39.9415C103.34 41.9276 108.494 41.729 110.904 38.3837C112.072 36.7576 112.418 34.6909 112.69 32.7048C113.604 26.0204 113.981 18.8396 110.805 12.8938C108.451 8.4686 104.31 5.18539 99.7314 3.19311C95.1524 1.20084 90.1346 0.406417 85.1478 0.089888C82.2558 -0.0900992 79.2587 -0.0963082 76.5706 1.00844C73.8825 2.11319 71.5652 4.55853 71.4107 7.46936" fill="#263238"/>
<path d="M112.053 34.5918C111.984 34.4327 111.926 34.2688 111.88 34.1015C111.781 33.7788 111.614 33.3009 111.398 32.6988C110.756 30.9898 109.938 29.3527 108.957 27.8144C107.499 25.5418 105.69 23.516 103.599 21.8127C100.982 19.7937 98.0922 18.1594 95.0161 16.9593C91.778 15.5939 88.6079 14.4767 85.8333 13.1671C83.3543 12.0503 81.0266 10.6217 78.9061 8.91571C77.4841 7.7557 76.2464 6.38491 75.2355 4.85049C74.9631 4.43213 74.7175 3.9968 74.5001 3.54713C74.4118 3.39793 74.3393 3.23983 74.2838 3.07544C74.3832 3.21886 74.474 3.36808 74.5557 3.5223C74.7941 3.94907 75.054 4.36337 75.3343 4.7636C76.3721 6.25924 77.6211 7.59522 79.042 8.72952C81.1608 10.4 83.4797 11.797 85.9446 12.8878C88.7068 14.1726 91.8769 15.2897 95.1273 16.6552C98.2303 17.8696 101.144 19.525 103.779 21.5707C105.884 23.3032 107.696 25.3679 109.142 27.684C110.111 29.2463 110.905 30.9115 111.509 32.6492C111.713 33.2698 111.861 33.7477 111.936 34.0829C111.989 34.2489 112.028 34.4192 112.053 34.5918V34.5918Z" fill="#455A64"/>
<path d="M107.598 33.8032C107.504 33.6752 107.423 33.538 107.357 33.3936C107.196 33.1267 106.961 32.7295 106.615 32.2516C105.626 30.9158 104.426 29.7522 103.062 28.807C101.014 27.4311 98.8262 26.2764 96.5362 25.3625C95.2571 24.8101 93.9038 24.2391 92.5319 23.5812C91.1601 22.9233 89.7573 22.191 88.3731 21.3593C85.7509 19.8089 83.3341 17.9321 81.1802 15.7735C79.4233 14.0088 77.9103 12.0153 76.6815 9.84632C75.8591 8.38292 75.1961 6.83479 74.704 5.22872C74.5433 4.65773 74.426 4.21086 74.3703 3.90675C74.3264 3.75269 74.2974 3.59472 74.2838 3.43506C74.3461 3.58094 74.3938 3.73272 74.4259 3.88813C74.5063 4.19224 74.6422 4.62669 74.8214 5.19148C75.3512 6.77138 76.0386 8.29349 76.873 9.73461C78.1142 11.8707 79.6287 13.8341 81.3779 15.5749C83.5281 17.7098 85.9314 19.5712 88.5338 21.1172C89.9056 21.9427 91.296 22.6751 92.6617 23.3392C94.0274 24.0032 95.3683 24.5804 96.6475 25.1266C98.9496 26.0559 101.142 27.2382 103.185 28.6519C104.557 29.624 105.751 30.8272 106.714 32.2082C106.971 32.585 107.202 32.979 107.406 33.3874C107.48 33.5211 107.544 33.6601 107.598 33.8032V33.8032Z" fill="#455A64"/>
<path d="M59.1502 31.7421C59.0957 31.6343 59.0503 31.5222 59.0143 31.4069C58.9339 31.1897 58.8103 30.8608 58.6744 30.4325C58.3297 29.2185 58.1224 27.9693 58.0564 26.7086C57.8682 22.4731 59.182 18.3078 61.7642 14.9536C62.4903 14.0037 63.3194 13.1378 64.236 12.3717C65.132 11.6394 66.0527 11.0187 66.9302 10.4353C68.5226 9.47388 70.017 8.35756 71.3918 7.10246C72.3043 6.24489 73.0466 5.22138 73.5794 4.08613C73.9378 3.27308 74.0181 2.77657 74.049 2.78277C74.0474 2.90479 74.0287 3.02598 73.9934 3.14275C73.9171 3.4788 73.8159 3.80865 73.6906 4.12957C73.1858 5.29542 72.4571 6.34992 71.5463 7.2328C70.1816 8.52096 68.6886 9.66482 67.0909 10.6464C66.1714 11.2466 65.2825 11.8929 64.4275 12.5828C63.5276 13.3363 62.7112 14.1853 61.9928 15.115C60.6003 16.9163 59.5679 18.9712 58.9525 21.1663C58.4398 22.9564 58.2084 24.8159 58.2666 26.6776C58.3148 27.9333 58.4887 29.1808 58.7856 30.4015C58.8969 30.8153 58.9896 31.1442 59.0637 31.3883C59.107 31.5022 59.1361 31.621 59.1502 31.7421V31.7421Z" fill="#455A64"/>
<path d="M94.5654 60.4592C91.1959 60.4956 87.9297 59.2925 85.3826 57.0767L85.7781 56.636C87.9576 58.6084 90.7366 59.7834 93.6644 59.9703C96.5922 60.1572 99.497 59.3451 101.908 57.6657C104.318 55.9863 106.093 53.5381 106.944 50.7183C107.795 47.8986 107.673 44.8727 106.597 42.1315L107.147 41.9143C108.186 44.7887 108.269 47.9238 107.384 50.8499C106.5 53.7759 104.695 56.3351 102.24 58.1442C99.9742 59.6781 97.298 60.4854 94.5654 60.4592V60.4592Z" fill="#90B1F9"/>
<path d="M86.94 60.7946C88.5133 60.7946 89.7887 59.5136 89.7887 57.9334C89.7887 56.3533 88.5133 55.0723 86.94 55.0723C85.3666 55.0723 84.0912 56.3533 84.0912 57.9334C84.0912 59.5136 85.3666 60.7946 86.94 60.7946Z" fill="#90B1F9"/>
<path d="M118.214 44.9209C119.053 39.6995 115.519 34.7834 110.32 33.9406C105.121 33.0977 100.227 36.6472 99.3875 41.8686C98.5482 47.09 102.082 52.006 107.281 52.8489C112.48 53.6918 117.375 50.1423 118.214 44.9209Z" fill="#90B1F9"/>
<path d="M107.264 42.0645C107.197 41.2561 107.213 40.4428 107.314 39.6378L107.425 36.8014C107.425 35.6967 107.474 34.4368 107.425 33.0465C107.425 32.3514 107.375 31.6252 107.338 30.8743C107.301 30.1233 107.221 29.3351 107.147 28.522C107.073 27.709 106.931 26.8835 106.825 26.0394C106.745 25.6174 106.665 25.1829 106.584 24.7485C106.504 24.314 106.418 23.8672 106.3 23.4265C105.478 19.5667 103.768 15.9535 101.307 12.8755C98.7537 9.87379 95.4836 7.57179 91.8031 6.18499C88.7853 5.03959 85.6459 4.24819 82.4473 3.82654C79.7036 3.44174 77.4605 3.32382 75.9156 3.20589C75.1076 3.22226 74.3001 3.15571 73.5056 3.00729C74.3038 2.87489 75.1132 2.82291 75.9217 2.85213C78.1279 2.83276 80.3334 2.93844 82.5276 3.16866C85.8019 3.50671 89.0215 4.2531 92.1121 5.39057C95.9469 6.78697 99.3541 9.16106 101.999 12.2797C104.55 15.4707 106.303 19.2292 107.11 23.2403C107.221 23.6934 107.307 24.1465 107.382 24.5995C107.456 25.0526 107.53 25.4871 107.604 25.9215C107.703 26.8028 107.839 27.6469 107.888 28.4724C107.938 29.2978 108.018 30.0985 108.024 30.8618C108.031 31.6252 108.074 32.3638 108.024 33.0651C108.024 34.474 107.944 35.7401 107.882 36.8511C107.82 37.962 107.709 38.9116 107.616 39.6936C107.575 40.4935 107.457 41.2874 107.264 42.0645Z" fill="#90B1F9"/>
<g opacity="0.4">
<path opacity="0.4" d="M111.592 49.4957C114.937 48.0932 116.517 44.2331 115.12 40.8739C113.724 37.5146 109.88 35.9283 106.536 37.3308C103.191 38.7332 101.612 42.5933 103.008 45.9526C104.404 49.3118 108.248 50.8981 111.592 49.4957Z" fill="black"/>
</g>
<path d="M106.906 37.2563C106.999 37.1954 107.098 37.1454 107.203 37.1074C107.495 36.984 107.799 36.8924 108.111 36.8343C109.279 36.6337 110.48 36.8395 111.516 37.4177C112.238 37.814 112.842 38.3968 113.265 39.1059C113.742 39.9236 113.984 40.8582 113.963 41.8057C113.948 42.6314 113.728 43.4402 113.322 44.1589C112.917 44.8776 112.34 45.4835 111.643 45.9216C110.946 46.3598 110.151 46.6164 109.331 46.6682C108.51 46.7201 107.689 46.5655 106.943 46.2185C105.999 45.7546 105.231 44.9942 104.756 44.0524C104.314 43.2118 104.119 42.2628 104.193 41.3154C104.278 40.4963 104.556 39.7092 105.003 39.019C105.613 37.9945 106.583 37.237 107.722 36.8964C108.029 36.8108 108.348 36.7731 108.667 36.7847C108.778 36.7881 108.888 36.8048 108.995 36.8343C108.577 36.8353 108.161 36.8938 107.759 37.0081C106.677 37.3841 105.766 38.1401 105.194 39.1369C104.735 39.8431 104.476 40.6611 104.443 41.5037C104.41 42.3464 104.606 43.1822 105.009 43.9221C105.463 44.8017 106.186 45.5111 107.073 45.9454C108.042 46.3746 109.124 46.471 110.153 46.2197C111.182 45.9683 112.1 45.3833 112.764 44.5551C113.352 43.756 113.676 42.7926 113.691 41.7995C113.724 40.9042 113.511 40.0171 113.073 39.2362C112.682 38.5568 112.116 37.9953 111.436 37.6101C110.447 37.0322 109.295 36.8008 108.161 36.9522C107.736 37.0269 107.317 37.1285 106.906 37.2563V37.2563Z" fill="#263238"/>
<path d="M109.007 49.8912C108.783 49.4042 108.681 48.8692 108.71 48.3334C108.64 47.8041 108.697 47.2656 108.877 46.7632C108.996 47.2734 109.041 47.7979 109.013 48.321C109.087 48.842 109.085 49.3709 109.007 49.8912V49.8912Z" fill="#263238"/>
<path d="M112.628 48.6123C112.084 47.7693 111.718 46.8228 111.553 45.8318C112.097 46.6748 112.463 47.6212 112.628 48.6123V48.6123Z" fill="#263238"/>
<path d="M115.069 45.7443C115.013 45.8063 114.562 45.4898 114.062 45.0367C113.561 44.5837 113.209 44.1616 113.265 44.0996C113.32 44.0375 113.771 44.354 114.272 44.8071C114.772 45.2602 115.125 45.6822 115.069 45.7443Z" fill="#263238"/>
<path d="M115.242 41.7412C115.211 41.8219 114.89 41.7785 114.513 41.6419C114.136 41.5054 113.858 41.3316 113.895 41.2509C113.932 41.1702 114.247 41.2137 114.624 41.3502C115.001 41.4868 115.273 41.6605 115.242 41.7412Z" fill="#263238"/>
<path d="M104.724 48.4261C104.895 47.3653 105.394 46.3857 106.152 45.627C105.993 46.1292 105.771 46.6089 105.49 47.0544C105.293 47.5418 105.035 48.0026 104.724 48.4261V48.4261Z" fill="#263238"/>
<path d="M102.766 45.0563C102.704 44.9943 103.081 44.5288 103.6 44.0199C104.119 43.5109 104.589 43.1385 104.65 43.2006C104.712 43.2627 104.335 43.7282 103.816 44.2371C103.297 44.746 102.828 45.1184 102.766 45.0563Z" fill="#263238"/>
<path d="M104.298 40.4883C104.298 40.569 104.051 40.7117 103.68 40.8048C103.31 40.8979 103.025 40.9103 103.007 40.8048C102.988 40.6993 103.248 40.5752 103.625 40.4821C104.002 40.389 104.274 40.4076 104.298 40.4883Z" fill="#263238"/>
<path d="M154.173 92.8828C153.555 89.3761 152.189 87.4708 151.17 86.4715C150.266 85.4883 149.252 84.6136 148.148 83.8648C146.764 83.0145 144.879 81.9656 143.674 81.6988C142.185 81.376 141.82 79.4334 143.056 78.8748C144.292 78.3162 148.432 79.1169 152.405 82.0463C156.379 84.9758 154.364 77.5529 153.685 74.8344C153.005 72.116 151.318 63.6132 151.936 62.7567C152.918 61.5154 154.469 62.3595 155.094 65.0903C155.718 67.8211 158.146 75.8895 159.561 75.4923C160.976 75.0951 157.293 61.3044 157.293 61.3044C157.293 61.3044 156.058 58.4742 157.658 57.9653C160.587 57.0405 163.405 71.9733 163.64 73.4007C163.801 74.3876 165.358 74.0214 165.129 72.9601C164.9 71.8988 161.149 59.2748 164.122 58.3066C166.402 57.5681 166.557 70.5706 168.781 72.7925C171.006 75.0144 167.657 62.918 169.869 62.2974C170.691 62.0678 171.34 62.0119 172.26 69.2114C172.761 73.078 172.439 78.4093 173.941 85.7888" fill="#B78876"/>
<path d="M146.763 120.638L160.272 140.107L153.79 89.8972L173.101 82.2446C173.101 82.2446 197.473 176.086 164.789 177.402C164.789 177.402 142.166 176.781 125.283 137.457L146.763 120.638Z" fill="#B78876"/>
<path d="M168.429 81.8789C168.466 81.9286 168.009 82.2327 167.409 82.903C166.626 83.7844 166.082 84.8529 165.828 86.0062L165.753 86.3724L165.488 86.0993C165.177 85.7823 164.842 85.4897 164.487 85.2242C163.281 84.3405 161.867 83.7885 160.383 83.6229C159.24 83.4988 158.53 83.6229 158.53 83.5547C159.134 83.333 159.781 83.2565 160.42 83.3312C162.466 83.4258 164.394 84.3162 165.797 85.8138L165.451 85.9069C165.723 84.679 166.345 83.5574 167.243 82.6795C167.569 82.3218 167.976 82.0473 168.429 81.8789Z" fill="#AA6550"/>
<path d="M137.062 161.227L120.717 140.405L116.465 161.705C114.746 170.332 115.632 179.277 119.011 187.394L121.118 192.464H45.4318L47.3227 185.693C48.3918 177.401 46.9643 168.75 47.2115 156.87L45.1105 143.483L33.6598 192.464H0C0 192.464 18.4582 116.442 30.051 101.397C44.6408 82.4364 70.1375 84.9376 70.1375 84.9376L85.7531 109.528L101.01 87.3519C101.01 87.3519 127.224 81.7661 147.69 117.143L158.64 135.992L153.555 97.1829L177.272 91.6964C177.272 91.6964 185.83 129.823 185.268 150.242C184.767 168.476 177.037 178.041 166.328 178.984C149.464 180.461 137.062 161.227 137.062 161.227Z" fill="#90B1F9"/>
<path d="M70.1373 84.9393L70.4031 81.8733C70.4031 81.8733 81.9711 84.4552 85.8518 104.744C85.8518 104.744 89.7449 86.0192 102.203 84.1386L104.304 89.5321L96.6536 109.535L83.2194 113.483L70.1435 109.535L64.1865 97.6749L70.1373 84.9393Z" fill="#90B1F9"/>
<path d="M37.8926 93.0046C37.9274 93.1764 37.948 93.3508 37.9544 93.526C37.9544 93.8984 38.0162 94.4011 38.0657 95.0404C38.146 96.3499 38.2819 98.2429 38.4673 100.589C38.8443 105.269 39.4808 111.73 40.488 118.823C41.4953 125.917 42.6941 132.304 43.6396 136.903C44.1154 139.205 44.5109 141.061 44.8013 142.346C44.9311 142.967 45.0362 143.463 45.1165 143.823C45.1606 143.994 45.1895 144.168 45.203 144.344C45.1411 144.181 45.0916 144.013 45.0547 143.842C44.9599 143.482 44.8363 142.991 44.6839 142.371C44.3626 141.098 43.93 139.268 43.448 136.953C42.4469 132.36 41.2234 125.973 40.2038 118.867C39.1841 111.761 38.5909 105.293 38.2758 100.601C38.1151 98.2553 38.01 96.3561 37.9606 95.0466C37.9606 94.4259 37.9235 93.9046 37.9112 93.5322C37.8988 93.1598 37.8865 93.0046 37.8926 93.0046Z" fill="#263238"/>
<path d="M104.02 86.6318C103.975 86.7347 103.919 86.8324 103.853 86.9235L103.334 87.7304L101.406 90.6846C99.7872 93.1672 97.6059 96.6739 95.3318 100.615C95.2453 100.77 95.1526 100.919 95.0723 101.068L94.924 101.323L94.8004 101.056C94.4057 100.07 93.8432 99.1604 93.1381 98.3682C92.8155 98.0135 92.4137 97.7408 91.9657 97.5725C91.5178 97.4042 91.0364 97.3451 90.5612 97.4C89.7041 97.587 88.9466 98.0869 88.4355 98.8027C87.9647 99.4155 87.6049 100.107 87.3726 100.845C86.94 102.21 86.6867 103.358 86.3592 104.103C86.2445 104.391 86.1103 104.671 85.9575 104.941C85.8463 105.123 85.7845 105.21 85.7721 105.202C85.7721 105.202 85.9822 104.811 86.2541 104.06C86.526 103.309 86.7546 102.198 87.1749 100.783C87.3962 100.012 87.7564 99.2879 88.2377 98.6475C88.7769 97.8671 89.5926 97.3232 90.518 97.1269C91.0364 97.0594 91.5634 97.1176 92.0548 97.2969C92.5462 97.4762 92.9876 97.7712 93.342 98.1572C94.0811 98.9681 94.6692 99.9057 95.0784 100.925H94.8065L95.0661 100.472C97.3402 96.5249 99.5586 93.0245 101.246 90.5791C102.08 89.3379 102.772 88.351 103.254 87.6745C103.489 87.3642 103.674 87.1035 103.822 86.8987C103.879 86.8031 103.945 86.7136 104.02 86.6318V86.6318Z" fill="#263238"/>
<path d="M93.002 98.1214C93.002 98.1214 92.9711 98.2145 92.8784 98.382L92.4705 99.102L90.9195 101.721L88.5836 105.575L87.1933 107.853C86.9461 108.244 86.6989 108.648 86.4455 109.057C86.3684 109.174 86.2698 109.275 86.1551 109.355C86.0863 109.4 86.0085 109.429 85.9273 109.439C85.846 109.45 85.7634 109.443 85.6854 109.417C85.4175 109.311 85.1976 109.11 85.0675 108.852C82.8985 105.575 81.2794 102.404 80.0126 100.163C79.3947 99.0399 78.8694 98.14 78.511 97.5193C78.3083 97.2071 78.1266 96.8816 77.9672 96.5449C77.9672 96.5449 78.0414 96.6194 78.1464 96.7746C78.2515 96.9297 78.4183 97.1532 78.6099 97.4573C79.0054 98.0779 79.5492 98.9468 80.198 100.058C81.5143 102.261 83.1642 105.414 85.327 108.672C85.4568 108.883 85.5804 109.063 85.7472 109.113C85.9141 109.163 86.0438 109.051 86.1736 108.871L86.9152 107.679L88.3179 105.414L90.7094 101.591L92.3408 99.0275C92.5262 98.7544 92.6745 98.5248 92.8042 98.3386C92.8607 98.2581 92.9272 98.1851 93.002 98.1214V98.1214Z" fill="#263238"/>
<path d="M134.911 99.939C134.861 100.077 134.801 100.212 134.732 100.342C134.596 100.628 134.411 101.006 134.176 101.478C133.682 102.459 132.99 103.886 132.162 105.661C131.333 107.436 130.394 109.578 129.405 111.973C128.417 114.369 127.409 117.038 126.433 119.868C125.457 122.698 124.641 125.454 123.961 127.936C123.282 130.419 122.725 132.703 122.274 134.614C121.823 136.526 121.508 138.084 121.298 139.158C121.193 139.673 121.106 140.082 121.045 140.399C121.022 140.545 120.984 140.688 120.933 140.827C120.934 140.679 120.951 140.531 120.983 140.386C121.032 140.07 121.1 139.654 121.181 139.145C121.354 138.059 121.656 136.495 122.064 134.571C122.472 132.647 123.016 130.375 123.689 127.862C124.363 125.348 125.203 122.624 126.161 119.793C127.119 116.963 128.17 114.294 129.158 111.893C130.147 109.491 131.13 107.362 131.989 105.593C132.847 103.824 133.564 102.409 134.09 101.447L134.707 100.342C134.761 100.201 134.829 100.066 134.911 99.939V99.939Z" fill="#263238"/>
<path d="M123.727 144.242C123.74 144.09 123.769 143.941 123.813 143.795L124.128 142.554L125.302 137.905C126.297 133.983 127.613 128.552 129.239 122.594C130.054 119.615 130.889 116.791 131.71 114.24C132.532 111.689 133.323 109.417 134.053 107.531C134.399 106.575 134.757 105.731 135.054 104.986C135.35 104.241 135.628 103.608 135.863 103.093L136.401 101.908C136.459 101.765 136.529 101.628 136.611 101.498C136.571 101.647 136.519 101.792 136.456 101.932C136.339 102.23 136.178 102.634 135.974 103.137C135.77 103.639 135.499 104.303 135.214 105.054C134.93 105.805 134.596 106.649 134.256 107.605C133.552 109.498 132.786 111.782 131.982 114.327C131.179 116.871 130.357 119.702 129.541 122.674C127.922 128.626 126.575 134.051 125.525 137.961C125.006 139.916 124.573 141.499 124.258 142.585L123.887 143.826C123.849 143.97 123.795 144.11 123.727 144.242Z" fill="#263238"/>
<path d="M44.7149 143.223C44.5998 143.106 44.4924 142.982 44.3936 142.851C44.1959 142.59 43.8807 142.23 43.5346 141.727C42.5165 140.317 41.6135 138.827 40.8342 137.271C39.6759 134.961 38.7266 132.552 37.9978 130.071C37.1142 127.036 36.4574 123.939 36.0327 120.805C35.1305 114.14 34.9822 108.045 34.7103 103.663C34.5867 101.466 34.4693 99.6909 34.3828 98.462C34.3395 97.8724 34.3025 97.4007 34.2777 97.0532C34.2654 96.8879 34.2654 96.7219 34.2777 96.5566C34.3185 96.7175 34.3454 96.8815 34.3581 97.047C34.3952 97.3635 34.4569 97.8414 34.5187 98.4558C34.6485 99.6971 34.7968 101.454 34.9451 103.644C35.2726 108.032 35.4518 114.121 36.3541 120.762C36.7748 123.881 37.4212 126.966 38.2882 129.991C38.9911 132.462 39.907 134.867 41.0258 137.178C41.7858 138.734 42.6552 140.233 43.6274 141.665C43.961 142.18 44.2453 142.546 44.443 142.82C44.5463 142.945 44.6373 143.08 44.7149 143.223Z" fill="#263238"/>
<path d="M41.8417 129.555C41.8417 129.648 40.9642 129.84 39.9878 130.411C39.0115 130.982 38.4244 131.652 38.3564 131.59C38.7268 130.996 39.235 130.5 39.8376 130.145C40.4402 129.791 41.1194 129.588 41.817 129.555H41.8417Z" fill="#263238"/>
<path d="M41.2668 121.587C40.4767 121.805 39.7041 122.083 38.9557 122.418C38.2581 122.849 37.5931 123.33 36.9659 123.858C37.4241 123.131 38.0653 122.538 38.8248 122.139C39.5844 121.74 40.4353 121.549 41.2915 121.587H41.2668Z" fill="#263238"/>
<path d="M39.5308 114.301C38.901 114.471 38.2819 114.678 37.6769 114.922C37.1229 115.253 36.5885 115.615 36.0764 116.008C36.4205 115.419 36.9283 114.944 37.5376 114.641C38.1469 114.337 38.831 114.22 39.506 114.301H39.5308Z" fill="#263238"/>
<path d="M38.6839 106.767C38.6839 106.854 37.9115 107.009 37.0216 107.387C36.1318 107.766 35.4768 108.231 35.4211 108.163C35.7965 107.669 36.311 107.299 36.898 107.102C37.4473 106.815 38.0687 106.699 38.6839 106.767V106.767Z" fill="#263238"/>
<path d="M38.1956 100.698C38.1956 100.785 37.417 100.934 36.5272 101.356C35.6373 101.778 35.0194 102.293 34.9637 102.225C35.3073 101.698 35.8097 101.296 36.3974 101.077C36.942 100.763 37.5715 100.63 38.1956 100.698Z" fill="#263238"/>
<path d="M125.314 134.944C125.24 135 124.839 134.454 124.079 134.162C123.616 134.025 123.142 133.928 122.663 133.87C122.899 133.747 123.161 133.683 123.427 133.683C123.692 133.683 123.954 133.747 124.19 133.87C125.055 134.218 125.395 134.919 125.314 134.944Z" fill="#263238"/>
<path d="M127.613 128.731C127.296 128.123 126.828 127.608 126.254 127.235C125.68 126.862 125.02 126.644 124.338 126.602C124.338 126.565 124.567 126.484 124.956 126.497C125.475 126.526 125.978 126.691 126.415 126.975C126.853 127.257 127.209 127.651 127.446 128.117C127.626 128.489 127.65 128.719 127.613 128.731Z" fill="#263238"/>
<path d="M129.337 121.896C128.907 121.415 128.372 121.041 127.774 120.803C127.175 120.565 126.53 120.47 125.889 120.524C125.889 120.493 126.087 120.382 126.458 120.332C126.944 120.271 127.437 120.335 127.891 120.518C128.345 120.699 128.747 120.992 129.059 121.368C129.294 121.66 129.368 121.884 129.337 121.896Z" fill="#263238"/>
<path d="M131.371 115.339C131.29 115.383 130.969 114.768 130.252 114.402C129.803 114.218 129.334 114.085 128.856 114.005C128.856 113.967 129.016 113.893 129.307 113.874C129.686 113.868 130.06 113.958 130.395 114.136C130.73 114.314 131.015 114.574 131.222 114.892C131.371 115.14 131.402 115.32 131.371 115.339Z" fill="#263238"/>
<path d="M133.744 109.312C133.405 108.879 132.985 108.516 132.508 108.245C131.988 108.051 131.436 107.959 130.882 107.971C130.882 107.94 131.043 107.822 131.371 107.767C131.802 107.714 132.239 107.783 132.633 107.966C133.027 108.149 133.362 108.439 133.601 108.803C133.75 109.089 133.774 109.3 133.744 109.312Z" fill="#263238"/>
<path d="M94.899 100.695C94.8656 100.796 94.8199 100.891 94.763 100.981L94.3304 101.775C93.9473 102.458 93.3788 103.445 92.662 104.655C91.9451 105.865 91.08 107.293 90.0913 108.863C89.5908 109.645 89.0655 110.464 88.497 111.302C87.9282 112.179 87.3092 113.023 86.6431 113.828C86.4677 114.049 86.2592 114.242 86.0252 114.399C85.9433 114.448 85.8476 114.467 85.7533 114.455C85.6719 114.441 85.5928 114.416 85.5184 114.38C85.3944 114.31 85.2766 114.229 85.1662 114.138C84.773 113.793 84.4112 113.412 84.0848 113.003C83.4669 112.221 82.8489 111.426 82.336 110.669C81.2731 109.142 80.3709 107.733 79.6232 106.542C78.8755 105.35 78.2946 104.382 77.8991 103.699L77.4542 102.911C77.3941 102.824 77.3482 102.727 77.3182 102.625C77.3871 102.705 77.4491 102.79 77.5036 102.88L77.998 103.637C78.4491 104.332 79.0609 105.275 79.8024 106.43C80.5439 107.584 81.4956 108.993 82.5646 110.501C83.1023 111.259 83.677 112.041 84.3135 112.81C84.6311 113.202 84.9804 113.568 85.3578 113.902C85.5432 114.051 85.778 114.213 85.8954 114.12C86.0968 113.98 86.2777 113.813 86.433 113.623C87.0955 112.83 87.7144 112.001 88.2869 111.141C88.8554 110.309 89.3868 109.496 89.8874 108.714C90.8884 107.156 91.7721 105.741 92.5137 104.543C93.2552 103.345 93.8299 102.427 94.2625 101.719L94.7506 100.956C94.8248 100.776 94.8866 100.689 94.899 100.695Z" fill="#263238"/>
<path d="M81.7305 109.529C81.6934 109.529 81.6254 109.318 81.6501 108.958C81.6973 108.49 81.8775 108.046 82.1692 107.679C82.4557 107.306 82.8445 107.026 83.2877 106.872C83.6276 106.767 83.85 106.785 83.8562 106.823C83.3088 107.071 82.817 107.428 82.4102 107.871C82.0714 108.37 81.8399 108.935 81.7305 109.529V109.529Z" fill="#263238"/>
<path d="M85.8154 114.417C85.4324 112.811 85.4197 111.138 85.7784 109.526C85.8553 110.339 85.8697 111.157 85.8216 111.972C85.8809 112.786 85.8789 113.603 85.8154 114.417Z" fill="#263238"/>
<path d="M90.4002 108.188C90.3137 108.188 90.1221 107.524 89.4795 106.996C89.0671 106.71 88.6208 106.476 88.1509 106.301C88.1509 106.264 88.3363 106.22 88.6329 106.27C89.0174 106.34 89.3773 106.509 89.6772 106.76C89.9785 107.01 90.2087 107.336 90.3446 107.704C90.4435 108.008 90.4373 108.175 90.4002 108.188Z" fill="#263238"/>
<path d="M93.4096 103.129C93.2103 102.67 92.9549 102.239 92.6495 101.844C92.2727 101.512 91.8578 101.227 91.4136 100.994C91.4136 100.956 91.6052 100.938 91.8895 100.994C92.2608 101.113 92.5951 101.327 92.8596 101.614C93.1266 101.897 93.3142 102.246 93.4034 102.626C93.4776 102.936 93.4467 103.122 93.4096 103.129Z" fill="#263238"/>
<path d="M78.6594 104.905C78.6223 104.905 78.5234 104.675 78.5111 104.284C78.5013 103.739 78.6311 103.201 78.888 102.72C79.1438 102.239 79.5156 101.829 79.9694 101.529C80.3217 101.311 80.5874 101.262 80.5874 101.293C79.9855 101.686 79.4925 102.225 79.1543 102.861C78.816 103.497 78.6437 104.209 78.6532 104.93L78.6594 104.905Z" fill="#263238"/>
<g opacity="0.4">
<path opacity="0.4" d="M69.977 84.8892C71.2994 89.9909 73.5117 98.3013 75.9032 104.799C75.9917 105.106 76.148 105.388 76.3604 105.625C76.9784 106.202 78.0104 105.848 78.5851 105.234C79.072 104.602 79.508 103.931 79.8889 103.229C80.0839 102.881 80.3566 102.582 80.6858 102.357C81.0149 102.132 81.3916 101.986 81.7861 101.932C82.1107 101.94 82.4296 102.02 82.7201 102.166C83.0106 102.312 83.2656 102.52 83.4669 102.776C83.8658 103.292 84.2115 103.847 84.4989 104.433C84.5644 104.595 84.6632 104.741 84.7889 104.862C84.9146 104.983 85.0642 105.076 85.228 105.135C85.3103 105.16 85.3981 105.16 85.4805 105.135C85.5629 105.111 85.6363 105.063 85.6916 104.996C85.7469 104.93 85.7817 104.849 85.7915 104.764C85.8014 104.678 85.786 104.591 85.7471 104.514L83.6337 99.0026C83.6337 99.0026 82.6635 94.9622 79.3081 95.5891C75.5509 96.2904 77.2565 102.497 77.2565 102.497C77.2565 102.497 69.9214 84.672 69.977 84.8892Z" fill="black"/>
</g>
<path d="M85.8523 104.741C85.7766 104.63 85.7163 104.509 85.6731 104.382C85.5619 104.139 85.4074 103.761 85.2158 103.32C84.8389 102.352 84.3074 101.011 83.6586 99.3667C83.4917 98.9509 83.3125 98.5164 83.121 98.0695C82.9404 97.6122 82.6787 97.1917 82.3485 96.8283C81.9694 96.4419 81.5109 96.1435 81.0049 95.9537C80.499 95.764 79.9579 95.6875 79.4194 95.7297C78.847 95.8015 78.309 96.0436 77.8746 96.4248C77.4736 96.8867 77.1876 97.4377 77.0403 98.0323C76.8694 98.6373 76.8252 99.2713 76.9106 99.8942C76.9865 100.559 77.1041 101.218 77.2628 101.868C77.3184 102.11 77.3802 102.352 77.4358 102.575L77.1392 102.662C76.2741 100.18 75.2854 97.8461 74.3708 95.7545C73.4562 93.663 72.622 91.7762 71.9669 90.1687C71.3119 88.5613 70.8299 87.2641 70.5395 86.3456C70.385 85.8925 70.2923 85.5325 70.2243 85.2843C70.1804 85.1641 70.1514 85.0391 70.1378 84.9119C70.1948 85.0257 70.2423 85.144 70.2799 85.2656C70.3664 85.5077 70.4777 85.8863 70.6507 86.3083C70.972 87.2083 71.485 88.5054 72.1647 90.0818C72.8444 91.6583 73.691 93.5326 74.6365 95.6242C75.582 97.7158 76.5707 100.037 77.442 102.551L77.1516 102.644C77.096 102.414 77.0342 102.172 76.9724 101.93C76.8125 101.266 76.6949 100.592 76.6201 99.9129C76.5268 99.2396 76.5773 98.5541 76.7684 97.902C76.9324 97.262 77.246 96.6706 77.683 96.1766C78.1646 95.752 78.7641 95.4856 79.4009 95.4132C79.9813 95.367 80.5646 95.451 81.1087 95.6593C81.6527 95.8675 82.1438 96.1948 82.5463 96.6172C82.8908 97.0106 83.1628 97.4625 83.3496 97.9516C83.5412 98.4047 83.708 98.8454 83.8749 99.2612C84.4928 100.918 84.981 102.271 85.3394 103.252C85.5063 103.699 85.636 104.059 85.7411 104.332C85.7909 104.465 85.8282 104.602 85.8523 104.741V104.741Z" fill="#263238"/>
<g opacity="0.4">
<path opacity="0.4" d="M86.1486 104.595C86.025 104.682 86.1177 104.912 86.266 104.943C86.3436 104.95 86.4219 104.941 86.4955 104.915C86.5692 104.89 86.6363 104.848 86.6924 104.794C87.4074 104.104 88.0082 103.303 88.4721 102.423C89.0282 101.591 89.8378 100.797 90.8327 100.797C91.8276 100.797 92.7421 101.678 93.2612 102.603C93.7803 103.528 94.1387 104.57 94.8926 105.315C98.6836 99.7336 101.7 93.6596 103.859 87.2605C102.623 88.1232 101.801 89.47 101.029 90.7671C99.0226 94.131 97.0163 97.4929 95.01 100.853C94.6346 99.8485 94.056 98.9334 93.3107 98.1652C92.9367 97.7828 92.4759 97.4972 91.9679 97.3329C91.4599 97.1686 90.9198 97.1305 90.3939 97.2218C89.226 97.5011 88.4103 98.5624 87.8418 99.63C86.9991 101.189 86.4523 102.891 86.2289 104.651" fill="black"/>
</g>
<path d="M165.068 154.313C164.91 154.103 164.775 153.876 164.666 153.637C164.425 153.19 164.091 152.532 163.702 151.719C162.689 149.583 161.784 147.398 160.989 145.171C160.196 142.946 159.515 140.682 158.95 138.388C158.734 137.506 158.579 136.792 158.48 136.29C158.418 136.035 158.379 135.776 158.363 135.514C158.467 135.755 158.546 136.007 158.598 136.265C158.746 136.811 158.938 137.506 159.16 138.332C159.642 140.076 160.353 142.471 161.28 145.072C162.207 147.672 163.171 149.975 163.9 151.626C164.252 152.408 164.518 153.066 164.771 153.581C164.895 153.814 164.994 154.06 165.068 154.313V154.313Z" fill="#263238"/>
<path d="M159.191 153.147C159.086 152.93 159.003 152.704 158.944 152.47C158.801 152.023 158.622 151.378 158.424 150.571C157.413 146.348 157.071 141.991 157.411 137.662C157.479 136.836 157.553 136.166 157.627 135.707C157.643 135.465 157.691 135.227 157.769 134.999C157.795 135.238 157.795 135.48 157.769 135.719C157.732 136.178 157.695 136.849 157.652 137.674C157.438 141.982 157.776 146.3 158.659 150.521C158.832 151.334 158.974 151.986 159.086 152.439C159.151 152.669 159.186 152.907 159.191 153.147V153.147Z" fill="#263238"/>
<path d="M178.075 98.8145C178.238 98.8563 178.395 98.9167 178.545 98.9944L178.637 99.0379L178.545 99.0751C174.697 100.37 170.761 101.383 166.767 102.104C163.318 102.725 160.161 103.109 157.874 103.296C156.731 103.389 155.804 103.444 155.161 103.463C154.828 103.493 154.493 103.493 154.16 103.463C154.487 103.398 154.817 103.357 155.149 103.339L157.856 103.072C160.13 102.83 163.275 102.451 166.711 101.794C172.446 100.745 177.16 99.3482 178.539 98.9882V99.0627C178.375 98.9991 178.219 98.9158 178.075 98.8145V98.8145Z" fill="#263238"/>
<path d="M172.754 96.1237C172.754 96.1237 172.81 96.0244 173.001 95.9685C173.139 95.9397 173.282 95.9409 173.419 95.9719C173.557 96.003 173.686 96.0632 173.799 96.1485C173.979 96.2654 174.122 96.4314 174.212 96.627C174.301 96.8226 174.334 97.0398 174.305 97.2532C174.28 97.3837 174.227 97.507 174.149 97.6144C174.071 97.7217 173.97 97.8103 173.854 97.8739C173.614 98.0108 173.336 98.0632 173.063 98.0228C172.791 97.9871 172.536 97.8679 172.334 97.6815C172.24 97.5884 172.166 97.4772 172.116 97.3545C172.066 97.2318 172.041 97.1002 172.044 96.9677C172.058 96.7554 172.126 96.5502 172.242 96.372C172.357 96.1937 172.517 96.0484 172.705 95.9499C172.946 95.8099 173.229 95.7635 173.502 95.8195C173.694 95.8692 173.768 95.9561 173.762 95.9685C173.437 95.8996 173.098 95.9597 172.816 96.1361C172.674 96.2245 172.555 96.3464 172.47 96.4913C172.385 96.6362 172.336 96.7997 172.328 96.9677C172.342 97.166 172.428 97.3521 172.571 97.4898C172.714 97.6274 172.902 97.7068 173.1 97.7125C173.292 97.7597 173.494 97.732 173.666 97.6353C173.838 97.5385 173.967 97.3798 174.027 97.1912C174.038 97.0516 174.021 96.9113 173.975 96.7788C173.93 96.6464 173.859 96.5246 173.765 96.4211C173.671 96.3176 173.557 96.2345 173.43 96.1769C173.303 96.1193 173.166 96.0885 173.026 96.0864C172.853 96.0988 172.767 96.1547 172.754 96.1237Z" fill="#263238"/>
<path d="M80.9267 109.25C80.82 109.357 80.7065 109.456 80.5869 109.548C80.352 109.722 80.0307 110.02 79.5672 110.33C78.2809 111.253 76.9039 112.041 75.4578 112.682C73.3092 113.637 71.0377 114.285 68.7098 114.606C67.3359 114.792 65.9492 114.867 64.5634 114.83C63.0752 114.777 61.5946 114.592 60.1388 114.277C57.148 113.601 54.4537 112.496 51.9139 111.795C50.7232 111.451 49.5055 111.211 48.2742 111.075C47.1947 110.967 46.1067 110.98 45.0299 111.112C43.4723 111.272 41.9749 111.802 40.661 112.657C40.1961 112.996 39.7485 113.359 39.3201 113.743C39.6853 113.289 40.1141 112.89 40.593 112.558C41.9059 111.649 43.421 111.078 45.0052 110.895C46.0912 110.752 47.1894 110.729 48.2804 110.826C49.5343 110.951 50.775 111.185 51.9881 111.528C54.5526 112.198 57.2468 113.297 60.2006 113.967C61.6407 114.276 63.1044 114.461 64.5757 114.519C65.9446 114.556 67.3143 114.488 68.6728 114.314C70.9804 114.007 73.2346 113.38 75.3713 112.453C76.8162 111.839 78.1986 111.087 79.4993 110.206C79.9751 109.914 80.3026 109.635 80.5498 109.473C80.6667 109.385 80.7931 109.31 80.9267 109.25V109.25Z" fill="#FAFAFA"/>
<path d="M120.192 134.782C120.127 134.76 120.065 134.731 120.007 134.695L119.469 134.415C119.234 134.298 118.931 134.173 118.579 134.012C118.227 133.851 117.807 133.708 117.343 133.584C114.593 132.869 111.721 132.765 108.927 133.28C106.993 133.597 105.08 134.032 103.198 134.583C101.159 135.142 98.9839 135.793 96.648 136.271C94.1964 136.812 91.676 136.967 89.177 136.73C86.5098 136.408 83.8875 135.783 81.3599 134.869C78.746 133.987 76.2494 133.007 73.7962 132.181C71.4554 131.354 69.0403 130.758 66.5847 130.4C62.4095 129.846 58.1681 130.077 54.0774 131.083C52.51 131.48 50.9701 131.98 49.4674 132.578C48.8186 132.864 48.2006 133.118 47.6506 133.385C47.1007 133.652 46.6001 133.894 46.1614 134.142L44.9935 134.794L44.1592 135.315L43.6463 135.626C43.5906 135.669 43.5279 135.703 43.4609 135.725L43.6278 135.601L44.1283 135.26C44.3446 135.117 44.6165 134.924 44.944 134.72L46.0996 134.037C46.5383 133.782 47.0451 133.54 47.5889 133.255C48.1327 132.969 48.7506 132.715 49.4056 132.417C50.9085 131.8 52.4506 131.283 54.0217 130.872C58.1374 129.828 62.4121 129.573 66.6218 130.121C69.0981 130.472 71.5341 131.067 73.895 131.896C76.3668 132.715 78.8387 133.696 81.4526 134.577C83.9606 135.486 86.5618 136.11 89.2079 136.439C91.6769 136.682 94.1686 136.536 96.5924 136.004C98.9159 135.539 101.085 134.9 103.13 134.347C105.024 133.805 106.95 133.38 108.896 133.075C111.701 132.572 114.582 132.701 117.331 133.453C117.819 133.59 118.233 133.776 118.598 133.913C118.962 134.049 119.247 134.211 119.481 134.341L120 134.651C120.136 134.738 120.198 134.775 120.192 134.782Z" fill="#FAFAFA"/>
<path d="M89.0532 108.784C89.5733 108.931 90.1015 109.047 90.6352 109.131C92.0961 109.296 93.5751 109.178 94.9917 108.784C97.0822 108.141 99.1315 107.37 101.128 106.475C102.337 105.982 103.591 105.608 104.873 105.358C106.253 105.111 107.657 105.029 109.056 105.116C111.755 105.292 114.406 105.922 116.898 106.978C118.924 107.837 120.879 108.856 122.744 110.025C124.344 111.006 125.599 111.887 126.452 112.452C126.866 112.737 127.193 112.967 127.44 113.147C127.559 113.221 127.671 113.307 127.774 113.401C127.645 113.347 127.523 113.278 127.409 113.196L126.39 112.576C125.5 112.017 124.233 111.192 122.62 110.236C120.748 109.104 118.796 108.111 116.781 107.263C114.314 106.222 111.694 105.593 109.025 105.401C107.649 105.32 106.269 105.397 104.91 105.631C103.642 105.877 102.401 106.243 101.202 106.723C98.9034 107.617 96.8765 108.585 95.0226 108.976C93.5803 109.362 92.0749 109.448 90.5981 109.231C90.064 109.159 89.5435 109.008 89.0532 108.784V108.784Z" fill="#FAFAFA"/>
<path d="M125.172 93.2191C124.887 93.3307 124.593 93.4199 124.295 93.486C124.004 93.5666 123.677 93.6535 123.244 93.7342C122.811 93.8149 122.367 93.9266 121.841 94.0011C120.614 94.208 119.376 94.3427 118.134 94.4045C116.63 94.4808 115.124 94.4643 113.623 94.3549C112.11 94.2179 110.607 93.9858 109.124 93.6597C107.913 93.3892 106.718 93.0493 105.546 92.6419C105.045 92.4805 104.607 92.2881 104.211 92.1391C103.816 91.9902 103.488 91.8412 103.222 91.7171C102.937 91.6023 102.662 91.4632 102.401 91.3013C102.697 91.3779 102.986 91.4797 103.266 91.6054C103.544 91.7171 103.884 91.8475 104.273 91.9778C104.662 92.1081 105.113 92.2881 105.614 92.4371C106.615 92.7598 107.826 93.0887 109.179 93.3866C112.129 94.0164 115.145 94.2729 118.158 94.15C119.542 94.088 120.791 93.9701 121.829 93.8211C122.354 93.759 122.818 93.6659 123.232 93.5977C123.646 93.5294 123.998 93.4611 124.282 93.3991C124.572 93.3095 124.87 93.2492 125.172 93.2191V93.2191Z" fill="#FAFAFA"/>
<path d="M38.1469 97.2018C38.2281 97.1153 38.3171 97.0364 38.4126 96.966C38.598 96.817 38.8699 96.5936 39.2283 96.3453C39.9389 95.7992 40.9771 95.0296 42.318 94.1358C45.7605 91.7506 49.5304 89.8814 53.5091 88.5873C57.5129 87.3083 61.7634 87.0103 65.9052 87.7184C67.1516 87.9482 68.3726 88.2995 69.5511 88.7672C69.9713 88.9224 70.2803 89.09 70.4966 89.1831C70.6073 89.2275 70.713 89.2836 70.8118 89.3507C70.8118 89.3507 70.3483 89.1831 69.5141 88.879C68.3297 88.4542 67.1094 88.1384 65.8682 87.9356C61.7595 87.2979 57.5598 87.6207 53.5956 88.879C49.659 90.1747 45.9168 92.0039 42.4725 94.3158C41.1316 95.1847 40.0687 95.9295 39.3395 96.4446L38.4929 97.0653C38.3846 97.127 38.2681 97.173 38.1469 97.2018Z" fill="#FAFAFA"/>
</svg>
