<svg width="20" height="20" viewBox="0 0 20 20" fill="none" xmlns="http://www.w3.org/2000/svg">
<path d="M3.125 5.93707V15.9371C3.12624 16.3511 3.29125 16.7478 3.58401 17.0406C3.87677 17.3333 4.27348 17.4983 4.6875 17.4996H15.3125C15.7265 17.4983 16.1232 17.3333 16.416 17.0406C16.7087 16.7478 16.8738 16.3511 16.875 15.9371V5.93707" stroke="#6C6A7C" stroke-width="1.5" stroke-linecap="round" stroke-linejoin="round"/>
<path d="M17.0312 2.49933H2.96875C2.36469 2.49933 1.875 2.98902 1.875 3.59308V4.53058C1.875 5.13464 2.36469 5.62433 2.96875 5.62433H17.0312C17.6353 5.62433 18.125 5.13464 18.125 4.53058V3.59308C18.125 2.98902 17.6353 2.49933 17.0312 2.49933Z" stroke="#6C6A7C" stroke-width="1.5" stroke-linejoin="round"/>
<path d="M12.5 11.875L10 14.375L7.5 11.875" stroke="#6C6A7C" stroke-width="1.5" stroke-linecap="round" stroke-linejoin="round"/>
<path d="M10 13.5111V8.74982" stroke="#6C6A7C" stroke-width="1.5" stroke-linecap="round" stroke-linejoin="round"/>
</svg>
