<svg width="184" height="154" viewBox="0 0 184 154" fill="none" xmlns="http://www.w3.org/2000/svg">
<path fill-rule="evenodd" clip-rule="evenodd" d="M20.0847 108.863C20.6862 108.895 21.1992 108.432 21.2304 107.831C22.1319 90.4473 28.1817 72.4199 38.0956 58.0217C48.4754 42.9468 66.7259 28.5251 84.1684 23.0081C105.564 16.2408 128.866 22.6297 144.886 38.0689C152.431 45.3399 156.573 51.7678 161.212 61.1739C165.514 69.898 167.705 78.6842 169.977 87.8009C170.875 91.4001 171.785 95.0508 172.843 98.7695C173.007 99.3488 173.611 99.6849 174.19 99.52C174.769 99.3552 175.105 98.7519 174.941 98.1726C173.925 94.6033 173.037 91.0393 172.151 87.4865C169.857 78.2843 167.581 69.1573 163.168 60.2091C158.453 50.6479 154.176 43.9917 146.4 36.4983C129.852 20.5512 105.731 13.9002 83.5106 20.9284C65.5534 26.6082 46.9215 41.3573 36.299 56.7847C26.1536 71.5191 19.9743 89.9365 19.052 107.718C19.0209 108.319 19.4832 108.832 20.0847 108.863Z" fill="#403E48"/>
<path fill-rule="evenodd" clip-rule="evenodd" d="M164.261 90.0165C163.82 90.4265 163.795 91.1166 164.205 91.5578C165.747 93.2169 166.967 95.1403 168.235 97.1388C168.693 97.861 169.158 98.5931 169.646 99.326C171.546 102.179 173.064 105.032 174.271 108.208C174.308 108.304 174.365 108.437 174.453 108.568C174.513 108.658 174.734 108.974 175.172 109.075C175.739 109.207 176.137 108.887 176.295 108.707C176.44 108.54 176.511 108.365 176.543 108.283C176.664 107.962 176.721 107.492 176.758 107.135C176.8 106.725 176.832 106.256 176.859 105.837C176.864 105.752 176.869 105.67 176.874 105.591C176.895 105.265 176.913 104.99 176.93 104.793C177.308 100.593 178.163 96.6002 179.156 92.4347C179.296 91.8488 178.934 91.2606 178.348 91.1209C177.762 90.9812 177.174 91.343 177.034 91.9289C176.085 95.9125 175.237 99.8337 174.819 103.962C173.847 101.946 172.733 100.026 171.462 98.1169C171.034 97.4753 170.607 96.8012 170.17 96.1129C168.872 94.0654 167.493 91.892 165.802 90.0728C165.392 89.6316 164.702 89.6064 164.261 90.0165ZM176.314 107.441C176.314 107.441 176.313 107.439 176.312 107.436C176.313 107.44 176.314 107.441 176.314 107.441Z" fill="#403E48"/>
</svg>
