<svg width="164" height="145" viewBox="0 0 164 145" fill="none" xmlns="http://www.w3.org/2000/svg">
<path fill-rule="evenodd" clip-rule="evenodd" d="M157.804 53.8621C157.262 53.5077 156.536 53.6595 156.181 54.2011C153.428 58.4102 150.902 62.6721 148.426 66.8507C146.65 69.8465 144.9 72.7995 143.11 75.6595C138.775 82.5833 134.071 89.1936 127.815 95.2937C116.615 106.213 103.105 114.731 87.6939 117.776C79.7449 119.347 70.4971 119.065 62.3488 116.376C54.2095 113.69 47.2544 108.636 43.6767 100.715C41.862 96.6973 40.8921 92.128 40.7005 87.3876C44.3186 90.0193 48.4166 92.1667 53.0634 93.6876C64.0711 97.2902 73.1601 90.7761 77.8061 81.7971C82.4339 72.8535 82.9525 60.9501 76.4509 53.102C72.9539 48.8808 68.5654 46.9644 64.0429 47.0852C59.5548 47.205 55.0698 49.3248 51.289 52.91C45.2041 58.6802 41.0738 67.0917 39.3018 75.9014C38.8631 78.0826 38.5674 80.296 38.4231 82.5078C29.4136 74.3169 23.9223 62.596 20.4392 50.3922C20.2615 49.7698 19.6129 49.4092 18.9905 49.5868C18.368 49.7645 18.0075 50.4131 18.1851 51.0355C21.8979 64.0439 27.9606 76.8804 38.3211 85.5316C38.3103 91.2209 39.335 96.7971 41.5404 101.68C45.4582 110.354 53.0338 115.77 61.6142 118.602C70.1856 121.431 79.8464 121.716 88.1483 120.076C104.125 116.919 118.027 108.111 129.451 96.972C135.896 90.6879 140.714 83.9034 145.096 76.9034C146.963 73.9219 148.728 70.9412 150.502 67.9458C152.938 63.8332 155.389 59.6929 158.143 55.4845C158.497 54.9429 158.346 54.2165 157.804 53.8621ZM40.6809 84.4258C40.7522 81.7451 41.0624 79.0356 41.5998 76.3636C43.2975 67.9231 47.2377 59.9822 52.9019 54.6109C56.3623 51.3295 60.3195 49.5295 64.1054 49.4284C67.8568 49.3282 71.5742 50.8898 74.6458 54.5975C80.3552 61.4892 80.0774 72.3069 75.7243 80.7199C71.3894 89.0976 63.3128 94.5756 53.7925 91.4598C48.7962 89.8246 44.4563 87.4179 40.6809 84.4258Z" fill="#403E48"/>
<path fill-rule="evenodd" clip-rule="evenodd" d="M158.162 61.8616C158.796 61.9889 159.414 61.5777 159.541 60.9431C159.555 60.8768 159.574 60.7819 159.598 60.662C159.785 59.7453 160.271 57.3641 160.636 55.0962C160.842 53.8201 161.016 52.5398 161.074 51.5623C161.102 51.0862 161.107 50.6098 161.05 50.2225C161.023 50.0401 160.969 49.7718 160.828 49.5173C160.676 49.2428 160.308 48.8112 159.665 48.8041C158.751 48.7939 157.917 49.2462 157.279 49.686C156.613 50.1446 155.957 50.7373 155.391 51.2508L155.345 51.2927C154.766 51.8182 154.297 52.2446 153.894 52.5233C153.734 52.6341 153.623 52.6938 153.554 52.7236C153.001 52.5961 152.423 52.8863 152.204 53.4292C151.963 54.0299 152.255 54.7124 152.855 54.9537C153.365 55.1586 153.86 55.092 154.233 54.9703C154.601 54.8507 154.939 54.6507 155.228 54.4508C155.763 54.0805 156.339 53.5572 156.862 53.082C156.897 53.0498 156.932 53.0178 156.967 52.9861C157.552 52.4553 158.094 51.9709 158.609 51.6163C158.649 51.5884 158.688 51.562 158.727 51.5371C158.67 52.381 158.517 53.5171 158.322 54.7233C157.966 56.9366 157.491 59.2624 157.303 60.1892C157.277 60.3129 157.257 60.4116 157.243 60.4819C157.116 61.1165 157.527 61.7342 158.162 61.8616ZM158.724 50.5246C158.724 50.5247 158.724 50.5274 158.726 50.5325C158.724 50.527 158.724 50.5245 158.724 50.5246Z" fill="#403E48"/>
</svg>
