<svg width="195" height="88" viewBox="0 0 195 88" fill="none" xmlns="http://www.w3.org/2000/svg">
<path fill-rule="evenodd" clip-rule="evenodd" d="M177.784 53.2293C177.794 52.6579 178.266 52.2033 178.837 52.2138C181.847 52.2691 184.429 51.7428 187.474 51.057C187.472 51.0575 187.47 51.0578 187.47 51.0578C187.47 51.0577 187.483 51.0546 187.52 51.0449L187.677 51.0036C187.806 50.9698 187.979 50.925 188.178 50.8763C188.57 50.7804 189.078 50.6648 189.546 50.591C189.778 50.5543 190.022 50.5244 190.248 50.5156C190.437 50.5083 190.755 50.5071 191.053 50.6201C191.212 50.6805 191.479 50.8163 191.663 51.1155C191.868 51.4487 191.858 51.8005 191.784 52.0566C191.717 52.2851 191.596 52.4598 191.506 52.5722C191.408 52.6935 191.295 52.8051 191.179 52.9069C189.571 54.3231 187.84 55.5812 186.134 56.7968C185.924 56.9464 185.714 57.0952 185.506 57.2436C184.004 58.3103 182.535 59.3547 181.141 60.4852C180.977 60.6177 180.187 61.3249 179.434 62.0215C179.063 62.3647 178.716 62.6909 178.476 62.927C178.392 63.0091 178.329 63.0734 178.284 63.12C178.123 63.3914 177.84 63.5857 177.502 63.6209C177.405 63.631 177.06 63.6555 176.738 63.3953C176.361 63.0904 176.339 62.6734 176.357 62.4897C176.373 62.3137 176.431 62.185 176.452 62.1395C176.48 62.0796 176.509 62.0332 176.526 62.0057C176.586 61.912 176.658 61.8315 176.691 61.7946C176.777 61.6982 176.897 61.577 177.025 61.4511C177.288 61.1925 177.653 60.8493 178.029 60.5021C178.768 59.818 179.611 59.0612 179.837 58.8779C181.286 57.7027 182.813 56.6176 184.31 55.5547C184.518 55.4065 184.726 55.2588 184.933 55.1113C185.847 54.4606 186.745 53.813 187.616 53.146C184.684 53.8025 181.968 54.3411 178.799 54.2829C178.228 54.2724 177.773 53.8007 177.784 53.2293ZM178.22 63.1899C178.22 63.19 178.221 63.1884 178.224 63.185C178.221 63.1881 178.22 63.1899 178.22 63.1899Z" fill="#403E48"/>
<path fill-rule="evenodd" clip-rule="evenodd" d="M102.956 9.34423C105.273 11.0761 106.99 14.1099 107.449 16.8404C108.844 25.1284 105.004 34.204 101.78 41.0699C99.2197 46.5231 96.7486 51.042 93.4126 55.4841C95.1492 59.7438 97.5122 63.4702 100.494 66.4793C105.612 71.6444 112.615 74.762 121.603 74.7936C139.988 74.8581 156.255 66.8909 172.536 58.9169C175.345 57.5415 178.153 56.1658 180.973 54.8312C181.49 54.5867 182.107 54.8073 182.351 55.3238C182.596 55.8404 182.375 56.4573 181.859 56.7017C179.09 58.0118 176.316 59.3721 173.527 60.7396C157.266 68.712 140.507 76.9294 121.596 76.863C112.09 76.8296 104.55 73.5136 99.0237 67.9359C96.0859 64.971 93.7348 61.3857 91.9562 57.3499C91.1607 58.3312 90.3164 59.3146 89.4129 60.3094C79.6315 71.0796 66.7191 75.2191 52.7281 70.6688C38.5069 66.0436 25.5579 56.849 14.1057 47.7533C9.27319 43.9152 5.1329 40.1287 1.72868 34.8655C1.41832 34.3857 1.55571 33.7451 2.03555 33.4347C2.51539 33.1244 3.15598 33.2617 3.46634 33.7416C6.69071 38.7267 10.6277 42.3483 15.3927 46.1328C26.8174 55.2065 39.5221 64.1976 53.3681 68.7008C66.5088 72.9745 78.5912 69.1469 87.8809 58.9181C89.032 57.6506 90.0841 56.4026 91.0604 55.1521C89.9621 52.2301 89.1409 49.1038 88.5919 45.8306C87.74 40.7518 87.1509 33.9188 87.7879 27.3204C88.4218 20.754 90.2875 14.2341 94.5157 9.98289C95.8785 8.61261 97.3732 7.94566 98.8941 7.91267C100.395 7.88012 101.783 8.46742 102.956 9.34423ZM92.547 53.1662C91.7222 50.7455 91.0837 48.1763 90.6329 45.4883C89.8011 40.5294 89.2332 33.8862 89.8478 27.5192C90.4655 21.1202 92.26 15.1855 95.983 11.4422C97.0358 10.3837 98.0417 10.0011 98.939 9.98165C99.8565 9.96175 100.804 10.3191 101.717 11.0018C103.573 12.389 105.03 14.9337 105.409 17.1837C106.68 24.7446 103.166 33.25 99.9069 40.1903C97.5973 45.1094 95.3855 49.2073 92.547 53.1662Z" fill="#403E48"/>
</svg>
