<svg width="25" height="27" viewBox="0 0 25 27" fill="none" xmlns="http://www.w3.org/2000/svg">
<path d="M20.2743 21.0621C20.2151 20.9362 20.1575 20.8108 20.1005 20.6894C19.3174 19.0163 18.8432 18.0062 19.8524 14.1043C20.3749 12.0841 20.3203 10.3016 19.6893 8.81212C19.2244 7.71209 18.4552 6.76984 17.3369 5.9313C17.3231 5.91818 17.3118 5.90271 17.3034 5.88561C17.2432 4.26188 16.2725 2.93377 14.8833 2.57445C13.4941 2.21514 12.0018 2.90623 11.1622 4.29556C11.1467 4.30593 11.1296 4.31364 11.1115 4.31837C7.88025 4.76526 5.86442 6.70472 4.94806 10.2477C3.93845 14.1511 3.0349 14.8049 1.53822 15.8867C1.42949 15.9653 1.3188 16.0449 1.20549 16.1284C0.914102 16.3388 0.689092 16.6283 0.557088 16.9626C0.425083 17.2968 0.39161 17.662 0.46063 18.0147C0.606058 18.7707 1.17908 19.3649 1.95656 19.566L17.9563 23.7042C18.7301 23.9044 19.5146 23.6619 20.0086 23.0745C20.2406 22.7996 20.389 22.4639 20.4361 22.1072C20.4832 21.7505 20.4271 21.3878 20.2743 21.0621V21.0621Z" fill="#F877A0"/>
<path d="M8.88258 25.7799C9.63123 25.9729 10.4182 25.9597 11.1599 25.7416C11.9016 25.5236 12.5705 25.1088 13.0956 24.5414C13.1205 24.5141 13.1379 24.4809 13.1461 24.4449C13.1544 24.4089 13.1532 24.3714 13.1426 24.3361C13.1321 24.3007 13.1126 24.2686 13.086 24.243C13.0594 24.2174 13.0266 24.1991 12.9909 24.1899L6.06143 22.3977C6.02569 22.3883 5.98812 22.3883 5.95239 22.3978C5.91666 22.4072 5.88399 22.4257 5.85756 22.4516C5.83113 22.4774 5.81183 22.5096 5.80155 22.5451C5.79127 22.5806 5.79036 22.6182 5.79891 22.6541C5.98301 23.4049 6.36686 24.0919 6.90976 24.6422C7.45266 25.1925 8.13436 25.5857 8.88258 25.7799Z" fill="#F877A0"/>
</svg>
