<svg width="24" height="24" viewBox="0 0 24 24" fill="none" xmlns="http://www.w3.org/2000/svg">
<path d="M12 2.62695C6.83062 2.62695 2.625 6.83258 2.625 12.0019C2.625 17.1713 6.83062 21.3769 12 21.3769C17.1694 21.3769 21.375 17.1713 21.375 12.0019C21.375 6.83258 17.1694 2.62695 12 2.62695ZM12 6.4707C12.241 6.4707 12.4767 6.54218 12.6771 6.6761C12.8775 6.81001 13.0337 7.00036 13.126 7.22305C13.2182 7.44575 13.2424 7.6908 13.1953 7.92722C13.1483 8.16363 13.0322 8.38079 12.8618 8.55124C12.6913 8.72168 12.4742 8.83776 12.2378 8.88478C12.0013 8.93181 11.7563 8.90767 11.5336 8.81543C11.3109 8.72318 11.1206 8.56697 10.9866 8.36655C10.8527 8.16613 10.7812 7.9305 10.7812 7.68945C10.7812 7.36622 10.9096 7.05622 11.1382 6.82766C11.3668 6.5991 11.6768 6.4707 12 6.4707ZM15 17.0644H9.375V15.5644H11.4375V11.4394H9.9375V9.93945H12.9375V15.5644H15V17.0644Z" fill="#5E83D4"/>
</svg>
