<svg width="32" height="32" viewBox="0 0 32 32" fill="none" xmlns="http://www.w3.org/2000/svg">
<path d="M22.25 9.12402H9.75C8.71447 9.12402 7.875 9.96349 7.875 10.999V22.249C7.875 23.2846 8.71447 24.124 9.75 24.124H22.25C23.2855 24.124 24.125 23.2846 24.125 22.249V10.999C24.125 9.96349 23.2855 9.12402 22.25 9.12402Z" stroke="#6C6A7C" stroke-width="1.5" stroke-linejoin="round"/>
<path d="M10.4602 9.14746H21.5398C22.952 9.14746 24.1016 10.3144 24.1016 11.749V14.1006H23.5232C23.5156 13.7884 23.3578 13.4799 23.1259 13.2481C22.8883 13.0104 22.5701 12.8506 22.25 12.8506H9.75C9.42988 12.8506 9.11172 13.0104 8.87405 13.2481C8.64219 13.4799 8.48441 13.7884 8.47685 14.1006H7.89844V11.749C7.89844 10.3144 9.04805 9.14746 10.4602 9.14746Z" fill="#6C6A7C" stroke="#6C6A7C" stroke-width="0.046875"/>
<path d="M17.5625 15.999C18.0803 15.999 18.5 15.5793 18.5 15.0615C18.5 14.5438 18.0803 14.124 17.5625 14.124C17.0447 14.124 16.625 14.5438 16.625 15.0615C16.625 15.5793 17.0447 15.999 17.5625 15.999Z" fill="#6C6A7C"/>
<path d="M20.6875 15.999C21.2053 15.999 21.625 15.5793 21.625 15.0615C21.625 14.5438 21.2053 14.124 20.6875 14.124C20.1697 14.124 19.75 14.5438 19.75 15.0615C19.75 15.5793 20.1697 15.999 20.6875 15.999Z" fill="#6C6A7C"/>
<path d="M17.5625 19.123C18.0803 19.123 18.5 18.7033 18.5 18.1855C18.5 17.6678 18.0803 17.248 17.5625 17.248C17.0447 17.248 16.625 17.6678 16.625 18.1855C16.625 18.7033 17.0447 19.123 17.5625 19.123Z" fill="#6C6A7C"/>
<path d="M20.6875 19.123C21.2053 19.123 21.625 18.7033 21.625 18.1855C21.625 17.6678 21.2053 17.248 20.6875 17.248C20.1697 17.248 19.75 17.6678 19.75 18.1855C19.75 18.7033 20.1697 19.123 20.6875 19.123Z" fill="#6C6A7C"/>
<path d="M11.3125 19.123C11.8303 19.123 12.25 18.7033 12.25 18.1855C12.25 17.6678 11.8303 17.248 11.3125 17.248C10.7947 17.248 10.375 17.6678 10.375 18.1855C10.375 18.7033 10.7947 19.123 11.3125 19.123Z" fill="#6C6A7C"/>
<path d="M14.4375 19.123C14.9553 19.123 15.375 18.7033 15.375 18.1855C15.375 17.6678 14.9553 17.248 14.4375 17.248C13.9197 17.248 13.5 17.6678 13.5 18.1855C13.5 18.7033 13.9197 19.123 14.4375 19.123Z" fill="#6C6A7C"/>
<path d="M11.3125 22.249C11.8303 22.249 12.25 21.8293 12.25 21.3115C12.25 20.7938 11.8303 20.374 11.3125 20.374C10.7947 20.374 10.375 20.7938 10.375 21.3115C10.375 21.8293 10.7947 22.249 11.3125 22.249Z" fill="#6C6A7C"/>
<path d="M14.4375 22.249C14.9553 22.249 15.375 21.8293 15.375 21.3115C15.375 20.7938 14.9553 20.374 14.4375 20.374C13.9197 20.374 13.5 20.7938 13.5 21.3115C13.5 21.8293 13.9197 22.249 14.4375 22.249Z" fill="#6C6A7C"/>
<path d="M17.5625 22.249C18.0803 22.249 18.5 21.8293 18.5 21.3115C18.5 20.7938 18.0803 20.374 17.5625 20.374C17.0447 20.374 16.625 20.7938 16.625 21.3115C16.625 21.8293 17.0447 22.249 17.5625 22.249Z" fill="#6C6A7C"/>
<path d="M11 7.87402V9.12402" stroke="#6C6A7C" stroke-width="1.5" stroke-linecap="round" stroke-linejoin="round"/>
<path d="M21 7.87402V9.12402" stroke="#6C6A7C" stroke-width="1.5" stroke-linecap="round" stroke-linejoin="round"/>
</svg>
