<svg width="20" height="20" viewBox="0 0 20 20" fill="none" xmlns="http://www.w3.org/2000/svg">
<g clip-path="url(#clip0_8499_6133)">
<path d="M3.41723 14.844C3.4641 14.6729 3.36137 14.435 3.26332 14.2636C3.23293 14.2123 3.19981 14.1628 3.1641 14.1151C2.32319 12.8398 1.87499 11.3458 1.87504 9.81824C1.86098 5.43348 5.49691 1.87527 9.99301 1.87527C13.9141 1.87527 17.1875 4.59168 17.952 8.19754C18.0667 8.73213 18.1247 9.27734 18.125 9.8241C18.125 14.2151 14.6293 17.8292 10.1332 17.8292C9.41801 17.8292 8.45355 17.6495 7.92738 17.5022C7.40121 17.355 6.87582 17.1596 6.74027 17.1073C6.60151 17.054 6.45415 17.0266 6.30551 17.0264C6.14342 17.0259 5.98289 17.0582 5.83363 17.1214L3.18363 18.0776C3.12573 18.1026 3.06435 18.1187 3.0016 18.1253C2.95197 18.1251 2.90287 18.1151 2.85713 18.0959C2.81138 18.0766 2.76991 18.0485 2.73511 18.0131C2.70031 17.9777 2.67287 17.9358 2.65438 17.8897C2.63589 17.8437 2.62671 17.7944 2.62738 17.7448C2.63064 17.7013 2.6385 17.6582 2.65082 17.6163L3.41723 14.844Z" stroke="#6C6A7C" stroke-width="1.5" stroke-miterlimit="10" stroke-linecap="round"/>
<path d="M7.47656 10.0004C7.47656 10.6778 6.92741 11.227 6.25 11.227C5.57259 11.227 5.02344 10.6778 5.02344 10.0004C5.02344 9.32298 5.57259 8.77383 6.25 8.77383C6.92741 8.77383 7.47656 9.32298 7.47656 10.0004Z" fill="#6C6A7C" stroke="#6C6A7C" stroke-width="0.046875"/>
<path d="M10 11.2504C10.6904 11.2504 11.25 10.6908 11.25 10.0004C11.25 9.31004 10.6904 8.7504 10 8.7504C9.30964 8.7504 8.75 9.31004 8.75 10.0004C8.75 10.6908 9.30964 11.2504 10 11.2504Z" fill="#6C6A7C"/>
<path d="M13.75 11.2504C14.4404 11.2504 15 10.6908 15 10.0004C15 9.31004 14.4404 8.7504 13.75 8.7504C13.0596 8.7504 12.5 9.31004 12.5 10.0004C12.5 10.6908 13.0596 11.2504 13.75 11.2504Z" fill="#6C6A7C"/>
<g filter="url(#filter0_d_8499_6133)">
<circle cx="16" cy="4" r="3" fill="#60B257"/>
</g>
</g>
<defs>
<filter id="filter0_d_8499_6133" x="11" y="0" width="10" height="10" filterUnits="userSpaceOnUse" color-interpolation-filters="sRGB">
<feFlood flood-opacity="0" result="BackgroundImageFix"/>
<feColorMatrix in="SourceAlpha" type="matrix" values="0 0 0 0 0 0 0 0 0 0 0 0 0 0 0 0 0 0 127 0" result="hardAlpha"/>
<feOffset dy="1"/>
<feGaussianBlur stdDeviation="1"/>
<feComposite in2="hardAlpha" operator="out"/>
<feColorMatrix type="matrix" values="0 0 0 0 0.25098 0 0 0 0 0.243137 0 0 0 0 0.282353 0 0 0 0.2 0"/>
<feBlend mode="normal" in2="BackgroundImageFix" result="effect1_dropShadow_8499_6133"/>
<feBlend mode="normal" in="SourceGraphic" in2="effect1_dropShadow_8499_6133" result="shape"/>
</filter>
<clipPath id="clip0_8499_6133">
<rect width="20" height="20" fill="white"/>
</clipPath>
</defs>
</svg>
