<svg width="20" height="20" viewBox="0 0 20 20" fill="none" xmlns="http://www.w3.org/2000/svg">
<path d="M3.09375 8.25937C3.7 7.91484 4.45742 8.17031 4.78555 8.79375L6.40195 12.091C6.43225 12.1534 6.48514 12.202 6.54991 12.2269C6.61468 12.2518 6.68649 12.2511 6.75078 12.225C6.80172 12.2047 6.84539 12.1696 6.87611 12.1242C6.90682 12.0787 6.92318 12.0251 6.92305 11.9703V2.8125C6.92305 2.26914 7.425 1.875 7.96875 1.875C8.5125 1.875 8.98438 2.26914 8.98438 2.8125V8.93125C8.98307 9.04552 9.02636 9.1558 9.10506 9.23866C9.18376 9.32152 9.29167 9.37043 9.40586 9.375C9.46298 9.37609 9.51973 9.36578 9.57282 9.34468C9.6259 9.32357 9.67424 9.29209 9.71501 9.25208C9.75579 9.21208 9.78817 9.16434 9.81028 9.11166C9.83238 9.05899 9.84376 9.00244 9.84375 8.94531V0.9375C9.84375 0.394141 10.2711 0 10.8148 0C11.3586 0 11.7969 0.394141 11.7969 0.9375V8.93125C11.7956 9.04552 11.8389 9.1558 11.9176 9.23866C11.9963 9.32152 12.1042 9.37043 12.2184 9.375C12.2755 9.37609 12.3322 9.36578 12.3853 9.34468C12.4384 9.32357 12.4867 9.29209 12.5275 9.25208C12.5683 9.21208 12.6007 9.16434 12.6228 9.11166C12.6449 9.05899 12.6563 9.00244 12.6563 8.94531V2.1875C12.6563 1.64414 13.1281 1.25 13.6719 1.25C14.2156 1.25 14.6875 1.6832 14.6875 2.22656V9.55625C14.6862 9.67052 14.7295 9.7808 14.8082 9.86366C14.8869 9.94652 14.9948 9.99543 15.109 10C15.1661 10.0011 15.2229 9.99078 15.2759 9.96968C15.329 9.94857 15.3774 9.91709 15.4181 9.87708C15.4589 9.83708 15.4913 9.78934 15.5134 9.73666C15.5355 9.68399 15.5469 9.62744 15.5469 9.57031V4.6875C15.5469 4.14414 15.9797 3.75 16.5234 3.75C17.0672 3.75 17.5047 4.14922 17.5 4.6875V13.125C17.5 17.7113 14.6875 20 11.25 20H10.625C7.1875 20 6.10508 18.4531 5.3125 16.5625L2.63008 9.96094C2.36992 9.25781 2.48789 8.60352 3.09375 8.25937Z" fill="#81C27A"/>
</svg>
