<svg width="56" height="56" viewBox="0 0 56 56" fill="none" xmlns="http://www.w3.org/2000/svg">
<rect width="56" height="56" rx="12" fill="#EEEBFC"/>
<path d="M28 18.2511C22.6155 18.2511 18.25 22.6166 18.25 28.0011C18.25 33.3856 22.6155 37.7511 28 37.7511C33.3845 37.7511 37.75 33.3856 37.75 28.0011C37.75 22.6166 33.3845 18.2511 28 18.2511ZM32.5 29.5011H28C27.8011 29.5011 27.6103 29.4221 27.4697 29.2814C27.329 29.1408 27.25 28.95 27.25 28.7511V22.0011C27.25 21.8022 27.329 21.6114 27.4697 21.4708C27.6103 21.3301 27.8011 21.2511 28 21.2511C28.1989 21.2511 28.3897 21.3301 28.5303 21.4708C28.671 21.6114 28.75 21.8022 28.75 22.0011V28.0011H32.5C32.6989 28.0011 32.8897 28.0801 33.0303 28.2208C33.171 28.3614 33.25 28.5522 33.25 28.7511C33.25 28.95 33.171 29.1408 33.0303 29.2814C32.8897 29.4221 32.6989 29.5011 32.5 29.5011Z" fill="#5E39F5"/>
</svg>
