<svg width="202" height="31" viewBox="0 0 202 31" fill="none" xmlns="http://www.w3.org/2000/svg">
<path d="M4.39453 10.8594L3.98438 10.8008H3.90625C3.58073 10.8008 3.24219 10.6706 2.89062 10.4102C2.55208 10.1497 2.38281 9.6875 2.38281 9.02344C2.38281 8.35938 2.74089 7.60417 3.45703 6.75781C4.1862 5.91146 5.16927 5.13672 6.40625 4.43359C7.64323 3.71745 9.17969 3.13151 11.0156 2.67578C12.8646 2.22005 14.8112 1.99219 16.8555 1.99219C21.0352 1.99219 24.2969 2.81901 26.6406 4.47266C28.9974 6.11328 30.1758 8.2487 30.1758 10.8789C30.1758 12.5195 29.8112 14.1602 29.082 15.8008C28.3529 17.4414 27.3763 18.9583 26.1523 20.3516C24.9284 21.7318 23.4896 23.0273 21.8359 24.2383C20.1823 25.4362 18.4505 26.4583 16.6406 27.3047C12.7344 29.1016 8.9974 30 5.42969 30C3.67188 30 2.5651 29.8568 2.10938 29.5703C1.9401 29.4792 1.77083 29.3424 1.60156 29.1602C1.44531 28.9648 1.32161 28.8346 1.23047 28.7695C0.983073 28.6133 0.859375 28.2812 0.859375 27.7734C0.859375 27.2526 0.911458 26.7839 1.01562 26.3672C1.40625 24.974 3.15755 21.9531 6.26953 17.3047C9.39453 12.6432 12.0052 8.88672 14.1016 6.03516C14.2448 5.83984 14.9805 5.69661 16.3086 5.60547C16.8555 5.60547 17.2331 5.64453 17.4414 5.72266C17.6497 5.80078 17.7539 5.94401 17.7539 6.15234C17.7539 6.34766 17.4154 6.92057 16.7383 7.87109C16.0612 8.80859 13.8867 12.1094 10.2148 17.7734C6.54297 23.4245 4.70703 26.3281 4.70703 26.4844C4.70703 26.6406 5.27995 26.7188 6.42578 26.7188C7.58464 26.7188 9.00391 26.4779 10.6836 25.9961C12.3763 25.5013 13.9648 24.8568 15.4492 24.0625C16.9336 23.2682 18.3529 22.3503 19.707 21.3086C21.0612 20.2539 22.2201 19.1797 23.1836 18.0859C25.293 15.6901 26.3477 13.5612 26.3477 11.6992C26.3477 9.83724 25.4948 8.25521 23.7891 6.95312C22.0964 5.65104 19.7721 5 16.8164 5C14.8242 5 12.9427 5.33203 11.1719 5.99609C9.40104 6.66016 8.18359 7.2526 7.51953 7.77344C6.85547 8.29427 6.52344 8.64583 6.52344 8.82812C6.52344 8.93229 6.60156 8.98438 6.75781 8.98438L7.59766 8.82812C7.71484 8.82812 7.77344 8.85417 7.77344 8.90625C7.77344 8.95833 7.66276 9.04948 7.44141 9.17969C7.22005 9.3099 7.03776 9.45312 6.89453 9.60938C6.76432 9.7526 6.42578 9.99349 5.87891 10.332C5.33203 10.6576 4.83724 10.8333 4.39453 10.8594ZM42.5195 15.1562C43.5091 15.1562 44.0039 15.4948 44.0039 16.1719C44.0039 16.5365 43.9193 16.8034 43.75 16.9727C43.5807 17.1419 43.2161 17.7083 42.6562 18.6719C42.1094 19.6224 41.4974 20.8464 40.8203 22.3438C40.1562 23.8281 39.7266 25.0977 39.5312 26.1523C39.4922 26.2826 39.4727 26.4648 39.4727 26.6992C39.4727 27.4154 39.668 27.7734 40.0586 27.7734C40.4492 27.7734 40.9115 27.5911 41.4453 27.2266C41.9792 26.849 42.4544 26.4518 42.8711 26.0352C43.2878 25.6055 43.6914 25.1693 44.082 24.7266C44.4857 24.2839 44.7266 24.0299 44.8047 23.9648C44.8828 23.8997 45 23.8672 45.1562 23.8672C45.4036 23.8672 45.5534 24.056 45.6055 24.4336C45.6576 24.8112 45.6836 25.2018 45.6836 25.6055C45.6836 26.0091 45.6445 26.2891 45.5664 26.4453C45.1888 27.1875 44.3555 28.0794 43.0664 29.1211C41.7904 30.1628 40.625 30.6836 39.5703 30.6836C38.5286 30.6836 37.7604 30.3646 37.2656 29.7266C36.7708 29.0885 36.5234 28.3854 36.5234 27.6172C36.5234 26.8359 36.6536 26.1523 36.9141 25.5664C35.8333 26.9727 34.5898 28.1641 33.1836 29.1406C31.7904 30.1172 30.651 30.6055 29.7656 30.6055C28.8802 30.6055 28.1576 30.3385 27.5977 29.8047C26.8815 29.1406 26.5234 28.2227 26.5234 27.0508C26.5234 25.8659 26.7839 24.681 27.3047 23.4961C27.8385 22.2982 28.5352 21.2109 29.3945 20.2344C30.2539 19.2448 31.1979 18.3464 32.2266 17.5391C34.388 15.8464 36.3802 15 38.2031 15C38.9062 15 39.4792 15.1172 39.9219 15.3516C40.3646 15.5859 40.6445 15.8789 40.7617 16.2305C41.0742 15.7617 41.3346 15.4688 41.543 15.3516C41.7643 15.2214 42.0898 15.1562 42.5195 15.1562ZM39.9219 17.3242C37.6953 17.3242 35.3906 18.5612 33.0078 21.0352C32.1615 21.9206 31.3802 22.9818 30.6641 24.2188C29.9609 25.4557 29.6094 26.3021 29.6094 26.7578C29.6094 27.2135 29.7396 27.4414 30 27.4414C30.3646 27.4414 31.3802 26.7253 33.0469 25.293C34.7135 23.8477 35.8203 22.7865 36.3672 22.1094C36.9661 21.3542 38.151 19.7591 39.9219 17.3242ZM60.1953 14.9609C60.1953 15.8594 59.694 17.1745 58.6914 18.9062C57.6888 20.625 56.3997 22.3698 54.8242 24.1406C53.2617 25.9115 51.6016 27.4479 49.8438 28.75C48.0859 30.0391 46.7122 30.6836 45.7227 30.6836C45.1888 30.6836 44.7005 30.4883 44.2578 30.0977C43.8151 29.707 43.5938 29.0885 43.5938 28.2422C43.5938 27.3828 43.9974 26.0352 44.8047 24.1992C45.612 22.3633 46.4062 20.8138 47.1875 19.5508C46.4974 20.0586 46.0742 20.3125 45.918 20.3125C45.7747 20.3125 45.5859 20.1432 45.3516 19.8047C45.1302 19.4661 45.0195 19.2057 45.0195 19.0234C45.0195 18.8281 45.0521 18.6849 45.1172 18.5938C47.6823 15.7422 49.4922 14.3164 50.5469 14.3164C50.9896 14.3164 51.3607 14.4466 51.6602 14.707C51.9596 14.9674 52.1094 15.2799 52.1094 15.6445C52.1094 16.0091 51.6667 17.0573 50.7812 18.7891C49.8958 20.5208 49.0104 22.2721 48.125 24.043C47.2396 25.8008 46.7969 26.9076 46.7969 27.3633C46.7969 27.4414 46.8359 27.4805 46.9141 27.4805C47.2526 27.4805 48.1641 26.8099 49.6484 25.4688C51.1458 24.1146 52.3568 22.8581 53.2812 21.6992C54.2057 20.5404 55.013 19.375 55.7031 18.2031C56.4062 17.0312 56.7578 16.263 56.7578 15.8984C56.7578 15.5339 56.6797 15.2344 56.5234 15C56.3802 14.7526 56.3086 14.4922 56.3086 14.2188C56.3086 13.9323 56.4974 13.6198 56.875 13.2812C57.2656 12.9297 57.7604 12.7539 58.3594 12.7539C59.5833 12.7539 60.1953 13.4896 60.1953 14.9609ZM71.1914 8.55469C71.1914 9.29688 70.8464 10.0456 70.1562 10.8008C69.4661 11.543 68.7435 11.9141 67.9883 11.9141C67.2461 11.9141 66.875 11.5234 66.875 10.7422C66.875 9.96094 67.2005 9.21875 67.8516 8.51562C68.5156 7.79948 69.2448 7.44141 70.0391 7.44141C70.3906 7.44141 70.6706 7.53906 70.8789 7.73438C71.0872 7.92969 71.1914 8.20312 71.1914 8.55469ZM68.0273 25.6055C68.0273 25.9961 67.9883 26.276 67.9102 26.4453C67.2721 27.7474 66.2565 28.8021 64.8633 29.6094C63.4701 30.4036 62.2591 30.8008 61.2305 30.8008C60.2018 30.8008 59.3164 30.4557 58.5742 29.7656C57.832 29.0755 57.4609 28.3724 57.4609 27.6562C57.4609 26.9401 57.819 25.8984 58.5352 24.5312C59.2513 23.1641 59.9674 21.901 60.6836 20.7422C61.3997 19.5833 61.7578 18.9583 61.7578 18.8672C61.7578 18.763 61.6211 18.5677 61.3477 18.2812C61.0872 17.9948 60.957 17.7865 60.957 17.6562C60.957 17.513 61.224 17.1549 61.7578 16.582C62.3047 15.9961 62.9622 15.4232 63.7305 14.8633C64.5117 14.2904 65.1042 14.0039 65.5078 14.0039C65.9245 14.0039 66.2956 14.1862 66.6211 14.5508C66.9466 14.9154 67.1094 15.2474 67.1094 15.5469C67.1094 15.8464 65.5599 18.6654 62.4609 24.0039C62.4219 24.082 62.3112 24.2578 62.1289 24.5312C61.9596 24.7917 61.8229 25.013 61.7188 25.1953C61.6276 25.3646 61.5169 25.5729 61.3867 25.8203C61.1263 26.3411 60.9961 26.7773 60.9961 27.1289C60.9961 27.5716 61.2956 27.793 61.8945 27.793C62.4935 27.793 63.112 27.5911 63.75 27.1875C64.401 26.7708 64.9609 26.3151 65.4297 25.8203C66.6536 24.5052 67.3503 23.8477 67.5195 23.8477C67.8581 23.8477 68.0273 24.4336 68.0273 25.6055ZM91.1328 0.722656C91.3802 0.722656 91.5755 0.800781 91.7188 0.957031C91.862 1.11328 91.9336 1.27604 91.9336 1.44531C91.9336 1.60156 91.8034 1.90104 91.543 2.34375C91.2956 2.77344 90.7161 3.72396 89.8047 5.19531C88.8932 6.65365 88.1836 7.79948 87.6758 8.63281C84.7201 13.4375 82.4023 17.5 80.7227 20.8203C79.043 24.1406 78.2031 26.1458 78.2031 26.8359V26.9922C78.2031 27.526 78.3984 27.793 78.7891 27.793C79.1797 27.793 79.6484 27.6107 80.1953 27.2461C80.7552 26.8815 81.2435 26.4909 81.6602 26.0742C82.0768 25.6576 82.4935 25.2279 82.9102 24.7852C83.3398 24.3294 83.6003 24.0625 83.6914 23.9844C83.7826 23.9062 83.8997 23.8672 84.043 23.8672C84.2643 23.8672 84.4076 24.0104 84.4727 24.2969C84.5378 24.5703 84.5703 24.9609 84.5703 25.4688C84.5703 25.9635 84.5312 26.2891 84.4531 26.4453C84.0755 27.1745 83.2422 28.0664 81.9531 29.1211C80.6771 30.1628 79.4661 30.6836 78.3203 30.6836C76.3672 30.6836 75.3906 29.8568 75.3906 28.2031C75.3906 27.1745 75.7812 25.8268 76.5625 24.1602C75.5078 25.5273 74.4336 26.6927 73.3398 27.6562C71.3086 29.4271 69.5443 30.3125 68.0469 30.3125C67.2135 30.3125 66.5951 30.0195 66.1914 29.4336C65.8008 28.8477 65.6055 28.0078 65.6055 26.9141C65.6055 25.8073 66.0352 24.4857 66.8945 22.9492C67.7539 21.4128 68.8216 20.0326 70.0977 18.8086C71.3867 17.5716 72.8125 16.543 74.375 15.7227C75.9375 14.8893 77.3763 14.4727 78.6914 14.4727C79.1081 14.4727 79.5964 14.7266 80.1562 15.2344C80.5339 14.6354 81.2305 13.4375 82.2461 11.6406C85.4362 6.26302 87.5456 2.98177 88.5742 1.79688C89.1211 1.08073 89.974 0.722656 91.1328 0.722656ZM78.9648 17.0703C77.0898 17.487 75.3451 18.3594 73.7305 19.6875C72.1159 21.0156 70.9049 22.4089 70.0977 23.8672C69.2904 25.3125 68.8867 26.25 68.8867 26.6797C68.8867 27.1094 68.9779 27.3242 69.1602 27.3242C69.9414 27.3242 71.875 25.5794 74.9609 22.0898C76.4974 20.3711 77.832 18.6979 78.9648 17.0703ZM97.7734 19.3164C97.4089 19.3164 97.2266 19.0885 97.2266 18.6328C97.2266 18.2943 97.3763 17.9232 97.6758 17.5195C97.9883 17.1159 98.1771 16.849 98.2422 16.7188C98.3073 16.5885 98.4766 16.3867 98.75 16.1133C99.0365 15.8398 99.2839 15.6771 99.4922 15.625C99.7135 15.5729 100.156 15.5143 100.82 15.4492C102.852 15.2539 105.065 15.1432 107.461 15.1172C110.065 11.1719 112.188 8.24219 113.828 6.32812C111.393 6.77083 108.405 6.99219 104.863 6.99219C100.059 6.99219 97.6562 5.91797 97.6562 3.76953C97.6562 3.15755 97.9622 2.6237 98.5742 2.16797C99.1992 1.71224 99.9805 1.48438 100.918 1.48438C101.868 1.48438 102.344 1.59505 102.344 1.81641C102.344 1.93359 102.194 1.99219 101.895 1.99219C101.608 1.99219 101.335 2.10286 101.074 2.32422C100.827 2.53255 100.703 2.73438 100.703 2.92969C100.703 3.22917 101.341 3.45052 102.617 3.59375C103.893 3.73698 105.859 3.80859 108.516 3.80859C111.185 3.80859 114.076 3.56771 117.188 3.08594C118.216 2.23958 119.18 1.60156 120.078 1.17188C120.99 0.742188 121.914 0.527344 122.852 0.527344C123.789 0.527344 124.401 0.735677 124.688 1.15234C124.974 1.56901 125.117 1.88151 125.117 2.08984C125.13 2.29818 124.98 2.57161 124.668 2.91016C124.355 3.2487 123.919 3.59375 123.359 3.94531C122.044 4.7526 120.319 5.23438 118.184 5.39062C115.905 8.26823 113.555 11.5234 111.133 15.1562C112.135 15.1953 113.073 15.2734 113.945 15.3906C114.818 15.4948 115.254 15.8333 115.254 16.4062C115.254 16.6406 114.883 17.0898 114.141 17.7539C114.062 17.8451 113.965 17.9818 113.848 18.1641C113.639 18.4766 113.431 18.6328 113.223 18.6328C113.027 18.6328 112.799 18.6068 112.539 18.5547C111.523 18.5156 110.762 18.4961 110.254 18.4961L108.984 18.5156C104.401 25.651 102.031 29.362 101.875 29.6484C101.732 29.9219 101.569 30.1302 101.387 30.2734C101.217 30.4167 101.003 30.4883 100.742 30.4883C100.482 30.4883 100.117 30.4427 99.6484 30.3516C99.1797 30.2734 98.8281 30.1693 98.5938 30.0391C98.3594 29.9219 98.2422 29.7721 98.2422 29.5898C98.2422 29.3945 98.3008 29.1211 98.418 28.7695C98.7305 27.8971 100.918 24.5312 104.98 18.6719C102.337 18.8021 100.241 18.9388 98.6914 19.082L97.7734 19.3164ZM122.578 1.67969C122.37 1.74479 122.116 1.84896 121.816 1.99219L122.578 1.67969ZM131.191 23.8672C131.439 23.8672 131.589 24.056 131.641 24.4336C131.693 24.8112 131.719 25.2018 131.719 25.6055C131.719 26.0091 131.68 26.2891 131.602 26.4453C131.224 27.1745 130.397 28.0664 129.121 29.1211C127.845 30.1628 126.634 30.6836 125.488 30.6836C124.785 30.6836 124.134 30.4688 123.535 30.0391C122.936 29.6224 122.637 28.8867 122.637 27.832C122.637 26.7773 122.917 25.7422 123.477 24.7266C120.247 28.776 117.715 30.8008 115.879 30.8008C115.15 30.8008 114.557 30.5404 114.102 30.0195C113.659 29.4987 113.438 28.9648 113.438 28.418C113.438 27.8581 113.516 27.2852 113.672 26.6992C113.828 26.1003 113.991 25.5664 114.16 25.0977C114.342 24.6289 114.603 24.0495 114.941 23.3594C115.293 22.6693 115.553 22.168 115.723 21.8555C115.892 21.543 116.159 21.0742 116.523 20.4492C116.901 19.8112 117.389 18.9583 117.988 17.8906C118.6 16.8229 119.102 16.0352 119.492 15.5273C119.896 15.0065 120.286 14.7461 120.664 14.7461C121.042 14.7331 121.374 14.8828 121.66 15.1953C121.947 15.5078 122.09 15.7617 122.09 15.957C122.09 16.1523 121.654 17.0312 120.781 18.5938C118.203 23.2552 116.914 25.9701 116.914 26.7383C116.914 26.9336 116.986 27.0312 117.129 27.0312C117.754 27.0312 119.31 25.6771 121.797 22.9688C124.284 20.2604 125.723 18.5286 126.113 17.7734C126.504 17.0052 126.882 16.3607 127.246 15.8398C127.624 15.319 127.904 15 128.086 14.8828C128.646 14.5182 129.368 14.3229 130.254 14.2969C130.397 14.2969 130.508 14.3034 130.586 14.3164C130.664 14.3294 130.755 14.4401 130.859 14.6484C130.964 14.8568 131.016 15.0195 131.016 15.1367C130.898 15.5013 130.378 16.4714 129.453 18.0469C128.542 19.6224 128.034 20.5143 127.93 20.7227C126.393 23.8997 125.625 25.9701 125.625 26.9336C125.625 27.4805 125.833 27.7539 126.25 27.7539C127.005 27.6497 127.917 27.0443 128.984 25.9375C129.375 25.5339 129.759 25.1237 130.137 24.707C130.527 24.2904 130.768 24.0495 130.859 23.9844C130.951 23.9062 131.061 23.8672 131.191 23.8672ZM143.906 4.84375L144.707 5.03906C144.824 5.03906 144.928 5.09766 145.02 5.21484C145.111 5.33203 145.156 5.44271 145.156 5.54688C145.156 5.65104 145.02 5.93099 144.746 6.38672C144.473 6.84245 144.147 7.36328 143.77 7.94922C143.405 8.52214 143.21 8.83464 143.184 8.88672C144.199 8.80859 144.915 8.76953 145.332 8.76953C145.762 8.76953 146.055 8.80208 146.211 8.86719C146.367 8.91927 146.543 9.08203 146.738 9.35547C146.947 9.61589 147.135 9.81771 147.305 9.96094C147.474 10.0911 147.559 10.293 147.559 10.5664C147.559 10.8398 147.389 11.0742 147.051 11.2695C146.725 11.4518 146.374 11.5625 145.996 11.6016C142.975 11.901 141.309 12.0573 140.996 12.0703C139.941 13.6849 138.464 16.2044 136.562 19.6289C134.674 23.0404 133.672 25.1758 133.555 26.0352C133.503 26.4258 133.477 26.7448 133.477 26.9922C133.477 27.5 133.743 27.7539 134.277 27.7539C134.811 27.7539 135.404 27.5521 136.055 27.1484C136.706 26.7318 137.305 26.2826 137.852 25.8008C139.31 24.4987 140.091 23.8477 140.195 23.8477C140.534 23.8477 140.703 24.4336 140.703 25.6055C140.703 26.2435 140.41 26.8164 139.824 27.3242C138.509 28.457 137.402 29.3099 136.504 29.8828C135.605 30.4557 134.707 30.7422 133.809 30.7422C133.613 30.7422 133.431 30.7227 133.262 30.6836C132.22 30.4883 131.452 30.1107 130.957 29.5508C130.475 28.9779 130.234 28.2096 130.234 27.2461C130.247 26.2826 130.534 25.1172 131.094 23.75C131.667 22.3698 132.383 20.9049 133.242 19.3555C134.648 16.8294 136.055 14.4596 137.461 12.2461L136.719 12.3438C135.208 12.513 134.329 12.5977 134.082 12.5977H133.906C133.529 12.5977 133.164 12.526 132.812 12.3828C132.461 12.2266 132.285 12.0378 132.285 11.8164C132.285 11.5951 132.376 11.3802 132.559 11.1719C132.754 10.9635 132.871 10.8008 132.91 10.6836C133.001 10.3971 133.34 10.0781 133.926 9.72656C134.525 9.375 134.974 9.19271 135.273 9.17969C135.573 9.15365 135.859 9.13411 136.133 9.12109C136.419 9.10807 136.732 9.09505 137.07 9.08203C137.422 9.06901 137.689 9.05599 137.871 9.04297L139.629 8.96484C140.723 7.32422 141.471 6.26953 141.875 5.80078C142.292 5.33203 142.533 5.07812 142.598 5.03906C142.663 4.98698 142.793 4.96094 142.988 4.96094L143.906 4.84375ZM152.324 15.1172C152.715 15.1172 153.112 15.293 153.516 15.6445C153.932 15.9961 154.141 16.5365 154.141 17.2656C154.141 17.9818 153.887 18.9193 153.379 20.0781C152.871 21.224 152.174 22.3958 151.289 23.5938C150.404 24.7786 149.427 25.8984 148.359 26.9531C147.305 27.9948 146.159 28.8542 144.922 29.5312C143.698 30.1953 142.585 30.5273 141.582 30.5273C140.579 30.5273 139.772 30.2148 139.16 29.5898C138.561 28.9518 138.262 28.0729 138.262 26.9531C138.262 25.8203 138.535 24.5703 139.082 23.2031C139.642 21.8359 140.358 20.6315 141.23 19.5898C142.103 18.5352 143.047 17.5911 144.062 16.7578C146.185 15.0521 148.047 14.1992 149.648 14.1992C150.365 14.1992 150.905 14.375 151.27 14.7266C151.4 14.8438 151.465 14.9479 151.465 15.0391V15.1562C151.647 15.1302 151.934 15.1172 152.324 15.1172ZM150.352 17.7148H150.215C149.759 17.7148 149.531 17.3828 149.531 16.7188C148.581 17.0312 147.585 17.5781 146.543 18.3594C145.501 19.1406 144.57 20.0651 143.75 21.1328C142.083 23.2682 141.237 25.0716 141.211 26.543C141.211 27.2721 141.478 27.6367 142.012 27.6367C142.546 27.6367 143.34 27.2852 144.395 26.582C145.449 25.8789 146.491 24.8763 147.52 23.5742C148.561 22.2721 149.336 21.1458 149.844 20.1953C150.365 19.2318 150.625 18.5807 150.625 18.2422C150.625 17.8906 150.534 17.7148 150.352 17.7148ZM160.098 19.3555C163.171 15.8659 165.788 14.1211 167.949 14.1211C168.483 14.1211 168.919 14.2839 169.258 14.6094C169.609 14.9219 169.785 15.332 169.785 15.8398C169.785 16.3477 169.421 17.2005 168.691 18.3984C167.975 19.5833 167.311 20.5859 166.699 21.4062C166.374 21.8229 166.003 22.0312 165.586 22.0312C165.182 22.0312 164.863 21.8815 164.629 21.582C164.408 21.2826 164.297 20.931 164.297 20.5273C164.297 19.6289 164.779 18.6133 165.742 17.4805L165.703 17.4414C165.273 17.4805 164.206 18.3268 162.5 19.9805C160.807 21.6341 159.362 23.1185 158.164 24.4336C156.979 25.7357 155.69 27.3242 154.297 29.1992C153.893 29.7591 153.548 30.0391 153.262 30.0391C152.988 30.0391 152.624 29.9544 152.168 29.7852C151.699 29.6029 151.419 29.4727 151.328 29.3945C151.224 29.3164 151.172 29.1862 151.172 29.0039C151.172 28.8216 151.224 28.6133 151.328 28.3789C151.432 28.1315 151.628 27.7865 151.914 27.3438C152.188 26.901 152.604 26.1849 153.164 25.1953C153.737 24.2057 154.622 22.7083 155.82 20.7031C157.018 18.6979 157.734 17.487 157.969 17.0703C158.464 16.2109 158.867 15.5859 159.18 15.1953C159.766 14.4531 160.755 14.082 162.148 14.082C162.461 14.082 162.617 14.2773 162.617 14.668C162.617 15.2799 162.051 16.4323 160.918 18.125L160.098 19.3555ZM182.598 15.1562C183.587 15.1562 184.082 15.4948 184.082 16.1719C184.082 16.5365 183.997 16.8034 183.828 16.9727C183.659 17.1419 183.294 17.7083 182.734 18.6719C182.188 19.6224 181.576 20.8464 180.898 22.3438C180.234 23.8281 179.805 25.0977 179.609 26.1523C179.57 26.2826 179.551 26.4648 179.551 26.6992C179.551 27.4154 179.746 27.7734 180.137 27.7734C180.527 27.7734 180.99 27.5911 181.523 27.2266C182.057 26.849 182.533 26.4518 182.949 26.0352C183.366 25.6055 183.77 25.1693 184.16 24.7266C184.564 24.2839 184.805 24.0299 184.883 23.9648C184.961 23.8997 185.078 23.8672 185.234 23.8672C185.482 23.8672 185.632 24.056 185.684 24.4336C185.736 24.8112 185.762 25.2018 185.762 25.6055C185.762 26.0091 185.723 26.2891 185.645 26.4453C185.267 27.1875 184.434 28.0794 183.145 29.1211C181.868 30.1628 180.703 30.6836 179.648 30.6836C178.607 30.6836 177.839 30.3646 177.344 29.7266C176.849 29.0885 176.602 28.3854 176.602 27.6172C176.602 26.8359 176.732 26.1523 176.992 25.5664C175.911 26.9727 174.668 28.1641 173.262 29.1406C171.868 30.1172 170.729 30.6055 169.844 30.6055C168.958 30.6055 168.236 30.3385 167.676 29.8047C166.96 29.1406 166.602 28.2227 166.602 27.0508C166.602 25.8659 166.862 24.681 167.383 23.4961C167.917 22.2982 168.613 21.2109 169.473 20.2344C170.332 19.2448 171.276 18.3464 172.305 17.5391C174.466 15.8464 176.458 15 178.281 15C178.984 15 179.557 15.1172 180 15.3516C180.443 15.5859 180.723 15.8789 180.84 16.2305C181.152 15.7617 181.413 15.4688 181.621 15.3516C181.842 15.2214 182.168 15.1562 182.598 15.1562ZM180 17.3242C177.773 17.3242 175.469 18.5612 173.086 21.0352C172.24 21.9206 171.458 22.9818 170.742 24.2188C170.039 25.4557 169.688 26.3021 169.688 26.7578C169.688 27.2135 169.818 27.4414 170.078 27.4414C170.443 27.4414 171.458 26.7253 173.125 25.293C174.792 23.8477 175.898 22.7865 176.445 22.1094C177.044 21.3542 178.229 19.7591 180 17.3242ZM194.18 26.9922C194.18 27.5651 194.57 27.8516 195.352 27.8516C195.768 27.8516 196.289 27.6432 196.914 27.2266C197.552 26.8099 198.125 26.3542 198.633 25.8594C199.987 24.5182 200.755 23.8477 200.938 23.8477C201.276 23.8477 201.445 24.3359 201.445 25.3125C201.445 26.2891 201.139 26.9596 200.527 27.3242C198.665 29.0039 197.227 30.026 196.211 30.3906C195.638 30.5859 195.007 30.6771 194.316 30.6641C193.626 30.651 192.943 30.3516 192.266 29.7656C191.589 29.1797 191.25 28.4701 191.25 27.6367C191.25 26.7904 191.471 25.8333 191.914 24.7656C192.357 23.6979 192.806 22.7865 193.262 22.0312C193.73 21.263 194.303 20.3776 194.98 19.375C195.658 18.3594 196.016 17.7279 196.055 17.4805L196.016 17.4414C195.586 17.4805 194.518 18.3268 192.812 19.9805C191.12 21.6341 189.72 23.0729 188.613 24.2969C187.507 25.5208 186.185 27.1549 184.648 29.1992C184.219 29.7591 183.867 30.0391 183.594 30.0391C183.32 30.0391 182.956 29.9544 182.5 29.7852C182.031 29.6029 181.745 29.4727 181.641 29.3945C181.536 29.3164 181.484 29.1992 181.484 29.043C181.484 28.8867 181.53 28.6979 181.621 28.4766C181.712 28.2422 181.803 28.0534 181.895 27.9102C181.973 27.7539 182.109 27.5195 182.305 27.207C182.5 26.8945 182.884 26.237 183.457 25.2344C184.043 24.2188 184.935 22.7083 186.133 20.7031C187.331 18.6979 188.047 17.487 188.281 17.0703C188.776 16.2109 189.18 15.5859 189.492 15.1953C190.078 14.4531 191.068 14.082 192.461 14.082C192.773 14.082 192.93 14.2773 192.93 14.668C192.93 15.2799 192.363 16.4323 191.23 18.125L190.41 19.3555C192.663 16.8555 194.564 15.2734 196.113 14.6094C196.868 14.2839 197.546 14.1211 198.145 14.1211C198.757 14.1211 199.238 14.2839 199.59 14.6094C199.954 14.9349 200.137 15.2995 200.137 15.7031C200.137 16.0938 200 16.569 199.727 17.1289C199.453 17.6758 199.173 18.1706 198.887 18.6133C198.613 19.043 198.249 19.5898 197.793 20.2539C197.337 20.918 197.09 21.2826 197.051 21.3477C197.012 21.3997 196.908 21.556 196.738 21.8164C196.582 22.0638 196.465 22.2461 196.387 22.3633C196.309 22.4805 196.178 22.6888 195.996 22.9883C195.814 23.2747 195.664 23.5156 195.547 23.7109C195.443 23.9062 195.306 24.1471 195.137 24.4336C194.98 24.7201 194.85 24.9674 194.746 25.1758C194.655 25.3841 194.557 25.612 194.453 25.8594C194.271 26.3151 194.18 26.6927 194.18 26.9922Z" fill="#5E39F5"/>
</svg>
