<svg width="20" height="20" viewBox="0 0 20 20" fill="none" xmlns="http://www.w3.org/2000/svg">
<path d="M4.37494 4.37543L5.15619 16.8754C5.1933 17.5977 5.71869 18.1254 6.40619 18.1254H13.5937C14.2839 18.1254 14.7995 17.5977 14.8437 16.8754L15.6249 4.37543M3.125 4.37543H16.875M7.50007 4.37525V2.81275C7.49971 2.68953 7.52372 2.56746 7.5707 2.45356C7.61769 2.33965 7.68673 2.23616 7.77386 2.14903C7.86098 2.0619 7.96448 1.99286 8.07838 1.94588C8.19229 1.89889 8.31436 1.87489 8.43757 1.87525H11.5626C11.6858 1.87489 11.8079 1.89889 11.9218 1.94588C12.0357 1.99286 12.1392 2.0619 12.2263 2.14903C12.3134 2.23616 12.3825 2.33965 12.4294 2.45356C12.4764 2.56746 12.5004 2.68953 12.5001 2.81275V4.37525M10 6.87561V15.6256M7.18755 6.87561L7.50005 15.6256M12.8125 6.87561L12.5 15.6256" stroke="#6C6A7C" stroke-width="1.5" stroke-linecap="round" stroke-linejoin="round"/>
</svg>
