<svg width="18" height="18" viewBox="0 0 18 18" fill="none" xmlns="http://www.w3.org/2000/svg">
<path d="M16.784 0.249451H1.21602C0.959844 0.249554 0.714194 0.351364 0.533054 0.532504C0.351913 0.713645 0.250104 0.959295 0.25 1.21547V16.7834C0.250104 17.0396 0.351913 17.2853 0.533054 17.4664C0.714194 17.6475 0.959844 17.7493 1.21602 17.7494H9V10.8744H6.9082V8.37445H9V6.38226C9 4.12211 10.5676 2.89164 12.5867 2.89164C13.5527 2.89164 14.5918 2.96429 14.8332 2.99632V5.35687H13.2246C12.1262 5.35687 11.9168 5.8764 11.9168 6.64203V8.37445H14.534L14.1922 10.8744H11.9168V17.7494H16.784C17.0402 17.7493 17.2858 17.6475 17.4669 17.4664C17.6481 17.2853 17.7499 17.0396 17.75 16.7834V1.21547C17.7499 0.959295 17.6481 0.713645 17.4669 0.532504C17.2858 0.351364 17.0402 0.249554 16.784 0.249451V0.249451Z" fill="#A09DB1"/>
</svg>
