<svg width="48" height="48" viewBox="0 0 48 48" fill="none" xmlns="http://www.w3.org/2000/svg">
<rect width="48" height="48" rx="24" fill="#EEEBFC"/>
<path d="M29.25 16.5H18.75C18.5511 16.5 18.3603 16.421 18.2197 16.2803C18.079 16.1397 18 15.9489 18 15.75C18 15.5511 18.079 15.3603 18.2197 15.2197C18.3603 15.079 18.5511 15 18.75 15H29.25C29.4489 15 29.6397 15.079 29.7803 15.2197C29.921 15.3603 30 15.5511 30 15.75C30 15.9489 29.921 16.1397 29.7803 16.2803C29.6397 16.421 29.4489 16.5 29.25 16.5Z" fill="#A09DB1"/>
<path d="M30.75 18.75H17.25C17.0511 18.75 16.8603 18.671 16.7197 18.5303C16.579 18.3897 16.5 18.1989 16.5 18C16.5 17.8011 16.579 17.6103 16.7197 17.4697C16.8603 17.329 17.0511 17.25 17.25 17.25H30.75C30.9489 17.25 31.1397 17.329 31.2803 17.4697C31.421 17.6103 31.5 17.8011 31.5 18C31.5 18.1989 31.421 18.3897 31.2803 18.5303C31.1397 18.671 30.9489 18.75 30.75 18.75Z" fill="#A09DB1"/>
<path d="M31.6467 33H16.3533C15.7956 32.9994 15.261 32.7776 14.8667 32.3833C14.4724 31.989 14.2506 31.4544 14.25 30.8967V21.6033C14.2506 21.0456 14.4724 20.511 14.8667 20.1167C15.261 19.7224 15.7956 19.5006 16.3533 19.5H31.6467C32.2044 19.5006 32.739 19.7224 33.1333 20.1167C33.5276 20.511 33.7494 21.0456 33.75 21.6033V30.8967C33.7494 31.4544 33.5276 31.989 33.1333 32.3833C32.739 32.7776 32.2044 32.9994 31.6467 33Z" fill="#A09DB1"/>
</svg>
