<svg width="115" height="9" viewBox="0 0 115 9" fill="none" xmlns="http://www.w3.org/2000/svg">
<path fill-rule="evenodd" clip-rule="evenodd" d="M8.10047 4.57342C8.93924 4.77562 9.93788 4.97104 11.0345 5.15467C15.4885 5.90053 21.4307 6.4331 24.4094 6.47911C45.8455 6.8102 67.2116 5.50993 88.6049 3.23726C80.6208 3.23706 72.6369 3.24387 64.653 3.27082C47.1555 3.62692 27.4713 4.07669 12.9179 4.40923C11.3213 4.44571 9.7864 4.48078 8.32293 4.51416C8.24874 4.53374 8.17459 4.55349 8.10047 4.57342ZM108.278 3.24467C110.357 3.24541 112.436 3.2459 114.515 3.2459C114.783 3.2459 115 2.69302 115 2.01101C115 1.32899 114.783 0.776114 114.515 0.776114C113.071 0.776114 111.626 0.775878 110.181 0.775485C110.179 0.768258 110.176 0.761266 110.174 0.754509C110.115 0.596157 110.055 0.515354 110.028 0.48222C109.943 0.378606 109.855 0.352505 109.836 0.346748L109.834 0.345971C109.795 0.333834 109.753 0.325561 109.709 0.31931C109.621 0.306622 109.502 0.298513 109.352 0.294249C104.203 0.147893 99.053 0.21603 93.9084 0.2841L93.144 0.294189C85.6993 0.391932 75.6023 0.578136 64.6485 0.801054C60.7524 0.814211 56.8563 0.832164 52.9603 0.856441C48.741 0.882732 44.3752 0.662415 39.9419 0.438693C29.4124 -0.0926778 18.502 -0.643264 8.2693 2.0455C5.36554 2.11174 2.74396 2.17129 0.480294 2.22199C0.212694 2.22798 -0.00233239 2.7857 1.91042e-05 3.46768C0.0023706 4.14967 0.22121 4.69767 0.48881 4.69167C1.8256 4.66174 3.28715 4.62871 4.8579 4.59304C4.85804 4.6019 4.85821 4.6108 4.85842 4.61973C4.86729 4.99886 4.93557 5.276 4.9916 5.44069C5.0893 5.72791 5.21702 5.87408 5.28303 5.9436C5.44002 6.10894 5.65648 6.24009 5.89305 6.35361C6.85668 6.81597 8.74512 7.24642 10.9709 7.61914C15.4417 8.3678 21.4033 8.9025 24.4035 8.94885C50.4228 9.35073 76.3349 7.35115 102.31 4.128C103.491 3.98151 105.849 3.65652 107.617 3.3595C107.848 3.32073 108.07 3.2823 108.278 3.24467ZM109.674 0.446224L109.673 0.446977C109.683 0.43991 109.685 0.440438 109.674 0.446224ZM5.63886 5.44056C5.63299 5.44883 5.62924 5.45234 5.62924 5.45234C5.62924 5.45234 5.63191 5.44799 5.63886 5.44056Z" fill="#60B257"/>
</svg>
