<svg width="18" height="12" viewBox="0 0 18 12" fill="none" xmlns="http://www.w3.org/2000/svg">
<path d="M0 10.9999C0 11.5522 0.44775 12 1.00008 12H16.9999C17.5522 12 18 11.5522 18 10.9999C18 10.4476 17.5522 9.99984 16.9999 9.99984H1.00008C0.447749 9.99984 0 10.4476 0 10.9999ZM0 6C0 6.5522 0.447645 6.99984 0.999844 6.99984H17.0001C17.5523 6.99984 18 6.5522 18 6C18 5.4478 17.5523 5.00015 17.0001 5.00015H0.999843C0.447645 5.00015 0 5.4478 0 6ZM1.00008 0C0.447749 0 0 0.44775 0 1.00008C0 1.55241 0.44775 2.00016 1.00008 2.00016H16.9999C17.5522 2.00016 18 1.55241 18 1.00008C18 0.44775 17.5522 0 16.9999 0H1.00008Z" fill="#403E48"/>
</svg>
