<svg width="48" height="48" viewBox="0 0 48 48" fill="none" xmlns="http://www.w3.org/2000/svg">
<rect width="48" height="48" rx="24" fill="#EEEBFC"/>
<path d="M24.2614 16.7479C24.1916 16.6811 24.0988 16.6439 24.0022 16.6439C23.9056 16.6439 23.8128 16.6811 23.743 16.7479L15.1133 24.9918C15.0766 25.0268 15.0475 25.069 15.0276 25.1156C15.0077 25.1623 14.9974 25.2125 14.9975 25.2632L14.9961 33.0004C14.9961 33.3982 15.1541 33.7797 15.4354 34.061C15.7167 34.3423 16.0983 34.5004 16.4961 34.5004H21.0008C21.1997 34.5004 21.3905 34.4214 21.5311 34.2807C21.6718 34.1401 21.7508 33.9493 21.7508 33.7504V27.3754C21.7508 27.2759 21.7903 27.1805 21.8606 27.1102C21.9309 27.0399 22.0263 27.0004 22.1258 27.0004H25.8758C25.9752 27.0004 26.0706 27.0399 26.1409 27.1102C26.2113 27.1805 26.2508 27.2759 26.2508 27.3754V33.7504C26.2508 33.9493 26.3298 34.1401 26.4705 34.2807C26.6111 34.4214 26.8019 34.5004 27.0008 34.5004H31.5036C31.9014 34.5004 32.2829 34.3423 32.5643 34.061C32.8456 33.7797 33.0036 33.3982 33.0036 33.0004V25.2632C33.0037 25.2125 32.9934 25.1623 32.9735 25.1156C32.9536 25.069 32.9245 25.0268 32.8878 24.9918L24.2614 16.7479Z" fill="#5E39F5"/>
<path d="M35.0114 23.4445L31.5052 20.0902V15C31.5052 14.8011 31.4262 14.6103 31.2855 14.4697C31.1449 14.329 30.9541 14.25 30.7552 14.25H28.5052C28.3063 14.25 28.1155 14.329 27.9748 14.4697C27.8342 14.6103 27.7552 14.8011 27.7552 15V16.5L25.0402 13.9041C24.7861 13.6472 24.4083 13.5 24 13.5C23.5931 13.5 23.2163 13.6472 22.9622 13.9045L12.9919 23.4436C12.7003 23.7249 12.6638 24.1875 12.9291 24.4922C12.9957 24.5691 13.0773 24.6317 13.1688 24.676C13.2604 24.7204 13.36 24.7457 13.4617 24.7503C13.5633 24.755 13.6649 24.7389 13.7601 24.7031C13.8553 24.6672 13.9423 24.6124 14.0156 24.5419L23.7422 15.2475C23.812 15.1807 23.9048 15.1435 24.0014 15.1435C24.098 15.1435 24.1909 15.1807 24.2606 15.2475L33.9881 24.5419C34.1314 24.6793 34.3234 24.7543 34.5219 24.7504C34.7204 24.7466 34.9092 24.6642 35.0471 24.5213C35.3349 24.2231 35.311 23.7309 35.0114 23.4445Z" fill="#5E39F5"/>
</svg>
