<svg width="166" height="24" viewBox="0 0 166 24" fill="none" xmlns="http://www.w3.org/2000/svg">
<rect width="166" height="24" rx="12" fill="#F3FAF2"/>
<path d="M21 7.99951L14 15.9995L11 12.9995" stroke="#60B257" stroke-width="1.5" stroke-miterlimit="10" stroke-linecap="round" stroke-linejoin="round"/>
<path d="M28.996 15.5V7.58H30.268V15.5H28.996ZM37.2709 11.816V15.5H36.0109V11.984C36.0109 11.576 35.8909 11.248 35.6509 11C35.4189 10.744 35.1109 10.616 34.7269 10.616C34.3349 10.616 34.0109 10.744 33.7549 11C33.5069 11.256 33.3829 11.584 33.3829 11.984V15.5H32.1229V9.608H33.2989V10.184C33.7469 9.712 34.3349 9.476 35.0629 9.476C35.7429 9.476 36.2789 9.688 36.6709 10.112C37.0709 10.536 37.2709 11.104 37.2709 11.816ZM46.4926 9.608H47.8366L44.9686 16.172C44.7206 16.732 44.4246 17.14 44.0806 17.396C43.7366 17.66 43.3126 17.792 42.8086 17.792C42.4726 17.792 42.1486 17.752 41.8366 17.672V16.604C42.1646 16.636 42.3966 16.652 42.5326 16.652C43.1406 16.652 43.5686 16.364 43.8166 15.788L44.0566 15.236L41.7046 9.608H43.0606L44.7526 13.892L46.4926 9.608ZM48.3681 12.548C48.3521 11.708 48.6521 10.984 49.2681 10.376C49.8921 9.76 50.6281 9.46 51.4761 9.476C52.3321 9.46 53.0721 9.76 53.6961 10.376C54.3201 10.992 54.6241 11.716 54.6081 12.548C54.6241 13.388 54.3201 14.116 53.6961 14.732C53.0721 15.348 52.3321 15.648 51.4761 15.632C50.6281 15.648 49.8921 15.348 49.2681 14.732C48.6521 14.108 48.3521 13.38 48.3681 12.548ZM53.3121 12.56C53.3121 12.016 53.1361 11.56 52.7841 11.192C52.4321 10.816 52.0001 10.628 51.4881 10.628C50.9681 10.628 50.5321 10.816 50.1801 11.192C49.8281 11.56 49.6521 12.016 49.6521 12.56C49.6521 13.104 49.8241 13.56 50.1681 13.928C50.5201 14.288 50.9561 14.468 51.4761 14.468C51.9961 14.468 52.4321 14.284 52.7841 13.916C53.1361 13.548 53.3121 13.096 53.3121 12.56ZM55.9926 13.028V9.608H57.2406V13.124C57.2406 13.524 57.3646 13.848 57.6126 14.096C57.8606 14.344 58.1806 14.468 58.5726 14.468C58.9486 14.468 59.2566 14.344 59.4966 14.096C59.7446 13.848 59.8686 13.524 59.8686 13.124V9.608H61.1286V13.028C61.1286 13.804 60.8846 14.432 60.3966 14.912C59.9166 15.392 59.3086 15.632 58.5726 15.632C57.8206 15.632 57.2006 15.396 56.7126 14.924C56.2326 14.444 55.9926 13.812 55.9926 13.028ZM66.2684 9.608V10.724H65.8844C65.3724 10.724 64.9564 10.868 64.6364 11.156C64.3164 11.444 64.1564 11.844 64.1564 12.356V15.5H62.8964V9.608H64.0724V10.376C64.5124 9.824 65.0844 9.548 65.7884 9.548C65.9484 9.548 66.1084 9.568 66.2684 9.608ZM74.2637 14.432V15.5C73.8477 15.588 73.4997 15.632 73.2197 15.632C72.5317 15.632 71.9957 15.46 71.6117 15.116C71.2357 14.772 71.0477 14.26 71.0477 13.58V10.7H70.0877V9.608H71.0477V8.06H72.3197V9.608H74.0717V10.7H72.3197V13.472C72.3197 13.84 72.4117 14.104 72.5957 14.264C72.7877 14.416 73.0837 14.492 73.4837 14.492C73.6197 14.492 73.8797 14.472 74.2637 14.432ZM78.9129 9.608V10.724H78.5289C78.0169 10.724 77.6009 10.868 77.2809 11.156C76.9609 11.444 76.8009 11.844 76.8009 12.356V15.5H75.5409V9.608H76.7169V10.376C77.1569 9.824 77.7289 9.548 78.4329 9.548C78.5929 9.548 78.7529 9.568 78.9129 9.608ZM85.2277 12.968H80.8357C80.9157 13.448 81.1277 13.828 81.4717 14.108C81.8237 14.38 82.2517 14.516 82.7557 14.516C83.3797 14.516 83.9517 14.284 84.4717 13.82L85.0717 14.684C84.4077 15.316 83.6237 15.632 82.7197 15.632C81.8237 15.632 81.0717 15.34 80.4637 14.756C79.8557 14.164 79.5517 13.432 79.5517 12.56C79.5357 11.712 79.8317 10.984 80.4397 10.376C81.0477 9.76 81.7677 9.46 82.5997 9.476C83.3757 9.476 84.0237 9.736 84.5437 10.256C85.0637 10.768 85.3237 11.408 85.3237 12.176C85.3237 12.408 85.2917 12.672 85.2277 12.968ZM80.8597 11.984H84.0637C84.0557 11.544 83.9077 11.196 83.6197 10.94C83.3317 10.676 82.9757 10.544 82.5517 10.544C82.1357 10.544 81.7717 10.676 81.4597 10.94C81.1557 11.196 80.9557 11.544 80.8597 11.984ZM91.4475 11.936V15.5H90.2715V14.84C89.8315 15.368 89.2035 15.632 88.3875 15.632C87.7715 15.632 87.2755 15.476 86.8995 15.164C86.5235 14.852 86.3355 14.44 86.3355 13.928C86.3355 13.416 86.5315 13.008 86.9235 12.704C87.3155 12.4 87.8435 12.248 88.5075 12.248H90.1755V11.864C90.1755 11.456 90.0635 11.144 89.8395 10.928C89.6235 10.712 89.3155 10.604 88.9155 10.604C88.3155 10.604 87.7715 10.896 87.2835 11.48L86.5515 10.736C87.1275 9.896 87.9555 9.476 89.0355 9.476C89.7715 9.476 90.3555 9.692 90.7875 10.124C91.2275 10.556 91.4475 11.16 91.4475 11.936ZM90.1755 13.268V13.16H88.6635C87.9675 13.16 87.6195 13.4 87.6195 13.88C87.6195 14.12 87.7115 14.312 87.8955 14.456C88.0875 14.592 88.3395 14.66 88.6515 14.66C89.0835 14.66 89.4435 14.528 89.7315 14.264C90.0275 14 90.1755 13.668 90.1755 13.268ZM96.7051 14.432V15.5C96.2891 15.588 95.9411 15.632 95.6611 15.632C94.9731 15.632 94.4371 15.46 94.0531 15.116C93.6771 14.772 93.4891 14.26 93.4891 13.58V10.7H92.5291V9.608H93.4891V8.06H94.7611V9.608H96.5131V10.7H94.7611V13.472C94.7611 13.84 94.8531 14.104 95.0371 14.264C95.2291 14.416 95.5251 14.492 95.9251 14.492C96.0611 14.492 96.3211 14.472 96.7051 14.432ZM106.826 11.816V15.5H105.554V11.996C105.554 11.58 105.442 11.248 105.218 11C105.002 10.752 104.706 10.628 104.33 10.628C103.946 10.628 103.634 10.752 103.394 11C103.154 11.24 103.034 11.552 103.034 11.936V15.5H101.774V11.996C101.774 11.588 101.662 11.26 101.438 11.012C101.214 10.756 100.914 10.628 100.538 10.628C100.154 10.628 99.8423 10.756 99.6023 11.012C99.3623 11.26 99.2423 11.588 99.2423 11.996V15.5H97.9823V9.608H99.1583V10.16C99.5983 9.704 100.166 9.476 100.862 9.476C101.678 9.476 102.274 9.784 102.65 10.4C103.122 9.784 103.786 9.476 104.642 9.476C105.314 9.476 105.846 9.692 106.238 10.124C106.63 10.548 106.826 11.112 106.826 11.816ZM113.88 12.968H109.488C109.568 13.448 109.78 13.828 110.124 14.108C110.476 14.38 110.904 14.516 111.408 14.516C112.032 14.516 112.604 14.284 113.124 13.82L113.724 14.684C113.06 15.316 112.276 15.632 111.372 15.632C110.476 15.632 109.724 15.34 109.116 14.756C108.508 14.164 108.204 13.432 108.204 12.56C108.188 11.712 108.484 10.984 109.092 10.376C109.7 9.76 110.42 9.46 111.252 9.476C112.028 9.476 112.676 9.736 113.196 10.256C113.716 10.768 113.976 11.408 113.976 12.176C113.976 12.408 113.944 12.672 113.88 12.968ZM109.512 11.984H112.716C112.708 11.544 112.56 11.196 112.272 10.94C111.984 10.676 111.628 10.544 111.204 10.544C110.788 10.544 110.424 10.676 110.112 10.94C109.808 11.196 109.608 11.544 109.512 11.984ZM120.568 11.816V15.5H119.308V11.984C119.308 11.576 119.188 11.248 118.948 11C118.716 10.744 118.408 10.616 118.024 10.616C117.632 10.616 117.308 10.744 117.052 11C116.804 11.256 116.68 11.584 116.68 11.984V15.5H115.42V9.608H116.596V10.184C117.044 9.712 117.632 9.476 118.36 9.476C119.04 9.476 119.576 9.688 119.968 10.112C120.368 10.536 120.568 11.104 120.568 11.816ZM125.826 14.432V15.5C125.41 15.588 125.062 15.632 124.782 15.632C124.094 15.632 123.558 15.46 123.174 15.116C122.798 14.772 122.61 14.26 122.61 13.58V10.7H121.65V9.608H122.61V8.06H123.882V9.608H125.634V10.7H123.882V13.472C123.882 13.84 123.974 14.104 124.158 14.264C124.35 14.416 124.646 14.492 125.046 14.492C125.182 14.492 125.442 14.472 125.826 14.432ZM136.587 12.548C136.587 13.428 136.311 14.164 135.759 14.756C135.215 15.34 134.527 15.632 133.695 15.632C132.879 15.632 132.223 15.348 131.727 14.78V17.66H130.467V9.608H131.643V10.436C132.091 9.796 132.775 9.476 133.695 9.476C134.527 9.476 135.215 9.772 135.759 10.364C136.311 10.948 136.587 11.676 136.587 12.548ZM134.775 13.94C135.119 13.58 135.291 13.12 135.291 12.56C135.291 12 135.119 11.54 134.775 11.18C134.431 10.812 134.003 10.628 133.491 10.628C132.995 10.628 132.575 10.796 132.231 11.132C131.887 11.468 131.715 11.94 131.715 12.548C131.715 13.164 131.887 13.64 132.231 13.976C132.575 14.312 132.995 14.48 133.491 14.48C134.003 14.48 134.431 14.3 134.775 13.94ZM138.037 15.5V6.5H139.297V15.5H138.037ZM145.799 11.936V15.5H144.623V14.84C144.183 15.368 143.555 15.632 142.739 15.632C142.123 15.632 141.627 15.476 141.251 15.164C140.875 14.852 140.687 14.44 140.687 13.928C140.687 13.416 140.883 13.008 141.275 12.704C141.667 12.4 142.195 12.248 142.859 12.248H144.527V11.864C144.527 11.456 144.415 11.144 144.191 10.928C143.975 10.712 143.667 10.604 143.267 10.604C142.667 10.604 142.123 10.896 141.635 11.48L140.903 10.736C141.479 9.896 142.307 9.476 143.387 9.476C144.123 9.476 144.707 9.692 145.139 10.124C145.579 10.556 145.799 11.16 145.799 11.936ZM144.527 13.268V13.16H143.015C142.319 13.16 141.971 13.4 141.971 13.88C141.971 14.12 142.063 14.312 142.247 14.456C142.439 14.592 142.691 14.66 143.003 14.66C143.435 14.66 143.795 14.528 144.083 14.264C144.379 14 144.527 13.668 144.527 13.268ZM152.701 11.816V15.5H151.441V11.984C151.441 11.576 151.321 11.248 151.081 11C150.849 10.744 150.541 10.616 150.157 10.616C149.765 10.616 149.441 10.744 149.185 11C148.937 11.256 148.813 11.584 148.813 11.984V15.5H147.553V9.608H148.729V10.184C149.177 9.712 149.765 9.476 150.493 9.476C151.173 9.476 151.709 9.688 152.101 10.112C152.501 10.536 152.701 11.104 152.701 11.816Z" fill="#60B257"/>
</svg>
