<svg width="48" height="48" viewBox="0 0 48 48" fill="none" xmlns="http://www.w3.org/2000/svg">
<path d="M25.5 33.75H22.5C22.3011 33.75 22.1103 33.829 21.9697 33.9697C21.829 34.1103 21.75 34.3011 21.75 34.5C21.75 34.6989 21.829 34.8897 21.9697 35.0303C22.1103 35.171 22.3011 35.25 22.5 35.25H25.5C25.6989 35.25 25.8897 35.171 26.0303 35.0303C26.171 34.8897 26.25 34.6989 26.25 34.5C26.25 34.3011 26.171 34.1103 26.0303 33.9697C25.8897 33.829 25.6989 33.75 25.5 33.75Z" fill="#A09DB1"/>
<path d="M26.25 31.5H21.75C21.5511 31.5 21.3603 31.579 21.2197 31.7197C21.079 31.8603 21 32.0511 21 32.25C21 32.4489 21.079 32.6397 21.2197 32.7803C21.3603 32.921 21.5511 33 21.75 33H26.25C26.4489 33 26.6397 32.921 26.7803 32.7803C26.921 32.6397 27 32.4489 27 32.25C27 32.0511 26.921 31.8603 26.7803 31.7197C26.6397 31.579 26.4489 31.5 26.25 31.5Z" fill="#A09DB1"/>
<path d="M29.3166 14.9386C27.9071 13.5272 26.0189 12.75 24 12.75C23.0144 12.7477 22.0381 12.9401 21.1271 13.3161C20.2161 13.6922 19.3884 14.2446 18.6915 14.9415C17.9946 15.6384 17.4422 16.4661 17.0661 17.3771C16.6901 18.2881 16.4977 19.2644 16.5 20.25C16.5 22.4353 17.3377 24.4796 18.7969 25.8581L19.0013 26.0499C19.8455 26.8392 21 27.9206 21 28.875V30C21 30.1989 21.079 30.3897 21.2197 30.5304C21.3603 30.671 21.5511 30.75 21.75 30.75H22.875C22.9745 30.75 23.0699 30.7105 23.1402 30.6402C23.2105 30.5699 23.25 30.4745 23.25 30.375V24.8822C23.25 24.8064 23.2271 24.7323 23.1841 24.6698C23.1412 24.6073 23.0803 24.5593 23.0096 24.5321C22.5765 24.3554 22.165 24.1297 21.7833 23.8594C21.6975 23.8046 21.6238 23.7329 21.5666 23.6488C21.5094 23.5646 21.4699 23.4696 21.4506 23.3697C21.4313 23.2697 21.4325 23.1669 21.4542 23.0675C21.4759 22.968 21.5176 22.874 21.5768 22.7912C21.6359 22.7084 21.7113 22.6385 21.7984 22.5858C21.8855 22.5331 21.9823 22.4986 22.0832 22.4845C22.184 22.4704 22.2866 22.477 22.3848 22.5038C22.4829 22.5307 22.5746 22.5772 22.6542 22.6406C23.0011 22.8863 23.6691 23.25 24 23.25C24.331 23.25 24.9989 22.8853 25.3467 22.6406C25.5087 22.5388 25.7034 22.5027 25.8911 22.5398C26.0788 22.5768 26.2452 22.6841 26.3563 22.8398C26.4675 22.9955 26.5149 23.1878 26.489 23.3773C26.463 23.5669 26.3656 23.7393 26.2167 23.8594C25.8349 24.1292 25.4235 24.3544 24.9905 24.5306C24.9197 24.5579 24.8588 24.6059 24.8159 24.6684C24.773 24.7309 24.75 24.805 24.75 24.8808V30.375C24.75 30.4745 24.7895 30.5699 24.8599 30.6402C24.9302 30.7105 25.0256 30.75 25.125 30.75H26.25C26.4489 30.75 26.6397 30.671 26.7804 30.5304C26.921 30.3897 27 30.1989 27 30V28.875C27 27.9431 28.1419 26.8627 28.9758 26.0733L29.206 25.8549C30.7069 24.4219 31.5 22.4817 31.5 20.25C31.505 19.2644 31.3146 18.2875 30.9398 17.3758C30.5651 16.4642 30.0133 15.6358 29.3166 14.9386Z" fill="#A09DB1"/>
</svg>
