<svg width="20" height="20" viewBox="0 0 20 20" fill="none" xmlns="http://www.w3.org/2000/svg">
<path d="M14.25 7.875H13.625V4.75C13.625 3.75544 13.2299 2.80161 12.5266 2.09835C11.8234 1.39509 10.8696 1 9.875 1C8.88044 1 7.92661 1.39509 7.22335 2.09835C6.52009 2.80161 6.125 3.75544 6.125 4.75V7.875H5.5C4.83718 7.87572 4.20172 8.13935 3.73303 8.60803C3.26435 9.07671 3.00072 9.71218 3 10.375V15.8754C3.00072 16.5382 3.26435 17.1737 3.73303 17.6423C4.20172 18.111 4.83718 18.3746 5.5 18.3754H14.25C14.9128 18.3746 15.5483 18.111 16.017 17.6423C16.4856 17.1737 16.7493 16.5382 16.75 15.8754V10.375C16.7493 9.71218 16.4856 9.07671 16.017 8.60803C15.5483 8.13935 14.9128 7.87572 14.25 7.875ZM12.375 7.875H7.375V4.75C7.375 4.08696 7.63839 3.45107 8.10723 2.98223C8.57607 2.51339 9.21196 2.25 9.875 2.25C10.538 2.25 11.1739 2.51339 11.6428 2.98223C12.1116 3.45107 12.375 4.08696 12.375 4.75V7.875Z" fill="#A09DB1"/>
<path d="M10.75 13.7993C11.1984 13.54 11.5 13.0552 11.5 12.5C11.5 11.6716 10.8284 11 10 11C9.17157 11 8.5 11.6716 8.5 12.5C8.5 13.0552 8.80165 13.54 9.25 13.7993V14.75C9.25 15.1642 9.58579 15.5 10 15.5C10.4142 15.5 10.75 15.1642 10.75 14.75V13.7993Z" fill="white"/>
</svg>
