<svg width="48" height="48" viewBox="0 0 48 48" fill="none" xmlns="http://www.w3.org/2000/svg">
<path d="M19.5 24C19.5 23.8011 19.579 23.6103 19.7197 23.4697C19.8603 23.329 20.0511 23.25 20.25 23.25H27V18.375C27 16.875 25.4161 15.75 24 15.75H16.875C16.179 15.7507 15.5118 16.0275 15.0197 16.5197C14.5275 17.0118 14.2507 17.679 14.25 18.375V29.625C14.2507 30.321 14.5275 30.9882 15.0197 31.4803C15.5118 31.9725 16.179 32.2493 16.875 32.25H24.375C25.071 32.2493 25.7382 31.9725 26.2303 31.4803C26.7225 30.9882 26.9993 30.321 27 29.625V24.75H20.25C20.0511 24.75 19.8603 24.671 19.7197 24.5303C19.579 24.3897 19.5 24.1989 19.5 24Z" fill="#A09DB1"/>
<path d="M33.5302 23.4694L29.7802 19.7194C29.6384 19.5847 29.4495 19.5107 29.254 19.5132C29.0584 19.5157 28.8715 19.5946 28.7332 19.7329C28.5949 19.8712 28.5161 20.058 28.5136 20.2536C28.5111 20.4492 28.5851 20.638 28.7198 20.7798L31.1892 23.2496H27V24.7496H31.1892L28.7198 27.2194C28.6473 27.2884 28.5892 27.3712 28.5492 27.4629C28.5091 27.5546 28.4878 27.6535 28.4865 27.7536C28.4852 27.8537 28.504 27.953 28.5417 28.0457C28.5794 28.1385 28.6353 28.2227 28.7061 28.2935C28.7769 28.3643 28.8611 28.4202 28.9539 28.4579C29.0466 28.4956 29.1459 28.5144 29.246 28.5131C29.3461 28.5118 29.445 28.4905 29.5367 28.4504C29.6284 28.4104 29.7112 28.3523 29.7802 28.2797L33.5302 24.5298C33.6707 24.3891 33.7497 24.1984 33.7497 23.9996C33.7497 23.8008 33.6707 23.6101 33.5302 23.4694Z" fill="#A09DB1"/>
</svg>
