<svg width="98" height="32" viewBox="0 0 98 32" fill="none" xmlns="http://www.w3.org/2000/svg">
<rect width="98" height="32" rx="16" fill="#FAF6EB"/>
<g clip-path="url(#clip0_919_10418)">
<path d="M20 9.50024V11.0002" stroke="#D9AC4D" stroke-width="1.5" stroke-miterlimit="10" stroke-linecap="round"/>
<path d="M20 21.0005V22.5005" stroke="#D9AC4D" stroke-width="1.5" stroke-miterlimit="10" stroke-linecap="round"/>
<path d="M24.5963 11.4036L23.5356 12.4642" stroke="#D9AC4D" stroke-width="1.5" stroke-miterlimit="10" stroke-linecap="round"/>
<path d="M16.4644 19.5366L15.4038 20.5972" stroke="#D9AC4D" stroke-width="1.5" stroke-miterlimit="10" stroke-linecap="round"/>
<path d="M26.5 15.9995H25" stroke="#D9AC4D" stroke-width="1.5" stroke-miterlimit="10" stroke-linecap="round"/>
<path d="M15 15.9995H13.5" stroke="#D9AC4D" stroke-width="1.5" stroke-miterlimit="10" stroke-linecap="round"/>
<path d="M24.5963 20.5972L23.5356 19.5366" stroke="#D9AC4D" stroke-width="1.5" stroke-miterlimit="10" stroke-linecap="round"/>
<path d="M16.4644 12.4642L15.4038 11.4036" stroke="#D9AC4D" stroke-width="1.5" stroke-miterlimit="10" stroke-linecap="round"/>
<path d="M20 18.5007C21.3807 18.5007 22.5 17.3814 22.5 16.0007C22.5 14.62 21.3807 13.5007 20 13.5007C18.6193 13.5007 17.5 14.62 17.5 16.0007C17.5 17.3814 18.6193 18.5007 20 18.5007Z" stroke="#D9AC4D" stroke-width="1.5" stroke-miterlimit="10" stroke-linecap="round"/>
</g>
<path d="M44.762 11.277L41.161 16.074L37.56 11.277H37.079V20H38.457V14.605L40.927 17.842H41.395L43.852 14.618V20H45.23V11.277H44.762ZM46.8301 16.802C46.7911 18.609 48.3641 20.182 50.1971 20.143C52.0561 20.182 53.6291 18.609 53.5901 16.802C53.6291 14.995 52.0561 13.435 50.1971 13.474C48.3641 13.448 46.7911 14.969 46.8301 16.802ZM52.1861 16.815C52.1861 17.972 51.3281 18.882 50.1971 18.882C49.0791 18.882 48.2211 17.998 48.2211 16.815C48.2211 15.632 49.0791 14.722 50.2101 14.722C51.3151 14.722 52.1861 15.632 52.1861 16.815ZM58.808 13.617C58.652 13.578 58.483 13.552 58.288 13.552C57.56 13.552 56.884 13.877 56.429 14.449V13.617H55.155V20H56.52V16.594C56.52 15.463 57.313 14.826 58.392 14.826H58.808V13.617ZM65.607 16.009C65.607 14.488 64.71 13.474 63.215 13.474C62.422 13.474 61.785 13.734 61.304 14.241V13.617H60.03V20H61.395V16.191C61.395 15.32 62.006 14.709 62.851 14.709C63.683 14.709 64.242 15.307 64.242 16.191V20H65.607V16.009ZM67.5075 20H68.8725V13.617H67.5075V20ZM67.2605 11.238C67.2605 11.745 67.6765 12.135 68.1965 12.135C68.7035 12.135 69.1195 11.745 69.1195 11.238C69.1195 10.731 68.7035 10.328 68.1965 10.328C67.6765 10.328 67.2605 10.731 67.2605 11.238ZM76.4234 16.009C76.4234 14.488 75.5264 13.474 74.0314 13.474C73.2384 13.474 72.6014 13.734 72.1204 14.241V13.617H70.8464V20H72.2114V16.191C72.2114 15.32 72.8224 14.709 73.6674 14.709C74.4994 14.709 75.0584 15.307 75.0584 16.191V20H76.4234V16.009ZM83.3289 13.617V14.527C82.8609 13.864 82.0419 13.474 81.0669 13.474C79.2989 13.474 77.9599 14.813 77.9599 16.672C77.9599 18.531 79.2859 19.87 81.0669 19.87C81.9509 19.87 82.7439 19.545 83.2249 18.96V19.415C83.2249 20.611 82.4709 21.235 81.3139 21.235C80.4429 21.235 79.7929 20.897 79.0779 20.325L78.3239 21.274C79.0909 21.989 80.1309 22.483 81.3919 22.483C83.3289 22.483 84.5899 21.352 84.5899 19.337V13.617H83.3289ZM83.2379 16.659C83.2379 17.309 83.0429 17.803 82.6659 18.154C82.2889 18.505 81.8469 18.674 81.3139 18.674C80.7549 18.674 80.2999 18.492 79.9229 18.128C79.5459 17.751 79.3639 17.27 79.3639 16.672C79.3639 16.087 79.5459 15.606 79.9229 15.242C80.2999 14.878 80.7549 14.696 81.3139 14.696C82.3669 14.696 83.2379 15.359 83.2379 16.659Z" fill="#403E48"/>
<defs>
<clipPath id="clip0_919_10418">
<rect width="16" height="16" fill="white" transform="translate(12 8)"/>
</clipPath>
</defs>
</svg>
