<svg width="90" height="32" viewBox="0 0 90 32" fill="none" xmlns="http://www.w3.org/2000/svg">
<rect width="90" height="32" rx="16" fill="#F7F9FE"/>
<g clip-path="url(#clip0_919_10453)">
<path d="M21 12.25C21 11.2931 21.1409 10.3247 21.5 9.5C19.1116 10.5397 17.5 12.9787 17.5 15.75C17.5 19.4778 20.5222 22.5 24.25 22.5C27.0212 22.5 29.4603 20.8884 30.5 18.5C29.6753 18.8591 28.7069 19 27.75 19C24.0222 19 21 15.9778 21 12.25Z" stroke="#98B2F3" stroke-width="1.5" stroke-linecap="round" stroke-linejoin="round"/>
</g>
<path d="M46.773 11.42V17.205L41.56 11.277H41.079V20H42.457V14.189L47.683 20.143H48.151V11.42H46.773ZM50.1667 20H51.5317V13.617H50.1667V20ZM49.9197 11.238C49.9197 11.745 50.3357 12.135 50.8557 12.135C51.3627 12.135 51.7787 11.745 51.7787 11.238C51.7787 10.731 51.3627 10.328 50.8557 10.328C50.3357 10.328 49.9197 10.731 49.9197 11.238ZM58.5106 13.617V14.527C58.0426 13.864 57.2236 13.474 56.2486 13.474C54.4806 13.474 53.1416 14.813 53.1416 16.672C53.1416 18.531 54.4676 19.87 56.2486 19.87C57.1326 19.87 57.9256 19.545 58.4066 18.96V19.415C58.4066 20.611 57.6526 21.235 56.4956 21.235C55.6246 21.235 54.9746 20.897 54.2596 20.325L53.5056 21.274C54.2726 21.989 55.3126 22.483 56.5736 22.483C58.5106 22.483 59.7716 21.352 59.7716 19.337V13.617H58.5106ZM58.4196 16.659C58.4196 17.309 58.2246 17.803 57.8476 18.154C57.4706 18.505 57.0286 18.674 56.4956 18.674C55.9366 18.674 55.4816 18.492 55.1046 18.128C54.7276 17.751 54.5456 17.27 54.5456 16.672C54.5456 16.087 54.7276 15.606 55.1046 15.242C55.4816 14.878 55.9366 14.696 56.4956 14.696C57.5486 14.696 58.4196 15.359 58.4196 16.659ZM67.3218 16.009C67.3218 14.501 66.4118 13.474 64.9558 13.474C64.1888 13.474 63.5388 13.747 63.1098 14.254V10.25H61.7448V20H63.1098V16.204C63.1098 15.333 63.7208 14.722 64.5658 14.722C65.4108 14.722 65.9568 15.32 65.9568 16.204V20H67.3218V16.009ZM73.0184 18.843C72.6414 18.882 72.3684 18.908 72.1734 18.908C71.3414 18.908 70.9124 18.622 70.9124 17.803V14.8H72.8104V13.617H70.9124V11.94H69.5344V13.617H68.4944V14.8H69.5344V17.92C69.5344 19.415 70.4184 20.143 71.8874 20.143C72.2124 20.143 72.5894 20.091 73.0184 20V18.843Z" fill="#403E48"/>
<defs>
<clipPath id="clip0_919_10453">
<rect width="16" height="16" fill="white" transform="translate(16 8)"/>
</clipPath>
</defs>
</svg>
