<svg width="20" height="20" viewBox="0 0 20 20" fill="none" xmlns="http://www.w3.org/2000/svg">
<path d="M11.8516 10C11.8516 11.0226 11.0226 11.8516 10 11.8516C8.97741 11.8516 8.14844 11.0226 8.14844 10C8.14844 8.97741 8.97741 8.14844 10 8.14844C11.0226 8.14844 11.8516 8.97741 11.8516 10Z" fill="#6C6A7C" stroke="#6C6A7C" stroke-width="0.046875"/>
<path d="M16.25 11.875C17.2855 11.875 18.125 11.0355 18.125 10C18.125 8.96447 17.2855 8.125 16.25 8.125C15.2145 8.125 14.375 8.96447 14.375 10C14.375 11.0355 15.2145 11.875 16.25 11.875Z" fill="#6C6A7C"/>
<path d="M3.75 11.875C4.78553 11.875 5.625 11.0355 5.625 10C5.625 8.96447 4.78553 8.125 3.75 8.125C2.71447 8.125 1.875 8.96447 1.875 10C1.875 11.0355 2.71447 11.875 3.75 11.875Z" fill="#6C6A7C"/>
</svg>
