<svg width="56" height="56" viewBox="0 0 56 56" fill="none" xmlns="http://www.w3.org/2000/svg">
<rect width="56" height="56" rx="12" fill="#EEEBFC"/>
<path d="M37.9375 18.2496H18.0625C17.7518 18.2496 17.5 18.5015 17.5 18.8121V21.4371C17.5 21.7478 17.7518 21.9996 18.0625 21.9996H37.9375C38.2481 21.9996 38.5 21.7478 38.5 21.4371V18.8121C38.5 18.5015 38.2481 18.2496 37.9375 18.2496Z" fill="#5E39F5"/>
<path fill-rule="evenodd" clip-rule="evenodd" d="M19 36.6245V23.4995H37V36.6245C37 36.9229 36.8815 37.2091 36.6705 37.42C36.4595 37.631 36.1734 37.7495 35.875 37.7495H20.125C19.8266 37.7495 19.5405 37.631 19.3295 37.42C19.1185 37.2091 19 36.9229 19 36.6245ZM27 34V31H24V29H27V26H29V29H32V31H29V34H27Z" fill="#5E39F5"/>
</svg>
