<svg width="24" height="24" viewBox="0 0 24 24" fill="none" xmlns="http://www.w3.org/2000/svg">
<path d="M11.9999 2.99994C7.03113 2.99994 2.99988 7.03119 2.99988 11.9999C2.99988 16.9687 7.03113 20.9999 11.9999 20.9999C16.9686 20.9999 20.9999 16.9687 20.9999 11.9999C20.9999 7.03119 16.9686 2.99994 11.9999 2.99994ZM12.4892 17.1562H11.0732C11.0413 17.1561 11.0108 17.1433 10.9883 17.1207C10.9658 17.0982 10.9532 17.0676 10.9532 17.0357V15.6201C10.9532 15.5882 10.9658 15.5577 10.9883 15.5351C11.0108 15.5125 11.0413 15.4997 11.0732 15.4996H12.4892C12.5211 15.4997 12.5516 15.5125 12.5741 15.5351C12.5966 15.5577 12.6092 15.5882 12.6092 15.6201V17.0357C12.6092 17.0676 12.5966 17.0982 12.5741 17.1207C12.5516 17.1433 12.5211 17.1561 12.4892 17.1562ZM13.2861 12.5156C12.5263 13.0256 12.4217 13.4929 12.4217 13.9218V14.4374C12.4217 14.4747 12.4069 14.5105 12.3806 14.5369C12.3542 14.5632 12.3184 14.5781 12.2811 14.5781H11.2499C11.2126 14.5781 11.1768 14.5632 11.1504 14.5369C11.1241 14.5105 11.1093 14.4747 11.1093 14.4374V13.9218C11.1093 12.8948 11.5817 12.0782 12.5539 11.4252C13.4577 10.8187 13.9686 10.4343 13.9686 9.58916C13.9686 9.01447 13.6405 8.57806 12.9613 8.25509C12.8014 8.17916 12.4457 8.10509 12.0078 8.11025C11.4585 8.11728 11.0319 8.24853 10.7033 8.51291C10.0836 9.01166 10.0311 9.55494 10.0311 9.56244C10.0054 9.72178 9.99223 9.8829 9.99175 10.0443C9.99175 10.0816 9.97693 10.1174 9.95056 10.1437C9.92419 10.1701 9.88842 10.1849 9.85113 10.1849H8.85503C8.82012 10.1851 8.78639 10.1723 8.7604 10.149C8.73441 10.1257 8.71801 10.0936 8.71441 10.0588C8.69753 9.87165 8.69894 9.68326 8.71863 9.49634C8.72894 9.38244 8.803 8.35634 9.87972 7.49009C10.438 7.04103 11.1482 6.80759 11.9891 6.79728C12.5844 6.79025 13.1436 6.89103 13.5228 7.07009C14.6577 7.60962 15.2811 8.50447 15.2811 9.58916C15.2811 11.1749 14.2213 11.887 13.2861 12.5156Z" fill="#A09DB1"/>
</svg>
