<svg width="64" height="48" viewBox="0 0 64 48" fill="none" xmlns="http://www.w3.org/2000/svg">
<path d="M29.2995 35.4612C29.2995 39.2509 28.028 42.2876 25.481 44.5714C22.9341 46.8571 19.7629 48 15.979 48C11.1444 48 7.35857 46.4653 4.61571 43.3959C1.87286 40.3285 0.499512 36.2449 0.499512 31.151C0.499512 25.9285 1.31391 21.4857 2.94849 17.8286C4.58114 14.1733 6.5384 11.1385 8.82796 8.71836C11.1098 6.30204 13.4954 4.40816 15.979 3.03673C18.4587 1.6653 20.6138 0.656902 22.4424 0L28.7137 10.5796C26.1014 11.6264 23.8791 13.2917 22.0525 15.5774C20.222 17.8631 19.179 20.3121 18.9158 22.9224C21.5262 22.9224 23.9137 24.0691 26.0688 26.3529C28.2239 28.6387 29.2995 31.6754 29.2995 35.4612ZM63.1953 35.4612C63.1953 39.2509 61.9218 42.2876 59.3749 44.5714C56.828 46.8591 53.6587 48 49.8729 48C45.0364 48 41.2525 46.4653 38.5096 43.3959C35.7648 40.3285 34.3934 36.2449 34.3934 31.151C34.3934 25.9285 35.2078 21.4857 36.8424 17.8286C38.475 14.1733 40.4323 11.1385 42.7199 8.71836C45.0018 6.30204 47.3893 4.40816 49.8729 3.03673C52.3526 1.6653 54.5058 0.656902 56.3362 0L62.6056 10.5796C59.9934 11.6264 57.773 13.2917 55.9463 15.5774C54.1158 17.8631 53.0709 20.3121 52.8097 22.9224C55.42 22.9224 57.8076 24.0691 59.9607 26.3529C62.1178 28.6387 63.1953 31.6754 63.1953 35.4612Z" fill="#EEEBFC"/>
</svg>
