<svg width="20" height="20" viewBox="0 0 20 20" fill="none" xmlns="http://www.w3.org/2000/svg">
<path d="M8.63633 2.50055C7.42268 2.50055 6.23628 2.86044 5.22717 3.53471C4.21806 4.20898 3.43155 5.16734 2.9671 6.28861C2.50266 7.40987 2.38114 8.64368 2.61791 9.83401C2.85468 11.0243 3.43911 12.1177 4.29729 12.9759C5.15547 13.8341 6.24886 14.4185 7.43919 14.6553C8.62952 14.8921 9.86333 14.7705 10.9846 14.3061C12.1059 13.8417 13.0642 13.0551 13.7385 12.046C14.4128 11.0369 14.7727 9.85053 14.7727 8.63688C14.7726 7.00945 14.126 5.44871 12.9753 4.29795C11.8245 3.14719 10.2638 2.50065 8.63633 2.50055V2.50055Z" stroke="#503ca3" stroke-width="1.5" stroke-miterlimit="10"/>
<path d="M13.2148 13.2145L17.5004 17.5" stroke="#503ca3" stroke-width="1.5" stroke-miterlimit="10" stroke-linecap="round"/>
</svg>
