<svg width="28" height="28" viewBox="0 0 28 28" fill="none" xmlns="http://www.w3.org/2000/svg">
<rect width="28" height="28" rx="14" fill="#EEEBFC"/>
<path d="M21.8934 13.0969L21.8884 13.0947L8.54219 7.55904C8.42993 7.51206 8.30778 7.49363 8.18666 7.50541C8.06554 7.51719 7.94922 7.55881 7.84813 7.62654C7.74131 7.69653 7.65357 7.79198 7.5928 7.9043C7.53204 8.01662 7.50015 8.14228 7.5 8.26998V11.8103C7.50006 11.9849 7.56102 12.154 7.67237 12.2884C7.78372 12.4229 7.93849 12.5143 8.11 12.5469L15.3891 13.8928C15.4177 13.8982 15.4435 13.9135 15.462 13.9359C15.4806 13.9583 15.4908 13.9865 15.4908 14.0156C15.4908 14.0447 15.4806 14.0729 15.462 14.0953C15.4435 14.1178 15.4177 14.133 15.3891 14.1384L8.11031 15.4844C7.93885 15.5169 7.78409 15.6081 7.67269 15.7425C7.56129 15.8768 7.50022 16.0458 7.5 16.2203V19.7612C7.49992 19.8832 7.53011 20.0032 7.58787 20.1106C7.64563 20.218 7.72915 20.3094 7.83094 20.3765C7.95337 20.4579 8.09706 20.5014 8.24406 20.5015C8.34626 20.5015 8.4474 20.4809 8.54156 20.4412L21.8875 14.9372L21.8934 14.9344C22.0731 14.8571 22.2262 14.729 22.3337 14.5657C22.4413 14.4024 22.4986 14.2111 22.4986 14.0156C22.4986 13.8201 22.4413 13.6288 22.3337 13.4655C22.2262 13.3022 22.0731 13.1741 21.8934 13.0969Z" fill="#5E39F5"/>
</svg>
