<svg width="56" height="56" viewBox="0 0 56 56" fill="none" xmlns="http://www.w3.org/2000/svg">
<rect width="56" height="56" rx="12" fill="#EEEBFC"/>
<path d="M35.4254 20.5761C34.4522 19.5932 33.2943 18.8123 32.0183 18.2783C30.7423 17.7442 29.3734 17.4675 27.9902 17.4641C26.607 17.4607 25.2367 17.7307 23.9581 18.2584C22.6795 18.7862 21.5178 19.5614 20.5397 20.5395C19.5616 21.5176 18.7864 22.6793 18.2587 23.9579C17.7309 25.2365 17.461 26.6067 17.4644 27.9899C17.4678 29.3732 17.7445 30.7421 18.2785 32.0181C18.8126 33.294 19.5935 34.4519 20.5764 35.4252C21.5496 36.4081 22.7075 37.189 23.9835 37.723C25.2595 38.2571 26.6284 38.5338 28.0116 38.5372C29.3948 38.5406 30.7651 38.2706 32.0437 37.7429C33.3223 37.2151 34.484 36.4399 35.4621 35.4618C36.4402 34.4837 37.2153 33.322 37.7431 32.0434C38.2709 30.7648 38.5408 29.3946 38.5374 28.0114C38.534 26.6281 38.2573 25.2592 37.7233 23.9832C37.1892 22.7073 36.4083 21.5494 35.4254 20.5761ZM31.3759 25.7507C31.5984 25.7507 31.8159 25.8166 32.0009 25.9403C32.1859 26.0639 32.3301 26.2396 32.4153 26.4451C32.5004 26.6507 32.5227 26.8769 32.4793 27.0951C32.4359 27.3134 32.3287 27.5138 32.1714 27.6711C32.0141 27.8285 31.8136 27.9356 31.5954 27.979C31.3771 28.0224 31.1509 28.0002 30.9454 27.915C30.7398 27.8299 30.5641 27.6857 30.4405 27.5007C30.3169 27.3157 30.2509 27.0982 30.2509 26.8757C30.2505 26.7278 30.2794 26.5814 30.3358 26.4447C30.3922 26.308 30.475 26.1839 30.5796 26.0793C30.6841 25.9748 30.8083 25.8919 30.9449 25.8355C31.0816 25.7791 31.2281 25.7503 31.3759 25.7507ZM24.6259 25.7507C24.8484 25.7507 25.0659 25.8166 25.2509 25.9403C25.4359 26.0639 25.5801 26.2396 25.6653 26.4451C25.7504 26.6507 25.7727 26.8769 25.7293 27.0951C25.6859 27.3134 25.5787 27.5138 25.4214 27.6711C25.2641 27.8285 25.0636 27.9356 24.8454 27.979C24.6271 28.0224 24.4009 28.0002 24.1954 27.915C23.9898 27.8299 23.8141 27.6857 23.6905 27.5007C23.5669 27.3157 23.5009 27.0982 23.5009 26.8757C23.5005 26.7278 23.5294 26.5814 23.5858 26.4447C23.6422 26.308 23.725 26.1839 23.8296 26.0793C23.9341 25.9748 24.0583 25.8919 24.1949 25.8355C24.3316 25.7791 24.4781 25.7503 24.6259 25.7507ZM28.0032 34.0007C25.8742 34.0007 24.0775 32.6183 23.5164 30.7274C23.4676 30.5624 23.4071 30.2507 23.4071 30.2507H32.5946C32.5946 30.2507 32.5332 30.5642 32.4854 30.7274C31.9332 32.6192 30.1323 34.0007 28.0032 34.0007Z" fill="#5E39F5"/>
</svg>
