<svg width="20" height="18" viewBox="0 0 20 18" fill="none" xmlns="http://www.w3.org/2000/svg">
<path d="M18.6561 8.34822C19.4563 7.78714 19.0593 6.52944 18.082 6.52944H13.3656C12.9337 6.52944 12.5507 6.2522 12.4157 5.84197L10.9499 1.38689C10.6483 0.47027 9.35167 0.47027 9.05009 1.38689L7.58431 5.84197C7.44934 6.2522 7.06626 6.52944 6.6344 6.52944H1.91613C0.938994 6.52944 0.541875 7.78677 1.34174 8.34802L5.1765 11.0388C5.54062 11.2943 5.6922 11.7596 5.54845 12.1806L4.05712 16.5475C3.74275 17.468 4.7946 18.25 5.58557 17.6838L9.41789 14.9402C9.76596 14.691 10.234 14.691 10.5821 14.9402L14.4119 17.682C15.2031 18.2484 16.2552 17.4658 15.9402 16.5451L14.447 12.1811C14.3029 11.7599 14.4546 11.2942 14.8191 11.0386L18.6561 8.34822Z" fill="#EB996E"/>
</svg>
