<svg width="44" height="44" viewBox="0 0 44 44" fill="none" xmlns="http://www.w3.org/2000/svg">
<g clip-path="url(#clip0_919_10392)">
<rect width="44" height="44" rx="8" fill="#F2F4F7"/>
<path d="M13.742 20.1626H29.0498C30.0434 20.1626 30.9963 20.5573 31.6989 21.2598C32.4015 21.9624 32.7962 22.9153 32.7962 23.9089V57.5995C32.7962 57.971 32.6486 58.3272 32.386 58.5898C32.1234 58.8525 31.7672 59 31.3957 59H11.4182C11.0467 59 10.6905 58.8525 10.4279 58.5898C10.1652 58.3272 10.0177 57.971 10.0177 57.5995V23.9045C10.0188 22.9155 10.411 21.9671 11.1087 21.2661C11.8064 20.5651 12.753 20.1684 13.742 20.1626Z" fill="#6C6A7C"/>
<path d="M27.9984 15.2324H14.7978V21.2804H27.9984V15.2324Z" fill="#6C6A7C"/>
<path d="M32.7962 32.811H10V48.1807H32.7962V32.811Z" fill="#EBEBEB"/>
<path d="M32.7962 45.0397H10V46.4313H32.7962V45.0397Z" fill="#455A64"/>
<path d="M32.7962 34.5649H10V35.9566H32.7962V34.5649Z" fill="#455A64"/>
<path d="M28.9173 11H13.8789V16.6018H28.9173V11Z" fill="#455A64"/>
<path d="M29.7037 16.5975H13.0881V18.2542H29.7037V16.5975Z" fill="#37474F"/>
<path d="M15.0806 11.782H14.8862C14.7495 11.782 14.6388 11.8928 14.6388 12.0294V15.5725C14.6388 15.7091 14.7495 15.8199 14.8862 15.8199H15.0806C15.2172 15.8199 15.328 15.7091 15.328 15.5725V12.0294C15.328 11.8928 15.2172 11.782 15.0806 11.782Z" fill="#37474F"/>
<path d="M16.3617 11.782H16.1673C16.0307 11.782 15.9199 11.8928 15.9199 12.0294V15.5725C15.9199 15.7091 16.0307 15.8199 16.1673 15.8199H16.3617C16.4984 15.8199 16.6091 15.7091 16.6091 15.5725V12.0294C16.6091 11.8928 16.4984 11.782 16.3617 11.782Z" fill="#37474F"/>
<path d="M17.4485 11.782H17.6473C17.7118 11.782 17.7736 11.8076 17.8192 11.8532C17.8647 11.8988 17.8903 11.9606 17.8903 12.025V15.5593C17.8903 15.6249 17.8643 15.6878 17.8179 15.7342C17.7715 15.7806 17.7085 15.8067 17.6429 15.8067H17.4441C17.3785 15.8067 17.3156 15.7806 17.2692 15.7342C17.2228 15.6878 17.1967 15.6249 17.1967 15.5593V12.025C17.1973 11.9925 17.2043 11.9605 17.2172 11.9307C17.2302 11.9009 17.2489 11.8739 17.2723 11.8513C17.2957 11.8288 17.3233 11.811 17.3535 11.7992C17.3838 11.7873 17.416 11.7814 17.4485 11.782Z" fill="#37474F"/>
<path d="M18.9285 11.782H18.7341C18.5975 11.782 18.4867 11.8928 18.4867 12.0294V15.5725C18.4867 15.7091 18.5975 15.8199 18.7341 15.8199H18.9285C19.0651 15.8199 19.1759 15.7091 19.1759 15.5725V12.0294C19.1759 11.8928 19.0651 11.782 18.9285 11.782Z" fill="#37474F"/>
<path d="M20.2141 11.782H20.0197C19.8831 11.782 19.7723 11.8928 19.7723 12.0294V15.5725C19.7723 15.7091 19.8831 15.8199 20.0197 15.8199H20.2141C20.3507 15.8199 20.4615 15.7091 20.4615 15.5725V12.0294C20.4615 11.8928 20.3507 11.782 20.2141 11.782Z" fill="#37474F"/>
<path d="M21.2965 11.782H21.4953C21.5609 11.782 21.6238 11.808 21.6702 11.8544C21.7166 11.9008 21.7427 11.9638 21.7427 12.0294V15.5637C21.7427 15.6293 21.7166 15.6922 21.6702 15.7386C21.6238 15.785 21.5609 15.8111 21.4953 15.8111H21.2965C21.232 15.8111 21.1702 15.7855 21.1247 15.7399C21.0791 15.6943 21.0535 15.6325 21.0535 15.5681V12.0338C21.0529 12.0013 21.0587 11.969 21.0706 11.9388C21.0825 11.9085 21.1003 11.8809 21.1228 11.8576C21.1454 11.8342 21.1723 11.8155 21.2021 11.8025C21.2319 11.7895 21.264 11.7826 21.2965 11.782Z" fill="#37474F"/>
<path d="M22.7765 11.782H22.5821C22.4454 11.782 22.3347 11.8928 22.3347 12.0294V15.5725C22.3347 15.7091 22.4454 15.8199 22.5821 15.8199H22.7765C22.9131 15.8199 23.0239 15.7091 23.0239 15.5725V12.0294C23.0239 11.8928 22.9131 11.782 22.7765 11.782Z" fill="#37474F"/>
<path d="M24.062 11.782H23.8677C23.731 11.782 23.6203 11.8928 23.6203 12.0294V15.5725C23.6203 15.7091 23.731 15.8199 23.8677 15.8199H24.062C24.1987 15.8199 24.3094 15.7091 24.3094 15.5725V12.0294C24.3094 11.8928 24.1987 11.782 24.062 11.782Z" fill="#37474F"/>
<path d="M25.1488 11.782H25.3476C25.4133 11.782 25.4762 11.808 25.5226 11.8544C25.569 11.9008 25.595 11.9638 25.595 12.0294V15.5637C25.595 15.6293 25.569 15.6922 25.5226 15.7386C25.4762 15.785 25.4133 15.8111 25.3476 15.8111H25.1488C25.0844 15.8111 25.0226 15.7855 24.977 15.7399C24.9315 15.6943 24.9059 15.6325 24.9059 15.5681V12.0338C24.9053 12.0013 24.9111 11.969 24.923 11.9388C24.9349 11.9085 24.9526 11.8809 24.9752 11.8576C24.9977 11.8342 25.0247 11.8155 25.0545 11.8025C25.0843 11.7895 25.1163 11.7826 25.1488 11.782Z" fill="#37474F"/>
<path d="M26.6244 11.782H26.43C26.2934 11.782 26.1826 11.8928 26.1826 12.0294V15.5725C26.1826 15.7091 26.2934 15.8199 26.43 15.8199H26.6244C26.7611 15.8199 26.8718 15.7091 26.8718 15.5725V12.0294C26.8718 11.8928 26.7611 11.782 26.6244 11.782Z" fill="#37474F"/>
<path d="M27.91 11.782H27.7156C27.579 11.782 27.4682 11.8928 27.4682 12.0294V15.5725C27.4682 15.7091 27.579 15.8199 27.7156 15.8199H27.91C28.0466 15.8199 28.1574 15.7091 28.1574 15.5725V12.0294C28.1574 11.8928 28.0466 11.782 27.91 11.782Z" fill="#37474F"/>
</g>
<defs>
<clipPath id="clip0_919_10392">
<rect width="44" height="44" rx="8" fill="white"/>
</clipPath>
</defs>
</svg>
