<svg width="48" height="48" viewBox="0 0 48 48" fill="none" xmlns="http://www.w3.org/2000/svg">
<path d="M27.7498 24C26.7861 24 25.8542 23.5697 25.1248 22.7888C24.4156 22.027 23.9825 21.0113 23.9061 19.9294C23.8245 18.7753 24.1766 17.7141 24.897 16.9406C25.6175 16.1672 26.6248 15.75 27.7498 15.75C28.8669 15.75 29.877 16.1747 30.5952 16.9462C31.3203 17.7253 31.6733 18.7847 31.5917 19.9289C31.5134 21.0122 31.0808 22.0275 30.373 22.7883C29.6455 23.5697 28.7141 24 27.7498 24Z" fill="#A09DB1"/>
<path d="M33.9302 32.25H21.5716C21.3729 32.2511 21.1766 32.2065 20.9979 32.1198C20.8191 32.0331 20.6626 31.9065 20.5404 31.7498C20.4108 31.58 20.3213 31.383 20.2786 31.1736C20.2359 30.9643 20.2411 30.748 20.2938 30.5409C20.6885 28.9561 21.6663 27.6417 23.1213 26.7403C24.4127 25.9406 26.0566 25.5 27.7507 25.5C29.478 25.5 31.0788 25.9219 32.3777 26.7211C33.836 27.6178 34.8152 28.9397 35.208 30.5438C35.2601 30.751 35.2648 30.9673 35.2216 31.1765C35.1784 31.3857 35.0885 31.5825 34.9587 31.7522C34.8366 31.9082 34.6805 32.0341 34.5022 32.1204C34.3239 32.2067 34.1283 32.251 33.9302 32.25Z" fill="#A09DB1"/>
<path d="M18.8899 24.1875C17.2404 24.1875 15.7901 22.6538 15.6556 20.7689C15.589 19.8033 15.8899 18.9103 16.4993 18.2555C17.1021 17.6072 17.9524 17.25 18.8899 17.25C19.8274 17.25 20.6712 17.6091 21.2773 18.2611C21.8914 18.9211 22.1914 19.8122 22.121 20.7698C21.9865 22.6542 20.5367 24.1875 18.8899 24.1875Z" fill="#A09DB1"/>
<path d="M21.9684 25.661C21.1439 25.2578 20.0737 25.0563 18.891 25.0563C17.5101 25.0563 16.169 25.4163 15.1143 26.0697C13.9185 26.8117 13.1142 27.8922 12.7893 29.1968C12.7418 29.3844 12.7373 29.5804 12.7762 29.77C12.8151 29.9596 12.8963 30.138 13.0139 30.2918C13.1254 30.4349 13.2683 30.5506 13.4315 30.63C13.5948 30.7093 13.7741 30.7501 13.9556 30.7493H19.1587C19.2465 30.7492 19.3315 30.7184 19.399 30.6621C19.4664 30.6059 19.5119 30.5277 19.5276 30.4413C19.5328 30.4118 19.5393 30.3822 19.5468 30.3532C19.9443 28.7566 20.8757 27.4075 22.252 26.4241C22.3026 26.3876 22.3433 26.3391 22.3704 26.2829C22.3975 26.2267 22.4102 26.1646 22.4073 26.1023C22.4044 26.0399 22.3859 25.9793 22.3536 25.9259C22.3214 25.8725 22.2763 25.828 22.2224 25.7964C22.1489 25.7533 22.0645 25.7078 21.9684 25.661Z" fill="#A09DB1"/>
</svg>
