<svg width="14" height="14" viewBox="0 0 14 14" fill="none" xmlns="http://www.w3.org/2000/svg">
<path d="M1.86693 0.29657L7.00013 5.42926L12.1333 0.312124C12.2344 0.209298 12.3557 0.12856 12.4896 0.0750159C12.6234 0.0214716 12.767 -0.0037141 12.9111 0.00105144C13.1939 0.0193493 13.4603 0.139931 13.6607 0.340283C13.861 0.540634 13.9816 0.807057 13.9999 1.0898C14.0013 1.22883 13.9745 1.36668 13.921 1.49502C13.8675 1.62335 13.7885 1.73949 13.6888 1.83638L8.54008 7.00018L13.6888 12.164C13.8911 12.36 14.003 12.6306 13.9999 12.9106C13.9816 13.1933 13.861 13.4597 13.6607 13.6601C13.4603 13.8604 13.1939 13.981 12.9111 13.9993C12.767 14.0041 12.6234 13.9789 12.4896 13.9253C12.3557 13.8718 12.2344 13.7911 12.1333 13.6882L7.00013 8.5711L1.88249 13.6882C1.78142 13.7911 1.66012 13.8718 1.52624 13.9253C1.39237 13.9789 1.24884 14.0041 1.10473 13.9993C0.816683 13.9843 0.544399 13.8632 0.340441 13.6592C0.136483 13.4553 0.0153119 13.183 0.000318379 12.895C-0.00108905 12.756 0.0257604 12.6181 0.0792381 12.4898C0.132716 12.3615 0.211707 12.2453 0.311421 12.1484L5.46017 7.00018L0.295866 1.83638C0.19896 1.73818 0.122843 1.62146 0.0720634 1.49318C0.0212836 1.36491 -0.00311733 1.22772 0.000318379 1.0898C0.018618 0.807057 0.139212 0.540634 0.339583 0.340283C0.539953 0.139931 0.806402 0.0193493 1.08918 0.00105144C1.23216 -0.00573922 1.37502 0.0169959 1.50883 0.0678395C1.64264 0.118683 1.76454 0.196545 1.86693 0.29657Z" fill="#313337"/>
</svg>
